/* XPM */
static char * edit [] = {
/* width height ncolors cpp [x_hot y_hot] */
"32 32 7 1 0 0",
/* colors */
" 	s background	m none	c none",
".	s iconColor6	m white	c yellow",
"X	s iconColor2	m white	c white",
"o	s iconGray5	m black	c Gray49",
"O	s iconGray3	m white	c Gray69",
"+	s iconGray1	m white	c Gray88",
"@	s iconGray7	m black	c Gray29",
/* pixels */
"                                ",
"                             .  ",
"                            .X  ",
"                           .X.  ",
"                          .X.X  ",
"                         .X.X.  ",
"                        .X.X.o  ",
"                       .X.X.o.  ",
"                      .X.X.o.o  ",
"  XXX                .X.X.o.o.  ",
"     XXX            .X.X.o.o.o  ",
"        X          .X.X.o.o.o   ",
"         X        .X.X.o.o.o    ",
"          X      .X.X.o.o.o     ",
"           X    .X.X.o.o.o      ",
"           X   .X.X.o.o.o       ",
"           X  O+XX.o.o.o        ",
"          X   OXX+o.o.o         ",
"        XX   OXX+ooo.o          ",
"     XXX     OX+ooo.o           ",
"    X       OX+ooooo            ",
"   X        O+ooooo             ",
"   X       O@ooooo              ",
"    X      @@@oo                ",
"     X     @@o                  ",
"      XX  @@                    ",
"        X@@                     ",
"                                ",
"                                ",
"                                ",
"                                ",
"                                "};
