/* XPM */
static char * edit [] = {
/* width height ncolors cpp [x_hot y_hot] */
"32 32 3 1 0 0",
/* colors */
" 	s background	m none	c none",
".	s iconColor7	m white	c cyan",
"X	s iconColor2	m white	c white",
/* pixels */
"                                ",
"                                ",
"                                ",
"               ..               ",
"               ..               ",
"               ..               ",
"               ..               ",
"               ..               ",
"               ..               ",
"               ..               ",
"               ..               ",
"               ..               ",
"               ..               ",
"XXXXXX         ..         XXXXXX",
"XXXXXX     ..........     XXXXXX",
"    XX      ........      XX    ",
"    XXX     ........     XXX    ",
"     XX      ......      XX     ",
"     XX      ......      XX     ",
"     XX       ....       XX     ",
"      XX      ....      XX      ",
"      XX       ..       XX      ",
"       XX              XX       ",
"       XX              XX       ",
"       XX              XX       ",
"        XXXXXXXXXXXXXXXX        ",
"        XXXXXXXXXXXXXXXX        ",
"                                ",
"                                ",
"                                ",
"                                ",
"                                "};
