/* XPM */
static char * edit [] = {
/* width height ncolors cpp [x_hot y_hot] */
"32 32 4 1 0 0",
/* colors */
" 	s iconColor4	m white	c green",
".	s iconColor5	m black	c blue",
"X	s none	m none	c none",
"o	s iconColor1	m black	c black",
/* pixels */
"                                ",
"                                ",
"                                ",
"            ........            ",
"          ............X   ..    ",
"        .....      .........    ",
"       ...            ......    ",
"      ...            .......    ",
"     ...            ........    ",
"     ..            .........    ",
"    ..               .......    ",
"    ..                   ...    ",
"   ...                    ..    ",
"   ..                           ",
"   ..                           ",
"         oooooooooooooo         ",
"         oooooooooooooo         ",
"                           ..   ",
"                           ..   ",
"   ....                   ...   ",
"   ......                 ..    ",
"   ........               ..    ",
"   .........             ..     ",
"   .......              ...     ",
"   ......              ...      ",
"   .......            ...       ",
"   ...  .....      .....        ",
"   ..     ............          ",
"            ........            ",
"                                ",
"                                ",
"                                "};
