/* XPM */
static char * edit_hole_ins_xpm[] = {
/* width height ncolors cpp [x_hot y_hot] */
"32 32 7 1 0 0",
/* colors */
" 	s none	m none	c none",
".	s iconGray4	m white	c Grey78",
"X	s iconColor1	m black	c black",
"o	s iconColor3	m black	c red",
"O	s iconColor2	m white	c white",
"+	s iconColor6	m white	c yellow",
"@	c #DEDEB8B88787",
/* pixels */
"                                ",
"                                ",
"             .......            ",
"       ....... .    .......     ",
"      ..  .     .          .    ",
"     ..    .     .     XX  .    ",
"    ...     .     .   X.oX ..   ",
"    .  .     .       X.o.X  .   ",
"    .   .     .     XOX.X   .   ",
"    .    .     .   .+XOX   ..   ",
"   ..     .       X+.+X     ..  ",
"   . .     .     .+.+.       .  ",
"   .  .     .   X+.+X   .    .  ",
"  .   ...      .+.+.     .   .  ",
"  .. .. ..    @+.+X       .  .  ",
"  . ..    ..  @@+.   .     . .  ",
"  .  .     .. @@@     .     ..  ",
"  .  .       X         .     .  ",
"  .  .        ..  .     .    .  ",
"  .  ..         .. .     .   .  ",
"  .   .          .. .     .  .  ",
"  ..  .           .  .     . .  ",
"  . . ..          .   .     ..  ",
"  .  . ..        ..    .    .   ",
"   .  . ...    ....     .   .   ",
"   .   .   .....   .     . ..   ",
"    .   .     .     .    ...    ",
"    ..   .     .     .  ..      ",
"      ... .     .  ......       ",
"         ...........            ",
"                                ",
"                                "};
