/* XPM */
static char * spread_25_ins_xpm[] = {
/* width height ncolors cpp [x_hot y_hot] */
"44 20 2 1 0 0",
/* colors */
" 	s none	m none	c none",
".	s iconGray1	m white	c #bdbdbdbdbdbd",
/* pixels */
"                                            ",
"                                            ",
"                                            ",
"                                            ",
"                                            ",
"                                            ",
"        ....           ....   .....         ",
"       .    .         ..  ..  ..            ",
"      .      .            .. ..             ",
"      .      .           ..  .....          ",
"      .      .          ..       ..         ",
"      .      .         ..        ..         ",
"       .    .         ..     ..  ..         ",
"        ....          ..     ..  ..         ",
"                      ......  ....          ",
"                                            ",
"                                            ",
"                                            ",
"                                            ",
"                                            "};
