/* XPM */
static char * thinker [] = {
/* width height ncolors cpp [x_hot y_hot] */
"50 50 4 1 -1 -1",
/* colors */
" 	s none			m none	c none",
".	s background	m white	c white",
"O	s foreground	m black	c MediumAquamarine",
"@	s foreground	m black	c Brown",
/* pi.els */
"                    OOOOOOOOO                     ",
"                OOOO.O.O.O.O.OOOO                 ",
"              OOO.O.O.O.O.O.O.O.OOO               ",
"            OO.O.O.O.O.O.O.O.O.O.O.OO             ",
"          OOO.O.O.O.O.O.O.O.O.O.O.O.OOO           ",
"         O.O.O.......O.O.O.O.O.O.O.O.O.O          ",
"        O.O.O.........O.O.O.O.O.O.O.O.O.O         ",
"       O.O.O.@.......@.O.O.O.O.O.O.O.O.O.O        ",
"      O.O.O.@.........@.O.O.O.O.O.O.O.O.O.O       ",
"     O.O.O.O@..........@@@.....O.O.O.O.O.O.O      ",
"    O.O.O.O.@@.@@@@@............O.O.O.O.O.O.O     ",
"    OO.O.O.O@@@@.@...@...........O.O.O.O.O.OO     ",
"   OO.O.O.O.O@@@@.@@..@...........O.O.O.O.O.OO    ",
"   O.O.O.O.O.O@@@@@..@@..........O.O.O.O.O.O.O    ",
"  O.O.O.O.O.O.O@@@@@.@@...........O.O.O.O.O.O.O   ",
"  OO.O.O.O.O.O@@@@@@@@@@..@......O.O.O.O.O.O.OO   ",
" OO.O.O.O.O.O@@@@@@.@@@.@.@@......O.O.O.O.O.O.OO  ",
" O.O.O.O.O.O.@@@.....@@@.@.@.....O.O.O.O.O.O.O.O  ",
" OO.O.O.O.O.O@@@@..@.@@@@.@@@.....O.O.O.O.O.O.OO  ",
" O.O.O.O.O.O.@@@@@..@@@@@@@@.....O.O.O.O.O.O.O.O  ",
"O.O.O.O.O.O.O.@@@@@..@@@@@@@@.....O.O.O.O.O.O.O.O ",
"OO.O.O.O.O.O.O@@@@.@..@@@@@@.@...O.O.O.O.O.O.O.OO ",
"O.O.O.O.O.O.O.O@@@@.@.@@@@@@@...@.O.O.O.O.O.O.O.O ",
"OO.O.O.O.O.O.O.O@@@@...@@@@@.@...@.O.O.O.O.O.O.OO ",
"O.O.O.O.O.O.O.O.O@@@@..@@@@.@...@@@.O.O.O.O.O.O.O ",
"OO.O.O.O.O.O.O.O.@@@.@..@.....@.@@.O.O.O.O.O.O.OO ",
"O.O.O.O.O.O.O.O.O.@@@.@@...@.@@@@...O.O.O.O.O.O.O ",
"OO.O.O.O.O.O.O.O.O.@@@@...@.@@@@.....O.O.O.O.O.OO ",
"O.O.O.O.O.O.O.O.O.@@@..@.@@@@@.@......O.O.O.O.O.O ",
" O.O.O.O.O.O.O.O.@@...@.@@@@@.@......O.O.O.O.O.O  ",
" OO.O.O.O.O.O.O.@@...@@@@@............O.O.O.O.OO  ",
" O.O.O.O.O.O.O@@@..@@@@@@....@.@.@..@@.O.O.O.O.O  ",
" OO.O.O.O.@@@.@@..@.@@@....@@.@.@.@@@@O.O.O.O.OO  ",
"  OO.O.O.@@...@@@..@@@@....@@@@@@@@@@@.O.O.O.OO   ",
"  O.O.O.@@.....@.@.@@@.@....@@@@@@@@....O.O.O.O   ",
"   O.O.O.@@....@@..@@@@@@...@@@.@.@........O.O    ",
"   OO.O.O@@.@...@@@@@@@@.@...@@@@@.@......@.OO    ",
"    OO.O.@@@@.@...@@@@@@@.@...@@@.@.@.@....@@     ",
"    O.O.O.@@@@.@...@@@@@@@.@.@@@@@@@@@.@.@@.@     ",
"     O.O.O.@@@@.@...@@@@@@@.@.@@@@@@@@@@@@.@      ",
"      O.O.O.@@@@.@.@.@@@@@@@.@.@@@@@@@@@.@@       ",
"       O.O.O.@@@@.@.@.@@@@@@@.@.@@@@@@@.@@        ",
"        O.O.O.@@@@.@.@@@@@@@@@.@@@@@@@@@@         ",
"         O.O.O.O@@@.@.@@@@@@@@@.@@@@@@@@          ",
"          O.O.O.O@@@@@.@@@@@@@@@.@@@@@@           ",
"            OO.@@@@@@.@.@@@@@.@.@@@@@             ",
"              @@@@@@@@@@.@@@@@.@@@@               ",
"                @@@@@@@.@@@@@@@@@                 ",
"                    @@@@@@@@@                     ",
"                                                  "};
