/* XPM */
static char *allied[]={
"21 22 39 1",
". c None",
"# c #000000",
"m c #090610",
"v c #2c1e02",
"x c #4a4a4a",
"F c #583a00",
"s c #5c421a",
"w c #664400",
"o c #664a1d",
"E c #6f4900",
"y c #747474",
"G c #7c5200",
"u c #815501",
"z c #828282",
"J c #8d5d00",
"l c #8e8c90",
"r c #936510",
"j c #966200",
"n c #996e2b",
"D c #9b6600",
"p c #a97000",
"A c #ababab",
"C c #b27600",
"e c #b57d17",
"q c #b87a00",
"i c #b97a00",
"k c #be841b",
"h c #c28100",
"I c #ce8800",
"t c #d48d00",
"f c #dc9200",
"g c #e59b0b",
"d c #e7a22b",
"H c #e8e8e8",
"K c #f5f5f5",
"c c #ffaa00",
"b c #ffb848",
"B c #ffd48e",
"a c #ffe2b1",
".....................",
".....................",
"......####...........",
"...##.#aa#.##........",
"..##a##ab##a##.......",
"..#acbbbbbade#.......",
"...#bbbffcgh#........",
".####ci##jk####......",
".#aaai#lm#n#aa#.##...",
".#cccf#m#a#oabo#a##..",
".####cp#acbbbbbabc#..",
"...#cqrs#bbbffccc#...",
"..#ctuv##wci##jcw###.",
"..##i##aaai#xy#bfff#.",
"...##.#cccf#zA#BCDE#.",
"......###wci##BfF###.",
"........#cffbBffG#...",
".......#cfiifffIii#..",
".......##i##ff##J#m..",
"........##.#ii#.##...",
"...........####......",
"....................."};
