/* XPM */
static char *bookshelf[]={
"20 20 7 1",
"a c None",
"# c None",
". c #000000",
"c c #00ffff",
"e c #c00000",
"b c #daa520",
"d c #ffff00",
"....############aaaa",
".bb.########aaaaaaaa",
".bb.##....##aaaaaaaa",
".bb.##.cc.##a....aaa",
".bb....cc.##a.cc.aaa",
".bb.dd.cc.....cc.aaa",
".bb.dd.cc.ddd.cc.aaa",
".bb.dd.cc.ddd.cc.aaa",
".bb.dd.cc.ddd.cc.aaa",
".bb.dd.cc.ddd.cc.aaa",
".bb.dd.cc.ddd.cc.aaa",
".bb.dd.cc.ddd.cc.aaa",
".bb.dd.cc.ddd.cc.aaa",
".bb.dd.cc.ddd.cc.aaa",
".bb.dd.cc.ddd.cc.aaa",
"....................",
".eeeeeeeeeeeeeeeeee.",
"....ee........ee....",
"###.ee.######.ee.###",
"###....######....###"};
