/* XPM */
static char *bookshelf[]={
"20 20 7 1",
"b c None",
"# c None",
". c #000000",
"c c #00ffff",
"e c #c00000",
"a c #daa520",
"d c #ffff00",
"....############....",
".aa.########bbbb.aa.",
".aa.##....##bbbb.aa.",
".aa.##.cc.##b....aa.",
".aa....cc.##b.cc.aa.",
".aa.dd.cc.....cc.aa.",
".aa.dd.cc.ddd.cc.aa.",
".aa.dd.cc.ddd.cc.aa.",
".aa.dd.cc.ddd.cc.aa.",
".aa.dd.cc.ddd.cc.aa.",
".aa.dd.cc.ddd.cc.aa.",
".aa.dd.cc.ddd.cc.aa.",
".aa.dd.cc.ddd.cc.aa.",
".aa.dd.cc.ddd.cc.aa.",
".aa.dd.cc.ddd.cc.aa.",
"....................",
".eeeeeeeeeeeeeeeeee.",
"....ee........ee....",
"###.ee.######.ee.###",
"###....######....###"};
