/* XPM */
static char *bookshelf[]={
"20 20 4 1",
". c None",
"# c None",
"a c #000000",
"b c #c00000",
"....############....",
"....########........",
"....##....##........",
"..........##........",
"..........##........",
"....................",
"....................",
"....................",
"....................",
"....................",
"....................",
"....................",
"....................",
"....................",
"....................",
"aaaaaaaaaaaaaaaaaaaa",
"abbbbbbbbbbbbbbbbbba",
"aaaabbaaaaaaaabbaaaa",
"###abba######abba###",
"###aaaa######aaaa###"};
