/* XPM */
static char *bookshelf[]={
"20 20 6 1",
"a c None",
"# c None",
". c #000000",
"d c #c00000",
"b c #daa520",
"c c #ffff00",
"....############aaaa",
".bb.########aaaaaaaa",
".bb.##aaaa##aaaaaaaa",
".bb.##aaaa##aaaaaaaa",
".bb....aaa##aaaaaaaa",
".bb.cc.aaaaaaaaaaaaa",
".bb.cc.aaaaaaaaaaaaa",
".bb.cc.aaaaaaaaaaaaa",
".bb.cc.aaaaaaaaaaaaa",
".bb.cc.aaaaaaaaaaaaa",
".bb.cc.aaaaaaaaaaaaa",
".bb.cc.aaaaaaaaaaaaa",
".bb.cc.aaaaaaaaaaaaa",
".bb.cc.aaaaaaaaaaaaa",
".bb.cc.aaaaaaaaaaaaa",
"....................",
".dddddddddddddddddd.",
"....dd........dd....",
"###.dd.######.dd.###",
"###....######....###"};
