/* XPM */
static char *bookshelf[]={
"20 20 7 1",
"a c None",
"# c None",
". c #000000",
"c c #00ffff",
"e c #c00000",
"b c #daa520",
"d c #ffff00",
"....############aaaa",
".bb.########aaaaaaaa",
".bb.##....##aaaaaaaa",
".bb.##.cc.##aaaaaaaa",
".bb....cc.##aaaaaaaa",
".bb.dd.cc.aaaaaaaaaa",
".bb.dd.cc.aaaaaaaaaa",
".bb.dd.cc.aaaaaaaaaa",
".bb.dd.cc.aaaaaaaaaa",
".bb.dd.cc.aaaaaaaaaa",
".bb.dd.cc.aaaaaaaaaa",
".bb.dd.cc.aaaaaaaaaa",
".bb.dd.cc.aaaaaaaaaa",
".bb.dd.cc.aaaaaaaaaa",
".bb.dd.cc.aaaaaaaaaa",
"....................",
".eeeeeeeeeeeeeeeeee.",
"....ee........ee....",
"###.ee.######.ee.###",
"###....######....###"};
