/* XPM */
static char *bookshelf[]={
"20 20 5 1",
"a c None",
"# c None",
". c #000000",
"c c #c00000",
"b c #daa520",
"....############aaaa",
".bb.########aaaaaaaa",
".bb.##aaaa##aaaaaaaa",
".bb.aaaaaa##aaaaaaaa",
".bb.aaaaaa##aaaaaaaa",
".bb.aaaaaaaaaaaaaaaa",
".bb.aaaaaaaaaaaaaaaa",
".bb.aaaaaaaaaaaaaaaa",
".bb.aaaaaaaaaaaaaaaa",
".bb.aaaaaaaaaaaaaaaa",
".bb.aaaaaaaaaaaaaaaa",
".bb.aaaaaaaaaaaaaaaa",
".bb.aaaaaaaaaaaaaaaa",
".bb.aaaaaaaaaaaaaaaa",
".bb.aaaaaaaaaaaaaaaa",
"....................",
".cccccccccccccccccc.",
"....cc........cc....",
"###.cc.######.cc.###",
"###....######....###"};
