/* XPM */
static char * copyright [] = {
/* width height ncolors cpp [x_hot y_hot] */
"28 28 2 1 -1 -1",
/* colors */
" 	s none	m none	c none",
".	s iconColor2	m white	c white",
/* pixels */
"                            ",
"                            ",
"           ......           ",
"        ............        ",
"       ....      ....       ",
"      ...          ...      ",
"     ..              ..     ",
"    ..     .....      ..    ",
"   ...   .........    ...   ",
"   ..   ...     ...    ..   ",
"   ..   ..       ..    ..   ",
"  ..   ...              ..  ",
"  ..   ..               ..  ",
"  ..   ..               ..  ",
"  ..   ..               ..  ",
"  ..   ..               ..  ",
"  ..   ...              ..  ",
"   ..   ..       ..    ..   ",
"   ..   ...     ...    ..   ",
"   ...   .........    ...   ",
"    ..     .....      ..    ",
"     ..              ..     ",
"      ...          ...      ",
"       ....      ....       ",
"        ............        ",
"           ......           ",
"                            ",
"                            "};
