/* XPM */
static char * draw [] = {
/* width height ncolors cpp [x_hot y_hot] */
"50 20 2 1 0 0",
/* colors */
" 	s none	m none	c none",
".	s iconGray1	m white	c #e1e1e1e1e1e1",
/* pixels */
"                                                  ",
"                                                  ",
"               ....                          .    ",
"             ...  ..                         .    ",
"            ..     ..                       ..    ",
"           ..       ...                     .     ",
"          .           ..                   ..     ",
"         ..            .                   .      ",
"        ..             ..                 ..      ",
"        .               .                ..       ",
"       ..               ..               .        ",
"       .                 .              ..        ",
"      ..                 ..            ..         ",
"      .                   .           ..          ",
"     .                    ..         ..           ",
"     .                     ...      ..            ",
"    ..                       ... ....             ",
"    .                          ...                ",
"                                                  ",
"                                                  "};
