/* XPM */
static char * edit [] = {
/* width height ncolors cpp [x_hot y_hot] */
"32 32 3 1 0 0",
/* colors */
" 	s iconColor4	m white	c green",
".	s iconColor1	m black	c black",
"X	s iconColor5	m black	c blue",
/* pixels */
"        ..                ..    ",
"       ...              ....    ",
"      ..                ..      ",
"     ...               ..       ",
"     ..                ..       ",
"    ..                ...       ",
"    ..                ..        ",
"    ..                ..        ",
"    ..                ...       ",
"   ...                 ..       ",
"   ..                  ..       ",
"   ..            X     ..       ",
"   ..            XX    ..       ",
"   ..            XXX   ..       ",
"   ..    XXXXXXXXXXXX  ..       ",
"   ...   XXXXXXXXXXXX  ..       ",
"    ..           XXX   ..       ",
"    ..           XX    ..       ",
"    ...          X     ..       ",
"     ..                ..       ",
"     ..                 ..      ",
"     ...                ..      ",
"      ..               ...      ",
"      ..               ..       ",
"      ..               ..       ",
"      ..              ...       ",
"      ..              ..        ",
"      ..              ..        ",
"      ..             ...        ",
"     ...            ...         ",
"     ..             ..          ",
"     ..            ...          "};
