/* XPM */
static char *edit[]={
"32 32 2 1",
". c None",
"# c #c3c3c3",
"................................",
"................................",
"....#...........................",
"...###..........................",
"...###..........................",
"..####.....#....................",
"..####....###...................",
"..####...####...................",
"..##.#...####...................",
"..##.#...####...................",
"..##.#...####...................",
"..##.#...##.#...................",
"..#..#...#..#...................",
"..#..#...#..#...................",
"..#..##..#..#...###.......###...",
"..#..##..#..#..##.##.....##.##..",
"..#..##..#..##.#...#.....#...#..",
"..#..##..#..####...##...##...#..",
".....##.##..###.....#...#.......",
".....##.##..###.....##.##.......",
".....##.##..###......###........",
"......#.##...##.................",
"......#.##...##.................",
"......#.##...##.................",
"......#.#....##.................",
"......#.#....#..................",
"......###.......................",
"......###.......................",
"......###.......................",
".......#........................",
"................................",
"................................"};
