/* XPM */
static char *edit[]={
"32 32 3 1",
"# c None",
". c None",
"a c #ffffff",
"................................",
"................................",
"................................",
"################################",
"################################",
"################################",
"################################",
"################################",
"#########aaaaaaaaaaaaaa#########",
"#########aaaaaaaaaaaaaa#########",
"#########aa##########aa#########",
"#########aa##########aa#########",
"#aaaaaa##aa##aaaaaa##aa##aaaaaa#",
"#a####a##aa##a####a##aa##a####a#",
"#a####a##aa##a####a##aa##a####a#",
"aa####aaaaaaaa####aaaaaaaa####aa",
"#a####a##aa##a####a##aa##a####a#",
"#a####a##aa##a####a##aa##a####a#",
"#aaaaaa##aa##aaaaaa##aa##aaaaaa#",
"#########aa##########aa#########",
"....###.#aa##########aa###......",
".........aaaaaaaaaaaaaa#........",
".........aaaaaaaaaaaaaa#........",
".........###############........",
"..........####.###...###........",
".........###..###...###.........",
"..........###.#.#...###.........",
"..........#####.#..###..........",
"...........#######.###..........",
"............##########..........",
"............#########...........",
"...........#...................."};
