/* XPM */
static char * edit [] = {
/* width height ncolors cpp [x_hot y_hot] */
"32 32 3 1 0 0",
/* colors */
" 	s none	m none	c none",
".	s iconColor7	m white	c cyan",
"X	s iconColor2	m white	c white",
/* pixels */
"                                ",
"                                ",
"                                ",
"               ..               ",
"               ..               ",
"               ..               ",
"               ..               ",
"               ..               ",
"               ..               ",
"               ..               ",
"               ..               ",
"XXXX           ..           XXXX",
"   XXX      ........      XXX   ",
"     XX     ........     XX     ",
"      XX     ......     XX      ",
"       XX    ......    XX       ",
"        X    .....     X        ",
"        XX    ....    XX        ",
"         X    ....    X         ",
"         X     ..     X         ",
"         XX    ..    XX         ",
"          X          X          ",
"          X          X          ",
"          XX        XX          ",
"           X        X           ",
"           XX      XX           ",
"            X      X            ",
"            XXX  XXX            ",
"              XXXX              ",
"                                ",
"                                ",
"                                "};
