/* XPM */
static char * edit_select_sel_xpm[] = {
/* width height ncolors cpp [x_hot y_hot] */
"32 32 2 1 -1 -1",
/* colors */
" 	s iconColor4	m white	c green",
".	s iconColor1	m black	c black",
/* pixels */
"                                ",
"                                ",
"                                ",
"   ..........................   ",
"   ..........................   ",
"   ..                      ..   ",
"   ..                      ..   ",
"   ..                      ..   ",
"   ..                      ..   ",
"   ..                ..    ..   ",
"   ..                .     ..   ",
"   ..               ..     ..   ",
"   ..               .      ..   ",
"   ..              ..      ..   ",
"   ..              .       ..   ",
"   ..             ..       ..   ",
"   ..             .        ..   ",
"   ..            ..        ..   ",
"   ..    ..      .         ..   ",
"   ..     ..    ..         ..   ",
"   ..      ...  .          ..   ",
"   ..        ....          ..   ",
"   ..         ..           ..   ",
"   ..          .           ..   ",
"   ..                      ..   ",
"   ..                      ..   ",
"   ..                      ..   ",
"   ..........................   ",
"   ..........................   ",
"                                ",
"                                ",
"                                "};
