/* XPM */
static char * edit [] = {
/* width height ncolors cpp [x_hot y_hot] */
"32 32 2 1 0 0",
/* colors */
" 	s background	m none	c none",
".	s iconColor2	m white	c white",
/* pixels */
"                                ",
"                                ",
"                    .           ",
"      .            ...          ",
"     ...          .. ..         ",
"    .. ..        ..   ..        ",
"   ..   ..      ..     ..       ",
"  ..     ..    ..       ..      ",
" .....    ..    ..       ..     ",
" .....     ..    ..       ..    ",
"    ..      ..    ..       ..   ",
"    .....    ..  ....       ..  ",
"    .....     ....  ..     ..   ",
"       ..      ..   ...   ..    ",
"       .....  ..   .. .. ..     ",
"       ..... ..   ..   ...      ",
"          ....   ...    .       ",
"          ...   .. ..           ",
"          ..   ..   ..          ",
"         ..   ..     ..         ",
"        ..   .....    ........  ",
"       ..   ......     .......  ",
"      ..   ..   ..          ..  ",
"     ..   ..    .....  .... ..  ",
"    ..   ..     .....  .  . ..  ",
"   ..   ..         ..  .  . ..  ",
"    .. ..          ..  .... ..  ",
"     ...           ..       ..  ",
"      .            ...........  ",
"                   ...........  ",
"                                ",
"                                "};
