/* XPM */
static char * edit_pointadd_lab_xpm[] = {
/* width height ncolors cpp [x_hot y_hot] */
"32 32 2 1 0 0",
/* colors */
" 	s none	m none	c none",
".	s iconGray2	m white	c Gray78",
/* pixels */
"                                ",
"                                ",
"                                ",
"                                ",
"                                ",
"              ....              ",
"              ....              ",
"              ....              ",
"              ....              ",
"              ....              ",
"              ....              ",
"              ....              ",
"              ....              ",
"              ....              ",
"     ......................     ",
"     ......................     ",
"     ......................     ",
"     ......................     ",
"              ....              ",
"              ....              ",
"              ....              ",
"              ....              ",
"              ....              ",
"              ....              ",
"              ....              ",
"              ....              ",
"              ....              ",
"                                ",
"                                ",
"                                ",
"                                ",
"                                "};
