/* XPM */
static char * edit [] = {
/* width height ncolors cpp [x_hot y_hot] */
"32 32 3 1 0 0",
/* colors */
" 	s none	m none	c none",
".	s iconColor7	m white	c cyan",
"X	s iconColor2	m white	c white",
/* pixels */
"                                ",
"                                ",
"                            ..  ",
"              XXXXXXX      ...  ",
"           XXXX      XX   ...   ",
"          XX           X ...    ",
"         XX            X...     ",
"        XX             ...      ",
"       XX             ...       ",
"       X             ...X       ",
"      XX            ... X       ",
"      X            ...  X       ",
"      X           ...   X       ",
"     X           ...    X       ",
"     X          ...     X       ",
"     X         ...      X       ",
"     X        ...       X       ",
"    X        ...        X       ",
"    X       ...         X       ",
"    X      ...          X       ",
"    X     ...           X       ",
"    X    ...            X       ",
"    XX  ...            XX       ",
"     X ...             X        ",
"     X...            XXX        ",
"     ...            XX          ",
"    ...XXX        XX            ",
"   ...   XXXXXXXXX              ",
"  ...                           ",
"  ..                            ",
"                                ",
"                                "};
