/* XPM */
static char *edit[]={
"32 32 3 1",
". c None",
"a c #00ffff",
"# c #ffffff",
"................................",
"................................",
".......##.......................",
".......##.......................",
".....######.....................",
".....######.....................",
".....######.....................",
".....######.....................",
".....######.....................",
".....######.....................",
".......##.......................",
".......##.......................",
".......##..............a........",
".....######............aa.......",
".....######............aaa......",
".....######....aaaaaaaaaaaa.....",
".....######....aaaaaaaaaaaa.....",
".....######............aaa......",
".....######............aa.......",
".......##..............a........",
".......##.......................",
".......##.......................",
".....######.....................",
".....######.....................",
".....######.....................",
".....######.....................",
".....######.....................",
".....######.....................",
".......##.......................",
".......##.......................",
"................................",
"................................"};
