/* XPM */
static char * edit_hole_sel_xpm[] = {
/* width height ncolors cpp [x_hot y_hot] */
"32 32 6 1 0 0",
/* colors */
" 	s iconColor4	m white	c green",
".	s iconColor1	m black	c black",
"X	s iconColor3	m black	c red",
"o	s iconColor2	m white	c white",
"O	s iconColor6	m white	c yellow",
"+	c #DEDEB8B88787",
/* pixels */
"                                ",
"                                ",
"             .......            ",
"       ....... .    .......     ",
"      ..  .     .          .    ",
"     ..    .     .     ..  .    ",
"    ...     .     .   .XX. ..   ",
"    .  .     .       ..XX.  .   ",
"    .   .     .     .o...   .   ",
"    .    .     .   .O.o.   ..   ",
"   ..     .       .OOO.     ..  ",
"   . .     .     .OOO.       .  ",
"   .  .     .   .OOO.   .    .  ",
"  .   ...      .OOO.     .   .  ",
"  .. .. ..    +OOO.       .  .  ",
"  . ..    ..  ++O.   .     . .  ",
"  .  .     ...+++     .     ..  ",
"  .  .       ..        .     .  ",
"  .  .        ..  .     .    .  ",
"  .  ..         .. .     .   .  ",
"  .   .          .. .     .  .  ",
"  ..  .           .  .     . .  ",
"  . . ..          .   .     ..  ",
"  .  . ..        ..    .    .   ",
"   .  . ...    ....     .   .   ",
"   .   .   .....   .     . ..   ",
"    .   .     .     .    ...    ",
"    ..   .     .     .  ..      ",
"      ... .     .  ......       ",
"         ...........            ",
"                                ",
"                                "};
