/* XPM */
static char * edit_hole_lab_xpm[] = {
/* width height ncolors cpp [x_hot y_hot] */
"32 32 6 1 0 0",
/* colors */
" 	s none	m none	c none",
".	s iconColor2	m white	c white",
"X	s iconColor1	m black	c black",
"o	s iconColor3	m black	c red",
"O	s iconColor6	m white	c yellow",
"+	c #DEDEB8B88787",
/* pixels */
"                                ",
"                                ",
"             .......            ",
"       ....... .    .......     ",
"      ..  .     .          .    ",
"     ..    .     .     XX  .    ",
"    ...     .     .   XooX ..   ",
"    .  .     .       XXooX  .   ",
"    .   .     .     X.XXX   .   ",
"    .    .     .   XOX.X   ..   ",
"   ..     .       XOOOX     ..  ",
"   . .     .     XOOOX       .  ",
"   .  .     .   XOOOX   .    .  ",
"  .   ...      XOOOX     .   .  ",
"  .. .. ..    +OOOX       .  .  ",
"  . ..    ..  ++OX   .     . .  ",
"  .  .     ..X+++     .     ..  ",
"  .  .       XX        .     .  ",
"  .  .        ..  .     .    .  ",
"  .  ..         .. .     .   .  ",
"  .   .          .. .     .  .  ",
"  ..  .           .  .     . .  ",
"  . . ..          .   .     ..  ",
"  .  . ..        ..    .    .   ",
"   .  . ...    ....     .   .   ",
"   .   .   .....   .     . ..   ",
"    .   .     .     .    ...    ",
"    ..   .     .     .  ..      ",
"      ... .     .  ......       ",
"         ...........            ",
"                                ",
"                                "};
