/* XPM */
static char * edit [] = {
/* width height ncolors cpp [x_hot y_hot] */
"32 32 8 1 0 0",
/* colors */
" 	s iconColor4	m white	c green",
".	s iconColor6	m white	c yellow",
"X	s iconColor2	m white	c white",
"o	s iconGray5	m black	c Gray49",
"O	s iconColor5	m black	c blue",
"+	s iconGray3	m white	c Gray69",
"@	s iconGray1	m white	c Gray88",
"#	s iconGray7	m black	c Gray29",
/* pixels */
"                                ",
"                             .  ",
"                            .X  ",
"                           .X.  ",
"                          .X.X  ",
"                         .X.X.  ",
"                        .X.X.o  ",
"                       .X.X.o.  ",
"                      .X.X.o.o  ",
"  OOO                .X.X.o.o.  ",
"     OOO            .X.X.o.o.o  ",
"        O          .X.X.o.o.o   ",
"         O        .X.X.o.o.o    ",
"          O      .X.X.o.o.o     ",
"           O    .X.X.o.o.o      ",
"           O   .X.X.o.o.o       ",
"           O  +@XX.o.o.o        ",
"          O   +XX@o.o.o         ",
"        OO   +XX@ooo.o          ",
"     OOO     +X@ooo.o           ",
"    O       +X@ooooo            ",
"   O        +@ooooo             ",
"   O       +#ooooo              ",
"    O      ###oo                ",
"     O     ##o                  ",
"      OO  ##                    ",
"        O##                     ",
"                                ",
"                                ",
"                                ",
"                                ",
"                                "};
