/* XPM */
static char *edit[]={
"32 32 4 1",
"# c None",
". c None",
"b c #00ffff",
"a c #ffffff",
"................................",
".#############################..",
".#############################..",
"...###########################..",
"...#aaaaaaaaaaaaaaaaaaaaaaaa#...",
"...#aaaaaaaaaaaaaaaaaaaaaaaa#...",
"........................bbb.....",
".................#.....bbb......",
".................##...bbb.......",
".................b##.bbb........",
"...............##bb#bbb.........",
"...............##bbbbb#.........",
"...............##bbbb####.......",
"...............##bbbbb###.......",
"...............##bbbbbb.........",
".............########...........",
"..............###...............",
".........bbbbbb.................",
".....#####bbbbb.................",
".......####bbbb.................",
"........##bbbbb.................",
".........bbb#bb.................",
"........bbb###b.................",
".......bbb.###..................",
"......bbb...##..................",
".....bbb........................",
"...#aaaaaaaaaaaaaaaaaaaaaaa#....",
"...#aaaaaaaaaaaaaaaaaaaaaaa#....",
"..###########################...",
".##############################.",
".##############################.",
"................................"};
