/* XPM */
static char *field[]={
"20 20 9 1",
". c None",
"# c #000000",
"e c #008000",
"d c #00ff00",
"g c #800000",
"c c #808000",
"a c #c0c0c0",
"f c #ff0000",
"b c #ffff00",
".#a..######.........",
".#a..#...b#a........",
".#####.bbc#a........",
"..aaa#.bbc#a........",
".....#bccc#a........",
".....######a........",
"......aa#aaa........",
"........#a..######..",
"........#a..#...d#..",
"........#####.dde#..",
".........aaa#.dde#..",
"........#a..#deee#..",
"........#a..######..",
"........#a..........",
"........#a..######..",
"........#a..#...f#..",
"........#####.ffg#..",
".........aaa#.ffg#..",
"............#fggg#..",
"............######.."};
