/* XPM */
static char * flag [] = {
/* width height ncolors cpp [x_hot y_hot] */
"64 32 9 1 -1 -1",
/* colors */
" 	s iconColor1	m red	c red",
".	s iconColor2	m white	c white",
"X	s iconGray3	m white	c #ffffafafafaf",
"o	s iconGray6	m red	c #ffff64646464",
"O	s iconGray1	m white	c #ffffe1e1e1e1",
"+	s iconGray7	m red	c #ffff4b4b4b4b",
"@	s iconGray4	m white	c #ffff96969696",
"#	s iconGray2	m white	c #ffffc8c8c8c8",
"$	s iconGray5	m red	c #ffff7d7d7d7d",
/* pixels */
"                ................................                ",
"                ................................                ",
"                ................................                ",
"                ................................                ",
"                ...............XX...............                ",
"                ...............oo...............                ",
"                ..............O  O..............                ",
"                ...........XO.+  +.OX...........                ",
"                ...........o @    @ o...........                ",
"                ...........@        @...........                ",
"                ........XO.O        O.OX........                ",
"                ....X#..oo..o      o..oo..#X....                ",
"                ....@     @.$      $.@     @....                ",
"                ....O      X$      $X      O....                ",
"                .....                      .....                ",
"                .....o                    o.....                ",
"                ....o                      o....                ",
"                ....#o                    o#....                ",
"                ......$                  $......                ",
"                .......$                $.......                ",
"                ........X              X........                ",
"                .........O            O.........                ",
"                .........O            O.........                ",
"                .........@ o@#.@@.#@o @.........                ",
"                ...............$$...............                ",
"                ...............oo...............                ",
"                ...............  ...............                ",
"                ...............  ...............                ",
"                ...............  ...............                ",
"                ................................                ",
"                ................................                ",
"                ................................                "};
