/* XPM */
static char * fpalogo_xpm[] = {
/* width height ncolors cpp [x_hot y_hot] */
"53 50 7 1 0 0",
/* colors */
" 	s none	m none	c none",
".	s iconColor1	m black	c black",
"X	s iconGray4	m white	c #949494949494",
"o	c #FEFEFEFEFEFE",
"O	c #808000008080",
"+	s iconColor2	m white	c white",
"@	s iconGray8	m black	c #212121212121",
/* pixels */
"                                                     ",
"                  .........                          ",
"               ...XXoooooXX....    OOOOOOOOO         ",
"             ..XooooooooooooooX.. OoooooooooOO       ",
"           ...oooooooooooooooooooOoOooooooooooO      ",
"          ..oooooooooooooooooooooOooOOoooooooooO     ",
"         .XooooooooooooooooooooooOOoooOoooooooooO    ",
"        ..ooooooooooooooooooooooOOOooooOoooooooooO   ",
"       .X.ooooooooooooooooooooooOOOOoOooOooooooooO   ",
"      .oo.ooooooooooooooooooooooOOOOoOoooOoooooooO   ",
"     .oooXXoooooooooooooooooooooOOOOooOoooOooooooO   ",
"     .oooX.ooooooooooooooooooooOOOOOooOoooOooooooO   ",
"    .Xoooo.XoooooooooooooooooooOOOOOooOOoooOoooooOO  ",
"   ..+ooooX.oooooooooooooooooooOOOOOooOOoOoOooooOOO  ",
"   ..XoooooX.ooooooooooooooooooOOOOOooOOoOooOoooOoO  ",
"   .X.ooooooX.ooooooooooooooooOOOOOOooOOooOoOooOOoO  ",
"  .Xo.ooooooo..oooooooooooooooOOOOOOooOOOoOoOooOooO  ",
"  .ooX.oooooooX.XoooooooooooooOOOOOOooOOOoOooOOoooO  ",
"  .ooo.ooooooooo..XooooooooooOOOOOOOooOOOooOoOOoooO  ",
" ..oooX.oooooooooo..oooooooooOOOOOOOoOOOOooOoOoooooO ",
" .XooooX.oooooooooo..XoooooooOOOOOOooOOOOooOOooooooO ",
" .Xooooo..ooooooooooo...ooooOOOOOOOooOOOOooOOooooooO ",
" ..oooooo.XooooooooooooX..XoOOOOOOOooOOOOooOoooooooO ",
" ..Xoooooo..ooooooooooo+oX..oOOOOOOooOOOOoOooooooooO ",
" .X@ooooooo..oooooooooooooo.oooooOooOOOOoOoooooooooO ",
" .o.ooooooooX.XooooooooooooOOoooooooooooOooooooooooO ",
" .oX.ooooooooo..oooooooooooOOOOOooooooOOoooooooooooO ",
" .ooX.ooooooooo..oooooooooOOOOOOOooOOOoooooooooooooO ",
" .Xoo..oooooooooX.XoooooooOOOOOOOoOOOooooooooooooooO ",
"  .ooo..oooooooooo..XooooOOOOOOOooOOOOoooooooooooooO ",
"  .oooo..ooooooooooX..XooOOOOOOOoOOOOOooooooooooooO  ",
"  .Xoooo..ooooooooooo....oOOOOoooOOOOOOoooooooooooO  ",
"   .ooooo..ooooooooooooOoooooOooOOOOOooOooooooooooO  ",
"   .XoooooX.XooooooooooOOOooooooooooooooOoooooooooO  ",
"    .ooooooo..ooooooooOOOOOOOooooooooooOOOooooooooO  ",
"     .oooooooX.XooooooOOOOOOoooOOOOOooOOOOooooooooO  ",
"     ..oooooooo..XoooOOOOOOooOOOOOOooOOOooOoooooooO  ",
"      ..ooooooooo..oOOOOOOooOOOOOOooOOOoooOoooooooO  ",
"       ..ooooooooo..oOOOOoooOOOOOooOOOooOOOOooooooO  ",
"        ..oooooooOOOoooOOooOOOOOooOOooooOOOOooooooO  ",
"         ..oooooOOOOOOoooooooooooooooooOOOOOOooooO   ",
"          ..Xooooo++++OOoOOOOOooOOOooOOOOOOOOooooO   ",
"            ..Xooooo+X...oo+X.@+X@@OOOOOOOOOOooooO   ",
"             ....XX....ooX..X+X......OOOOOOOOOoooO   ",
"                .....X+X..@X....     ...OOOOOOooO    ",
"                    ........            ..OOOOooO    ",
"                                          .OOOoO     ",
"                                           .OOoO     ",
"                                            ..O      ",
"                                             .O      "};
