/* XPM */
static char *graphic[]={
"20 20 15 1",
". c None",
"c c #000000",
"a c #626262",
"h c #7a7a7a",
"f c #b1ffff",
"# c #b6b6b6",
"g c #cecece",
"l c #dadada",
"b c #dc9200",
"j c #dcdc00",
"i c #ffaa00",
"m c #ffb1b1",
"d c #ffc66b",
"e c #ffff00",
"k c #ffffff",
"..#aabaaaaaaaa#.....",
"..acbdbccccccca#....",
"..abdedbffgcghca#...",
"..bijejib.gckghca#..",
".bijjkjjibgckkghca#.",
"deeekkeeeedckkkgca#.",
".bijjejjibgcccccca#.",
"..bijejibkkgggggca#.",
"..abdedbffffffffca#.",
"..aciei..kkkk...ca#.",
"..acieifffffffffca#.",
"..acieil.kkkkk..ca#.",
"..acbdbfffffffffca#.",
"..ac#bgl..kkkkk.ca#.",
"..acfmffffffffffca#.",
"..ac#mggl....kkkca#.",
"..acfmffffffffffca#.",
"..ac#mggllll....ca#.",
"..acccccccccccccca#.",
"..#aaaaaaaaaaaaaa#.."};
