/* XPM */
static char *greenflag[]={
"20 20 11 1",
". c None",
"a c #000000",
"c c #005019",
"e c #007325",
"i c #009631",
"d c #00b93d",
"b c #626262",
"# c #929292",
"h c #937a00",
"g c #af9200",
"f c #f8e2b1",
"............######..",
"...........aaaabaab.",
"........##bcddeafga#",
".....##baacdeeeafha#",
"..##baacddceiiafgab.",
".baacddiidceicafha#.",
"baeddiiidceiiafgab..",
"baceiiiidceicafha#..",
".baaceidceiiafgab...",
"..#baaciceicafha#...",
"....#baaeaaafgab....",
"......#ba.bafha#....",
"..........afgab.....",
".........bafha#.....",
"........#afgab......",
"........bafha#......",
".......#afgab.......",
".......#afha#.......",
"........baa#........",
".........##........."};
