/* XPM */
static char * guidance_sample_lab_xpm[] = {
/* width height ncolors cpp [x_hot y_hot] */
"38 38 3 1 0 0",
/* colors */
" 	s none	m none	c none",
".	s iconColor4	m white	c green",
"X	s iconColor2	m white	c white",
/* pixels */
"               ........               ",
"            ..............            ",
"          ..................          ",
"        .......        .......        ",
"       .....      XX      .....       ",
"      ....        XX        ....      ",
"     ....         XX         ....     ",
"    ....       XXXXXXXX       ....    ",
"   ....      XXXXXXXXXXXX      ....   ",
"   ...      XXXX  XX   XXXX     ...   ",
"  ...      XXX    XX     XXX     ...  ",
"  ...     XXX     XX      XXX    ...  ",
" ...     XXX      XX       XX     ... ",
" ...    XXX                 XX    ... ",
" ...    XX                  XX    ... ",
"...    XXX        XX         XX    ...",
"...    XX         XX         XX    ...",
"...    XX         XX         XX    ...",
"... XXXXXXXXX  XXXXXXXX  XXXXXXXXX ...",
"... XXXXXXXXX  XXXXXXXX  XXXXXXXXX ...",
"...    XX         XX         XX    ...",
"...    XX         XX         XX    ...",
"...     XX        XX        XXX    ...",
" ...    XX                  XX    ... ",
" ...    XXX                XXX    ... ",
" ...     XXX      XX      XXX     ... ",
"  ...     XXX     XX     XXX     ...  ",
"  ...      XXX    XX    XXX      ...  ",
"   ...      XXXX  XX  XXXX      ...   ",
"   ....       XXXXXXXXXXX      ....   ",
"    ....        XXXXXXX       ....    ",
"     ....         XX         ....     ",
"      ....        XX        ....      ",
"       .....      XX      .....       ",
"        .......        .......        ",
"          ..................          ",
"            ..............            ",
"               ........               "};
