/* XPM */
static char * guidance_sample_sel_xpm[] = {
/* width height ncolors cpp [x_hot y_hot] */
"38 38 3 1 0 0",
/* colors */
" 	s none	m none	c none",
".	s iconColor3	m black	c red",
"X	s iconColor2	m white	c white",
/* pixels */
"               ........               ",
"            ..............            ",
"          ..................          ",
"        .......        .......        ",
"       .....      XX      .....       ",
"      ....        XX        ....      ",
"     ....         XX         ....     ",
"    ......     XXXXXXXX       ....    ",
"   ........  XXXXXXXXXXXX      ....   ",
"   ... .....XXXX  XX   XXXX     ...   ",
"  ...   .....X    XX     XXX     ...  ",
"  ...    .....    XX      XXX    ...  ",
" ...     X.....   XX       XX     ... ",
" ...    XXX.....            XX    ... ",
" ...    XX  .....           XX    ... ",
"...    XXX   .....XX         XX    ...",
"...    XX     .....X         XX    ...",
"...    XX      .....         XX    ...",
"... XXXXXXXXX  X.....XX  XXXXXXXXX ...",
"... XXXXXXXXX  XX.....X  XXXXXXXXX ...",
"...    XX         .....      XX    ...",
"...    XX         X.....     XX    ...",
"...     XX        XX.....   XXX    ...",
" ...    XX           .....  XX    ... ",
" ...    XXX           .....XXX    ... ",
" ...     XXX      XX   .....X     ... ",
"  ...     XXX     XX    .....    ...  ",
"  ...      XXX    XX    X.....   ...  ",
"   ...      XXXX  XX  XXXX..... ...   ",
"   ....       XXXXXXXXXXX  ........   ",
"    ....        XXXXXXX     ......    ",
"     ....         XX         ....     ",
"      ....        XX        ....      ",
"       .....      XX      .....       ",
"        .......        .......        ",
"          ..................          ",
"            ..............            ",
"               ........               "};
