/* XPM */
static char *Binocular[]={
"20 20 15 1",
". c None",
"c c #000000",
"b c #1a1a1a",
"i c #323232",
"d c #3e3e3e",
"h c #4a4a4a",
"f c #565656",
"a c #626262",
"g c #6e6e6e",
"e c #7a7a7a",
"m c #868686",
"# c #929292",
"l c #9e9e9e",
"j c #b6b6b6",
"k c #cecece",
"....................",
"...#aaaa#..#aaaa#...",
"..#bccccd..dccccb#..",
"..#be.#cd..dc.#ab#..",
"..#cf#gcaaaac#gfc#..",
"..#cfgfchhhhcahfc#..",
"..acgfcia..aicahca..",
".aigfcciaccaiccahi..",
".aciiiiiiiiiiiiiica.",
".acj.khc.cc.cj.khca.",
".aclklhc.cc.clklhca.",
".hcmjehccccccmjehch.",
"#cgmlehcaaaacmlemgc#",
"ac#g#ahca..acg#ag#ca",
"acmgmahca..acgmagmca",
"achhafhca..achafhhca",
"acag#afca..aca#afhca",
"accccccca..accccccca",
".aaaaaaa....aaaaaaa.",
"...................."};
