/* XPM */
static char * image_animate_sel_xpm[] = {
/* width height ncolors cpp [x_hot y_hot] */
"40 20 2 1 0 0",
/* colors */
" 	s iconColor4	m white	c green",
".	s iconColor1	m black	c black",
/* pixels */
"                                        ",
"                                        ",
"                          ..            ",
"                       .....            ",
"                     .......            ",
"        ......     .............        ",
"      ........     ...............      ",
"     ...             .......    ...     ",
"     ..                 ....     ..     ",
"    ..                    ..      ..    ",
"    ..                            ..    ",
"    ..                            ..    ",
"    ..                            ..    ",
"     ..                          ..     ",
"     ...                        ...     ",
"      ............................      ",
"        ........................        ",
"                                        ",
"                                        ",
"                                        "};
