/* XPM */
static char *image[]={
"20 20 112 2",
"Qt c None",
".M c #1e1e1e",
"#K c #111111",
"#R c #080808",
".c c #0a0a0a",
"#v c #060606",
"#u c #040404",
"#D c #030303",
".V c #020202",
"#G c #020202",
".N c #010101",
"#c c #191919",
".# c #202020",
".b c #1f1f1f",
".x c #010101",
".i c #010101",
"#O c #212121",
".q c #2c2c2c",
".w c #010101",
".U c #252525",
"#S c #262626",
".p c #323232",
"#l c #000000",
"#J c #1e1e1e",
".s c #898989",
"#L c #000000",
".L c #1d1d1d",
"#F c #1e1e1e",
".D c #272727",
".A c #000000",
"#N c #000000",
"#Q c #202020",
"#m c #323232",
"#H c #464646",
"#h c #5a5a5a",
"#d c #191919",
".a c #2b2b2b",
".h c #555555",
"#T c #272727",
"#w c #3b3b3b",
".F c #353535",
".E c #000000",
".t c #000000",
".j c #2b2b2b",
".B c #373737",
".r c #3e3e3e",
".d c #494949",
".W c #636363",
"#t c #777777",
"#P c #818181",
".y c #a0a0a0",
".2 c #afafaf",
".o c #b0b0b0",
"#y c #161616",
".6 c #1e1e1e",
".K c #232323",
".R c #242424",
".0 c #272727",
".5 c #282828",
"## c #2e2e2e",
"#z c #303030",
"#o c #323232",
".Y c #333333",
"#q c #373737",
"#j c #383838",
".O c #3c3c3c",
"#e c #3f3f3f",
".C c #484848",
"#a c #4b4b4b",
"#A c #4e4e4e",
"#x c #505050",
".P c #545454",
".H c #5d5d5d",
"#M c #606060",
"#r c #646464",
"#p c #686868",
"#E c #6f6f6f",
".Z c #727272",
".u c #787878",
".4 c #7a7a7a",
"#C c #7f7f7f",
"#. c #808080",
".J c #818181",
".Q c #848484",
"#f c #8a8a8a",
".9 c #909090",
".8 c #939393",
".g c #979797",
"#i c #989898",
".G c #999999",
"#s c #9c9c9c",
"#b c #9f9f9f",
".X c #a2a2a2",
".7 c #a5a5a5",
".3 c #a8a8a8",
"#n c #a9a9a9",
".S c #acacac",
".T c #afafaf",
".k c #b1b1b1",
"#I c #b2b2b2",
".v c #b4b4b4",
".I c #bababa",
".l c #c0c0c0",
".1 c #c3c3c3",
".m c #c5c5c5",
"#g c #c6c6c6",
".z c #c8c8c8",
".n c #cbcbcb",
"#k c #cfcfcf",
".f c #dfdfdf",
"#B c #e0e0e0",
".e c #ebebeb",
"QtQtQtQtQtQtQtQtQtQtQtQtQtQtQtQtQtQtQtQt",
"QtQtQt.#.a.a.b.cQtQtQtQtQtQtQtQtQtQtQtQt",
"QtQtQt.d.e.f.g.h.iQtQtQtQtQtQtQtQtQtQtQt",
"QtQtQt.j.k.l.m.n.o.pQtQtQt.q.r.sQtQtQtQt",
"QtQtQt.t.u.l.l.l.m.v.wQt.x.y.z.AQtQtQtQt",
"QtQtQt.B.C.l.l.l.l.l.v.D.E.A.AQtQtQtQtQt",
"QtQtQt.F.G.H.I.l.l.l.J.K.L.MQtQtQtQtQtQt",
"QtQtQt.N.u.O.P.l.l.Q.R.S.T.UQtQtQtQtQtQt",
"QtQtQt.V.W.X.Y.P.Z.0.k.l.1.2.pQtQtQtQtQt",
"QtQtQtQt.A.3.4.5.6.7.l.l.l.m.v.wQtQtQtQt",
"QtQtQtQt.w.8.9#.###a.l.l.l.l.l#b.NQtQtQt",
"QtQtQt#c#d#e#f#..u##.H.I.l.l.l#g#h.cQtQt",
"QtQtQt.B#i.5#j#.#.#..5.P.l.l.l.l#k#lQtQt",
"QtQtQt#m#n.4#o#j#p#..4#q#r#s.l.l.z#t#uQt",
"QtQtQt#v#w.G.4#x#y#z#A#.#p#A.C.l#B#C#DQt",
"QtQtQtQtQt#w#n#i#E#F#G.A.A.A.A.A.A.xQtQt",
"QtQtQtQtQt#v#H.v#I#s#J#KQtQtQtQtQtQtQtQt",
"QtQtQtQt.x#l#L#z#M#M.O#N#l#l#lQtQtQtQtQt",
"QtQtQt#O#P#i#i#i#i#i#i#i#i#i#i#Q#RQtQtQt",
"QtQtQt#S.C#z#z#z#z#z#z#z#z#z#z#T#vQtQtQt"};
