/* XPM */
static char *data[]={
"20 20 14 1",
". c None",
"# c #000000",
"l c #0092dc",
"e c #262626",
"f c #3e3e3e",
"j c #48b8ff",
"b c #503200",
"a c #734a00",
"k c #8ed4ff",
"c c #966200",
"d c #b97a00",
"g c #dc9200",
"i c #ffaa25",
"h c #ffb848",
"....................",
".........#abba#.....",
".......accddddcca...",
"......acddddddddca..",
".....#eaccddddccae#.",
".....#bfbaaaaaabfb#.",
".....#bba######abb#.",
".....#bacddddddcab#.",
".....##bcdghigdcab#.",
".....#j#bdghigdcab#.",
"######jj#bghigdcab#.",
"#kjjjjjjj#bhigdcab#.",
"#llllljjl#bhigdcab#.",
"######jl#bghigdcab#.",
".....#l#bdghigdcab#.",
".....##bcdghigdcab#.",
".....#bacdghigdcab#.",
".......bacdggdcab...",
".........######.....",
"...................."};
