/* XPM */
static char *Info[]={
"20 20 74 2",
"Qt c None",
".B c #1e1e1e",
".h c #8e8e8e",
".b c #0a0a0a",
".Y c #060606",
".A c #838383",
".# c #060606",
".C c #060606",
".9 c #818181",
".H c #818181",
"#d c #010101",
".a c #020202",
"#h c #808080",
".I c #130113",
".g c #6e6e6e",
".o c #808080",
".i c #000000",
".w c #000000",
".D c #130013",
".c c #340b29",
".U c #080008",
"#. c #130013",
".O c #150015",
".3 c #737373",
".t c #808080",
"#e c #2b2b2b",
".Z c #310031",
".f c #360c36",
".z c #626262",
".8 c #210e21",
"#c c #808080",
".G c #373737",
".x c #000000",
".y c #0a0a0a",
"#b c #2e202e",
".V c #300030",
".u c #3e003e",
".J c #400040",
".2 c #401840",
".n c #404040",
".E c #420042",
"#f c #505050",
".F c #580850",
".e c #6a006a",
".d c #702050",
".m c #7f007f",
"## c #7f2060",
"#g c #808080",
".s c #870087",
".p c #87087f",
".K c #872068",
".T c #8f008f",
"#a c #8f0887",
".N c #8f2070",
".j c #8f4050",
".W c #954056",
".7 c #970097",
".4 c #972f68",
".1 c #990099",
".0 c #99405a",
".v c #9d009d",
".P c #a74f58",
".L c #bf7f40",
".Q c #db8f4c",
".l c #e700e7",
".r c #f300f3",
".q c #f30ce7",
".6 c #f500f5",
".5 c #f56f85",
".S c #ff00ff",
".R c #ff38c7",
".X c #ff5f9f",
".M c #ff7f7f",
".k c #ffaf4f",
"QtQtQtQtQtQtQtQt.#.a.a.#QtQtQtQtQtQtQtQt",
"QtQtQtQtQtQtQt.b.c.d.e.f.g.hQtQtQtQtQtQt",
"QtQtQtQtQtQtQt.i.j.k.l.m.n.oQtQtQtQtQtQt",
"QtQtQtQtQtQtQt.i.p.q.r.s.n.tQtQtQtQtQtQt",
"QtQtQtQtQtQtQt.i.u.v.v.u.n.tQtQtQtQtQtQt",
"QtQtQtQtQtQtQtQt.w.x.x.y.z.AQtQtQtQtQtQt",
"QtQtQtQtQtQt.B.C.D.E.d.F.G.HQtQtQtQtQtQt",
"QtQtQtQtQtQt.I.J.K.L.M.N.n.tQtQtQtQtQtQt",
"QtQtQtQtQtQt.O.P.Q.R.S.T.n.tQtQtQtQtQtQt",
"QtQtQtQtQtQt.U.V.W.X.S.T.n.tQtQtQtQtQtQt",
"QtQtQtQtQtQtQt.i.j.X.S.T.n.tQtQtQtQtQtQt",
"QtQtQtQtQtQtQt.i.j.X.S.T.n.tQtQtQtQtQtQt",
"QtQtQtQtQtQtQt.i.j.X.S.T.n.tQtQtQtQtQtQt",
"QtQtQtQtQtQtQt.i.j.X.S.T.n.tQtQtQtQtQtQt",
"QtQtQtQtQtQt.Y.Z.0.X.S.1.2.3QtQtQtQtQtQt",
"QtQtQtQtQtQt.O.4.5.S.S.6.7.8.9QtQtQtQtQt",
"QtQtQtQtQtQt#.###a.T.T.T.m#b#cQtQtQtQtQt",
"QtQtQtQtQtQt#d#e.n.n.n.n.n#f#gQtQtQtQtQt",
"QtQtQtQtQtQtQt#h.t.t.t.t.t.t.tQtQtQtQtQt",
"QtQtQtQtQtQtQtQtQtQtQtQtQtQtQtQtQtQtQtQt"};
