/* XPM */
static char *tt[]={
"100 10 2 1 0 0",
". c None",
"# c #ffffff",
"....................................................................................................",
"....................................................................................................",
"###################################################################################################.",
"###################################################################################################.",
"###################################################################################################.",
"###################################################################################################.",
"###################################################################################################.",
"###################################################################################################.",
"....................................................................................................",
"...................................................................................................."};
