/* XPM */
static char *line[]={
"100 10 2 1 0 0",
". c None",
"a c #ffffff",
"....................................................................................................",
"....................................................................................................",
"....................................................................................................",
"aaaaaaaaaaaaaaaaaaa.........aaaaaaaaaaaaaaaaaa........aaaaaaaaaaaaaaaaaa.........aaaaaaaaaaaaaaaaaa.",
"aaaaaaaaaaaaaaaaaaa.........aaaaaaaaaaaaaaaaaa........aaaaaaaaaaaaaaaaaa.........aaaaaaaaaaaaaaaaaa.",
"aaaaaaaaaaaaaaaaaaa.........aaaaaaaaaaaaaaaaaa........aaaaaaaaaaaaaaaaaa.........aaaaaaaaaaaaaaaaaa.",
"aaaaaaaaaaaaaaaaaaa.........aaaaaaaaaaaaaaaaaa........aaaaaaaaaaaaaaaaaa.........aaaaaaaaaaaaaaaaaa.",
"....................................................................................................",
"....................................................................................................",
"...................................................................................................."};
