/* XPM */
static char *load[]={
"20 20 20 1",
". c None",
"b c #000000",
"f c #0092dc",
"a c #323232",
"i c #48b8ff",
"r c #626200",
"g c #626262",
"# c #6e6e6e",
"d c #868686",
"h c #8ed4ff",
"p c #929292",
"o c #937a00",
"l c #af9200",
"c c #b6b6b6",
"q c #bdaa25",
"m c #c3b848",
"j c #d1c96b",
"n c #dfd48e",
"k c #fff0d4",
"e c #ffffff",
".............##.....",
"............abba....",
".cd#####dc.abefba...",
"cd#bbbbbgdabhiifba..",
"c#bjkkkkbgbhiiiifb#c",
"c#bkjjjjlbbbbifbbbb#",
"c#bkmmjjjnnobifbolb#",
"c#bkmmmjjjjobifbjlb#",
"p#bkmmmooooooooomlb#",
"#bbooookkkkkkkkomlb#",
"bkkkkkmmmmmmmmmolob#",
"bqmmmmmmmmmmmmmloob#",
"bommmmmmmmmmmmmmoob#",
"#bqmmmmmmmmmmmmmoob#",
"pbommmmmmmmmmmmmlob#",
"c#bllllllllllllllrb#",
"cpbbbbbbbbbbbbbbbbb#",
".c#################c",
"..ccccccccccccccccc.",
"...................."};
