/* XPM */
static char *lock[]={
"24 24 104 2",
"Qt c None",
".# c #000000",
".d c #000000",
".v c #000000",
".r c #000000",
".y c #000000",
".E c #000000",
".K c #000000",
"#F c #010100",
".H c #000000",
".B c #000000",
".a c #060606",
".Z c #0c0a00",
"#c c #0d0900",
".0 c #0d0a00",
".T c #0d0b00",
".k c #0f0f10",
".o c #141517",
".e c #242528",
".j c #252528",
".u c #2a2c2f",
".w c #2b2c30",
".b c #434345",
".n c #424348",
".p c #424448",
".S c #605100",
".L c #605200",
".P c #736a00",
"#G c #613e06",
"#L c #623f06",
".O c #736a00",
".s c #4f5358",
".x c #505459",
".c c #6d6d6f",
"#i c #4c3907",
"#j c #4d3907",
".F c #626973",
".z c #6c727a",
"#H c #704b08",
"#K c #704b09",
"#I c #714e09",
"#J c #724f09",
".D c #737980",
".J c #797f86",
".I c #7e8791",
".M c #958f2f",
".G c #959ca4",
".C c #959da7",
".A c #9ca4ad",
".Q c #a5a13f",
".R c #aba342",
".l c #afb3ba",
"#q c #b28601",
".f c #b3b5bb",
".m c #b4b8bf",
".q c #b5b9c0",
".t c #b8bfc7",
".N c #bab551",
"## c #c79e15",
".h c #dbdee1",
".i c #dbdee2",
"#w c #dcaa00",
".g c #e2e5e8",
"#A c #e79501",
"#E c #e89601",
"#s c #eb9a00",
"#m c #eb9b00",
"#d c #eb9e00",
".6 c #eba300",
".1 c #ebab01",
".U c #ebb501",
"#y c #ec9b00",
"#r c #ec9c00",
"#l c #ec9f00",
"#b c #eca500",
".5 c #ecac01",
".Y c #ecb701",
"#B c #f5ae01",
"#t c #f9b300",
"#x c #f9b400",
"#n c #f9b601",
"#C c #f9b602",
"#e c #f9bb05",
"#D c #fab702",
".7 c #fac50f",
"#a c #fac60f",
".2 c #fbd524",
".V c #fbe12c",
"#u c #febc00",
"#o c #febe01",
"#f c #fec305",
"#k c #fec405",
"#h c #fec505",
".8 c #fece0f",
"#. c #fecf0f",
".3 c #fedc24",
".W c #fee82f",
"#z c #ffbd00",
"#v c #ffbe00",
"#p c #ffc001",
"#g c #ffc605",
".9 c #ffcf0f",
".4 c #ffdd24",
".X c #ffea2f",
"QtQtQtQtQtQtQtQtQtQtQtQtQtQtQtQtQtQtQtQtQtQtQtQt",
"QtQtQtQtQtQtQtQtQtQtQtQtQtQtQtQtQtQtQtQtQtQtQtQt",
"QtQtQtQtQtQtQtQtQtQtQtQtQtQtQtQtQtQtQtQtQtQtQtQt",
"QtQtQtQtQtQtQtQtQtQtQtQtQtQtQtQtQtQtQtQtQtQtQtQt",
"QtQtQtQtQtQtQtQt.#.a.b.c.c.b.a.#QtQtQtQtQtQtQtQt",
"QtQtQtQtQtQtQt.d.e.f.g.h.i.g.f.j.dQtQtQtQtQtQtQt",
"QtQtQtQtQtQtQt.k.l.m.n.o.o.p.q.l.kQtQtQtQtQtQtQt",
"QtQtQtQtQtQt.r.s.t.u.vQtQt.v.w.t.x.rQtQtQtQtQtQt",
"QtQtQtQtQtQt.y.z.A.BQtQtQtQt.B.C.D.yQtQtQtQtQtQt",
"QtQtQtQtQtQt.E.F.G.HQtQtQtQt.H.I.J.EQtQtQtQtQtQt",
"QtQtQtQtQt.K.L.M.N.O.P.P.P.P.O.Q.R.S.KQtQtQtQtQt",
"QtQtQtQtQt.T.U.V.W.X.X.X.X.X.X.W.V.Y.ZQtQtQtQtQt",
"QtQtQtQtQt.0.1.2.3.4.4.4.4.4.4.3.2.5.0QtQtQtQtQt",
"QtQtQtQtQt.0.6.7.8.9#.#####..9.8#a#b#cQtQtQtQtQt",
"QtQtQtQtQt#c#d#e#f#g#h#i#j#h#g#k#e#l#cQtQtQtQtQt",
"QtQtQtQtQt#c#m#n#o#p#p#q#q#p#p#o#n#r#cQtQtQtQtQt",
"QtQtQtQtQt#c#s#t#u#v#v#w#w#v#v#u#x#y#cQtQtQtQtQt",
"QtQtQtQtQt#c#s#t#u#z#v#v#v#v#z#u#x#y#cQtQtQtQtQt",
"QtQtQtQtQt#c#A#B#C#D#D#D#D#D#D#C#B#E#cQtQtQtQtQt",
"QtQtQtQtQt#F#G#H#I#J#J#J#J#J#J#I#K#L#FQtQtQtQtQt",
"QtQtQtQtQtQtQtQtQtQtQtQtQtQtQtQtQtQtQtQtQtQtQtQt",
"QtQtQtQtQtQtQtQtQtQtQtQtQtQtQtQtQtQtQtQtQtQtQtQt",
"QtQtQtQtQtQtQtQtQtQtQtQtQtQtQtQtQtQtQtQtQtQtQtQt",
"QtQtQtQtQtQtQtQtQtQtQtQtQtQtQtQtQtQtQtQtQtQtQtQt"};
