/* XPM */
static char *map[]={
"20 20 7 1",
". c None",
"# c #000000",
"d c #734a00",
"e c #966200",
"b c #b97a00",
"c c #dc9200",
"a c #ffc66b",
"....................",
".############.......",
".#aaaaaaaaab#.......",
".#accccccccd#.......",
".#accccccccd#.......",
".#aeeeeeeeed#.......",
".#ae############....",
".#bd#aaaaaaaaab#....",
".####accccccccd#....",
"....#accccccccd#....",
"....#aeeeeeeeed#....",
"....#ae############.",
"....#bd#aaaaaaaaab#.",
"....####accccccccd#.",
".......#accccccccd#.",
".......#accccccccd#.",
".......#accccccccd#.",
".......#bddddddddd#.",
".......############.",
"...................."};
