/* XPM */
static char *redflag[]={
"20 20 14 1",
". c None",
"a c #000000",
"b c #626262",
"j c #730025",
"# c #929292",
"i c #937a00",
"g c #960000",
"c c #960031",
"f c #af9200",
"k c #b90000",
"l c #dc0049",
"e c #f8e2b1",
"d c #ff0055",
"h c #ff6b8f",
"............######..",
"...........aaaabaab.",
"........##bcddcaefa#",
".....##baaghcccaeia#",
"..##baachhjckkaefab.",
".baachhddhjckcaeia#.",
"bakhhdllhjckkaefab..",
"backllldhjckcaeia#..",
".baacklhjckkaefab...",
"..#baacdjckcaeia#...",
"....#baacaaaefab....",
"......#ba.baeia#....",
"..........aefab.....",
".........baeia#.....",
"........#aefab......",
"........baeia#......",
".......#aefab.......",
".......#aeia#.......",
"........baa#........",
".........##........."};
