/* XPM */
static char * ridge [] = {
/* width height ncolors cpp [x_hot y_hot] */
"120 12 2 1 -1 -1",
/* colors */
" 	s none	m none	c none",
".	s iconColor2	m white	c white",
/* pixels */
"        .......                                 .......                               .......                           ",
"      ...........                             ...........                           ...........                         ",
"    ....       ....                         ....       ....                       ....       ....                       ",
"   ...           ...                       ...           ...                     ...           ...                      ",
"  ...             ...                     ...             ...                   ...             ...                     ",
"  ..               ....                 ....               ..                  ...               ...                    ",
"                    ....               ....                 ...               ...                 ...               ..  ",
"                      ...             ...                    ...             ...                   ...             ...  ",
"                       ...           ...                      ...           ....                    ...           ...   ",
"                        ....       ....                        ....       ....                       ....       ....    ",
"                          ...........                            ...........                           ...........      ",
"                            .......                                .......                               .......        "};
