/* XPM */
static char *RotatingArrow[]={
"20 20 2 1",
". c None",
"# c #000000",
"....................",
"....................",
"...........##.......",
"...........####.....",
"...###....######....",
".######...#######...",
".######.....#####...",
"..######.....#####..",
"..######......####..",
"..####........####..",
"..####........####..",
"..####......######..",
"..#####.....######..",
"...#####.....######.",
"...#######...######.",
"....######....###...",
".....####...........",
".......##...........",
"....................",
"...................."};
