/* XPM */
static char *t0[]={
"20 20 2 1",
". c None",
"# c #0000c0",
"....................",
"....................",
"....................",
"..############......",
"..############......",
"..############......",
"..##..####..##......",
"..##..####..##......",
"..##..####..##......",
"..#...####...#......",
"......####..........",
"......####..........",
"......####..........",
"......####....###...",
"......####...#...#..",
"....########.#...#..",
"....########.#...#..",
"..............###...",
"....................",
"...................."};
