/* XPM */
static char *timelink[]={
"32 32 2 1",
"# c #000000",
". c #00ff00",
"................................",
"................................",
"................................",
".########...########...########.",
".#......#...#......#...#......#.",
".#......#...#......#...#......#.",
".#......#...#......#...#......#.",
"####..#########..#########..####",
".#......#...#......#...#......#.",
".#......#...#......#...#......#.",
".#......#...#......#...#......#.",
".########...########...########.",
"................................",
"................................",
"................................",
"................#...............",
"................#...............",
"................#...............",
"................#...............",
"........##......#......##.......",
"........##..##..#..##..##.......",
".........##..#######..##........",
".........##...#####...##........",
".........###..#####..###........",
"..........##...###...##.........",
"..........##....#....##.........",
"...........##.......##..........",
"...........##.......##..........",
"...........###.....###..........",
"............#########...........",
"............#########...........",
"................................"};
