/* XPM */
static char *update[]={
"20 20 12 1",
". c None",
"a c #000000",
"j c #007325",
"e c #009631",
"d c #00b900",
"# c #4a4a4a",
"c c #626262",
"h c #7a7a7a",
"f c #868686",
"b c #b6b6b6",
"g c #c2c2c2",
"i c #ffffff",
"...#aaaa#...........",
".bc#adea#cccccccccb.",
".#aaadeaaaaaaaaaaa#.",
"##afadeafggfhiiiia#.",
"aaaaadeaaaaahiiiia#.",
"adddddeeeeeahiiiia#.",
"aeeeeejjjjjahiiiia#.",
"aaaaaejaaaaahhhhha#.",
"##afaejafffffiiiia#.",
".#agaejafiiihiiiia#.",
".#agaejafiiihiiiia#.",
".#afaaaafiiihiiiia#.",
".#ahhhhhhhhhhhhhha#.",
".#aiiiihiiiihiiiia#.",
".#aiiiihiiiihiiiia#.",
".#aiiiihiiiihiiiia#.",
".#aiiiihiiiihiiiia#.",
".#aaaaaaaaaaaaaaaa#.",
".bccccccccccccccccb.",
"...................."};
