/* XPM */
static char *zoom[]={
"20 20 21 1",
". c None",
"e c #000000",
"s c #323200",
"m c #3e3e3e",
"n c #4a4a00",
"d c #4a4a4a",
"o c #626200",
"b c #626262",
"f c #6e6e6e",
"a c #7a7a7a",
"c c #929292",
"q c #937a00",
"# c #aaaaaa",
"p c #af9200",
"k c #b1b1ff",
"g c #b6b6b6",
"l c #c7b1ff",
"i c #d4d4ff",
"h c #dadada",
"r c #f8e2b1",
"j c #ffffff",
"...#abbbba#.........",
"..cbdeeeedbc........",
".cdefghhgfedc.......",
"#beghiiiihgeb#......",
"adfhijkkiihfda......",
"begijjllkiigeb......",
"behieeeeeeiheb......",
"behieeeeeeiheb......",
"begiikllkiigeb......",
"adfhiikkiihfma......",
"#beghiiiihgeem......",
".cdefghhgfednem.....",
"..cbdeeeemeopqem....",
"...#abbbbameprqem...",
"...........meprqem..",
"............meprqem.",
".............meprqem",
"..............meproe",
"...............meosm",
"................memc"};
