/* XPM */
static char *zoom[]={
"20 20 20 1",
". c None",
"e c #000000",
"r c #323200",
"l c #3e3e3e",
"m c #4a4a00",
"d c #4a4a4a",
"n c #626200",
"b c #626262",
"f c #6e6e6e",
"a c #7a7a7a",
"c c #929292",
"p c #937a00",
"# c #aaaaaa",
"o c #af9200",
"k c #b1b1ff",
"g c #b6b6b6",
"i c #d4d4ff",
"h c #dadada",
"q c #f8e2b1",
"j c #ffffff",
"...#abbbba#.........",
"..cbdeeeedbc........",
".cdefghhgfedc.......",
"#beghiiiihgeb#......",
"adfhijeeiihfda......",
"begijjeekiigeb......",
"behieeeeeeiheb......",
"behieeeeeeiheb......",
"begiikeekiigeb......",
"adfhiieeiihfla......",
"#beghiiiihgeel......",
".cdefghhgfedmel.....",
"..cbdeeeelenopel....",
"...#abbbbaleoqpel...",
"...........leoqpel..",
"............leoqpel.",
".............leoqpel",
"..............leoqne",
"...............lenrl",
"................lelc"};
