/* XPM */
static char *pan[]={
"20 20 14 1",
". c None",
"a c #000000",
"j c #003250",
"i c #004a73",
"c c #007ab9",
"k c #0092dc",
"e c #25aaff",
"# c #3e3e3e",
"h c #48b8ff",
"l c #6bc6ff",
"b c #8ed4ff",
"f c #9e9e9e",
"g c #b1e2ff",
"d c #ffffff",
".........##.........",
"........#aa#........",
".......#abca#.......",
"......#abdeca#......",
".....fabghhecaf.....",
"....faighheeeiaf....",
"...#aijaabkaajia#...",
"..#abga.abka.abca#..",
".#abghaaabkaaalbca#.",
"#abdhhbbbbkbbbhlbca#",
"#acehekkkkkkkkeheca#",
".#aceeaaabkaaaeeca#.",
"..#acea.abka.aeca#..",
"...#aijaabkaajia#...",
"....failhhhheiaf....",
".....fablhhecaf.....",
"......#ableca#......",
".......#abca#.......",
"........#aa#........",
".........##........."};
