<?xml version="1.0" encoding="ISO-8859-1"?><!DOCTYPE svg PUBLIC "-//W3C//DTD SVG 1.1//EN" "http://www.w3.org/Graphics/SVG/1.1/DTD/svg11.dtd"><svg version="1.1" baseProfile="full" width="100%" height="100%" viewBox="-35.928 -35.784 71.928 71.496" xmlns="http://www.w3.org/2000/svg" xmlns:xlink="http://www.w3.org/1999/xlink">
<g>
<g>
<path d="
  M -10.224 -32.256
  L -10.224 -32.256
  C -9.648 -32.256 -9.000 -31.608 -9.000 -30.672
  L -9.000 33.048
  C -9.000 33.984 -9.648 34.776 -10.224 34.776
  L -10.224 34.776
  C -10.944 34.776 -11.520 33.984 -11.520 33.048
  L -11.520 -30.672
  C -11.520 -31.608 -10.944 -32.256 -10.224 -32.256" stroke="rgb(0,0,0)" stroke-width="0.504" fill="rgb(179,179,179)" />
<circle cx="-10.296" cy="-33.264" r="2.160" stroke="rgb(0,0,0)" stroke-width="0.504" fill="rgb(179,179,179)" />
</g>
<g>
<path d="
  M -7.632 -28.368
  C 0.216 -35.712 10.656 -34.200 15.408 -25.920
  C 19.872 -17.064 24.696 -22.752 31.608 -22.752
  C 32.328 -19.944 31.320 -9.504 30.312 -2.880
  C 17.208 0.360 17.424 -2.664 11.736 -5.256
  C 6.480 -10.512 -1.224 -11.160 -6.480 -6.696
  C -6.408 -8.064 -6.912 -22.680 -7.632 -28.368" stroke="rgb(0,0,0)" stroke-width="0.504" fill="rgb(255,255,255)" />
<path d="
  M -6.480 -6.696
  C -4.032 -8.928 -0.648 -9.792 3.312 -9.576
  L 2.736 -33.120
  C -2.448 -32.688 -3.744 -31.176 -7.632 -28.440
  C -6.912 -20.952 -6.696 -14.400 -6.480 -6.696" stroke="rgb(0,0,0)" stroke-width="0.504" fill="rgb(255,0,0)" />
<path d="
  M 31.608 -22.752
  C 32.328 -19.152 31.176 -9.288 30.312 -2.808
  C 26.856 -2.088 23.328 -1.440 19.800 -1.440
  L 20.592 -21.024
  C 23.832 -20.304 29.088 -23.256 31.608 -22.752" stroke="rgb(0,0,0)" stroke-width="0.504" fill="rgb(255,0,0)" />
<path d="
  M 11.592 -7.920
  L 12.096 -12.024
  L 13.464 -11.160
  L 15.408 -10.584
  L 14.976 -11.664
  L 14.976 -12.744
  L 18.576 -14.256
  L 17.640 -15.552
  L 19.296 -16.992
  L 17.208 -17.424
  L 17.136 -18.648
  L 14.832 -17.712
  L 14.112 -18.144
  L 14.400 -19.512
  L 15.336 -20.952
  L 16.416 -22.248
  L 14.472 -22.392
  L 13.968 -25.704
  L 12.384 -23.472
  L 10.368 -24.984
  L 11.232 -22.248
  L 11.448 -19.152
  L 11.160 -18.720
  L 10.440 -19.152
  L 9.504 -20.880
  L 8.784 -22.392
  L 8.208 -20.304
  L 6.048 -21.384
  L 7.056 -19.152
  L 5.472 -18.216
  L 7.200 -15.768
  L 7.920 -14.904
  L 7.704 -14.040
  L 7.056 -13.680
  L 9.216 -13.248
  L 10.872 -12.456
  L 10.440 -8.424
  L 11.592 -7.920" stroke="rgb(0,0,0)" stroke-width="0.504" fill="rgb(255,0,0)" />
</g>
<g>
<path d="
  M 35.640 4.896
  L 36.000 3.960
  L 35.496 3.816
  C 35.784 4.176 35.856 4.464 35.640 4.896" stroke="none" fill="rgb(182,255,255)" />
<path d="
  M 34.560 1.440
  L 34.776 0.864
  L 33.912 0.576
  C 34.344 0.720 34.560 1.080 34.560 1.440" stroke="none" fill="rgb(182,255,255)" />
<path d="
  M 30.168 -2.592
  L 30.096 -2.808
  L 29.880 -2.664
  C 30.024 -2.808 30.024 -2.808 30.168 -2.592" stroke="none" fill="rgb(182,255,255)" />
<path d="
  M 25.128 -3.168
  L 24.120 -3.600
  L 23.832 -3.024
  C 24.336 -3.312 24.696 -3.384 25.128 -3.168" stroke="none" fill="rgb(182,255,255)" />
<path d="
  M 21.600 -2.016
  L 20.880 -2.376
  L 20.304 -1.152
  C 20.664 -1.656 21.096 -2.016 21.600 -2.016" stroke="none" fill="rgb(182,255,255)" />
<path d="
  M 17.712 2.088
  L 17.208 2.304
  L 17.424 2.808
  C 17.424 2.592 17.568 2.304 17.712 2.088" stroke="none" fill="rgb(182,255,255)" />
<path d="
  M 17.064 7.344
  L 16.632 8.280
  L 17.208 8.424
  C 16.920 8.136 16.848 7.704 17.064 7.344" stroke="none" fill="rgb(182,255,255)" />
<path d="
  M 18.072 10.656
  L 17.856 11.376
  L 18.864 11.808
  C 18.360 11.520 18.072 11.088 18.072 10.656" stroke="none" fill="rgb(182,255,255)" />
<path d="
  M 22.320 14.760
  L 22.536 15.264
  L 23.112 15.048
  C 22.896 15.120 22.608 15.048 22.320 14.760" stroke="none" fill="rgb(182,255,255)" />
<path d="
  M 27.576 15.408
  L 28.584 15.840
  L 28.800 15.264
  C 28.368 15.552 27.936 15.624 27.576 15.408" stroke="none" fill="rgb(182,255,255)" />
<path d="
  M 31.032 14.328
  L 31.680 14.616
  L 32.040 13.608
  C 31.824 14.040 31.392 14.328 31.032 14.328" stroke="none" fill="rgb(182,255,255)" />
<path d="
  M 35.064 10.080
  L 35.496 9.864
  L 35.280 9.288
  C 35.352 9.432 35.280 9.792 35.064 10.080" stroke="none" fill="rgb(182,255,255)" />
<path d="
  M 35.640 4.896
  L 35.640 5.112
  L 35.064 5.328
  C 35.136 4.680 35.064 4.104 34.776 3.456
  L 34.776 3.456
  L 35.496 3.816
  C 35.784 4.176 35.856 4.464 35.640 4.896" stroke="none" fill="rgb(187,255,255)" />
<path d="
  M 34.560 1.440
  L 34.272 2.088
  L 34.128 2.088
  C 33.912 1.440 33.624 0.936 33.120 0.576
  L 33.552 0.360
  L 33.912 0.576
  C 34.344 0.720 34.560 1.080 34.560 1.440" stroke="none" fill="rgb(187,255,255)" />
<path d="
  M 30.168 -2.592
  L 30.672 -1.656
  L 30.600 -1.440
  C 30.096 -2.016 29.376 -2.304 28.656 -2.304
  L 29.880 -2.664
  C 30.024 -2.808 30.024 -2.808 30.168 -2.592" stroke="none" fill="rgb(187,255,255)" />
<path d="
  M 25.128 -3.168
  L 25.560 -3.096
  L 25.776 -2.664
  C 25.056 -2.664 24.336 -2.592 23.688 -2.304
  L 23.616 -2.376
  L 23.832 -3.024
  C 24.336 -3.312 24.696 -3.384 25.128 -3.168" stroke="none" fill="rgb(187,255,255)" />
<path d="
  M 21.600 -2.016
  L 22.320 -1.656
  L 22.320 -1.656
  C 21.600 -1.440 20.952 -1.080 20.592 -0.432
  L 20.304 -1.080
  L 20.304 -1.152
  C 20.664 -1.656 21.096 -2.016 21.600 -2.016" stroke="none" fill="rgb(187,255,255)" />
<path d="
  M 17.712 2.088
  L 18.576 1.656
  L 18.720 1.800
  C 18.216 2.304 18.072 2.880 17.928 3.600
  L 17.712 3.456
  L 17.424 2.808
  C 17.424 2.592 17.568 2.304 17.712 2.088" stroke="none" fill="rgb(187,255,255)" />
<path d="
  M 17.064 7.344
  L 17.136 7.056
  L 17.568 6.840
  C 17.568 7.416 17.640 8.136 17.928 8.784
  L 17.208 8.424
  C 16.920 8.136 16.848 7.704 17.064 7.344" stroke="none" fill="rgb(187,255,255)" />
<path d="
  M 18.072 10.656
  L 18.144 10.296
  L 18.576 10.080
  C 18.648 10.800 19.080 11.304 19.584 11.664
  L 19.080 11.880
  L 18.864 11.808
  C 18.360 11.520 18.072 11.088 18.072 10.656" stroke="none" fill="rgb(187,255,255)" />
<path d="
  M 22.320 14.760
  L 21.960 13.824
  L 21.960 13.680
  C 22.608 14.184 23.328 14.544 24.120 14.544
  L 24.048 14.760
  L 23.112 15.048
  C 22.896 15.120 22.608 15.048 22.320 14.760" stroke="none" fill="rgb(187,255,255)" />
<path d="
  M 27.576 15.408
  L 27.288 15.336
  L 27.072 14.904
  C 27.792 14.904 28.368 14.832 29.016 14.544
  L 29.016 14.544
  L 28.800 15.264
  C 28.368 15.552 27.936 15.624 27.576 15.408" stroke="none" fill="rgb(187,255,255)" />
<path d="
  M 31.032 14.328
  L 30.312 14.040
  L 30.312 14.040
  C 30.888 13.824 31.536 13.392 31.896 12.888
  L 32.112 13.392
  L 32.040 13.608
  C 31.824 14.040 31.392 14.328 31.032 14.328" stroke="none" fill="rgb(187,255,255)" />
<path d="
  M 35.064 10.080
  L 34.128 10.368
  L 34.056 10.368
  C 34.560 9.792 34.776 9.144 34.776 8.424
  L 35.064 8.568
  L 35.280 9.288
  C 35.352 9.432 35.280 9.792 35.064 10.080" stroke="none" fill="rgb(187,255,255)" />
<path d="
  M 35.064 5.328
  L 34.416 5.616
  C 34.416 4.896 34.344 4.320 34.056 3.816
  L 34.776 3.456
  C 35.064 4.104 35.136 4.680 35.064 5.328" stroke="none" fill="rgb(192,255,255)" />
<path d="
  M 34.128 2.088
  L 33.552 2.376
  C 33.336 1.800 32.904 1.152 32.400 0.720
  L 33.120 0.576
  C 33.624 0.936 33.912 1.440 34.128 2.088" stroke="none" fill="rgb(192,255,255)" />
<path d="
  M 30.600 -1.440
  L 30.384 -0.864
  C 29.808 -1.368 29.160 -1.584 28.440 -1.656
  L 28.656 -2.304
  L 28.656 -2.304
  C 29.376 -2.304 30.096 -2.016 30.600 -1.440" stroke="none" fill="rgb(192,255,255)" />
<path d="
  M 25.776 -2.664
  L 25.920 -2.016
  C 25.200 -2.088 24.552 -1.872 23.904 -1.584
  L 23.688 -2.304
  C 24.336 -2.592 25.056 -2.664 25.776 -2.664" stroke="none" fill="rgb(192,255,255)" />
<path d="
  M 22.320 -1.656
  L 22.608 -1.080
  C 21.888 -0.792 21.312 -0.360 20.808 0.144
  L 20.592 -0.432
  C 20.952 -1.080 21.600 -1.440 22.320 -1.656" stroke="none" fill="rgb(192,255,255)" />
<path d="
  M 18.720 1.800
  L 19.368 2.088
  C 18.936 2.592 18.648 3.168 18.576 3.888
  L 17.928 3.600
  C 18.072 2.880 18.216 2.304 18.720 1.800" stroke="none" fill="rgb(192,255,255)" />
<path d="
  M 17.568 6.840
  L 18.216 6.552
  C 18.144 7.200 18.360 7.920 18.648 8.568
  L 18.072 8.784
  L 17.928 8.784
  C 17.640 8.136 17.568 7.416 17.568 6.840" stroke="none" fill="rgb(192,255,255)" />
<path d="
  M 18.576 10.080
  L 19.152 9.864
  C 19.368 10.440 19.800 10.944 20.304 11.376
  L 19.584 11.664
  C 19.080 11.304 18.648 10.800 18.576 10.080" stroke="none" fill="rgb(192,255,255)" />
<path d="
  M 21.960 13.680
  L 22.320 13.104
  C 22.896 13.608 23.544 13.896 24.336 13.896
  L 24.120 14.544
  C 23.328 14.544 22.608 14.184 21.960 13.680" stroke="none" fill="rgb(192,255,255)" />
<path d="
  M 27.072 14.904
  L 26.784 14.184
  C 27.432 14.328 28.080 14.112 28.656 13.824
  L 29.016 14.544
  C 28.368 14.832 27.792 14.904 27.072 14.904" stroke="none" fill="rgb(192,255,255)" />
<path d="
  M 30.312 14.040
  L 30.024 13.320
  C 30.672 13.104 31.176 12.672 31.680 12.168
  L 31.896 12.888
  C 31.536 13.392 30.888 13.824 30.312 14.040" stroke="none" fill="rgb(192,255,255)" />
<path d="
  M 34.056 10.368
  L 33.336 10.080
  C 33.840 9.576 34.128 8.856 34.128 8.136
  L 34.776 8.424
  C 34.776 9.144 34.560 9.792 34.056 10.368" stroke="none" fill="rgb(192,255,255)" />
<path d="
  M 34.416 5.616
  L 33.768 5.832
  C 33.840 5.184 33.768 4.608 33.408 3.960
  L 34.056 3.816
  C 34.344 4.320 34.416 4.896 34.416 5.616" stroke="none" fill="rgb(197,255,255)" />
<path d="
  M 33.552 2.376
  L 32.832 2.664
  C 32.616 1.944 32.256 1.440 31.680 1.080
  L 32.400 0.720
  C 32.904 1.152 33.336 1.800 33.552 2.376" stroke="none" fill="rgb(197,255,255)" />
<path d="
  M 30.384 -0.864
  L 30.096 -0.144
  C 29.592 -0.648 28.872 -0.936 28.152 -0.936
  L 28.440 -1.656
  C 29.160 -1.584 29.808 -1.368 30.384 -0.864" stroke="none" fill="rgb(197,255,255)" />
<path d="
  M 25.920 -2.016
  L 26.280 -1.368
  C 25.560 -1.368 24.840 -1.296 24.192 -0.864
  L 23.904 -1.584
  C 24.552 -1.872 25.200 -2.088 25.920 -2.016" stroke="none" fill="rgb(197,255,255)" />
<path d="
  M 22.608 -1.080
  L 22.896 -0.360
  C 22.176 -0.144 21.600 0.360 21.096 0.864
  L 20.808 0.144
  C 21.312 -0.360 21.888 -0.792 22.608 -1.080" stroke="none" fill="rgb(197,255,255)" />
<path d="
  M 19.368 2.088
  L 20.088 2.376
  C 19.584 2.880 19.368 3.456 19.296 4.104
  L 18.576 3.888
  C 18.648 3.168 18.936 2.592 19.368 2.088" stroke="none" fill="rgb(197,255,255)" />
<path d="
  M 18.216 6.552
  L 18.864 6.336
  C 18.864 6.912 18.936 7.632 19.296 8.280
  L 18.648 8.568
  C 18.360 7.920 18.144 7.200 18.216 6.552" stroke="none" fill="rgb(197,255,255)" />
<path d="
  M 19.152 9.864
  L 19.872 9.576
  C 20.088 10.296 20.448 10.800 20.952 11.160
  L 20.304 11.376
  C 19.800 10.944 19.368 10.440 19.152 9.864" stroke="none" fill="rgb(197,255,255)" />
<path d="
  M 22.320 13.104
  L 22.608 12.384
  C 23.112 12.888 23.832 13.176 24.624 13.176
  L 24.336 13.896
  C 23.544 13.896 22.896 13.608 22.320 13.104" stroke="none" fill="rgb(197,255,255)" />
<path d="
  M 26.784 14.184
  L 26.568 13.608
  C 27.144 13.608 27.864 13.536 28.368 13.176
  L 28.656 13.824
  C 28.080 14.112 27.432 14.328 26.784 14.184" stroke="none" fill="rgb(197,255,255)" />
<path d="
  M 30.024 13.320
  L 29.808 12.600
  C 30.384 12.384 31.032 12.096 31.392 11.520
  L 31.680 12.168
  C 31.176 12.672 30.672 13.104 30.024 13.320" stroke="none" fill="rgb(197,255,255)" />
<path d="
  M 33.336 10.080
  L 32.760 9.792
  C 33.120 9.288 33.408 8.640 33.408 7.920
  L 34.128 8.136
  C 34.128 8.856 33.840 9.576 33.336 10.080" stroke="none" fill="rgb(197,255,255)" />
<path d="
  M 33.768 5.832
  L 33.264 6.120
  C 33.264 5.400 33.120 4.824 32.832 4.176
  L 33.408 3.960
  C 33.768 4.608 33.840 5.184 33.768 5.832" stroke="none" fill="rgb(202,255,255)" />
<path d="
  M 32.832 2.664
  L 32.328 2.880
  C 32.112 2.304 31.680 1.800 31.176 1.224
  L 31.680 1.080
  C 32.256 1.440 32.616 1.944 32.832 2.664" stroke="none" fill="rgb(202,255,255)" />
<path d="
  M 30.096 -0.144
  L 29.880 0.360
  C 29.304 -0.144 28.656 -0.360 27.936 -0.432
  L 28.152 -0.936
  C 28.872 -0.936 29.592 -0.648 30.096 -0.144" stroke="none" fill="rgb(202,255,255)" />
<path d="
  M 26.280 -1.368
  L 26.424 -0.792
  C 25.776 -0.792 25.056 -0.648 24.408 -0.360
  L 24.192 -0.864
  C 24.840 -1.296 25.560 -1.368 26.280 -1.368" stroke="none" fill="rgb(202,255,255)" />
<path d="
  M 22.896 -0.360
  L 23.112 0.144
  C 22.392 0.432 21.816 0.864 21.384 1.440
  L 21.096 0.864
  C 21.600 0.360 22.176 -0.144 22.896 -0.360" stroke="none" fill="rgb(202,255,255)" />
<path d="
  M 20.088 2.376
  L 20.592 2.592
  C 20.160 3.096 19.872 3.672 19.800 4.392
  L 19.296 4.104
  C 19.368 3.456 19.584 2.880 20.088 2.376" stroke="none" fill="rgb(202,255,255)" />
<path d="
  M 18.864 6.336
  L 19.440 6.048
  C 19.440 6.696 19.584 7.344 19.872 8.064
  L 19.296 8.280
  C 18.936 7.632 18.864 6.912 18.864 6.336" stroke="none" fill="rgb(202,255,255)" />
<path d="
  M 19.872 9.576
  L 20.376 9.360
  C 20.592 9.936 20.952 10.440 21.456 10.944
  L 20.952 11.160
  C 20.448 10.800 20.088 10.296 19.872 9.576" stroke="none" fill="rgb(202,255,255)" />
<path d="
  M 22.608 12.384
  L 22.824 11.880
  C 23.328 12.384 24.048 12.600 24.840 12.672
  L 24.624 13.176
  C 23.832 13.176 23.112 12.888 22.608 12.384" stroke="none" fill="rgb(202,255,255)" />
<path d="
  M 26.568 13.608
  L 26.280 13.032
  C 26.928 13.032 27.576 12.888 28.152 12.600
  L 28.368 13.176
  C 27.864 13.536 27.144 13.608 26.568 13.608" stroke="none" fill="rgb(202,255,255)" />
<path d="
  M 29.808 12.600
  L 29.592 12.096
  C 30.168 11.880 30.672 11.520 31.176 10.944
  L 31.392 11.520
  C 31.032 12.096 30.384 12.384 29.808 12.600" stroke="none" fill="rgb(202,255,255)" />
<path d="
  M 32.760 9.792
  L 32.112 9.576
  C 32.616 9.072 32.904 8.352 32.904 7.632
  L 33.408 7.920
  C 33.408 8.640 33.120 9.288 32.760 9.792" stroke="none" fill="rgb(202,255,255)" />
<path d="
  M 33.264 6.120
  L 32.400 6.408
  C 32.544 5.688 32.400 5.112 32.112 4.464
  L 32.832 4.176
  C 33.120 4.824 33.264 5.400 33.264 6.120" stroke="none" fill="rgb(207,255,255)" />
<path d="
  M 32.328 2.880
  L 31.608 3.168
  C 31.392 2.448 31.032 1.944 30.528 1.584
  L 31.176 1.224
  C 31.680 1.800 32.112 2.304 32.328 2.880" stroke="none" fill="rgb(207,255,255)" />
<path d="
  M 29.880 0.360
  L 29.592 1.080
  C 29.088 0.576 28.368 0.216 27.648 0.216
  L 27.936 -0.432
  C 28.656 -0.360 29.304 -0.144 29.880 0.360" stroke="none" fill="rgb(207,255,255)" />
<path d="
  M 26.424 -0.792
  L 26.784 0.072
  C 26.064 -0.072 25.344 -0.072 24.696 0.360
  L 24.408 -0.360
  C 25.056 -0.648 25.776 -0.792 26.424 -0.792" stroke="none" fill="rgb(207,255,255)" />
<path d="
  M 23.112 0.144
  L 23.400 0.864
  C 22.680 1.152 22.104 1.584 21.672 2.304
  L 21.384 1.440
  C 21.816 0.864 22.392 0.432 23.112 0.144" stroke="none" fill="rgb(207,255,255)" />
<path d="
  M 20.592 2.592
  L 21.312 2.952
  C 20.808 3.384 20.448 3.960 20.448 4.608
  L 19.800 4.392
  C 19.872 3.672 20.160 3.096 20.592 2.592" stroke="none" fill="rgb(207,255,255)" />
<path d="
  M 19.440 6.048
  L 20.304 5.688
  C 20.160 6.336 20.160 7.128 20.448 7.704
  L 19.872 8.064
  C 19.584 7.344 19.440 6.696 19.440 6.048" stroke="none" fill="rgb(207,255,255)" />
<path d="
  M 20.376 9.360
  L 21.096 9.072
  C 21.312 9.792 21.672 10.296 22.320 10.656
  L 21.456 10.944
  C 20.952 10.440 20.592 9.936 20.376 9.360" stroke="none" fill="rgb(207,255,255)" />
<path d="
  M 22.824 11.880
  L 23.112 11.160
  C 23.616 11.664 24.336 12.024 25.056 12.024
  L 24.840 12.672
  C 24.048 12.600 23.328 12.384 22.824 11.880" stroke="none" fill="rgb(207,255,255)" />
<path d="
  M 26.280 13.032
  L 25.920 12.168
  C 26.640 12.312 27.288 12.312 27.864 12.024
  L 28.152 12.600
  C 27.576 12.888 26.928 13.032 26.280 13.032" stroke="none" fill="rgb(207,255,255)" />
<path d="
  M 29.592 12.096
  L 29.304 11.376
  C 30.024 11.160 30.528 10.800 30.888 10.152
  L 31.176 10.944
  C 30.672 11.520 30.168 11.880 29.592 12.096" stroke="none" fill="rgb(207,255,255)" />
<path d="
  M 32.112 9.576
  L 31.536 9.288
  C 31.896 8.784 32.256 8.136 32.256 7.416
  L 32.904 7.632
  C 32.904 8.352 32.616 9.072 32.112 9.576" stroke="none" fill="rgb(207,255,255)" />
<path d="
  M 32.112 4.464
  L 31.536 4.680
  C 31.824 5.328 31.824 6.048 31.680 6.696
  L 32.400 6.408
  C 32.544 5.688 32.400 5.112 32.112 4.464" stroke="none" fill="rgb(215,255,255)" />
<path d="
  M 31.608 3.168
  L 31.032 3.384
  C 30.672 2.808 30.312 2.304 29.664 1.944
  L 30.528 1.584
  C 31.032 1.944 31.392 2.448 31.608 3.168" stroke="none" fill="rgb(215,255,255)" />
<path d="
  M 29.592 1.080
  L 29.304 1.656
  C 28.800 1.152 28.080 0.864 27.432 0.864
  L 27.648 0.216
  C 28.368 0.216 29.088 0.576 29.592 1.080" stroke="none" fill="rgb(215,255,255)" />
<path d="
  M 26.784 0.072
  L 27.072 0.720
  C 26.352 0.648 25.632 0.648 24.912 0.936
  L 24.696 0.360
  C 25.344 -0.072 26.064 -0.072 26.784 0.072" stroke="none" fill="rgb(215,255,255)" />
<path d="
  M 23.400 0.864
  L 23.616 1.440
  C 22.896 1.800 22.392 2.304 21.960 2.952
  L 21.672 2.304
  C 22.104 1.584 22.680 1.152 23.400 0.864" stroke="none" fill="rgb(215,255,255)" />
<path d="
  M 21.312 2.952
  L 21.816 3.168
  C 21.384 3.672 21.168 4.320 21.096 4.896
  L 20.448 4.608
  C 20.448 3.960 20.808 3.384 21.312 2.952" stroke="none" fill="rgb(215,255,255)" />
<path d="
  M 20.304 5.688
  L 20.952 5.328
  C 20.880 6.048 20.880 6.696 21.168 7.416
  L 20.448 7.704
  C 20.160 7.128 20.160 6.336 20.304 5.688" stroke="none" fill="rgb(215,255,255)" />
<path d="
  M 21.096 9.072
  L 21.672 8.856
  C 21.960 9.432 22.392 9.936 23.040 10.368
  L 22.320 10.656
  C 21.672 10.296 21.312 9.792 21.096 9.072" stroke="none" fill="rgb(215,255,255)" />
<path d="
  M 23.112 11.160
  L 23.328 10.584
  C 23.904 11.088 24.552 11.376 25.200 11.376
  L 25.056 12.024
  C 24.336 12.024 23.616 11.664 23.112 11.160" stroke="none" fill="rgb(215,255,255)" />
<path d="
  M 25.920 12.168
  L 25.632 11.520
  C 26.352 11.592 26.928 11.592 27.648 11.376
  L 27.864 12.024
  C 27.288 12.312 26.640 12.312 25.920 12.168" stroke="none" fill="rgb(215,255,255)" />
<path d="
  M 29.304 11.376
  L 29.088 10.800
  C 29.664 10.440 30.312 10.080 30.600 9.360
  L 30.888 10.152
  C 30.528 10.800 30.024 11.160 29.304 11.376" stroke="none" fill="rgb(215,255,255)" />
<path d="
  M 31.536 9.288
  L 30.816 9.072
  C 31.320 8.424 31.608 7.848 31.608 7.128
  L 32.256 7.416
  C 32.256 8.136 31.896 8.784 31.536 9.288" stroke="none" fill="rgb(215,255,255)" />
<path d="
  M 31.536 4.680
  L 30.816 5.040
  C 31.536 7.056 30.600 9.072 28.800 10.080
  L 29.088 10.800
  C 29.664 10.440 30.312 10.080 30.600 9.360
  L 30.384 8.856
  L 30.816 9.072
  C 31.320 8.424 31.608 7.848 31.608 7.128
  L 31.104 6.912
  L 31.680 6.696
  C 31.824 6.048 31.824 5.328 31.536 4.680" stroke="none" fill="rgb(220,255,255)" />
<path d="
  M 31.032 3.384
  L 30.312 3.672
  C 29.376 1.872 27.288 0.936 25.200 1.584
  L 24.912 0.936
  C 25.632 0.648 26.352 0.648 27.072 0.720
  L 27.288 1.224
  L 27.432 0.864
  C 28.080 0.864 28.800 1.152 29.304 1.656
  L 29.088 2.160
  L 29.664 1.944
  C 30.312 2.304 30.672 2.808 31.032 3.384" stroke="none" fill="rgb(220,255,255)" />
<path d="
  M 23.616 1.440
  L 23.904 2.160
  C 22.104 3.096 21.312 5.184 21.816 7.200
  L 21.168 7.416
  C 20.880 6.696 20.880 6.048 20.952 5.328
  L 21.600 5.112
  L 21.096 4.896
  C 21.168 4.320 21.384 3.672 21.816 3.168
  L 22.176 3.384
  L 21.960 2.952
  C 22.392 2.304 22.896 1.800 23.616 1.440" stroke="none" fill="rgb(220,255,255)" />
<path d="
  M 21.672 8.856
  L 22.392 8.568
  C 23.328 10.368 25.416 11.160 27.360 10.656
  L 27.648 11.376
  C 26.928 11.592 26.352 11.592 25.632 11.520
  L 25.416 10.944
  L 25.200 11.376
  C 24.552 11.376 23.904 11.088 23.328 10.584
  L 23.544 10.152
  L 23.040 10.368
  C 22.392 9.936 21.960 9.432 21.672 8.856" stroke="none" fill="rgb(220,255,255)" />
<path d="
  M 30.816 5.040
  L 30.168 5.184
  C 30.672 6.912 30.024 8.640 28.440 9.432
  L 28.800 10.080
  C 30.600 9.072 31.536 7.056 30.816 5.040" stroke="none" fill="rgb(225,255,255)" />
<path d="
  M 30.312 3.672
  L 29.664 3.960
  C 28.872 2.448 27.144 1.800 25.560 2.304
  L 25.200 1.584
  C 27.288 0.936 29.376 1.872 30.312 3.672" stroke="none" fill="rgb(225,255,255)" />
<path d="
  M 23.904 2.160
  L 24.192 2.808
  C 22.824 3.600 22.104 5.184 22.392 6.912
  L 21.816 7.200
  C 21.312 5.184 22.104 3.096 23.904 2.160" stroke="none" fill="rgb(225,255,255)" />
<path d="
  M 22.392 8.568
  L 23.040 8.352
  C 23.832 9.648 25.416 10.368 27.144 10.080
  L 27.360 10.656
  C 25.416 11.160 23.328 10.368 22.392 8.568" stroke="none" fill="rgb(225,255,255)" />
<path d="
  M 30.168 5.184
  L 29.592 5.400
  C 30.024 6.696 29.520 8.136 28.296 8.856
  L 28.440 9.432
  C 30.024 8.640 30.672 6.912 30.168 5.184" stroke="none" fill="rgb(230,255,255)" />
<path d="
  M 29.664 3.960
  L 29.088 4.176
  C 28.368 3.096 27.072 2.448 25.776 2.808
  L 25.560 2.304
  C 27.144 1.800 28.872 2.448 29.664 3.960" stroke="none" fill="rgb(230,255,255)" />
<path d="
  M 24.192 2.808
  L 24.408 3.384
  C 23.328 3.960 22.680 5.400 23.040 6.696
  L 22.392 6.912
  C 22.104 5.184 22.824 3.600 24.192 2.808" stroke="none" fill="rgb(230,255,255)" />
<path d="
  M 23.040 8.352
  L 23.616 8.064
  C 24.336 9.144 25.632 9.792 26.856 9.432
  L 27.144 10.080
  C 25.416 10.368 23.832 9.648 23.040 8.352" stroke="none" fill="rgb(230,255,255)" />
<path d="
  M 29.088 6.120
  C 29.088 4.680 27.792 3.384 26.352 3.384
  C 24.912 3.384 23.616 4.680 23.616 6.120
  C 23.616 7.560 24.912 8.856 26.352 8.856
  C 27.792 8.856 29.088 7.560 29.088 6.120" stroke="none" fill="rgb(235,255,255)" />
<path d="
  M 29.592 5.400
  L 29.160 5.616
  L 28.872 4.320
  L 29.088 4.176
  C 28.368 3.096 27.072 2.448 25.776 2.808
  L 25.848 3.096
  L 24.552 3.456
  L 24.408 3.384
  C 23.328 3.960 22.680 5.400 23.040 6.696
  L 23.400 6.552
  L 23.904 7.920
  L 23.616 8.064
  C 24.336 9.144 25.632 9.792 26.856 9.432
  L 26.784 9.144
  L 28.152 8.568
  L 28.296 8.856
  C 29.520 8.136 30.024 6.696 29.592 5.400" stroke="none" fill="rgb(235,255,255)" />
<path d="
  M 29.088 6.120
  C 29.088 4.680 27.792 3.384 26.352 3.384
  C 24.912 3.384 23.616 4.680 23.616 6.120
  C 23.616 7.560 24.912 8.856 26.352 8.856
  C 27.792 8.856 29.088 7.560 29.088 6.120" stroke="none" fill="rgb(240,255,255)" />
<path d="
  M 28.368 6.120
  C 28.368 5.040 27.432 4.104 26.352 4.104
  C 25.200 4.104 24.336 5.040 24.336 6.120
  C 24.336 7.200 25.200 8.136 26.352 8.136
  C 27.432 8.136 28.368 7.200 28.368 6.120" stroke="none" fill="rgb(240,255,255)" />
<path d="
  M 28.368 6.120
  C 28.368 5.040 27.432 4.104 26.352 4.104
  C 25.200 4.104 24.336 5.040 24.336 6.120
  C 24.336 7.200 25.200 8.136 26.352 8.136
  C 27.432 8.136 28.368 7.200 28.368 6.120" stroke="none" fill="rgb(245,255,255)" />
<path d="
  M 27.648 6.120
  C 27.648 5.400 27.072 4.824 26.352 4.824
  C 25.632 4.824 25.056 5.400 25.056 6.120
  C 25.056 6.840 25.632 7.416 26.352 7.416
  C 27.072 7.416 27.648 6.840 27.648 6.120" stroke="none" fill="rgb(245,255,255)" />
<path d="
  M 27.648 6.120
  C 27.648 5.400 27.072 4.824 26.352 4.824
  C 25.632 4.824 25.056 5.400 25.056 6.120
  C 25.056 6.840 25.632 7.416 26.352 7.416
  C 27.072 7.416 27.648 6.840 27.648 6.120" stroke="none" fill="rgb(250,255,255)" />
<path d="
  M 26.928 6.120
  C 26.928 5.832 26.640 5.544 26.352 5.544
  C 26.064 5.544 25.776 5.832 25.776 6.120
  C 25.776 6.408 26.064 6.696 26.352 6.696
  C 26.640 6.696 26.928 6.408 26.928 6.120" stroke="none" fill="rgb(250,255,255)" />
<path d="
  M 26.928 6.120
  C 26.928 5.832 26.640 5.544 26.352 5.544
  C 26.064 5.544 25.776 5.832 25.776 6.120
  C 25.776 6.408 26.064 6.696 26.352 6.696
  C 26.640 6.696 26.928 6.408 26.928 6.120" stroke="none" fill="rgb(255,255,255)" />
</g>
<path d="
  M 29.088 2.160
  L 33.552 0.360
  L 34.776 0.864
  L 34.272 2.088
  L 28.872 4.320
  L 29.160 5.616
  L 34.776 3.456
  L 36.000 3.960
  L 35.640 5.112
  L 31.104 6.912
  L 35.064 8.568
  L 35.496 9.864
  L 34.128 10.368
  L 30.384 8.856
  L 32.112 13.392
  L 31.680 14.616
  L 30.312 14.040
  L 28.152 8.568
  L 26.784 9.144
  L 29.016 14.544
  L 28.584 15.840
  L 27.288 15.336
  L 25.416 10.944
  L 24.048 14.760
  L 22.536 15.264
  L 21.960 13.824
  L 23.544 10.152
  L 19.080 11.880
  L 17.856 11.376
  L 18.144 10.296
  L 23.904 7.920
  L 23.400 6.552
  L 18.072 8.784
  L 16.632 8.280
  L 17.136 7.056
  L 21.600 5.112
  L 17.712 3.456
  L 17.208 2.304
  L 18.576 1.656
  L 22.176 3.384
  L 20.304 -1.080
  L 20.880 -2.376
  L 22.320 -1.656
  L 24.552 3.456
  L 25.848 3.096
  L 23.616 -2.376
  L 24.120 -3.600
  L 25.560 -3.096
  L 27.288 1.224
  L 28.656 -2.304
  L 30.096 -2.808
  L 30.672 -1.656
  L 29.088 2.160" stroke="rgb(0,0,0)" stroke-width="0.504" fill="none" />
<g>
<path d="
  M 25.056 25.056
  L 25.344 24.264
  L 24.840 24.048
  C 25.128 24.336 25.128 24.768 25.056 25.056" stroke="none" fill="rgb(182,255,255)" />
<path d="
  M 24.048 21.600
  L 24.192 21.096
  L 23.400 20.592
  C 23.832 20.880 24.048 21.240 24.048 21.600" stroke="none" fill="rgb(182,255,255)" />
<path d="
  M 14.616 16.560
  L 13.824 16.272
  L 13.464 16.848
  C 13.896 16.560 14.184 16.416 14.616 16.560" stroke="none" fill="rgb(182,255,255)" />
<path d="
  M 11.160 17.640
  L 10.584 17.352
  L 9.936 18.504
  C 10.224 18.000 10.656 17.640 11.160 17.640" stroke="none" fill="rgb(182,255,255)" />
<path d="
  M 7.200 21.744
  L 6.768 21.888
  L 6.912 22.248
  C 6.912 22.104 6.984 21.888 7.200 21.744" stroke="none" fill="rgb(182,255,255)" />
<path d="
  M 6.264 27.000
  L 5.832 27.792
  L 6.480 28.080
  C 6.264 27.720 6.192 27.360 6.264 27.000" stroke="none" fill="rgb(182,255,255)" />
<path d="
  M 7.200 30.240
  L 6.984 30.960
  L 7.992 31.464
  C 7.560 31.104 7.272 30.744 7.200 30.240" stroke="none" fill="rgb(182,255,255)" />
<path d="
  M 11.232 34.344
  L 11.448 34.992
  L 12.096 34.776
  C 11.880 34.776 11.592 34.704 11.232 34.344" stroke="none" fill="rgb(182,255,255)" />
<path d="
  M 16.560 35.352
  L 17.568 35.784
  L 17.856 35.064
  C 17.424 35.352 16.920 35.496 16.560 35.352" stroke="none" fill="rgb(182,255,255)" />
<path d="
  M 19.944 34.344
  L 20.664 34.704
  L 21.096 33.552
  C 20.808 34.056 20.376 34.272 19.944 34.344" stroke="none" fill="rgb(182,255,255)" />
<path d="
  M 24.048 30.384
  L 24.696 30.096
  L 24.552 29.376
  C 24.552 29.736 24.336 30.024 24.048 30.384" stroke="none" fill="rgb(182,255,255)" />
<path d="
  M 25.056 25.056
  L 24.912 25.344
  L 24.552 25.488
  C 24.624 24.984 24.552 24.336 24.192 23.760
  L 24.840 24.048
  C 25.128 24.336 25.128 24.768 25.056 25.056" stroke="none" fill="rgb(187,255,255)" />
<path d="
  M 24.048 21.600
  L 23.688 22.104
  C 23.544 21.600 23.184 21.096 22.680 20.592
  L 23.112 20.520
  L 23.400 20.592
  C 23.832 20.880 24.048 21.240 24.048 21.600" stroke="none" fill="rgb(187,255,255)" />
<path d="
  M 14.616 16.560
  L 15.120 16.776
  L 15.192 17.064
  C 14.472 16.920 13.896 17.064 13.176 17.424
  L 13.176 17.352
  L 13.464 16.848
  C 13.896 16.560 14.184 16.416 14.616 16.560" stroke="none" fill="rgb(187,255,255)" />
<path d="
  M 11.160 17.640
  L 11.664 18.000
  C 11.088 18.144 10.584 18.504 10.080 19.080
  L 9.864 18.576
  L 9.936 18.504
  C 10.224 18.000 10.656 17.640 11.160 17.640" stroke="none" fill="rgb(187,255,255)" />
<path d="
  M 7.200 21.744
  L 8.064 21.312
  L 8.064 21.312
  C 7.560 21.888 7.272 22.536 7.272 23.112
  L 7.200 23.112
  L 6.912 22.248
  C 6.912 22.104 6.984 21.888 7.200 21.744" stroke="none" fill="rgb(187,255,255)" />
<path d="
  M 6.264 27.000
  L 6.480 26.640
  L 6.768 26.568
  C 6.768 27.072 6.768 27.720 7.200 28.296
  L 6.480 28.080
  C 6.264 27.720 6.192 27.360 6.264 27.000" stroke="none" fill="rgb(187,255,255)" />
<path d="
  M 7.200 30.240
  L 7.416 29.808
  L 7.560 29.736
  C 7.776 30.312 8.064 30.960 8.568 31.320
  L 8.208 31.536
  L 7.992 31.464
  C 7.560 31.104 7.272 30.744 7.200 30.240" stroke="none" fill="rgb(187,255,255)" />
<path d="
  M 11.232 34.344
  L 11.088 33.552
  C 11.664 34.056 12.384 34.344 12.960 34.488
  L 12.960 34.560
  L 12.096 34.776
  C 11.880 34.776 11.592 34.704 11.232 34.344" stroke="none" fill="rgb(187,255,255)" />
<path d="
  M 16.560 35.352
  L 16.200 35.280
  L 16.128 34.848
  C 16.704 34.992 17.352 34.848 18.072 34.488
  L 18.072 34.560
  L 17.856 35.064
  C 17.424 35.352 16.920 35.496 16.560 35.352" stroke="none" fill="rgb(187,255,255)" />
<path d="
  M 19.944 34.344
  L 19.440 34.056
  C 19.944 33.840 20.592 33.552 20.952 32.976
  L 21.168 33.480
  L 21.096 33.552
  C 20.808 34.056 20.376 34.272 19.944 34.344" stroke="none" fill="rgb(187,255,255)" />
<path d="
  M 24.048 30.384
  L 23.328 30.600
  L 23.184 30.528
  C 23.688 30.024 24.048 29.304 24.120 28.728
  L 24.336 28.800
  L 24.552 29.376
  C 24.552 29.736 24.336 30.024 24.048 30.384" stroke="none" fill="rgb(187,255,255)" />
<path d="
  M 20.304 18.360
  L 20.304 18.360
  L 19.656 17.280
  L 18.648 17.568
  C 19.152 17.640 19.800 18.000 20.304 18.360" stroke="none" fill="rgb(187,255,255)" />
<path d="
  M 24.552 25.488
  L 23.904 25.776
  C 23.904 25.128 23.832 24.552 23.544 23.904
  L 24.120 23.760
  L 24.192 23.760
  C 24.552 24.336 24.624 24.984 24.552 25.488" stroke="none" fill="rgb(192,255,255)" />
<path d="
  M 23.688 22.104
  L 23.688 22.248
  L 23.112 22.392
  C 22.896 21.888 22.536 21.312 22.104 20.880
  L 22.680 20.592
  C 23.184 21.096 23.544 21.600 23.688 22.104" stroke="none" fill="rgb(192,255,255)" />
<path d="
  M 15.192 17.064
  L 15.408 17.640
  C 14.832 17.640 14.112 17.784 13.464 18.072
  L 13.176 17.424
  C 13.896 17.064 14.472 16.920 15.192 17.064" stroke="none" fill="rgb(192,255,255)" />
<path d="
  M 11.664 18.000
  L 11.952 18.072
  L 12.096 18.504
  C 11.448 18.792 10.872 19.152 10.368 19.656
  L 10.080 19.080
  C 10.584 18.504 11.088 18.144 11.664 18.000" stroke="none" fill="rgb(192,255,255)" />
<path d="
  M 8.064 21.312
  L 8.784 21.600
  C 8.280 22.104 7.992 22.824 7.920 23.400
  L 7.272 23.112
  C 7.272 22.536 7.560 21.888 8.064 21.312" stroke="none" fill="rgb(192,255,255)" />
<path d="
  M 6.768 26.568
  L 7.488 26.280
  C 7.416 27.000 7.488 27.576 7.776 28.224
  L 7.416 28.368
  L 7.200 28.296
  C 6.768 27.720 6.768 27.072 6.768 26.568" stroke="none" fill="rgb(192,255,255)" />
<path d="
  M 7.560 29.736
  L 8.208 29.520
  C 8.496 30.096 8.784 30.600 9.288 31.104
  L 8.568 31.320
  C 8.064 30.960 7.776 30.312 7.560 29.736" stroke="none" fill="rgb(192,255,255)" />
<path d="
  M 11.088 33.552
  L 11.088 33.552
  L 11.376 32.976
  C 11.952 33.480 12.600 33.768 13.320 33.840
  L 12.960 34.488
  C 12.384 34.344 11.664 34.056 11.088 33.552" stroke="none" fill="rgb(192,255,255)" />
<path d="
  M 16.128 34.848
  L 15.840 34.272
  C 16.560 34.272 17.136 34.200 17.712 33.840
  L 18.072 34.488
  C 17.352 34.848 16.704 34.992 16.128 34.848" stroke="none" fill="rgb(192,255,255)" />
<path d="
  M 19.440 34.056
  L 19.368 34.056
  L 19.152 33.480
  C 19.800 33.120 20.376 32.832 20.808 32.328
  L 20.952 32.976
  C 20.592 33.552 19.944 33.840 19.440 34.056" stroke="none" fill="rgb(192,255,255)" />
<path d="
  M 23.184 30.528
  L 22.608 30.312
  C 23.112 29.736 23.328 29.088 23.544 28.368
  L 24.120 28.728
  C 24.048 29.304 23.688 30.024 23.184 30.528" stroke="none" fill="rgb(192,255,255)" />
<path d="
  M 19.944 19.080
  L 20.304 18.360
  L 19.656 17.280
  L 18.360 17.640
  L 18.144 18.144
  C 18.720 18.288 19.440 18.576 19.944 19.080" stroke="none" fill="rgb(192,255,255)" />
<path d="
  M 23.904 25.776
  L 23.184 25.992
  C 23.184 25.344 23.112 24.768 22.824 24.120
  L 23.544 23.904
  C 23.832 24.552 23.904 25.128 23.904 25.776" stroke="none" fill="rgb(197,255,255)" />
<path d="
  M 23.112 22.392
  L 22.392 22.752
  C 22.176 22.104 21.888 21.600 21.384 21.240
  L 22.104 20.880
  C 22.536 21.312 22.896 21.888 23.112 22.392" stroke="none" fill="rgb(197,255,255)" />
<path d="
  M 19.944 19.080
  L 19.656 19.656
  C 19.152 19.152 18.432 18.864 17.856 18.792
  L 18.144 18.144
  C 18.720 18.288 19.440 18.576 19.944 19.080" stroke="none" fill="rgb(197,255,255)" />
<path d="
  M 15.408 17.640
  L 15.696 18.360
  C 14.976 18.360 14.400 18.504 13.680 18.792
  L 13.464 18.072
  C 14.112 17.784 14.832 17.640 15.408 17.640" stroke="none" fill="rgb(197,255,255)" />
<path d="
  M 12.096 18.504
  L 12.384 19.152
  C 11.664 19.368 11.088 19.800 10.584 20.376
  L 10.368 19.656
  C 10.872 19.152 11.448 18.792 12.096 18.504" stroke="none" fill="rgb(197,255,255)" />
<path d="
  M 8.784 21.600
  L 9.432 21.888
  C 8.928 22.392 8.568 23.112 8.568 23.760
  L 7.920 23.400
  C 7.992 22.824 8.280 22.104 8.784 21.600" stroke="none" fill="rgb(197,255,255)" />
<path d="
  M 7.488 26.280
  L 8.064 26.064
  C 8.064 26.640 8.208 27.360 8.496 28.008
  L 7.776 28.224
  C 7.488 27.576 7.416 27.000 7.488 26.280" stroke="none" fill="rgb(197,255,255)" />
<path d="
  M 8.208 29.520
  L 8.928 29.304
  C 9.072 29.880 9.504 30.384 9.936 30.960
  L 9.288 31.104
  C 8.784 30.600 8.496 30.096 8.208 29.520" stroke="none" fill="rgb(197,255,255)" />
<path d="
  M 11.376 32.976
  L 11.664 32.256
  C 12.168 32.760 12.888 33.048 13.608 33.120
  L 13.320 33.840
  C 12.600 33.768 11.952 33.480 11.376 32.976" stroke="none" fill="rgb(197,255,255)" />
<path d="
  M 15.840 34.272
  L 15.624 33.552
  C 16.200 33.552 16.920 33.480 17.568 33.120
  L 17.712 33.840
  C 17.136 34.200 16.560 34.272 15.840 34.272" stroke="none" fill="rgb(197,255,255)" />
<path d="
  M 19.152 33.480
  L 18.864 32.760
  C 19.584 32.544 20.088 32.112 20.592 31.608
  L 20.808 32.328
  C 20.376 32.832 19.800 33.120 19.152 33.480" stroke="none" fill="rgb(197,255,255)" />
<path d="
  M 22.608 30.312
  L 21.888 29.880
  C 22.392 29.376 22.680 28.800 22.824 28.080
  L 23.544 28.368
  C 23.328 29.088 23.112 29.736 22.608 30.312" stroke="none" fill="rgb(197,255,255)" />
<path d="
  M 22.824 24.120
  L 22.176 24.480
  C 22.536 24.984 22.536 25.632 22.392 26.280
  L 23.184 25.992
  C 23.184 25.344 23.112 24.768 22.824 24.120" stroke="none" fill="rgb(202,255,255)" />
<path d="
  M 22.392 22.752
  L 21.672 22.896
  C 21.456 22.320 21.168 21.816 20.664 21.384
  L 21.384 21.240
  C 21.888 21.600 22.176 22.104 22.392 22.752" stroke="none" fill="rgb(202,255,255)" />
<path d="
  M 19.656 19.656
  L 19.368 20.376
  C 18.864 19.872 18.216 19.584 17.568 19.512
  L 17.856 18.792
  C 18.432 18.864 19.152 19.152 19.656 19.656" stroke="none" fill="rgb(202,255,255)" />
<path d="
  M 15.696 18.360
  L 16.056 19.152
  C 15.336 19.080 14.616 19.080 13.968 19.368
  L 13.680 18.792
  C 14.400 18.504 14.976 18.360 15.696 18.360" stroke="none" fill="rgb(202,255,255)" />
<path d="
  M 12.384 19.152
  L 12.600 19.800
  C 11.952 20.088 11.376 20.520 10.872 21.024
  L 10.584 20.376
  C 11.088 19.800 11.664 19.368 12.384 19.152" stroke="none" fill="rgb(202,255,255)" />
<path d="
  M 9.432 21.888
  L 9.936 22.248
  C 9.576 22.752 9.288 23.328 9.216 24.048
  L 8.568 23.760
  C 8.568 23.112 8.928 22.392 9.432 21.888" stroke="none" fill="rgb(202,255,255)" />
<path d="
  M 8.064 26.064
  L 8.784 25.776
  C 8.784 26.352 8.928 27.072 9.072 27.792
  L 8.496 28.008
  C 8.208 27.360 8.064 26.640 8.064 26.064" stroke="none" fill="rgb(202,255,255)" />
<path d="
  M 8.928 29.304
  L 9.576 29.016
  C 9.720 29.736 10.152 30.240 10.656 30.600
  L 9.936 30.960
  C 9.504 30.384 9.072 29.880 8.928 29.304" stroke="none" fill="rgb(202,255,255)" />
<path d="
  M 11.664 32.256
  L 11.952 31.608
  C 12.456 32.112 13.104 32.472 13.896 32.544
  L 13.608 33.120
  C 12.888 33.048 12.168 32.760 11.664 32.256" stroke="none" fill="rgb(202,255,255)" />
<path d="
  M 15.624 33.552
  L 15.336 32.760
  C 16.056 32.832 16.632 32.832 17.208 32.544
  L 17.568 33.120
  C 16.920 33.480 16.200 33.552 15.624 33.552" stroke="none" fill="rgb(202,255,255)" />
<path d="
  M 18.864 32.760
  L 18.648 32.040
  C 19.368 31.824 19.872 31.464 20.376 30.960
  L 20.592 31.608
  C 20.088 32.112 19.584 32.544 18.864 32.760" stroke="none" fill="rgb(202,255,255)" />
<path d="
  M 21.888 29.880
  L 21.312 29.592
  C 21.816 29.088 22.104 28.512 22.176 27.792
  L 22.824 28.080
  C 22.680 28.800 22.392 29.376 21.888 29.880" stroke="none" fill="rgb(202,255,255)" />
<path d="
  M 22.176 24.480
  L 21.456 24.624
  C 21.816 25.272 21.816 25.848 21.672 26.568
  L 22.392 26.280
  C 22.536 25.632 22.536 24.984 22.176 24.480" stroke="none" fill="rgb(207,255,255)" />
<path d="
  M 21.672 22.896
  L 20.952 23.256
  C 20.808 22.608 20.448 22.104 19.944 21.744
  L 20.664 21.384
  C 21.168 21.816 21.456 22.320 21.672 22.896" stroke="none" fill="rgb(207,255,255)" />
<path d="
  M 19.368 20.376
  L 19.080 21.024
  C 18.576 20.520 17.928 20.160 17.208 20.088
  L 17.568 19.512
  C 18.216 19.584 18.864 19.872 19.368 20.376" stroke="none" fill="rgb(207,255,255)" />
<path d="
  M 16.056 19.152
  L 16.200 19.872
  C 15.624 19.800 14.904 19.800 14.184 20.088
  L 13.968 19.368
  C 14.616 19.080 15.336 19.080 16.056 19.152" stroke="none" fill="rgb(207,255,255)" />
<path d="
  M 12.600 19.800
  L 12.888 20.592
  C 12.168 20.808 11.592 21.240 11.160 21.816
  L 10.872 21.024
  C 11.376 20.520 11.952 20.088 12.600 19.800" stroke="none" fill="rgb(207,255,255)" />
<path d="
  M 9.936 22.248
  L 10.656 22.536
  C 10.152 23.040 9.864 23.616 9.864 24.336
  L 9.216 24.048
  C 9.288 23.328 9.576 22.752 9.936 22.248" stroke="none" fill="rgb(207,255,255)" />
<path d="
  M 8.784 25.776
  L 9.576 25.488
  C 9.504 26.064 9.504 26.856 9.720 27.504
  L 9.072 27.792
  C 8.928 27.072 8.784 26.352 8.784 25.776" stroke="none" fill="rgb(207,255,255)" />
<path d="
  M 9.576 29.016
  L 10.224 28.800
  C 10.440 29.376 10.872 29.880 11.376 30.384
  L 10.656 30.600
  C 10.152 30.240 9.720 29.736 9.576 29.016" stroke="none" fill="rgb(207,255,255)" />
<path d="
  M 11.952 31.608
  L 12.168 30.960
  C 12.816 31.464 13.392 31.752 14.184 31.824
  L 13.896 32.544
  C 13.104 32.472 12.456 32.112 11.952 31.608" stroke="none" fill="rgb(207,255,255)" />
<path d="
  M 15.336 32.760
  L 14.976 32.040
  C 15.696 32.112 16.344 32.112 17.064 31.824
  L 17.208 32.544
  C 16.632 32.832 16.056 32.832 15.336 32.760" stroke="none" fill="rgb(207,255,255)" />
<path d="
  M 18.648 32.040
  L 18.432 31.320
  C 19.080 31.104 19.656 30.744 20.088 30.096
  L 20.376 30.960
  C 19.872 31.464 19.368 31.824 18.648 32.040" stroke="none" fill="rgb(207,255,255)" />
<path d="
  M 21.312 29.592
  L 20.592 29.304
  C 21.096 28.800 21.384 28.224 21.456 27.504
  L 22.176 27.792
  C 22.104 28.512 21.816 29.088 21.312 29.592" stroke="none" fill="rgb(207,255,255)" />
<path d="
  M 21.456 24.624
  L 20.880 24.840
  C 21.096 25.488 21.096 26.136 20.880 26.784
  L 21.672 26.568
  C 21.816 25.848 21.816 25.272 21.456 24.624" stroke="none" fill="rgb(215,255,255)" />
<path d="
  M 20.952 23.256
  L 20.376 23.400
  C 20.160 22.824 19.800 22.320 19.296 21.888
  L 19.944 21.744
  C 20.448 22.104 20.808 22.608 20.952 23.256" stroke="none" fill="rgb(215,255,255)" />
<path d="
  M 19.080 21.024
  L 18.720 21.600
  C 18.216 21.096 17.640 20.808 16.920 20.664
  L 17.208 20.088
  C 17.928 20.160 18.576 20.520 19.080 21.024" stroke="none" fill="rgb(215,255,255)" />
<path d="
  M 16.200 19.872
  L 16.560 20.664
  C 15.840 20.520 15.120 20.520 14.472 20.664
  L 14.184 20.088
  C 14.904 19.800 15.624 19.800 16.200 19.872" stroke="none" fill="rgb(215,255,255)" />
<path d="
  M 12.888 20.592
  L 13.104 21.240
  C 12.456 21.384 11.880 21.888 11.448 22.536
  L 11.160 21.816
  C 11.592 21.240 12.168 20.808 12.888 20.592" stroke="none" fill="rgb(215,255,255)" />
<path d="
  M 10.656 22.536
  L 11.232 22.824
  C 10.728 23.328 10.440 23.904 10.440 24.624
  L 9.864 24.336
  C 9.864 23.616 10.152 23.040 10.656 22.536" stroke="none" fill="rgb(215,255,255)" />
<path d="
  M 9.576 25.488
  L 10.368 25.128
  C 10.152 25.848 10.152 26.568 10.368 27.288
  L 9.720 27.504
  C 9.504 26.856 9.504 26.064 9.576 25.488" stroke="none" fill="rgb(215,255,255)" />
<path d="
  M 10.224 28.800
  L 10.872 28.584
  C 11.160 29.232 11.592 29.736 12.168 30.096
  L 11.376 30.384
  C 10.872 29.880 10.440 29.376 10.224 28.800" stroke="none" fill="rgb(215,255,255)" />
<path d="
  M 12.168 30.960
  L 12.456 30.312
  C 13.104 30.816 13.680 31.104 14.400 31.248
  L 14.184 31.824
  C 13.392 31.752 12.816 31.464 12.168 30.960" stroke="none" fill="rgb(215,255,255)" />
<path d="
  M 14.976 32.040
  L 14.832 31.248
  C 15.408 31.464 16.128 31.464 16.704 31.248
  L 17.064 31.824
  C 16.344 32.112 15.696 32.112 14.976 32.040" stroke="none" fill="rgb(215,255,255)" />
<path d="
  M 18.432 31.320
  L 18.144 30.744
  C 18.864 30.384 19.440 29.880 19.800 29.304
  L 20.088 30.096
  C 19.656 30.744 19.080 31.104 18.432 31.320" stroke="none" fill="rgb(215,255,255)" />
<path d="
  M 20.592 29.304
  L 19.944 29.088
  C 20.448 28.512 20.808 27.864 20.880 27.144
  L 21.456 27.504
  C 21.384 28.224 21.096 28.800 20.592 29.304" stroke="none" fill="rgb(215,255,255)" />
<path d="
  M 20.880 24.840
  L 20.160 25.056
  C 20.664 27.072 19.800 29.088 17.928 30.024
  L 18.144 30.744
  C 18.864 30.384 19.440 29.880 19.800 29.304
  L 19.656 28.872
  L 19.944 29.088
  C 20.448 28.512 20.808 27.864 20.880 27.144
  L 20.448 27.000
  L 20.880 26.784
  C 21.096 26.136 21.096 25.488 20.880 24.840" stroke="none" fill="rgb(220,255,255)" />
<path d="
  M 20.376 23.400
  L 19.656 23.760
  C 18.720 21.816 16.704 20.880 14.688 21.384
  L 14.472 20.664
  C 15.120 20.520 15.840 20.520 16.560 20.664
  L 16.704 21.240
  L 16.920 20.664
  C 17.640 20.808 18.216 21.096 18.720 21.600
  L 18.576 22.248
  L 19.296 21.888
  C 19.800 22.320 20.160 22.824 20.376 23.400" stroke="none" fill="rgb(220,255,255)" />
<path d="
  M 13.104 21.240
  L 13.392 21.888
  C 11.448 22.824 10.584 24.984 11.088 27.000
  L 10.368 27.288
  C 10.152 26.568 10.152 25.848 10.368 25.128
  L 10.944 24.840
  L 10.440 24.624
  C 10.440 23.904 10.728 23.328 11.232 22.824
  L 11.664 23.040
  L 11.448 22.536
  C 11.880 21.888 12.456 21.384 13.104 21.240" stroke="none" fill="rgb(220,255,255)" />
<path d="
  M 10.872 28.584
  L 11.664 28.296
  C 12.600 30.096 14.472 31.032 16.416 30.528
  L 16.704 31.248
  C 16.128 31.464 15.408 31.464 14.832 31.248
  L 14.616 30.816
  L 14.400 31.248
  C 13.680 31.104 13.104 30.816 12.456 30.312
  L 12.672 29.880
  L 12.168 30.096
  C 11.592 29.736 11.160 29.232 10.872 28.584" stroke="none" fill="rgb(220,255,255)" />
<path d="
  M 20.160 25.056
  L 19.656 25.272
  C 19.944 27.000 19.296 28.584 17.712 29.520
  L 17.928 30.024
  C 19.800 29.088 20.664 27.072 20.160 25.056" stroke="none" fill="rgb(225,255,255)" />
<path d="
  M 19.656 23.760
  L 19.152 23.904
  C 18.360 22.392 16.632 21.600 14.904 21.888
  L 14.688 21.384
  C 16.704 20.880 18.720 21.816 19.656 23.760" stroke="none" fill="rgb(225,255,255)" />
<path d="
  M 13.392 21.888
  L 13.608 22.392
  C 11.952 23.256 11.160 25.056 11.664 26.784
  L 11.088 27.000
  C 10.584 24.984 11.448 22.824 13.392 21.888" stroke="none" fill="rgb(225,255,255)" />
<path d="
  M 11.664 28.296
  L 12.168 28.224
  C 12.960 29.592 14.616 30.312 16.200 30.024
  L 16.416 30.528
  C 14.472 31.032 12.600 30.096 11.664 28.296" stroke="none" fill="rgb(225,255,255)" />
<path d="
  M 19.656 25.272
  L 18.936 25.560
  C 19.152 26.784 18.648 28.080 17.568 28.728
  L 17.712 29.520
  C 19.296 28.584 19.944 27.000 19.656 25.272" stroke="none" fill="rgb(230,255,255)" />
<path d="
  M 19.152 23.904
  L 18.432 24.120
  C 17.856 23.040 16.560 22.392 15.192 22.608
  L 14.904 21.888
  C 16.632 21.600 18.360 22.392 19.152 23.904" stroke="none" fill="rgb(230,255,255)" />
<path d="
  M 13.608 22.392
  L 13.824 23.112
  C 12.600 23.832 11.952 25.128 12.240 26.568
  L 11.664 26.784
  C 11.160 25.056 11.952 23.256 13.608 22.392" stroke="none" fill="rgb(230,255,255)" />
<path d="
  M 12.168 28.224
  L 12.888 27.864
  C 13.464 29.016 14.688 29.520 16.056 29.304
  L 16.200 30.024
  C 14.616 30.312 12.960 29.592 12.168 28.224" stroke="none" fill="rgb(230,255,255)" />
<path d="
  M 18.360 25.992
  C 18.360 24.552 17.064 23.256 15.624 23.256
  C 14.184 23.256 12.888 24.552 12.888 25.992
  C 12.888 27.360 14.184 28.728 15.624 28.728
  C 17.064 28.728 18.360 27.360 18.360 25.992" stroke="none" fill="rgb(235,255,255)" />
<path d="
  M 18.936 25.560
  L 18.576 25.632
  L 18.216 24.264
  L 18.432 24.120
  C 17.856 23.040 16.560 22.392 15.192 22.608
  L 15.336 22.896
  L 13.896 23.328
  L 13.824 23.112
  C 12.600 23.832 11.952 25.128 12.240 26.568
  L 12.816 26.352
  L 13.176 27.792
  L 12.888 27.864
  C 13.464 29.016 14.688 29.520 16.056 29.304
  L 15.912 29.088
  L 17.424 28.584
  L 17.568 28.728
  C 18.648 28.080 19.152 26.784 18.936 25.560" stroke="none" fill="rgb(235,255,255)" />
<path d="
  M 18.360 25.992
  C 18.360 24.552 17.064 23.256 15.624 23.256
  C 14.184 23.256 12.888 24.552 12.888 25.992
  C 12.888 27.360 14.184 28.728 15.624 28.728
  C 17.064 28.728 18.360 27.360 18.360 25.992" stroke="none" fill="rgb(240,255,255)" />
<path d="
  M 17.640 25.992
  C 17.640 24.840 16.704 23.904 15.624 23.904
  C 14.472 23.904 13.608 24.840 13.608 25.992
  C 13.608 27.072 14.472 28.008 15.624 28.008
  C 16.704 28.008 17.640 27.072 17.640 25.992" stroke="none" fill="rgb(240,255,255)" />
<path d="
  M 17.640 25.992
  C 17.640 24.840 16.704 23.904 15.624 23.904
  C 14.472 23.904 13.608 24.840 13.608 25.992
  C 13.608 27.072 14.472 28.008 15.624 28.008
  C 16.704 28.008 17.640 27.072 17.640 25.992" stroke="none" fill="rgb(245,255,255)" />
<path d="
  M 16.920 25.992
  C 16.920 25.272 16.344 24.624 15.624 24.624
  C 14.904 24.624 14.328 25.272 14.328 25.992
  C 14.328 26.640 14.904 27.288 15.624 27.288
  C 16.344 27.288 16.920 26.640 16.920 25.992" stroke="none" fill="rgb(245,255,255)" />
<path d="
  M 16.920 25.992
  C 16.920 25.272 16.344 24.624 15.624 24.624
  C 14.904 24.624 14.328 25.272 14.328 25.992
  C 14.328 26.640 14.904 27.288 15.624 27.288
  C 16.344 27.288 16.920 26.640 16.920 25.992" stroke="none" fill="rgb(250,255,255)" />
<path d="
  M 16.200 25.992
  C 16.200 25.632 15.912 25.344 15.624 25.344
  C 15.336 25.344 14.976 25.632 14.976 25.992
  C 14.976 26.280 15.336 26.568 15.624 26.568
  C 15.912 26.568 16.200 26.280 16.200 25.992" stroke="none" fill="rgb(250,255,255)" />
<path d="
  M 16.200 25.992
  C 16.200 25.632 15.912 25.344 15.624 25.344
  C 15.336 25.344 14.976 25.632 14.976 25.992
  C 14.976 26.280 15.336 26.568 15.624 26.568
  C 15.912 26.568 16.200 26.280 16.200 25.992" stroke="none" fill="rgb(255,255,255)" />
</g>
<path d="
  M 18.576 22.248
  L 23.112 20.520
  L 24.192 21.096
  L 23.688 22.248
  L 18.216 24.264
  L 18.576 25.632
  L 24.120 23.760
  L 25.344 24.264
  L 24.912 25.344
  L 20.448 27.000
  L 24.336 28.800
  L 24.696 30.096
  L 23.328 30.600
  L 19.656 28.872
  L 21.168 33.480
  L 20.664 34.704
  L 19.368 34.056
  L 17.424 28.584
  L 15.912 29.088
  L 18.072 34.560
  L 17.568 35.784
  L 16.200 35.280
  L 14.616 30.816
  L 12.960 34.560
  L 11.448 34.992
  L 11.088 33.552
  L 12.672 29.880
  L 8.208 31.536
  L 6.984 30.960
  L 7.416 29.808
  L 13.176 27.792
  L 12.816 26.352
  L 7.416 28.368
  L 5.832 27.792
  L 6.480 26.640
  L 10.944 24.840
  L 7.200 23.112
  L 6.768 21.888
  L 8.064 21.312
  L 11.664 23.040
  L 9.864 18.576
  L 10.584 17.352
  L 11.952 18.072
  L 13.896 23.328
  L 15.336 22.896
  L 13.176 17.352
  L 13.824 16.272
  L 15.120 16.776
  L 16.704 21.240
  L 18.360 17.640
  L 19.656 17.280
  L 20.304 18.360
  L 18.576 22.248" stroke="rgb(0,0,0)" stroke-width="0.504" fill="none" />
<g>
<path d="
  M 9.000 -0.792
  L 9.288 -1.584
  L 8.784 -1.872
  C 9.072 -1.440 9.072 -1.152 9.000 -0.792" stroke="none" fill="rgb(182,255,255)" />
<path d="
  M 7.992 -4.176
  L 8.208 -4.752
  L 7.272 -5.184
  C 7.776 -4.824 7.992 -4.608 7.992 -4.176" stroke="none" fill="rgb(182,255,255)" />
<path d="
  M 3.816 -8.280
  L 3.672 -8.568
  L 3.456 -8.496
  C 3.528 -8.568 3.672 -8.496 3.816 -8.280" stroke="none" fill="rgb(182,255,255)" />
<path d="
  M -1.296 -9.216
  L -2.232 -9.576
  L -2.520 -8.928
  C -2.160 -9.216 -1.728 -9.288 -1.296 -9.216" stroke="none" fill="rgb(182,255,255)" />
<path d="
  M -4.752 -8.208
  L -5.472 -8.496
  L -6.048 -7.272
  C -5.760 -7.776 -5.256 -8.064 -4.752 -8.208" stroke="none" fill="rgb(182,255,255)" />
<path d="
  M -8.784 -4.176
  L -9.288 -4.032
  L -9.216 -3.600
  C -9.216 -3.816 -9.144 -4.032 -8.784 -4.176" stroke="none" fill="rgb(182,255,255)" />
<path d="
  M -9.864 1.152
  L -10.224 1.944
  L -9.648 2.160
  C -9.936 1.872 -9.936 1.440 -9.864 1.152" stroke="none" fill="rgb(182,255,255)" />
<path d="
  M -8.928 4.392
  L -9.144 5.112
  L -8.136 5.544
  C -8.640 5.184 -8.784 4.824 -8.928 4.392" stroke="none" fill="rgb(182,255,255)" />
<path d="
  M -4.680 8.568
  L -4.536 9.072
  L -4.176 8.928
  C -4.248 8.928 -4.536 8.856 -4.680 8.568" stroke="none" fill="rgb(182,255,255)" />
<path d="
  M 0.504 9.576
  L 1.512 9.936
  L 1.800 9.288
  C 1.296 9.576 0.936 9.648 0.504 9.576" stroke="none" fill="rgb(182,255,255)" />
<path d="
  M 4.032 8.568
  L 4.680 8.856
  L 5.040 7.704
  C 4.824 8.280 4.464 8.424 4.032 8.568" stroke="none" fill="rgb(182,255,255)" />
<path d="
  M 7.992 4.464
  L 8.712 4.320
  L 8.496 3.456
  C 8.496 3.816 8.280 4.176 7.992 4.464" stroke="none" fill="rgb(182,255,255)" />
<path d="
  M 9.000 -0.792
  L 8.928 -0.432
  L 8.496 -0.360
  C 8.568 -0.936 8.496 -1.584 8.064 -2.160
  L 8.784 -1.872
  C 9.072 -1.440 9.072 -1.152 9.000 -0.792" stroke="none" fill="rgb(187,255,255)" />
<path d="
  M 7.992 -4.176
  L 7.704 -3.672
  C 7.488 -4.176 7.200 -4.680 6.696 -5.184
  L 7.056 -5.256
  L 7.272 -5.184
  C 7.776 -4.824 7.992 -4.608 7.992 -4.176" stroke="none" fill="rgb(187,255,255)" />
<path d="
  M 3.816 -8.280
  L 4.248 -7.344
  L 4.248 -7.344
  C 3.744 -7.776 3.096 -8.064 2.592 -8.208
  L 3.456 -8.496
  C 3.528 -8.568 3.672 -8.496 3.816 -8.280" stroke="none" fill="rgb(187,255,255)" />
<path d="
  M -1.296 -9.216
  L -0.936 -9.000
  L -0.792 -8.712
  C -1.512 -8.784 -2.160 -8.712 -2.808 -8.280
  L -2.808 -8.424
  L -2.520 -8.928
  C -2.160 -9.216 -1.728 -9.288 -1.296 -9.216" stroke="none" fill="rgb(187,255,255)" />
<path d="
  M -4.752 -8.208
  L -4.248 -7.920
  C -4.896 -7.704 -5.472 -7.272 -5.976 -6.696
  L -6.192 -7.200
  L -6.048 -7.272
  C -5.760 -7.776 -5.256 -8.064 -4.752 -8.208" stroke="none" fill="rgb(187,255,255)" />
<path d="
  M -8.784 -4.176
  L -7.992 -4.536
  L -7.992 -4.536
  C -8.496 -3.888 -8.784 -3.312 -8.784 -2.664
  L -8.928 -2.664
  L -9.216 -3.600
  C -9.216 -3.816 -9.144 -4.032 -8.784 -4.176" stroke="none" fill="rgb(187,255,255)" />
<path d="
  M -9.864 1.152
  L -9.648 0.720
  L -9.288 0.648
  C -9.432 1.224 -9.288 1.800 -9.000 2.376
  L -9.648 2.160
  C -9.936 1.872 -9.936 1.440 -9.864 1.152" stroke="none" fill="rgb(187,255,255)" />
<path d="
  M -8.928 4.392
  L -8.712 3.960
  L -8.496 3.888
  C -8.280 4.464 -7.992 5.040 -7.488 5.544
  L -7.920 5.616
  L -8.136 5.544
  C -8.640 5.184 -8.784 4.824 -8.928 4.392" stroke="none" fill="rgb(187,255,255)" />
<path d="
  M -4.680 8.568
  L -4.968 7.704
  C -4.392 8.280 -3.672 8.568 -3.024 8.640
  L -3.024 8.640
  L -4.176 8.928
  C -4.248 8.928 -4.536 8.856 -4.680 8.568" stroke="none" fill="rgb(187,255,255)" />
<path d="
  M 0.504 9.576
  L 0.216 9.432
  L 0.072 9.072
  C 0.720 9.144 1.296 9.072 2.016 8.640
  L 1.800 9.288
  C 1.296 9.576 0.936 9.648 0.504 9.576" stroke="none" fill="rgb(187,255,255)" />
<path d="
  M 4.032 8.568
  L 3.456 8.280
  C 4.032 8.064 4.536 7.704 4.968 7.128
  L 5.184 7.632
  L 5.040 7.704
  C 4.824 8.280 4.464 8.424 4.032 8.568" stroke="none" fill="rgb(187,255,255)" />
<path d="
  M 7.992 4.464
  L 7.272 4.680
  L 7.200 4.680
  C 7.704 4.104 7.992 3.384 8.064 2.808
  L 8.280 2.880
  L 8.496 3.456
  C 8.496 3.816 8.280 4.176 7.992 4.464" stroke="none" fill="rgb(187,255,255)" />
<path d="
  M 8.496 -0.360
  L 7.920 -0.072
  C 7.920 -0.792 7.776 -1.368 7.488 -2.016
  L 8.064 -2.160
  L 8.064 -2.160
  C 8.496 -1.584 8.568 -0.936 8.496 -0.360" stroke="none" fill="rgb(192,255,255)" />
<path d="
  M 7.704 -3.672
  L 7.704 -3.600
  L 7.056 -3.384
  C 6.912 -3.888 6.480 -4.536 5.976 -4.824
  L 6.696 -5.184
  C 7.200 -4.680 7.488 -4.176 7.704 -3.672" stroke="none" fill="rgb(192,255,255)" />
<path d="
  M -0.792 -8.712
  L -0.648 -8.064
  C -1.224 -8.064 -1.944 -7.992 -2.520 -7.704
  L -2.808 -8.280
  C -2.160 -8.712 -1.512 -8.784 -0.792 -8.712" stroke="none" fill="rgb(192,255,255)" />
<path d="
  M -4.248 -7.920
  L -4.032 -7.776
  L -3.888 -7.272
  C -4.536 -6.984 -5.184 -6.552 -5.688 -6.048
  L -5.976 -6.696
  C -5.472 -7.272 -4.896 -7.704 -4.248 -7.920" stroke="none" fill="rgb(192,255,255)" />
<path d="
  M -7.992 -4.536
  L -7.272 -4.176
  C -7.776 -3.672 -8.136 -3.024 -8.208 -2.376
  L -8.784 -2.664
  C -8.784 -3.312 -8.496 -3.888 -7.992 -4.536" stroke="none" fill="rgb(192,255,255)" />
<path d="
  M -9.288 0.648
  L -8.712 0.360
  C -8.712 1.080 -8.640 1.656 -8.280 2.376
  L -8.712 2.448
  L -9.000 2.376
  C -9.288 1.800 -9.432 1.224 -9.288 0.648" stroke="none" fill="rgb(192,255,255)" />
<path d="
  M -8.496 3.888
  L -7.920 3.672
  C -7.632 4.320 -7.272 4.824 -6.768 5.184
  L -7.488 5.544
  C -7.992 5.040 -8.280 4.464 -8.496 3.888" stroke="none" fill="rgb(192,255,255)" />
<path d="
  M -4.968 7.704
  L -4.968 7.704
  L -4.680 7.128
  C -4.176 7.632 -3.456 7.920 -2.736 8.064
  L -3.024 8.640
  C -3.672 8.568 -4.392 8.280 -4.968 7.704" stroke="none" fill="rgb(192,255,255)" />
<path d="
  M 0.072 9.072
  L -0.216 8.424
  C 0.504 8.424 1.080 8.352 1.800 8.064
  L 2.016 8.640
  L 2.016 8.640
  C 1.296 9.072 0.720 9.144 0.072 9.072" stroke="none" fill="rgb(192,255,255)" />
<path d="
  M 3.456 8.280
  L 3.312 8.136
  L 3.096 7.632
  C 3.744 7.344 4.320 7.056 4.752 6.552
  L 4.968 7.128
  C 4.536 7.704 4.032 8.064 3.456 8.280" stroke="none" fill="rgb(192,255,255)" />
<path d="
  M 7.200 4.680
  L 6.552 4.392
  C 7.056 3.816 7.416 3.168 7.488 2.448
  L 8.064 2.808
  C 7.992 3.384 7.704 4.104 7.200 4.680" stroke="none" fill="rgb(192,255,255)" />
<path d="
  M 3.960 -6.696
  L 4.248 -7.344
  L 3.672 -8.568
  L 2.304 -8.064
  L 2.088 -7.560
  C 2.736 -7.488 3.456 -7.200 3.960 -6.696" stroke="none" fill="rgb(192,255,255)" />
<path d="
  M 7.920 -0.072
  L 7.200 0.144
  C 7.200 -0.432 7.056 -1.080 6.768 -1.800
  L 7.488 -2.016
  C 7.776 -1.368 7.920 -0.792 7.920 -0.072" stroke="none" fill="rgb(197,255,255)" />
<path d="
  M 7.056 -3.384
  L 6.336 -3.096
  C 6.192 -3.672 5.760 -4.176 5.256 -4.680
  L 5.976 -4.824
  C 6.480 -4.536 6.912 -3.888 7.056 -3.384" stroke="none" fill="rgb(197,255,255)" />
<path d="
  M 3.960 -6.696
  L 3.672 -6.048
  C 3.096 -6.552 2.448 -6.840 1.800 -6.984
  L 2.088 -7.560
  C 2.736 -7.488 3.456 -7.200 3.960 -6.696" stroke="none" fill="rgb(197,255,255)" />
<path d="
  M -0.648 -8.064
  L -0.288 -7.344
  C -1.008 -7.344 -1.656 -7.272 -2.304 -6.984
  L -2.520 -7.704
  C -1.944 -7.992 -1.224 -8.064 -0.648 -8.064" stroke="none" fill="rgb(197,255,255)" />
<path d="
  M -3.888 -7.272
  L -3.672 -6.552
  C -4.248 -6.336 -4.968 -5.976 -5.472 -5.328
  L -5.688 -6.048
  C -5.184 -6.552 -4.536 -6.984 -3.888 -7.272" stroke="none" fill="rgb(197,255,255)" />
<path d="
  M -7.272 -4.176
  L -6.696 -3.888
  C -7.200 -3.384 -7.488 -2.664 -7.488 -2.088
  L -8.208 -2.376
  C -8.136 -3.024 -7.776 -3.672 -7.272 -4.176" stroke="none" fill="rgb(197,255,255)" />
<path d="
  M -8.712 0.360
  L -7.992 0.144
  C -7.992 0.720 -7.920 1.440 -7.632 2.088
  L -8.280 2.376
  C -8.640 1.656 -8.712 1.080 -8.712 0.360" stroke="none" fill="rgb(197,255,255)" />
<path d="
  M -7.920 3.672
  L -7.200 3.456
  C -6.984 3.960 -6.624 4.608 -6.048 5.040
  L -6.768 5.184
  C -7.272 4.824 -7.632 4.320 -7.920 3.672" stroke="none" fill="rgb(197,255,255)" />
<path d="
  M -4.680 7.128
  L -4.392 6.408
  C -3.888 6.912 -3.168 7.200 -2.448 7.344
  L -2.736 8.064
  C -3.456 7.920 -4.176 7.632 -4.680 7.128" stroke="none" fill="rgb(197,255,255)" />
<path d="
  M -0.216 8.424
  L -0.432 7.704
  C 0.216 7.704 0.936 7.632 1.512 7.344
  L 1.800 8.064
  C 1.080 8.352 0.504 8.424 -0.216 8.424" stroke="none" fill="rgb(197,255,255)" />
<path d="
  M 3.096 7.632
  L 2.952 6.912
  C 3.528 6.696 4.032 6.336 4.536 5.832
  L 4.752 6.552
  C 4.320 7.056 3.744 7.344 3.096 7.632" stroke="none" fill="rgb(197,255,255)" />
<path d="
  M 6.552 4.392
  L 5.832 4.104
  C 6.336 3.600 6.696 2.880 6.768 2.160
  L 7.488 2.448
  C 7.416 3.168 7.056 3.816 6.552 4.392" stroke="none" fill="rgb(197,255,255)" />
<path d="
  M 6.768 -1.800
  L 6.192 -1.440
  C 6.480 -0.864 6.480 -0.288 6.336 0.432
  L 7.200 0.144
  C 7.200 -0.432 7.056 -1.080 6.768 -1.800" stroke="none" fill="rgb(202,255,255)" />
<path d="
  M 6.336 -3.096
  L 5.688 -2.880
  C 5.472 -3.528 5.184 -4.032 4.680 -4.392
  L 5.256 -4.680
  C 5.760 -4.176 6.192 -3.672 6.336 -3.096" stroke="none" fill="rgb(202,255,255)" />
<path d="
  M 3.672 -6.048
  L 3.312 -5.328
  C 2.808 -5.832 2.232 -6.192 1.512 -6.264
  L 1.800 -6.984
  C 2.448 -6.840 3.096 -6.552 3.672 -6.048" stroke="none" fill="rgb(202,255,255)" />
<path d="
  M -0.288 -7.344
  L 0.000 -6.552
  C -0.720 -6.696 -1.440 -6.696 -2.016 -6.336
  L -2.304 -6.984
  C -1.656 -7.272 -1.008 -7.344 -0.288 -7.344" stroke="none" fill="rgb(202,255,255)" />
<path d="
  M -3.672 -6.552
  L -3.384 -5.976
  C -4.032 -5.688 -4.680 -5.256 -5.184 -4.752
  L -5.472 -5.328
  C -4.968 -5.976 -4.248 -6.336 -3.672 -6.552" stroke="none" fill="rgb(202,255,255)" />
<path d="
  M -6.696 -3.888
  L -6.048 -3.600
  C -6.480 -3.096 -6.768 -2.520 -6.912 -1.800
  L -7.488 -2.088
  C -7.488 -2.664 -7.200 -3.384 -6.696 -3.888" stroke="none" fill="rgb(202,255,255)" />
<path d="
  M -7.992 0.144
  L -7.200 -0.144
  C -7.272 0.576 -7.272 1.224 -6.984 1.872
  L -7.632 2.088
  C -7.920 1.440 -7.992 0.720 -7.992 0.144" stroke="none" fill="rgb(202,255,255)" />
<path d="
  M -7.200 3.456
  L -6.480 3.168
  C -6.264 3.816 -5.904 4.392 -5.400 4.824
  L -6.048 5.040
  C -6.624 4.608 -6.984 3.960 -7.200 3.456" stroke="none" fill="rgb(202,255,255)" />
<path d="
  M -4.392 6.408
  L -4.032 5.832
  C -3.528 6.336 -2.952 6.624 -2.160 6.696
  L -2.448 7.344
  C -3.168 7.200 -3.888 6.912 -4.392 6.408" stroke="none" fill="rgb(202,255,255)" />
<path d="
  M -0.432 7.704
  L -0.720 6.912
  C 0.000 7.056 0.576 7.056 1.296 6.696
  L 1.512 7.344
  C 0.936 7.632 0.216 7.704 -0.432 7.704" stroke="none" fill="rgb(202,255,255)" />
<path d="
  M 2.952 6.912
  L 2.592 6.192
  C 3.312 6.048 3.816 5.616 4.320 5.112
  L 4.536 5.832
  C 4.032 6.336 3.528 6.696 2.952 6.912" stroke="none" fill="rgb(202,255,255)" />
<path d="
  M 5.832 4.104
  L 5.256 3.816
  C 5.760 3.312 6.048 2.664 6.192 1.872
  L 6.768 2.160
  C 6.696 2.880 6.336 3.600 5.832 4.104" stroke="none" fill="rgb(202,255,255)" />
<path d="
  M 6.192 -1.440
  L 5.472 -1.296
  C 5.760 -0.648 5.760 0.072 5.688 0.720
  L 6.336 0.432
  C 6.480 -0.288 6.480 -0.864 6.192 -1.440" stroke="none" fill="rgb(207,255,255)" />
<path d="
  M 5.688 -2.880
  L 4.968 -2.592
  C 4.752 -3.168 4.464 -3.816 3.960 -4.176
  L 4.680 -4.392
  C 5.184 -4.032 5.472 -3.528 5.688 -2.880" stroke="none" fill="rgb(207,255,255)" />
<path d="
  M 3.312 -5.328
  L 3.024 -4.752
  C 2.520 -5.256 1.944 -5.544 1.224 -5.688
  L 1.512 -6.264
  C 2.232 -6.192 2.808 -5.832 3.312 -5.328" stroke="none" fill="rgb(207,255,255)" />
<path d="
  M 0.000 -6.552
  L 0.288 -5.832
  C -0.432 -5.976 -1.152 -5.976 -1.800 -5.688
  L -2.016 -6.336
  C -1.440 -6.696 -0.720 -6.696 0.000 -6.552" stroke="none" fill="rgb(207,255,255)" />
<path d="
  M -3.384 -5.976
  L -3.168 -5.184
  C -3.888 -4.968 -4.464 -4.608 -4.896 -4.032
  L -5.184 -4.752
  C -4.680 -5.256 -4.032 -5.688 -3.384 -5.976" stroke="none" fill="rgb(207,255,255)" />
<path d="
  M -6.048 -3.600
  L -5.400 -3.312
  C -5.904 -2.808 -6.192 -2.160 -6.192 -1.440
  L -6.912 -1.800
  C -6.768 -2.520 -6.480 -3.096 -6.048 -3.600" stroke="none" fill="rgb(207,255,255)" />
<path d="
  M -7.200 -0.144
  L -6.480 -0.432
  C -6.624 0.216 -6.624 0.936 -6.264 1.656
  L -6.984 1.872
  C -7.272 1.224 -7.272 0.576 -7.200 -0.144" stroke="none" fill="rgb(207,255,255)" />
<path d="
  M -6.480 3.168
  L -5.760 2.952
  C -5.544 3.600 -5.184 4.104 -4.680 4.464
  L -5.400 4.824
  C -5.904 4.392 -6.264 3.816 -6.480 3.168" stroke="none" fill="rgb(207,255,255)" />
<path d="
  M -4.032 5.832
  L -3.888 5.112
  C -3.240 5.616 -2.664 5.904 -1.800 6.048
  L -2.160 6.696
  C -2.952 6.624 -3.528 6.336 -4.032 5.832" stroke="none" fill="rgb(207,255,255)" />
<path d="
  M -0.720 6.912
  L -1.008 6.192
  C -0.288 6.336 0.432 6.336 1.008 6.048
  L 1.296 6.696
  C 0.576 7.056 0.000 7.056 -0.720 6.912" stroke="none" fill="rgb(207,255,255)" />
<path d="
  M 2.592 6.192
  L 2.448 5.544
  C 3.096 5.328 3.672 4.896 4.032 4.320
  L 4.320 5.112
  C 3.816 5.616 3.312 6.048 2.592 6.192" stroke="none" fill="rgb(207,255,255)" />
<path d="
  M 5.256 3.816
  L 4.536 3.456
  C 5.184 2.952 5.328 2.376 5.472 1.584
  L 6.192 1.872
  C 6.048 2.664 5.760 3.312 5.256 3.816" stroke="none" fill="rgb(207,255,255)" />
<path d="
  M 5.472 -1.296
  L 4.824 -1.080
  C 5.040 -0.360 5.040 0.360 4.824 0.936
  L 5.688 0.720
  C 5.760 0.072 5.760 -0.648 5.472 -1.296" stroke="none" fill="rgb(215,255,255)" />
<path d="
  M 4.968 -2.592
  L 4.320 -2.376
  C 4.176 -3.024 3.744 -3.528 3.096 -3.888
  L 3.960 -4.176
  C 4.464 -3.816 4.752 -3.168 4.968 -2.592" stroke="none" fill="rgb(215,255,255)" />
<path d="
  M 3.024 -4.752
  L 2.736 -4.176
  C 2.232 -4.680 1.584 -4.968 0.936 -5.040
  L 1.224 -5.688
  C 1.944 -5.544 2.520 -5.256 3.024 -4.752" stroke="none" fill="rgb(215,255,255)" />
<path d="
  M 0.288 -5.832
  L 0.504 -5.040
  C -0.144 -5.256 -0.936 -5.256 -1.512 -5.040
  L -1.800 -5.688
  C -1.152 -5.976 -0.432 -5.976 0.288 -5.832" stroke="none" fill="rgb(215,255,255)" />
<path d="
  M -3.168 -5.184
  L -2.952 -4.608
  C -3.528 -4.392 -4.176 -3.888 -4.536 -3.312
  L -4.896 -4.032
  C -4.464 -4.608 -3.888 -4.968 -3.168 -5.184" stroke="none" fill="rgb(215,255,255)" />
<path d="
  M -5.400 -3.312
  L -4.752 -3.024
  C -5.256 -2.520 -5.544 -1.872 -5.544 -1.152
  L -6.192 -1.440
  C -6.192 -2.160 -5.904 -2.808 -5.400 -3.312" stroke="none" fill="rgb(215,255,255)" />
<path d="
  M -6.480 -0.432
  L -5.688 -0.792
  C -5.904 -0.072 -5.904 0.648 -5.688 1.368
  L -6.264 1.656
  C -6.624 0.936 -6.624 0.216 -6.480 -0.432" stroke="none" fill="rgb(215,255,255)" />
<path d="
  M -5.760 2.952
  L -5.184 2.808
  C -4.896 3.384 -4.464 3.888 -3.888 4.320
  L -4.680 4.464
  C -5.184 4.104 -5.544 3.600 -5.760 2.952" stroke="none" fill="rgb(215,255,255)" />
<path d="
  M -3.888 5.112
  L -3.528 4.464
  C -2.952 5.040 -2.304 5.328 -1.656 5.400
  L -1.800 6.048
  C -2.664 5.904 -3.240 5.616 -3.888 5.112" stroke="none" fill="rgb(215,255,255)" />
<path d="
  M -1.008 6.192
  L -1.224 5.400
  C -0.648 5.616 0.072 5.616 0.720 5.400
  L 1.008 6.048
  C 0.432 6.336 -0.288 6.336 -1.008 6.192" stroke="none" fill="rgb(215,255,255)" />
<path d="
  M 2.448 5.544
  L 2.232 4.896
  C 2.808 4.608 3.456 4.104 3.744 3.456
  L 4.032 4.320
  C 3.672 4.896 3.096 5.328 2.448 5.544" stroke="none" fill="rgb(215,255,255)" />
<path d="
  M 4.536 3.456
  L 3.960 3.168
  C 4.464 2.664 4.752 2.088 4.824 1.368
  L 5.472 1.584
  C 5.328 2.376 5.184 2.952 4.536 3.456" stroke="none" fill="rgb(215,255,255)" />
<path d="
  M 4.824 -1.080
  L 4.176 -0.792
  C 4.680 1.152 3.744 3.168 1.944 4.176
  L 2.232 4.896
  C 2.808 4.608 3.456 4.104 3.744 3.456
  L 3.672 3.096
  L 3.960 3.168
  C 4.464 2.664 4.752 2.088 4.824 1.368
  L 4.464 1.152
  L 4.824 0.936
  C 5.040 0.360 5.040 -0.360 4.824 -1.080" stroke="none" fill="rgb(220,255,255)" />
<path d="
  M 4.320 -2.376
  L 3.672 -2.088
  C 2.736 -4.032 0.720 -4.824 -1.296 -4.392
  L -1.512 -5.040
  C -0.936 -5.256 -0.144 -5.256 0.504 -5.040
  L 0.720 -4.680
  L 0.936 -5.040
  C 1.584 -4.968 2.232 -4.680 2.736 -4.176
  L 2.520 -3.672
  L 3.096 -3.888
  C 3.744 -3.528 4.176 -3.024 4.320 -2.376" stroke="none" fill="rgb(220,255,255)" />
<path d="
  M -2.952 -4.608
  L -2.664 -3.888
  C -4.536 -3.024 -5.472 -0.864 -4.968 1.152
  L -5.688 1.368
  C -5.904 0.648 -5.904 -0.072 -5.688 -0.792
  L -5.040 -0.936
  L -5.544 -1.152
  C -5.544 -1.872 -5.256 -2.520 -4.752 -3.024
  L -4.392 -2.808
  L -4.536 -3.312
  C -4.176 -3.888 -3.528 -4.392 -2.952 -4.608" stroke="none" fill="rgb(220,255,255)" />
<path d="
  M -5.184 2.808
  L -4.392 2.448
  C -3.456 4.320 -1.512 5.184 0.504 4.680
  L 0.720 5.400
  C 0.072 5.616 -0.648 5.616 -1.224 5.400
  L -1.440 5.040
  L -1.656 5.400
  C -2.304 5.328 -2.952 5.040 -3.528 4.464
  L -3.384 4.104
  L -3.888 4.320
  C -4.464 3.888 -4.896 3.384 -5.184 2.808" stroke="none" fill="rgb(220,255,255)" />
<path d="
  M 4.176 -0.792
  L 3.672 -0.648
  C 3.960 1.080 3.240 2.808 1.728 3.600
  L 1.944 4.176
  C 3.744 3.168 4.680 1.152 4.176 -0.792" stroke="none" fill="rgb(225,255,255)" />
<path d="
  M 3.672 -2.088
  L 3.096 -1.872
  C 2.304 -3.384 0.576 -4.176 -1.152 -3.888
  L -1.296 -4.392
  C 0.720 -4.824 2.736 -4.032 3.672 -2.088" stroke="none" fill="rgb(225,255,255)" />
<path d="
  M -2.664 -3.888
  L -2.448 -3.384
  C -4.032 -2.592 -4.896 -0.792 -4.392 0.936
  L -4.968 1.152
  C -5.472 -0.864 -4.536 -3.024 -2.664 -3.888" stroke="none" fill="rgb(225,255,255)" />
<path d="
  M -4.392 2.448
  L -3.888 2.376
  C -3.024 3.816 -1.440 4.464 0.288 4.176
  L 0.504 4.680
  C -1.512 5.184 -3.456 4.320 -4.392 2.448" stroke="none" fill="rgb(225,255,255)" />
<path d="
  M 3.672 -0.648
  L 2.952 -0.360
  C 3.240 0.936 2.592 2.304 1.512 2.880
  L 1.728 3.600
  C 3.240 2.808 3.960 1.080 3.672 -0.648" stroke="none" fill="rgb(230,255,255)" />
<path d="
  M 3.096 -1.872
  L 2.448 -1.656
  C 1.800 -2.808 0.504 -3.384 -0.792 -3.168
  L -1.152 -3.888
  C 0.576 -4.176 2.304 -3.384 3.096 -1.872" stroke="none" fill="rgb(230,255,255)" />
<path d="
  M -2.448 -3.384
  L -2.232 -2.664
  C -3.456 -2.016 -4.032 -0.648 -3.744 0.720
  L -4.392 0.936
  C -4.896 -0.792 -4.032 -2.592 -2.448 -3.384" stroke="none" fill="rgb(230,255,255)" />
<path d="
  M -3.888 2.376
  L -3.168 2.088
  C -2.520 3.168 -1.224 3.672 0.000 3.456
  L 0.288 4.176
  C -1.440 4.464 -3.024 3.816 -3.888 2.376" stroke="none" fill="rgb(230,255,255)" />
<path d="
  M 2.304 0.144
  C 2.304 -1.296 1.008 -2.592 -0.432 -2.592
  C -1.800 -2.592 -3.168 -1.296 -3.168 0.144
  C -3.168 1.584 -1.800 2.880 -0.432 2.880
  C 1.008 2.880 2.304 1.584 2.304 0.144" stroke="none" fill="rgb(235,255,255)" />
<path d="
  M 2.952 -0.360
  L 2.520 -0.288
  L 2.232 -1.584
  L 2.448 -1.656
  C 1.800 -2.808 0.504 -3.384 -0.792 -3.168
  L -0.720 -2.880
  L -2.160 -2.520
  L -2.232 -2.664
  C -3.456 -2.016 -4.032 -0.648 -3.744 0.720
  L -3.240 0.576
  L -2.808 1.944
  L -3.168 2.088
  C -2.520 3.168 -1.224 3.672 0.000 3.456
  L -0.144 3.168
  L 1.440 2.664
  L 1.512 2.880
  C 2.592 2.304 3.240 0.936 2.952 -0.360" stroke="none" fill="rgb(235,255,255)" />
<path d="
  M 2.304 0.144
  C 2.304 -1.296 1.008 -2.592 -0.432 -2.592
  C -1.800 -2.592 -3.168 -1.296 -3.168 0.144
  C -3.168 1.584 -1.800 2.880 -0.432 2.880
  C 1.008 2.880 2.304 1.584 2.304 0.144" stroke="none" fill="rgb(240,255,255)" />
<path d="
  M 1.584 0.144
  C 1.584 -0.936 0.720 -1.872 -0.432 -1.872
  C -1.512 -1.872 -2.448 -0.936 -2.448 0.144
  C -2.448 1.224 -1.512 2.160 -0.432 2.160
  C 0.720 2.160 1.584 1.224 1.584 0.144" stroke="none" fill="rgb(240,255,255)" />
<path d="
  M 1.584 0.144
  C 1.584 -0.936 0.720 -1.872 -0.432 -1.872
  C -1.512 -1.872 -2.448 -0.936 -2.448 0.144
  C -2.448 1.224 -1.512 2.160 -0.432 2.160
  C 0.720 2.160 1.584 1.224 1.584 0.144" stroke="none" fill="rgb(245,255,255)" />
<path d="
  M 0.936 0.144
  C 0.936 -0.576 0.288 -1.152 -0.432 -1.152
  C -1.152 -1.152 -1.728 -0.576 -1.728 0.144
  C -1.728 0.864 -1.152 1.440 -0.432 1.440
  C 0.288 1.440 0.936 0.864 0.936 0.144" stroke="none" fill="rgb(245,255,255)" />
<path d="
  M 0.936 0.144
  C 0.936 -0.576 0.288 -1.152 -0.432 -1.152
  C -1.152 -1.152 -1.728 -0.576 -1.728 0.144
  C -1.728 0.864 -1.152 1.440 -0.432 1.440
  C 0.288 1.440 0.936 0.864 0.936 0.144" stroke="none" fill="rgb(250,255,255)" />
<path d="
  M 0.216 0.144
  C 0.216 -0.144 -0.144 -0.432 -0.432 -0.432
  C -0.720 -0.432 -1.008 -0.144 -1.008 0.144
  C -1.008 0.432 -0.720 0.720 -0.432 0.720
  C -0.144 0.720 0.216 0.432 0.216 0.144" stroke="none" fill="rgb(250,255,255)" />
<path d="
  M 0.216 0.144
  C 0.216 -0.144 -0.144 -0.432 -0.432 -0.432
  C -0.720 -0.432 -1.008 -0.144 -1.008 0.144
  C -1.008 0.432 -0.720 0.720 -0.432 0.720
  C -0.144 0.720 0.216 0.432 0.216 0.144" stroke="none" fill="rgb(255,255,255)" />
</g>
<path d="
  M 2.520 -3.672
  L 7.056 -5.256
  L 8.208 -4.752
  L 7.704 -3.600
  L 2.232 -1.584
  L 2.520 -0.288
  L 8.064 -2.160
  L 9.288 -1.584
  L 8.928 -0.432
  L 4.464 1.152
  L 8.280 2.880
  L 8.712 4.320
  L 7.272 4.680
  L 3.672 3.096
  L 5.184 7.632
  L 4.680 8.856
  L 3.312 8.136
  L 1.440 2.664
  L -0.144 3.168
  L 2.016 8.640
  L 1.512 9.936
  L 0.216 9.432
  L -1.440 5.040
  L -3.024 8.640
  L -4.536 9.072
  L -4.968 7.704
  L -3.384 4.104
  L -7.920 5.616
  L -9.144 5.112
  L -8.712 3.960
  L -2.808 1.944
  L -3.240 0.576
  L -8.712 2.448
  L -10.224 1.944
  L -9.648 0.720
  L -5.040 -0.936
  L -8.928 -2.664
  L -9.288 -4.032
  L -7.992 -4.536
  L -4.392 -2.808
  L -6.192 -7.200
  L -5.472 -8.496
  L -4.032 -7.776
  L -2.160 -2.520
  L -0.720 -2.880
  L -2.808 -8.424
  L -2.232 -9.576
  L -0.936 -9.000
  L 0.720 -4.680
  L 2.304 -8.064
  L 3.672 -8.568
  L 4.248 -7.344
  L 2.520 -3.672" stroke="rgb(0,0,0)" stroke-width="0.504" fill="none" />
<g>
<path d="
  M -6.192 18.072
  L -5.904 17.280
  L -6.408 17.064
  C -6.048 17.352 -6.048 17.784 -6.192 18.072" stroke="none" fill="rgb(182,255,255)" />
<path d="
  M -7.200 14.616
  L -6.984 14.112
  L -7.776 13.608
  C -7.416 13.896 -7.200 14.184 -7.200 14.616" stroke="none" fill="rgb(182,255,255)" />
<path d="
  M -16.632 9.576
  L -17.424 9.288
  L -17.712 9.864
  C -17.352 9.576 -16.992 9.432 -16.632 9.576" stroke="none" fill="rgb(182,255,255)" />
<path d="
  M -20.088 10.656
  L -20.664 10.368
  L -21.240 11.520
  C -20.952 10.944 -20.592 10.656 -20.088 10.656" stroke="none" fill="rgb(182,255,255)" />
<path d="
  M -24.120 14.760
  L -24.480 14.904
  L -24.408 15.264
  C -24.408 15.120 -24.336 14.904 -24.120 14.760" stroke="none" fill="rgb(182,255,255)" />
<path d="
  M -24.984 20.016
  L -25.416 20.808
  L -24.840 21.096
  C -24.984 20.664 -25.128 20.376 -24.984 20.016" stroke="none" fill="rgb(182,255,255)" />
<path d="
  M -24.120 23.256
  L -24.336 23.904
  L -23.328 24.480
  C -23.688 24.120 -23.976 23.760 -24.120 23.256" stroke="none" fill="rgb(182,255,255)" />
<path d="
  M -19.944 27.360
  L -19.728 28.008
  L -19.152 27.792
  C -19.368 27.792 -19.656 27.720 -19.944 27.360" stroke="none" fill="rgb(182,255,255)" />
<path d="
  M -14.688 28.368
  L -13.680 28.800
  L -13.392 28.080
  C -13.752 28.368 -14.256 28.512 -14.688 28.368" stroke="none" fill="rgb(182,255,255)" />
<path d="
  M -11.232 27.360
  L -10.512 27.720
  L -10.152 26.568
  C -10.440 27.072 -10.872 27.288 -11.232 27.360" stroke="none" fill="rgb(182,255,255)" />
<path d="
  M -7.200 23.400
  L -6.480 23.112
  L -6.696 22.392
  C -6.696 22.752 -6.912 23.040 -7.200 23.400" stroke="none" fill="rgb(182,255,255)" />
<path d="
  M -6.192 18.072
  L -6.264 18.360
  L -6.696 18.504
  C -6.624 18.000 -6.696 17.352 -6.984 16.776
  L -6.408 17.064
  C -6.048 17.352 -6.048 17.784 -6.192 18.072" stroke="none" fill="rgb(187,255,255)" />
<path d="
  M -7.200 14.616
  L -7.488 15.120
  C -7.704 14.616 -7.992 14.112 -8.496 13.608
  L -8.136 13.536
  L -7.776 13.608
  C -7.416 13.896 -7.200 14.184 -7.200 14.616" stroke="none" fill="rgb(187,255,255)" />
<path d="
  M -16.632 9.576
  L -16.128 9.792
  L -15.984 10.080
  C -16.704 9.936 -17.352 10.080 -18.000 10.440
  L -18.000 10.368
  L -17.712 9.864
  C -17.352 9.576 -16.992 9.432 -16.632 9.576" stroke="none" fill="rgb(187,255,255)" />
<path d="
  M -20.088 10.656
  L -19.584 10.944
  C -20.160 11.160 -20.664 11.520 -21.168 12.096
  L -21.384 11.592
  L -21.240 11.520
  C -20.952 10.944 -20.592 10.656 -20.088 10.656" stroke="none" fill="rgb(187,255,255)" />
<path d="
  M -24.120 14.760
  L -23.184 14.328
  L -23.184 14.328
  C -23.688 14.904 -23.976 15.552 -23.976 16.128
  L -24.120 16.128
  L -24.408 15.264
  C -24.408 15.120 -24.336 14.904 -24.120 14.760" stroke="none" fill="rgb(187,255,255)" />
<path d="
  M -24.984 20.016
  L -24.840 19.656
  L -24.480 19.584
  C -24.480 20.088 -24.480 20.664 -24.120 21.312
  L -24.840 21.096
  C -24.984 20.664 -25.128 20.376 -24.984 20.016" stroke="none" fill="rgb(187,255,255)" />
<path d="
  M -24.120 23.256
  L -23.904 22.824
  L -23.688 22.752
  C -23.472 23.328 -23.184 23.904 -22.680 24.336
  L -23.112 24.552
  L -23.328 24.480
  C -23.688 24.120 -23.976 23.760 -24.120 23.256" stroke="none" fill="rgb(187,255,255)" />
<path d="
  M -19.944 27.360
  L -20.160 26.568
  C -19.584 27.072 -18.864 27.360 -18.216 27.504
  L -18.216 27.576
  L -19.152 27.792
  C -19.368 27.792 -19.656 27.720 -19.944 27.360" stroke="none" fill="rgb(187,255,255)" />
<path d="
  M -14.688 28.368
  L -14.976 28.296
  L -15.120 27.864
  C -14.472 28.008 -13.896 27.864 -13.176 27.504
  L -13.176 27.576
  L -13.392 28.080
  C -13.752 28.368 -14.256 28.512 -14.688 28.368" stroke="none" fill="rgb(187,255,255)" />
<path d="
  M -11.232 27.360
  L -11.736 27.072
  C -11.232 26.856 -10.656 26.568 -10.224 25.992
  L -10.008 26.496
  L -10.152 26.568
  C -10.440 27.072 -10.872 27.288 -11.232 27.360" stroke="none" fill="rgb(187,255,255)" />
<path d="
  M -7.200 23.400
  L -7.920 23.616
  L -7.992 23.544
  C -7.488 23.040 -7.200 22.320 -7.128 21.744
  L -6.912 21.816
  L -6.696 22.392
  C -6.696 22.752 -6.912 23.040 -7.200 23.400" stroke="none" fill="rgb(187,255,255)" />
<path d="
  M -10.944 11.376
  L -10.944 11.376
  L -11.520 10.296
  L -12.528 10.584
  C -12.024 10.656 -11.448 10.944 -10.944 11.376" stroke="none" fill="rgb(187,255,255)" />
<path d="
  M -6.696 18.504
  L -7.272 18.792
  C -7.272 18.144 -7.416 17.568 -7.704 16.920
  L -7.128 16.776
  L -6.984 16.776
  C -6.696 17.352 -6.624 18.000 -6.696 18.504" stroke="none" fill="rgb(192,255,255)" />
<path d="
  M -7.488 15.120
  L -7.488 15.264
  L -8.136 15.408
  C -8.280 14.904 -8.712 14.328 -9.144 13.896
  L -8.496 13.608
  C -7.992 14.112 -7.704 14.616 -7.488 15.120" stroke="none" fill="rgb(192,255,255)" />
<path d="
  M -15.984 10.080
  L -15.768 10.656
  C -16.416 10.656 -17.136 10.800 -17.712 11.088
  L -18.000 10.440
  C -17.352 10.080 -16.704 9.936 -15.984 10.080" stroke="none" fill="rgb(192,255,255)" />
<path d="
  M -19.584 10.944
  L -19.224 11.088
  L -19.152 11.520
  C -19.728 11.808 -20.376 12.168 -20.880 12.672
  L -21.168 12.096
  C -20.664 11.520 -20.160 11.160 -19.584 10.944" stroke="none" fill="rgb(192,255,255)" />
<path d="
  M -23.184 14.328
  L -22.464 14.616
  C -22.968 15.120 -23.328 15.840 -23.400 16.416
  L -23.976 16.128
  C -23.976 15.552 -23.688 14.904 -23.184 14.328" stroke="none" fill="rgb(192,255,255)" />
<path d="
  M -24.480 19.584
  L -23.832 19.296
  C -23.904 20.016 -23.832 20.592 -23.472 21.240
  L -23.904 21.384
  L -24.120 21.312
  C -24.480 20.664 -24.480 20.088 -24.480 19.584" stroke="none" fill="rgb(192,255,255)" />
<path d="
  M -23.688 22.752
  L -23.112 22.536
  C -22.824 23.112 -22.464 23.616 -21.960 24.120
  L -22.680 24.336
  C -23.184 23.904 -23.472 23.328 -23.688 22.752" stroke="none" fill="rgb(192,255,255)" />
<path d="
  M -20.160 26.568
  L -20.160 26.568
  L -19.872 25.992
  C -19.224 26.496 -18.648 26.784 -17.928 26.856
  L -18.216 27.504
  C -18.864 27.360 -19.584 27.072 -20.160 26.568" stroke="none" fill="rgb(192,255,255)" />
<path d="
  M -15.120 27.864
  L -15.408 27.288
  C -14.688 27.288 -14.112 27.144 -13.464 26.856
  L -13.176 27.504
  C -13.896 27.864 -14.472 28.008 -15.120 27.864" stroke="none" fill="rgb(192,255,255)" />
<path d="
  M -11.736 27.072
  L -11.880 27.072
  L -12.024 26.496
  C -11.448 26.136 -10.872 25.848 -10.440 25.344
  L -10.224 25.992
  C -10.656 26.568 -11.232 26.856 -11.736 27.072" stroke="none" fill="rgb(192,255,255)" />
<path d="
  M -7.992 23.544
  L -8.640 23.328
  C -8.136 22.752 -7.920 22.104 -7.704 21.384
  L -7.128 21.744
  C -7.200 22.320 -7.488 23.040 -7.992 23.544" stroke="none" fill="rgb(192,255,255)" />
<path d="
  M -11.232 12.096
  L -10.944 11.376
  L -11.520 10.296
  L -12.888 10.656
  L -13.104 11.160
  C -12.456 11.304 -11.736 11.592 -11.232 12.096" stroke="none" fill="rgb(192,255,255)" />
<path d="
  M -7.272 18.792
  L -7.992 19.008
  C -7.992 18.360 -8.136 17.784 -8.424 17.136
  L -7.704 16.920
  C -7.416 17.568 -7.272 18.144 -7.272 18.792" stroke="none" fill="rgb(197,255,255)" />
<path d="
  M -8.136 15.408
  L -8.784 15.768
  C -9.000 15.120 -9.288 14.616 -9.864 14.184
  L -9.144 13.896
  C -8.712 14.328 -8.280 14.904 -8.136 15.408" stroke="none" fill="rgb(197,255,255)" />
<path d="
  M -11.232 12.096
  L -11.520 12.672
  C -12.024 12.168 -12.744 11.880 -13.392 11.808
  L -13.104 11.160
  C -12.456 11.304 -11.736 11.592 -11.232 12.096" stroke="none" fill="rgb(197,255,255)" />
<path d="
  M -15.768 10.656
  L -15.480 11.376
  C -16.200 11.376 -16.848 11.520 -17.496 11.808
  L -17.712 11.088
  C -17.136 10.800 -16.416 10.656 -15.768 10.656" stroke="none" fill="rgb(197,255,255)" />
<path d="
  M -19.152 11.520
  L -18.864 12.168
  C -19.584 12.384 -20.160 12.816 -20.664 13.392
  L -20.880 12.672
  C -20.376 12.168 -19.728 11.808 -19.152 11.520" stroke="none" fill="rgb(197,255,255)" />
<path d="
  M -22.464 14.616
  L -21.888 14.904
  C -22.392 15.408 -22.680 16.128 -22.680 16.776
  L -23.400 16.416
  C -23.328 15.840 -22.968 15.120 -22.464 14.616" stroke="none" fill="rgb(197,255,255)" />
<path d="
  M -23.832 19.296
  L -23.184 19.080
  C -23.184 19.656 -23.112 20.376 -22.824 21.024
  L -23.472 21.240
  C -23.832 20.592 -23.904 20.016 -23.832 19.296" stroke="none" fill="rgb(197,255,255)" />
<path d="
  M -23.112 22.536
  L -22.392 22.320
  C -22.176 22.896 -21.744 23.400 -21.240 23.904
  L -21.960 24.120
  C -22.464 23.616 -22.824 23.112 -23.112 22.536" stroke="none" fill="rgb(197,255,255)" />
<path d="
  M -19.872 25.992
  L -19.584 25.272
  C -19.008 25.776 -18.360 26.064 -17.640 26.136
  L -17.928 26.856
  C -18.648 26.784 -19.224 26.496 -19.872 25.992" stroke="none" fill="rgb(197,255,255)" />
<path d="
  M -15.408 27.288
  L -15.624 26.568
  C -14.976 26.568 -14.256 26.496 -13.680 26.136
  L -13.464 26.856
  C -14.112 27.144 -14.688 27.288 -15.408 27.288" stroke="none" fill="rgb(197,255,255)" />
<path d="
  M -12.024 26.496
  L -12.384 25.776
  C -11.664 25.560 -11.160 25.128 -10.656 24.624
  L -10.440 25.344
  C -10.872 25.848 -11.448 26.136 -12.024 26.496" stroke="none" fill="rgb(197,255,255)" />
<path d="
  M -8.640 23.328
  L -9.288 22.896
  C -8.784 22.392 -8.496 21.816 -8.424 21.096
  L -7.704 21.384
  C -7.920 22.104 -8.136 22.752 -8.640 23.328" stroke="none" fill="rgb(197,255,255)" />
<path d="
  M -8.424 17.136
  L -9.000 17.424
  C -8.712 18.000 -8.712 18.648 -8.784 19.296
  L -7.992 19.008
  C -7.992 18.360 -8.136 17.784 -8.424 17.136" stroke="none" fill="rgb(202,255,255)" />
<path d="
  M -8.784 15.768
  L -9.504 15.912
  C -9.720 15.336 -10.008 14.832 -10.512 14.400
  L -9.864 14.184
  C -9.288 14.616 -9.000 15.120 -8.784 15.768" stroke="none" fill="rgb(202,255,255)" />
<path d="
  M -11.520 12.672
  L -11.880 13.392
  C -12.384 12.888 -12.960 12.600 -13.680 12.528
  L -13.392 11.808
  C -12.744 11.880 -12.024 12.168 -11.520 12.672" stroke="none" fill="rgb(202,255,255)" />
<path d="
  M -15.480 11.376
  L -15.192 12.168
  C -15.912 12.096 -16.632 12.096 -17.208 12.384
  L -17.496 11.808
  C -16.848 11.520 -16.200 11.376 -15.480 11.376" stroke="none" fill="rgb(202,255,255)" />
<path d="
  M -18.864 12.168
  L -18.648 12.816
  C -19.224 13.104 -19.872 13.536 -20.376 14.040
  L -20.664 13.392
  C -20.160 12.816 -19.584 12.384 -18.864 12.168" stroke="none" fill="rgb(202,255,255)" />
<path d="
  M -21.888 14.904
  L -21.240 15.264
  C -21.672 15.768 -21.960 16.344 -22.104 17.064
  L -22.680 16.776
  C -22.680 16.128 -22.392 15.408 -21.888 14.904" stroke="none" fill="rgb(202,255,255)" />
<path d="
  M -23.184 19.080
  L -22.464 18.792
  C -22.464 19.368 -22.392 20.088 -22.176 20.808
  L -22.824 21.024
  C -23.112 20.376 -23.184 19.656 -23.184 19.080" stroke="none" fill="rgb(202,255,255)" />
<path d="
  M -22.392 22.320
  L -21.672 22.032
  C -21.456 22.752 -21.096 23.256 -20.592 23.616
  L -21.240 23.904
  C -21.744 23.400 -22.176 22.896 -22.392 22.320" stroke="none" fill="rgb(202,255,255)" />
<path d="
  M -19.584 25.272
  L -19.224 24.624
  C -18.720 25.128 -18.144 25.488 -17.352 25.560
  L -17.640 26.136
  C -18.360 26.064 -19.008 25.776 -19.584 25.272" stroke="none" fill="rgb(202,255,255)" />
<path d="
  M -15.624 26.568
  L -15.912 25.776
  C -15.192 25.848 -14.616 25.848 -13.968 25.560
  L -13.680 26.136
  C -14.256 26.496 -14.976 26.568 -15.624 26.568" stroke="none" fill="rgb(202,255,255)" />
<path d="
  M -12.384 25.776
  L -12.528 25.056
  C -11.880 24.840 -11.376 24.480 -10.872 23.904
  L -10.656 24.624
  C -11.160 25.128 -11.664 25.560 -12.384 25.776" stroke="none" fill="rgb(202,255,255)" />
<path d="
  M -9.288 22.896
  L -9.936 22.608
  C -9.432 22.104 -9.144 21.528 -9.000 20.808
  L -8.424 21.096
  C -8.496 21.816 -8.784 22.392 -9.288 22.896" stroke="none" fill="rgb(202,255,255)" />
<path d="
  M -9.000 17.424
  L -9.720 17.640
  C -9.432 18.288 -9.432 18.864 -9.504 19.584
  L -8.784 19.296
  C -8.712 18.648 -8.712 18.000 -9.000 17.424" stroke="none" fill="rgb(207,255,255)" />
<path d="
  M -9.504 15.912
  L -10.224 16.272
  C -10.440 15.624 -10.728 15.120 -11.232 14.760
  L -10.512 14.400
  C -10.008 14.832 -9.720 15.336 -9.504 15.912" stroke="none" fill="rgb(207,255,255)" />
<path d="
  M -11.880 13.392
  L -12.168 14.040
  C -12.672 13.536 -13.248 13.176 -13.968 13.104
  L -13.680 12.528
  C -12.960 12.600 -12.384 12.888 -11.880 13.392" stroke="none" fill="rgb(207,255,255)" />
<path d="
  M -15.192 12.168
  L -14.976 12.888
  C -15.624 12.816 -16.344 12.816 -16.992 13.104
  L -17.208 12.384
  C -16.632 12.096 -15.912 12.096 -15.192 12.168" stroke="none" fill="rgb(207,255,255)" />
<path d="
  M -18.648 12.816
  L -18.360 13.608
  C -19.008 13.824 -19.656 14.184 -20.088 14.832
  L -20.376 14.040
  C -19.872 13.536 -19.224 13.104 -18.648 12.816" stroke="none" fill="rgb(207,255,255)" />
<path d="
  M -21.240 15.264
  L -20.592 15.552
  C -21.096 16.056 -21.384 16.632 -21.384 17.352
  L -22.104 17.064
  C -21.960 16.344 -21.672 15.768 -21.240 15.264" stroke="none" fill="rgb(207,255,255)" />
<path d="
  M -22.464 18.792
  L -21.672 18.504
  C -21.744 19.080 -21.744 19.872 -21.456 20.520
  L -22.176 20.808
  C -22.392 20.088 -22.464 19.368 -22.464 18.792" stroke="none" fill="rgb(207,255,255)" />
<path d="
  M -21.672 22.032
  L -20.952 21.816
  C -20.736 22.392 -20.376 22.896 -19.872 23.400
  L -20.592 23.616
  C -21.096 23.256 -21.456 22.752 -21.672 22.032" stroke="none" fill="rgb(207,255,255)" />
<path d="
  M -19.224 24.624
  L -19.008 23.904
  C -18.432 24.480 -17.856 24.768 -16.992 24.840
  L -17.352 25.560
  C -18.144 25.488 -18.720 25.128 -19.224 24.624" stroke="none" fill="rgb(207,255,255)" />
<path d="
  M -15.912 25.776
  L -16.200 25.056
  C -15.480 25.128 -14.904 25.128 -14.184 24.840
  L -13.968 25.560
  C -14.616 25.848 -15.192 25.848 -15.912 25.776" stroke="none" fill="rgb(207,255,255)" />
<path d="
  M -12.528 25.056
  L -12.744 24.336
  C -12.168 24.120 -11.520 23.760 -11.160 23.112
  L -10.872 23.904
  C -11.376 24.480 -11.880 24.840 -12.528 25.056" stroke="none" fill="rgb(207,255,255)" />
<path d="
  M -9.936 22.608
  L -10.656 22.320
  C -10.152 21.816 -9.864 21.240 -9.720 20.520
  L -9.000 20.808
  C -9.144 21.528 -9.432 22.104 -9.936 22.608" stroke="none" fill="rgb(207,255,255)" />
<path d="
  M -9.720 17.640
  L -10.368 17.856
  C -10.152 18.504 -10.152 19.152 -10.368 19.800
  L -9.504 19.584
  C -9.432 18.864 -9.432 18.288 -9.720 17.640" stroke="none" fill="rgb(215,255,255)" />
<path d="
  M -10.224 16.272
  L -10.872 16.416
  C -11.016 15.840 -11.448 15.336 -11.952 14.904
  L -11.232 14.760
  C -10.728 15.120 -10.440 15.624 -10.224 16.272" stroke="none" fill="rgb(215,255,255)" />
<path d="
  M -12.168 14.040
  L -12.456 14.616
  C -12.960 14.112 -13.608 13.824 -14.256 13.680
  L -13.968 13.104
  C -13.248 13.176 -12.672 13.536 -12.168 14.040" stroke="none" fill="rgb(215,255,255)" />
<path d="
  M -14.976 12.888
  L -14.688 13.680
  C -15.408 13.536 -16.128 13.536 -16.704 13.680
  L -16.992 13.104
  C -16.344 12.816 -15.624 12.816 -14.976 12.888" stroke="none" fill="rgb(215,255,255)" />
<path d="
  M -18.360 13.608
  L -18.144 14.184
  C -18.720 14.400 -19.368 14.904 -19.728 15.552
  L -20.088 14.832
  C -19.656 14.184 -19.008 13.824 -18.360 13.608" stroke="none" fill="rgb(215,255,255)" />
<path d="
  M -20.592 15.552
  L -19.944 15.840
  C -20.448 16.344 -20.736 16.920 -20.736 17.640
  L -21.384 17.352
  C -21.384 16.632 -21.096 16.056 -20.592 15.552" stroke="none" fill="rgb(215,255,255)" />
<path d="
  M -21.672 18.504
  L -20.880 18.144
  C -21.096 18.864 -21.096 19.584 -20.880 20.304
  L -21.456 20.520
  C -21.744 19.872 -21.744 19.080 -21.672 18.504" stroke="none" fill="rgb(215,255,255)" />
<path d="
  M -20.952 21.816
  L -20.376 21.600
  C -20.088 22.248 -19.656 22.752 -19.008 23.112
  L -19.872 23.400
  C -20.376 22.896 -20.736 22.392 -20.952 21.816" stroke="none" fill="rgb(215,255,255)" />
<path d="
  M -19.008 23.904
  L -18.720 23.328
  C -18.144 23.832 -17.496 24.120 -16.848 24.264
  L -16.992 24.840
  C -17.856 24.768 -18.432 24.480 -19.008 23.904" stroke="none" fill="rgb(215,255,255)" />
<path d="
  M -16.200 25.056
  L -16.416 24.264
  C -15.768 24.480 -15.120 24.480 -14.472 24.264
  L -14.184 24.840
  C -14.904 25.128 -15.480 25.128 -16.200 25.056" stroke="none" fill="rgb(215,255,255)" />
<path d="
  M -12.744 24.336
  L -13.104 23.760
  C -12.384 23.400 -11.736 22.896 -11.448 22.320
  L -11.160 23.112
  C -11.520 23.760 -12.168 24.120 -12.744 24.336" stroke="none" fill="rgb(215,255,255)" />
<path d="
  M -10.656 22.320
  L -11.232 22.104
  C -10.728 21.528 -10.440 20.880 -10.368 20.160
  L -9.720 20.520
  C -9.864 21.240 -10.152 21.816 -10.656 22.320" stroke="none" fill="rgb(215,255,255)" />
<path d="
  M -10.368 17.856
  L -11.016 18.072
  C -10.512 20.088 -11.448 22.104 -13.248 23.040
  L -13.104 23.760
  C -12.384 23.400 -11.736 22.896 -11.448 22.320
  L -11.520 21.888
  L -11.232 22.104
  C -10.728 21.528 -10.440 20.880 -10.368 20.160
  L -10.728 20.016
  L -10.368 19.800
  C -10.152 19.152 -10.152 18.504 -10.368 17.856" stroke="none" fill="rgb(220,255,255)" />
<path d="
  M -10.872 16.416
  L -11.520 16.776
  C -12.456 14.832 -14.472 13.896 -16.488 14.400
  L -16.704 13.680
  C -16.128 13.536 -15.408 13.536 -14.688 13.680
  L -14.472 14.184
  L -14.256 13.680
  C -13.608 13.824 -12.960 14.112 -12.456 14.616
  L -12.672 15.264
  L -11.952 14.904
  C -11.448 15.336 -11.016 15.840 -10.872 16.416" stroke="none" fill="rgb(220,255,255)" />
<path d="
  M -18.144 14.184
  L -17.856 14.904
  C -19.728 15.840 -20.664 18.000 -20.160 20.016
  L -20.880 20.304
  C -21.096 19.584 -21.096 18.864 -20.880 18.144
  L -20.232 17.856
  L -20.736 17.640
  C -20.736 16.920 -20.448 16.344 -19.944 15.840
  L -19.584 16.056
  L -19.728 15.552
  C -19.368 14.904 -18.720 14.400 -18.144 14.184" stroke="none" fill="rgb(220,255,255)" />
<path d="
  M -20.376 21.600
  L -19.584 21.312
  C -18.648 23.112 -16.704 24.048 -14.760 23.544
  L -14.472 24.264
  C -15.120 24.480 -15.768 24.480 -16.416 24.264
  L -16.632 23.832
  L -16.848 24.264
  C -17.496 24.120 -18.144 23.832 -18.720 23.328
  L -18.504 22.896
  L -19.008 23.112
  C -19.656 22.752 -20.088 22.248 -20.376 21.600" stroke="none" fill="rgb(220,255,255)" />
<path d="
  M -11.016 18.072
  L -11.520 18.288
  C -11.232 20.016 -11.952 21.600 -13.464 22.536
  L -13.248 23.040
  C -11.448 22.104 -10.512 20.088 -11.016 18.072" stroke="none" fill="rgb(225,255,255)" />
<path d="
  M -11.520 16.776
  L -12.024 16.920
  C -12.888 15.408 -14.616 14.616 -16.344 14.904
  L -16.488 14.400
  C -14.472 13.896 -12.456 14.832 -11.520 16.776" stroke="none" fill="rgb(225,255,255)" />
<path d="
  M -17.856 14.904
  L -17.640 15.408
  C -19.224 16.272 -20.088 18.072 -19.584 19.800
  L -20.160 20.016
  C -20.664 18.000 -19.728 15.840 -17.856 14.904" stroke="none" fill="rgb(225,255,255)" />
<path d="
  M -19.584 21.312
  L -19.008 21.240
  C -18.216 22.608 -16.632 23.328 -14.976 23.040
  L -14.760 23.544
  C -16.704 24.048 -18.648 23.112 -19.584 21.312" stroke="none" fill="rgb(225,255,255)" />
<path d="
  M -11.520 18.288
  L -12.240 18.576
  C -12.024 19.800 -12.528 21.096 -13.680 21.744
  L -13.464 22.536
  C -11.952 21.600 -11.232 20.016 -11.520 18.288" stroke="none" fill="rgb(230,255,255)" />
<path d="
  M -12.024 16.920
  L -12.744 17.136
  C -13.392 16.056 -14.688 15.408 -15.984 15.624
  L -16.344 14.904
  C -14.616 14.616 -12.888 15.408 -12.024 16.920" stroke="none" fill="rgb(230,255,255)" />
<path d="
  M -17.640 15.408
  L -17.424 16.128
  C -18.648 16.848 -19.224 18.144 -18.936 19.584
  L -19.584 19.800
  C -20.088 18.072 -19.224 16.272 -17.640 15.408" stroke="none" fill="rgb(230,255,255)" />
<path d="
  M -19.008 21.240
  L -18.360 20.880
  C -17.712 22.032 -16.488 22.536 -15.192 22.320
  L -14.976 23.040
  C -16.632 23.328 -18.216 22.608 -19.008 21.240" stroke="none" fill="rgb(230,255,255)" />
<path d="
  M -12.888 19.008
  C -12.888 17.568 -14.184 16.272 -15.624 16.272
  C -16.992 16.272 -18.360 17.568 -18.360 19.008
  C -18.360 20.376 -16.992 21.744 -15.624 21.744
  C -14.184 21.744 -12.888 20.376 -12.888 19.008" stroke="none" fill="rgb(235,255,255)" />
<path d="
  M -12.240 18.576
  L -12.672 18.648
  L -12.960 17.280
  L -12.744 17.136
  C -13.392 16.056 -14.688 15.408 -15.984 15.624
  L -15.912 15.912
  L -17.352 16.344
  L -17.424 16.128
  C -18.648 16.848 -19.224 18.144 -18.936 19.584
  L -18.432 19.368
  L -18.000 20.808
  L -18.360 20.880
  C -17.712 22.032 -16.488 22.536 -15.192 22.320
  L -15.264 22.104
  L -13.752 21.600
  L -13.680 21.744
  C -12.528 21.096 -12.024 19.800 -12.240 18.576" stroke="none" fill="rgb(235,255,255)" />
<path d="
  M -12.888 19.008
  C -12.888 17.568 -14.184 16.272 -15.624 16.272
  C -16.992 16.272 -18.360 17.568 -18.360 19.008
  C -18.360 20.376 -16.992 21.744 -15.624 21.744
  C -14.184 21.744 -12.888 20.376 -12.888 19.008" stroke="none" fill="rgb(240,255,255)" />
<path d="
  M -13.608 19.008
  C -13.608 17.856 -14.472 16.920 -15.624 16.920
  C -16.704 16.920 -17.640 17.856 -17.640 19.008
  C -17.640 20.088 -16.704 21.024 -15.624 21.024
  C -14.472 21.024 -13.608 20.088 -13.608 19.008" stroke="none" fill="rgb(240,255,255)" />
<path d="
  M -13.608 19.008
  C -13.608 17.856 -14.472 16.920 -15.624 16.920
  C -16.704 16.920 -17.640 17.856 -17.640 19.008
  C -17.640 20.088 -16.704 21.024 -15.624 21.024
  C -14.472 21.024 -13.608 20.088 -13.608 19.008" stroke="none" fill="rgb(245,255,255)" />
<path d="
  M -14.256 19.008
  C -14.256 18.288 -14.904 17.640 -15.624 17.640
  C -16.344 17.640 -16.920 18.288 -16.920 19.008
  C -16.920 19.656 -16.344 20.304 -15.624 20.304
  C -14.904 20.304 -14.256 19.656 -14.256 19.008" stroke="none" fill="rgb(245,255,255)" />
<path d="
  M -14.256 19.008
  C -14.256 18.288 -14.904 17.640 -15.624 17.640
  C -16.344 17.640 -16.920 18.288 -16.920 19.008
  C -16.920 19.656 -16.344 20.304 -15.624 20.304
  C -14.904 20.304 -14.256 19.656 -14.256 19.008" stroke="none" fill="rgb(250,255,255)" />
<path d="
  M -14.976 19.008
  C -14.976 18.648 -15.264 18.360 -15.624 18.360
  C -15.912 18.360 -16.200 18.648 -16.200 19.008
  C -16.200 19.296 -15.912 19.584 -15.624 19.584
  C -15.264 19.584 -14.976 19.296 -14.976 19.008" stroke="none" fill="rgb(250,255,255)" />
<path d="
  M -14.976 19.008
  C -14.976 18.648 -15.264 18.360 -15.624 18.360
  C -15.912 18.360 -16.200 18.648 -16.200 19.008
  C -16.200 19.296 -15.912 19.584 -15.624 19.584
  C -15.264 19.584 -14.976 19.296 -14.976 19.008" stroke="none" fill="rgb(255,255,255)" />
</g>
<path d="
  M -12.672 15.264
  L -8.136 13.536
  L -6.984 14.112
  L -7.488 15.264
  L -12.960 17.280
  L -12.672 18.648
  L -7.128 16.776
  L -5.904 17.280
  L -6.264 18.360
  L -10.728 20.016
  L -6.912 21.816
  L -6.480 23.112
  L -7.920 23.616
  L -11.520 21.888
  L -10.008 26.496
  L -10.512 27.720
  L -11.880 27.072
  L -13.752 21.600
  L -15.264 22.104
  L -13.176 27.576
  L -13.680 28.800
  L -14.976 28.296
  L -16.632 23.832
  L -18.216 27.576
  L -19.728 28.008
  L -20.160 26.568
  L -18.504 22.896
  L -23.112 24.552
  L -24.336 23.904
  L -23.904 22.824
  L -18.000 20.808
  L -18.432 19.368
  L -23.904 21.384
  L -25.416 20.808
  L -24.840 19.656
  L -20.232 17.856
  L -24.120 16.128
  L -24.480 14.904
  L -23.184 14.328
  L -19.584 16.056
  L -21.384 11.592
  L -20.664 10.368
  L -19.224 11.088
  L -17.352 16.344
  L -15.912 15.912
  L -18.000 10.368
  L -17.424 9.288
  L -16.128 9.792
  L -14.472 14.184
  L -12.888 10.656
  L -11.520 10.296
  L -10.944 11.376
  L -12.672 15.264" stroke="rgb(0,0,0)" stroke-width="0.504" fill="none" />
<g>
<path d="
  M 4.320 21.024
  L -2.952 21.024" fill="none" stroke="rgb(0,0,0)" stroke-width="0.504" />
<path d="
  M 5.544 32.112
  L -1.440 32.112" fill="none" stroke="rgb(0,0,0)" stroke-width="0.504" />
<path d="
  M 3.240 26.064
  L -3.744 26.064" fill="none" stroke="rgb(0,0,0)" stroke-width="0.504" />
</g>
<g>
<path d="
  M -27.216 13.896
  L -34.560 13.896" fill="none" stroke="rgb(0,0,0)" stroke-width="0.504" />
<path d="
  M -26.064 25.056
  L -33.120 25.056" fill="none" stroke="rgb(0,0,0)" stroke-width="0.504" />
<path d="
  M -28.584 18.648
  L -35.928 18.648" fill="none" stroke="rgb(0,0,0)" stroke-width="0.504" />
</g>
<g>
<path d="
  M -11.016 -4.176
  L -18.360 -4.176" fill="none" stroke="rgb(0,0,0)" stroke-width="0.504" />
<path d="
  M -9.720 6.912
  L -16.848 6.912" fill="none" stroke="rgb(0,0,0)" stroke-width="0.504" />
<path d="
  M -12.240 1.224
  L -22.248 1.224" fill="none" stroke="rgb(0,0,0)" stroke-width="0.504" />
</g>
<g>
<path d="
  M 16.848 13.536
  L 8.712 13.536" fill="none" stroke="rgb(0,0,0)" stroke-width="0.504" />
<path d="
  M 14.616 7.632
  L 10.368 7.632" fill="none" stroke="rgb(0,0,0)" stroke-width="0.504" />
<path d="
  M 15.480 3.600
  L 9.648 3.600" fill="none" stroke="rgb(0,0,0)" stroke-width="0.504" />
</g>
</g>
</svg>
