<?xml version="1.0" encoding="ISO-8859-1"?><!DOCTYPE svg PUBLIC "-//W3C//DTD SVG 1.1//EN" "http://www.w3.org/Graphics/SVG/1.1/DTD/svg11.dtd"><svg version="1.1" baseProfile="full" width="100%" height="100%" viewBox="-32.400 -26.712 105.696 44.928" xmlns="http://www.w3.org/2000/svg" xmlns:xlink="http://www.w3.org/1999/xlink">
<g>
<path d="
  M -32.400 -17.064
  L -4.824 -17.064
  L -4.824 26.712
  L -32.400 26.712
  L -32.400 -17.064" stroke="rgb(0,0,0)" stroke-width="0.216" fill="rgb(255,0,0)" />
<path d="
  M 45.720 -18.216
  L 73.296 -18.216
  L 73.296 25.560
  L 45.720 25.560
  L 45.720 -18.216" stroke="rgb(0,0,0)" stroke-width="0.216" fill="rgb(255,0,0)" />
<path d="
  M 20.880 -15.912
  C 20.088 -12.240 19.656 -10.440 19.656 -10.440
  C 19.656 -10.440 18.864 -10.080 17.280 -9.216
  C 16.992 -9.216 16.776 -9.360 16.488 -9.360
  C 16.056 -9.504 15.912 -9.792 15.768 -9.936
  C 15.336 -10.080 15.048 -10.296 14.688 -10.584
  C 14.544 -10.872 13.968 -11.304 13.824 -11.304
  L 16.344 -1.728
  C 16.632 -0.072 16.776 1.224 16.776 1.512
  C 16.776 2.160 16.632 2.592 16.056 2.592
  C 15.768 2.592 15.048 2.160 14.256 1.080
  C 13.680 0.360 12.600 -0.864 11.592 -2.376
  C 10.800 -3.960 9.936 -4.896 9.936 -5.328
  L 9.648 -5.184
  C 9.648 -4.464 9.936 -3.816 9.936 -2.808
  C 9.936 -1.872 9.504 -1.296 9.216 -1.296
  C 7.992 -1.296 5.904 -1.728 3.168 -2.376
  C 3.312 -1.872 3.744 -1.296 4.032 -0.720
  C 4.320 -0.144 4.608 0.504 4.752 1.080
  C 4.752 1.656 4.896 2.304 4.896 2.880
  L 4.896 3.312
  C 4.896 3.888 4.608 4.248 4.032 4.248
  C 3.600 4.248 2.520 4.536 0.936 4.536
  C 5.184 7.416 8.136 9.792 9.360 10.728
  C 10.800 11.736 11.448 12.384 11.448 12.672
  C 11.448 13.680 11.160 14.760 10.872 15.480
  C 11.448 15.480 12.816 15.192 14.904 14.760
  C 16.992 14.184 18.576 13.824 19.080 13.824
  C 19.368 13.824 19.656 14.040 19.800 14.328
  C 20.088 14.760 20.232 15.480 20.232 15.912
  L 20.232 23.976
  L 21.600 23.976
  L 21.600 15.912
  C 21.600 15.768 21.600 15.048 21.888 14.760
  C 21.888 14.040 22.320 13.824 22.608 13.824
  C 23.256 13.824 24.408 14.040 26.496 14.472
  C 28.440 15.048 30.096 15.480 30.888 15.480
  C 30.816 14.760 30.384 13.824 30.384 12.672
  C 30.384 12.384 30.816 11.952 31.464 11.448
  C 32.184 10.872 33.840 9.648 36.216 7.920
  C 38.736 5.976 40.248 4.968 40.824 4.536
  C 38.952 4.536 37.728 4.248 37.152 3.888
  C 37.008 3.600 36.792 3.168 36.792 2.880
  C 36.792 1.656 37.584 -0.144 38.736 -2.376
  C 36.216 -1.872 34.128 -1.296 32.616 -1.296
  C 32.616 -1.296 32.472 -1.296 32.472 -1.296
  C 32.472 -1.296 32.184 -1.296 32.184 -1.296
  C 32.184 -1.296 31.896 -1.872 31.752 -2.952
  C 31.896 -3.816 32.184 -4.608 32.184 -5.184
  L 32.184 -5.328
  C 30.096 -2.376 28.728 -0.576 28.296 -0.072
  C 27.864 0.360 27.432 0.936 26.928 1.368
  C 26.352 1.944 25.776 2.160 25.488 2.160
  C 25.056 2.160 24.840 1.656 24.840 0.936
  C 24.912 0.360 25.056 -0.144 25.056 -0.288
  L 27.864 -11.304
  C 26.352 -10.080 25.056 -9.216 24.408 -9.216
  C 24.408 -9.216 24.408 -9.216 24.408 -9.216
  C 23.688 -9.360 23.256 -9.936 22.968 -10.440
  C 22.608 -11.016 22.032 -12.024 21.888 -12.960
  C 21.600 -14.184 21.168 -15.048 20.880 -15.912" stroke="rgb(0,0,0)" stroke-width="0.216" fill="rgb(255,0,0)" />
</g>
</svg>
