<?xml version="1.0" encoding="ISO-8859-1"?><!DOCTYPE svg PUBLIC "-//W3C//DTD SVG 1.1//EN" "http://www.w3.org/Graphics/SVG/1.1/DTD/svg11.dtd"><svg version="1.1" baseProfile="full" width="100%" height="100%" viewBox="-43.488 -29.376 86.976 58.752" xmlns="http://www.w3.org/2000/svg" xmlns:xlink="http://www.w3.org/1999/xlink">
<g>
<path d="
  M -36.000 -21.888
  L -8.424 -21.888
  L -8.424 21.888
  L -36.000 21.888
  L -36.000 -21.888" stroke="rgb(0,0,0)" stroke-width="0.216" fill="rgb(255,0,0)" />
<path d="
  M 16.056 -21.888
  C 15.264 -18.216 14.832 -16.416 14.832 -16.416
  C 14.832 -16.416 14.040 -16.056 12.456 -15.192
  C 12.168 -15.192 11.952 -15.336 11.664 -15.336
  C 11.232 -15.480 11.088 -15.768 10.944 -15.912
  C 10.512 -16.056 10.224 -16.272 9.864 -16.560
  C 9.720 -16.848 9.144 -17.280 9.000 -17.280
  L 11.520 -7.704
  C 11.808 -6.048 11.952 -4.752 11.952 -4.464
  C 11.952 -3.816 11.808 -3.384 11.232 -3.384
  C 10.944 -3.384 10.224 -3.816 9.432 -4.896
  C 8.856 -5.616 7.776 -6.840 6.768 -8.352
  C 5.976 -9.936 5.112 -10.872 5.112 -11.304
  L 4.824 -11.160
  C 4.824 -10.440 5.112 -9.792 5.112 -8.784
  C 5.112 -7.848 4.680 -7.272 4.392 -7.272
  C 3.168 -7.272 1.080 -7.704 -1.656 -8.352
  C -1.512 -7.848 -1.080 -7.272 -0.792 -6.696
  C -0.504 -6.120 -0.216 -5.472 -0.072 -4.896
  C -0.072 -4.320 0.072 -3.672 0.072 -3.096
  L 0.072 -2.664
  C 0.072 -2.088 -0.216 -1.728 -0.792 -1.728
  C -1.224 -1.728 -2.304 -1.440 -3.888 -1.440
  C 0.360 1.440 3.312 3.816 4.536 4.752
  C 5.976 5.760 6.624 6.408 6.624 6.696
  C 6.624 7.704 6.336 8.784 6.048 9.504
  C 6.624 9.504 7.992 9.216 10.080 8.784
  C 12.168 8.208 13.752 7.848 14.256 7.848
  C 14.544 7.848 14.832 8.064 14.976 8.352
  C 15.264 8.784 15.408 9.504 15.408 9.936
  L 15.408 18.000
  L 16.776 18.000
  L 16.776 9.936
  C 16.776 9.792 16.776 9.072 17.064 8.784
  C 17.064 8.064 17.496 7.848 17.784 7.848
  C 18.432 7.848 19.584 8.064 21.672 8.496
  C 23.616 9.072 25.272 9.504 26.064 9.504
  C 25.992 8.784 25.560 7.848 25.560 6.696
  C 25.560 6.408 25.992 5.976 26.640 5.472
  C 27.360 4.896 29.016 3.672 31.392 1.944
  C 33.912 -0.000 35.424 -1.008 36.000 -1.440
  C 34.128 -1.440 32.904 -1.728 32.328 -2.088
  C 32.184 -2.376 31.968 -2.808 31.968 -3.096
  C 31.968 -4.320 32.760 -6.120 33.912 -8.352
  C 31.392 -7.848 29.304 -7.272 27.792 -7.272
  C 27.792 -7.272 27.648 -7.272 27.648 -7.272
  C 27.648 -7.272 27.360 -7.272 27.360 -7.272
  C 27.360 -7.272 27.072 -7.848 26.928 -8.928
  C 27.072 -9.792 27.360 -10.584 27.360 -11.160
  L 27.360 -11.304
  C 25.272 -8.352 23.904 -6.552 23.472 -6.048
  C 23.040 -5.616 22.608 -5.040 22.104 -4.608
  C 21.528 -4.032 20.952 -3.816 20.664 -3.816
  C 20.232 -3.816 20.016 -4.320 20.016 -5.040
  C 20.088 -5.616 20.232 -6.120 20.232 -6.264
  L 23.040 -17.280
  C 21.528 -16.056 20.232 -15.192 19.584 -15.192
  C 19.584 -15.192 19.584 -15.192 19.584 -15.192
  C 18.864 -15.336 18.432 -15.912 18.144 -16.416
  C 17.784 -16.992 17.208 -18.000 17.064 -18.936
  C 16.776 -20.160 16.344 -21.024 16.056 -21.888" stroke="rgb(0,0,0)" stroke-width="0.216" fill="rgb(255,0,0)" />
</g>
</svg>
