<?xml version="1.0" encoding="ISO-8859-1"?><!DOCTYPE svg PUBLIC "-//W3C//DTD SVG 1.1//EN" "http://www.w3.org/Graphics/SVG/1.1/DTD/svg11.dtd"><svg version="1.1" baseProfile="full" width="100%" height="100%" viewBox="-5.328 -5.328 10.656  10.656" xmlns="http://www.w3.org/2000/svg" xmlns:xlink="http://www.w3.org/1999/xlink">
<path d=" M 3.312 -0.000 L 3.312 -0.000 3.312 0.720 3.096 1.296 2.808 1.872 2.376 2.376 1.872 2.808 1.296 3.096 0.720 3.312 0.000 3.312 0.000 5.328 1.008 5.184 2.016 4.824 2.880 4.392 3.672 3.672 4.392 2.880 4.824 2.016 5.184 1.008 5.328 -0.000 5.328 -0.000 3.312 -0.000" stroke="none" />
<path d=" M 0.000 -3.312 L 0.000 -3.312 0.720 -3.312 1.296 -3.096 1.872 -2.808 2.376 -2.376 2.808 -1.872 3.096 -1.296 3.312 -0.720 3.312 -0.000 5.328 -0.000 5.184 -1.008 4.824 -2.016 4.392 -2.880 3.672 -3.672 2.880 -4.392 2.016 -4.824 1.008 -5.184 0.000 -5.328 0.000 -5.328 0.000 -3.312" stroke="none" />
<path d=" M -3.312 -0.000 L -3.312 -0.000 -3.312 -0.720 -3.096 -1.296 -2.808 -1.872 -2.376 -2.376 -1.872 -2.808 -1.296 -3.096 -0.720 -3.312 0.000 -3.312 0.000 -5.328 -1.008 -5.184 -2.016 -4.824 -2.880 -4.392 -3.672 -3.672 -4.392 -2.880 -4.824 -2.016 -5.184 -1.008 -5.328 -0.000 -5.328 -0.000 -3.312 -0.000" stroke="none" />
<path d="
  M 0.000 3.312 L 0.000 3.312 -0.720 3.312 -1.296 3.096 -1.872 2.808 -2.376 2.376 -2.808 1.872 -3.096 1.296 -3.312 0.720 -3.312 -0.000 -5.328 -0.000 -5.184 1.008 -4.824 2.016 -4.392 2.880 -3.672 3.672 -2.880 4.392 -2.016 4.824 -1.008 5.184 0.000 5.328 0.000 5.328 0.000 3.312" stroke="none" />
</svg>
