<?xml version="1.0" encoding="ISO-8859-1"?><!DOCTYPE svg PUBLIC "-//W3C//DTD SVG 1.1//EN" "http://www.w3.org/Graphics/SVG/1.1/DTD/svg11.dtd"><svg version="1.1" baseProfile="full" width="100%" height="100%" viewBox="-43.200 -30.672 87.120 61.992" xmlns="http://www.w3.org/2000/svg" xmlns:xlink="http://www.w3.org/1999/xlink">
<g>
<g>
<path d="
  M 3.528 -3.024
  C 5.256 2.160 9.288 6.408 14.472 8.352
  L 3.528 -3.024" stroke="none" fill="rgb(255,255,34)" />
<path d="
  M 3.528 -3.024
  C 3.096 -4.392 2.808 -5.832 2.664 -7.272
  L 18.720 9.360
  C 17.280 9.216 15.768 8.856 14.472 8.352
  L 3.528 -3.024" stroke="none" fill="rgb(255,255,44)" />
<path d="
  M 2.664 -7.272
  C 2.592 -7.776 2.592 -8.352 2.592 -8.856
  C 2.592 -9.432 2.592 -10.008 2.664 -10.512
  L 22.104 9.360
  C 21.600 9.432 21.096 9.432 20.520 9.432
  C 19.944 9.432 19.296 9.432 18.720 9.360
  L 2.664 -7.272" stroke="none" fill="rgb(255,255,54)" />
<path d="
  M 2.664 -10.512
  C 2.808 -11.520 2.952 -12.600 3.240 -13.536
  L 24.984 9.000
  C 24.048 9.216 23.040 9.360 22.104 9.360
  L 2.664 -10.512" stroke="none" fill="rgb(255,255,67)" />
<path d="
  M 3.240 -13.536
  C 3.384 -14.400 3.672 -15.192 3.960 -15.984
  L 10.944 -8.856
  C 12.816 -4.752 16.056 -1.368 20.088 0.576
  L 27.576 8.352
  C 26.712 8.568 25.848 8.856 24.984 9.000
  L 3.240 -13.536" stroke="none" fill="rgb(255,255,77)" />
<path d="
  M 3.960 -15.984
  C 4.320 -16.776 4.680 -17.496 5.112 -18.216
  L 9.504 -13.680
  C 9.792 -11.952 10.224 -10.368 10.944 -8.856
  L 3.960 -15.984" stroke="none" fill="rgb(255,255,87)" />
<path d="
  M 20.088 0.576
  C 21.600 1.296 23.256 1.800 24.912 2.160
  L 29.808 7.272
  C 29.160 7.632 28.368 7.992 27.576 8.352
  L 20.088 0.576" stroke="none" fill="rgb(255,255,87)" />
<path d="
  M 5.112 -18.216
  C 5.544 -18.936 5.976 -19.512 6.480 -20.160
  L 9.288 -17.352
  C 9.288 -17.064 9.288 -16.920 9.288 -16.632
  C 9.288 -15.624 9.360 -14.688 9.504 -13.680
  L 5.112 -18.216" stroke="none" fill="rgb(255,255,97)" />
<path d="
  M 24.912 2.160
  C 25.920 2.304 27.072 2.448 28.152 2.448
  C 28.296 2.448 28.368 2.448 28.440 2.448
  L 31.896 5.904
  C 31.176 6.408 30.600 6.840 29.808 7.272
  L 24.912 2.160" stroke="none" fill="rgb(255,255,97)" />
<path d="
  M 6.480 -20.160
  C 7.056 -20.736 7.632 -21.240 8.208 -21.744
  L 9.720 -20.232
  C 9.504 -19.296 9.360 -18.288 9.288 -17.352
  L 6.480 -20.160" stroke="none" fill="rgb(255,255,108)" />
<path d="
  M 28.440 2.448
  C 29.448 2.448 30.528 2.304 31.464 2.160
  L 33.552 4.320
  C 33.048 4.968 32.544 5.472 31.896 5.904
  L 28.440 2.448" stroke="none" fill="rgb(255,255,108)" />
<path d="
  M 8.208 -21.744
  C 8.856 -22.320 9.432 -22.752 10.152 -23.184
  L 10.368 -22.896
  C 10.152 -22.032 9.864 -21.168 9.720 -20.232
  L 8.208 -21.744" stroke="none" fill="rgb(255,255,120)" />
<path d="
  M 31.464 2.160
  C 32.400 2.088 33.264 1.800 34.128 1.584
  L 34.992 2.520
  C 34.560 3.096 34.128 3.816 33.552 4.320
  L 31.464 2.160" stroke="none" fill="rgb(255,255,120)" />
<path d="
  M 10.152 -23.184
  C 10.224 -23.256 10.368 -23.328 10.584 -23.400
  C 10.512 -23.256 10.512 -23.112 10.368 -22.896
  L 10.152 -23.184" stroke="none" fill="rgb(255,255,131)" />
<path d="
  M 34.128 1.584
  C 34.776 1.368 35.352 1.224 36.000 0.936
  C 35.712 1.440 35.352 2.016 34.992 2.520
  L 34.128 1.584" stroke="none" fill="rgb(255,255,131)" />
</g>
<path d="
  M 10.584 -23.400
  C 9.864 -21.240 9.360 -19.080 9.288 -16.632
  C 9.288 -6.336 17.712 2.448 28.152 2.448
  C 30.888 2.520 33.480 1.872 36.000 0.936
  C 32.976 6.768 27.216 9.432 20.520 9.432
  C 10.584 9.360 2.592 1.152 2.592 -8.856
  C 2.664 -15.120 5.184 -20.376 10.584 -23.400" stroke="rgb(0,0,0)" stroke-width="0.504" fill="none" />
<g>
<path d="
  M -13.608 23.400
  C -13.248 23.472 -12.960 23.472 -12.528 23.472
  L -13.608 23.400" stroke="none" fill="rgb(102,102,102)" />
<path d="
  M -13.608 23.400
  C -14.976 23.256 -15.768 22.392 -16.488 21.672
  L -4.248 21.672
  C -5.544 22.608 -7.056 23.040 -9.576 22.680
  C -10.728 23.112 -11.664 23.400 -12.528 23.472
  L -13.608 23.400" stroke="none" fill="rgb(108,108,108)" />
<path d="
  M -16.488 21.672
  C -17.064 21.096 -17.640 20.520 -18.360 20.376
  C -18.720 20.304 -19.152 20.088 -19.656 19.872
  L -2.088 19.872
  C -2.880 20.592 -3.600 21.240 -4.248 21.672
  L -16.488 21.672" stroke="none" fill="rgb(113,113,113)" />
<path d="
  M -19.656 19.872
  C -20.592 19.296 -21.528 18.720 -22.032 18.144
  L -0.360 18.144
  C -1.080 18.792 -1.584 19.296 -2.088 19.872
  L -19.656 19.872" stroke="none" fill="rgb(120,120,120)" />
<path d="
  M -32.184 18.144
  C -31.968 18.216 -31.824 18.288 -31.680 18.360
  C -29.592 19.224 -27.720 18.720 -25.920 18.144
  L -32.184 18.144" stroke="none" fill="rgb(120,120,120)" />
<path d="
  M 5.040 18.144
  C 8.208 19.440 11.736 19.440 14.760 18.144
  L 5.040 18.144" stroke="none" fill="rgb(120,120,120)" />
<path d="
  M -32.184 18.144
  C -33.120 17.712 -33.912 17.064 -34.488 16.272
  L 1.728 16.272
  C 0.936 16.992 0.216 17.568 -0.360 18.144
  L -22.032 18.144
  C -22.176 17.784 -22.392 17.496 -22.392 17.352
  C -23.616 17.424 -24.840 17.784 -25.920 18.144
  L -32.184 18.144" stroke="none" fill="rgb(125,125,125)" />
<path d="
  M 5.040 18.144
  C 3.960 17.712 2.952 17.064 2.088 16.272
  L 17.784 16.272
  C 16.848 17.064 15.840 17.712 14.760 18.144
  L 5.040 18.144" stroke="none" fill="rgb(125,125,125)" />
<path d="
  M -34.488 16.272
  C -34.920 15.768 -35.208 15.192 -35.496 14.472
  L 23.760 14.472
  C 22.392 14.904 21.096 14.904 19.224 14.904
  C 18.792 15.408 18.288 15.840 17.784 16.272
  L 2.088 16.272
  C 2.016 16.200 1.944 16.200 1.872 16.128
  C 1.800 16.200 1.728 16.200 1.728 16.272
  L -34.488 16.272" stroke="none" fill="rgb(131,131,131)" />
<path d="
  M -35.496 14.472
  C -35.712 13.968 -35.784 13.320 -35.928 12.744
  L 26.280 12.744
  C 26.208 13.032 26.064 13.248 25.992 13.536
  C 25.200 13.968 24.480 14.184 23.760 14.472
  L -35.496 14.472" stroke="none" fill="rgb(136,136,136)" />
<path d="
  M -35.928 12.744
  C -36.000 12.096 -36.000 11.520 -35.928 10.944
  L 26.784 10.944
  C 26.712 11.520 26.496 12.096 26.280 12.744
  L -35.928 12.744" stroke="none" fill="rgb(141,141,141)" />
<path d="
  M -35.928 10.944
  C -35.784 10.296 -35.640 9.720 -35.496 9.216
  L 27.072 9.216
  C 27.072 9.720 26.928 10.296 26.784 10.944
  L -35.928 10.944" stroke="none" fill="rgb(146,146,146)" />
<path d="
  M -35.496 9.216
  C -35.208 8.568 -34.848 8.064 -34.488 7.560
  C -34.488 7.416 -34.632 7.416 -34.632 7.344
  L 26.856 7.344
  C 27.072 7.992 27.072 8.568 27.072 9.216
  L -35.496 9.216" stroke="none" fill="rgb(151,151,151)" />
<path d="
  M -34.632 7.344
  C -34.920 6.840 -35.136 6.264 -35.136 5.544
  L 25.920 5.544
  C 26.424 6.048 26.712 6.696 26.856 7.344
  L -34.632 7.344" stroke="none" fill="rgb(156,156,156)" />
<path d="
  M -35.136 5.544
  C -35.208 4.968 -35.136 4.392 -34.920 3.816
  L 17.712 3.744
  C 17.784 3.960 17.856 4.176 17.928 4.392
  C 19.584 4.248 21.816 3.672 23.328 3.960
  C 24.552 4.320 25.416 4.824 25.920 5.544
  L -35.136 5.544" stroke="none" fill="rgb(164,164,164)" />
<path d="
  M -34.920 3.816
  C -34.776 3.096 -34.416 2.520 -34.056 1.872
  L 16.560 2.016
  C 16.992 2.448 17.424 3.024 17.712 3.744
  L -34.920 3.816" stroke="none" fill="rgb(169,169,169)" />
<path d="
  M -34.056 1.872
  C -33.840 1.656 -33.552 1.296 -33.336 1.008
  C -32.976 0.720 -32.544 0.432 -32.112 0.288
  L 8.064 0.288
  C 8.064 0.504 8.064 0.720 8.064 0.936
  C 11.736 0.360 14.760 0.144 16.560 2.016
  L -34.056 1.872" stroke="none" fill="rgb(174,174,174)" />
<path d="
  M -32.112 0.288
  C -30.528 -0.360 -28.656 -0.288 -26.640 -0.288
  C -26.568 -0.720 -26.352 -1.152 -26.136 -1.584
  L 7.992 -1.584
  C 7.992 -0.936 8.064 -0.360 8.064 0.288
  L -32.112 0.288" stroke="none" fill="rgb(179,179,179)" />
<path d="
  M -26.136 -1.584
  C -25.776 -2.232 -25.344 -2.880 -24.696 -3.456
  L 7.632 -3.384
  C 7.776 -2.808 7.920 -2.160 7.992 -1.584
  L -26.136 -1.584" stroke="none" fill="rgb(184,184,184)" />
<path d="
  M -24.696 -3.456
  C -24.048 -4.104 -23.256 -4.680 -22.320 -5.112
  L -11.808 -5.112
  C -11.376 -4.968 -10.944 -4.680 -10.584 -4.320
  C -10.584 -4.608 -10.512 -4.824 -10.440 -5.184
  L 7.128 -5.112
  C 7.344 -4.536 7.560 -3.960 7.632 -3.384
  L -24.696 -3.456" stroke="none" fill="rgb(189,189,189)" />
<path d="
  M -22.320 -5.112
  C -19.152 -6.768 -14.904 -7.056 -11.808 -5.112
  L -22.320 -5.112" stroke="none" fill="rgb(194,194,194)" />
<path d="
  M -10.440 -5.184
  C -10.152 -5.832 -9.792 -6.408 -9.288 -6.912
  L 5.976 -6.912
  C 6.408 -6.336 6.840 -5.760 7.128 -5.112
  L -10.440 -5.184" stroke="none" fill="rgb(194,194,194)" />
<path d="
  M -9.288 -6.912
  C -8.496 -7.704 -7.560 -8.352 -6.408 -8.784
  L 3.240 -8.856
  C 4.320 -8.352 5.256 -7.704 5.976 -6.912
  L -9.288 -6.912" stroke="none" fill="rgb(199,199,199)" />
<path d="
  M -6.408 -8.784
  C -3.816 -9.720 -0.504 -9.792 2.016 -9.216
  C 2.448 -9.072 2.880 -8.928 3.240 -8.856
  L -6.408 -8.784" stroke="none" fill="rgb(204,204,204)" />
</g>
<g>
<path d="
  M -17.280 16.056
  C -17.280 16.056 -17.208 16.128 -17.208 16.128
  C -14.112 17.064 -11.520 17.280 -9.288 16.056
  L -17.280 16.056" stroke="none" fill="rgb(179,179,179)" />
<path d="
  M -17.280 16.056
  C -17.712 15.696 -17.784 15.192 -17.640 14.760
  L -7.488 14.760
  C -8.064 15.264 -8.712 15.696 -9.288 16.056
  L -17.280 16.056" stroke="none" fill="rgb(182,182,182)" />
<path d="
  M -17.640 14.760
  C -17.424 14.328 -17.064 13.896 -16.632 13.464
  L -9.576 13.464
  C -9.000 14.040 -8.064 14.616 -7.488 14.760
  C -7.488 14.760 -7.488 14.760 -7.488 14.760
  L -17.640 14.760" stroke="none" fill="rgb(182,182,182)" />
<path d="
  M -32.544 13.464
  C -31.464 14.760 -29.808 14.472 -28.368 13.464
  L -32.544 13.464" stroke="none" fill="rgb(182,182,182)" />
<path d="
  M -7.992 13.464
  C -5.976 13.896 -3.744 13.968 -1.728 13.464
  L -7.992 13.464" stroke="none" fill="rgb(182,182,182)" />
<path d="
  M 14.328 13.464
  C 14.832 13.608 14.976 13.680 14.616 13.680
  C 15.408 13.968 16.056 13.752 16.560 13.464
  L 14.328 13.464" stroke="none" fill="rgb(182,182,182)" />
<path d="
  M -32.544 13.464
  C -32.760 13.176 -33.048 12.744 -33.192 12.096
  L -24.120 12.096
  C -24.624 12.672 -24.912 13.032 -25.776 12.240
  C -25.992 13.752 -29.088 12.024 -27.576 12.816
  C -27.864 13.104 -28.080 13.248 -28.368 13.464
  L -32.544 13.464" stroke="none" fill="rgb(184,184,184)" />
<path d="
  M -16.632 13.464
  C -16.200 13.032 -15.624 12.600 -15.120 12.096
  L -1.584 12.096
  C -1.296 12.384 -0.936 12.744 -0.648 13.032
  C -0.936 13.176 -1.296 13.248 -1.728 13.464
  L -7.992 13.464
  C -8.568 13.320 -9.216 13.176 -9.792 13.032
  C -9.720 13.104 -9.648 13.248 -9.576 13.464
  L -16.632 13.464" stroke="none" fill="rgb(184,184,184)" />
<path d="
  M 14.328 13.464
  C 13.464 13.176 11.592 12.672 10.872 12.096
  L 17.856 12.096
  C 17.496 12.672 17.064 13.176 16.560 13.464
  L 14.328 13.464" stroke="none" fill="rgb(184,184,184)" />
<path d="
  M -33.192 12.096
  C -33.192 12.096 -33.336 12.024 -33.336 11.952
  C -33.408 11.592 -33.480 11.160 -33.480 10.800
  L -21.960 10.800
  C -22.032 10.944 -22.104 11.088 -22.104 11.376
  C -23.184 11.376 -23.688 11.808 -24.120 12.096
  L -33.192 12.096" stroke="none" fill="rgb(184,184,184)" />
<path d="
  M -15.120 12.096
  C -14.472 11.664 -13.968 11.232 -13.896 11.088
  C -17.064 11.088 -18.576 13.032 -19.224 10.800
  L -2.448 10.800
  C -2.160 11.232 -1.944 11.664 -1.584 12.096
  L -15.120 12.096" stroke="none" fill="rgb(184,184,184)" />
<path d="
  M 10.872 12.096
  C 10.656 11.952 10.512 11.880 10.512 11.664
  C 8.856 11.664 8.208 11.448 7.992 10.800
  L 18.864 10.800
  C 18.576 11.232 18.216 11.808 17.856 12.096
  L 10.872 12.096" stroke="none" fill="rgb(184,184,184)" />
<path d="
  M 0.864 10.800
  C 2.376 11.880 4.104 12.312 5.904 10.944
  L 0.864 10.800" stroke="none" fill="rgb(184,184,184)" />
<path d="
  M -33.480 10.800
  C -33.408 10.368 -33.336 9.936 -33.192 9.504
  L -2.736 9.504
  C -2.736 10.080 -2.520 10.368 -2.448 10.800
  L -19.224 10.800
  C -19.368 10.656 -19.440 10.296 -19.512 9.936
  C -19.800 11.088 -21.456 10.224 -21.960 10.800
  L -33.480 10.800" stroke="none" fill="rgb(187,187,187)" />
<path d="
  M 0.864 10.800
  C 0.360 10.512 -0.216 9.936 -0.648 9.504
  L 5.832 9.504
  C 5.544 9.864 5.544 10.152 6.336 10.584
  C 6.120 10.656 6.048 10.800 5.904 10.944
  L 0.864 10.800" stroke="none" fill="rgb(187,187,187)" />
<path d="
  M 7.992 10.800
  C 7.776 10.512 7.704 10.152 7.560 9.648
  L 23.760 9.504
  C 22.104 10.080 22.248 9.504 20.232 9.504
  C 19.800 9.864 19.296 10.368 18.864 10.800
  L 7.992 10.800" stroke="none" fill="rgb(187,187,187)" />
<path d="
  M -33.192 9.504
  C -33.120 9.072 -32.976 8.640 -32.688 8.136
  L -30.240 8.136
  C -29.808 8.352 -29.304 8.352 -28.512 8.352
  C -28.512 8.208 -28.656 8.208 -28.656 8.136
  L -2.592 8.208
  C -2.736 8.640 -2.736 9.216 -2.736 9.504
  L -33.192 9.504" stroke="none" fill="rgb(187,187,187)" />
<path d="
  M -0.648 9.504
  C -1.080 9.000 -1.512 8.568 -1.800 8.136
  L 6.696 8.208
  C 6.480 8.856 6.048 9.216 5.832 9.504
  L -0.648 9.504" stroke="none" fill="rgb(187,187,187)" />
<path d="
  M 7.560 9.648
  C 7.488 9.216 7.344 8.640 7.200 8.136
  L 24.480 8.136
  C 24.336 8.496 24.264 9.000 24.120 9.432
  C 24.048 9.504 23.832 9.504 23.760 9.504
  L 7.560 9.648" stroke="none" fill="rgb(187,187,187)" />
<path d="
  M -32.688 8.136
  C -32.544 7.776 -32.328 7.344 -32.184 6.840
  L -31.392 6.840
  C -31.104 7.560 -30.888 7.992 -30.240 8.136
  L -32.688 8.136" stroke="none" fill="rgb(189,189,189)" />
<path d="
  M -28.656 8.136
  C -28.872 7.704 -29.160 7.272 -29.232 6.840
  L 24.192 6.840
  C 24.336 7.200 24.480 7.632 24.480 8.136
  L 7.200 8.136
  C 7.128 7.848 6.912 7.632 6.840 7.344
  C 6.840 7.704 6.768 7.992 6.696 8.208
  L -1.800 8.136
  C -2.088 7.848 -2.232 7.632 -2.448 7.344
  C -2.520 7.632 -2.520 7.992 -2.592 8.208
  L -28.656 8.136" stroke="none" fill="rgb(189,189,189)" />
<path d="
  M -32.184 6.840
  C -31.968 6.408 -31.824 5.976 -31.680 5.544
  L -31.680 5.544
  C -31.536 6.048 -31.464 6.480 -31.392 6.840
  L -32.184 6.840" stroke="none" fill="rgb(189,189,189)" />
<path d="
  M -29.232 6.840
  C -29.376 6.408 -29.520 5.976 -29.520 5.544
  L 16.272 5.544
  C 16.272 5.904 16.272 6.264 16.272 6.552
  C 16.560 6.120 16.920 5.832 17.280 5.544
  L 23.040 5.544
  C 23.544 5.832 23.904 6.336 24.192 6.840
  L -29.232 6.840" stroke="none" fill="rgb(189,189,189)" />
<path d="
  M -31.680 5.544
  C -31.680 5.544 -31.680 5.472 -31.680 5.472
  C -31.680 5.472 -31.680 5.544 -31.680 5.544
  L -31.680 5.544" stroke="none" fill="rgb(192,192,192)" />
<path d="
  M -29.520 5.544
  C -29.592 5.112 -29.520 4.680 -29.376 4.248
  L 7.632 4.248
  C 7.632 4.608 7.632 5.040 7.632 5.472
  C 9.000 4.968 9.720 4.680 10.080 4.248
  L 16.056 4.248
  C 16.128 4.608 16.200 5.040 16.272 5.544
  L -29.520 5.544" stroke="none" fill="rgb(192,192,192)" />
<path d="
  M 17.280 5.544
  C 19.008 4.320 21.528 4.392 23.040 5.544
  L 17.280 5.544" stroke="none" fill="rgb(192,192,192)" />
<path d="
  M -31.752 4.176
  C -31.752 4.320 -31.680 4.392 -31.680 4.536
  C -31.536 4.392 -31.536 4.320 -31.464 4.248
  L -31.752 4.176" stroke="none" fill="rgb(192,192,192)" />
<path d="
  M -31.752 4.176
  C -31.896 3.744 -31.968 3.168 -32.112 2.880
  L -30.096 2.952
  C -30.672 3.312 -31.104 3.744 -31.464 4.248
  L -31.752 4.176" stroke="none" fill="rgb(192,192,192)" />
<path d="
  M -29.376 4.248
  C -29.304 3.744 -29.160 3.312 -28.800 2.952
  L 7.632 2.952
  C 7.632 3.384 7.632 3.816 7.632 4.248
  L -29.376 4.248" stroke="none" fill="rgb(192,192,192)" />
<path d="
  M 10.080 4.248
  C 10.224 3.960 10.296 3.528 10.296 2.952
  L 15.264 2.952
  C 15.624 3.168 15.840 3.672 16.056 4.248
  L 10.080 4.248" stroke="none" fill="rgb(192,192,192)" />
<path d="
  M -32.112 2.880
  C -32.184 2.304 -32.112 1.872 -31.968 1.584
  L 7.560 1.656
  C 7.632 2.088 7.632 2.520 7.632 2.952
  L -28.800 2.952
  C -28.728 2.736 -28.512 2.592 -28.368 2.448
  C -28.944 2.520 -29.592 2.664 -30.096 2.952
  L -32.112 2.880" stroke="none" fill="rgb(194,194,194)" />
<path d="
  M 10.296 2.952
  C 10.296 2.664 10.296 2.304 10.296 2.016
  C 12.816 2.016 14.400 2.088 15.264 2.952
  L 10.296 2.952" stroke="none" fill="rgb(194,194,194)" />
<path d="
  M -31.968 1.584
  C -31.104 -0.864 -25.848 1.152 -23.400 1.152
  C -23.400 0.864 -23.472 0.576 -23.472 0.288
  L 7.128 0.288
  C 7.344 0.720 7.488 1.152 7.560 1.656
  L -31.968 1.584" stroke="none" fill="rgb(197,197,197)" />
<path d="
  M -23.472 0.288
  C -23.472 -0.072 -23.400 -0.576 -23.256 -1.080
  L 6.048 -1.152
  C 6.624 -0.720 6.912 -0.288 7.128 0.288
  L -23.472 0.288" stroke="none" fill="rgb(197,197,197)" />
<path d="
  M -23.256 -1.080
  C -23.184 -1.512 -22.968 -1.944 -22.752 -2.376
  L 2.808 -2.448
  C 2.808 -2.232 2.664 -2.088 2.592 -1.944
  C 4.176 -1.944 5.256 -1.656 6.048 -1.152
  L -23.256 -1.080" stroke="none" fill="rgb(199,199,199)" />
<path d="
  M -22.752 -2.376
  C -22.464 -2.808 -22.104 -3.312 -21.672 -3.672
  L -9.864 -3.672
  C -9.720 -3.672 -9.576 -3.528 -9.360 -3.456
  C -9.360 -3.528 -9.360 -3.672 -9.360 -3.672
  L 2.664 -3.672
  C 2.808 -3.240 2.880 -2.880 2.808 -2.448
  L -22.752 -2.376" stroke="none" fill="rgb(199,199,199)" />
<path d="
  M -21.672 -3.672
  C -21.096 -4.248 -20.232 -4.680 -19.152 -4.968
  L -14.544 -4.968
  C -13.176 -4.752 -11.664 -4.320 -9.864 -3.672
  L -21.672 -3.672" stroke="none" fill="rgb(202,202,202)" />
<path d="
  M -9.360 -3.672
  C -9.360 -4.176 -9.216 -4.608 -9.000 -5.040
  L 2.232 -4.824
  C 2.376 -4.320 2.520 -3.960 2.664 -3.672
  L -9.360 -3.672" stroke="none" fill="rgb(202,202,202)" />
<path d="
  M -19.152 -4.968
  C -17.928 -5.184 -16.488 -5.328 -14.544 -4.968
  L -19.152 -4.968" stroke="none" fill="rgb(202,202,202)" />
<path d="
  M -9.000 -5.040
  C -8.784 -5.472 -8.424 -5.904 -7.992 -6.264
  L 1.728 -6.264
  C 1.872 -6.048 1.944 -5.904 2.016 -5.760
  C 2.088 -5.400 2.160 -5.112 2.232 -4.824
  L -9.000 -5.040" stroke="none" fill="rgb(202,202,202)" />
<path d="
  M -7.992 -6.264
  C -5.400 -8.208 0.072 -7.704 1.728 -6.264
  L -7.992 -6.264" stroke="none" fill="rgb(204,204,204)" />
</g>
</g>
</svg>
