<?xml version="1.0" encoding="ISO-8859-1"?><!DOCTYPE svg PUBLIC "-//W3C//DTD SVG 1.1//EN" "http://www.w3.org/Graphics/SVG/1.1/DTD/svg11.dtd"><svg version="1.1" baseProfile="full" width="100%" height="100%" viewBox="-36.000 -11.376 72.072 29.736" xmlns="http://www.w3.org/2000/svg" xmlns:xlink="http://www.w3.org/1999/xlink">
<g>
<g>
<path d="
  M -13.176 10.296
  C -11.808 10.872 -10.440 11.376 -7.704 11.088
  C -4.824 11.376 -2.808 11.232 -0.792 10.296
  L -13.176 10.296" stroke="none" fill="rgb(128,128,128)" />
<path d="
  M -13.176 10.296
  C -13.896 10.008 -14.832 9.648 -15.912 9.432
  C -16.272 9.360 -16.776 9.144 -17.352 8.856
  L 2.160 8.856
  C 1.080 9.432 0.216 10.008 -0.792 10.296
  L -13.176 10.296" stroke="none" fill="rgb(131,131,131)" />
<path d="
  M -17.352 8.856
  C -18.216 8.496 -19.080 7.848 -19.584 7.272
  L 4.536 7.272
  C 3.600 7.848 2.880 8.352 2.160 8.856
  L -17.352 8.856" stroke="none" fill="rgb(133,133,133)" />
<path d="
  M -31.608 7.272
  C -31.392 7.416 -31.320 7.488 -31.104 7.488
  C -28.656 8.352 -26.208 7.848 -23.688 7.272
  L -31.608 7.272" stroke="none" fill="rgb(133,133,133)" />
<path d="
  M 10.872 7.272
  C 14.472 8.568 18.576 8.568 22.104 7.272
  L 10.872 7.272" stroke="none" fill="rgb(133,133,133)" />
<path d="
  M -31.608 7.272
  C -32.688 6.912 -33.552 6.408 -34.200 5.760
  L 6.696 5.760
  C 5.976 6.336 5.184 6.840 4.536 7.272
  L -19.584 7.272
  C -19.872 7.128 -19.944 6.912 -19.944 6.696
  C -21.240 6.840 -22.536 6.984 -23.688 7.272
  L -31.608 7.272" stroke="none" fill="rgb(136,136,136)" />
<path d="
  M 10.872 7.272
  C 9.720 6.912 8.640 6.408 7.632 5.760
  L 25.344 5.760
  C 24.264 6.408 23.184 6.912 22.104 7.272
  L 10.872 7.272" stroke="none" fill="rgb(136,136,136)" />
<path d="
  M -34.200 5.760
  C -34.704 5.256 -35.136 4.752 -35.424 4.176
  L 31.104 4.176
  C 29.880 4.392 28.656 4.392 27.072 4.392
  C 26.496 4.824 25.920 5.328 25.344 5.760
  L 7.632 5.760
  C 7.488 5.616 7.344 5.544 7.200 5.472
  C 6.984 5.544 6.912 5.616 6.696 5.760
  L -34.200 5.760" stroke="none" fill="rgb(138,138,138)" />
<path d="
  M -35.424 4.176
  C -35.568 3.672 -35.784 3.096 -35.856 2.592
  L 34.992 2.592
  C 34.920 2.808 34.920 2.880 34.776 3.096
  C 33.408 3.672 32.256 3.960 31.104 4.176
  L -35.424 4.176" stroke="none" fill="rgb(141,141,141)" />
<path d="
  M -35.856 2.592
  C -36.000 2.088 -36.000 1.512 -36.000 1.080
  L 35.568 1.080
  C 35.352 1.656 35.208 2.088 34.992 2.592
  L -35.856 2.592" stroke="none" fill="rgb(146,146,146)" />
<path d="
  M -36.000 1.080
  C -35.856 0.576 -35.784 0.072 -35.568 -0.432
  L 35.928 -0.432
  C 35.856 0.072 35.784 0.576 35.568 1.080
  L -36.000 1.080" stroke="none" fill="rgb(146,146,146)" />
<path d="
  M -35.568 -0.432
  C -35.424 -1.008 -35.136 -1.512 -34.704 -1.944
  L 35.928 -1.944
  C 36.072 -1.512 35.928 -1.008 35.928 -0.432
  L -35.568 -0.432" stroke="none" fill="rgb(151,151,151)" />
<path d="
  M -34.704 -1.944
  C -34.488 -2.088 -34.416 -2.304 -34.344 -2.376
  C -34.632 -2.736 -34.848 -3.168 -34.920 -3.528
  L 35.352 -3.528
  C 35.640 -3.024 35.856 -2.592 35.928 -1.944
  L -34.704 -1.944" stroke="none" fill="rgb(153,153,153)" />
<path d="
  M -34.920 -3.528
  C -34.992 -4.032 -35.136 -4.608 -34.992 -5.112
  L 33.624 -5.112
  C 34.416 -4.608 34.992 -4.104 35.352 -3.528
  L -34.920 -3.528" stroke="none" fill="rgb(153,153,153)" />
<path d="
  M -34.992 -5.112
  C -34.920 -5.616 -34.704 -6.192 -34.416 -6.696
  L 24.840 -6.768
  C 25.128 -6.264 25.416 -5.904 25.632 -5.328
  C 27.504 -5.472 30.024 -5.976 31.752 -5.688
  C 32.472 -5.472 33.120 -5.328 33.624 -5.112
  L -34.992 -5.112" stroke="none" fill="rgb(159,159,159)" />
<path d="
  M -34.416 -6.696
  C -34.056 -7.272 -33.624 -7.848 -33.048 -8.208
  L 22.752 -8.208
  C 23.544 -7.920 24.264 -7.416 24.840 -6.768
  L -34.416 -6.696" stroke="none" fill="rgb(161,161,161)" />
<path d="
  M -33.048 -8.208
  C -33.048 -8.208 -32.976 -8.352 -32.976 -8.352
  C -31.104 -9.792 -28.152 -9.576 -25.272 -9.576
  C -25.272 -9.576 -25.272 -9.720 -25.272 -9.720
  L 14.328 -9.720
  C 14.328 -9.288 14.328 -8.928 14.328 -8.496
  C 17.712 -8.928 20.664 -9.072 22.752 -8.208
  L -33.048 -8.208" stroke="none" fill="rgb(164,164,164)" />
<path d="
  M -25.272 -9.720
  C -25.056 -10.296 -24.768 -10.728 -24.336 -11.232
  L 14.112 -11.232
  C 14.184 -10.728 14.184 -10.152 14.328 -9.720
  L -25.272 -9.720" stroke="none" fill="rgb(166,166,166)" />
<path d="
  M -24.336 -11.232
  C -23.904 -11.808 -23.400 -12.312 -22.680 -12.816
  L 13.680 -12.816
  C 13.896 -12.312 14.040 -11.808 14.112 -11.232
  L -24.336 -11.232" stroke="none" fill="rgb(169,169,169)" />
<path d="
  M -22.680 -12.816
  C -21.816 -13.464 -20.664 -13.968 -19.512 -14.400
  L -8.928 -14.400
  C -8.280 -14.112 -7.560 -13.752 -6.984 -13.392
  C -6.912 -13.752 -6.840 -14.112 -6.696 -14.400
  L 13.032 -14.400
  C 13.320 -13.896 13.608 -13.320 13.680 -12.816
  L -22.680 -12.816" stroke="none" fill="rgb(171,171,171)" />
<path d="
  M -19.512 -14.400
  C -16.200 -15.552 -12.168 -15.624 -8.928 -14.400
  L -19.512 -14.400" stroke="none" fill="rgb(174,174,174)" />
<path d="
  M -6.696 -14.400
  C -6.408 -14.976 -5.904 -15.408 -5.328 -15.912
  L 11.664 -15.912
  C 12.168 -15.408 12.672 -14.976 13.032 -14.400
  L -6.696 -14.400" stroke="none" fill="rgb(174,174,174)" />
<path d="
  M -5.328 -15.912
  C -4.464 -16.632 -3.168 -17.136 -1.800 -17.496
  L 8.424 -17.496
  C 9.792 -17.136 10.800 -16.632 11.664 -15.912
  L -5.328 -15.912" stroke="none" fill="rgb(176,176,176)" />
<path d="
  M -1.800 -17.496
  C 1.008 -18.288 4.608 -18.360 7.344 -17.784
  C 7.776 -17.712 8.136 -17.568 8.424 -17.496
  L -1.800 -17.496" stroke="none" fill="rgb(179,179,179)" />
</g>
<g>
<path d="
  M -14.616 5.472
  C -14.616 5.472 -14.616 5.544 -14.544 5.544
  C -11.088 6.336 -8.208 6.480 -5.616 5.472
  L -14.616 5.472" stroke="none" fill="rgb(179,179,179)" />
<path d="
  M -14.616 5.472
  C -15.120 5.040 -15.192 4.680 -14.976 4.248
  L -3.600 4.248
  C -4.248 4.752 -4.968 5.112 -5.616 5.472
  L -14.616 5.472" stroke="none" fill="rgb(182,182,182)" />
<path d="
  M -14.976 4.248
  C -14.832 3.888 -14.544 3.456 -14.040 3.096
  L -5.760 3.096
  C -5.112 3.600 -4.104 4.104 -3.456 4.176
  C -3.456 4.176 -3.600 4.248 -3.600 4.248
  L -14.976 4.248" stroke="none" fill="rgb(182,182,182)" />
<path d="
  M -31.968 3.096
  C -30.816 4.104 -29.160 3.888 -27.576 3.096
  L -31.968 3.096" stroke="none" fill="rgb(182,182,182)" />
<path d="
  M -3.600 3.096
  C -1.656 3.312 0.504 3.456 2.448 3.096
  L -3.600 3.096" stroke="none" fill="rgb(182,182,182)" />
<path d="
  M 21.600 3.096
  C 22.032 3.168 22.176 3.312 21.816 3.312
  C 22.608 3.456 23.256 3.384 23.832 3.096
  L 21.600 3.096" stroke="none" fill="rgb(182,182,182)" />
<path d="
  M -31.968 3.096
  C -32.400 2.808 -32.688 2.448 -32.832 1.800
  L -22.536 1.800
  C -23.112 2.304 -23.400 2.592 -24.336 1.944
  C -24.696 3.312 -28.152 1.728 -26.424 2.448
  C -26.784 2.736 -27.216 2.880 -27.576 3.096
  L -31.968 3.096" stroke="none" fill="rgb(184,184,184)" />
<path d="
  M -14.040 3.096
  C -13.464 2.592 -12.744 2.232 -12.168 1.800
  L 3.312 1.800
  C 3.600 2.088 3.960 2.304 4.320 2.592
  C 3.744 2.808 3.024 3.024 2.448 3.096
  L -3.600 3.096
  C -4.464 2.880 -5.328 2.808 -6.120 2.592
  C -6.048 2.808 -5.904 2.880 -5.760 3.096
  L -14.040 3.096" stroke="none" fill="rgb(184,184,184)" />
<path d="
  M 21.600 3.096
  C 20.736 2.808 18.504 2.304 17.496 1.800
  L 25.488 1.800
  C 25.056 2.448 24.480 2.808 23.832 3.096
  L 21.600 3.096" stroke="none" fill="rgb(184,184,184)" />
<path d="
  M -32.832 1.800
  C -32.832 1.800 -32.976 1.728 -32.976 1.656
  C -33.048 1.368 -33.120 0.936 -33.120 0.648
  L -20.088 0.648
  C -20.160 0.720 -20.160 0.864 -20.160 1.080
  C -21.456 1.080 -22.032 1.512 -22.536 1.800
  L -32.832 1.800" stroke="none" fill="rgb(184,184,184)" />
<path d="
  M -12.168 1.800
  C -11.520 1.368 -10.872 1.080 -10.800 0.864
  C -14.400 0.864 -16.200 2.520 -16.920 0.648
  L 2.376 0.720
  C 2.592 1.152 2.952 1.440 3.312 1.800
  L -12.168 1.800" stroke="none" fill="rgb(184,184,184)" />
<path d="
  M 17.496 1.800
  C 17.208 1.728 17.064 1.512 17.064 1.440
  C 15.048 1.440 14.472 1.224 14.112 0.648
  L 26.712 0.648
  C 26.280 1.080 25.920 1.440 25.488 1.800
  L 17.496 1.800" stroke="none" fill="rgb(184,184,184)" />
<path d="
  M 6.192 0.648
  C 7.776 1.512 9.720 1.944 11.880 0.720
  L 6.192 0.648" stroke="none" fill="rgb(184,184,184)" />
<path d="
  M -33.120 0.648
  C -33.120 0.288 -33.048 -0.144 -32.832 -0.504
  L 1.944 -0.432
  C 2.088 -0.000 2.160 0.360 2.376 0.720
  L -16.920 0.648
  C -17.064 0.432 -17.136 0.144 -17.280 -0.216
  C -17.568 0.864 -19.584 -0.000 -20.088 0.648
  L -33.120 0.648" stroke="none" fill="rgb(187,187,187)" />
<path d="
  M 6.192 0.648
  C 5.616 0.360 4.968 -0.000 4.536 -0.504
  L 11.592 -0.504
  C 11.448 -0.216 11.592 -0.000 12.312 0.360
  C 12.168 0.432 11.952 0.576 11.880 0.720
  L 6.192 0.648" stroke="none" fill="rgb(187,187,187)" />
<path d="
  M 14.112 0.648
  C 13.896 0.360 13.824 -0.000 13.680 -0.504
  L 31.752 -0.504
  C 30.312 -0.144 30.384 -0.504 28.152 -0.504
  C 27.648 -0.216 27.144 0.144 26.712 0.648
  L 14.112 0.648" stroke="none" fill="rgb(187,187,187)" />
<path d="
  M -32.832 -0.504
  C -32.760 -0.936 -32.544 -1.368 -32.400 -1.800
  L 2.088 -1.656
  C 1.944 -1.296 1.944 -0.792 1.944 -0.432
  L -32.832 -0.504" stroke="none" fill="rgb(187,187,187)" />
<path d="
  M 4.536 -0.504
  C 3.960 -0.936 3.456 -1.368 3.024 -1.800
  L 12.672 -1.656
  C 12.312 -1.080 11.736 -0.792 11.592 -0.504
  L 4.536 -0.504" stroke="none" fill="rgb(187,187,187)" />
<path d="
  M 13.680 -0.504
  C 13.608 -0.792 13.536 -1.296 13.248 -1.800
  L 32.904 -1.800
  C 32.832 -1.512 32.760 -1.080 32.544 -0.720
  C 32.256 -0.576 31.968 -0.504 31.752 -0.504
  L 13.680 -0.504" stroke="none" fill="rgb(187,187,187)" />
<path d="
  M -32.400 -1.800
  C -32.184 -2.160 -31.896 -2.592 -31.680 -2.952
  L -30.744 -2.952
  C -30.312 -1.944 -29.736 -1.800 -27.504 -1.800
  C -27.792 -2.160 -28.080 -2.592 -28.296 -2.952
  L 32.760 -3.024
  C 32.832 -2.664 32.904 -2.304 32.904 -1.800
  L 13.248 -1.800
  C 13.104 -1.944 13.032 -2.304 12.816 -2.592
  C 12.816 -2.304 12.744 -1.944 12.672 -1.656
  L 3.024 -1.800
  C 2.736 -2.088 2.448 -2.376 2.304 -2.592
  C 2.160 -2.304 2.088 -1.944 2.088 -1.656
  L -32.400 -1.800" stroke="none" fill="rgb(189,189,189)" />
<path d="
  M -31.680 -2.952
  C -31.464 -3.312 -31.320 -3.816 -31.104 -4.248
  L -31.104 -4.248
  C -31.032 -3.744 -30.888 -3.312 -30.744 -2.952
  L -31.680 -2.952" stroke="none" fill="rgb(189,189,189)" />
<path d="
  M -28.296 -2.952
  C -28.440 -3.312 -28.584 -3.816 -28.656 -4.248
  L 23.688 -4.320
  C 23.688 -4.032 23.688 -3.600 23.688 -3.312
  C 23.976 -3.744 24.336 -4.032 24.768 -4.248
  L 31.536 -4.248
  C 32.040 -3.960 32.472 -3.528 32.760 -3.024
  L -28.296 -2.952" stroke="none" fill="rgb(189,189,189)" />
<path d="
  M -31.104 -4.248
  C -31.104 -4.248 -31.104 -4.320 -31.104 -4.320
  C -31.104 -4.320 -31.104 -4.248 -31.104 -4.248
  L -31.104 -4.248" stroke="none" fill="rgb(192,192,192)" />
<path d="
  M -28.656 -4.248
  C -28.656 -4.608 -28.656 -4.968 -28.584 -5.400
  L 13.824 -5.400
  C 13.824 -5.112 13.824 -4.680 13.824 -4.320
  C 15.336 -4.680 16.056 -4.968 16.416 -5.400
  L 23.400 -5.400
  C 23.472 -5.112 23.544 -4.680 23.688 -4.320
  L -28.656 -4.248" stroke="none" fill="rgb(192,192,192)" />
<path d="
  M 24.768 -4.248
  C 26.784 -5.400 29.808 -5.328 31.536 -4.248
  L 24.768 -4.248" stroke="none" fill="rgb(192,192,192)" />
<path d="
  M -31.176 -5.400
  C -31.176 -5.400 -31.104 -5.328 -31.104 -5.184
  C -31.104 -5.328 -31.032 -5.328 -31.032 -5.400
  L -31.176 -5.400" stroke="none" fill="rgb(192,192,192)" />
<path d="
  M -31.176 -5.400
  C -31.392 -5.904 -31.464 -6.264 -31.608 -6.696
  L -29.376 -6.552
  C -30.024 -6.264 -30.600 -5.904 -31.032 -5.400
  L -31.176 -5.400" stroke="none" fill="rgb(192,192,192)" />
<path d="
  M -28.584 -5.400
  C -28.440 -5.760 -28.296 -6.264 -27.864 -6.552
  L 13.824 -6.552
  C 13.824 -6.192 13.824 -5.760 13.824 -5.400
  L -28.584 -5.400" stroke="none" fill="rgb(192,192,192)" />
<path d="
  M 16.416 -5.400
  C 16.704 -5.688 16.848 -5.976 16.848 -6.552
  L 22.608 -6.552
  C 22.968 -6.264 23.256 -5.904 23.400 -5.400
  L 16.416 -5.400" stroke="none" fill="rgb(192,192,192)" />
<path d="
  M -31.608 -6.696
  C -31.680 -7.128 -31.608 -7.560 -31.464 -7.848
  L 13.680 -7.848
  C 13.824 -7.416 13.824 -7.056 13.824 -6.552
  L -27.864 -6.552
  C -27.792 -6.768 -27.576 -6.984 -27.288 -7.128
  C -28.008 -7.056 -28.728 -6.840 -29.376 -6.552
  L -31.608 -6.696" stroke="none" fill="rgb(194,194,194)" />
<path d="
  M 16.848 -6.552
  C 16.848 -6.840 16.848 -7.128 16.848 -7.560
  C 19.728 -7.560 21.600 -7.416 22.608 -6.552
  L 16.848 -6.552" stroke="none" fill="rgb(194,194,194)" />
<path d="
  M -31.464 -7.848
  C -30.456 -10.080 -24.480 -8.352 -21.744 -8.352
  C -21.744 -8.496 -21.816 -8.712 -21.816 -9.000
  L 13.320 -9.000
  C 13.536 -8.640 13.608 -8.208 13.680 -7.848
  L -31.464 -7.848" stroke="none" fill="rgb(197,197,197)" />
<path d="
  M -21.816 -9.000
  C -21.816 -9.360 -21.744 -9.792 -21.528 -10.296
  L 11.952 -10.296
  C 12.528 -10.008 13.032 -9.504 13.320 -9.000
  L -21.816 -9.000" stroke="none" fill="rgb(197,197,197)" />
<path d="
  M -21.528 -10.296
  C -21.456 -10.656 -21.240 -11.088 -21.024 -11.448
  L 8.136 -11.448
  C 8.064 -11.376 8.064 -11.160 7.920 -11.088
  C 9.792 -11.088 11.088 -10.728 11.952 -10.296
  L -21.528 -10.296" stroke="none" fill="rgb(199,199,199)" />
<path d="
  M -21.024 -11.448
  C -20.736 -11.808 -20.376 -12.240 -19.872 -12.600
  L -5.904 -12.600
  C -5.832 -12.600 -5.760 -12.528 -5.616 -12.528
  C -5.616 -12.528 -5.616 -12.600 -5.616 -12.600
  L 8.136 -12.600
  C 8.280 -12.240 8.280 -11.952 8.136 -11.448
  L -21.024 -11.448" stroke="none" fill="rgb(199,199,199)" />
<path d="
  M -19.872 -12.600
  C -19.080 -13.176 -18.000 -13.680 -16.560 -13.896
  L -11.592 -13.896
  C -9.936 -13.680 -8.064 -13.320 -5.904 -12.600
  L -19.872 -12.600" stroke="none" fill="rgb(202,202,202)" />
<path d="
  M -5.616 -12.600
  C -5.616 -13.104 -5.544 -13.464 -5.256 -13.896
  L 7.632 -13.896
  C 7.848 -13.392 7.920 -13.032 8.136 -12.600
  L -5.616 -12.600" stroke="none" fill="rgb(202,202,202)" />
<path d="
  M -16.560 -13.896
  C -15.264 -14.184 -13.608 -14.184 -11.592 -13.896
  L -16.560 -13.896" stroke="none" fill="rgb(202,202,202)" />
<path d="
  M -5.256 -13.896
  C -5.040 -14.400 -4.536 -14.760 -4.104 -15.048
  L 7.056 -15.048
  C 7.200 -14.976 7.272 -14.760 7.344 -14.688
  C 7.488 -14.400 7.560 -14.112 7.632 -13.896
  L -5.256 -13.896" stroke="none" fill="rgb(202,202,202)" />
<path d="
  M -4.104 -15.048
  C -1.080 -16.992 5.472 -16.488 7.056 -15.048
  L -4.104 -15.048" stroke="none" fill="rgb(204,204,204)" />
</g>
</g>
</svg>
