<?xml version="1.0" encoding="ISO-8859-1"?><!DOCTYPE svg PUBLIC "-//W3C//DTD SVG 1.1//EN" "http://www.w3.org/Graphics/SVG/1.1/DTD/svg11.dtd"><svg version="1.1" baseProfile="full" width="100%" height="100%" viewBox="-36.000 -22.320 71.928 44.640" xmlns="http://www.w3.org/2000/svg" xmlns:xlink="http://www.w3.org/1999/xlink">
<g>
<g>
<g>
<path d="
  M 4.968 -2.304
  L 5.472 -2.448
  L 4.968 -2.520
  L 4.968 -2.304" stroke="none" fill="rgb(255,255,54)" />
<path d="
  M 2.952 -11.016
  L 3.528 -11.376
  L 2.808 -11.160
  L 2.952 -11.016" stroke="none" fill="rgb(255,255,54)" />
<path d="
  M -2.376 -17.784
  L -2.160 -18.288
  L -2.592 -17.928
  L -2.376 -17.784" stroke="none" fill="rgb(255,255,54)" />
<path d="
  M -10.296 -21.744
  L -10.296 -22.032
  L -10.368 -21.744
  L -10.296 -21.744" stroke="none" fill="rgb(255,255,54)" />
<path d="
  M -19.224 -22.032
  L -19.296 -22.320
  L -19.296 -22.032
  L -19.224 -22.032" stroke="none" fill="rgb(255,255,54)" />
<path d="
  M -27.360 -18.360
  L -27.792 -18.792
  L -27.504 -18.288
  L -27.360 -18.360" stroke="none" fill="rgb(255,255,54)" />
<path d="
  M -35.496 -2.520
  L -36.000 -2.448
  L -35.496 -2.304
  L -35.496 -2.520" stroke="none" fill="rgb(255,255,54)" />
<path d="
  M -19.512 17.496
  L -19.512 17.856
  L -19.296 17.496
  L -19.512 17.496" stroke="none" fill="rgb(255,255,54)" />
<path d="
  M -10.728 17.352
  L -10.656 17.640
  L -10.656 17.280
  L -10.728 17.352" stroke="none" fill="rgb(255,255,54)" />
<path d="
  M -2.520 13.248
  L -1.872 13.824
  L -2.232 13.032
  L -2.520 13.248" stroke="none" fill="rgb(255,255,54)" />
<path d="
  M 2.952 6.336
  L 4.104 6.768
  L 3.096 5.976
  C 3.168 6.048 3.096 6.192 2.952 6.336" stroke="none" fill="rgb(255,255,54)" />
<path d="
  M 4.968 -2.304
  L 3.528 -2.160
  C 3.528 -2.304 3.528 -2.592 3.456 -2.880
  L 4.968 -2.520
  L 4.968 -2.304" stroke="none" fill="rgb(255,255,67)" />
<path d="
  M 2.952 -11.016
  L 1.872 -10.224
  C 1.728 -10.368 1.656 -10.584 1.368 -10.944
  L 2.808 -11.160
  L 2.952 -11.016" stroke="none" fill="rgb(255,255,67)" />
<path d="
  M -2.376 -17.784
  L -3.240 -16.560
  C -3.312 -16.776 -3.456 -16.992 -3.744 -16.992
  L -2.592 -17.928
  L -2.376 -17.784" stroke="none" fill="rgb(255,255,67)" />
<path d="
  M -10.296 -21.744
  L -10.440 -20.448
  C -10.728 -20.520 -10.800 -20.520 -10.872 -20.520
  L -10.368 -21.744
  L -10.296 -21.744" stroke="none" fill="rgb(255,255,67)" />
<path d="
  M -19.224 -22.032
  L -18.648 -20.664
  C -18.792 -20.664 -18.936 -20.664 -19.224 -20.592
  L -19.296 -22.032
  L -19.224 -22.032" stroke="none" fill="rgb(255,255,67)" />
<path d="
  M -27.360 -18.360
  L -26.280 -17.352
  C -26.424 -17.352 -26.640 -17.280 -26.712 -16.992
  L -27.504 -18.288
  L -27.360 -18.360" stroke="none" fill="rgb(255,255,67)" />
<path d="
  M -35.496 -2.520
  L -34.056 -2.664
  C -34.056 -2.520 -34.056 -2.304 -34.056 -2.160
  L -35.496 -2.304
  L -35.496 -2.520" stroke="none" fill="rgb(255,255,67)" />
<path d="
  M -19.512 17.496
  L -19.296 16.056
  C -19.008 16.128 -18.864 16.128 -18.792 16.128
  L -19.296 17.496
  L -19.512 17.496" stroke="none" fill="rgb(255,255,67)" />
<path d="
  M -10.728 17.352
  L -11.160 16.056
  C -11.088 16.056 -10.872 15.912 -10.512 15.840
  L -10.656 17.280
  L -10.728 17.352" stroke="none" fill="rgb(255,255,67)" />
<path d="
  M -2.520 13.248
  L -3.456 12.240
  C -3.240 12.168 -3.024 11.952 -2.880 11.664
  L -2.232 13.032
  L -2.520 13.248" stroke="none" fill="rgb(255,255,67)" />
<path d="
  M 2.952 6.336
  L 1.656 5.904
  C 1.872 5.544 1.944 5.256 2.016 5.184
  L 3.096 5.976
  C 3.168 6.048 3.096 6.192 2.952 6.336" stroke="none" fill="rgb(255,255,67)" />
<path d="
  M -32.040 -10.656
  L -33.048 -10.944
  L -32.256 -10.368
  C -32.256 -10.368 -32.256 -10.440 -32.040 -10.656" stroke="none" fill="rgb(255,255,67)" />
<path d="
  M -32.328 5.472
  L -33.408 6.048
  L -32.112 5.688
  C -32.328 5.544 -32.328 5.472 -32.328 5.472" stroke="none" fill="rgb(255,255,67)" />
<path d="
  M -27.072 12.168
  L -27.504 12.744
  L -26.928 12.240
  L -27.072 12.168" stroke="none" fill="rgb(255,255,67)" />
<path d="
  M 3.456 -2.880
  L 2.016 -3.168
  C 2.088 -2.664 2.088 -2.304 2.088 -1.944
  L 3.528 -2.160
  C 3.528 -2.304 3.528 -2.592 3.456 -2.880" stroke="none" fill="rgb(255,255,77)" />
<path d="
  M 1.872 -10.224
  L 0.576 -9.360
  C 0.504 -9.648 0.288 -10.080 -0.072 -10.584
  L 1.368 -10.944
  C 1.656 -10.584 1.728 -10.368 1.872 -10.224" stroke="none" fill="rgb(255,255,77)" />
<path d="
  M -3.240 -16.560
  L -3.960 -15.336
  C -4.248 -15.696 -4.464 -15.912 -4.824 -16.056
  L -3.744 -16.992
  C -3.456 -16.992 -3.312 -16.776 -3.240 -16.560" stroke="none" fill="rgb(255,255,77)" />
<path d="
  M -10.440 -20.448
  L -10.656 -18.864
  C -11.016 -19.080 -11.232 -19.152 -11.448 -19.152
  L -10.872 -20.520
  C -10.800 -20.520 -10.728 -20.520 -10.440 -20.448" stroke="none" fill="rgb(255,255,77)" />
<path d="
  M -18.648 -20.664
  L -18.144 -19.368
  C -18.288 -19.368 -18.648 -19.224 -19.152 -19.152
  L -19.224 -20.592
  C -18.936 -20.664 -18.792 -20.664 -18.648 -20.664" stroke="none" fill="rgb(255,255,77)" />
<path d="
  M -26.280 -17.352
  L -25.272 -16.344
  C -25.560 -16.272 -25.848 -15.984 -26.064 -15.696
  L -26.712 -16.992
  C -26.640 -17.280 -26.424 -17.352 -26.280 -17.352" stroke="none" fill="rgb(255,255,77)" />
<path d="
  M -32.040 -10.656
  L -30.600 -10.224
  C -30.888 -9.936 -30.960 -9.648 -31.032 -9.432
  L -32.256 -10.368
  C -32.256 -10.368 -32.256 -10.440 -32.040 -10.656" stroke="none" fill="rgb(255,255,77)" />
<path d="
  M -34.056 -2.664
  L -32.472 -2.880
  C -32.616 -2.520 -32.616 -2.232 -32.472 -1.872
  L -34.056 -2.160
  C -34.056 -2.304 -34.056 -2.520 -34.056 -2.664" stroke="none" fill="rgb(255,255,77)" />
<path d="
  M -32.328 5.472
  L -31.176 4.608
  C -31.032 4.824 -30.960 5.112 -30.672 5.328
  L -32.112 5.688
  C -32.328 5.544 -32.328 5.472 -32.328 5.472" stroke="none" fill="rgb(255,255,77)" />
<path d="
  M -27.072 12.168
  L -26.352 10.872
  C -26.208 11.160 -25.992 11.304 -25.848 11.304
  L -26.928 12.240
  L -27.072 12.168" stroke="none" fill="rgb(255,255,77)" />
<path d="
  M -19.296 16.056
  L -19.224 14.544
  C -18.792 14.688 -18.432 14.760 -18.144 14.760
  L -18.792 16.128
  C -18.864 16.128 -19.008 16.128 -19.296 16.056" stroke="none" fill="rgb(255,255,77)" />
<path d="
  M -11.160 16.056
  L -11.592 14.688
  C -11.376 14.544 -11.016 14.472 -10.512 14.328
  L -10.512 15.840
  C -10.872 15.912 -11.088 16.056 -11.160 16.056" stroke="none" fill="rgb(255,255,77)" />
<path d="
  M -3.456 12.240
  L -4.464 11.160
  C -4.104 10.944 -3.744 10.656 -3.456 10.440
  L -2.880 11.664
  C -3.024 11.952 -3.240 12.168 -3.456 12.240" stroke="none" fill="rgb(255,255,77)" />
<path d="
  M 1.656 5.904
  L 0.216 5.328
  C 0.576 4.896 0.792 4.464 0.864 4.176
  L 2.016 5.184
  C 1.944 5.256 1.872 5.544 1.656 5.904" stroke="none" fill="rgb(255,255,77)" />
<path d="
  M 2.016 -3.168
  L 0.576 -3.384
  C 0.648 -2.880 0.648 -2.304 0.576 -1.728
  L 2.088 -1.944
  C 2.088 -2.304 2.088 -2.664 2.016 -3.168" stroke="none" fill="rgb(255,255,87)" />
<path d="
  M 0.576 -9.360
  L -0.576 -8.496
  C -0.792 -9.072 -1.152 -9.648 -1.584 -10.296
  L -0.072 -10.584
  C 0.288 -10.080 0.504 -9.648 0.576 -9.360" stroke="none" fill="rgb(255,255,87)" />
<path d="
  M -3.960 -15.336
  L -4.752 -14.112
  C -5.112 -14.544 -5.544 -14.904 -6.048 -15.120
  L -4.824 -16.056
  C -4.464 -15.912 -4.248 -15.696 -3.960 -15.336" stroke="none" fill="rgb(255,255,87)" />
<path d="
  M -10.656 -18.864
  L -10.728 -17.424
  C -11.160 -17.640 -11.592 -17.784 -12.024 -17.784
  L -11.448 -19.152
  C -11.232 -19.152 -11.016 -19.080 -10.656 -18.864" stroke="none" fill="rgb(255,255,87)" />
<path d="
  M -18.144 -19.368
  L -17.496 -17.928
  C -18.072 -17.928 -18.576 -17.784 -19.152 -17.640
  L -19.152 -19.152
  C -18.648 -19.224 -18.288 -19.368 -18.144 -19.368" stroke="none" fill="rgb(255,255,87)" />
<path d="
  M -25.272 -16.344
  L -24.264 -15.336
  C -24.624 -15.120 -24.984 -14.832 -25.272 -14.472
  L -26.064 -15.696
  C -25.848 -15.984 -25.560 -16.272 -25.272 -16.344" stroke="none" fill="rgb(255,255,87)" />
<path d="
  M -30.600 -10.224
  L -29.160 -9.864
  C -29.520 -9.432 -29.736 -9.000 -29.808 -8.640
  L -31.032 -9.432
  C -30.960 -9.648 -30.888 -9.936 -30.600 -10.224" stroke="none" fill="rgb(255,255,87)" />
<path d="
  M -32.472 -2.880
  L -31.032 -3.024
  C -31.176 -2.592 -31.176 -2.160 -31.032 -1.728
  L -32.472 -1.872
  C -32.616 -2.232 -32.616 -2.520 -32.472 -2.880" stroke="none" fill="rgb(255,255,87)" />
<path d="
  M -31.176 4.608
  L -29.880 3.816
  C -29.808 4.176 -29.520 4.608 -29.232 4.968
  L -30.672 5.328
  C -30.960 5.112 -31.032 4.824 -31.176 4.608" stroke="none" fill="rgb(255,255,87)" />
<path d="
  M -26.352 10.872
  L -25.560 9.576
  C -25.344 9.936 -24.984 10.224 -24.624 10.440
  L -25.848 11.304
  C -25.992 11.304 -26.208 11.160 -26.352 10.872" stroke="none" fill="rgb(255,255,87)" />
<path d="
  M -19.224 14.544
  L -19.008 13.032
  C -18.504 13.248 -17.928 13.320 -17.496 13.320
  L -18.144 14.760
  C -18.432 14.760 -18.792 14.688 -19.224 14.544" stroke="none" fill="rgb(255,255,87)" />
<path d="
  M -11.592 14.688
  L -12.096 13.248
  C -11.592 13.104 -11.088 13.032 -10.440 12.744
  L -10.512 14.328
  C -11.016 14.472 -11.376 14.544 -11.592 14.688" stroke="none" fill="rgb(255,255,87)" />
<path d="
  M -4.464 11.160
  L -5.472 10.152
  C -4.968 9.864 -4.464 9.432 -4.104 9.000
  L -3.456 10.440
  C -3.744 10.656 -4.104 10.944 -4.464 11.160" stroke="none" fill="rgb(255,255,87)" />
<path d="
  M 0.216 5.328
  L -1.152 4.824
  C -0.792 4.248 -0.504 3.744 -0.432 3.168
  L 0.864 4.176
  C 0.792 4.464 0.576 4.896 0.216 5.328" stroke="none" fill="rgb(255,255,87)" />
<path d="
  M 0.576 -3.384
  L -0.864 -3.672
  C -0.792 -2.952 -0.792 -2.232 -0.864 -1.512
  L 0.576 -1.728
  C 0.648 -2.304 0.648 -2.880 0.576 -3.384" stroke="none" fill="rgb(255,255,97)" />
<path d="
  M -0.576 -8.496
  L -1.872 -7.632
  C -2.160 -8.352 -2.520 -9.216 -3.024 -9.936
  L -1.584 -10.296
  C -1.152 -9.648 -0.792 -9.072 -0.576 -8.496" stroke="none" fill="rgb(255,255,97)" />
<path d="
  M -4.752 -14.112
  L -5.544 -12.960
  C -6.048 -13.464 -6.552 -13.824 -7.128 -14.184
  L -6.048 -15.120
  C -5.544 -14.904 -5.112 -14.544 -4.752 -14.112" stroke="none" fill="rgb(255,255,97)" />
<path d="
  M -10.728 -17.424
  L -10.872 -15.984
  C -11.520 -16.272 -12.096 -16.344 -12.528 -16.416
  L -12.024 -17.784
  C -11.592 -17.784 -11.160 -17.640 -10.728 -17.424" stroke="none" fill="rgb(255,255,97)" />
<path d="
  M -17.496 -17.928
  L -16.992 -16.560
  C -17.712 -16.560 -18.288 -16.416 -19.008 -16.200
  L -19.152 -17.640
  C -18.576 -17.784 -18.072 -17.928 -17.496 -17.928" stroke="none" fill="rgb(255,255,97)" />
<path d="
  M -24.264 -15.336
  L -23.184 -14.400
  C -23.760 -14.040 -24.192 -13.680 -24.552 -13.248
  L -25.272 -14.472
  C -24.984 -14.832 -24.624 -15.120 -24.264 -15.336" stroke="none" fill="rgb(255,255,97)" />
<path d="
  M -29.160 -9.864
  L -27.720 -9.432
  C -28.152 -8.928 -28.440 -8.280 -28.512 -7.848
  L -29.808 -8.640
  C -29.736 -9.000 -29.520 -9.432 -29.160 -9.864" stroke="none" fill="rgb(255,255,97)" />
<path d="
  M -31.032 -3.024
  L -29.592 -3.312
  C -29.736 -2.664 -29.736 -2.088 -29.592 -1.440
  L -31.032 -1.728
  C -31.176 -2.160 -31.176 -2.592 -31.032 -3.024" stroke="none" fill="rgb(255,255,97)" />
<path d="
  M -29.880 3.816
  L -28.656 3.024
  C -28.440 3.528 -28.152 4.104 -27.792 4.608
  L -29.232 4.968
  C -29.520 4.608 -29.808 4.176 -29.880 3.816" stroke="none" fill="rgb(255,255,97)" />
<path d="
  M -25.560 9.576
  L -24.840 8.424
  C -24.480 8.856 -23.976 9.216 -23.472 9.504
  L -24.624 10.440
  C -24.984 10.224 -25.344 9.936 -25.560 9.576" stroke="none" fill="rgb(255,255,97)" />
<path d="
  M -19.008 13.032
  L -18.936 11.592
  C -18.216 11.880 -17.568 11.952 -16.848 11.952
  L -17.496 13.320
  C -17.928 13.320 -18.504 13.248 -19.008 13.032" stroke="none" fill="rgb(255,255,97)" />
<path d="
  M -12.096 13.248
  L -12.528 11.880
  C -11.880 11.808 -11.160 11.592 -10.368 11.232
  L -10.440 12.744
  C -11.088 13.032 -11.592 13.104 -12.096 13.248" stroke="none" fill="rgb(255,255,97)" />
<path d="
  M -5.472 10.152
  L -6.480 9.144
  C -5.832 8.712 -5.328 8.136 -4.752 7.632
  L -4.104 9.000
  C -4.464 9.432 -4.968 9.864 -5.472 10.152" stroke="none" fill="rgb(255,255,97)" />
<path d="
  M -1.152 4.824
  L -2.520 4.248
  C -2.016 3.672 -1.800 2.952 -1.584 2.304
  L -0.432 3.168
  C -0.504 3.744 -0.792 4.248 -1.152 4.824" stroke="none" fill="rgb(255,255,97)" />
<path d="
  M -0.864 -3.672
  L -2.376 -4.032
  C -2.232 -3.168 -2.232 -2.232 -2.304 -1.368
  L -0.864 -1.512
  C -0.792 -2.232 -0.792 -2.952 -0.864 -3.672" stroke="none" fill="rgb(255,255,108)" />
<path d="
  M -1.872 -7.632
  L -3.024 -6.840
  C -3.384 -7.776 -3.888 -8.712 -4.608 -9.648
  L -3.024 -9.936
  C -2.520 -9.216 -2.160 -8.352 -1.872 -7.632" stroke="none" fill="rgb(255,255,108)" />
<path d="
  M -5.544 -12.960
  L -6.264 -11.808
  C -6.912 -12.384 -7.632 -12.888 -8.352 -13.248
  L -7.128 -14.184
  C -6.552 -13.824 -6.048 -13.464 -5.544 -12.960" stroke="none" fill="rgb(255,255,108)" />
<path d="
  M -10.872 -15.984
  L -11.088 -14.544
  C -11.808 -14.832 -12.528 -14.976 -13.176 -15.120
  L -12.528 -16.416
  C -12.096 -16.344 -11.520 -16.272 -10.872 -15.984" stroke="none" fill="rgb(255,255,108)" />
<path d="
  M -16.992 -16.560
  L -16.416 -15.192
  C -17.208 -15.192 -18.144 -14.976 -18.936 -14.616
  L -19.008 -16.200
  C -18.288 -16.416 -17.712 -16.560 -16.992 -16.560" stroke="none" fill="rgb(255,255,108)" />
<path d="
  M -23.184 -14.400
  L -22.104 -13.320
  C -22.752 -12.960 -23.400 -12.528 -23.832 -12.024
  L -24.552 -13.248
  C -24.192 -13.680 -23.760 -14.040 -23.184 -14.400" stroke="none" fill="rgb(255,255,108)" />
<path d="
  M -27.720 -9.432
  L -26.280 -9.000
  C -26.784 -8.352 -27.144 -7.632 -27.360 -6.912
  L -28.512 -7.848
  C -28.440 -8.280 -28.152 -8.928 -27.720 -9.432" stroke="none" fill="rgb(255,255,108)" />
<path d="
  M -29.592 -3.312
  L -28.152 -3.528
  C -28.224 -2.664 -28.224 -1.944 -28.152 -1.224
  L -29.592 -1.440
  C -29.736 -2.088 -29.736 -2.664 -29.592 -3.312" stroke="none" fill="rgb(255,255,108)" />
<path d="
  M -28.656 3.024
  L -27.360 2.304
  C -27.144 2.952 -26.784 3.672 -26.352 4.248
  L -27.792 4.608
  C -28.152 4.104 -28.440 3.528 -28.656 3.024" stroke="none" fill="rgb(255,255,108)" />
<path d="
  M -24.840 8.424
  L -24.120 7.200
  C -23.544 7.704 -22.896 8.280 -22.320 8.496
  L -23.472 9.504
  C -23.976 9.216 -24.480 8.856 -24.840 8.424" stroke="none" fill="rgb(255,255,108)" />
<path d="
  M -18.936 11.592
  L -18.864 10.152
  C -17.928 10.440 -17.136 10.584 -16.344 10.584
  L -16.848 11.952
  C -17.568 11.952 -18.216 11.880 -18.936 11.592" stroke="none" fill="rgb(255,255,108)" />
<path d="
  M -12.528 11.880
  L -13.104 10.440
  C -12.168 10.296 -11.232 10.152 -10.368 9.792
  L -10.368 11.232
  C -11.160 11.592 -11.880 11.808 -12.528 11.880" stroke="none" fill="rgb(255,255,108)" />
<path d="
  M -6.480 9.144
  L -7.560 8.064
  C -6.768 7.560 -6.048 6.912 -5.472 6.192
  L -4.752 7.632
  C -5.328 8.136 -5.832 8.712 -6.480 9.144" stroke="none" fill="rgb(255,255,108)" />
<path d="
  M -2.520 4.248
  L -3.888 3.816
  C -3.312 3.024 -2.952 2.088 -2.736 1.296
  L -1.584 2.304
  C -1.800 2.952 -2.016 3.672 -2.520 4.248" stroke="none" fill="rgb(255,255,108)" />
<path d="
  M -2.376 -4.032
  L -3.960 -4.320
  C -3.672 -3.240 -3.672 -2.232 -3.888 -1.152
  L -2.304 -1.368
  C -2.232 -2.232 -2.232 -3.168 -2.376 -4.032" stroke="none" fill="rgb(255,255,120)" />
<path d="
  M -3.024 -6.840
  L -4.320 -5.976
  C -4.680 -7.128 -5.184 -8.280 -6.120 -9.288
  L -4.608 -9.648
  C -3.888 -8.712 -3.384 -7.776 -3.024 -6.840" stroke="none" fill="rgb(255,255,120)" />
<path d="
  M -6.264 -11.808
  L -7.128 -10.440
  C -7.848 -11.304 -8.640 -11.880 -9.576 -12.240
  L -8.352 -13.248
  C -7.632 -12.888 -6.912 -12.384 -6.264 -11.808" stroke="none" fill="rgb(255,255,120)" />
<path d="
  M -11.088 -14.544
  L -11.160 -13.176
  C -12.096 -13.536 -12.888 -13.680 -13.680 -13.680
  L -13.176 -15.120
  C -12.528 -14.976 -11.808 -14.832 -11.088 -14.544" stroke="none" fill="rgb(255,255,120)" />
<path d="
  M -16.416 -15.192
  L -15.840 -13.752
  C -16.848 -13.752 -17.856 -13.608 -18.936 -13.248
  L -18.936 -14.616
  C -18.144 -14.976 -17.208 -15.192 -16.416 -15.192" stroke="none" fill="rgb(255,255,120)" />
<path d="
  M -22.104 -13.320
  L -21.024 -12.240
  C -21.744 -11.880 -22.536 -11.376 -23.112 -10.656
  L -23.832 -12.024
  C -23.400 -12.528 -22.752 -12.960 -22.104 -13.320" stroke="none" fill="rgb(255,255,120)" />
<path d="
  M -26.280 -9.000
  L -24.912 -8.640
  C -25.488 -7.848 -25.920 -6.912 -26.064 -6.120
  L -27.360 -6.912
  C -27.144 -7.632 -26.784 -8.352 -26.280 -9.000" stroke="none" fill="rgb(255,255,120)" />
<path d="
  M -28.152 -3.528
  L -26.640 -3.672
  C -26.784 -2.808 -26.784 -1.872 -26.640 -0.936
  L -28.152 -1.224
  C -28.224 -1.944 -28.224 -2.664 -28.152 -3.528" stroke="none" fill="rgb(255,255,120)" />
<path d="
  M -27.360 2.304
  L -26.064 1.440
  C -25.920 2.304 -25.488 3.096 -24.912 3.888
  L -26.352 4.248
  C -26.784 3.672 -27.144 2.952 -27.360 2.304" stroke="none" fill="rgb(255,255,120)" />
<path d="
  M -24.120 7.200
  L -23.256 5.904
  C -22.680 6.624 -21.960 7.200 -21.096 7.632
  L -22.320 8.496
  C -22.896 8.280 -23.544 7.704 -24.120 7.200" stroke="none" fill="rgb(255,255,120)" />
<path d="
  M -18.864 10.152
  L -18.648 8.640
  C -17.712 9.072 -16.704 9.216 -15.696 9.144
  L -16.344 10.584
  C -17.136 10.584 -17.928 10.440 -18.864 10.152" stroke="none" fill="rgb(255,255,120)" />
<path d="
  M -13.104 10.440
  L -13.536 9.072
  C -12.456 9.000 -11.376 8.640 -10.296 8.064
  L -10.368 9.792
  C -11.232 10.152 -12.168 10.296 -13.104 10.440" stroke="none" fill="rgb(255,255,120)" />
<path d="
  M -7.560 8.064
  L -8.568 6.984
  C -7.560 6.408 -6.768 5.616 -6.120 4.608
  L -5.472 6.192
  C -6.048 6.912 -6.768 7.560 -7.560 8.064" stroke="none" fill="rgb(255,255,120)" />
<path d="
  M -3.888 3.816
  L -5.184 3.312
  C -4.608 2.304 -4.248 1.296 -4.032 0.288
  L -2.736 1.296
  C -2.952 2.088 -3.312 3.024 -3.888 3.816" stroke="none" fill="rgb(255,255,120)" />
<path d="
  M -3.960 -4.320
  L -5.544 -4.680
  C -5.112 -3.384 -5.040 -2.160 -5.400 -0.864
  L -3.888 -1.152
  C -3.672 -2.232 -3.672 -3.240 -3.960 -4.320" stroke="none" fill="rgb(255,255,131)" />
<path d="
  M -4.320 -5.976
  L -5.688 -5.040
  C -5.904 -6.552 -6.624 -7.848 -7.704 -8.928
  L -6.120 -9.288
  C -5.184 -8.280 -4.680 -7.128 -4.320 -5.976" stroke="none" fill="rgb(255,255,131)" />
<path d="
  M -7.128 -10.440
  L -7.920 -9.216
  C -8.712 -10.224 -9.648 -10.800 -10.800 -11.304
  L -9.576 -12.240
  C -8.640 -11.880 -7.848 -11.304 -7.128 -10.440" stroke="none" fill="rgb(255,255,131)" />
<path d="
  M -11.160 -13.176
  L -11.376 -11.664
  C -12.240 -12.096 -13.248 -12.240 -14.328 -12.240
  L -13.680 -13.680
  C -12.888 -13.680 -12.096 -13.536 -11.160 -13.176" stroke="none" fill="rgb(255,255,131)" />
<path d="
  M -15.840 -13.752
  L -15.336 -12.456
  C -16.488 -12.456 -17.712 -12.168 -18.864 -11.736
  L -18.936 -13.248
  C -17.856 -13.608 -16.848 -13.752 -15.840 -13.752" stroke="none" fill="rgb(255,255,131)" />
<path d="
  M -21.024 -12.240
  L -19.872 -11.160
  C -20.880 -10.800 -21.672 -10.224 -22.392 -9.432
  L -23.112 -10.656
  C -22.536 -11.376 -21.744 -11.880 -21.024 -12.240" stroke="none" fill="rgb(255,255,131)" />
<path d="
  M -24.912 -8.640
  L -23.256 -8.208
  C -24.120 -7.416 -24.624 -6.336 -24.768 -5.112
  L -26.064 -6.120
  C -25.920 -6.912 -25.488 -7.848 -24.912 -8.640" stroke="none" fill="rgb(255,255,131)" />
<path d="
  M -26.640 -3.672
  L -24.984 -3.888
  C -25.344 -2.880 -25.344 -1.800 -24.984 -0.720
  L -26.640 -0.936
  C -26.784 -1.872 -26.784 -2.808 -26.640 -3.672" stroke="none" fill="rgb(255,255,131)" />
<path d="
  M -26.064 1.440
  L -24.768 0.576
  C -24.624 1.656 -24.120 2.664 -23.256 3.456
  L -24.912 3.888
  C -25.488 3.096 -25.920 2.304 -26.064 1.440" stroke="none" fill="rgb(255,255,131)" />
<path d="
  M -23.256 5.904
  L -22.464 4.608
  C -21.744 5.544 -20.880 6.192 -19.728 6.552
  L -21.096 7.632
  C -21.960 7.200 -22.680 6.624 -23.256 5.904" stroke="none" fill="rgb(255,255,131)" />
<path d="
  M -18.648 8.640
  L -18.576 7.056
  C -17.424 7.632 -16.272 7.776 -15.048 7.776
  L -15.696 9.144
  C -16.704 9.216 -17.712 9.072 -18.648 8.640" stroke="none" fill="rgb(255,255,131)" />
<path d="
  M -13.536 9.072
  L -14.040 7.560
  C -12.600 7.560 -11.232 7.056 -10.152 6.264
  L -10.296 8.064
  C -11.376 8.640 -12.456 9.000 -13.536 9.072" stroke="none" fill="rgb(255,255,131)" />
<path d="
  M -8.568 6.984
  L -9.648 5.904
  C -8.496 5.256 -7.488 4.248 -6.912 3.024
  L -6.120 4.608
  C -6.768 5.616 -7.560 6.408 -8.568 6.984" stroke="none" fill="rgb(255,255,131)" />
<path d="
  M -5.184 3.312
  L -6.624 2.736
  C -5.832 1.728 -5.472 0.504 -5.472 -0.792
  L -4.032 0.288
  C -4.248 1.296 -4.608 2.304 -5.184 3.312" stroke="none" fill="rgb(255,255,131)" />
<path d="
  M -5.544 -4.680
  L -6.120 -4.752
  L -5.688 -5.040
  C -5.904 -6.552 -6.624 -7.848 -7.704 -8.928
  L -8.208 -8.856
  L -7.920 -9.216
  C -8.712 -10.224 -9.648 -10.800 -10.800 -11.304
  L -11.448 -10.728
  L -11.376 -11.664
  C -12.240 -12.096 -13.248 -12.240 -14.328 -12.240
  L -14.760 -11.088
  L -15.336 -12.456
  C -16.488 -12.456 -17.712 -12.168 -18.864 -11.736
  L -18.792 -10.224
  C -15.120 -11.808 -11.016 -10.800 -8.496 -7.776
  C -6.048 -4.680 -5.904 -0.360 -8.280 2.808
  C -10.512 5.976 -14.760 7.200 -18.432 5.616
  L -18.576 7.056
  C -17.424 7.632 -16.272 7.776 -15.048 7.776
  L -14.400 6.336
  L -14.040 7.560
  C -12.600 7.560 -11.232 7.056 -10.152 6.264
  L -10.152 5.328
  L -9.648 5.904
  C -8.496 5.256 -7.488 4.248 -6.912 3.024
  L -7.128 2.520
  L -6.624 2.736
  C -5.832 1.728 -5.472 0.504 -5.472 -0.792
  L -5.544 -0.864
  L -5.400 -0.864
  C -5.040 -2.160 -5.112 -3.384 -5.544 -4.680" stroke="none" fill="rgb(255,255,141)" />
<path d="
  M -19.872 -11.160
  L -18.792 -10.080
  C -19.944 -9.720 -20.952 -9.000 -21.672 -8.136
  L -22.392 -9.432
  C -21.672 -10.224 -20.880 -10.800 -19.872 -11.160" stroke="none" fill="rgb(255,255,141)" />
<path d="
  M -23.256 -8.208
  L -21.816 -7.776
  C -22.752 -6.840 -23.400 -5.616 -23.472 -4.320
  L -24.768 -5.112
  C -24.624 -6.336 -24.120 -7.416 -23.256 -8.208" stroke="none" fill="rgb(255,255,141)" />
<path d="
  M -24.984 -3.888
  L -23.544 -4.104
  C -23.976 -2.952 -23.976 -1.728 -23.544 -0.504
  L -24.984 -0.720
  C -25.344 -1.800 -25.344 -2.880 -24.984 -3.888" stroke="none" fill="rgb(255,255,141)" />
<path d="
  M -24.768 0.576
  L -23.472 -0.216
  C -23.400 1.008 -22.752 2.160 -21.816 3.096
  L -23.256 3.456
  C -24.120 2.664 -24.624 1.656 -24.768 0.576" stroke="none" fill="rgb(255,255,141)" />
<path d="
  M -22.464 4.608
  L -21.672 3.384
  C -20.952 4.392 -19.872 5.184 -18.576 5.616
  L -19.728 6.552
  C -20.880 6.192 -21.744 5.544 -22.464 4.608" stroke="none" fill="rgb(255,255,141)" />
<path d="
  M -7.992 -2.304
  C -7.992 -6.336 -11.232 -9.576 -15.264 -9.576
  C -19.224 -9.576 -22.464 -6.336 -22.464 -2.304
  C -22.464 1.656 -19.224 4.896 -15.264 4.896
  C -11.232 4.896 -7.992 1.656 -7.992 -2.304" stroke="none" fill="rgb(255,255,151)" />
<path d="
  M -18.792 -10.224
  L -18.792 -10.080
  L -18.792 -10.080
  C -19.944 -9.720 -20.952 -9.000 -21.672 -8.136
  L -21.384 -7.632
  L -21.816 -7.776
  C -22.752 -6.840 -23.400 -5.616 -23.472 -4.320
  L -23.256 -4.104
  L -23.544 -4.104
  C -23.976 -2.952 -23.976 -1.728 -23.544 -0.504
  L -23.112 -0.432
  L -23.472 -0.216
  C -23.400 1.008 -22.752 2.160 -21.816 3.096
  L -21.456 3.024
  L -21.672 3.384
  C -20.952 4.392 -19.872 5.184 -18.576 5.616
  L -18.432 5.472
  L -18.432 5.616
  C -14.760 7.200 -10.512 5.976 -8.280 2.808
  C -5.904 -0.360 -6.048 -4.680 -8.496 -7.776
  C -11.016 -10.800 -15.120 -11.808 -18.792 -10.224" stroke="none" fill="rgb(255,255,151)" />
<path d="
  M -7.992 -2.304
  C -7.992 -6.336 -11.232 -9.576 -15.264 -9.576
  C -19.224 -9.576 -22.464 -6.336 -22.464 -2.304
  C -22.464 1.656 -19.224 4.896 -15.264 4.896
  C -11.232 4.896 -7.992 1.656 -7.992 -2.304" stroke="none" fill="rgb(255,255,164)" />
<path d="
  M -9.432 -2.304
  C -9.432 -5.472 -12.096 -8.136 -15.264 -8.136
  C -18.432 -8.136 -21.024 -5.472 -21.024 -2.304
  C -21.024 0.864 -18.432 3.456 -15.264 3.456
  C -12.096 3.456 -9.432 0.864 -9.432 -2.304" stroke="none" fill="rgb(255,255,164)" />
<path d="
  M -9.432 -2.304
  C -9.432 -5.472 -12.096 -8.136 -15.264 -8.136
  C -18.432 -8.136 -21.024 -5.472 -21.024 -2.304
  C -21.024 0.864 -18.432 3.456 -15.264 3.456
  C -12.096 3.456 -9.432 0.864 -9.432 -2.304" stroke="none" fill="rgb(255,255,174)" />
<path d="
  M -10.872 -2.304
  C -10.872 -4.680 -12.888 -6.696 -15.264 -6.696
  C -17.568 -6.696 -19.584 -4.680 -19.584 -2.304
  C -19.584 -0.000 -17.568 2.016 -15.264 2.016
  C -12.888 2.016 -10.872 -0.000 -10.872 -2.304" stroke="none" fill="rgb(255,255,174)" />
<path d="
  M -10.872 -2.304
  C -10.872 -4.680 -12.888 -6.696 -15.264 -6.696
  C -17.568 -6.696 -19.584 -4.680 -19.584 -2.304
  C -19.584 -0.000 -17.568 2.016 -15.264 2.016
  C -12.888 2.016 -10.872 -0.000 -10.872 -2.304" stroke="none" fill="rgb(255,255,184)" />
<path d="
  M -12.384 -2.304
  C -12.384 -3.888 -13.680 -5.184 -15.264 -5.184
  C -16.776 -5.184 -18.144 -3.888 -18.144 -2.304
  C -18.144 -0.792 -16.776 0.576 -15.264 0.576
  C -13.680 0.576 -12.384 -0.792 -12.384 -2.304" stroke="none" fill="rgb(255,255,184)" />
<path d="
  M -12.384 -2.304
  C -12.384 -3.888 -13.680 -5.184 -15.264 -5.184
  C -16.776 -5.184 -18.144 -3.888 -18.144 -2.304
  C -18.144 -0.792 -16.776 0.576 -15.264 0.576
  C -13.680 0.576 -12.384 -0.792 -12.384 -2.304" stroke="none" fill="rgb(255,255,194)" />
<path d="
  M -13.824 -2.304
  C -13.824 -3.024 -14.544 -3.744 -15.264 -3.744
  C -15.984 -3.744 -16.704 -3.024 -16.704 -2.304
  C -16.704 -1.584 -15.984 -0.864 -15.264 -0.864
  C -14.544 -0.864 -13.824 -1.584 -13.824 -2.304" stroke="none" fill="rgb(255,255,194)" />
<path d="
  M -13.824 -2.304
  C -13.824 -3.024 -14.544 -3.744 -15.264 -3.744
  C -15.984 -3.744 -16.704 -3.024 -16.704 -2.304
  C -16.704 -1.584 -15.984 -0.864 -15.264 -0.864
  C -14.544 -0.864 -13.824 -1.584 -13.824 -2.304" stroke="none" fill="rgb(255,255,204)" />
</g>
<path d="
  M -27.792 -18.792
  L -18.792 -10.080
  L -19.296 -22.320
  L -14.760 -11.088
  L -10.296 -22.032
  L -11.448 -10.728
  L -2.160 -18.288
  L -8.208 -8.856
  L 3.528 -11.376
  L -6.120 -4.752
  L 5.472 -2.448
  L -5.544 -0.864
  L 4.104 6.768
  L -7.128 2.520
  L -1.872 13.824
  L -10.152 5.328
  L -10.656 17.640
  L -14.400 6.336
  L -19.512 17.856
  L -18.432 5.472
  L -27.504 12.744
  L -21.456 3.024
  L -33.408 6.048
  L -23.112 -0.432
  L -36.000 -2.448
  L -23.256 -4.104
  L -33.048 -10.944
  L -21.384 -7.632
  L -27.792 -18.792" stroke="rgb(0,0,0)" stroke-width="0.504" fill="none" />
<g>
<path d="
  M -3.312 -1.800
  C -3.312 -7.848 -8.352 -12.888 -14.400 -12.888
  C -20.520 -12.888 -25.560 -7.848 -25.560 -1.800
  C -25.560 4.248 -20.520 9.360 -14.400 9.360
  C -8.352 9.360 -3.312 4.248 -3.312 -1.800" stroke="none" fill="rgb(255,255,54)" />
<path d="
  M -14.544 -12.960
  C -8.280 -12.960 -3.240 -7.920 -3.240 -1.728
  C -3.240 4.464 -8.280 9.504 -14.544 9.504
  C -20.664 9.504 -25.704 4.464 -25.704 -1.728
  C -25.704 -7.920 -20.664 -12.960 -14.544 -12.960" stroke="none" fill="rgb(255,255,54)" />
<path d="
  M -3.312 -1.800
  C -3.312 -7.848 -8.352 -12.888 -14.400 -12.888
  C -20.520 -12.888 -25.560 -7.848 -25.560 -1.800
  C -25.560 4.248 -20.520 9.360 -14.400 9.360
  C -8.352 9.360 -3.312 4.248 -3.312 -1.800" stroke="none" fill="rgb(255,255,67)" />
<path d="
  M -4.032 -1.800
  C -4.032 -7.488 -8.712 -12.168 -14.400 -12.168
  C -20.088 -12.168 -24.840 -7.488 -24.840 -1.800
  C -24.840 3.888 -20.088 8.640 -14.400 8.640
  C -8.712 8.640 -4.032 3.888 -4.032 -1.800" stroke="none" fill="rgb(255,255,67)" />
<path d="
  M -4.032 -1.800
  C -4.032 -7.488 -8.712 -12.168 -14.400 -12.168
  C -20.088 -12.168 -24.840 -7.488 -24.840 -1.800
  C -24.840 3.888 -20.088 8.640 -14.400 8.640
  C -8.712 8.640 -4.032 3.888 -4.032 -1.800" stroke="none" fill="rgb(255,255,77)" />
<path d="
  M -4.824 -1.800
  C -4.824 -7.056 -9.216 -11.376 -14.400 -11.376
  C -19.656 -11.376 -23.976 -7.056 -23.976 -1.800
  C -23.976 3.456 -19.656 7.776 -14.400 7.776
  C -9.216 7.776 -4.824 3.456 -4.824 -1.800" stroke="none" fill="rgb(255,255,77)" />
<path d="
  M -4.824 -1.800
  C -4.824 -7.056 -9.216 -11.376 -14.400 -11.376
  C -19.656 -11.376 -23.976 -7.056 -23.976 -1.800
  C -23.976 3.456 -19.656 7.776 -14.400 7.776
  C -9.216 7.776 -4.824 3.456 -4.824 -1.800" stroke="none" fill="rgb(255,255,87)" />
<path d="
  M -5.688 -1.800
  C -5.688 -6.552 -9.648 -10.584 -14.400 -10.584
  C -19.224 -10.584 -23.184 -6.552 -23.184 -1.800
  C -23.184 3.024 -19.224 6.984 -14.400 6.984
  C -9.648 6.984 -5.688 3.024 -5.688 -1.800" stroke="none" fill="rgb(255,255,87)" />
<path d="
  M -5.688 -1.800
  C -5.688 -6.552 -9.648 -10.584 -14.400 -10.584
  C -19.224 -10.584 -23.184 -6.552 -23.184 -1.800
  C -23.184 3.024 -19.224 6.984 -14.400 6.984
  C -9.648 6.984 -5.688 3.024 -5.688 -1.800" stroke="none" fill="rgb(255,255,97)" />
<path d="
  M -6.480 -1.800
  C -6.480 -6.120 -10.080 -9.720 -14.400 -9.720
  C -18.792 -9.720 -22.392 -6.120 -22.392 -1.800
  C -22.392 2.520 -18.792 6.192 -14.400 6.192
  C -10.080 6.192 -6.480 2.520 -6.480 -1.800" stroke="none" fill="rgb(255,255,97)" />
<path d="
  M -6.480 -1.800
  C -6.480 -6.120 -10.080 -9.720 -14.400 -9.720
  C -18.792 -9.720 -22.392 -6.120 -22.392 -1.800
  C -22.392 2.520 -18.792 6.192 -14.400 6.192
  C -10.080 6.192 -6.480 2.520 -6.480 -1.800" stroke="none" fill="rgb(255,255,108)" />
<path d="
  M -7.272 -1.800
  C -7.272 -5.688 -10.512 -8.928 -14.400 -8.928
  C -18.288 -8.928 -21.600 -5.688 -21.600 -1.800
  C -21.600 2.088 -18.288 5.328 -14.400 5.328
  C -10.512 5.328 -7.272 2.088 -7.272 -1.800" stroke="none" fill="rgb(255,255,108)" />
<path d="
  M -7.272 -1.800
  C -7.272 -5.688 -10.512 -8.928 -14.400 -8.928
  C -18.288 -8.928 -21.600 -5.688 -21.600 -1.800
  C -21.600 2.088 -18.288 5.328 -14.400 5.328
  C -10.512 5.328 -7.272 2.088 -7.272 -1.800" stroke="none" fill="rgb(255,255,120)" />
<path d="
  M -8.136 -1.800
  C -8.136 -5.184 -11.016 -8.136 -14.400 -8.136
  C -17.856 -8.136 -20.736 -5.184 -20.736 -1.800
  C -20.736 1.656 -17.856 4.536 -14.400 4.536
  C -11.016 4.536 -8.136 1.656 -8.136 -1.800" stroke="none" fill="rgb(255,255,120)" />
<path d="
  M -8.136 -1.800
  C -8.136 -5.184 -11.016 -8.136 -14.400 -8.136
  C -17.856 -8.136 -20.736 -5.184 -20.736 -1.800
  C -20.736 1.656 -17.856 4.536 -14.400 4.536
  C -11.016 4.536 -8.136 1.656 -8.136 -1.800" stroke="none" fill="rgb(255,255,131)" />
<path d="
  M -8.928 -1.800
  C -8.928 -4.752 -11.448 -7.272 -14.400 -7.272
  C -17.424 -7.272 -19.944 -4.752 -19.944 -1.800
  C -19.944 1.224 -17.424 3.744 -14.400 3.744
  C -11.448 3.744 -8.928 1.224 -8.928 -1.800" stroke="none" fill="rgb(255,255,131)" />
<path d="
  M -8.928 -1.800
  C -8.928 -4.752 -11.448 -7.272 -14.400 -7.272
  C -17.424 -7.272 -19.944 -4.752 -19.944 -1.800
  C -19.944 1.224 -17.424 3.744 -14.400 3.744
  C -11.448 3.744 -8.928 1.224 -8.928 -1.800" stroke="none" fill="rgb(255,255,141)" />
<path d="
  M -9.648 -1.800
  C -9.648 -4.392 -11.808 -6.552 -14.400 -6.552
  C -17.064 -6.552 -19.224 -4.392 -19.224 -1.800
  C -19.224 0.864 -17.064 3.024 -14.400 3.024
  C -11.808 3.024 -9.648 0.864 -9.648 -1.800" stroke="none" fill="rgb(255,255,141)" />
<path d="
  M -9.648 -1.800
  C -9.648 -4.392 -11.808 -6.552 -14.400 -6.552
  C -17.064 -6.552 -19.224 -4.392 -19.224 -1.800
  C -19.224 0.864 -17.064 3.024 -14.400 3.024
  C -11.808 3.024 -9.648 0.864 -9.648 -1.800" stroke="none" fill="rgb(255,255,151)" />
<path d="
  M -10.440 -1.800
  C -10.440 -3.960 -12.240 -5.760 -14.400 -5.760
  C -16.632 -5.760 -18.432 -3.960 -18.432 -1.800
  C -18.432 0.360 -16.632 2.160 -14.400 2.160
  C -12.240 2.160 -10.440 0.360 -10.440 -1.800" stroke="none" fill="rgb(255,255,151)" />
<path d="
  M -10.440 -1.800
  C -10.440 -3.960 -12.240 -5.760 -14.400 -5.760
  C -16.632 -5.760 -18.432 -3.960 -18.432 -1.800
  C -18.432 0.360 -16.632 2.160 -14.400 2.160
  C -12.240 2.160 -10.440 0.360 -10.440 -1.800" stroke="none" fill="rgb(255,255,164)" />
<path d="
  M -11.232 -1.800
  C -11.232 -3.528 -12.744 -4.968 -14.400 -4.968
  C -16.128 -4.968 -17.568 -3.528 -17.568 -1.800
  C -17.568 -0.072 -16.128 1.368 -14.400 1.368
  C -12.744 1.368 -11.232 -0.072 -11.232 -1.800" stroke="none" fill="rgb(255,255,164)" />
<path d="
  M -11.232 -1.800
  C -11.232 -3.528 -12.744 -4.968 -14.400 -4.968
  C -16.128 -4.968 -17.568 -3.528 -17.568 -1.800
  C -17.568 -0.072 -16.128 1.368 -14.400 1.368
  C -12.744 1.368 -11.232 -0.072 -11.232 -1.800" stroke="none" fill="rgb(255,255,174)" />
<path d="
  M -12.096 -1.800
  C -12.096 -3.024 -13.176 -4.104 -14.400 -4.104
  C -15.696 -4.104 -16.776 -3.024 -16.776 -1.800
  C -16.776 -0.504 -15.696 0.576 -14.400 0.576
  C -13.176 0.576 -12.096 -0.504 -12.096 -1.800" stroke="none" fill="rgb(255,255,174)" />
<path d="
  M -12.096 -1.800
  C -12.096 -3.024 -13.176 -4.104 -14.400 -4.104
  C -15.696 -4.104 -16.776 -3.024 -16.776 -1.800
  C -16.776 -0.504 -15.696 0.576 -14.400 0.576
  C -13.176 0.576 -12.096 -0.504 -12.096 -1.800" stroke="none" fill="rgb(255,255,184)" />
<path d="
  M -12.888 -1.800
  C -12.888 -2.592 -13.608 -3.312 -14.400 -3.312
  C -15.264 -3.312 -15.984 -2.592 -15.984 -1.800
  C -15.984 -0.936 -15.264 -0.216 -14.400 -0.216
  C -13.608 -0.216 -12.888 -0.936 -12.888 -1.800" stroke="none" fill="rgb(255,255,184)" />
<path d="
  M -12.888 -1.800
  C -12.888 -2.592 -13.608 -3.312 -14.400 -3.312
  C -15.264 -3.312 -15.984 -2.592 -15.984 -1.800
  C -15.984 -0.936 -15.264 -0.216 -14.400 -0.216
  C -13.608 -0.216 -12.888 -0.936 -12.888 -1.800" stroke="none" fill="rgb(255,255,194)" />
<path d="
  M -13.680 -1.800
  C -13.680 -2.160 -14.040 -2.520 -14.400 -2.520
  C -14.760 -2.520 -15.120 -2.160 -15.120 -1.800
  C -15.120 -1.440 -14.760 -1.080 -14.400 -1.080
  C -14.040 -1.080 -13.680 -1.440 -13.680 -1.800" stroke="none" fill="rgb(255,255,194)" />
<path d="
  M -13.680 -1.800
  C -13.680 -2.160 -14.040 -2.520 -14.400 -2.520
  C -14.760 -2.520 -15.120 -2.160 -15.120 -1.800
  C -15.120 -1.440 -14.760 -1.080 -14.400 -1.080
  C -14.040 -1.080 -13.680 -1.440 -13.680 -1.800" stroke="none" fill="rgb(255,255,204)" />
</g>
<circle cx="-14.616" cy="-1.872" r="11.124" stroke="rgb(0,0,0)" stroke-width="0.504" fill="none" />
</g>
<g>
<path d="
  M -15.048 21.096
  C -14.328 21.456 -13.536 21.816 -12.960 21.888
  C -10.656 22.320 -9.288 21.744 -6.552 21.096
  L -15.048 21.096" stroke="none" fill="rgb(102,102,102)" />
<path d="
  M -2.736 21.096
  C -0.432 21.384 1.224 21.528 3.024 21.096
  L -2.736 21.096" stroke="none" fill="rgb(102,102,102)" />
<path d="
  M -15.048 21.096
  C -15.768 20.664 -16.416 20.088 -16.704 19.728
  L 6.120 19.800
  C 4.968 20.448 4.032 20.880 3.024 21.096
  L -2.736 21.096
  C -3.312 21.024 -4.032 20.880 -4.752 20.808
  C -5.400 20.880 -6.048 21.024 -6.552 21.096
  L -15.048 21.096" stroke="none" fill="rgb(108,108,108)" />
<path d="
  M -28.368 19.728
  C -28.008 19.944 -27.648 20.088 -27.288 20.160
  C -24.624 21.096 -22.032 20.304 -19.368 19.728
  L -28.368 19.728" stroke="none" fill="rgb(108,108,108)" />
<path d="
  M 11.736 19.728
  C 15.480 21.168 19.728 21.096 23.400 19.728
  L 11.736 19.728" stroke="none" fill="rgb(108,108,108)" />
<path d="
  M -28.368 19.728
  C -29.160 19.368 -29.808 18.936 -30.312 18.360
  L 8.424 18.360
  C 7.560 19.008 6.840 19.440 6.120 19.800
  L -16.704 19.728
  C -16.776 19.584 -16.776 19.440 -16.776 19.368
  C -17.712 19.440 -18.504 19.584 -19.368 19.728
  L -28.368 19.728" stroke="none" fill="rgb(113,113,113)" />
<path d="
  M 11.736 19.728
  C 10.800 19.368 9.936 18.936 9.000 18.360
  L 25.992 18.360
  C 25.200 18.936 24.264 19.368 23.400 19.728
  L 11.736 19.728" stroke="none" fill="rgb(113,113,113)" />
<path d="
  M -30.312 18.360
  C -30.672 17.928 -30.960 17.496 -31.248 16.992
  L 31.320 16.992
  C 30.168 17.208 28.944 17.208 27.504 17.208
  C 27.072 17.640 26.568 18.000 25.992 18.360
  L 9.000 18.360
  C 8.928 18.360 8.856 18.288 8.712 18.216
  C 8.640 18.288 8.568 18.360 8.424 18.360
  L -30.312 18.360" stroke="none" fill="rgb(120,120,120)" />
<path d="
  M -31.248 16.992
  C -31.536 16.560 -31.608 16.128 -31.680 15.696
  L 34.848 15.696
  C 34.848 15.768 34.776 15.840 34.776 15.912
  C 33.480 16.560 32.400 16.848 31.320 16.992
  L -31.248 16.992" stroke="none" fill="rgb(125,125,125)" />
<path d="
  M -31.680 15.696
  C -31.896 15.192 -31.896 14.760 -31.896 14.328
  L 35.496 14.328
  C 35.280 14.760 35.136 15.192 34.848 15.696
  L -31.680 15.696" stroke="none" fill="rgb(131,131,131)" />
<path d="
  M -31.896 14.328
  C -31.752 13.824 -31.680 13.392 -31.608 12.960
  L 35.856 12.960
  C 35.784 13.392 35.568 13.824 35.496 14.328
  L -31.896 14.328" stroke="none" fill="rgb(136,136,136)" />
<path d="
  M -31.608 12.960
  C -31.392 12.384 -31.176 11.952 -30.888 11.592
  L 35.928 11.592
  C 35.928 12.024 35.928 12.528 35.856 12.960
  L -31.608 12.960" stroke="none" fill="rgb(141,141,141)" />
<path d="
  M -30.888 11.592
  C -30.672 11.304 -30.528 11.016 -30.240 10.800
  C -30.456 10.584 -30.528 10.440 -30.600 10.224
  L 35.568 10.224
  C 35.784 10.656 35.928 11.160 35.928 11.592
  L -30.888 11.592" stroke="none" fill="rgb(146,146,146)" />
<path d="
  M -30.600 10.224
  C -30.888 9.792 -30.960 9.360 -30.960 8.856
  L 34.488 8.856
  C 35.064 9.216 35.424 9.720 35.568 10.224
  L -30.600 10.224" stroke="none" fill="rgb(151,151,151)" />
<path d="
  M -30.960 8.856
  C -30.960 8.424 -30.888 7.992 -30.672 7.560
  L 25.848 7.560
  C 25.920 7.704 25.992 7.920 26.064 8.064
  C 27.864 7.992 30.240 7.416 31.896 7.704
  C 33.048 7.992 33.840 8.352 34.488 8.856
  L -30.960 8.856" stroke="none" fill="rgb(156,156,156)" />
<path d="
  M -30.672 7.560
  C -30.600 7.056 -30.312 6.624 -29.952 6.192
  L 24.840 6.192
  C 25.200 6.552 25.560 6.984 25.848 7.560
  L -30.672 7.560" stroke="none" fill="rgb(164,164,164)" />
<path d="
  M -29.952 6.192
  C -29.736 5.832 -29.376 5.472 -29.016 5.184
  C -28.800 5.112 -28.656 4.896 -28.440 4.824
  L 15.480 4.824
  C 15.480 4.896 15.480 4.968 15.480 5.112
  C 16.488 4.968 17.424 4.896 18.288 4.824
  L 21.456 4.824
  C 22.824 4.968 23.976 5.328 24.840 6.192
  L -29.952 6.192" stroke="none" fill="rgb(169,169,169)" />
<path d="
  M -28.440 4.824
  C -26.712 3.888 -24.264 4.032 -21.744 4.032
  C -21.672 3.816 -21.672 3.672 -21.600 3.456
  L 15.408 3.456
  C 15.480 3.888 15.480 4.392 15.480 4.824
  L -28.440 4.824" stroke="none" fill="rgb(174,174,174)" />
<path d="
  M 18.288 4.824
  C 19.368 4.752 20.448 4.752 21.456 4.824
  L 18.288 4.824" stroke="none" fill="rgb(174,174,174)" />
<path d="
  M -21.600 3.456
  C -21.312 2.952 -20.952 2.448 -20.592 2.088
  L 15.264 2.088
  C 15.336 2.520 15.408 3.024 15.408 3.456
  L -21.600 3.456" stroke="none" fill="rgb(179,179,179)" />
<path d="
  M -20.592 2.088
  C -20.088 1.584 -19.584 1.080 -18.936 0.720
  L 14.904 0.720
  C 15.048 1.224 15.120 1.656 15.264 2.088
  L -20.592 2.088" stroke="none" fill="rgb(184,184,184)" />
<path d="
  M -18.936 0.720
  C -18.072 0.216 -17.064 -0.216 -15.984 -0.576
  L -6.840 -0.576
  C -6.048 -0.360 -5.328 -0.000 -4.608 0.504
  C -4.464 0.144 -4.392 -0.216 -4.248 -0.576
  L 14.256 -0.576
  C 14.544 -0.144 14.688 0.288 14.904 0.720
  L -18.936 0.720" stroke="none" fill="rgb(189,189,189)" />
<path d="
  M -15.984 -0.576
  C -13.176 -1.440 -9.720 -1.584 -6.840 -0.576
  L -15.984 -0.576" stroke="none" fill="rgb(194,194,194)" />
<path d="
  M -4.248 -0.576
  C -3.888 -1.152 -3.456 -1.584 -2.952 -1.944
  L 12.888 -1.944
  C 13.464 -1.584 13.896 -1.152 14.256 -0.576
  L -4.248 -0.576" stroke="none" fill="rgb(194,194,194)" />
<path d="
  M -2.952 -1.944
  C -2.016 -2.592 -0.936 -3.024 0.216 -3.384
  L 10.008 -3.384
  C 11.160 -3.024 12.168 -2.592 12.888 -1.944
  L -2.952 -1.944" stroke="none" fill="rgb(199,199,199)" />
<path d="
  M 0.216 -3.384
  C 2.952 -4.104 6.192 -4.248 8.928 -3.672
  C 9.288 -3.600 9.648 -3.528 10.008 -3.384
  L 0.216 -3.384" stroke="none" fill="rgb(204,204,204)" />
</g>
<g>
<path d="
  M -11.808 18.072
  C -11.808 18.072 -11.808 18.216 -11.736 18.216
  C -8.352 19.008 -5.544 19.152 -3.096 18.072
  L -11.808 18.072" stroke="none" fill="rgb(179,179,179)" />
<path d="
  M -11.808 18.072
  C -12.240 17.712 -12.384 17.352 -12.096 16.992
  L -1.224 16.992
  C -1.872 17.496 -2.520 17.856 -3.096 18.072
  L -11.808 18.072" stroke="none" fill="rgb(182,182,182)" />
<path d="
  M -12.096 16.992
  C -11.880 16.632 -11.520 16.200 -11.016 15.840
  L -3.456 15.840
  C -2.952 16.416 -1.872 16.920 -1.224 16.992
  C -1.224 16.992 -1.224 16.992 -1.224 16.992
  L -12.096 16.992" stroke="none" fill="rgb(182,182,182)" />
<path d="
  M -28.152 15.912
  C -27.000 16.992 -25.200 16.776 -23.544 15.840
  L -28.152 15.912" stroke="none" fill="rgb(182,182,182)" />
<path d="
  M -2.016 15.840
  C 0.216 16.200 2.664 16.272 4.824 15.840
  L -2.016 15.840" stroke="none" fill="rgb(182,182,182)" />
<path d="
  M 22.104 15.840
  C 22.680 16.056 22.896 16.128 22.536 16.128
  C 23.400 16.272 23.976 16.200 24.624 15.840
  L 22.104 15.840" stroke="none" fill="rgb(182,182,182)" />
<path d="
  M -28.152 15.912
  C -28.440 15.696 -28.728 15.192 -28.872 14.760
  L -19.224 14.760
  C -19.728 15.192 -20.016 15.480 -20.952 14.832
  C -21.240 16.200 -24.480 14.688 -22.824 15.408
  C -23.112 15.552 -23.256 15.696 -23.544 15.840
  L -28.152 15.912" stroke="none" fill="rgb(184,184,184)" />
<path d="
  M -11.016 15.840
  C -10.440 15.408 -9.936 15.048 -9.360 14.760
  L 5.112 14.760
  C 5.400 15.048 5.688 15.192 6.048 15.480
  C 5.688 15.696 5.184 15.768 4.824 15.840
  L -2.016 15.840
  C -2.592 15.768 -3.240 15.552 -3.744 15.480
  C -3.672 15.552 -3.600 15.768 -3.456 15.840
  L -11.016 15.840" stroke="none" fill="rgb(184,184,184)" />
<path d="
  M 22.104 15.840
  C 21.096 15.552 19.368 15.192 18.576 14.760
  L 26.064 14.760
  C 25.632 15.192 25.200 15.552 24.624 15.840
  L 22.104 15.840" stroke="none" fill="rgb(184,184,184)" />
<path d="
  M -28.872 14.760
  C -28.872 14.760 -29.016 14.688 -29.016 14.544
  C -29.088 14.184 -29.160 13.824 -29.160 13.608
  L -16.704 13.608
  C -16.848 13.680 -16.992 13.752 -16.992 14.040
  C -18.144 14.040 -18.792 14.472 -19.224 14.760
  L -28.872 14.760" stroke="none" fill="rgb(184,184,184)" />
<path d="
  M -9.360 14.760
  C -8.712 14.328 -8.208 14.040 -8.136 13.824
  C -11.592 13.824 -13.176 15.480 -13.968 13.608
  L 4.248 13.608
  C 4.464 14.040 4.680 14.400 5.112 14.760
  L -9.360 14.760" stroke="none" fill="rgb(184,184,184)" />
<path d="
  M 18.576 14.760
  C 18.288 14.688 18.144 14.472 18.144 14.400
  C 16.200 14.400 15.624 14.112 15.264 13.608
  L 27.288 13.608
  C 26.928 13.968 26.424 14.400 26.064 14.760
  L 18.576 14.760" stroke="none" fill="rgb(184,184,184)" />
<path d="
  M 7.704 13.608
  C 9.360 14.472 11.232 14.832 13.248 13.680
  L 7.704 13.608" stroke="none" fill="rgb(184,184,184)" />
<path d="
  M -29.160 13.608
  C -29.088 13.248 -29.016 12.888 -28.872 12.528
  L 3.888 12.528
  C 4.032 12.960 4.104 13.320 4.248 13.608
  L -13.968 13.608
  C -14.040 13.392 -14.040 13.104 -14.184 12.888
  C -14.400 13.824 -16.128 13.104 -16.704 13.608
  L -29.160 13.608" stroke="none" fill="rgb(187,187,187)" />
<path d="
  M 7.704 13.608
  C 7.200 13.320 6.624 12.960 6.120 12.528
  L 12.960 12.528
  C 12.816 12.744 12.816 13.032 13.608 13.392
  C 13.536 13.464 13.320 13.608 13.248 13.680
  L 7.704 13.608" stroke="none" fill="rgb(187,187,187)" />
<path d="
  M 15.264 13.608
  C 15.120 13.320 15.048 12.960 14.904 12.528
  L 32.328 12.528
  C 30.528 12.960 30.672 12.528 28.512 12.528
  C 28.080 12.744 27.648 13.104 27.288 13.608
  L 15.264 13.608" stroke="none" fill="rgb(187,187,187)" />
<path d="
  M -28.872 12.528
  C -28.800 12.168 -28.656 11.808 -28.440 11.304
  L -25.560 11.304
  C -25.128 11.448 -24.624 11.448 -23.904 11.448
  C -23.904 11.448 -23.904 11.304 -23.976 11.304
  L 4.032 11.304
  C 3.888 11.808 3.888 12.168 3.888 12.528
  L -28.872 12.528" stroke="none" fill="rgb(187,187,187)" />
<path d="
  M 6.120 12.528
  C 5.688 12.168 5.184 11.664 4.824 11.304
  L 13.968 11.448
  C 13.680 11.952 13.248 12.240 12.960 12.528
  L 6.120 12.528" stroke="none" fill="rgb(187,187,187)" />
<path d="
  M 14.904 12.528
  C 14.760 12.168 14.688 11.808 14.544 11.304
  L 33.048 11.232
  C 33.048 11.592 32.832 12.024 32.688 12.384
  C 32.472 12.384 32.400 12.528 32.328 12.528
  L 14.904 12.528" stroke="none" fill="rgb(187,187,187)" />
<path d="
  M -28.440 11.304
  C -28.224 10.944 -28.008 10.584 -27.792 10.224
  L -26.928 10.224
  C -26.640 10.872 -26.280 11.232 -25.560 11.304
  L -28.440 11.304" stroke="none" fill="rgb(189,189,189)" />
<path d="
  M -23.976 11.304
  C -24.264 10.944 -24.480 10.584 -24.624 10.224
  L 32.760 10.224
  C 32.976 10.512 33.048 10.872 33.048 11.232
  L 14.544 11.304
  C 14.400 11.160 14.256 10.944 14.184 10.656
  C 14.184 10.944 14.040 11.232 13.968 11.448
  L 4.824 11.304
  C 4.608 11.016 4.392 10.800 4.176 10.584
  C 4.104 10.872 4.104 11.160 4.032 11.304
  L -23.976 11.304" stroke="none" fill="rgb(189,189,189)" />
<path d="
  M -27.792 10.224
  C -27.648 9.864 -27.432 9.432 -27.288 9.072
  L -27.288 9.072
  C -27.072 9.504 -27.000 9.936 -26.928 10.224
  L -27.792 10.224" stroke="none" fill="rgb(189,189,189)" />
<path d="
  M -24.624 10.224
  C -24.840 9.864 -24.912 9.504 -24.912 9.072
  L 24.264 9.072
  C 24.264 9.360 24.264 9.576 24.264 9.936
  C 24.624 9.576 24.984 9.216 25.488 9.072
  L 31.608 9.072
  C 32.112 9.360 32.616 9.720 32.760 10.224
  L -24.624 10.224" stroke="none" fill="rgb(189,189,189)" />
<path d="
  M -27.288 9.072
  C -27.288 9.072 -27.288 9.000 -27.288 9.000
  C -27.288 9.000 -27.288 9.072 -27.288 9.072
  L -27.288 9.072" stroke="none" fill="rgb(192,192,192)" />
<path d="
  M -24.912 9.072
  C -24.984 8.712 -24.912 8.280 -24.840 7.920
  L 15.048 7.920
  C 15.048 8.280 15.048 8.640 15.048 9.000
  C 16.560 8.496 17.352 8.352 17.568 7.920
  L 23.976 7.920
  C 24.120 8.280 24.192 8.640 24.264 9.072
  L -24.912 9.072" stroke="none" fill="rgb(192,192,192)" />
<path d="
  M 25.488 9.072
  C 27.360 8.064 29.952 8.136 31.608 9.072
  L 25.488 9.072" stroke="none" fill="rgb(192,192,192)" />
<path d="
  M -27.432 7.776
  C -27.360 7.992 -27.360 8.064 -27.288 8.136
  C -27.144 8.064 -27.144 7.992 -27.072 7.920
  L -27.432 7.776" stroke="none" fill="rgb(192,192,192)" />
<path d="
  M -27.432 7.776
  C -27.504 7.416 -27.648 7.056 -27.720 6.696
  L -25.560 6.768
  C -26.208 7.056 -26.712 7.416 -27.072 7.920
  L -27.432 7.776" stroke="none" fill="rgb(192,192,192)" />
<path d="
  M -24.840 7.920
  C -24.768 7.416 -24.552 7.056 -24.192 6.696
  L 15.048 6.768
  C 15.048 7.200 15.048 7.560 15.048 7.920
  L -24.840 7.920" stroke="none" fill="rgb(192,192,192)" />
<path d="
  M 17.568 7.920
  C 17.784 7.632 17.856 7.344 17.856 6.768
  L 23.184 6.768
  C 23.544 7.056 23.832 7.416 23.976 7.920
  L 17.568 7.920" stroke="none" fill="rgb(192,192,192)" />
<path d="
  M -27.720 6.696
  C -27.792 6.264 -27.720 5.904 -27.504 5.544
  L 14.976 5.616
  C 14.976 5.976 15.048 6.336 15.048 6.768
  L -24.192 6.696
  C -24.120 6.624 -23.904 6.408 -23.760 6.336
  C -24.408 6.336 -24.984 6.552 -25.560 6.768
  L -27.720 6.696" stroke="none" fill="rgb(194,194,194)" />
<path d="
  M 17.856 6.768
  C 17.856 6.552 17.856 6.336 17.856 5.976
  C 20.592 5.976 22.320 6.048 23.184 6.768
  L 17.856 6.768" stroke="none" fill="rgb(194,194,194)" />
<path d="
  M -27.504 5.544
  C -26.424 3.672 -20.880 5.256 -18.432 5.256
  C -18.504 5.112 -18.504 4.824 -18.504 4.536
  L 14.544 4.536
  C 14.688 4.896 14.904 5.256 14.976 5.616
  L -27.504 5.544" stroke="none" fill="rgb(197,197,197)" />
<path d="
  M -18.504 4.536
  C -18.432 4.176 -18.432 3.744 -18.216 3.384
  L 13.320 3.384
  C 13.896 3.672 14.328 4.104 14.544 4.536
  L -18.504 4.536" stroke="none" fill="rgb(197,197,197)" />
<path d="
  M -18.216 3.384
  C -18.144 3.024 -17.928 2.664 -17.712 2.304
  L 9.720 2.304
  C 9.648 2.376 9.648 2.520 9.576 2.664
  C 11.232 2.664 12.528 2.952 13.320 3.384
  L -18.216 3.384" stroke="none" fill="rgb(199,199,199)" />
<path d="
  M -17.712 2.304
  C -17.424 1.800 -17.064 1.440 -16.488 1.080
  L -3.960 1.080
  C -3.744 1.224 -3.456 1.224 -3.312 1.296
  C -3.312 1.224 -3.312 1.080 -3.312 1.080
  L 9.648 1.080
  C 9.792 1.440 9.792 1.800 9.720 2.304
  L -17.712 2.304" stroke="none" fill="rgb(199,199,199)" />
<path d="
  M -16.488 1.080
  C -15.840 0.648 -14.976 0.216 -13.824 -0.000
  L -8.568 -0.000
  C -7.200 0.216 -5.688 0.576 -3.960 1.080
  L -16.488 1.080" stroke="none" fill="rgb(202,202,202)" />
<path d="
  M -3.312 1.080
  C -3.312 0.648 -3.096 0.288 -2.952 -0.000
  L 9.216 -0.000
  C 9.360 0.504 9.576 0.864 9.648 1.080
  L -3.312 1.080" stroke="none" fill="rgb(202,202,202)" />
<path d="
  M -13.824 -0.000
  C -12.456 -0.216 -10.728 -0.360 -8.568 -0.000
  L -13.824 -0.000" stroke="none" fill="rgb(202,202,202)" />
<path d="
  M -2.952 -0.000
  C -2.664 -0.432 -2.304 -0.864 -1.800 -1.152
  L 8.568 -1.152
  C 8.712 -0.936 8.856 -0.864 8.928 -0.720
  C 9.000 -0.432 9.072 -0.144 9.216 -0.000
  L -2.952 -0.000" stroke="none" fill="rgb(202,202,202)" />
<path d="
  M -1.800 -1.152
  C 1.008 -2.880 6.840 -2.448 8.568 -1.152
  L -1.800 -1.152" stroke="none" fill="rgb(204,204,204)" />
</g>
</g>
</svg>
