<?xml version="1.0" encoding="ISO-8859-1"?><!DOCTYPE svg PUBLIC "-//W3C//DTD SVG 1.1//EN" "http://www.w3.org/Graphics/SVG/1.1/DTD/svg11.dtd"><svg version="1.1" baseProfile="full" width="100%" height="100%" viewBox="-42.696 -40.320 85.320 80.712" xmlns="http://www.w3.org/2000/svg" xmlns:xlink="http://www.w3.org/1999/xlink">
<g>
<g>
<path d="
  M -19.440 4.824
  C -16.848 12.384 -10.800 18.288 -3.312 20.952
  L -19.440 4.824" stroke="none" fill="rgb(255,255,34)" />
<path d="
  M -19.440 4.824
  C -20.088 2.952 -20.592 0.936 -20.808 -1.152
  L 2.808 22.248
  C 0.720 22.032 -1.368 21.600 -3.312 20.952
  L -19.440 4.824" stroke="none" fill="rgb(255,255,44)" />
<path d="
  M -20.808 -1.152
  C -20.880 -2.016 -20.880 -2.808 -20.880 -3.672
  C -20.880 -4.464 -20.880 -5.328 -20.808 -5.976
  L 7.560 22.248
  C 6.768 22.320 5.976 22.320 5.184 22.320
  C 4.320 22.320 3.528 22.320 2.808 22.248
  L -20.808 -1.152" stroke="none" fill="rgb(255,255,54)" />
<path d="
  M -20.808 -5.976
  C -20.664 -7.488 -20.448 -8.928 -20.160 -10.224
  L 11.808 21.600
  C 10.440 21.960 9.072 22.104 7.560 22.248
  L -20.808 -5.976" stroke="none" fill="rgb(255,255,67)" />
<path d="
  M -20.160 -10.224
  C -19.872 -11.592 -19.584 -12.744 -19.080 -13.968
  L -8.136 -2.880
  C -5.400 2.808 -0.792 7.488 4.968 10.152
  L 15.408 20.520
  C 14.328 21.024 13.104 21.312 11.808 21.600
  L -20.160 -10.224" stroke="none" fill="rgb(255,255,77)" />
<path d="
  M -19.080 -13.968
  C -18.648 -15.048 -18.144 -16.200 -17.568 -17.208
  L -10.296 -10.080
  C -9.936 -7.632 -9.144 -5.112 -8.136 -2.880
  L -19.080 -13.968" stroke="none" fill="rgb(255,255,87)" />
<path d="
  M 4.968 10.152
  C 7.128 11.160 9.576 11.952 11.880 12.384
  L 18.720 19.008
  C 17.640 19.656 16.632 20.160 15.408 20.520
  L 4.968 10.152" stroke="none" fill="rgb(255,255,87)" />
<path d="
  M -17.568 -17.208
  C -16.992 -18.216 -16.272 -19.224 -15.552 -20.016
  L -10.728 -15.264
  C -10.728 -15.048 -10.728 -14.760 -10.728 -14.544
  C -10.728 -13.032 -10.656 -11.592 -10.296 -10.080
  L -17.568 -17.208" stroke="none" fill="rgb(255,255,97)" />
<path d="
  M 11.880 12.384
  C 13.392 12.672 15.048 12.816 16.632 12.816
  C 16.848 12.816 17.136 12.816 17.352 12.816
  L 21.528 16.992
  C 20.664 17.712 19.656 18.432 18.720 19.008
  L 11.880 12.384" stroke="none" fill="rgb(255,255,97)" />
<path d="
  M -15.552 -20.016
  C -14.832 -20.880 -14.112 -21.744 -13.248 -22.536
  L -10.224 -19.584
  C -10.512 -18.216 -10.728 -16.776 -10.728 -15.264
  L -15.552 -20.016" stroke="none" fill="rgb(255,255,108)" />
<path d="
  M 17.352 12.816
  C 18.864 12.816 20.232 12.600 21.672 12.384
  L 23.904 14.688
  C 23.184 15.480 22.392 16.272 21.528 16.992
  L 17.352 12.816" stroke="none" fill="rgb(255,255,108)" />
<path d="
  M -13.248 -22.536
  C -12.456 -23.184 -11.520 -23.904 -10.512 -24.624
  L -9.288 -23.400
  C -9.720 -22.176 -10.008 -20.880 -10.224 -19.584
  L -13.248 -22.536" stroke="none" fill="rgb(255,255,120)" />
<path d="
  M 21.672 12.384
  C 22.896 12.096 24.192 11.808 25.488 11.376
  L 25.992 11.880
  C 25.272 12.888 24.696 13.824 23.904 14.688
  L 21.672 12.384" stroke="none" fill="rgb(255,255,120)" />
<path d="
  M -10.512 -24.624
  C -9.792 -25.056 -9.144 -25.416 -8.424 -25.848
  C -8.712 -25.056 -9.000 -24.192 -9.288 -23.400
  L -10.512 -24.624" stroke="none" fill="rgb(255,255,131)" />
<path d="
  M 25.488 11.376
  C 25.776 11.160 26.208 11.088 26.496 10.944
  C 26.280 11.304 26.208 11.592 25.992 11.880
  L 25.488 11.376" stroke="none" fill="rgb(255,255,131)" />
</g>
<path d="
  M 26.496 10.944
  C 23.184 12.168 20.160 12.816 16.632 12.816
  C 1.512 12.816 -10.728 0.504 -10.728 -14.544
  C -10.728 -18.504 -9.936 -22.176 -8.424 -25.848
  C -16.848 -21.384 -20.880 -13.248 -20.880 -3.672
  C -20.880 10.800 -9.144 22.320 5.184 22.320
  C 14.328 22.320 22.032 18.792 26.496 10.944" stroke="rgb(0,0,0)" stroke-width="0.504" fill="none" />
<path d="
  M 31.896 14.472
  L 32.904 16.776
  L 34.704 16.776
  L 32.904 18.216
  L 34.200 20.952
  L 31.896 19.152
  L 29.664 20.952
  L 31.032 18.216
  L 29.160 16.776
  L 31.032 16.776
  L 31.896 14.472" stroke="rgb(0,0,0)" stroke-width="0.504" fill="rgb(255,255,153)" />
<path d="
  M -9.288 24.984
  L -8.280 27.288
  L -6.480 27.288
  L -8.280 28.656
  L -6.984 31.392
  L -9.288 29.592
  L -11.520 31.392
  L -10.224 28.656
  L -12.024 27.288
  L -10.224 27.288
  L -9.288 24.984" stroke="rgb(0,0,0)" stroke-width="0.504" fill="rgb(255,255,153)" />
<path d="
  M -32.040 9.288
  L -31.104 11.592
  L -29.304 11.592
  L -31.104 12.888
  L -29.736 15.624
  L -32.040 13.824
  L -34.344 15.624
  L -32.904 12.888
  L -34.776 11.592
  L -32.904 11.592
  L -32.040 9.288" stroke="rgb(0,0,0)" stroke-width="0.504" fill="rgb(255,255,153)" />
<path d="
  M 18.576 25.920
  L 19.440 28.296
  L 21.240 28.296
  L 19.440 29.664
  L 20.880 32.400
  L 18.576 30.600
  L 16.200 32.400
  L 17.640 29.664
  L 15.840 28.296
  L 17.640 28.296
  L 18.576 25.920" stroke="rgb(0,0,0)" stroke-width="0.504" fill="rgb(255,255,153)" />
<path d="
  M -19.944 -32.472
  L -19.080 -30.168
  L -17.280 -30.168
  L -19.080 -28.728
  L -17.640 -26.064
  L -19.944 -27.864
  L -22.320 -26.064
  L -20.880 -28.728
  L -22.680 -30.168
  L -20.880 -30.168
  L -19.944 -32.472" stroke="rgb(0,0,0)" stroke-width="0.504" fill="rgb(255,255,153)" />
</g>
</svg>
