<?xml version="1.0" encoding="ISO-8859-1"?><!DOCTYPE svg PUBLIC "-//W3C//DTD SVG 1.1//EN" "http://www.w3.org/Graphics/SVG/1.1/DTD/svg11.dtd"><svg version="1.1" baseProfile="full" width="100%" height="100%" viewBox="-43.920 -31.032 87.768 61.992" xmlns="http://www.w3.org/2000/svg" xmlns:xlink="http://www.w3.org/1999/xlink">
<g>
<g>
<path d="
  M -16.632 6.768
  C -11.808 5.112 -7.920 1.296 -6.336 -3.456
  L -16.632 6.768" stroke="none" fill="rgb(255,255,34)" />
<path d="
  M -16.632 6.768
  C -17.928 7.272 -19.152 7.632 -20.664 7.704
  L -5.472 -7.416
  C -5.544 -6.048 -5.832 -4.752 -6.336 -3.456
  L -16.632 6.768" stroke="none" fill="rgb(255,255,44)" />
<path d="
  M -20.664 7.704
  C -21.168 7.776 -21.744 7.776 -22.320 7.776
  C -22.824 7.776 -23.184 7.776 -23.616 7.704
  L -5.472 -10.512
  C -5.400 -9.936 -5.400 -9.288 -5.400 -8.784
  C -5.400 -8.280 -5.400 -7.920 -5.472 -7.416
  L -20.664 7.704" stroke="none" fill="rgb(255,255,54)" />
<path d="
  M -23.616 7.704
  C -24.552 7.632 -25.488 7.488 -26.280 7.344
  L -5.760 -13.176
  C -5.616 -12.312 -5.472 -11.376 -5.472 -10.512
  L -23.616 7.704" stroke="none" fill="rgb(255,255,67)" />
<path d="
  M -26.280 7.344
  C -27.144 7.128 -27.936 6.984 -28.656 6.624
  L -21.816 -0.216
  C -18.216 -1.944 -15.264 -4.968 -13.464 -8.568
  L -6.480 -15.552
  C -6.264 -14.832 -5.976 -14.040 -5.760 -13.176
  L -26.280 7.344" stroke="none" fill="rgb(255,255,77)" />
<path d="
  M -28.656 6.624
  C -29.376 6.408 -30.096 6.048 -30.744 5.688
  L -26.280 1.224
  C -24.768 0.936 -23.184 0.432 -21.816 -0.216
  L -28.656 6.624" stroke="none" fill="rgb(255,255,87)" />
<path d="
  M -13.464 -8.568
  C -12.816 -9.864 -12.384 -11.376 -12.024 -12.960
  L -7.560 -17.640
  C -7.128 -16.992 -6.840 -16.272 -6.480 -15.552
  L -13.464 -8.568" stroke="none" fill="rgb(255,255,87)" />
<path d="
  M -30.744 5.688
  C -31.392 5.256 -31.968 4.896 -32.616 4.392
  L -29.664 1.512
  C -28.440 1.512 -27.360 1.440 -26.280 1.224
  L -30.744 5.688" stroke="none" fill="rgb(255,255,97)" />
<path d="
  M -12.024 -12.960
  C -11.880 -13.896 -11.808 -14.832 -11.808 -15.768
  C -11.808 -15.984 -11.808 -16.200 -11.808 -16.344
  L -8.856 -19.512
  C -8.352 -18.936 -7.848 -18.288 -7.560 -17.640
  L -12.024 -12.960" stroke="none" fill="rgb(255,255,97)" />
<path d="
  M -32.616 4.392
  C -33.192 3.960 -33.624 3.456 -34.128 2.880
  L -32.544 1.224
  C -31.536 1.440 -30.672 1.512 -29.736 1.512
  C -29.736 1.512 -29.664 1.512 -29.664 1.512
  L -32.616 4.392" stroke="none" fill="rgb(255,255,108)" />
<path d="
  M -11.808 -16.344
  C -11.808 -17.352 -11.952 -18.288 -12.096 -19.152
  L -10.296 -21.024
  C -9.720 -20.520 -9.216 -20.088 -8.856 -19.512
  L -11.808 -16.344" stroke="none" fill="rgb(255,255,108)" />
<path d="
  M -34.128 2.880
  C -34.632 2.376 -35.136 1.728 -35.496 1.152
  L -34.920 0.576
  C -34.128 0.864 -33.336 1.080 -32.544 1.224
  L -34.128 2.880" stroke="none" fill="rgb(255,255,120)" />
<path d="
  M -12.096 -19.152
  C -12.168 -19.944 -12.456 -20.808 -12.672 -21.600
  L -12.024 -22.392
  C -11.376 -21.960 -10.800 -21.528 -10.296 -21.024
  L -12.096 -19.152" stroke="none" fill="rgb(255,255,120)" />
<path d="
  M -35.496 1.152
  C -35.640 0.864 -35.856 0.576 -36.000 0.288
  C -35.640 0.432 -35.280 0.504 -34.920 0.576
  L -35.496 1.152" stroke="none" fill="rgb(255,255,131)" />
<path d="
  M -12.672 -21.600
  C -12.816 -22.032 -13.032 -22.536 -13.176 -23.040
  C -12.744 -22.752 -12.384 -22.608 -12.024 -22.392
  L -12.672 -21.600" stroke="none" fill="rgb(255,255,131)" />
</g>
<path d="
  M -36.000 0.288
  C -33.912 1.008 -31.896 1.512 -29.736 1.512
  C -19.944 1.656 -11.952 -6.192 -11.808 -15.768
  C -11.808 -18.288 -12.312 -20.664 -13.176 -23.040
  C -7.848 -20.232 -5.256 -14.904 -5.400 -8.784
  C -5.472 0.360 -13.032 7.848 -22.320 7.776
  C -28.296 7.704 -33.192 5.328 -36.000 0.288" stroke="rgb(0,0,0)" stroke-width="0.504" fill="none" />
<g>
<g>
<g>
<path d="
  M -4.104 21.528
  C -3.024 21.960 -2.160 22.536 -0.720 23.112
  C 0.360 22.536 1.872 22.176 3.672 21.528
  L -4.104 21.528" stroke="none" fill="rgb(128,128,128)" />
<path d="
  M -4.104 21.528
  C -4.608 21.240 -5.184 21.024 -5.976 20.808
  C -6.480 20.664 -7.128 20.304 -7.704 19.800
  L 7.416 19.800
  C 6.120 20.520 4.752 21.096 3.672 21.528
  L -4.104 21.528" stroke="none" fill="rgb(131,131,131)" />
<path d="
  M -7.704 19.800
  C -8.352 19.224 -9.000 18.576 -9.144 18.144
  L 10.008 18.144
  C 9.144 18.792 8.280 19.368 7.416 19.800
  L -7.704 19.800" stroke="none" fill="rgb(133,133,133)" />
<path d="
  M -19.008 18.144
  C -18.720 18.360 -18.360 18.504 -18.000 18.720
  C -15.552 19.872 -13.248 18.720 -10.944 18.144
  L -19.008 18.144" stroke="none" fill="rgb(133,133,133)" />
<path d="
  M 14.400 18.144
  C 17.640 19.944 21.312 19.872 24.480 18.144
  L 14.400 18.144" stroke="none" fill="rgb(133,133,133)" />
<path d="
  M -19.008 18.144
  C -19.728 17.712 -20.376 17.136 -20.880 16.488
  L 12.024 16.416
  C 11.376 17.064 10.656 17.640 10.008 18.144
  L -9.144 18.144
  C -9.216 18.000 -9.216 17.856 -9.216 17.784
  C -9.792 17.856 -10.368 18.000 -10.944 18.144
  L -19.008 18.144" stroke="none" fill="rgb(136,136,136)" />
<path d="
  M 14.400 18.144
  C 13.608 17.640 12.888 17.064 12.168 16.416
  L 26.712 16.416
  C 25.992 17.064 25.272 17.640 24.480 18.144
  L 14.400 18.144" stroke="none" fill="rgb(136,136,136)" />
<path d="
  M -20.880 16.488
  C -21.312 15.984 -21.672 15.408 -21.888 14.760
  L 31.824 14.760
  C 30.672 15.120 29.448 15.264 27.864 15.264
  C 27.504 15.696 27.144 16.128 26.712 16.416
  L 12.168 16.416
  C 12.168 16.416 12.096 16.344 12.096 16.344
  C 12.096 16.344 12.024 16.416 12.024 16.416
  L -20.880 16.488" stroke="none" fill="rgb(138,138,138)" />
<path d="
  M -21.888 14.760
  C -22.176 14.184 -22.320 13.608 -22.464 13.032
  L 34.128 13.032
  C 34.056 13.320 33.912 13.536 33.840 13.752
  C 33.120 14.184 32.472 14.544 31.824 14.760
  L -21.888 14.760" stroke="none" fill="rgb(141,141,141)" />
<path d="
  M -22.464 13.032
  C -22.536 12.528 -22.536 11.952 -22.536 11.376
  L 34.488 11.376
  C 34.416 11.952 34.272 12.600 34.128 13.032
  L -22.464 13.032" stroke="none" fill="rgb(146,146,146)" />
<path d="
  M -22.536 11.376
  C -22.536 10.800 -22.392 10.224 -22.248 9.720
  L 34.776 9.720
  C 34.776 10.224 34.560 10.800 34.488 11.376
  L -22.536 11.376" stroke="none" fill="rgb(146,146,146)" />
<path d="
  M -22.248 9.720
  C -22.104 9.216 -21.816 8.712 -21.528 8.352
  C -21.600 8.208 -21.600 8.064 -21.672 7.992
  L 34.632 7.992
  C 34.776 8.568 34.776 9.144 34.776 9.720
  L -22.248 9.720" stroke="none" fill="rgb(151,151,151)" />
<path d="
  M -21.672 7.992
  C -21.888 7.488 -21.888 6.984 -21.816 6.336
  L 34.200 6.336
  C 34.416 6.768 34.560 7.344 34.632 7.992
  L -21.672 7.992" stroke="none" fill="rgb(153,153,153)" />
<path d="
  M -21.816 6.336
  C -21.816 5.760 -21.672 5.184 -21.456 4.608
  L 32.472 4.536
  C 33.264 5.040 33.768 5.616 34.200 6.336
  L -21.816 6.336" stroke="none" fill="rgb(153,153,153)" />
<path d="
  M -21.456 4.608
  C -21.312 4.032 -20.952 3.528 -20.736 2.952
  L 25.992 2.952
  C 26.208 3.312 26.496 3.888 26.640 4.536
  C 28.080 4.392 30.096 3.744 31.464 4.176
  C 31.824 4.320 32.184 4.392 32.472 4.536
  L -21.456 4.608" stroke="none" fill="rgb(159,159,159)" />
<path d="
  M -20.736 2.952
  C -20.304 2.304 -19.944 1.728 -19.512 1.224
  L 24.192 1.152
  C 24.912 1.584 25.488 2.160 25.992 2.952
  L -20.736 2.952" stroke="none" fill="rgb(161,161,161)" />
<path d="
  M -19.512 1.224
  C -19.512 1.224 -19.440 1.152 -19.440 1.152
  C -18.000 -0.360 -15.624 -0.288 -13.392 -0.288
  C -13.392 -0.360 -13.392 -0.360 -13.392 -0.432
  L 17.712 -0.432
  C 17.712 0.072 17.712 0.504 17.712 1.008
  C 20.376 0.576 22.608 0.360 24.192 1.152
  L -19.512 1.224" stroke="none" fill="rgb(164,164,164)" />
<path d="
  M -13.392 -0.432
  C -13.248 -1.008 -13.032 -1.656 -12.672 -2.160
  L 17.568 -2.160
  C 17.640 -1.584 17.640 -1.008 17.712 -0.432
  L -13.392 -0.432" stroke="none" fill="rgb(166,166,166)" />
<path d="
  M -12.672 -2.160
  C -12.384 -2.736 -11.880 -3.312 -11.376 -3.816
  L 17.280 -3.816
  C 17.352 -3.240 17.496 -2.664 17.568 -2.160
  L -12.672 -2.160" stroke="none" fill="rgb(169,169,169)" />
<path d="
  M -11.376 -3.816
  C -10.656 -4.536 -9.864 -5.112 -8.928 -5.472
  L -0.720 -5.616
  C -0.144 -5.256 0.360 -4.824 0.864 -4.392
  C 0.936 -4.752 1.008 -5.184 1.080 -5.472
  L 16.776 -5.472
  C 16.992 -4.968 17.136 -4.392 17.280 -3.816
  L -11.376 -3.816" stroke="none" fill="rgb(171,171,171)" />
<path d="
  M -8.928 -5.472
  C -6.408 -6.696 -3.240 -6.912 -0.720 -5.616
  L -8.928 -5.472" stroke="none" fill="rgb(174,174,174)" />
<path d="
  M 1.080 -5.472
  C 1.296 -6.120 1.728 -6.696 2.232 -7.200
  L 15.624 -7.200
  C 16.128 -6.696 16.416 -6.120 16.776 -5.472
  L 1.080 -5.472" stroke="none" fill="rgb(174,174,174)" />
<path d="
  M 2.232 -7.200
  C 2.952 -7.992 3.888 -8.568 4.896 -8.928
  L 13.104 -8.928
  C 14.184 -8.568 15.048 -7.992 15.624 -7.200
  L 2.232 -7.200" stroke="none" fill="rgb(176,176,176)" />
<path d="
  M 4.896 -8.928
  C 7.272 -9.792 10.080 -9.864 12.240 -9.216
  C 12.600 -9.144 12.888 -9.072 13.104 -8.928
  L 4.896 -8.928" stroke="none" fill="rgb(179,179,179)" />
</g>
<path d="
  M -21.528 8.352
  C -22.608 6.552 -21.024 2.952 -19.440 1.152
  C -18.000 -0.360 -15.624 -0.288 -13.392 -0.288
  C -12.168 -5.832 -3.744 -8.784 0.864 -4.392
  C 1.368 -9.000 7.992 -10.512 12.240 -9.216
  C 17.208 -7.920 17.712 -3.240 17.712 1.008
  C 22.032 0.288 25.416 0.144 26.640 4.536
  C 28.080 4.392 30.096 3.744 31.464 4.176
  C 35.928 5.616 34.920 10.584 33.840 13.752
  C 31.680 15.048 30.240 15.264 27.864 15.264
  C 23.760 20.304 16.920 21.024 12.096 16.344
  C 7.128 21.168 2.016 21.744 -0.720 23.112
  C -2.952 22.248 -3.744 21.456 -5.976 20.808
  C -7.128 20.520 -9.216 18.720 -9.216 17.784
  C -12.168 18.072 -14.976 20.160 -18.000 18.720
  C -22.176 16.920 -23.832 11.592 -21.528 8.352" stroke="rgb(0,0,0)" stroke-width="0.504" fill="none" />
<g>
<path d="
  M -5.040 16.344
  C -5.040 16.344 -4.968 16.416 -4.968 16.416
  C -2.232 17.424 0.000 17.568 2.016 16.344
  L -5.040 16.344" stroke="none" fill="rgb(179,179,179)" />
<path d="
  M -5.040 16.344
  C -5.472 15.984 -5.544 15.552 -5.400 15.048
  L 3.528 15.048
  C 3.096 15.624 2.520 16.056 2.016 16.344
  L -5.040 16.344" stroke="none" fill="rgb(182,182,182)" />
<path d="
  M -5.400 15.048
  C -5.184 14.616 -4.896 14.184 -4.536 13.680
  L 1.800 13.680
  C 2.304 14.256 3.168 14.904 3.672 14.976
  C 3.672 14.976 3.528 15.048 3.528 15.048
  L -5.400 15.048" stroke="none" fill="rgb(182,182,182)" />
<path d="
  M -18.720 13.752
  C -17.712 14.976 -16.344 14.760 -14.976 13.680
  L -18.720 13.752" stroke="none" fill="rgb(182,182,182)" />
<path d="
  M 3.456 13.680
  C 5.184 14.040 6.840 14.184 8.496 13.680
  L 3.456 13.680" stroke="none" fill="rgb(182,182,182)" />
<path d="
  M 23.328 13.680
  C 23.760 13.896 23.976 13.968 23.688 13.968
  C 24.264 14.184 24.840 14.040 25.344 13.680
  L 23.328 13.680" stroke="none" fill="rgb(182,182,182)" />
<path d="
  M -18.720 13.752
  C -19.008 13.392 -19.152 12.960 -19.440 12.312
  L -11.160 12.312
  C -11.664 12.816 -11.952 13.320 -12.672 12.528
  C -12.888 14.040 -15.624 12.312 -14.256 13.032
  C -14.544 13.320 -14.760 13.536 -14.976 13.680
  L -18.720 13.752" stroke="none" fill="rgb(184,184,184)" />
<path d="
  M -4.536 13.680
  C -4.104 13.248 -3.528 12.744 -3.096 12.312
  L 9.000 12.312
  C 9.288 12.672 9.504 12.888 9.864 13.248
  C 9.432 13.464 8.928 13.608 8.496 13.680
  L 3.456 13.680
  C 2.808 13.608 2.088 13.464 1.440 13.248
  C 1.584 13.392 1.656 13.536 1.800 13.680
  L -4.536 13.680" stroke="none" fill="rgb(184,184,184)" />
<path d="
  M 23.328 13.680
  C 22.536 13.392 20.808 12.888 20.232 12.312
  L 26.640 12.312
  C 26.208 12.888 25.848 13.392 25.344 13.680
  L 23.328 13.680" stroke="none" fill="rgb(184,184,184)" />
<path d="
  M -19.440 12.312
  C -19.440 12.312 -19.440 12.240 -19.440 12.240
  C -19.512 11.880 -19.584 11.448 -19.584 11.088
  L -9.144 10.944
  C -9.288 11.088 -9.360 11.304 -9.360 11.592
  C -10.296 11.592 -10.728 12.024 -11.160 12.312
  L -19.440 12.312" stroke="none" fill="rgb(184,184,184)" />
<path d="
  M -3.096 12.312
  C -2.520 11.880 -2.160 11.448 -2.088 11.304
  C -4.968 11.304 -6.336 13.248 -6.912 11.088
  L 8.208 11.160
  C 8.496 11.520 8.712 11.952 9.000 12.312
  L -3.096 12.312" stroke="none" fill="rgb(184,184,184)" />
<path d="
  M 20.232 12.312
  C 19.944 12.168 19.872 12.096 19.872 11.952
  C 18.360 11.952 17.784 11.664 17.568 11.088
  L 27.504 11.088
  C 27.216 11.448 26.856 11.952 26.640 12.312
  L 20.232 12.312" stroke="none" fill="rgb(184,184,184)" />
<path d="
  M 11.232 11.160
  C 12.600 12.096 14.184 12.528 15.840 11.160
  L 11.232 11.160" stroke="none" fill="rgb(184,184,184)" />
<path d="
  M -19.584 11.088
  C -19.512 10.656 -19.440 10.152 -19.368 9.792
  L 7.992 9.720
  C 7.992 10.152 8.064 10.656 8.208 11.160
  L -6.912 11.088
  C -6.984 10.800 -6.984 10.584 -7.056 10.224
  C -7.272 11.304 -8.568 10.584 -9.144 10.944
  L -19.584 11.088" stroke="none" fill="rgb(187,187,187)" />
<path d="
  M 11.232 11.160
  C 10.728 10.728 10.224 10.224 9.864 9.720
  L 15.696 9.720
  C 15.480 10.080 15.480 10.296 16.200 10.800
  C 16.128 10.872 15.912 11.088 15.840 11.160
  L 11.232 11.160" stroke="none" fill="rgb(187,187,187)" />
<path d="
  M 17.568 11.088
  C 17.352 10.728 17.280 10.224 17.208 9.720
  L 31.824 9.720
  C 30.240 10.296 30.456 9.792 28.584 9.792
  C 28.152 10.080 27.864 10.584 27.504 11.088
  L 17.568 11.088" stroke="none" fill="rgb(187,187,187)" />
<path d="
  M -19.368 9.792
  C -19.296 9.288 -19.080 8.784 -18.864 8.352
  L -16.776 8.352
  C -16.344 8.496 -15.912 8.496 -15.192 8.496
  C -15.192 8.424 -15.264 8.424 -15.264 8.352
  L 8.064 8.352
  C 7.992 8.784 7.992 9.288 7.992 9.720
  L -19.368 9.792" stroke="none" fill="rgb(187,187,187)" />
<path d="
  M 9.864 9.720
  C 9.432 9.216 9.000 8.712 8.712 8.352
  L 16.488 8.424
  C 16.272 9.072 15.912 9.360 15.696 9.720
  L 9.864 9.720" stroke="none" fill="rgb(187,187,187)" />
<path d="
  M 17.208 9.720
  C 17.136 9.288 16.992 8.856 16.848 8.352
  L 32.328 8.208
  C 32.328 8.712 32.256 9.144 32.112 9.576
  C 32.040 9.576 31.968 9.720 31.824 9.720
  L 17.208 9.720" stroke="none" fill="rgb(187,187,187)" />
<path d="
  M -18.864 8.352
  C -18.720 7.920 -18.576 7.488 -18.360 7.056
  L -17.712 7.056
  C -17.496 7.776 -17.280 8.136 -16.776 8.352
  L -18.864 8.352" stroke="none" fill="rgb(189,189,189)" />
<path d="
  M -15.264 8.352
  C -15.480 7.920 -15.624 7.488 -15.768 7.056
  L 32.184 7.056
  C 32.328 7.344 32.400 7.848 32.328 8.208
  L 16.848 8.352
  C 16.776 8.064 16.632 7.848 16.560 7.632
  C 16.560 7.920 16.488 8.136 16.488 8.424
  L 8.712 8.352
  C 8.568 8.064 8.352 7.848 8.208 7.632
  C 8.136 7.848 8.136 8.064 8.064 8.352
  L -15.264 8.352" stroke="none" fill="rgb(189,189,189)" />
<path d="
  M -18.360 7.056
  C -18.216 6.552 -18.144 6.120 -18.000 5.688
  C -17.928 6.264 -17.856 6.696 -17.712 7.056
  L -18.360 7.056" stroke="none" fill="rgb(189,189,189)" />
<path d="
  M -15.768 7.056
  C -15.912 6.624 -15.984 6.120 -15.984 5.688
  L 25.056 5.688
  C 25.056 5.976 25.056 6.336 25.056 6.696
  C 25.272 6.336 25.560 5.904 25.920 5.688
  L 31.176 5.688
  C 31.608 5.976 31.968 6.480 32.184 7.056
  L -15.768 7.056" stroke="none" fill="rgb(189,189,189)" />
<path d="
  M -15.984 5.688
  C -16.056 5.184 -16.056 4.680 -15.912 4.320
  L 17.280 4.320
  C 17.280 4.752 17.280 5.184 17.280 5.688
  C 18.648 5.112 19.224 4.896 19.440 4.320
  L 24.768 4.320
  C 24.840 4.680 24.912 5.112 25.056 5.688
  L -15.984 5.688" stroke="none" fill="rgb(192,192,192)" />
<path d="
  M 25.920 5.688
  C 27.504 4.464 29.736 4.536 31.176 5.688
  L 25.920 5.688" stroke="none" fill="rgb(192,192,192)" />
<path d="
  M -18.072 4.248
  C -18.072 4.392 -18.072 4.464 -18.000 4.608
  C -17.928 4.536 -17.928 4.392 -17.856 4.320
  L -18.072 4.248" stroke="none" fill="rgb(192,192,192)" />
<path d="
  M -18.072 4.248
  C -18.216 3.744 -18.288 3.312 -18.360 2.952
  L -16.488 3.024
  C -16.992 3.240 -17.496 3.744 -17.856 4.320
  L -18.072 4.248" stroke="none" fill="rgb(192,192,192)" />
<path d="
  M -15.912 4.320
  C -15.840 3.816 -15.624 3.312 -15.408 2.952
  L 17.280 3.024
  C 17.280 3.456 17.280 3.888 17.280 4.320
  L -15.912 4.320" stroke="none" fill="rgb(192,192,192)" />
<path d="
  M 19.440 4.320
  C 19.656 3.960 19.728 3.600 19.728 3.024
  L 24.120 2.952
  C 24.480 3.240 24.624 3.744 24.768 4.320
  L 19.440 4.320" stroke="none" fill="rgb(192,192,192)" />
<path d="
  M -18.360 2.952
  C -18.432 2.376 -18.360 1.872 -18.216 1.584
  L 17.208 1.656
  C 17.280 2.160 17.280 2.520 17.280 3.024
  L -15.408 2.952
  C -15.264 2.880 -15.192 2.664 -14.976 2.520
  C -15.480 2.520 -16.056 2.664 -16.488 3.024
  L -18.360 2.952" stroke="none" fill="rgb(194,194,194)" />
<path d="
  M 19.728 3.024
  C 19.728 2.664 19.728 2.448 19.728 2.088
  C 21.960 2.088 23.328 2.160 24.120 2.952
  L 19.728 3.024" stroke="none" fill="rgb(194,194,194)" />
<path d="
  M -18.216 1.584
  C -17.352 -0.648 -12.672 1.224 -10.584 1.224
  C -10.656 1.008 -10.656 0.720 -10.656 0.288
  L 16.848 0.288
  C 17.064 0.720 17.136 1.152 17.208 1.656
  L -18.216 1.584" stroke="none" fill="rgb(197,197,197)" />
<path d="
  M -10.656 0.288
  C -10.584 -0.144 -10.584 -0.504 -10.440 -1.008
  L 15.840 -1.008
  C 16.344 -0.648 16.632 -0.216 16.848 0.288
  L -10.656 0.288" stroke="none" fill="rgb(197,197,197)" />
<path d="
  M -10.440 -1.008
  C -10.368 -1.512 -10.152 -1.872 -9.936 -2.376
  L 12.888 -2.376
  C 12.888 -2.232 12.816 -2.016 12.744 -1.872
  C 14.184 -1.872 15.192 -1.584 15.840 -1.008
  L -10.440 -1.008" stroke="none" fill="rgb(199,199,199)" />
<path d="
  M -9.936 -2.376
  C -9.720 -2.880 -9.360 -3.312 -8.928 -3.744
  L 1.152 -3.744
  C 1.368 -3.672 1.656 -3.600 1.944 -3.384
  C 1.944 -3.600 1.944 -3.672 1.944 -3.744
  L 12.816 -3.744
  C 12.960 -3.240 12.960 -2.880 12.888 -2.376
  L -9.936 -2.376" stroke="none" fill="rgb(199,199,199)" />
<path d="
  M -8.928 -3.744
  C -8.280 -4.320 -7.488 -4.752 -6.408 -5.040
  L -3.024 -5.040
  C -1.800 -4.824 -0.360 -4.464 1.152 -3.744
  L -8.928 -3.744" stroke="none" fill="rgb(202,202,202)" />
<path d="
  M 1.944 -3.744
  C 2.016 -4.248 2.088 -4.608 2.304 -5.040
  L 12.384 -4.968
  C 12.600 -4.464 12.744 -4.032 12.816 -3.744
  L 1.944 -3.744" stroke="none" fill="rgb(202,202,202)" />
<path d="
  M -6.408 -5.040
  C -5.472 -5.184 -4.392 -5.256 -3.024 -5.040
  L -6.408 -5.040" stroke="none" fill="rgb(202,202,202)" />
<path d="
  M 2.304 -5.040
  C 2.520 -5.616 2.952 -6.048 3.312 -6.480
  L 11.808 -6.408
  C 12.024 -6.120 12.168 -5.976 12.240 -5.760
  C 12.312 -5.400 12.312 -5.184 12.384 -4.968
  L 2.304 -5.040" stroke="none" fill="rgb(202,202,202)" />
<path d="
  M 3.312 -6.480
  C 5.760 -8.280 10.296 -7.848 11.808 -6.408
  L 3.312 -6.480" stroke="none" fill="rgb(204,204,204)" />
</g>
<path d="
  M -18.000 5.688
  C -18.648 8.064 -20.016 10.152 -19.440 12.240
  C -18.432 15.552 -16.200 14.904 -14.256 13.032
  C -15.624 12.312 -12.888 14.040 -12.672 12.528
  C -11.376 13.896 -11.520 11.592 -9.360 11.592
  C -9.360 10.080 -7.344 11.520 -7.056 10.224
  C -6.552 13.608 -5.256 11.304 -2.088 11.304
  C -2.304 11.952 -6.912 14.832 -4.968 16.416
  C -1.512 17.640 1.224 17.640 3.672 14.976
  C 3.024 14.904 1.800 13.896 1.440 13.248
  C 4.032 14.040 7.272 14.544 9.864 13.248
  C 8.064 11.592 7.632 10.152 8.208 7.632
  C 9.864 9.936 12.816 14.112 16.200 10.800
  C 14.544 9.792 16.560 9.720 16.560 7.632
  C 17.856 10.800 16.632 11.952 19.872 11.952
  C 19.872 12.816 24.696 13.968 23.688 13.968
  C 25.920 14.760 26.856 11.304 28.584 9.792
  C 30.600 9.792 30.240 10.440 32.112 9.576
  C 33.768 4.896 27.216 3.096 25.056 6.696
  C 25.056 2.376 23.760 2.088 19.728 2.088
  C 19.728 4.608 19.728 4.608 17.280 5.688
  C 17.280 2.088 17.856 -1.872 12.744 -1.872
  C 13.320 -3.240 12.672 -3.744 12.240 -5.760
  C 11.448 -8.208 1.944 -9.000 1.944 -3.384
  C -9.360 -8.496 -11.016 -1.224 -10.584 1.224
  C -13.248 1.224 -20.160 -1.944 -18.000 4.608
  C -17.424 3.456 -16.200 2.592 -14.976 2.520
  C -16.488 3.960 -16.200 6.624 -15.192 8.496
  C -17.424 8.496 -17.568 8.064 -18.000 5.688" stroke="rgb(0,0,0)" stroke-width="0.504" fill="none" />
</g>
<path d="
  M 10.728 4.896
  L 3.456 9.936
  L 3.456 6.552
  L -7.704 6.552
  L -7.704 3.168
  L 3.456 3.168
  L 3.456 -0.216
  L 10.728 4.896" stroke="rgb(0,0,0)" stroke-width="0.504" fill="rgb(255,255,153)" />
</g>
</g>
</svg>
