<?xml version="1.0" encoding="ISO-8859-1"?><!DOCTYPE svg PUBLIC "-//W3C//DTD SVG 1.1//EN" "http://www.w3.org/Graphics/SVG/1.1/DTD/svg11.dtd"><svg version="1.1" baseProfile="full" width="100%" height="100%" viewBox="-43.344 -27.576 86.616 55.080" xmlns="http://www.w3.org/2000/svg" xmlns:xlink="http://www.w3.org/1999/xlink">
<g>
<g>
<g>
<path d="
  M 1.512 -1.728
  L 2.088 -1.584
  L 1.512 -1.512
  L 1.512 -1.728" stroke="none" fill="rgb(255,255,54)" />
<path d="
  M -0.360 -9.360
  L 0.216 -9.720
  L -0.504 -9.576
  L -0.360 -9.360" stroke="none" fill="rgb(255,255,54)" />
<path d="
  M -5.112 -15.480
  L -4.824 -15.912
  L -5.256 -15.552
  L -5.112 -15.480" stroke="none" fill="rgb(255,255,54)" />
<path d="
  M -12.168 -19.008
  L -12.168 -19.368
  L -12.312 -19.008
  L -12.168 -19.008" stroke="none" fill="rgb(255,255,54)" />
<path d="
  M -20.232 -19.296
  L -20.376 -19.584
  L -20.376 -19.296
  L -20.232 -19.296" stroke="none" fill="rgb(255,255,54)" />
<path d="
  M -27.576 -15.912
  L -28.008 -16.416
  L -27.720 -15.768
  L -27.576 -15.912" stroke="none" fill="rgb(255,255,54)" />
<path d="
  M -34.848 -1.656
  L -35.424 -1.584
  L -34.848 -1.512
  L -34.848 -1.656" stroke="none" fill="rgb(255,255,54)" />
<path d="
  M -20.448 16.200
  L -20.448 16.632
  L -20.304 16.272
  L -20.448 16.200" stroke="none" fill="rgb(255,255,54)" />
<path d="
  M -12.528 16.128
  L -12.456 16.416
  L -12.456 16.128
  L -12.528 16.128" stroke="none" fill="rgb(255,255,54)" />
<path d="
  M -5.112 12.456
  L -4.608 13.032
  L -4.968 12.312
  L -5.112 12.456" stroke="none" fill="rgb(255,255,54)" />
<path d="
  M -0.360 6.264
  L 0.648 6.696
  L -0.216 5.976
  C -0.216 6.048 -0.216 6.120 -0.360 6.264" stroke="none" fill="rgb(255,255,54)" />
<path d="
  M 1.512 -1.728
  L 0.144 -1.944
  C 0.216 -1.728 0.216 -1.584 0.216 -1.368
  L 1.512 -1.512
  L 1.512 -1.728" stroke="none" fill="rgb(255,255,67)" />
<path d="
  M -0.360 -9.360
  L -1.368 -8.568
  C -1.368 -8.712 -1.512 -8.928 -1.728 -9.216
  L -0.504 -9.576
  L -0.360 -9.360" stroke="none" fill="rgb(255,255,67)" />
<path d="
  M -5.112 -15.480
  L -5.832 -14.328
  C -5.976 -14.544 -6.120 -14.688 -6.264 -14.688
  L -5.256 -15.552
  L -5.112 -15.480" stroke="none" fill="rgb(255,255,67)" />
<path d="
  M -12.168 -19.008
  L -12.312 -17.640
  C -12.600 -17.928 -12.816 -17.928 -12.816 -17.856
  L -12.312 -19.008
  L -12.168 -19.008" stroke="none" fill="rgb(255,255,67)" />
<path d="
  M -20.232 -19.296
  L -19.728 -18.000
  C -19.800 -18.072 -20.016 -18.072 -20.304 -17.928
  L -20.376 -19.296
  L -20.232 -19.296" stroke="none" fill="rgb(255,255,67)" />
<path d="
  M -27.576 -15.912
  L -26.640 -15.048
  C -26.712 -15.048 -26.856 -14.832 -27.000 -14.688
  L -27.720 -15.768
  L -27.576 -15.912" stroke="none" fill="rgb(255,255,67)" />
<path d="
  M -34.848 -1.656
  L -33.480 -1.872
  C -33.552 -1.656 -33.552 -1.512 -33.552 -1.296
  L -34.848 -1.512
  L -34.848 -1.656" stroke="none" fill="rgb(255,255,67)" />
<path d="
  M -20.448 16.200
  L -20.304 14.904
  C -20.016 15.120 -19.800 15.120 -19.728 14.976
  L -20.304 16.272
  L -20.448 16.200" stroke="none" fill="rgb(255,255,67)" />
<path d="
  M -12.528 16.128
  L -13.032 14.904
  C -12.960 14.904 -12.672 14.904 -12.384 14.760
  L -12.456 16.128
  L -12.528 16.128" stroke="none" fill="rgb(255,255,67)" />
<path d="
  M -5.112 12.456
  L -6.048 11.592
  C -5.832 11.520 -5.688 11.376 -5.472 11.160
  L -4.968 12.312
  L -5.112 12.456" stroke="none" fill="rgb(255,255,67)" />
<path d="
  M -0.360 6.264
  L -1.512 5.832
  C -1.296 5.544 -1.224 5.328 -1.224 5.184
  L -0.216 5.976
  C -0.216 6.048 -0.216 6.120 -0.360 6.264" stroke="none" fill="rgb(255,255,67)" />
<path d="
  M -31.752 -9.000
  L -32.616 -9.216
  L -31.896 -8.712
  C -31.968 -8.712 -31.896 -8.784 -31.752 -9.000" stroke="none" fill="rgb(255,255,67)" />
<path d="
  M -32.040 5.400
  L -33.048 5.976
  L -31.896 5.688
  C -32.040 5.472 -32.112 5.400 -32.040 5.400" stroke="none" fill="rgb(255,255,67)" />
<path d="
  M -27.432 11.448
  L -27.792 12.024
  L -27.288 11.592
  L -27.432 11.448" stroke="none" fill="rgb(255,255,67)" />
<path d="
  M 0.144 -1.944
  L -1.152 -2.304
  C -1.080 -1.872 -1.080 -1.512 -1.080 -1.224
  L 0.216 -1.368
  C 0.216 -1.584 0.216 -1.728 0.144 -1.944" stroke="none" fill="rgb(255,255,77)" />
<path d="
  M -1.368 -8.568
  L -2.376 -7.920
  C -2.520 -8.208 -2.664 -8.568 -3.024 -9.000
  L -1.728 -9.216
  C -1.512 -8.928 -1.368 -8.712 -1.368 -8.568" stroke="none" fill="rgb(255,255,77)" />
<path d="
  M -5.832 -14.328
  L -6.552 -13.176
  C -6.768 -13.536 -6.984 -13.752 -7.344 -13.896
  L -6.264 -14.688
  C -6.120 -14.688 -5.976 -14.544 -5.832 -14.328" stroke="none" fill="rgb(255,255,77)" />
<path d="
  M -12.312 -17.640
  L -12.456 -16.488
  C -12.816 -16.632 -13.104 -16.704 -13.248 -16.704
  L -12.816 -17.856
  C -12.816 -17.928 -12.600 -17.928 -12.312 -17.640" stroke="none" fill="rgb(255,255,77)" />
<path d="
  M -19.728 -18.000
  L -19.224 -16.848
  C -19.512 -16.848 -19.800 -16.776 -20.232 -16.632
  L -20.304 -17.928
  C -20.016 -18.072 -19.800 -18.072 -19.728 -18.000" stroke="none" fill="rgb(255,255,77)" />
<path d="
  M -26.640 -15.048
  L -25.704 -14.112
  C -25.920 -14.040 -26.208 -13.824 -26.352 -13.536
  L -27.000 -14.688
  C -26.856 -14.832 -26.712 -15.048 -26.640 -15.048" stroke="none" fill="rgb(255,255,77)" />
<path d="
  M -31.752 -9.000
  L -30.456 -8.640
  C -30.672 -8.424 -30.744 -8.208 -30.816 -7.992
  L -31.896 -8.712
  C -31.968 -8.712 -31.896 -8.784 -31.752 -9.000" stroke="none" fill="rgb(255,255,77)" />
<path d="
  M -33.480 -1.872
  L -32.184 -2.016
  C -32.256 -1.728 -32.256 -1.440 -32.184 -1.152
  L -33.552 -1.296
  C -33.552 -1.512 -33.552 -1.656 -33.480 -1.872" stroke="none" fill="rgb(255,255,77)" />
<path d="
  M -32.040 5.400
  L -30.960 4.680
  C -30.888 4.824 -30.816 5.112 -30.600 5.400
  L -31.896 5.688
  C -32.040 5.472 -32.112 5.400 -32.040 5.400" stroke="none" fill="rgb(255,255,77)" />
<path d="
  M -27.432 11.448
  L -26.640 10.296
  C -26.568 10.512 -26.352 10.656 -26.208 10.728
  L -27.288 11.592
  L -27.432 11.448" stroke="none" fill="rgb(255,255,77)" />
<path d="
  M -20.304 14.904
  L -20.232 13.680
  C -19.800 13.824 -19.512 13.896 -19.224 13.896
  L -19.728 14.976
  C -19.800 15.120 -20.016 15.120 -20.304 14.904" stroke="none" fill="rgb(255,255,77)" />
<path d="
  M -13.032 14.904
  L -13.392 13.752
  C -13.104 13.752 -12.816 13.680 -12.384 13.392
  L -12.384 14.760
  C -12.672 14.904 -12.960 14.904 -13.032 14.904" stroke="none" fill="rgb(255,255,77)" />
<path d="
  M -6.048 11.592
  L -6.912 10.584
  C -6.624 10.440 -6.336 10.152 -6.120 9.864
  L -5.472 11.160
  C -5.688 11.376 -5.832 11.520 -6.048 11.592" stroke="none" fill="rgb(255,255,77)" />
<path d="
  M -1.512 5.832
  L -2.664 5.400
  C -2.448 4.968 -2.304 4.608 -2.160 4.320
  L -1.224 5.184
  C -1.224 5.328 -1.296 5.544 -1.512 5.832" stroke="none" fill="rgb(255,255,77)" />
<path d="
  M -1.152 -2.304
  L -2.376 -2.520
  C -2.304 -1.944 -2.304 -1.512 -2.376 -1.008
  L -1.080 -1.224
  C -1.080 -1.512 -1.080 -1.872 -1.152 -2.304" stroke="none" fill="rgb(255,255,87)" />
<path d="
  M -2.376 -7.920
  L -3.528 -7.128
  C -3.672 -7.632 -3.888 -8.208 -4.320 -8.712
  L -3.024 -9.000
  C -2.664 -8.568 -2.520 -8.208 -2.376 -7.920" stroke="none" fill="rgb(255,255,87)" />
<path d="
  M -6.552 -13.176
  L -7.200 -12.240
  C -7.560 -12.528 -7.920 -12.816 -8.280 -13.104
  L -7.344 -13.896
  C -6.984 -13.752 -6.768 -13.536 -6.552 -13.176" stroke="none" fill="rgb(255,255,87)" />
<path d="
  M -12.456 -16.488
  L -12.600 -15.120
  C -13.104 -15.336 -13.464 -15.408 -13.752 -15.480
  L -13.248 -16.704
  C -13.104 -16.704 -12.816 -16.632 -12.456 -16.488" stroke="none" fill="rgb(255,255,87)" />
<path d="
  M -19.224 -16.848
  L -18.792 -15.552
  C -19.152 -15.552 -19.584 -15.480 -20.160 -15.264
  L -20.232 -16.632
  C -19.800 -16.776 -19.512 -16.848 -19.224 -16.848" stroke="none" fill="rgb(255,255,87)" />
<path d="
  M -25.704 -14.112
  L -24.768 -13.248
  C -25.056 -13.032 -25.416 -12.744 -25.776 -12.456
  L -26.352 -13.536
  C -26.208 -13.824 -25.920 -14.040 -25.704 -14.112" stroke="none" fill="rgb(255,255,87)" />
<path d="
  M -30.456 -8.640
  L -29.232 -8.280
  C -29.448 -7.920 -29.592 -7.560 -29.736 -7.272
  L -30.816 -7.992
  C -30.744 -8.208 -30.672 -8.424 -30.456 -8.640" stroke="none" fill="rgb(255,255,87)" />
<path d="
  M -32.184 -2.016
  L -30.888 -2.232
  C -30.960 -1.728 -30.960 -1.368 -30.888 -0.936
  L -32.184 -1.152
  C -32.256 -1.440 -32.256 -1.728 -32.184 -2.016" stroke="none" fill="rgb(255,255,87)" />
<path d="
  M -30.960 4.680
  L -29.808 4.032
  C -29.736 4.320 -29.592 4.680 -29.304 5.112
  L -30.600 5.400
  C -30.816 5.112 -30.888 4.824 -30.960 4.680" stroke="none" fill="rgb(255,255,87)" />
<path d="
  M -26.640 10.296
  L -25.992 9.216
  C -25.776 9.576 -25.416 9.792 -25.128 9.936
  L -26.208 10.728
  C -26.352 10.656 -26.568 10.512 -26.640 10.296" stroke="none" fill="rgb(255,255,87)" />
<path d="
  M -20.232 13.680
  L -20.088 12.384
  C -19.512 12.528 -19.080 12.600 -18.720 12.600
  L -19.224 13.896
  C -19.512 13.896 -19.800 13.824 -20.232 13.680" stroke="none" fill="rgb(255,255,87)" />
<path d="
  M -13.392 13.752
  L -13.752 12.528
  C -13.392 12.456 -12.888 12.312 -12.312 12.024
  L -12.384 13.392
  C -12.816 13.680 -13.104 13.752 -13.392 13.752" stroke="none" fill="rgb(255,255,87)" />
<path d="
  M -6.912 10.584
  L -7.848 9.720
  C -7.416 9.504 -6.984 9.072 -6.624 8.712
  L -6.120 9.864
  C -6.336 10.152 -6.624 10.440 -6.912 10.584" stroke="none" fill="rgb(255,255,87)" />
<path d="
  M -2.664 5.400
  L -3.888 4.896
  C -3.600 4.392 -3.384 3.960 -3.312 3.456
  L -2.160 4.320
  C -2.304 4.608 -2.448 4.968 -2.664 5.400" stroke="none" fill="rgb(255,255,87)" />
<path d="
  M -2.376 -2.520
  L -3.744 -2.808
  C -3.600 -2.160 -3.600 -1.512 -3.672 -0.864
  L -2.376 -1.008
  C -2.304 -1.512 -2.304 -1.944 -2.376 -2.520" stroke="none" fill="rgb(255,255,97)" />
<path d="
  M -3.528 -7.128
  L -4.608 -6.336
  C -4.824 -7.056 -5.112 -7.704 -5.688 -8.424
  L -4.320 -8.712
  C -3.888 -8.208 -3.672 -7.632 -3.528 -7.128" stroke="none" fill="rgb(255,255,97)" />
<path d="
  M -7.200 -12.240
  L -7.920 -11.016
  C -8.352 -11.520 -8.928 -11.880 -9.360 -12.240
  L -8.280 -13.104
  C -7.920 -12.816 -7.560 -12.528 -7.200 -12.240" stroke="none" fill="rgb(255,255,97)" />
<path d="
  M -12.600 -15.120
  L -12.816 -13.824
  C -13.320 -14.040 -13.752 -14.184 -14.328 -14.184
  L -13.752 -15.480
  C -13.464 -15.408 -13.104 -15.336 -12.600 -15.120" stroke="none" fill="rgb(255,255,97)" />
<path d="
  M -18.792 -15.552
  L -18.216 -14.328
  C -18.864 -14.328 -19.440 -14.184 -20.088 -13.968
  L -20.160 -15.264
  C -19.584 -15.480 -19.152 -15.552 -18.792 -15.552" stroke="none" fill="rgb(255,255,97)" />
<path d="
  M -24.768 -13.248
  L -23.760 -12.312
  C -24.264 -12.096 -24.696 -11.736 -25.056 -11.232
  L -25.776 -12.456
  C -25.416 -12.744 -25.056 -13.032 -24.768 -13.248" stroke="none" fill="rgb(255,255,97)" />
<path d="
  M -29.232 -8.280
  L -27.864 -7.992
  C -28.224 -7.416 -28.584 -6.912 -28.656 -6.552
  L -29.736 -7.272
  C -29.592 -7.560 -29.448 -7.920 -29.232 -8.280" stroke="none" fill="rgb(255,255,97)" />
<path d="
  M -30.888 -2.232
  L -29.592 -2.448
  C -29.664 -1.800 -29.664 -1.296 -29.592 -0.720
  L -30.888 -0.936
  C -30.960 -1.368 -30.960 -1.728 -30.888 -2.232" stroke="none" fill="rgb(255,255,97)" />
<path d="
  M -29.808 4.032
  L -28.728 3.240
  C -28.656 3.744 -28.368 4.176 -28.008 4.680
  L -29.304 5.112
  C -29.592 4.680 -29.736 4.320 -29.808 4.032" stroke="none" fill="rgb(255,255,97)" />
<path d="
  M -25.992 9.216
  L -25.272 8.136
  C -24.984 8.568 -24.552 8.856 -24.048 9.072
  L -25.128 9.936
  C -25.416 9.792 -25.776 9.576 -25.992 9.216" stroke="none" fill="rgb(255,255,97)" />
<path d="
  M -20.088 12.384
  L -20.016 11.016
  C -19.368 11.232 -18.792 11.376 -18.144 11.376
  L -18.720 12.600
  C -19.080 12.600 -19.512 12.528 -20.088 12.384" stroke="none" fill="rgb(255,255,97)" />
<path d="
  M -13.752 12.528
  L -14.256 11.232
  C -13.608 11.160 -12.960 11.016 -12.240 10.656
  L -12.312 12.024
  C -12.888 12.312 -13.392 12.456 -13.752 12.528" stroke="none" fill="rgb(255,255,97)" />
<path d="
  M -7.848 9.720
  L -8.784 8.712
  C -8.136 8.424 -7.632 7.992 -7.272 7.344
  L -6.624 8.712
  C -6.984 9.072 -7.416 9.504 -7.848 9.720" stroke="none" fill="rgb(255,255,97)" />
<path d="
  M -3.888 4.896
  L -5.112 4.392
  C -4.752 3.816 -4.464 3.168 -4.392 2.592
  L -3.312 3.456
  C -3.384 3.960 -3.600 4.392 -3.888 4.896" stroke="none" fill="rgb(255,255,97)" />
<path d="
  M -3.744 -2.808
  L -5.112 -3.024
  C -4.968 -2.304 -4.968 -1.440 -5.040 -0.720
  L -3.672 -0.864
  C -3.600 -1.512 -3.600 -2.160 -3.744 -2.808" stroke="none" fill="rgb(255,255,108)" />
<path d="
  M -4.608 -6.336
  L -5.760 -5.616
  C -6.048 -6.480 -6.480 -7.272 -6.984 -8.136
  L -5.688 -8.424
  C -5.112 -7.704 -4.824 -7.056 -4.608 -6.336" stroke="none" fill="rgb(255,255,108)" />
<path d="
  M -7.920 -11.016
  L -8.640 -10.008
  C -9.216 -10.512 -9.792 -10.944 -10.512 -11.304
  L -9.360 -12.240
  C -8.928 -11.880 -8.352 -11.520 -7.920 -11.016" stroke="none" fill="rgb(255,255,108)" />
<path d="
  M -12.816 -13.824
  L -12.888 -12.456
  C -13.536 -12.744 -14.256 -12.888 -14.832 -12.960
  L -14.328 -14.184
  C -13.752 -14.184 -13.320 -14.040 -12.816 -13.824" stroke="none" fill="rgb(255,255,108)" />
<path d="
  M -18.216 -14.328
  L -17.712 -13.032
  C -18.432 -12.960 -19.224 -12.888 -20.088 -12.600
  L -20.088 -13.968
  C -19.440 -14.184 -18.864 -14.328 -18.216 -14.328" stroke="none" fill="rgb(255,255,108)" />
<path d="
  M -23.760 -12.312
  L -22.752 -11.376
  C -23.328 -11.016 -23.904 -10.656 -24.408 -10.224
  L -25.056 -11.232
  C -24.696 -11.736 -24.264 -12.096 -23.760 -12.312" stroke="none" fill="rgb(255,255,108)" />
<path d="
  M -27.864 -7.992
  L -26.568 -7.560
  C -27.000 -6.984 -27.360 -6.264 -27.504 -5.688
  L -28.656 -6.552
  C -28.584 -6.912 -28.224 -7.416 -27.864 -7.992" stroke="none" fill="rgb(255,255,108)" />
<path d="
  M -29.592 -2.448
  L -28.224 -2.592
  C -28.296 -1.872 -28.296 -1.224 -28.224 -0.504
  L -29.592 -0.720
  C -29.664 -1.296 -29.664 -1.800 -29.592 -2.448" stroke="none" fill="rgb(255,255,108)" />
<path d="
  M -28.728 3.240
  L -27.576 2.592
  C -27.432 3.096 -27.144 3.816 -26.640 4.392
  L -28.008 4.680
  C -28.368 4.176 -28.656 3.744 -28.728 3.240" stroke="none" fill="rgb(255,255,108)" />
<path d="
  M -25.272 8.136
  L -24.624 6.984
  C -24.120 7.488 -23.544 7.848 -23.040 8.280
  L -24.048 9.072
  C -24.552 8.856 -24.984 8.568 -25.272 8.136" stroke="none" fill="rgb(255,255,108)" />
<path d="
  M -20.016 11.016
  L -19.872 9.648
  C -19.080 9.936 -18.288 10.080 -17.568 10.080
  L -18.144 11.376
  C -18.792 11.376 -19.368 11.232 -20.016 11.016" stroke="none" fill="rgb(255,255,108)" />
<path d="
  M -14.256 11.232
  L -14.688 9.936
  C -13.896 9.864 -13.104 9.648 -12.240 9.288
  L -12.240 10.656
  C -12.960 11.016 -13.608 11.160 -14.256 11.232" stroke="none" fill="rgb(255,255,108)" />
<path d="
  M -8.784 8.712
  L -9.648 7.776
  C -9.000 7.344 -8.352 6.768 -7.848 6.048
  L -7.272 7.344
  C -7.632 7.992 -8.136 8.424 -8.784 8.712" stroke="none" fill="rgb(255,255,108)" />
<path d="
  M -5.112 4.392
  L -6.408 3.960
  C -5.976 3.168 -5.688 2.448 -5.472 1.728
  L -4.392 2.592
  C -4.464 3.168 -4.752 3.816 -5.112 4.392" stroke="none" fill="rgb(255,255,108)" />
<path d="
  M -5.112 -3.024
  L -6.480 -3.312
  C -6.264 -2.376 -6.192 -1.440 -6.336 -0.504
  L -5.040 -0.720
  C -4.968 -1.440 -4.968 -2.304 -5.112 -3.024" stroke="none" fill="rgb(255,255,120)" />
<path d="
  M -5.760 -5.616
  L -6.840 -4.752
  C -7.200 -5.904 -7.704 -6.912 -8.424 -7.776
  L -6.984 -8.136
  C -6.480 -7.272 -6.048 -6.480 -5.760 -5.616" stroke="none" fill="rgb(255,255,120)" />
<path d="
  M -8.640 -10.008
  L -9.360 -8.856
  C -10.080 -9.576 -10.800 -10.152 -11.664 -10.440
  L -10.512 -11.304
  C -9.792 -10.944 -9.216 -10.512 -8.640 -10.008" stroke="none" fill="rgb(255,255,120)" />
<path d="
  M -12.888 -12.456
  L -13.032 -11.160
  C -13.752 -11.448 -14.544 -11.664 -15.336 -11.664
  L -14.832 -12.960
  C -14.256 -12.888 -13.536 -12.744 -12.888 -12.456" stroke="none" fill="rgb(255,255,120)" />
<path d="
  M -17.712 -13.032
  L -17.280 -11.736
  C -18.144 -11.736 -19.080 -11.592 -20.016 -11.232
  L -20.088 -12.600
  C -19.224 -12.888 -18.432 -12.960 -17.712 -13.032" stroke="none" fill="rgb(255,255,120)" />
<path d="
  M -22.752 -11.376
  L -21.816 -10.440
  C -22.464 -10.152 -23.184 -9.648 -23.760 -9.072
  L -24.408 -10.224
  C -23.904 -10.656 -23.328 -11.016 -22.752 -11.376" stroke="none" fill="rgb(255,255,120)" />
<path d="
  M -26.568 -7.560
  L -25.200 -7.200
  C -25.848 -6.552 -26.208 -5.760 -26.352 -4.896
  L -27.504 -5.688
  C -27.360 -6.264 -27.000 -6.984 -26.568 -7.560" stroke="none" fill="rgb(255,255,120)" />
<path d="
  M -28.224 -2.592
  L -26.856 -2.736
  C -27.000 -1.944 -27.000 -1.152 -26.856 -0.288
  L -28.224 -0.504
  C -28.296 -1.224 -28.296 -1.872 -28.224 -2.592" stroke="none" fill="rgb(255,255,120)" />
<path d="
  M -27.576 2.592
  L -26.424 1.800
  C -26.208 2.592 -25.920 3.312 -25.344 4.032
  L -26.640 4.392
  C -27.144 3.816 -27.432 3.096 -27.576 2.592" stroke="none" fill="rgb(255,255,120)" />
<path d="
  M -24.624 6.984
  L -23.904 5.904
  C -23.328 6.552 -22.608 7.056 -21.888 7.344
  L -23.040 8.280
  C -23.544 7.848 -24.120 7.488 -24.624 6.984" stroke="none" fill="rgb(255,255,120)" />
<path d="
  M -19.872 9.648
  L -19.728 8.352
  C -18.864 8.640 -17.928 8.784 -16.992 8.784
  L -17.568 10.080
  C -18.288 10.080 -19.080 9.936 -19.872 9.648" stroke="none" fill="rgb(255,255,120)" />
<path d="
  M -14.688 9.936
  L -15.048 8.712
  C -14.040 8.568 -13.104 8.280 -12.168 7.776
  L -12.240 9.288
  C -13.104 9.648 -13.896 9.864 -14.688 9.936" stroke="none" fill="rgb(255,255,120)" />
<path d="
  M -9.648 7.776
  L -10.584 6.840
  C -9.720 6.264 -9.000 5.616 -8.424 4.752
  L -7.848 6.048
  C -8.352 6.768 -9.000 7.344 -9.648 7.776" stroke="none" fill="rgb(255,255,120)" />
<path d="
  M -6.408 3.960
  L -7.632 3.456
  C -7.128 2.664 -6.696 1.728 -6.552 0.864
  L -5.472 1.728
  C -5.688 2.448 -5.976 3.168 -6.408 3.960" stroke="none" fill="rgb(255,255,120)" />
<path d="
  M -6.480 -3.312
  L -7.920 -3.672
  C -7.560 -2.520 -7.488 -1.440 -7.776 -0.288
  L -6.336 -0.504
  C -6.192 -1.440 -6.264 -2.376 -6.480 -3.312" stroke="none" fill="rgb(255,255,131)" />
<path d="
  M -6.840 -4.752
  L -7.992 -4.032
  C -8.208 -5.328 -8.928 -6.552 -9.864 -7.488
  L -8.424 -7.776
  C -7.704 -6.912 -7.200 -5.904 -6.840 -4.752" stroke="none" fill="rgb(255,255,131)" />
<path d="
  M -9.360 -8.856
  L -10.080 -7.704
  C -10.800 -8.568 -11.736 -9.216 -12.600 -9.648
  L -11.664 -10.440
  C -10.800 -10.152 -10.080 -9.576 -9.360 -8.856" stroke="none" fill="rgb(255,255,131)" />
<path d="
  M -13.032 -11.160
  L -13.176 -9.936
  C -14.040 -10.296 -14.976 -10.512 -15.912 -10.440
  L -15.336 -11.664
  C -14.544 -11.664 -13.752 -11.448 -13.032 -11.160" stroke="none" fill="rgb(255,255,131)" />
<path d="
  M -17.280 -11.736
  L -16.704 -10.584
  C -17.784 -10.584 -18.864 -10.368 -19.872 -10.008
  L -20.016 -11.232
  C -19.080 -11.592 -18.144 -11.736 -17.280 -11.736" stroke="none" fill="rgb(255,255,131)" />
<path d="
  M -21.816 -10.440
  L -20.808 -9.576
  C -21.672 -9.144 -22.392 -8.640 -23.112 -7.992
  L -23.760 -9.072
  C -23.184 -9.648 -22.464 -10.152 -21.816 -10.440" stroke="none" fill="rgb(255,255,131)" />
<path d="
  M -25.200 -7.200
  L -23.832 -6.840
  C -24.624 -6.048 -25.056 -5.112 -25.200 -4.176
  L -26.352 -4.896
  C -26.208 -5.760 -25.848 -6.552 -25.200 -7.200" stroke="none" fill="rgb(255,255,131)" />
<path d="
  M -26.856 -2.736
  L -25.416 -2.952
  C -25.776 -2.016 -25.848 -1.080 -25.416 -0.072
  L -26.856 -0.288
  C -27.000 -1.152 -27.000 -1.944 -26.856 -2.736" stroke="none" fill="rgb(255,255,131)" />
<path d="
  M -26.424 1.800
  L -25.200 1.080
  C -25.056 2.016 -24.696 2.952 -23.904 3.744
  L -25.344 4.032
  C -25.920 3.312 -26.208 2.592 -26.424 1.800" stroke="none" fill="rgb(255,255,131)" />
<path d="
  M -23.904 5.904
  L -23.184 4.752
  C -22.536 5.544 -21.744 6.120 -20.808 6.552
  L -21.888 7.344
  C -22.608 7.056 -23.328 6.552 -23.904 5.904" stroke="none" fill="rgb(255,255,131)" />
<path d="
  M -19.728 8.352
  L -19.656 6.984
  C -18.648 7.416 -17.568 7.560 -16.488 7.560
  L -16.992 8.784
  C -17.928 8.784 -18.864 8.640 -19.728 8.352" stroke="none" fill="rgb(255,255,131)" />
<path d="
  M -15.048 8.712
  L -15.480 7.344
  C -14.328 7.344 -13.176 6.984 -12.096 6.192
  L -12.168 7.776
  C -13.104 8.280 -14.040 8.568 -15.048 8.712" stroke="none" fill="rgb(255,255,131)" />
<path d="
  M -10.584 6.840
  L -11.592 5.832
  C -10.512 5.328 -9.648 4.392 -9.144 3.312
  L -8.424 4.752
  C -9.000 5.616 -9.720 6.264 -10.584 6.840" stroke="none" fill="rgb(255,255,131)" />
<path d="
  M -7.632 3.456
  L -8.928 2.952
  C -8.208 2.016 -7.848 1.008 -7.776 -0.144
  L -6.552 0.864
  C -6.696 1.728 -7.128 2.664 -7.632 3.456" stroke="none" fill="rgb(255,255,131)" />
<path d="
  M -7.920 -3.672
  L -8.424 -3.744
  L -7.992 -4.032
  C -8.208 -5.328 -8.928 -6.552 -9.864 -7.488
  L -10.296 -7.416
  L -10.080 -7.704
  C -10.800 -8.568 -11.736 -9.216 -12.600 -9.648
  L -13.248 -9.144
  L -13.176 -9.936
  C -14.040 -10.296 -14.976 -10.512 -15.912 -10.440
  L -16.272 -9.504
  L -16.704 -10.584
  C -17.784 -10.584 -18.864 -10.368 -19.872 -10.008
  L -19.800 -8.640
  C -16.560 -10.080 -12.816 -9.144 -10.584 -6.480
  C -8.280 -3.672 -8.208 0.216 -10.368 3.096
  C -12.456 5.976 -16.200 7.056 -19.512 5.688
  L -19.656 6.984
  C -18.648 7.416 -17.568 7.560 -16.488 7.560
  L -15.912 6.192
  L -15.480 7.344
  C -14.328 7.344 -13.176 6.984 -12.096 6.192
  L -12.096 5.328
  L -11.592 5.832
  C -10.512 5.328 -9.648 4.392 -9.144 3.312
  L -9.360 2.808
  L -8.928 2.952
  C -8.208 2.016 -7.848 1.008 -7.776 -0.144
  L -7.992 -0.288
  L -7.776 -0.288
  C -7.488 -1.440 -7.560 -2.520 -7.920 -3.672" stroke="none" fill="rgb(255,255,141)" />
<path d="
  M -20.808 -9.576
  L -19.800 -8.568
  C -20.808 -8.208 -21.744 -7.488 -22.320 -6.696
  L -23.112 -7.992
  C -22.392 -8.640 -21.672 -9.144 -20.808 -9.576" stroke="none" fill="rgb(255,255,141)" />
<path d="
  M -23.832 -6.840
  L -22.464 -6.480
  C -23.400 -5.616 -23.904 -4.464 -24.048 -3.312
  L -25.200 -4.176
  C -25.056 -5.112 -24.624 -6.048 -23.832 -6.840" stroke="none" fill="rgb(255,255,141)" />
<path d="
  M -25.416 -2.952
  L -24.120 -3.096
  C -24.552 -2.016 -24.552 -1.008 -24.120 0.072
  L -25.416 -0.072
  C -25.848 -1.080 -25.776 -2.016 -25.416 -2.952" stroke="none" fill="rgb(255,255,141)" />
<path d="
  M -25.200 1.080
  L -24.048 0.360
  C -23.904 1.512 -23.400 2.520 -22.536 3.312
  L -23.904 3.744
  C -24.696 2.952 -25.056 2.016 -25.200 1.080" stroke="none" fill="rgb(255,255,141)" />
<path d="
  M -23.184 4.752
  L -22.392 3.456
  C -21.816 4.464 -20.808 5.256 -19.728 5.616
  L -20.808 6.552
  C -21.744 6.120 -22.536 5.544 -23.184 4.752" stroke="none" fill="rgb(255,255,141)" />
<path d="
  M -10.152 -1.512
  C -10.152 -5.112 -13.104 -8.064 -16.632 -8.064
  C -20.232 -8.064 -23.184 -5.112 -23.184 -1.512
  C -23.184 2.016 -20.232 4.968 -16.632 4.968
  C -13.104 4.968 -10.152 2.016 -10.152 -1.512" stroke="none" fill="rgb(255,255,151)" />
<path d="
  M -19.800 -8.640
  L -19.800 -8.568
  L -19.800 -8.568
  C -20.808 -8.208 -21.744 -7.488 -22.320 -6.696
  L -22.176 -6.336
  L -22.464 -6.480
  C -23.400 -5.616 -23.904 -4.464 -24.048 -3.312
  L -23.832 -3.168
  L -24.120 -3.096
  C -24.552 -2.016 -24.552 -1.008 -24.120 0.072
  L -23.760 0.144
  L -24.048 0.360
  C -23.904 1.512 -23.400 2.520 -22.536 3.312
  L -22.248 3.240
  L -22.392 3.456
  C -21.816 4.464 -20.808 5.256 -19.728 5.616
  L -19.512 5.472
  L -19.512 5.688
  C -16.200 7.056 -12.456 5.976 -10.368 3.096
  C -8.208 0.216 -8.280 -3.672 -10.584 -6.480
  C -12.816 -9.144 -16.560 -10.080 -19.800 -8.640" stroke="none" fill="rgb(255,255,151)" />
<path d="
  M -10.152 -1.512
  C -10.152 -5.112 -13.104 -8.064 -16.632 -8.064
  C -20.232 -8.064 -23.184 -5.112 -23.184 -1.512
  C -23.184 2.016 -20.232 4.968 -16.632 4.968
  C -13.104 4.968 -10.152 2.016 -10.152 -1.512" stroke="none" fill="rgb(255,255,164)" />
<path d="
  M -11.520 -1.512
  C -11.520 -4.320 -13.824 -6.696 -16.632 -6.696
  C -19.440 -6.696 -21.816 -4.320 -21.816 -1.512
  C -21.816 1.296 -19.440 3.672 -16.632 3.672
  C -13.824 3.672 -11.520 1.296 -11.520 -1.512" stroke="none" fill="rgb(255,255,164)" />
<path d="
  M -11.520 -1.512
  C -11.520 -4.320 -13.824 -6.696 -16.632 -6.696
  C -19.440 -6.696 -21.816 -4.320 -21.816 -1.512
  C -21.816 1.296 -19.440 3.672 -16.632 3.672
  C -13.824 3.672 -11.520 1.296 -11.520 -1.512" stroke="none" fill="rgb(255,255,174)" />
<path d="
  M -12.816 -1.512
  C -12.816 -3.672 -14.544 -5.400 -16.632 -5.400
  C -18.792 -5.400 -20.520 -3.672 -20.520 -1.512
  C -20.520 0.576 -18.792 2.376 -16.632 2.376
  C -14.544 2.376 -12.816 0.576 -12.816 -1.512" stroke="none" fill="rgb(255,255,174)" />
<path d="
  M -12.816 -1.512
  C -12.816 -3.672 -14.544 -5.400 -16.632 -5.400
  C -18.792 -5.400 -20.520 -3.672 -20.520 -1.512
  C -20.520 0.576 -18.792 2.376 -16.632 2.376
  C -14.544 2.376 -12.816 0.576 -12.816 -1.512" stroke="none" fill="rgb(255,255,184)" />
<path d="
  M -14.040 -1.512
  C -14.040 -2.880 -15.264 -4.104 -16.632 -4.104
  C -18.000 -4.104 -19.224 -2.880 -19.224 -1.512
  C -19.224 -0.144 -18.000 1.080 -16.632 1.080
  C -15.264 1.080 -14.040 -0.144 -14.040 -1.512" stroke="none" fill="rgb(255,255,184)" />
<path d="
  M -14.040 -1.512
  C -14.040 -2.880 -15.264 -4.104 -16.632 -4.104
  C -18.000 -4.104 -19.224 -2.880 -19.224 -1.512
  C -19.224 -0.144 -18.000 1.080 -16.632 1.080
  C -15.264 1.080 -14.040 -0.144 -14.040 -1.512" stroke="none" fill="rgb(255,255,194)" />
<path d="
  M -15.336 -1.512
  C -15.336 -2.232 -15.984 -2.808 -16.632 -2.808
  C -17.352 -2.808 -17.928 -2.232 -17.928 -1.512
  C -17.928 -0.864 -17.352 -0.216 -16.632 -0.216
  C -15.984 -0.216 -15.336 -0.864 -15.336 -1.512" stroke="none" fill="rgb(255,255,194)" />
<path d="
  M -15.336 -1.512
  C -15.336 -2.232 -15.984 -2.808 -16.632 -2.808
  C -17.352 -2.808 -17.928 -2.232 -17.928 -1.512
  C -17.928 -0.864 -17.352 -0.216 -16.632 -0.216
  C -15.984 -0.216 -15.336 -0.864 -15.336 -1.512" stroke="none" fill="rgb(255,255,204)" />
</g>
<path d="
  M -28.008 -16.416
  L -19.800 -8.568
  L -20.376 -19.584
  L -16.272 -9.504
  L -12.168 -19.368
  L -13.248 -9.144
  L -4.824 -15.912
  L -10.296 -7.416
  L 0.216 -9.720
  L -8.424 -3.744
  L 2.088 -1.584
  L -7.992 -0.288
  L 0.648 6.696
  L -9.360 2.808
  L -4.608 13.032
  L -12.096 5.328
  L -12.456 16.416
  L -15.912 6.192
  L -20.448 16.632
  L -19.512 5.472
  L -27.792 12.024
  L -22.248 3.240
  L -33.048 5.976
  L -23.760 0.144
  L -35.424 -1.584
  L -23.832 -3.168
  L -32.616 -9.216
  L -22.176 -6.336
  L -28.008 -16.416" stroke="rgb(0,0,0)" stroke-width="0.504" fill="none" />
<g>
<path d="
  M -5.976 -1.008
  C -5.976 -6.480 -10.512 -10.944 -15.984 -10.944
  C -21.456 -10.944 -25.992 -6.480 -25.992 -1.008
  C -25.992 4.464 -21.456 9.000 -15.984 9.000
  C -10.512 9.000 -5.976 4.464 -5.976 -1.008" stroke="none" fill="rgb(255,255,54)" />
<path d="
  M -15.984 -11.088
  C -10.440 -11.088 -5.904 -6.624 -5.904 -1.008
  C -5.904 4.608 -10.440 9.144 -15.984 9.144
  C -21.528 9.144 -26.064 4.608 -26.064 -1.008
  C -26.064 -6.624 -21.528 -11.088 -15.984 -11.088" stroke="none" fill="rgb(255,255,54)" />
<path d="
  M -5.976 -1.008
  C -5.976 -6.480 -10.512 -10.944 -15.984 -10.944
  C -21.456 -10.944 -25.992 -6.480 -25.992 -1.008
  C -25.992 4.464 -21.456 9.000 -15.984 9.000
  C -10.512 9.000 -5.976 4.464 -5.976 -1.008" stroke="none" fill="rgb(255,255,67)" />
<path d="
  M -6.696 -1.008
  C -6.696 -6.048 -10.872 -10.224 -15.984 -10.224
  C -21.024 -10.224 -25.200 -6.048 -25.200 -1.008
  C -25.200 4.104 -21.024 8.280 -15.984 8.280
  C -10.872 8.280 -6.696 4.104 -6.696 -1.008" stroke="none" fill="rgb(255,255,67)" />
<path d="
  M -6.696 -1.008
  C -6.696 -6.048 -10.872 -10.224 -15.984 -10.224
  C -21.024 -10.224 -25.200 -6.048 -25.200 -1.008
  C -25.200 4.104 -21.024 8.280 -15.984 8.280
  C -10.872 8.280 -6.696 4.104 -6.696 -1.008" stroke="none" fill="rgb(255,255,77)" />
<path d="
  M -7.416 -1.008
  C -7.416 -5.688 -11.232 -9.576 -15.984 -9.576
  C -20.664 -9.576 -24.552 -5.688 -24.552 -1.008
  C -24.552 3.744 -20.664 7.560 -15.984 7.560
  C -11.232 7.560 -7.416 3.744 -7.416 -1.008" stroke="none" fill="rgb(255,255,77)" />
<path d="
  M -7.416 -1.008
  C -7.416 -5.688 -11.232 -9.576 -15.984 -9.576
  C -20.664 -9.576 -24.552 -5.688 -24.552 -1.008
  C -24.552 3.744 -20.664 7.560 -15.984 7.560
  C -11.232 7.560 -7.416 3.744 -7.416 -1.008" stroke="none" fill="rgb(255,255,87)" />
<path d="
  M -8.136 -1.008
  C -8.136 -5.256 -11.736 -8.784 -15.984 -8.784
  C -20.232 -8.784 -23.760 -5.256 -23.760 -1.008
  C -23.760 3.240 -20.232 6.840 -15.984 6.840
  C -11.736 6.840 -8.136 3.240 -8.136 -1.008" stroke="none" fill="rgb(255,255,87)" />
<path d="
  M -8.136 -1.008
  C -8.136 -5.256 -11.736 -8.784 -15.984 -8.784
  C -20.232 -8.784 -23.760 -5.256 -23.760 -1.008
  C -23.760 3.240 -20.232 6.840 -15.984 6.840
  C -11.736 6.840 -8.136 3.240 -8.136 -1.008" stroke="none" fill="rgb(255,255,97)" />
<path d="
  M -8.856 -1.008
  C -8.856 -4.824 -12.096 -8.136 -15.984 -8.136
  C -19.800 -8.136 -23.112 -4.824 -23.112 -1.008
  C -23.112 2.880 -19.800 6.120 -15.984 6.120
  C -12.096 6.120 -8.856 2.880 -8.856 -1.008" stroke="none" fill="rgb(255,255,97)" />
<path d="
  M -8.856 -1.008
  C -8.856 -4.824 -12.096 -8.136 -15.984 -8.136
  C -19.800 -8.136 -23.112 -4.824 -23.112 -1.008
  C -23.112 2.880 -19.800 6.120 -15.984 6.120
  C -12.096 6.120 -8.856 2.880 -8.856 -1.008" stroke="none" fill="rgb(255,255,108)" />
<path d="
  M -9.504 -1.008
  C -9.504 -4.464 -12.456 -7.416 -15.984 -7.416
  C -19.440 -7.416 -22.392 -4.464 -22.392 -1.008
  C -22.392 2.520 -19.440 5.472 -15.984 5.472
  C -12.456 5.472 -9.504 2.520 -9.504 -1.008" stroke="none" fill="rgb(255,255,108)" />
<path d="
  M -9.504 -1.008
  C -9.504 -4.464 -12.456 -7.416 -15.984 -7.416
  C -19.440 -7.416 -22.392 -4.464 -22.392 -1.008
  C -22.392 2.520 -19.440 5.472 -15.984 5.472
  C -12.456 5.472 -9.504 2.520 -9.504 -1.008" stroke="none" fill="rgb(255,255,120)" />
<path d="
  M -10.296 -1.008
  C -10.296 -4.104 -12.888 -6.696 -15.984 -6.696
  C -19.080 -6.696 -21.672 -4.104 -21.672 -1.008
  C -21.672 2.088 -19.080 4.680 -15.984 4.680
  C -12.888 4.680 -10.296 2.088 -10.296 -1.008" stroke="none" fill="rgb(255,255,120)" />
<path d="
  M -10.296 -1.008
  C -10.296 -4.104 -12.888 -6.696 -15.984 -6.696
  C -19.080 -6.696 -21.672 -4.104 -21.672 -1.008
  C -21.672 2.088 -19.080 4.680 -15.984 4.680
  C -12.888 4.680 -10.296 2.088 -10.296 -1.008" stroke="none" fill="rgb(255,255,131)" />
<path d="
  M -10.944 -1.008
  C -10.944 -3.744 -13.248 -5.976 -15.984 -5.976
  C -18.720 -5.976 -20.952 -3.744 -20.952 -1.008
  C -20.952 1.728 -18.720 4.032 -15.984 4.032
  C -13.248 4.032 -10.944 1.728 -10.944 -1.008" stroke="none" fill="rgb(255,255,131)" />
<path d="
  M -10.944 -1.008
  C -10.944 -3.744 -13.248 -5.976 -15.984 -5.976
  C -18.720 -5.976 -20.952 -3.744 -20.952 -1.008
  C -20.952 1.728 -18.720 4.032 -15.984 4.032
  C -13.248 4.032 -10.944 1.728 -10.944 -1.008" stroke="none" fill="rgb(255,255,141)" />
<path d="
  M -11.736 -1.008
  C -11.736 -3.240 -13.680 -5.256 -15.984 -5.256
  C -18.216 -5.256 -20.232 -3.240 -20.232 -1.008
  C -20.232 1.296 -18.216 3.240 -15.984 3.240
  C -13.680 3.240 -11.736 1.296 -11.736 -1.008" stroke="none" fill="rgb(255,255,141)" />
<path d="
  M -11.736 -1.008
  C -11.736 -3.240 -13.680 -5.256 -15.984 -5.256
  C -18.216 -5.256 -20.232 -3.240 -20.232 -1.008
  C -20.232 1.296 -18.216 3.240 -15.984 3.240
  C -13.680 3.240 -11.736 1.296 -11.736 -1.008" stroke="none" fill="rgb(255,255,151)" />
<path d="
  M -12.384 -1.008
  C -12.384 -2.880 -14.040 -4.536 -15.984 -4.536
  C -17.856 -4.536 -19.512 -2.880 -19.512 -1.008
  C -19.512 0.936 -17.856 2.592 -15.984 2.592
  C -14.040 2.592 -12.384 0.936 -12.384 -1.008" stroke="none" fill="rgb(255,255,151)" />
<path d="
  M -12.384 -1.008
  C -12.384 -2.880 -14.040 -4.536 -15.984 -4.536
  C -17.856 -4.536 -19.512 -2.880 -19.512 -1.008
  C -19.512 0.936 -17.856 2.592 -15.984 2.592
  C -14.040 2.592 -12.384 0.936 -12.384 -1.008" stroke="none" fill="rgb(255,255,164)" />
<path d="
  M -13.176 -1.008
  C -13.176 -2.520 -14.472 -3.816 -15.984 -3.816
  C -17.496 -3.816 -18.792 -2.520 -18.792 -1.008
  C -18.792 0.504 -17.496 1.800 -15.984 1.800
  C -14.472 1.800 -13.176 0.504 -13.176 -1.008" stroke="none" fill="rgb(255,255,164)" />
<path d="
  M -13.176 -1.008
  C -13.176 -2.520 -14.472 -3.816 -15.984 -3.816
  C -17.496 -3.816 -18.792 -2.520 -18.792 -1.008
  C -18.792 0.504 -17.496 1.800 -15.984 1.800
  C -14.472 1.800 -13.176 0.504 -13.176 -1.008" stroke="none" fill="rgb(255,255,174)" />
<path d="
  M -13.824 -1.008
  C -13.824 -2.160 -14.832 -3.096 -15.984 -3.096
  C -17.136 -3.096 -18.072 -2.160 -18.072 -1.008
  C -18.072 0.144 -17.136 1.152 -15.984 1.152
  C -14.832 1.152 -13.824 0.144 -13.824 -1.008" stroke="none" fill="rgb(255,255,174)" />
<path d="
  M -13.824 -1.008
  C -13.824 -2.160 -14.832 -3.096 -15.984 -3.096
  C -17.136 -3.096 -18.072 -2.160 -18.072 -1.008
  C -18.072 0.144 -17.136 1.152 -15.984 1.152
  C -14.832 1.152 -13.824 0.144 -13.824 -1.008" stroke="none" fill="rgb(255,255,184)" />
<path d="
  M -14.616 -1.008
  C -14.616 -1.656 -15.264 -2.376 -15.984 -2.376
  C -16.632 -2.376 -17.352 -1.656 -17.352 -1.008
  C -17.352 -0.288 -16.632 0.360 -15.984 0.360
  C -15.264 0.360 -14.616 -0.288 -14.616 -1.008" stroke="none" fill="rgb(255,255,184)" />
<path d="
  M -14.616 -1.008
  C -14.616 -1.656 -15.264 -2.376 -15.984 -2.376
  C -16.632 -2.376 -17.352 -1.656 -17.352 -1.008
  C -17.352 -0.288 -16.632 0.360 -15.984 0.360
  C -15.264 0.360 -14.616 -0.288 -14.616 -1.008" stroke="none" fill="rgb(255,255,194)" />
<path d="
  M -15.264 -1.008
  C -15.264 -1.296 -15.696 -1.656 -15.984 -1.656
  C -16.272 -1.656 -16.632 -1.296 -16.632 -1.008
  C -16.632 -0.720 -16.272 -0.288 -15.984 -0.288
  C -15.696 -0.288 -15.264 -0.720 -15.264 -1.008" stroke="none" fill="rgb(255,255,194)" />
<path d="
  M -15.264 -1.008
  C -15.264 -1.296 -15.696 -1.656 -15.984 -1.656
  C -16.272 -1.656 -16.632 -1.296 -16.632 -1.008
  C -16.632 -0.720 -16.272 -0.288 -15.984 -0.288
  C -15.696 -0.288 -15.264 -0.720 -15.264 -1.008" stroke="none" fill="rgb(255,255,204)" />
</g>
<circle cx="-16.056" cy="-1.152" r="10.008" stroke="rgb(0,0,0)" stroke-width="0.504" fill="none" />
</g>
<g>
<g>
<g>
<path d="
  M -2.520 18.072
  C -1.512 18.504 -0.720 19.008 0.720 19.656
  C 1.872 19.080 3.384 18.648 5.040 18.072
  L -2.520 18.072" stroke="none" fill="rgb(128,128,128)" />
<path d="
  M -2.520 18.072
  C -3.024 17.784 -3.600 17.568 -4.320 17.424
  C -4.752 17.280 -5.328 16.920 -5.904 16.416
  L 8.424 16.416
  C 7.344 17.136 6.120 17.568 5.040 18.072
  L -2.520 18.072" stroke="none" fill="rgb(131,131,131)" />
<path d="
  M -5.904 16.416
  C -6.480 15.984 -7.128 15.336 -7.272 14.832
  L 10.944 14.832
  C 10.152 15.480 9.288 15.984 8.424 16.416
  L -5.904 16.416" stroke="none" fill="rgb(133,133,133)" />
<path d="
  M -16.488 14.904
  C -16.200 15.120 -15.912 15.336 -15.480 15.480
  C -13.248 16.560 -11.088 15.480 -8.928 14.832
  L -16.488 14.904" stroke="none" fill="rgb(133,133,133)" />
<path d="
  M 14.904 14.832
  C 18.000 16.704 21.600 16.632 24.552 14.832
  L 14.904 14.832" stroke="none" fill="rgb(133,133,133)" />
<path d="
  M -16.488 14.904
  C -17.280 14.472 -17.784 13.896 -18.288 13.248
  L 26.568 13.248
  C 25.992 13.968 25.200 14.400 24.552 14.832
  L 14.904 14.832
  C 14.184 14.400 13.536 13.896 12.816 13.248
  C 12.240 13.896 11.664 14.400 10.944 14.832
  L -7.272 14.832
  C -7.344 14.760 -7.344 14.616 -7.344 14.544
  C -7.848 14.616 -8.352 14.688 -8.928 14.832
  L -16.488 14.904" stroke="none" fill="rgb(136,136,136)" />
<path d="
  M -18.288 13.248
  C -18.720 12.744 -19.008 12.240 -19.224 11.664
  L 31.464 11.736
  C 30.312 12.096 29.160 12.096 27.648 12.096
  C 27.360 12.600 26.928 12.960 26.568 13.248
  L -18.288 13.248" stroke="none" fill="rgb(138,138,138)" />
<path d="
  M -19.224 11.664
  C -19.440 11.160 -19.584 10.584 -19.728 10.080
  L 33.552 10.080
  C 33.480 10.368 33.408 10.584 33.336 10.872
  C 32.616 11.232 32.040 11.520 31.464 11.736
  L -19.224 11.664" stroke="none" fill="rgb(141,141,141)" />
<path d="
  M -19.728 10.080
  C -19.800 9.576 -19.800 9.000 -19.800 8.496
  L 33.984 8.496
  C 33.840 9.000 33.696 9.576 33.552 10.080
  L -19.728 10.080" stroke="none" fill="rgb(146,146,146)" />
<path d="
  M -19.800 8.496
  C -19.728 7.992 -19.656 7.416 -19.512 6.912
  L 34.200 6.912
  C 34.128 7.416 34.056 7.992 33.984 8.496
  L -19.800 8.496" stroke="none" fill="rgb(146,146,146)" />
<path d="
  M -19.512 6.912
  C -19.296 6.408 -19.152 6.048 -18.864 5.688
  C -18.936 5.616 -19.008 5.472 -19.008 5.328
  L 34.128 5.328
  C 34.200 5.832 34.200 6.336 34.200 6.912
  L -19.512 6.912" stroke="none" fill="rgb(151,151,151)" />
<path d="
  M -19.008 5.328
  C -19.224 4.824 -19.224 4.320 -19.152 3.816
  L 33.624 3.744
  C 33.912 4.176 34.056 4.752 34.128 5.328
  L -19.008 5.328" stroke="none" fill="rgb(153,153,153)" />
<path d="
  M -19.152 3.816
  C -19.152 3.240 -19.008 2.664 -18.792 2.088
  L 31.968 2.088
  C 32.688 2.520 33.336 3.024 33.624 3.744
  L -19.152 3.816" stroke="none" fill="rgb(153,153,153)" />
<path d="
  M -18.792 2.088
  C -18.576 1.584 -18.288 1.008 -18.000 0.432
  L 25.920 0.504
  C 26.136 0.936 26.352 1.440 26.496 2.016
  C 27.864 1.872 29.736 1.368 31.032 1.728
  C 31.320 1.800 31.680 1.944 31.968 2.088
  L -18.792 2.088" stroke="none" fill="rgb(159,159,159)" />
<path d="
  M -18.000 0.432
  C -17.712 -0.072 -17.352 -0.576 -16.920 -1.080
  L 24.192 -1.152
  C 24.912 -0.792 25.416 -0.216 25.920 0.504
  L -18.000 0.432" stroke="none" fill="rgb(161,161,161)" />
<path d="
  M -16.920 -1.080
  C -16.920 -1.080 -16.848 -1.152 -16.848 -1.152
  C -15.480 -2.592 -13.392 -2.448 -11.160 -2.448
  C -11.160 -2.520 -11.160 -2.592 -11.088 -2.664
  L 18.144 -2.664
  C 18.144 -2.232 18.144 -1.656 18.144 -1.224
  C 20.592 -1.656 22.680 -1.872 24.192 -1.152
  L -16.920 -1.080" stroke="none" fill="rgb(164,164,164)" />
<path d="
  M -11.088 -2.664
  C -11.016 -3.168 -10.800 -3.816 -10.512 -4.248
  L 18.000 -4.248
  C 18.072 -3.744 18.072 -3.168 18.144 -2.664
  L -11.088 -2.664" stroke="none" fill="rgb(166,166,166)" />
<path d="
  M -10.512 -4.248
  C -10.152 -4.824 -9.720 -5.400 -9.288 -5.832
  L 17.712 -5.832
  C 17.856 -5.328 17.928 -4.752 18.000 -4.248
  L -10.512 -4.248" stroke="none" fill="rgb(169,169,169)" />
<path d="
  M -9.288 -5.832
  C -8.640 -6.552 -7.776 -7.056 -6.840 -7.416
  L 0.576 -7.488
  C 1.152 -7.200 1.728 -6.768 2.232 -6.264
  C 2.304 -6.768 2.376 -7.128 2.520 -7.488
  L 17.136 -7.416
  C 17.424 -6.912 17.568 -6.480 17.712 -5.832
  L -9.288 -5.832" stroke="none" fill="rgb(171,171,171)" />
<path d="
  M -6.840 -7.416
  C -4.536 -8.496 -1.728 -8.640 0.576 -7.488
  L -6.840 -7.416" stroke="none" fill="rgb(174,174,174)" />
<path d="
  M 2.520 -7.488
  C 2.664 -8.064 3.096 -8.568 3.456 -9.000
  L 16.128 -9.000
  C 16.560 -8.568 16.848 -8.064 17.136 -7.416
  L 2.520 -7.488" stroke="none" fill="rgb(174,174,174)" />
<path d="
  M 3.456 -9.000
  C 4.104 -9.720 4.968 -10.224 5.904 -10.584
  L 13.824 -10.656
  C 14.832 -10.224 15.552 -9.720 16.128 -9.000
  L 3.456 -9.000" stroke="none" fill="rgb(176,176,176)" />
<path d="
  M 5.904 -10.584
  C 8.064 -11.448 10.800 -11.520 12.960 -10.944
  C 13.248 -10.872 13.536 -10.728 13.824 -10.656
  L 5.904 -10.584" stroke="none" fill="rgb(179,179,179)" />
</g>
<path d="
  M -18.864 5.688
  C -19.872 3.960 -18.360 0.576 -16.848 -1.152
  C -15.480 -2.592 -13.392 -2.448 -11.160 -2.448
  C -10.152 -7.632 -2.160 -10.440 2.232 -6.264
  C 2.664 -10.728 8.928 -12.168 12.960 -10.944
  C 17.640 -9.648 18.144 -5.256 18.144 -1.224
  C 22.176 -1.944 25.344 -2.160 26.496 2.016
  C 27.864 1.872 29.736 1.368 31.032 1.728
  C 35.352 3.024 34.416 7.776 33.336 10.872
  C 31.320 12.024 29.880 12.096 27.648 12.096
  C 23.832 16.920 17.424 17.640 12.816 13.248
  C 8.136 17.712 3.384 18.360 0.720 19.656
  C -1.440 18.720 -2.160 18.000 -4.320 17.424
  C -5.256 17.136 -7.344 15.480 -7.344 14.544
  C -10.152 14.832 -12.672 16.776 -15.480 15.480
  C -19.440 13.752 -21.024 8.712 -18.864 5.688" stroke="rgb(0,0,0)" stroke-width="0.504" fill="none" />
<g>
<path d="
  M -3.456 13.176
  C -3.384 13.248 -3.384 13.248 -3.312 13.320
  C -0.792 14.184 1.368 14.328 3.312 13.176
  L -3.456 13.176" stroke="none" fill="rgb(179,179,179)" />
<path d="
  M -3.456 13.176
  C -3.744 12.816 -3.744 12.456 -3.600 11.952
  L 4.824 11.952
  C 4.392 12.528 3.816 12.888 3.312 13.176
  L -3.456 13.176" stroke="none" fill="rgb(182,182,182)" />
<path d="
  M -3.600 11.952
  C -3.456 11.592 -3.168 11.160 -2.808 10.656
  L 3.096 10.656
  C 3.456 11.232 4.248 11.808 4.824 11.952
  C 4.824 11.952 4.824 11.952 4.824 11.952
  L -3.600 11.952" stroke="none" fill="rgb(182,182,182)" />
<path d="
  M -16.272 10.728
  C -15.336 11.952 -13.896 11.664 -12.672 10.656
  L -16.272 10.728" stroke="none" fill="rgb(182,182,182)" />
<path d="
  M 4.392 10.656
  C 6.120 11.088 8.064 11.232 9.720 10.656
  L 4.392 10.656" stroke="none" fill="rgb(182,182,182)" />
<path d="
  M 23.256 10.656
  C 23.760 10.872 23.976 11.016 23.688 11.016
  C 24.264 11.232 24.840 11.088 25.344 10.656
  L 23.256 10.656" stroke="none" fill="rgb(182,182,182)" />
<path d="
  M -16.272 10.728
  C -16.488 10.440 -16.704 10.008 -16.848 9.504
  L -9.144 9.504
  C -9.576 10.008 -9.792 10.368 -10.584 9.648
  C -10.800 11.088 -13.320 9.504 -12.096 10.152
  C -12.312 10.296 -12.456 10.512 -12.672 10.656
  L -16.272 10.728" stroke="none" fill="rgb(184,184,184)" />
<path d="
  M -2.808 10.656
  C -2.376 10.224 -1.944 9.864 -1.512 9.504
  L 9.864 9.504
  C 10.152 9.720 10.368 10.008 10.656 10.296
  C 10.368 10.440 10.080 10.584 9.720 10.656
  L 4.392 10.656
  C 3.816 10.584 3.312 10.440 2.808 10.296
  C 2.952 10.368 2.952 10.512 3.096 10.656
  L -2.808 10.656" stroke="none" fill="rgb(184,184,184)" />
<path d="
  M 23.256 10.656
  C 22.392 10.368 21.024 9.936 20.520 9.504
  L 26.424 9.504
  C 26.136 10.008 25.704 10.440 25.344 10.656
  L 23.256 10.656" stroke="none" fill="rgb(184,184,184)" />
<path d="
  M -16.848 9.504
  C -16.920 9.504 -16.920 9.432 -16.920 9.288
  C -16.992 8.928 -17.136 8.568 -16.992 8.208
  L -7.272 8.136
  C -7.416 8.208 -7.488 8.424 -7.488 8.712
  C -8.352 8.712 -8.856 9.144 -9.144 9.504
  L -16.848 9.504" stroke="none" fill="rgb(184,184,184)" />
<path d="
  M -1.512 9.504
  C -1.080 9.000 -0.648 8.640 -0.576 8.496
  C -3.240 8.496 -4.536 10.296 -5.112 8.208
  L 9.144 8.208
  C 9.288 8.640 9.504 9.000 9.864 9.504
  L -1.512 9.504" stroke="none" fill="rgb(184,184,184)" />
<path d="
  M 20.520 9.504
  C 20.304 9.288 20.232 9.216 20.232 9.072
  C 18.720 9.072 18.216 8.856 17.928 8.208
  L 27.432 8.208
  C 27.000 8.640 26.712 9.072 26.424 9.504
  L 20.520 9.504" stroke="none" fill="rgb(184,184,184)" />
<path d="
  M 11.952 8.208
  C 13.248 9.216 14.760 9.648 16.344 8.280
  L 11.952 8.208" stroke="none" fill="rgb(184,184,184)" />
<path d="
  M -16.992 8.208
  C -16.992 7.704 -16.920 7.344 -16.776 6.912
  L 8.928 6.912
  C 8.928 7.344 9.000 7.704 9.144 8.208
  L -5.112 8.208
  C -5.184 8.064 -5.184 7.704 -5.256 7.416
  C -5.472 8.424 -6.696 7.704 -7.272 8.136
  L -16.992 8.208" stroke="none" fill="rgb(187,187,187)" />
<path d="
  M 11.952 8.208
  C 11.520 7.776 11.016 7.416 10.656 6.912
  L 16.200 6.912
  C 15.984 7.272 15.984 7.488 16.632 7.992
  C 16.560 8.064 16.416 8.208 16.344 8.280
  L 11.952 8.208" stroke="none" fill="rgb(187,187,187)" />
<path d="
  M 17.928 8.208
  C 17.856 7.848 17.784 7.416 17.640 6.912
  L 31.680 6.912
  C 29.880 7.560 30.312 7.056 28.368 7.056
  C 28.008 7.344 27.720 7.776 27.432 8.208
  L 17.928 8.208" stroke="none" fill="rgb(187,187,187)" />
<path d="
  M -16.776 6.912
  C -16.704 6.552 -16.560 6.120 -16.416 5.688
  L -14.112 5.688
  C -13.824 5.760 -13.392 5.760 -12.888 5.760
  C -12.888 5.760 -12.888 5.688 -12.960 5.688
  L 9.000 5.688
  C 8.928 6.120 8.928 6.552 8.928 6.912
  L -16.776 6.912" stroke="none" fill="rgb(187,187,187)" />
<path d="
  M 10.656 6.912
  C 10.296 6.552 9.936 6.048 9.648 5.688
  L 16.848 5.760
  C 16.704 6.264 16.416 6.624 16.200 6.912
  L 10.656 6.912" stroke="none" fill="rgb(187,187,187)" />
<path d="
  M 17.640 6.912
  C 17.568 6.552 17.496 6.120 17.352 5.688
  L 31.968 5.688
  C 31.896 6.048 31.824 6.408 31.680 6.912
  C 31.680 6.912 31.680 6.912 31.680 6.912
  L 17.640 6.912" stroke="none" fill="rgb(187,187,187)" />
<path d="
  M -16.416 5.688
  C -16.272 5.328 -16.128 4.824 -15.984 4.392
  L -15.264 4.392
  C -15.048 5.256 -14.832 5.544 -14.112 5.688
  L -16.416 5.688" stroke="none" fill="rgb(189,189,189)" />
<path d="
  M -12.960 5.688
  C -13.176 5.328 -13.320 4.824 -13.464 4.392
  L 31.752 4.392
  C 31.896 4.752 31.968 5.184 31.968 5.688
  L 17.352 5.688
  C 17.280 5.472 17.136 5.256 16.992 4.896
  C 16.992 5.256 16.920 5.544 16.848 5.760
  L 9.648 5.688
  C 9.432 5.400 9.288 5.184 9.144 4.896
  C 9.072 5.256 9.072 5.472 9.000 5.688
  L -12.960 5.688" stroke="none" fill="rgb(189,189,189)" />
<path d="
  M -15.984 4.392
  C -15.840 4.032 -15.696 3.672 -15.480 3.168
  L -15.480 3.168
  C -15.408 3.744 -15.336 4.104 -15.264 4.392
  L -15.984 4.392" stroke="none" fill="rgb(189,189,189)" />
<path d="
  M -13.464 4.392
  C -13.608 4.032 -13.680 3.672 -13.680 3.168
  L 25.056 3.096
  C 25.056 3.384 25.056 3.816 25.056 4.176
  C 25.272 3.816 25.560 3.384 25.920 3.168
  L 30.888 3.168
  C 31.248 3.456 31.608 3.888 31.752 4.392
  L -13.464 4.392" stroke="none" fill="rgb(189,189,189)" />
<path d="
  M -15.480 3.168
  C -15.480 3.168 -15.480 3.096 -15.480 3.096
  C -15.480 3.096 -15.480 3.168 -15.480 3.168
  L -15.480 3.168" stroke="none" fill="rgb(192,192,192)" />
<path d="
  M -13.680 3.168
  C -13.752 2.736 -13.680 2.376 -13.608 1.872
  L 17.784 1.872
  C 17.784 2.304 17.784 2.736 17.784 3.096
  C 19.008 2.592 19.512 2.376 19.728 1.872
  L 24.840 1.800
  C 24.912 2.232 24.984 2.664 25.056 3.096
  L -13.680 3.168" stroke="none" fill="rgb(192,192,192)" />
<path d="
  M 25.920 3.168
  C 27.432 1.944 29.592 2.088 30.888 3.168
  L 25.920 3.168" stroke="none" fill="rgb(192,192,192)" />
<path d="
  M -15.552 1.800
  C -15.552 1.944 -15.480 2.016 -15.480 2.088
  C -15.480 2.016 -15.408 1.944 -15.408 1.872
  L -15.552 1.800" stroke="none" fill="rgb(192,192,192)" />
<path d="
  M -15.552 1.800
  C -15.768 1.368 -15.840 0.936 -15.912 0.504
  L -14.112 0.576
  C -14.688 0.936 -15.120 1.368 -15.408 1.872
  L -15.552 1.800" stroke="none" fill="rgb(192,192,192)" />
<path d="
  M -13.608 1.872
  C -13.536 1.440 -13.320 1.008 -13.104 0.504
  L 17.784 0.576
  C 17.784 1.080 17.784 1.440 17.784 1.872
  L -13.608 1.872" stroke="none" fill="rgb(192,192,192)" />
<path d="
  M 19.728 1.872
  C 19.872 1.584 19.944 1.224 19.944 0.576
  L 24.120 0.576
  C 24.480 0.936 24.696 1.296 24.840 1.800
  L 19.728 1.872" stroke="none" fill="rgb(192,192,192)" />
<path d="
  M -15.912 0.504
  C -15.984 0.072 -15.912 -0.360 -15.840 -0.720
  L 17.712 -0.576
  C 17.712 -0.216 17.784 0.216 17.784 0.576
  L -13.104 0.504
  C -12.960 0.432 -12.888 0.288 -12.672 0.144
  C -13.248 0.216 -13.680 0.360 -14.112 0.576
  L -15.912 0.504" stroke="none" fill="rgb(194,194,194)" />
<path d="
  M 19.944 0.576
  C 19.944 0.288 19.944 0.072 19.944 -0.216
  C 22.104 -0.216 23.400 -0.144 24.120 0.576
  L 19.944 0.576" stroke="none" fill="rgb(194,194,194)" />
<path d="
  M -15.840 -0.720
  C -14.976 -2.880 -10.584 -1.080 -8.640 -1.080
  C -8.712 -1.296 -8.712 -1.584 -8.712 -1.872
  L 17.352 -1.944
  C 17.496 -1.512 17.640 -1.080 17.712 -0.576
  L -15.840 -0.720" stroke="none" fill="rgb(197,197,197)" />
<path d="
  M -8.712 -1.872
  C -8.712 -2.304 -8.640 -2.664 -8.568 -3.096
  L 16.416 -3.096
  C 16.776 -2.808 17.064 -2.448 17.352 -1.944
  L -8.712 -1.872" stroke="none" fill="rgb(197,197,197)" />
<path d="
  M -8.568 -3.096
  C -8.352 -3.456 -8.208 -4.032 -7.992 -4.392
  L 13.608 -4.392
  C 13.608 -4.248 13.536 -4.104 13.464 -3.960
  C 14.832 -3.960 15.840 -3.672 16.416 -3.096
  L -8.568 -3.096" stroke="none" fill="rgb(199,199,199)" />
<path d="
  M -7.992 -4.392
  C -7.776 -4.824 -7.488 -5.328 -7.128 -5.688
  L 2.592 -5.688
  C 2.808 -5.616 3.024 -5.544 3.240 -5.472
  C 3.240 -5.544 3.240 -5.616 3.240 -5.688
  L 13.536 -5.616
  C 13.608 -5.256 13.680 -4.824 13.608 -4.392
  L -7.992 -4.392" stroke="none" fill="rgb(199,199,199)" />
<path d="
  M -7.128 -5.688
  C -6.480 -6.192 -5.832 -6.696 -4.824 -6.912
  L -1.152 -6.912
  C -0.072 -6.696 1.152 -6.264 2.592 -5.688
  L -7.128 -5.688" stroke="none" fill="rgb(202,202,202)" />
<path d="
  M 3.240 -5.688
  C 3.240 -6.120 3.384 -6.624 3.528 -6.984
  L 13.176 -6.840
  C 13.248 -6.336 13.392 -5.976 13.536 -5.616
  L 3.240 -5.688" stroke="none" fill="rgb(202,202,202)" />
<path d="
  M -4.824 -6.912
  C -3.816 -7.128 -2.592 -7.200 -1.152 -6.912
  L -4.824 -6.912" stroke="none" fill="rgb(202,202,202)" />
<path d="
  M 3.528 -6.984
  C 3.744 -7.416 4.032 -7.920 4.536 -8.208
  L 12.528 -8.280
  C 12.672 -8.064 12.816 -7.920 12.960 -7.632
  C 13.032 -7.344 13.104 -7.056 13.176 -6.840
  L 3.528 -6.984" stroke="none" fill="rgb(202,202,202)" />
<path d="
  M 4.536 -8.208
  C 6.696 -10.008 11.160 -9.648 12.528 -8.280
  L 4.536 -8.208" stroke="none" fill="rgb(204,204,204)" />
</g>
<path d="
  M -15.480 3.096
  C -16.200 5.472 -17.424 7.344 -16.920 9.288
  C -16.056 12.456 -13.824 11.808 -12.096 10.152
  C -13.320 9.504 -10.800 11.088 -10.584 9.648
  C -9.288 10.944 -9.504 8.712 -7.488 8.712
  C -7.488 7.272 -5.544 8.640 -5.256 7.416
  C -4.752 10.656 -3.528 8.496 -0.576 8.496
  C -0.792 9.072 -5.040 11.736 -3.312 13.320
  C -0.144 14.400 2.520 14.400 4.824 11.952
  C 4.176 11.808 3.096 10.944 2.808 10.296
  C 5.184 11.016 8.280 11.520 10.656 10.296
  C 9.000 8.712 8.568 7.344 9.144 4.896
  C 10.656 7.128 13.464 11.160 16.632 7.992
  C 15.120 6.984 16.992 6.912 16.992 4.896
  C 18.288 8.064 17.136 9.072 20.232 9.072
  C 20.232 9.936 24.696 11.016 23.688 11.016
  C 25.848 11.664 26.712 8.496 28.368 7.056
  C 30.312 7.056 29.880 7.560 31.680 6.912
  C 33.336 2.376 27.072 0.792 25.056 4.176
  C 25.056 -0.000 23.760 -0.216 19.944 -0.216
  C 19.944 2.232 20.016 2.088 17.784 3.096
  C 17.784 -0.288 18.216 -3.960 13.464 -3.960
  C 13.968 -5.328 13.320 -5.688 12.960 -7.632
  C 12.168 -10.008 3.240 -10.656 3.240 -5.472
  C -7.488 -10.224 -9.000 -3.312 -8.640 -1.080
  C -11.088 -1.080 -17.568 -4.032 -15.480 2.088
  C -15.048 1.080 -13.896 0.288 -12.672 0.144
  C -14.112 1.512 -13.896 4.104 -12.888 5.760
  C -15.048 5.760 -15.120 5.472 -15.480 3.096" stroke="rgb(0,0,0)" stroke-width="0.504" fill="none" />
</g>
<path d="
  M 11.592 2.448
  L 4.752 7.128
  L 4.752 3.960
  L -5.904 3.960
  L -5.904 0.792
  L 4.752 0.792
  L 4.752 -2.448
  L 11.592 2.448" stroke="rgb(0,0,0)" stroke-width="0.504" fill="rgb(255,255,153)" />
</g>
</g>
</svg>
