<?xml version="1.0" encoding="ISO-8859-1"?><!DOCTYPE svg PUBLIC "-//W3C//DTD SVG 1.1//EN" "http://www.w3.org/Graphics/SVG/1.1/DTD/svg11.dtd"><svg version="1.1" baseProfile="full" width="100%" height="100%" viewBox="0.000 0.000 28.354 38.880" xmlns="http://www.w3.org/2000/svg" xmlns:xlink="http://www.w3.org/1999/xlink">
<g transform="translate(-14.18, -19.44)">
<path d="M11.011,0c5.88,0.521,7,5.4,8.599,9.72c2.16-1.08-1.079-3.24,0-5.92c9.841,7.479,14.521,33.2-3.2,34.28
	c3.759-4.84,2.68-10.479,0-14.84c-2.76,0-2.16,2.16-3.24,3.24c-1.639,0.56-1.079-1.08-2.159-1.08c-3.241,3.239-1.08,9.2,0,13.479
	c-9.681-6.479-15-20.4-7.4-32.799c2.72,1.599,4.16,3.64,4.68,6.879C10.411,9.72,11.011,4.92,11.011,0z"/>
	</g>
</svg>
