<?xml version="1.0" encoding="ISO-8859-1"?><!DOCTYPE svg PUBLIC "-//W3C//DTD SVG 1.1//EN" "http://www.w3.org/Graphics/SVG/1.1/DTD/svg11.dtd"><svg version="1.1" baseProfile="full" width="100%" height="100%" viewBox="0.000 0.000 23.697 37.080" xmlns="http://www.w3.org/2000/svg" xmlns:xlink="http://www.w3.org/1999/xlink">
<g transform="translate(-11.85, -18.54)">
<path d="M8.922,0c2.88,2.92,4.761,6.72,5.681,11.4c0.96,0,0.96-1.88,0.96-3.8c3.8,1.88,2.84,6.68,3.8,11.4
	c0.92-0.92,1-2.84,3.8-2.84c0.96,11.359,1.92,20.92-9.479,20.92c0.92-1.92,2.84-3.8,4.72-5.72c-0.96-7.601-3.76-4.761-4.72-11.4
	c-1.44,0-1.681,1.399-1.681,3.12c0,1.64,0.24,3.52-0.24,4.479c-0.959-0.96-1.879-1.879-2.84-3.8c-0.959,0.96-1.199,1.681-1.199,2.64
	c0,0.921,0.24,2.081,0.24,4.001C7.002,34.2,7.002,26.6,6.082,26.6c-3.8,2.841-0.04,8.601,0.92,10.48
	c-11.399-2.88-5.68-11.439-4.72-23.76c2.4,4.76,4.04,0.88,4.04-3.24c0-0.84-0.08-1.68-0.24-2.48c1.881,0.96,2.84,0.96,2.84-0.92
	c2.88,1.92-0.04,4.68,1.881,8.52C15.603,10.56,8.922,4.72,8.922,0z"/>
	</g>
</svg>
