<?xml version="1.0" encoding="ISO-8859-1"?><!DOCTYPE svg PUBLIC "-//W3C//DTD SVG 1.1//EN" "http://www.w3.org/Graphics/SVG/1.1/DTD/svg11.dtd"><svg version="1.1" baseProfile="full" width="100%" height="100%" viewBox="0.000 0.000 26.915 40.000" xmlns="http://www.w3.org/2000/svg" xmlns:xlink="http://www.w3.org/1999/xlink">
<g transform="translate(-13.46, -20)">
<path d="M16.739,17.96c2.88-0.439,2.88-4.16,3.32-7.479c2.44,2.12,1.239,8.68,0.8,12.439c3.36-0.84,5.4-2.879,5.4-7.04
	c2.879,4.12-1.2,7.88-1.641,12.4c2.881,0.44,2.881-2.04,4.12-3.28c0.84,6.601-3.72,12.4-10.359,13.24h-8.72
	c-3.68-0.36-6.081-2.4-7.72-5.44c-1.64-3.04-2.6-6.96-3.44-10.279c2.12,0,2.48,2.439,3.32,3.72c2.08-2.479,2.96-7.48,1.24-10.36
	c1.72,0.84,2.881,2.04,3.32,4.56c2.88-2.88,1.72-10.8-0.84-13.24c2.04,2.04,4.96,2.92,6.24,5.76c3.28-3.279-3.319-10.36,0.4-14.479
	C12.179,2.641,19.179,11.321,16.739,17.96z"/>
	</g>
</svg>
