<?xml version="1.0" encoding="ISO-8859-1"?><!DOCTYPE svg PUBLIC "-//W3C//DTD SVG 1.1//EN" "http://www.w3.org/Graphics/SVG/1.1/DTD/svg11.dtd"><svg version="1.1" baseProfile="full" width="100%" height="100%" viewBox="0.000 0.000 30.340 39.760" xmlns="http://www.w3.org/2000/svg" xmlns:xlink="http://www.w3.org/1999/xlink">
<g transform="translate(-15.17, -19.88)">
<path d="M18.24,19.479c2.879-0.439,2.879-4.16,3.32-7.479c2.44,2.12,1.24,8.681,0.801,12.439c3.359-0.84,5.399-2.879,5.399-7.04
	c2.88,4.121-1.2,7.88-1.641,12.4C29,30.24,29,27.76,30.24,26.52c0.84,6.601-3.721,12.4-10.36,13.24c2.08-2.08,4.2-5.8,2.48-9.96
	c-1.241,0.44-1.601,1.68-2.04,2.92c-0.641-0.2-0.641-1.04-0.641-1.84c0-0.84,0.04-1.68-0.6-1.88c-0.439,0.44-0.84,0.8-0.84,1.64
	c-0.84-3.32,0.04-9.56-3.72-11.16C12.8,21.96,17,25.64,14.919,29c-2.12-0.841-1.24-3.72-2.08-4.96c-2.52,1.319-0.36,5.72-0.8,8.68
	c-1.239-1.68-2.48-3.359-2.48-6.2c-2.52,0.84-0.84,3.24-0.84,4.96c-1.28,0-1.24-0.88-2.92-0.439c1.28,3.279,3.8,5.36,5.4,8.279
	C3.72,39.76,1.72,30.64,0,24.04c2.12,0,2.48,2.439,3.32,3.72c2.08-2.479,2.959-7.479,1.24-10.36c1.72,0.84,2.88,2.04,3.32,4.56
	c2.879-2.88,1.72-10.8-0.84-13.24c2.04,2.04,4.96,2.919,6.24,5.759C16.56,11.2,9.96,4.12,13.68,0
	C13.68,4.16,20.68,12.84,18.24,19.479z"/>
</g>
</svg>
