<?xml version="1.0" encoding="ISO-8859-1"?><!DOCTYPE svg PUBLIC "-//W3C//DTD SVG 1.1//EN" "http://www.w3.org/Graphics/SVG/1.1/DTD/svg11.dtd"><svg version="1.1" baseProfile="full" width="100%" height="100%" viewBox="-42.408 -39.600 84.816 79.920" xmlns="http://www.w3.org/2000/svg" xmlns:xlink="http://www.w3.org/1999/xlink">
<g>
<g>
<g>
<path d="
  M 12.744 -10.080
  L 13.464 -9.936
  L 12.744 -9.792
  L 12.744 -10.080" stroke="none" fill="rgb(255,255,54)" />
<path d="
  M 10.440 -19.512
  L 11.088 -20.016
  L 10.296 -19.800
  L 10.440 -19.512" stroke="none" fill="rgb(255,255,54)" />
<path d="
  M 4.464 -27.288
  L 4.824 -27.864
  L 4.320 -27.360
  L 4.464 -27.288" stroke="none" fill="rgb(255,255,54)" />
<path d="
  M -4.320 -31.752
  L -4.320 -32.112
  L -4.536 -31.752
  L -4.320 -31.752" stroke="none" fill="rgb(255,255,54)" />
<path d="
  M -14.328 -32.040
  L -14.544 -32.400
  L -14.544 -32.040
  L -14.328 -32.040" stroke="none" fill="rgb(255,255,54)" />
<path d="
  M -23.472 -27.864
  L -24.048 -28.440
  L -23.688 -27.648
  L -23.472 -27.864" stroke="none" fill="rgb(255,255,54)" />
<path d="
  M -32.544 -10.008
  L -33.336 -9.936
  L -32.544 -9.792
  L -32.544 -10.008" stroke="none" fill="rgb(255,255,54)" />
<path d="
  M -14.616 12.240
  L -14.616 12.744
  L -14.400 12.312
  L -14.616 12.240" stroke="none" fill="rgb(255,255,54)" />
<path d="
  M -4.752 12.168
  L -4.680 12.528
  L -4.680 12.168
  L -4.752 12.168" stroke="none" fill="rgb(255,255,54)" />
<path d="
  M 4.464 7.488
  L 5.112 8.280
  L 4.680 7.344
  L 4.464 7.488" stroke="none" fill="rgb(255,255,54)" />
<path d="
  M 10.440 -0.144
  L 11.664 0.360
  L 10.656 -0.504
  C 10.656 -0.432 10.656 -0.360 10.440 -0.144" stroke="none" fill="rgb(255,255,54)" />
<path d="
  M 12.744 -10.080
  L 11.016 -10.368
  C 11.088 -10.080 11.088 -9.936 11.088 -9.648
  L 12.744 -9.792
  L 12.744 -10.080" stroke="none" fill="rgb(255,255,67)" />
<path d="
  M 10.440 -19.512
  L 9.144 -18.576
  C 9.144 -18.792 8.928 -19.080 8.640 -19.440
  L 10.296 -19.800
  L 10.440 -19.512" stroke="none" fill="rgb(255,255,67)" />
<path d="
  M 4.464 -27.288
  L 3.600 -25.848
  C 3.456 -26.136 3.240 -26.352 3.024 -26.352
  L 4.320 -27.360
  L 4.464 -27.288" stroke="none" fill="rgb(255,255,67)" />
<path d="
  M -4.320 -31.752
  L -4.536 -30.024
  C -4.896 -30.312 -5.040 -30.312 -5.040 -30.240
  L -4.536 -31.752
  L -4.320 -31.752" stroke="none" fill="rgb(255,255,67)" />
<path d="
  M -14.328 -32.040
  L -13.752 -30.384
  C -13.824 -30.528 -14.040 -30.528 -14.400 -30.312
  L -14.544 -32.040
  L -14.328 -32.040" stroke="none" fill="rgb(255,255,67)" />
<path d="
  M -23.472 -27.864
  L -22.392 -26.712
  C -22.464 -26.712 -22.680 -26.568 -22.824 -26.352
  L -23.688 -27.648
  L -23.472 -27.864" stroke="none" fill="rgb(255,255,67)" />
<path d="
  M -32.544 -10.008
  L -30.888 -10.296
  C -30.960 -10.008 -30.960 -9.792 -30.960 -9.504
  L -32.544 -9.792
  L -32.544 -10.008" stroke="none" fill="rgb(255,255,67)" />
<path d="
  M -14.616 12.240
  L -14.400 10.656
  C -14.040 10.800 -13.824 10.800 -13.752 10.728
  L -14.400 12.312
  L -14.616 12.240" stroke="none" fill="rgb(255,255,67)" />
<path d="
  M -4.752 12.168
  L -5.328 10.656
  C -5.256 10.656 -4.968 10.656 -4.608 10.440
  L -4.680 12.168
  L -4.752 12.168" stroke="none" fill="rgb(255,255,67)" />
<path d="
  M 4.464 7.488
  L 3.312 6.480
  C 3.600 6.408 3.816 6.192 4.032 5.904
  L 4.680 7.344
  L 4.464 7.488" stroke="none" fill="rgb(255,255,67)" />
<path d="
  M 10.440 -0.144
  L 8.928 -0.720
  C 9.216 -1.080 9.288 -1.368 9.288 -1.584
  L 10.656 -0.504
  C 10.656 -0.432 10.656 -0.360 10.440 -0.144" stroke="none" fill="rgb(255,255,67)" />
<path d="
  M -28.728 -19.152
  L -29.808 -19.440
  L -28.872 -18.792
  C -29.016 -18.792 -28.872 -18.864 -28.728 -19.152" stroke="none" fill="rgb(255,255,67)" />
<path d="
  M -29.088 -1.296
  L -30.312 -0.504
  L -28.872 -0.864
  C -29.088 -1.152 -29.160 -1.296 -29.088 -1.296" stroke="none" fill="rgb(255,255,67)" />
<path d="
  M -23.328 6.264
  L -23.760 7.056
  L -23.112 6.480
  L -23.328 6.264" stroke="none" fill="rgb(255,255,67)" />
<path d="
  M 11.016 -10.368
  L 9.432 -10.728
  C 9.504 -10.296 9.504 -9.792 9.504 -9.432
  L 11.088 -9.648
  C 11.088 -9.936 11.088 -10.080 11.016 -10.368" stroke="none" fill="rgb(255,255,77)" />
<path d="
  M 9.144 -18.576
  L 7.776 -17.712
  C 7.632 -18.144 7.416 -18.576 7.056 -19.152
  L 8.640 -19.440
  C 8.928 -19.080 9.144 -18.792 9.144 -18.576" stroke="none" fill="rgb(255,255,77)" />
<path d="
  M 3.600 -25.848
  L 2.664 -24.480
  C 2.376 -24.840 2.088 -25.128 1.728 -25.272
  L 3.024 -26.352
  C 3.240 -26.352 3.456 -26.136 3.600 -25.848" stroke="none" fill="rgb(255,255,77)" />
<path d="
  M -4.536 -30.024
  L -4.680 -28.512
  C -5.040 -28.728 -5.472 -28.800 -5.616 -28.800
  L -5.040 -30.240
  C -5.040 -30.312 -4.896 -30.312 -4.536 -30.024" stroke="none" fill="rgb(255,255,77)" />
<path d="
  M -13.752 -30.384
  L -13.104 -29.016
  C -13.464 -29.016 -13.824 -28.872 -14.328 -28.728
  L -14.400 -30.312
  C -14.040 -30.528 -13.824 -30.528 -13.752 -30.384" stroke="none" fill="rgb(255,255,77)" />
<path d="
  M -22.392 -26.712
  L -21.168 -25.560
  C -21.384 -25.488 -21.816 -25.200 -21.960 -24.840
  L -22.824 -26.352
  C -22.680 -26.568 -22.464 -26.712 -22.392 -26.712" stroke="none" fill="rgb(255,255,77)" />
<path d="
  M -28.728 -19.152
  L -27.072 -18.720
  C -27.360 -18.432 -27.504 -18.144 -27.576 -17.856
  L -28.872 -18.792
  C -29.016 -18.792 -28.872 -18.864 -28.728 -19.152" stroke="none" fill="rgb(255,255,77)" />
<path d="
  M -30.888 -10.296
  L -29.232 -10.440
  C -29.376 -10.080 -29.376 -9.720 -29.232 -9.360
  L -30.960 -9.504
  C -30.960 -9.792 -30.960 -10.008 -30.888 -10.296" stroke="none" fill="rgb(255,255,77)" />
<path d="
  M -29.088 -1.296
  L -27.720 -2.160
  C -27.648 -1.944 -27.576 -1.656 -27.288 -1.296
  L -28.872 -0.864
  C -29.088 -1.152 -29.160 -1.296 -29.088 -1.296" stroke="none" fill="rgb(255,255,77)" />
<path d="
  M -23.328 6.264
  L -22.392 4.896
  C -22.248 5.184 -21.960 5.328 -21.816 5.400
  L -23.112 6.480
  L -23.328 6.264" stroke="none" fill="rgb(255,255,77)" />
<path d="
  M -14.400 10.656
  L -14.328 9.000
  C -13.824 9.216 -13.464 9.288 -13.104 9.288
  L -13.752 10.728
  C -13.824 10.800 -14.040 10.800 -14.400 10.656" stroke="none" fill="rgb(255,255,77)" />
<path d="
  M -5.328 10.656
  L -5.832 9.144
  C -5.472 9.144 -5.040 9.000 -4.608 8.712
  L -4.608 10.440
  C -4.968 10.656 -5.256 10.656 -5.328 10.656" stroke="none" fill="rgb(255,255,77)" />
<path d="
  M 3.312 6.480
  L 2.232 5.256
  C 2.592 5.040 2.952 4.680 3.240 4.320
  L 4.032 5.904
  C 3.816 6.192 3.600 6.408 3.312 6.480" stroke="none" fill="rgb(255,255,77)" />
<path d="
  M 8.928 -0.720
  L 7.416 -1.296
  C 7.704 -1.728 7.920 -2.232 8.064 -2.592
  L 9.288 -1.584
  C 9.288 -1.368 9.216 -1.080 8.928 -0.720" stroke="none" fill="rgb(255,255,77)" />
<path d="
  M 9.432 -10.728
  L 7.776 -11.016
  C 7.920 -10.368 7.920 -9.792 7.776 -9.144
  L 9.504 -9.432
  C 9.504 -9.792 9.504 -10.296 9.432 -10.728" stroke="none" fill="rgb(255,255,87)" />
<path d="
  M 7.776 -17.712
  L 6.408 -16.776
  C 6.192 -17.496 5.976 -18.144 5.544 -18.792
  L 7.056 -19.152
  C 7.416 -18.576 7.632 -18.144 7.776 -17.712" stroke="none" fill="rgb(255,255,87)" />
<path d="
  M 2.664 -24.480
  L 1.944 -23.256
  C 1.440 -23.616 1.008 -23.976 0.504 -24.336
  L 1.728 -25.272
  C 2.088 -25.128 2.376 -24.840 2.664 -24.480" stroke="none" fill="rgb(255,255,87)" />
<path d="
  M -4.680 -28.512
  L -4.896 -26.784
  C -5.472 -27.072 -5.904 -27.216 -6.264 -27.288
  L -5.616 -28.800
  C -5.472 -28.800 -5.040 -28.728 -4.680 -28.512" stroke="none" fill="rgb(255,255,87)" />
<path d="
  M -13.104 -29.016
  L -12.528 -27.360
  C -13.032 -27.360 -13.608 -27.288 -14.256 -27.000
  L -14.328 -28.728
  C -13.824 -28.872 -13.464 -29.016 -13.104 -29.016" stroke="none" fill="rgb(255,255,87)" />
<path d="
  M -21.168 -25.560
  L -20.016 -24.552
  C -20.376 -24.264 -20.880 -23.904 -21.240 -23.544
  L -21.960 -24.840
  C -21.816 -25.200 -21.384 -25.488 -21.168 -25.560" stroke="none" fill="rgb(255,255,87)" />
<path d="
  M -27.072 -18.720
  L -25.560 -18.216
  C -25.848 -17.712 -26.064 -17.352 -26.208 -16.992
  L -27.576 -17.856
  C -27.504 -18.144 -27.360 -18.432 -27.072 -18.720" stroke="none" fill="rgb(255,255,87)" />
<path d="
  M -29.232 -10.440
  L -27.648 -10.656
  C -27.720 -10.080 -27.720 -9.648 -27.648 -9.072
  L -29.232 -9.360
  C -29.376 -9.720 -29.376 -10.080 -29.232 -10.440" stroke="none" fill="rgb(255,255,87)" />
<path d="
  M -27.720 -2.160
  L -26.352 -2.952
  C -26.208 -2.592 -26.064 -2.160 -25.704 -1.656
  L -27.288 -1.296
  C -27.576 -1.656 -27.648 -1.944 -27.720 -2.160" stroke="none" fill="rgb(255,255,87)" />
<path d="
  M -22.392 4.896
  L -21.528 3.528
  C -21.240 3.888 -20.880 4.176 -20.448 4.392
  L -21.816 5.400
  C -21.960 5.328 -22.248 5.184 -22.392 4.896" stroke="none" fill="rgb(255,255,87)" />
<path d="
  M -14.328 9.000
  L -14.112 7.416
  C -13.464 7.632 -12.888 7.704 -12.456 7.704
  L -13.104 9.288
  C -13.464 9.288 -13.824 9.216 -14.328 9.000" stroke="none" fill="rgb(255,255,87)" />
<path d="
  M -5.832 9.144
  L -6.264 7.632
  C -5.832 7.488 -5.184 7.344 -4.536 7.056
  L -4.608 8.712
  C -5.040 9.000 -5.472 9.144 -5.832 9.144" stroke="none" fill="rgb(255,255,87)" />
<path d="
  M 2.232 5.256
  L 1.080 4.104
  C 1.656 3.816 2.088 3.384 2.592 2.880
  L 3.240 4.320
  C 2.952 4.680 2.592 5.040 2.232 5.256" stroke="none" fill="rgb(255,255,87)" />
<path d="
  M 7.416 -1.296
  L 5.976 -1.872
  C 6.264 -2.520 6.552 -3.096 6.696 -3.672
  L 8.064 -2.592
  C 7.920 -2.232 7.704 -1.728 7.416 -1.296" stroke="none" fill="rgb(255,255,87)" />
<path d="
  M 7.776 -11.016
  L 6.120 -11.448
  C 6.264 -10.584 6.264 -9.792 6.192 -8.928
  L 7.776 -9.144
  C 7.920 -9.792 7.920 -10.368 7.776 -11.016" stroke="none" fill="rgb(255,255,97)" />
<path d="
  M 6.408 -16.776
  L 5.112 -15.840
  C 4.824 -16.704 4.464 -17.568 3.816 -18.432
  L 5.544 -18.792
  C 5.976 -18.144 6.192 -17.496 6.408 -16.776" stroke="none" fill="rgb(255,255,97)" />
<path d="
  M 1.944 -23.256
  L 1.008 -21.744
  C 0.432 -22.392 -0.216 -22.824 -0.792 -23.256
  L 0.504 -24.336
  C 1.008 -23.976 1.440 -23.616 1.944 -23.256" stroke="none" fill="rgb(255,255,97)" />
<path d="
  M -4.896 -26.784
  L -5.040 -25.200
  C -5.760 -25.488 -6.264 -25.704 -6.984 -25.704
  L -6.264 -27.288
  C -5.904 -27.216 -5.472 -27.072 -4.896 -26.784" stroke="none" fill="rgb(255,255,97)" />
<path d="
  M -12.528 -27.360
  L -11.880 -25.848
  C -12.600 -25.848 -13.392 -25.704 -14.112 -25.416
  L -14.256 -27.000
  C -13.608 -27.288 -13.032 -27.360 -12.528 -27.360" stroke="none" fill="rgb(255,255,97)" />
<path d="
  M -20.016 -24.552
  L -18.792 -23.328
  C -19.368 -23.040 -19.872 -22.680 -20.376 -22.032
  L -21.240 -23.544
  C -20.880 -23.904 -20.376 -24.264 -20.016 -24.552" stroke="none" fill="rgb(255,255,97)" />
<path d="
  M -25.560 -18.216
  L -23.904 -17.856
  C -24.336 -17.208 -24.696 -16.488 -24.840 -16.056
  L -26.208 -16.992
  C -26.064 -17.352 -25.848 -17.712 -25.560 -18.216" stroke="none" fill="rgb(255,255,97)" />
<path d="
  M -27.648 -10.656
  L -26.064 -10.944
  C -26.136 -10.152 -26.136 -9.504 -26.064 -8.784
  L -27.648 -9.072
  C -27.720 -9.648 -27.720 -10.080 -27.648 -10.656" stroke="none" fill="rgb(255,255,97)" />
<path d="
  M -26.352 -2.952
  L -24.912 -3.888
  C -24.840 -3.384 -24.552 -2.808 -24.048 -2.160
  L -25.704 -1.656
  C -26.064 -2.160 -26.208 -2.592 -26.352 -2.952" stroke="none" fill="rgb(255,255,97)" />
<path d="
  M -21.528 3.528
  L -20.664 2.160
  C -20.304 2.664 -19.728 3.096 -19.152 3.384
  L -20.448 4.392
  C -20.880 4.176 -21.240 3.888 -21.528 3.528" stroke="none" fill="rgb(255,255,97)" />
<path d="
  M -14.112 7.416
  L -14.040 5.688
  C -13.320 5.976 -12.528 6.192 -11.808 6.192
  L -12.456 7.704
  C -12.888 7.704 -13.464 7.632 -14.112 7.416" stroke="none" fill="rgb(255,255,97)" />
<path d="
  M -6.264 7.632
  L -6.840 5.976
  C -6.120 5.904 -5.256 5.688 -4.392 5.328
  L -4.536 7.056
  C -5.184 7.344 -5.832 7.488 -6.264 7.632" stroke="none" fill="rgb(255,255,97)" />
<path d="
  M 1.080 4.104
  L -0.072 2.880
  C 0.720 2.520 1.368 1.944 1.800 1.152
  L 2.592 2.880
  C 2.088 3.384 1.656 3.816 1.080 4.104" stroke="none" fill="rgb(255,255,97)" />
<path d="
  M 5.976 -1.872
  L 4.464 -2.520
  C 4.968 -3.240 5.328 -4.032 5.400 -4.752
  L 6.696 -3.672
  C 6.552 -3.096 6.264 -2.520 5.976 -1.872" stroke="none" fill="rgb(255,255,97)" />
<path d="
  M 6.120 -11.448
  L 4.464 -11.664
  C 4.680 -10.728 4.680 -9.720 4.536 -8.784
  L 6.192 -8.928
  C 6.264 -9.792 6.264 -10.584 6.120 -11.448" stroke="none" fill="rgb(255,255,108)" />
<path d="
  M 5.112 -15.840
  L 3.744 -14.904
  C 3.312 -15.984 2.808 -16.992 2.088 -18.000
  L 3.816 -18.432
  C 4.464 -17.568 4.824 -16.704 5.112 -15.840" stroke="none" fill="rgb(255,255,108)" />
<path d="
  M 1.008 -21.744
  L 0.144 -20.376
  C -0.648 -21.024 -1.368 -21.600 -2.232 -22.104
  L -0.792 -23.256
  C -0.216 -22.824 0.432 -22.392 1.008 -21.744" stroke="none" fill="rgb(255,255,108)" />
<path d="
  M -5.040 -25.200
  L -5.184 -23.544
  C -6.048 -23.904 -6.840 -24.048 -7.632 -24.192
  L -6.984 -25.704
  C -6.264 -25.704 -5.760 -25.488 -5.040 -25.200" stroke="none" fill="rgb(255,255,108)" />
<path d="
  M -11.880 -25.848
  L -11.232 -24.264
  C -12.168 -24.192 -13.104 -24.048 -14.112 -23.688
  L -14.112 -25.416
  C -13.392 -25.704 -12.600 -25.848 -11.880 -25.848" stroke="none" fill="rgb(255,255,108)" />
<path d="
  M -18.792 -23.328
  L -17.568 -22.176
  C -18.216 -21.744 -18.936 -21.240 -19.512 -20.664
  L -20.376 -22.032
  C -19.872 -22.680 -19.368 -23.040 -18.792 -23.328" stroke="none" fill="rgb(255,255,108)" />
<path d="
  M -23.904 -17.856
  L -22.248 -17.352
  C -22.824 -16.632 -23.184 -15.768 -23.400 -14.976
  L -24.840 -16.056
  C -24.696 -16.488 -24.336 -17.208 -23.904 -17.856" stroke="none" fill="rgb(255,255,108)" />
<path d="
  M -26.064 -10.944
  L -24.336 -11.160
  C -24.480 -10.296 -24.480 -9.432 -24.336 -8.568
  L -26.064 -8.784
  C -26.136 -9.504 -26.136 -10.152 -26.064 -10.944" stroke="none" fill="rgb(255,255,108)" />
<path d="
  M -24.912 -3.888
  L -23.472 -4.752
  C -23.328 -4.104 -22.968 -3.240 -22.392 -2.520
  L -24.048 -2.160
  C -24.552 -2.808 -24.840 -3.384 -24.912 -3.888" stroke="none" fill="rgb(255,255,108)" />
<path d="
  M -20.664 2.160
  L -19.800 0.720
  C -19.224 1.368 -18.504 1.872 -17.856 2.304
  L -19.152 3.384
  C -19.728 3.096 -20.304 2.664 -20.664 2.160" stroke="none" fill="rgb(255,255,108)" />
<path d="
  M -14.040 5.688
  L -13.968 4.032
  C -12.888 4.392 -11.952 4.608 -11.016 4.608
  L -11.808 6.192
  C -12.528 6.192 -13.320 5.976 -14.040 5.688" stroke="none" fill="rgb(255,255,108)" />
<path d="
  M -6.840 5.976
  L -7.416 4.392
  C -6.480 4.320 -5.472 4.032 -4.392 3.672
  L -4.392 5.328
  C -5.256 5.688 -6.120 5.904 -6.840 5.976" stroke="none" fill="rgb(255,255,108)" />
<path d="
  M -0.072 2.880
  L -1.224 1.728
  C -0.360 1.152 0.432 0.432 1.080 -0.432
  L 1.800 1.152
  C 1.368 1.944 0.720 2.520 -0.072 2.880" stroke="none" fill="rgb(255,255,108)" />
<path d="
  M 4.464 -2.520
  L 2.880 -3.096
  C 3.456 -4.032 3.816 -4.968 4.032 -5.760
  L 5.400 -4.752
  C 5.328 -4.032 4.968 -3.240 4.464 -2.520" stroke="none" fill="rgb(255,255,108)" />
<path d="
  M 4.464 -11.664
  L 2.808 -12.096
  C 3.024 -10.872 3.168 -9.720 2.952 -8.568
  L 4.536 -8.784
  C 4.680 -9.720 4.680 -10.728 4.464 -11.664" stroke="none" fill="rgb(255,255,120)" />
<path d="
  M 3.744 -14.904
  L 2.304 -13.896
  C 1.944 -15.264 1.296 -16.488 0.288 -17.640
  L 2.088 -18.000
  C 2.808 -16.992 3.312 -15.984 3.744 -14.904" stroke="none" fill="rgb(255,255,120)" />
<path d="
  M 0.144 -20.376
  L -0.792 -19.008
  C -1.656 -19.800 -2.592 -20.592 -3.672 -20.952
  L -2.232 -22.104
  C -1.368 -21.600 -0.648 -21.024 0.144 -20.376" stroke="none" fill="rgb(255,255,120)" />
<path d="
  M -5.184 -23.544
  L -5.328 -21.888
  C -6.264 -22.248 -7.272 -22.536 -8.280 -22.536
  L -7.632 -24.192
  C -6.840 -24.048 -6.048 -23.904 -5.184 -23.544" stroke="none" fill="rgb(255,255,120)" />
<path d="
  M -11.232 -24.264
  L -10.656 -22.680
  C -11.808 -22.680 -12.888 -22.464 -14.040 -22.032
  L -14.112 -23.688
  C -13.104 -24.048 -12.168 -24.192 -11.232 -24.264" stroke="none" fill="rgb(255,255,120)" />
<path d="
  M -17.568 -22.176
  L -16.344 -20.952
  C -17.136 -20.592 -18.000 -19.944 -18.792 -19.224
  L -19.512 -20.664
  C -18.936 -21.240 -18.216 -21.744 -17.568 -22.176" stroke="none" fill="rgb(255,255,120)" />
<path d="
  M -22.248 -17.352
  L -20.592 -16.920
  C -21.312 -16.056 -21.816 -15.120 -21.960 -14.040
  L -23.400 -14.976
  C -23.184 -15.768 -22.824 -16.632 -22.248 -17.352" stroke="none" fill="rgb(255,255,120)" />
<path d="
  M -24.336 -11.160
  L -22.680 -11.304
  C -22.824 -10.368 -22.824 -9.360 -22.680 -8.280
  L -24.336 -8.568
  C -24.480 -9.432 -24.480 -10.296 -24.336 -11.160" stroke="none" fill="rgb(255,255,120)" />
<path d="
  M -23.472 -4.752
  L -22.104 -5.616
  C -21.816 -4.752 -21.384 -3.816 -20.736 -2.952
  L -22.392 -2.520
  C -22.968 -3.240 -23.328 -4.104 -23.472 -4.752" stroke="none" fill="rgb(255,255,120)" />
<path d="
  M -19.800 0.720
  L -18.936 -0.648
  C -18.216 0.144 -17.352 0.792 -16.416 1.152
  L -17.856 2.304
  C -18.504 1.872 -19.224 1.368 -19.800 0.720" stroke="none" fill="rgb(255,255,120)" />
<path d="
  M -13.968 4.032
  L -13.752 2.376
  C -12.600 2.808 -11.520 2.952 -10.368 2.952
  L -11.016 4.608
  C -11.952 4.608 -12.888 4.392 -13.968 4.032" stroke="none" fill="rgb(255,255,120)" />
<path d="
  M -7.416 4.392
  L -7.920 2.880
  C -6.696 2.664 -5.472 2.304 -4.320 1.728
  L -4.392 3.672
  C -5.472 4.032 -6.480 4.320 -7.416 4.392" stroke="none" fill="rgb(255,255,120)" />
<path d="
  M -1.224 1.728
  L -2.304 0.504
  C -1.296 -0.144 -0.360 -1.008 0.288 -2.016
  L 1.080 -0.432
  C 0.432 0.432 -0.360 1.152 -1.224 1.728" stroke="none" fill="rgb(255,255,120)" />
<path d="
  M 2.880 -3.096
  L 1.368 -3.672
  C 2.016 -4.680 2.520 -5.760 2.664 -6.912
  L 4.032 -5.760
  C 3.816 -4.968 3.456 -4.032 2.880 -3.096" stroke="none" fill="rgb(255,255,120)" />
<path d="
  M 2.808 -12.096
  L 1.008 -12.456
  C 1.440 -11.016 1.512 -9.720 1.152 -8.280
  L 2.952 -8.568
  C 3.168 -9.720 3.024 -10.872 2.808 -12.096" stroke="none" fill="rgb(255,255,131)" />
<path d="
  M 2.304 -13.896
  L 0.864 -12.960
  C 0.576 -14.544 -0.216 -16.056 -1.512 -17.280
  L 0.288 -17.640
  C 1.296 -16.488 1.944 -15.264 2.304 -13.896" stroke="none" fill="rgb(255,255,131)" />
<path d="
  M -0.792 -19.008
  L -1.656 -17.568
  C -2.592 -18.576 -3.744 -19.440 -4.896 -19.944
  L -3.672 -20.952
  C -2.592 -20.592 -1.656 -19.800 -0.792 -19.008" stroke="none" fill="rgb(255,255,131)" />
<path d="
  M -5.328 -21.888
  L -5.544 -20.304
  C -6.696 -20.736 -7.776 -21.024 -8.928 -20.952
  L -8.280 -22.536
  C -7.272 -22.536 -6.264 -22.248 -5.328 -21.888" stroke="none" fill="rgb(255,255,131)" />
<path d="
  M -10.656 -22.680
  L -10.008 -21.168
  C -11.304 -21.168 -12.600 -20.880 -13.968 -20.376
  L -14.040 -22.032
  C -12.888 -22.464 -11.808 -22.680 -10.656 -22.680" stroke="none" fill="rgb(255,255,131)" />
<path d="
  M -16.344 -20.952
  L -15.120 -19.800
  C -16.128 -19.368 -17.064 -18.720 -17.928 -17.856
  L -18.792 -19.224
  C -18.000 -19.944 -17.136 -20.592 -16.344 -20.952" stroke="none" fill="rgb(255,255,131)" />
<path d="
  M -20.592 -16.920
  L -18.864 -16.416
  C -19.800 -15.480 -20.376 -14.256 -20.592 -13.104
  L -21.960 -14.040
  C -21.816 -15.120 -21.312 -16.056 -20.592 -16.920" stroke="none" fill="rgb(255,255,131)" />
<path d="
  M -22.680 -11.304
  L -20.880 -11.592
  C -21.240 -10.440 -21.312 -9.216 -20.880 -7.992
  L -22.680 -8.280
  C -22.824 -9.360 -22.824 -10.368 -22.680 -11.304" stroke="none" fill="rgb(255,255,131)" />
<path d="
  M -22.104 -5.616
  L -20.592 -6.624
  C -20.376 -5.400 -19.872 -4.320 -18.936 -3.384
  L -20.736 -2.952
  C -21.384 -3.816 -21.816 -4.752 -22.104 -5.616" stroke="none" fill="rgb(255,255,131)" />
<path d="
  M -18.936 -0.648
  L -18.000 -2.016
  C -17.280 -1.080 -16.200 -0.360 -15.120 0.144
  L -16.416 1.152
  C -17.352 0.792 -18.216 0.144 -18.936 -0.648" stroke="none" fill="rgb(255,255,131)" />
<path d="
  M -13.752 2.376
  L -13.680 0.720
  C -12.312 1.296 -11.016 1.440 -9.720 1.440
  L -10.368 2.952
  C -11.520 2.952 -12.600 2.808 -13.752 2.376" stroke="none" fill="rgb(255,255,131)" />
<path d="
  M -7.920 2.880
  L -8.496 1.152
  C -6.984 1.152 -5.544 0.720 -4.248 -0.216
  L -4.320 1.728
  C -5.472 2.304 -6.696 2.664 -7.920 2.880" stroke="none" fill="rgb(255,255,131)" />
<path d="
  M -2.304 0.504
  L -3.528 -0.720
  C -2.232 -1.368 -1.224 -2.520 -0.504 -3.816
  L 0.288 -2.016
  C -0.360 -1.008 -1.296 -0.144 -2.304 0.504" stroke="none" fill="rgb(255,255,131)" />
<path d="
  M 1.368 -3.672
  L -0.216 -4.320
  C 0.576 -5.400 1.080 -6.696 1.152 -8.136
  L 2.664 -6.912
  C 2.520 -5.760 2.016 -4.680 1.368 -3.672" stroke="none" fill="rgb(255,255,131)" />
<path d="
  M 1.008 -12.456
  L 0.288 -12.528
  L 0.864 -12.960
  C 0.576 -14.544 -0.216 -16.056 -1.512 -17.280
  L -1.944 -17.208
  L -1.656 -17.568
  C -2.592 -18.576 -3.744 -19.440 -4.896 -19.944
  L -5.616 -19.368
  L -5.544 -20.304
  C -6.696 -20.736 -7.776 -21.024 -8.928 -20.952
  L -9.432 -19.728
  L -10.008 -21.168
  C -11.304 -21.168 -12.600 -20.880 -13.968 -20.376
  L -13.824 -18.720
  C -9.792 -20.520 -5.040 -19.368 -2.304 -15.984
  C 0.504 -12.456 0.576 -7.632 -2.016 -4.104
  C -4.680 -0.504 -9.288 0.792 -13.464 -0.864
  L -13.680 0.720
  C -12.312 1.296 -11.016 1.440 -9.720 1.440
  L -8.928 -0.216
  L -8.496 1.152
  C -6.984 1.152 -5.544 0.720 -4.248 -0.216
  L -4.248 -1.368
  L -3.528 -0.720
  C -2.232 -1.368 -1.224 -2.520 -0.504 -3.816
  L -0.792 -4.464
  L -0.216 -4.320
  C 0.576 -5.400 1.080 -6.696 1.152 -8.136
  L 0.864 -8.280
  L 1.152 -8.280
  C 1.512 -9.720 1.440 -11.016 1.008 -12.456" stroke="none" fill="rgb(255,255,141)" />
<path d="
  M -15.120 -19.800
  L -13.824 -18.576
  C -15.120 -18.144 -16.200 -17.280 -16.992 -16.200
  L -17.928 -17.856
  C -17.064 -18.720 -16.128 -19.368 -15.120 -19.800" stroke="none" fill="rgb(255,255,141)" />
<path d="
  M -18.864 -16.416
  L -17.136 -15.984
  C -18.288 -14.904 -18.936 -13.464 -19.152 -12.096
  L -20.592 -13.104
  C -20.376 -14.256 -19.800 -15.480 -18.864 -16.416" stroke="none" fill="rgb(255,255,141)" />
<path d="
  M -20.880 -11.592
  L -19.224 -11.808
  C -19.728 -10.440 -19.728 -9.144 -19.224 -7.848
  L -20.880 -7.992
  C -21.312 -9.216 -21.240 -10.440 -20.880 -11.592" stroke="none" fill="rgb(255,255,141)" />
<path d="
  M -20.592 -6.624
  L -19.152 -7.416
  C -18.936 -6.048 -18.288 -4.896 -17.280 -3.816
  L -18.936 -3.384
  C -19.872 -4.320 -20.376 -5.400 -20.592 -6.624" stroke="none" fill="rgb(255,255,141)" />
<path d="
  M -18.000 -2.016
  L -17.064 -3.672
  C -16.344 -2.376 -15.120 -1.440 -13.752 -1.008
  L -15.120 0.144
  C -16.200 -0.360 -17.280 -1.080 -18.000 -2.016" stroke="none" fill="rgb(255,255,141)" />
<path d="
  M -1.728 -9.792
  C -1.728 -14.256 -5.472 -17.928 -9.864 -17.928
  C -14.328 -17.928 -18.000 -14.256 -18.000 -9.792
  C -18.000 -5.400 -14.328 -1.728 -9.864 -1.728
  C -5.472 -1.728 -1.728 -5.400 -1.728 -9.792" stroke="none" fill="rgb(255,255,151)" />
<path d="
  M -13.824 -18.720
  L -13.824 -18.576
  L -13.824 -18.576
  C -15.120 -18.144 -16.200 -17.280 -16.992 -16.200
  L -16.776 -15.840
  L -17.136 -15.984
  C -18.288 -14.904 -18.936 -13.464 -19.152 -12.096
  L -18.864 -11.880
  L -19.224 -11.808
  C -19.728 -10.440 -19.728 -9.144 -19.224 -7.848
  L -18.792 -7.704
  L -19.152 -7.416
  C -18.936 -6.048 -18.288 -4.896 -17.280 -3.816
  L -16.848 -3.888
  L -17.064 -3.672
  C -16.344 -2.376 -15.120 -1.440 -13.752 -1.008
  L -13.464 -1.152
  L -13.464 -0.864
  C -9.288 0.792 -4.680 -0.504 -2.016 -4.104
  C 0.576 -7.632 0.504 -12.456 -2.304 -15.984
  C -5.040 -19.368 -9.792 -20.520 -13.824 -18.720" stroke="none" fill="rgb(255,255,151)" />
<path d="
  M -1.728 -9.792
  C -1.728 -14.256 -5.472 -17.928 -9.864 -17.928
  C -14.328 -17.928 -18.000 -14.256 -18.000 -9.792
  C -18.000 -5.400 -14.328 -1.728 -9.864 -1.728
  C -5.472 -1.728 -1.728 -5.400 -1.728 -9.792" stroke="none" fill="rgb(255,255,164)" />
<path d="
  M -3.456 -9.792
  C -3.456 -13.320 -6.408 -16.200 -9.864 -16.200
  C -13.392 -16.200 -16.344 -13.320 -16.344 -9.792
  C -16.344 -6.336 -13.392 -3.456 -9.864 -3.456
  C -6.408 -3.456 -3.456 -6.336 -3.456 -9.792" stroke="none" fill="rgb(255,255,164)" />
<path d="
  M -3.456 -9.792
  C -3.456 -13.320 -6.408 -16.200 -9.864 -16.200
  C -13.392 -16.200 -16.344 -13.320 -16.344 -9.792
  C -16.344 -6.336 -13.392 -3.456 -9.864 -3.456
  C -6.408 -3.456 -3.456 -6.336 -3.456 -9.792" stroke="none" fill="rgb(255,255,174)" />
<path d="
  M -5.040 -9.792
  C -5.040 -12.456 -7.272 -14.616 -9.864 -14.616
  C -12.528 -14.616 -14.688 -12.456 -14.688 -9.792
  C -14.688 -7.128 -12.528 -5.040 -9.864 -5.040
  C -7.272 -5.040 -5.040 -7.128 -5.040 -9.792" stroke="none" fill="rgb(255,255,174)" />
<path d="
  M -5.040 -9.792
  C -5.040 -12.456 -7.272 -14.616 -9.864 -14.616
  C -12.528 -14.616 -14.688 -12.456 -14.688 -9.792
  C -14.688 -7.128 -12.528 -5.040 -9.864 -5.040
  C -7.272 -5.040 -5.040 -7.128 -5.040 -9.792" stroke="none" fill="rgb(255,255,184)" />
<path d="
  M -6.696 -9.792
  C -6.696 -11.520 -8.208 -13.032 -9.864 -13.032
  C -11.592 -13.032 -13.104 -11.520 -13.104 -9.792
  C -13.104 -8.136 -11.592 -6.624 -9.864 -6.624
  C -8.208 -6.624 -6.696 -8.136 -6.696 -9.792" stroke="none" fill="rgb(255,255,184)" />
<path d="
  M -6.696 -9.792
  C -6.696 -11.520 -8.208 -13.032 -9.864 -13.032
  C -11.592 -13.032 -13.104 -11.520 -13.104 -9.792
  C -13.104 -8.136 -11.592 -6.624 -9.864 -6.624
  C -8.208 -6.624 -6.696 -8.136 -6.696 -9.792" stroke="none" fill="rgb(255,255,194)" />
<path d="
  M -8.280 -9.792
  C -8.280 -10.656 -9.072 -11.448 -9.864 -11.448
  C -10.728 -11.448 -11.520 -10.656 -11.520 -9.792
  C -11.520 -8.928 -10.728 -8.208 -9.864 -8.208
  C -9.072 -8.208 -8.280 -8.928 -8.280 -9.792" stroke="none" fill="rgb(255,255,194)" />
<path d="
  M -8.280 -9.792
  C -8.280 -10.656 -9.072 -11.448 -9.864 -11.448
  C -10.728 -11.448 -11.520 -10.656 -11.520 -9.792
  C -11.520 -8.928 -10.728 -8.208 -9.864 -8.208
  C -9.072 -8.208 -8.280 -8.928 -8.280 -9.792" stroke="none" fill="rgb(255,255,204)" />
</g>
<path d="
  M -24.048 -28.440
  L -13.824 -18.576
  L -14.544 -32.400
  L -9.432 -19.728
  L -4.320 -32.112
  L -5.616 -19.368
  L 4.824 -27.864
  L -1.944 -17.208
  L 11.088 -20.016
  L 0.288 -12.528
  L 13.464 -9.936
  L 0.864 -8.280
  L 11.664 0.360
  L -0.792 -4.464
  L 5.112 8.280
  L -4.248 -1.368
  L -4.680 12.528
  L -8.928 -0.216
  L -14.616 12.744
  L -13.464 -1.152
  L -23.760 7.056
  L -16.848 -3.888
  L -30.312 -0.504
  L -18.792 -7.704
  L -33.336 -9.936
  L -18.864 -11.880
  L -29.808 -19.440
  L -16.776 -15.840
  L -24.048 -28.440" stroke="rgb(0,0,0)" stroke-width="0.504" fill="none" />
<g>
<path d="
  M 3.456 -9.144
  C 3.456 -15.984 -2.232 -21.600 -9.072 -21.600
  C -15.840 -21.600 -21.528 -15.984 -21.528 -9.144
  C -21.528 -2.376 -15.840 3.240 -9.072 3.240
  C -2.232 3.240 3.456 -2.376 3.456 -9.144" stroke="none" fill="rgb(255,255,54)" />
<path d="
  M -9.072 -21.816
  C -2.160 -21.816 3.528 -16.128 3.528 -9.144
  C 3.528 -2.232 -2.160 3.456 -9.072 3.456
  C -15.912 3.456 -21.600 -2.232 -21.600 -9.144
  C -21.600 -16.128 -15.912 -21.816 -9.072 -21.816" stroke="none" fill="rgb(255,255,54)" />
<path d="
  M 3.456 -9.144
  C 3.456 -15.984 -2.232 -21.600 -9.072 -21.600
  C -15.840 -21.600 -21.528 -15.984 -21.528 -9.144
  C -21.528 -2.376 -15.840 3.240 -9.072 3.240
  C -2.232 3.240 3.456 -2.376 3.456 -9.144" stroke="none" fill="rgb(255,255,67)" />
<path d="
  M 2.520 -9.144
  C 2.520 -15.480 -2.736 -20.664 -9.072 -20.664
  C -15.336 -20.664 -20.592 -15.480 -20.592 -9.144
  C -20.592 -2.880 -15.336 2.304 -9.072 2.304
  C -2.736 2.304 2.520 -2.880 2.520 -9.144" stroke="none" fill="rgb(255,255,67)" />
<path d="
  M 2.520 -9.144
  C 2.520 -15.480 -2.736 -20.664 -9.072 -20.664
  C -15.336 -20.664 -20.592 -15.480 -20.592 -9.144
  C -20.592 -2.880 -15.336 2.304 -9.072 2.304
  C -2.736 2.304 2.520 -2.880 2.520 -9.144" stroke="none" fill="rgb(255,255,77)" />
<path d="
  M 1.656 -9.144
  C 1.656 -14.976 -3.168 -19.800 -9.072 -19.800
  C -14.904 -19.800 -19.728 -14.976 -19.728 -9.144
  C -19.728 -3.384 -14.904 1.440 -9.072 1.440
  C -3.168 1.440 1.656 -3.384 1.656 -9.144" stroke="none" fill="rgb(255,255,77)" />
<path d="
  M 1.656 -9.144
  C 1.656 -14.976 -3.168 -19.800 -9.072 -19.800
  C -14.904 -19.800 -19.728 -14.976 -19.728 -9.144
  C -19.728 -3.384 -14.904 1.440 -9.072 1.440
  C -3.168 1.440 1.656 -3.384 1.656 -9.144" stroke="none" fill="rgb(255,255,87)" />
<path d="
  M 0.720 -9.144
  C 0.720 -14.472 -3.744 -18.864 -9.072 -18.864
  C -14.328 -18.864 -18.792 -14.472 -18.792 -9.144
  C -18.792 -3.888 -14.328 0.504 -9.072 0.504
  C -3.744 0.504 0.720 -3.888 0.720 -9.144" stroke="none" fill="rgb(255,255,87)" />
<path d="
  M 0.720 -9.144
  C 0.720 -14.472 -3.744 -18.864 -9.072 -18.864
  C -14.328 -18.864 -18.792 -14.472 -18.792 -9.144
  C -18.792 -3.888 -14.328 0.504 -9.072 0.504
  C -3.744 0.504 0.720 -3.888 0.720 -9.144" stroke="none" fill="rgb(255,255,97)" />
<path d="
  M -0.144 -9.144
  C -0.144 -13.968 -4.248 -18.000 -9.072 -18.000
  C -13.824 -18.000 -17.928 -13.968 -17.928 -9.144
  C -17.928 -4.392 -13.824 -0.360 -9.072 -0.360
  C -4.248 -0.360 -0.144 -4.392 -0.144 -9.144" stroke="none" fill="rgb(255,255,97)" />
<path d="
  M -0.144 -9.144
  C -0.144 -13.968 -4.248 -18.000 -9.072 -18.000
  C -13.824 -18.000 -17.928 -13.968 -17.928 -9.144
  C -17.928 -4.392 -13.824 -0.360 -9.072 -0.360
  C -4.248 -0.360 -0.144 -4.392 -0.144 -9.144" stroke="none" fill="rgb(255,255,108)" />
<path d="
  M -1.008 -9.144
  C -1.008 -13.464 -4.680 -17.208 -9.072 -17.208
  C -13.392 -17.208 -17.064 -13.464 -17.064 -9.144
  C -17.064 -4.896 -13.392 -1.152 -9.072 -1.152
  C -4.680 -1.152 -1.008 -4.896 -1.008 -9.144" stroke="none" fill="rgb(255,255,108)" />
<path d="
  M -1.008 -9.144
  C -1.008 -13.464 -4.680 -17.208 -9.072 -17.208
  C -13.392 -17.208 -17.064 -13.464 -17.064 -9.144
  C -17.064 -4.896 -13.392 -1.152 -9.072 -1.152
  C -4.680 -1.152 -1.008 -4.896 -1.008 -9.144" stroke="none" fill="rgb(255,255,120)" />
<path d="
  M -1.944 -9.144
  C -1.944 -13.032 -5.184 -16.200 -9.072 -16.200
  C -12.888 -16.200 -16.128 -13.032 -16.128 -9.144
  C -16.128 -5.328 -12.888 -2.160 -9.072 -2.160
  C -5.184 -2.160 -1.944 -5.328 -1.944 -9.144" stroke="none" fill="rgb(255,255,120)" />
<path d="
  M -1.944 -9.144
  C -1.944 -13.032 -5.184 -16.200 -9.072 -16.200
  C -12.888 -16.200 -16.128 -13.032 -16.128 -9.144
  C -16.128 -5.328 -12.888 -2.160 -9.072 -2.160
  C -5.184 -2.160 -1.944 -5.328 -1.944 -9.144" stroke="none" fill="rgb(255,255,131)" />
<path d="
  M -2.808 -9.144
  C -2.808 -12.528 -5.616 -15.408 -9.072 -15.408
  C -12.456 -15.408 -15.264 -12.528 -15.264 -9.144
  C -15.264 -5.760 -12.456 -2.952 -9.072 -2.952
  C -5.616 -2.952 -2.808 -5.760 -2.808 -9.144" stroke="none" fill="rgb(255,255,131)" />
<path d="
  M -2.808 -9.144
  C -2.808 -12.528 -5.616 -15.408 -9.072 -15.408
  C -12.456 -15.408 -15.264 -12.528 -15.264 -9.144
  C -15.264 -5.760 -12.456 -2.952 -9.072 -2.952
  C -5.616 -2.952 -2.808 -5.760 -2.808 -9.144" stroke="none" fill="rgb(255,255,141)" />
<path d="
  M -3.744 -9.144
  C -3.744 -11.952 -6.192 -14.472 -9.072 -14.472
  C -11.880 -14.472 -14.328 -11.952 -14.328 -9.144
  C -14.328 -6.336 -11.880 -3.888 -9.072 -3.888
  C -6.192 -3.888 -3.744 -6.336 -3.744 -9.144" stroke="none" fill="rgb(255,255,141)" />
<path d="
  M -3.744 -9.144
  C -3.744 -11.952 -6.192 -14.472 -9.072 -14.472
  C -11.880 -14.472 -14.328 -11.952 -14.328 -9.144
  C -14.328 -6.336 -11.880 -3.888 -9.072 -3.888
  C -6.192 -3.888 -3.744 -6.336 -3.744 -9.144" stroke="none" fill="rgb(255,255,151)" />
<path d="
  M -4.608 -9.144
  C -4.608 -11.520 -6.696 -13.608 -9.072 -13.608
  C -11.376 -13.608 -13.464 -11.520 -13.464 -9.144
  C -13.464 -6.768 -11.376 -4.752 -9.072 -4.752
  C -6.696 -4.752 -4.608 -6.768 -4.608 -9.144" stroke="none" fill="rgb(255,255,151)" />
<path d="
  M -4.608 -9.144
  C -4.608 -11.520 -6.696 -13.608 -9.072 -13.608
  C -11.376 -13.608 -13.464 -11.520 -13.464 -9.144
  C -13.464 -6.768 -11.376 -4.752 -9.072 -4.752
  C -6.696 -4.752 -4.608 -6.768 -4.608 -9.144" stroke="none" fill="rgb(255,255,164)" />
<path d="
  M -5.544 -9.144
  C -5.544 -11.016 -7.128 -12.672 -9.072 -12.672
  C -10.944 -12.672 -12.528 -11.016 -12.528 -9.144
  C -12.528 -7.272 -10.944 -5.616 -9.072 -5.616
  C -7.128 -5.616 -5.544 -7.272 -5.544 -9.144" stroke="none" fill="rgb(255,255,164)" />
<path d="
  M -5.544 -9.144
  C -5.544 -11.016 -7.128 -12.672 -9.072 -12.672
  C -10.944 -12.672 -12.528 -11.016 -12.528 -9.144
  C -12.528 -7.272 -10.944 -5.616 -9.072 -5.616
  C -7.128 -5.616 -5.544 -7.272 -5.544 -9.144" stroke="none" fill="rgb(255,255,174)" />
<path d="
  M -6.408 -9.144
  C -6.408 -10.584 -7.632 -11.808 -9.072 -11.808
  C -10.440 -11.808 -11.664 -10.584 -11.664 -9.144
  C -11.664 -7.704 -10.440 -6.480 -9.072 -6.480
  C -7.632 -6.480 -6.408 -7.704 -6.408 -9.144" stroke="none" fill="rgb(255,255,174)" />
<path d="
  M -6.408 -9.144
  C -6.408 -10.584 -7.632 -11.808 -9.072 -11.808
  C -10.440 -11.808 -11.664 -10.584 -11.664 -9.144
  C -11.664 -7.704 -10.440 -6.480 -9.072 -6.480
  C -7.632 -6.480 -6.408 -7.704 -6.408 -9.144" stroke="none" fill="rgb(255,255,184)" />
<path d="
  M -7.344 -9.144
  C -7.344 -10.008 -8.208 -10.872 -9.072 -10.872
  C -9.864 -10.872 -10.728 -10.008 -10.728 -9.144
  C -10.728 -8.280 -9.864 -7.416 -9.072 -7.416
  C -8.208 -7.416 -7.344 -8.280 -7.344 -9.144" stroke="none" fill="rgb(255,255,184)" />
<path d="
  M -7.344 -9.144
  C -7.344 -10.008 -8.208 -10.872 -9.072 -10.872
  C -9.864 -10.872 -10.728 -10.008 -10.728 -9.144
  C -10.728 -8.280 -9.864 -7.416 -9.072 -7.416
  C -8.208 -7.416 -7.344 -8.280 -7.344 -9.144" stroke="none" fill="rgb(255,255,194)" />
<path d="
  M -8.208 -9.144
  C -8.208 -9.504 -8.640 -10.008 -9.072 -10.008
  C -9.432 -10.008 -9.864 -9.504 -9.864 -9.144
  C -9.864 -8.784 -9.432 -8.280 -9.072 -8.280
  C -8.640 -8.280 -8.208 -8.784 -8.208 -9.144" stroke="none" fill="rgb(255,255,194)" />
<path d="
  M -8.208 -9.144
  C -8.208 -9.504 -8.640 -10.008 -9.072 -10.008
  C -9.432 -10.008 -9.864 -9.504 -9.864 -9.144
  C -9.864 -8.784 -9.432 -8.280 -9.072 -8.280
  C -8.640 -8.280 -8.208 -8.784 -8.208 -9.144" stroke="none" fill="rgb(255,255,204)" />
</g>
<circle cx="-9.144" cy="-9.360" r="12.492" stroke="rgb(0,0,0)" stroke-width="0.504" fill="none" />
</g>
<g>
<path d="
  M -16.704 12.240
  C -16.344 12.456 -15.912 12.600 -15.552 12.600
  C -12.744 13.176 -10.440 13.680 -6.768 13.680
  C -3.456 13.248 -1.512 13.104 0.792 12.240
  L -16.704 12.240" stroke="none" fill="rgb(51,51,51)" />
<path d="
  M -16.704 12.240
  C -17.568 11.880 -18.360 11.304 -18.936 10.800
  L 3.816 10.800
  C 2.664 11.448 1.728 11.952 0.792 12.240
  L -16.704 12.240" stroke="none" fill="rgb(62,62,62)" />
<path d="
  M -30.384 10.800
  C -28.296 11.448 -26.352 11.304 -24.264 10.800
  L -30.384 10.800" stroke="none" fill="rgb(62,62,62)" />
<path d="
  M 11.376 10.800
  C 14.544 11.736 17.928 11.736 20.952 10.800
  L 11.376 10.800" stroke="none" fill="rgb(62,62,62)" />
<path d="
  M -30.384 10.800
  C -30.384 10.800 -30.384 10.800 -30.384 10.800
  C -31.464 10.512 -32.400 9.936 -33.048 9.432
  L 6.048 9.432
  C 5.256 9.936 4.464 10.440 3.816 10.800
  L -18.936 10.800
  C -19.368 10.512 -19.512 10.224 -19.512 9.936
  C -21.168 10.080 -22.752 10.512 -24.264 10.800
  L -30.384 10.800" stroke="none" fill="rgb(69,69,69)" />
<path d="
  M 11.376 10.800
  C 10.296 10.440 9.144 9.936 8.064 9.432
  L 24.192 9.432
  C 23.184 9.936 22.104 10.440 20.952 10.800
  L 11.376 10.800" stroke="none" fill="rgb(69,69,69)" />
<path d="
  M -33.048 9.432
  C -33.624 9.000 -33.984 8.568 -34.344 7.992
  L 26.208 7.992
  C 25.560 8.568 24.912 9.000 24.192 9.432
  L 8.064 9.432
  C 7.704 9.216 7.344 8.928 7.056 8.712
  C 6.696 9.000 6.264 9.216 6.048 9.432
  L -33.048 9.432" stroke="none" fill="rgb(77,77,77)" />
<path d="
  M -34.344 7.992
  C -34.632 7.488 -34.848 7.056 -34.920 6.552
  L 33.768 6.552
  C 31.248 7.632 29.448 7.704 26.496 7.704
  C 26.424 7.776 26.352 7.920 26.208 7.992
  L -34.344 7.992" stroke="none" fill="rgb(85,85,85)" />
<path d="
  M -34.920 6.552
  C -35.136 6.120 -35.208 5.544 -35.208 5.040
  L 34.632 5.040
  C 34.488 5.544 34.272 5.976 34.056 6.480
  C 33.984 6.480 33.912 6.552 33.768 6.552
  L -34.920 6.552" stroke="none" fill="rgb(92,92,92)" />
<path d="
  M -35.208 5.040
  C -35.208 4.608 -35.136 4.104 -35.064 3.672
  L 35.136 3.672
  C 34.920 4.104 34.848 4.608 34.632 5.040
  L -35.208 5.040" stroke="none" fill="rgb(100,100,100)" />
<path d="
  M -35.064 3.672
  C -34.848 3.168 -34.632 2.592 -34.344 2.232
  L 35.208 2.232
  C 35.208 2.664 35.208 3.168 35.136 3.672
  L -35.064 3.672" stroke="none" fill="rgb(108,108,108)" />
<path d="
  M -34.344 2.232
  C -34.200 1.728 -33.912 1.440 -33.552 1.080
  C -33.624 1.008 -33.696 0.864 -33.696 0.792
  L 35.064 0.792
  C 35.136 1.296 35.208 1.728 35.208 2.232
  L -34.344 2.232" stroke="none" fill="rgb(118,118,118)" />
<path d="
  M -33.696 0.792
  C -34.056 0.360 -34.200 -0.144 -34.272 -0.720
  L 33.984 -0.720
  C 34.488 -0.216 34.848 0.216 35.064 0.792
  L -33.696 0.792" stroke="none" fill="rgb(125,125,125)" />
<path d="
  M -34.272 -0.720
  C -34.272 -1.152 -34.272 -1.656 -34.056 -2.160
  L 24.840 -2.232
  C 24.912 -2.016 24.912 -1.944 24.984 -1.728
  C 26.928 -1.872 29.376 -2.376 31.032 -2.016
  C 32.400 -1.728 33.336 -1.296 33.984 -0.720
  L -34.272 -0.720" stroke="none" fill="rgb(133,133,133)" />
<path d="
  M -34.056 -2.160
  C -33.984 -2.592 -33.696 -3.096 -33.336 -3.528
  L 23.904 -3.672
  C 24.264 -3.240 24.552 -2.808 24.840 -2.232
  L -34.056 -2.160" stroke="none" fill="rgb(141,141,141)" />
<path d="
  M -33.336 -3.528
  C -33.048 -3.888 -32.760 -4.320 -32.256 -4.680
  C -32.184 -4.752 -32.040 -4.896 -31.824 -4.968
  L 14.040 -4.968
  C 14.040 -4.896 14.040 -4.896 14.040 -4.752
  C 14.544 -4.896 14.904 -4.896 15.336 -4.968
  L 20.952 -4.968
  C 22.104 -4.752 23.112 -4.392 23.904 -3.672
  L -33.336 -3.528" stroke="none" fill="rgb(148,148,148)" />
<path d="
  M -31.824 -4.968
  C -30.024 -6.048 -27.360 -5.832 -24.696 -5.832
  C -24.624 -6.048 -24.624 -6.192 -24.552 -6.336
  L 13.968 -6.336
  C 14.040 -5.832 14.040 -5.400 14.040 -4.968
  L -31.824 -4.968" stroke="none" fill="rgb(156,156,156)" />
<path d="
  M 15.336 -4.968
  C 17.424 -5.256 19.440 -5.328 20.952 -4.968
  L 15.336 -4.968" stroke="none" fill="rgb(156,156,156)" />
<path d="
  M -24.552 -6.336
  C -24.264 -6.912 -23.976 -7.344 -23.472 -7.848
  L 13.752 -7.848
  C 13.824 -7.344 13.968 -6.912 13.968 -6.336
  L -24.552 -6.336" stroke="none" fill="rgb(164,164,164)" />
<path d="
  M -23.472 -7.848
  C -23.040 -8.424 -22.464 -8.856 -21.816 -9.216
  L 13.392 -9.216
  C 13.608 -8.784 13.680 -8.280 13.752 -7.848
  L -23.472 -7.848" stroke="none" fill="rgb(174,174,174)" />
<path d="
  M -21.816 -9.216
  C -20.880 -9.792 -19.800 -10.296 -18.792 -10.656
  L -9.216 -10.656
  C -8.352 -10.368 -7.632 -10.008 -6.840 -9.504
  C -6.768 -9.936 -6.696 -10.368 -6.480 -10.656
  L 12.744 -10.656
  C 13.032 -10.152 13.176 -9.720 13.392 -9.216
  L -21.816 -9.216" stroke="none" fill="rgb(182,182,182)" />
<path d="
  M -18.792 -10.656
  C -15.768 -11.520 -12.240 -11.664 -9.216 -10.656
  L -18.792 -10.656" stroke="none" fill="rgb(189,189,189)" />
<path d="
  M -6.480 -10.656
  C -6.120 -11.232 -5.760 -11.664 -5.184 -12.096
  L 11.376 -12.096
  C 11.880 -11.664 12.312 -11.232 12.744 -10.656
  L -6.480 -10.656" stroke="none" fill="rgb(189,189,189)" />
<path d="
  M -5.184 -12.096
  C -4.248 -12.744 -3.096 -13.176 -1.872 -13.608
  L 8.352 -13.608
  C 9.576 -13.176 10.656 -12.744 11.376 -12.096
  L -5.184 -12.096" stroke="none" fill="rgb(197,197,197)" />
<path d="
  M -1.872 -13.608
  C 1.008 -14.328 4.464 -14.472 7.272 -13.896
  C 7.632 -13.752 7.992 -13.680 8.352 -13.608
  L -1.872 -13.608" stroke="none" fill="rgb(204,204,204)" />
</g>
<g>
<path d="
  M -14.688 9.432
  C -14.688 9.432 -14.688 9.504 -14.616 9.504
  C -11.232 10.368 -8.280 10.512 -5.760 9.432
  L -14.688 9.432" stroke="none" fill="rgb(179,179,179)" />
<path d="
  M -14.688 9.432
  C -15.192 9.000 -15.264 8.640 -15.120 8.280
  L -3.744 8.280
  C -4.392 8.712 -5.040 9.144 -5.760 9.432
  L -14.688 9.432" stroke="none" fill="rgb(182,182,182)" />
<path d="
  M -15.120 8.280
  C -14.904 7.776 -14.544 7.416 -14.040 7.056
  L -6.120 7.056
  C -5.544 7.488 -4.392 8.064 -3.744 8.280
  C -3.744 8.280 -3.744 8.280 -3.744 8.280
  L -15.120 8.280" stroke="none" fill="rgb(182,182,182)" />
<path d="
  M -31.752 7.056
  C -30.600 8.208 -28.800 7.920 -27.216 7.056
  L -31.752 7.056" stroke="none" fill="rgb(182,182,182)" />
<path d="
  M -4.608 7.056
  C -2.232 7.416 0.288 7.488 2.664 7.056
  L -4.608 7.056" stroke="none" fill="rgb(182,182,182)" />
<path d="
  M 20.448 7.056
  C 21.168 7.200 21.384 7.344 20.952 7.344
  C 21.816 7.488 22.536 7.416 23.184 7.056
  L 20.448 7.056" stroke="none" fill="rgb(182,182,182)" />
<path d="
  M -31.752 7.056
  C -32.040 6.768 -32.256 6.408 -32.472 5.904
  L -22.392 5.904
  C -22.968 6.408 -23.328 6.696 -24.192 5.976
  C -24.552 7.344 -27.864 5.832 -26.208 6.480
  C -26.496 6.696 -26.784 6.840 -27.216 7.056
  L -31.752 7.056" stroke="none" fill="rgb(184,184,184)" />
<path d="
  M -14.040 7.056
  C -13.464 6.696 -12.816 6.192 -12.240 5.904
  L 2.952 5.904
  C 3.240 6.192 3.528 6.408 3.888 6.696
  C 3.528 6.840 3.024 6.912 2.664 7.056
  L -4.608 7.056
  C -5.184 6.912 -5.832 6.768 -6.408 6.696
  C -6.264 6.768 -6.192 6.912 -6.120 7.056
  L -14.040 7.056" stroke="none" fill="rgb(184,184,184)" />
<path d="
  M 20.448 7.056
  C 19.512 6.768 17.640 6.408 16.776 5.904
  L 24.624 5.904
  C 24.192 6.408 23.688 6.768 23.184 7.056
  L 20.448 7.056" stroke="none" fill="rgb(184,184,184)" />
<path d="
  M -32.472 5.904
  C -32.472 5.904 -32.544 5.832 -32.544 5.688
  C -32.688 5.328 -32.760 4.968 -32.760 4.680
  L -19.800 4.680
  C -20.016 4.752 -20.088 4.896 -20.088 5.184
  C -21.312 5.184 -21.888 5.616 -22.392 5.904
  L -32.472 5.904" stroke="none" fill="rgb(184,184,184)" />
<path d="
  M -12.240 5.904
  C -11.592 5.400 -11.016 5.184 -10.944 4.968
  C -14.544 4.968 -16.128 6.696 -16.992 4.680
  L 1.944 4.752
  C 2.232 5.184 2.520 5.544 2.952 5.904
  L -12.240 5.904" stroke="none" fill="rgb(184,184,184)" />
<path d="
  M 16.776 5.904
  C 16.488 5.832 16.344 5.616 16.344 5.544
  C 14.328 5.544 13.752 5.256 13.392 4.680
  L 25.848 4.680
  C 25.488 5.040 24.984 5.544 24.624 5.904
  L 16.776 5.904" stroke="none" fill="rgb(184,184,184)" />
<path d="
  M 5.616 4.752
  C 7.272 5.616 9.216 5.976 11.304 4.752
  L 5.616 4.752" stroke="none" fill="rgb(184,184,184)" />
<path d="
  M -32.760 4.680
  C -32.688 4.320 -32.544 3.888 -32.472 3.528
  L 1.512 3.672
  C 1.656 4.032 1.728 4.392 1.944 4.752
  L -16.992 4.680
  C -17.064 4.464 -17.136 4.176 -17.280 3.888
  C -17.424 4.896 -19.224 4.176 -19.800 4.680
  L -32.760 4.680" stroke="none" fill="rgb(187,187,187)" />
<path d="
  M 5.616 4.752
  C 5.040 4.392 4.464 4.032 3.888 3.528
  L 11.016 3.528
  C 10.800 3.816 10.800 4.104 11.664 4.464
  C 11.592 4.608 11.376 4.680 11.304 4.752
  L 5.616 4.752" stroke="none" fill="rgb(187,187,187)" />
<path d="
  M 13.392 4.680
  C 13.320 4.392 13.176 4.032 13.032 3.528
  L 31.176 3.528
  C 29.232 4.032 29.448 3.528 27.216 3.528
  C 26.712 3.816 26.208 4.176 25.848 4.680
  L 13.392 4.680" stroke="none" fill="rgb(187,187,187)" />
<path d="
  M -32.472 3.528
  C -32.256 3.096 -32.112 2.664 -31.896 2.304
  L -29.016 2.304
  C -28.512 2.376 -28.008 2.376 -27.288 2.376
  C -27.288 2.376 -27.288 2.304 -27.360 2.304
  L 1.656 2.304
  C 1.512 2.808 1.512 3.240 1.512 3.672
  L -32.472 3.528" stroke="none" fill="rgb(187,187,187)" />
<path d="
  M 3.888 3.528
  C 3.456 3.168 2.880 2.664 2.520 2.304
  L 12.096 2.376
  C 11.808 2.952 11.304 3.240 11.016 3.528
  L 3.888 3.528" stroke="none" fill="rgb(187,187,187)" />
<path d="
  M 13.032 3.528
  C 12.888 3.168 12.816 2.808 12.600 2.304
  L 31.896 2.232
  C 31.896 2.592 31.752 3.096 31.536 3.456
  C 31.320 3.456 31.248 3.528 31.176 3.528
  L 13.032 3.528" stroke="none" fill="rgb(187,187,187)" />
<path d="
  M -31.896 2.304
  C -31.752 1.944 -31.536 1.584 -31.320 1.152
  L -30.384 1.152
  C -30.240 1.872 -29.808 2.232 -29.016 2.304
  L -31.896 2.304" stroke="none" fill="rgb(189,189,189)" />
<path d="
  M -27.360 2.304
  C -27.648 1.944 -27.864 1.584 -28.008 1.152
  L 31.608 1.152
  C 31.824 1.440 31.896 1.872 31.896 2.232
  L 12.600 2.304
  C 12.528 2.160 12.312 1.944 12.240 1.656
  C 12.240 1.944 12.168 2.232 12.096 2.376
  L 2.520 2.304
  C 2.232 2.016 2.016 1.872 1.800 1.656
  C 1.728 1.944 1.728 2.160 1.656 2.304
  L -27.360 2.304" stroke="none" fill="rgb(189,189,189)" />
<path d="
  M -31.320 1.152
  C -31.176 0.792 -30.960 0.360 -30.744 -0.072
  C -30.672 0.504 -30.600 0.864 -30.384 1.152
  L -31.320 1.152" stroke="none" fill="rgb(189,189,189)" />
<path d="
  M -28.008 1.152
  C -28.224 0.792 -28.296 0.360 -28.440 -0.072
  L 22.752 -0.072
  C 22.752 0.216 22.752 0.504 22.752 0.864
  C 23.112 0.504 23.472 0.144 23.976 -0.072
  L 30.384 -0.072
  C 30.960 0.216 31.464 0.648 31.608 1.152
  L -28.008 1.152" stroke="none" fill="rgb(189,189,189)" />
<path d="
  M -28.440 -0.072
  C -28.440 -0.432 -28.440 -0.792 -28.296 -1.152
  L 13.176 -1.152
  C 13.176 -0.792 13.176 -0.432 13.176 -0.072
  C 14.688 -0.504 15.336 -0.720 15.768 -1.152
  L 22.464 -1.152
  C 22.536 -0.864 22.680 -0.504 22.752 -0.072
  L -28.440 -0.072" stroke="none" fill="rgb(192,192,192)" />
<path d="
  M 23.976 -0.072
  C 25.920 -1.080 28.728 -1.008 30.384 -0.072
  L 23.976 -0.072" stroke="none" fill="rgb(192,192,192)" />
<path d="
  M -30.888 -1.152
  C -30.888 -1.152 -30.744 -1.080 -30.744 -1.008
  C -30.744 -1.080 -30.672 -1.080 -30.672 -1.152
  L -30.888 -1.152" stroke="none" fill="rgb(192,192,192)" />
<path d="
  M -30.888 -1.152
  C -31.032 -1.656 -31.176 -2.160 -31.248 -2.520
  L -28.872 -2.376
  C -29.664 -2.160 -30.240 -1.656 -30.672 -1.152
  L -30.888 -1.152" stroke="none" fill="rgb(192,192,192)" />
<path d="
  M -28.296 -1.152
  C -28.224 -1.656 -27.936 -2.016 -27.576 -2.376
  L 13.176 -2.376
  C 13.176 -2.016 13.176 -1.584 13.176 -1.152
  L -28.296 -1.152" stroke="none" fill="rgb(192,192,192)" />
<path d="
  M 15.768 -1.152
  C 16.056 -1.440 16.128 -1.872 16.128 -2.376
  L 21.600 -2.376
  C 21.960 -2.160 22.248 -1.728 22.464 -1.152
  L 15.768 -1.152" stroke="none" fill="rgb(192,192,192)" />
<path d="
  M -31.248 -2.520
  C -31.320 -2.952 -31.248 -3.384 -31.176 -3.672
  L 13.032 -3.528
  C 13.104 -3.168 13.176 -2.808 13.176 -2.376
  L -27.576 -2.376
  C -27.504 -2.592 -27.288 -2.808 -27.072 -2.880
  C -27.720 -2.808 -28.296 -2.592 -28.872 -2.376
  L -31.248 -2.520" stroke="none" fill="rgb(194,194,194)" />
<path d="
  M 16.128 -2.376
  C 16.128 -2.664 16.128 -2.880 16.128 -3.240
  C 18.864 -3.240 20.592 -3.168 21.600 -2.376
  L 16.128 -2.376" stroke="none" fill="rgb(194,194,194)" />
<path d="
  M -31.176 -3.672
  C -30.096 -5.760 -24.264 -4.032 -21.600 -4.032
  C -21.672 -4.176 -21.672 -4.464 -21.672 -4.752
  L 12.600 -4.752
  C 12.816 -4.392 12.888 -4.032 13.032 -3.528
  L -31.176 -3.672" stroke="none" fill="rgb(197,197,197)" />
<path d="
  M -21.672 -4.752
  C -21.600 -5.184 -21.600 -5.472 -21.384 -5.832
  L 11.376 -5.832
  C 11.952 -5.544 12.312 -5.256 12.600 -4.752
  L -21.672 -4.752" stroke="none" fill="rgb(197,197,197)" />
<path d="
  M -21.384 -5.832
  C -21.312 -6.192 -21.168 -6.696 -20.880 -7.056
  L 7.704 -7.056
  C 7.704 -6.984 7.632 -6.768 7.560 -6.624
  C 9.288 -6.624 10.584 -6.336 11.376 -5.832
  L -21.384 -5.832" stroke="none" fill="rgb(199,199,199)" />
<path d="
  M -20.880 -7.056
  C -20.592 -7.416 -20.160 -7.848 -19.728 -8.208
  L -6.552 -8.208
  C -6.408 -8.136 -6.120 -8.136 -5.904 -7.992
  C -5.904 -8.136 -5.904 -8.208 -5.904 -8.208
  L 7.632 -8.208
  C 7.704 -7.848 7.776 -7.560 7.704 -7.056
  L -20.880 -7.056" stroke="none" fill="rgb(199,199,199)" />
<path d="
  M -19.728 -8.208
  C -18.936 -8.784 -17.928 -9.144 -16.632 -9.432
  L -12.096 -9.432
  C -10.440 -9.216 -8.640 -8.856 -6.552 -8.208
  L -19.728 -8.208" stroke="none" fill="rgb(202,202,202)" />
<path d="
  M -5.904 -8.208
  C -5.904 -8.640 -5.760 -9.072 -5.544 -9.432
  L 7.056 -9.432
  C 7.272 -8.856 7.560 -8.496 7.632 -8.208
  L -5.904 -8.208" stroke="none" fill="rgb(202,202,202)" />
<path d="
  M -16.632 -9.432
  C -15.336 -9.648 -13.824 -9.720 -12.096 -9.432
  L -16.632 -9.432" stroke="none" fill="rgb(202,202,202)" />
<path d="
  M -5.544 -9.432
  C -5.256 -9.936 -4.896 -10.296 -4.320 -10.584
  L 6.408 -10.584
  C 6.696 -10.368 6.768 -10.296 6.840 -10.080
  C 6.984 -9.792 7.056 -9.648 7.056 -9.432
  L -5.544 -9.432" stroke="none" fill="rgb(202,202,202)" />
<path d="
  M -4.320 -10.584
  C -1.368 -12.384 4.752 -11.880 6.408 -10.584
  L -4.320 -10.584" stroke="none" fill="rgb(204,204,204)" />
</g>
<g>
<path d="
  M 1.368 26.064
  L 5.616 31.032" fill="none" stroke="rgb(180,180,180)" stroke-width="0.504" />
<path d="
  M 1.368 30.672
  L 4.752 25.848" fill="none" stroke="rgb(180,180,180)" stroke-width="0.504" />
<path d="
  M 1.008 28.152
  L 5.832 28.152" fill="none" stroke="rgb(180,180,180)" stroke-width="0.504" />
</g>
<g>
<path d="
  M 1.368 15.768
  L 5.544 20.736" fill="none" stroke="rgb(180,180,180)" stroke-width="0.504" />
<path d="
  M 1.368 20.376
  L 4.752 15.552" fill="none" stroke="rgb(180,180,180)" stroke-width="0.504" />
<path d="
  M 1.008 17.784
  L 5.688 17.784" fill="none" stroke="rgb(180,180,180)" stroke-width="0.504" />
</g>
<g>
<path d="
  M 10.944 18.792
  L 15.192 23.760" fill="none" stroke="rgb(180,180,180)" stroke-width="0.504" />
<path d="
  M 10.944 23.328
  L 14.328 18.576" fill="none" stroke="rgb(180,180,180)" stroke-width="0.504" />
<path d="
  M 10.584 20.736
  L 15.336 20.736" fill="none" stroke="rgb(180,180,180)" stroke-width="0.504" />
</g>
<g>
<path d="
  M -26.424 13.968
  L -22.248 18.936" fill="none" stroke="rgb(180,180,180)" stroke-width="0.504" />
<path d="
  M -26.424 18.576
  L -23.040 13.752" fill="none" stroke="rgb(180,180,180)" stroke-width="0.504" />
<path d="
  M -26.784 15.984
  L -22.104 15.984" fill="none" stroke="rgb(180,180,180)" stroke-width="0.504" />
</g>
<g>
<path d="
  M -21.816 27.072
  L -17.568 32.112" fill="none" stroke="rgb(180,180,180)" stroke-width="0.504" />
<path d="
  M -21.816 31.680
  L -18.360 26.856" fill="none" stroke="rgb(180,180,180)" stroke-width="0.504" />
<path d="
  M -22.176 29.160
  L -17.352 29.160" fill="none" stroke="rgb(180,180,180)" stroke-width="0.504" />
</g>
<g>
<path d="
  M -11.880 18.936
  L -7.632 23.976" fill="none" stroke="rgb(180,180,180)" stroke-width="0.504" />
<path d="
  M -11.880 23.616
  L -8.496 18.792" fill="none" stroke="rgb(180,180,180)" stroke-width="0.504" />
<path d="
  M -12.240 21.024
  L -7.416 21.024" fill="none" stroke="rgb(180,180,180)" stroke-width="0.504" />
</g>
<g>
<path d="
  M 21.960 27.360
  L 26.208 32.400" fill="none" stroke="rgb(180,180,180)" stroke-width="0.504" />
<path d="
  M 21.960 31.968
  L 25.416 27.144" fill="none" stroke="rgb(180,180,180)" stroke-width="0.504" />
<path d="
  M 21.600 29.448
  L 26.424 29.448" fill="none" stroke="rgb(180,180,180)" stroke-width="0.504" />
</g>
<g>
<path d="
  M 22.176 14.472
  L 26.424 19.512" fill="none" stroke="rgb(180,180,180)" stroke-width="0.504" />
<path d="
  M 22.176 19.008
  L 25.560 14.328" fill="none" stroke="rgb(180,180,180)" stroke-width="0.504" />
<path d="
  M 21.816 16.488
  L 26.640 16.488" fill="none" stroke="rgb(180,180,180)" stroke-width="0.504" />
</g>
</g>
</svg>
