<?xml version="1.0" encoding="ISO-8859-1"?><!DOCTYPE svg PUBLIC "-//W3C//DTD SVG 1.1//EN" "http://www.w3.org/Graphics/SVG/1.1/DTD/svg11.dtd"><svg version="1.1" baseProfile="full" width="100%" height="100%" viewBox="-43.200 -32.544 85.680 65.736" xmlns="http://www.w3.org/2000/svg" xmlns:xlink="http://www.w3.org/1999/xlink">
<g>
<g>
<path d="
  M -17.280 3.024
  C -12.672 1.440 -8.928 -2.232 -7.344 -6.768
  L -17.280 3.024" stroke="none" fill="rgb(255,255,34)" />
<path d="
  M -17.280 3.024
  C -18.504 3.384 -19.728 3.672 -21.024 3.744
  L -6.480 -10.368
  C -6.624 -9.072 -6.912 -7.920 -7.344 -6.768
  L -17.280 3.024" stroke="none" fill="rgb(255,255,44)" />
<path d="
  M -21.024 3.744
  C -21.456 3.816 -21.888 3.816 -22.392 3.816
  C -22.896 3.816 -23.400 3.816 -23.904 3.744
  L -6.480 -13.248
  C -6.408 -12.816 -6.408 -12.312 -6.408 -11.736
  C -6.408 -11.304 -6.408 -10.872 -6.480 -10.368
  L -21.024 3.744" stroke="none" fill="rgb(255,255,54)" />
<path d="
  M -23.904 3.744
  C -24.768 3.672 -25.632 3.528 -26.496 3.312
  L -6.840 -15.768
  C -6.624 -15.048 -6.480 -14.184 -6.480 -13.248
  L -23.904 3.744" stroke="none" fill="rgb(255,255,67)" />
<path d="
  M -26.496 3.312
  C -27.216 3.096 -27.936 2.880 -28.656 2.592
  L -22.392 -3.456
  C -18.720 -5.112 -15.768 -7.992 -14.112 -11.592
  L -7.416 -18.072
  C -7.200 -17.280 -6.984 -16.560 -6.840 -15.768
  L -26.496 3.312" stroke="none" fill="rgb(255,255,77)" />
<path d="
  M -28.656 2.592
  C -29.376 2.376 -29.952 2.088 -30.528 1.656
  L -26.568 -2.304
  C -25.128 -2.520 -23.760 -2.952 -22.392 -3.456
  L -28.656 2.592" stroke="none" fill="rgb(255,255,87)" />
<path d="
  M -14.112 -11.592
  C -13.464 -12.888 -13.032 -14.256 -12.744 -15.696
  L -8.352 -19.944
  C -7.920 -19.368 -7.704 -18.720 -7.416 -18.072
  L -14.112 -11.592" stroke="none" fill="rgb(255,255,87)" />
<path d="
  M -30.528 1.656
  C -31.176 1.296 -31.752 0.936 -32.328 0.432
  L -29.664 -2.088
  C -29.520 -2.088 -29.448 -2.088 -29.304 -2.088
  C -28.368 -2.088 -27.432 -2.232 -26.568 -2.304
  L -30.528 1.656" stroke="none" fill="rgb(255,255,97)" />
<path d="
  M -12.744 -15.696
  C -12.600 -16.632 -12.528 -17.496 -12.528 -18.432
  C -12.528 -18.576 -12.528 -18.720 -12.528 -18.864
  L -9.432 -21.672
  C -9.072 -21.168 -8.640 -20.592 -8.352 -19.944
  L -12.744 -15.696" stroke="none" fill="rgb(255,255,97)" />
<path d="
  M -32.328 0.432
  C -32.760 -0.000 -33.264 -0.504 -33.768 -1.080
  L -32.256 -2.448
  C -31.392 -2.304 -30.528 -2.088 -29.664 -2.088
  L -32.328 0.432" stroke="none" fill="rgb(255,255,108)" />
<path d="
  M -12.528 -18.864
  C -12.528 -19.728 -12.600 -20.664 -12.744 -21.456
  L -10.872 -23.256
  C -10.368 -22.752 -9.936 -22.248 -9.432 -21.672
  L -12.528 -18.864" stroke="none" fill="rgb(255,255,108)" />
<path d="
  M -33.768 -1.080
  C -34.200 -1.584 -34.560 -2.088 -34.992 -2.736
  L -34.560 -3.024
  C -33.840 -2.808 -33.048 -2.592 -32.256 -2.448
  L -33.768 -1.080" stroke="none" fill="rgb(255,255,120)" />
<path d="
  M -12.744 -21.456
  C -12.888 -22.248 -13.032 -22.968 -13.248 -23.760
  L -12.528 -24.480
  C -11.880 -24.120 -11.376 -23.688 -10.872 -23.256
  L -12.744 -21.456" stroke="none" fill="rgb(255,255,120)" />
<path d="
  M -34.992 -2.736
  C -35.064 -2.880 -35.208 -3.096 -35.280 -3.240
  C -35.064 -3.168 -34.776 -3.096 -34.560 -3.024
  L -34.992 -2.736" stroke="none" fill="rgb(255,255,131)" />
<path d="
  M -13.248 -23.760
  C -13.392 -24.264 -13.608 -24.768 -13.824 -25.272
  C -13.320 -25.056 -12.888 -24.840 -12.528 -24.480
  L -13.248 -23.760" stroke="none" fill="rgb(255,255,131)" />
</g>
<path d="
  M -35.280 -3.240
  C -33.264 -2.592 -31.392 -2.088 -29.304 -2.088
  C -20.160 -1.944 -12.600 -9.360 -12.528 -18.432
  C -12.528 -20.808 -12.960 -23.040 -13.824 -25.272
  C -8.712 -22.608 -6.336 -17.640 -6.408 -11.736
  C -6.480 -3.168 -13.608 3.888 -22.392 3.816
  C -27.936 3.744 -32.616 1.512 -35.280 -3.240" stroke="rgb(0,0,0)" stroke-width="0.504" fill="none" />
<g>
<path d="
  M -6.336 9.000
  C -6.048 9.288 -5.760 9.360 -5.472 9.432
  C -3.168 9.864 -1.368 10.152 1.512 10.152
  C 4.176 9.864 5.760 9.720 7.632 9.000
  L -6.336 9.000" stroke="none" fill="rgb(51,51,51)" />
<path d="
  M -6.336 9.000
  C -7.056 8.712 -7.776 8.280 -8.280 7.920
  L 10.008 7.992
  C 9.144 8.424 8.352 8.784 7.632 9.000
  L -6.336 9.000" stroke="none" fill="rgb(62,62,62)" />
<path d="
  M -17.352 7.920
  C -15.624 8.496 -13.968 8.280 -12.240 7.920
  L -17.352 7.920" stroke="none" fill="rgb(62,62,62)" />
<path d="
  M 16.128 7.920
  C 18.648 8.640 21.456 8.640 23.832 7.920
  L 16.128 7.920" stroke="none" fill="rgb(62,62,62)" />
<path d="
  M -17.352 7.920
  C -17.352 7.920 -17.352 7.920 -17.352 7.920
  C -18.288 7.704 -18.936 7.200 -19.584 6.768
  L 11.952 6.840
  C 11.232 7.272 10.584 7.704 10.008 7.992
  L -8.280 7.920
  C -8.496 7.704 -8.640 7.416 -8.640 7.272
  C -9.864 7.344 -11.088 7.704 -12.240 7.920
  L -17.352 7.920" stroke="none" fill="rgb(69,69,69)" />
<path d="
  M 16.128 7.920
  C 15.192 7.704 14.328 7.272 13.464 6.768
  L 26.568 6.768
  C 25.776 7.200 24.840 7.560 23.832 7.920
  L 16.128 7.920" stroke="none" fill="rgb(69,69,69)" />
<path d="
  M -19.584 6.768
  C -19.944 6.408 -20.304 5.976 -20.520 5.616
  L 28.080 5.616
  C 27.648 6.048 27.144 6.480 26.568 6.768
  L 13.464 6.768
  C 13.248 6.624 12.960 6.480 12.672 6.336
  C 12.384 6.480 12.168 6.696 11.952 6.840
  L -19.584 6.768" stroke="none" fill="rgb(77,77,77)" />
<path d="
  M -20.520 5.616
  C -20.736 5.256 -20.952 4.896 -21.024 4.464
  L 34.416 4.464
  C 34.416 4.464 34.416 4.464 34.416 4.464
  C 32.184 5.400 30.744 5.472 28.368 5.472
  C 28.224 5.544 28.152 5.544 28.080 5.616
  L -20.520 5.616" stroke="none" fill="rgb(85,85,85)" />
<path d="
  M -21.024 4.464
  C -21.168 4.104 -21.240 3.744 -21.240 3.240
  L 34.920 3.240
  C 34.776 3.672 34.560 4.104 34.416 4.464
  L -21.024 4.464" stroke="none" fill="rgb(92,92,92)" />
<path d="
  M -21.240 3.240
  C -21.240 2.880 -21.168 2.520 -21.096 2.160
  L 35.208 2.160
  C 35.136 2.520 34.992 2.880 34.920 3.240
  L -21.240 3.240" stroke="none" fill="rgb(100,100,100)" />
<path d="
  M -21.096 2.160
  C -20.952 1.728 -20.736 1.368 -20.520 1.008
  L 35.280 1.008
  C 35.280 1.368 35.280 1.728 35.208 2.160
  L -21.096 2.160" stroke="none" fill="rgb(108,108,108)" />
<path d="
  M -20.520 1.008
  C -20.376 0.720 -20.160 0.360 -19.872 0.144
  C -19.944 0.072 -20.016 -0.000 -20.088 -0.144
  L 35.136 -0.144
  C 35.208 0.216 35.280 0.576 35.280 1.008
  L -20.520 1.008" stroke="none" fill="rgb(118,118,118)" />
<path d="
  M -20.088 -0.144
  C -20.304 -0.504 -20.448 -0.936 -20.448 -1.368
  L 34.344 -1.368
  C 34.704 -1.008 34.992 -0.576 35.136 -0.144
  L -20.088 -0.144" stroke="none" fill="rgb(125,125,125)" />
<path d="
  M -20.448 -1.368
  C -20.448 -1.728 -20.376 -2.088 -20.304 -2.520
  L 27.000 -2.592
  C 27.000 -2.448 27.072 -2.304 27.144 -2.088
  C 28.656 -2.304 30.600 -2.664 31.968 -2.448
  C 33.048 -2.232 33.768 -1.800 34.344 -1.368
  L -20.448 -1.368" stroke="none" fill="rgb(133,133,133)" />
<path d="
  M -20.304 -2.520
  C -20.160 -2.880 -20.016 -3.240 -19.728 -3.672
  L 26.136 -3.744
  C 26.424 -3.384 26.712 -3.024 27.000 -2.592
  L -20.304 -2.520" stroke="none" fill="rgb(141,141,141)" />
<path d="
  M -19.728 -3.672
  C -19.512 -3.960 -19.224 -4.248 -18.864 -4.536
  C -18.792 -4.608 -18.648 -4.680 -18.504 -4.752
  L 18.288 -4.752
  C 18.288 -4.680 18.288 -4.680 18.288 -4.608
  C 18.864 -4.680 19.368 -4.752 19.800 -4.752
  L 23.832 -4.680
  C 24.768 -4.536 25.560 -4.248 26.136 -3.744
  L -19.728 -3.672" stroke="none" fill="rgb(148,148,148)" />
<path d="
  M -18.504 -4.752
  C -17.064 -5.544 -14.904 -5.472 -12.816 -5.472
  C -12.744 -5.616 -12.744 -5.760 -12.672 -5.832
  L 18.216 -5.832
  C 18.288 -5.472 18.288 -5.112 18.288 -4.752
  L -18.504 -4.752" stroke="none" fill="rgb(156,156,156)" />
<path d="
  M 19.800 -4.752
  C 21.384 -4.896 22.752 -4.896 23.832 -4.680
  L 19.800 -4.752" stroke="none" fill="rgb(156,156,156)" />
<path d="
  M -12.672 -5.832
  C -12.456 -6.264 -12.168 -6.696 -11.808 -7.056
  L 18.072 -7.056
  C 18.144 -6.696 18.216 -6.192 18.216 -5.832
  L -12.672 -5.832" stroke="none" fill="rgb(164,164,164)" />
<path d="
  M -11.808 -7.056
  C -11.448 -7.488 -11.016 -7.920 -10.440 -8.208
  L 17.784 -8.208
  C 17.928 -7.848 18.000 -7.416 18.072 -7.056
  L -11.808 -7.056" stroke="none" fill="rgb(174,174,174)" />
<path d="
  M -10.440 -8.208
  C -9.720 -8.640 -8.856 -9.000 -7.992 -9.360
  L -0.432 -9.360
  C 0.288 -9.072 0.864 -8.784 1.440 -8.424
  C 1.512 -8.712 1.584 -9.000 1.800 -9.360
  L 17.208 -9.360
  C 17.424 -9.000 17.640 -8.568 17.784 -8.208
  L -10.440 -8.208" stroke="none" fill="rgb(182,182,182)" />
<path d="
  M -7.992 -9.360
  C -5.616 -10.008 -2.808 -10.152 -0.432 -9.360
  L -7.992 -9.360" stroke="none" fill="rgb(189,189,189)" />
<path d="
  M 1.800 -9.360
  C 2.088 -9.792 2.376 -10.152 2.808 -10.440
  L 16.128 -10.440
  C 16.488 -10.152 16.848 -9.792 17.208 -9.360
  L 1.800 -9.360" stroke="none" fill="rgb(189,189,189)" />
<path d="
  M 2.808 -10.440
  C 3.600 -11.016 4.536 -11.376 5.472 -11.664
  L 13.464 -11.664
  C 14.544 -11.376 15.408 -11.016 16.128 -10.440
  L 2.808 -10.440" stroke="none" fill="rgb(197,197,197)" />
<path d="
  M 5.472 -11.664
  C 7.776 -12.312 10.584 -12.384 12.816 -11.808
  C 13.104 -11.736 13.248 -11.736 13.464 -11.664
  L 5.472 -11.664" stroke="none" fill="rgb(204,204,204)" />
</g>
<g>
<path d="
  M -4.680 6.768
  C -4.680 6.768 -4.680 6.840 -4.608 6.840
  C -1.872 7.488 0.432 7.704 2.448 6.768
  L -4.680 6.768" stroke="none" fill="rgb(179,179,179)" />
<path d="
  M -4.680 6.768
  C -5.040 6.480 -5.112 6.120 -4.968 5.832
  L 3.960 5.832
  C 3.528 6.192 2.952 6.552 2.448 6.768
  L -4.680 6.768" stroke="none" fill="rgb(182,182,182)" />
<path d="
  M -4.968 5.832
  C -4.824 5.544 -4.464 5.184 -4.104 4.896
  L 2.160 4.896
  C 2.592 5.328 3.528 5.760 3.960 5.832
  C 3.960 5.832 3.960 5.832 3.960 5.832
  L -4.968 5.832" stroke="none" fill="rgb(182,182,182)" />
<path d="
  M -18.432 4.968
  C -17.424 5.832 -15.912 5.616 -14.544 4.896
  L -18.432 4.968" stroke="none" fill="rgb(182,182,182)" />
<path d="
  M 3.312 4.896
  C 5.184 5.184 7.344 5.256 9.144 4.896
  L 3.312 4.896" stroke="none" fill="rgb(182,182,182)" />
<path d="
  M 23.544 4.896
  C 23.976 5.040 24.264 5.112 23.904 5.112
  C 24.624 5.256 25.128 5.184 25.704 4.896
  L 23.544 4.896" stroke="none" fill="rgb(182,182,182)" />
<path d="
  M -18.432 4.968
  C -18.648 4.680 -18.864 4.320 -19.008 3.960
  L -10.872 3.960
  C -11.376 4.320 -11.592 4.536 -12.312 4.032
  C -12.600 5.184 -15.336 3.960 -13.968 4.464
  C -14.184 4.608 -14.328 4.680 -14.544 4.896
  L -18.432 4.968" stroke="none" fill="rgb(184,184,184)" />
<path d="
  M -4.104 4.896
  C -3.600 4.464 -3.168 4.176 -2.736 3.960
  L 9.360 3.960
  C 9.576 4.176 9.792 4.320 10.152 4.536
  C 9.792 4.680 9.504 4.752 9.144 4.896
  L 3.312 4.896
  C 2.808 4.752 2.304 4.608 1.872 4.536
  C 1.944 4.608 2.016 4.752 2.160 4.896
  L -4.104 4.896" stroke="none" fill="rgb(184,184,184)" />
<path d="
  M 23.544 4.896
  C 22.752 4.680 21.168 4.320 20.520 3.960
  L 26.784 3.960
  C 26.424 4.320 26.064 4.608 25.704 4.896
  L 23.544 4.896" stroke="none" fill="rgb(184,184,184)" />
<path d="
  M -19.008 3.960
  C -19.008 3.960 -19.080 3.888 -19.080 3.816
  C -19.152 3.528 -19.224 3.240 -19.152 2.952
  L -8.856 2.952
  C -9.000 3.024 -9.072 3.096 -9.072 3.312
  C -10.080 3.312 -10.512 3.744 -10.872 3.960
  L -19.008 3.960" stroke="none" fill="rgb(184,184,184)" />
<path d="
  M -2.736 3.960
  C -2.160 3.600 -1.728 3.312 -1.656 3.168
  C -4.608 3.168 -5.976 4.536 -6.552 2.952
  L 8.568 3.024
  C 8.784 3.312 9.000 3.672 9.360 3.960
  L -2.736 3.960" stroke="none" fill="rgb(184,184,184)" />
<path d="
  M 20.520 3.960
  C 20.376 3.888 20.232 3.744 20.232 3.672
  C 18.648 3.672 18.072 3.384 17.856 2.952
  L 27.792 2.952
  C 27.504 3.240 27.216 3.672 26.784 3.960
  L 20.520 3.960" stroke="none" fill="rgb(184,184,184)" />
<path d="
  M 11.376 2.952
  C 12.744 3.816 14.472 4.104 16.200 3.024
  L 11.376 2.952" stroke="none" fill="rgb(184,184,184)" />
<path d="
  M -19.152 2.952
  C -19.152 2.664 -19.080 2.376 -19.008 2.088
  L 8.280 2.160
  C 8.352 2.448 8.424 2.736 8.568 3.024
  L -6.552 2.952
  C -6.624 2.808 -6.624 2.664 -6.696 2.448
  C -6.984 3.168 -8.424 2.592 -8.856 2.952
  L -19.152 2.952" stroke="none" fill="rgb(187,187,187)" />
<path d="
  M 11.376 2.952
  C 10.944 2.736 10.512 2.448 10.152 2.088
  L 16.056 2.088
  C 15.840 2.304 15.840 2.520 16.488 2.808
  C 16.416 2.880 16.344 2.952 16.200 3.024
  L 11.376 2.952" stroke="none" fill="rgb(187,187,187)" />
<path d="
  M 17.856 2.952
  C 17.712 2.736 17.640 2.448 17.568 2.088
  L 32.040 2.088
  C 30.600 2.520 30.744 2.160 28.872 2.160
  C 28.512 2.376 28.152 2.664 27.792 2.952
  L 17.856 2.952" stroke="none" fill="rgb(187,187,187)" />
<path d="
  M -19.008 2.088
  C -18.864 1.728 -18.720 1.368 -18.504 1.080
  L -16.632 1.080
  C -16.200 1.152 -15.696 1.224 -14.760 1.224
  C -14.832 1.152 -14.832 1.152 -14.904 1.080
  L 8.352 1.080
  C 8.280 1.440 8.280 1.800 8.280 2.160
  L -19.008 2.088" stroke="none" fill="rgb(187,187,187)" />
<path d="
  M 10.152 2.088
  C 9.720 1.728 9.360 1.368 9.072 1.080
  L 16.776 1.152
  C 16.560 1.584 16.200 1.800 16.056 2.088
  L 10.152 2.088" stroke="none" fill="rgb(187,187,187)" />
<path d="
  M 17.568 2.088
  C 17.496 1.728 17.352 1.440 17.208 1.080
  L 32.688 1.080
  C 32.688 1.296 32.472 1.656 32.328 1.944
  C 32.256 2.088 32.112 2.088 32.040 2.088
  L 17.568 2.088" stroke="none" fill="rgb(187,187,187)" />
<path d="
  M -18.504 1.080
  C -18.360 0.792 -18.216 0.432 -18.072 0.144
  L -17.352 0.144
  C -17.208 0.576 -16.992 0.864 -16.632 1.080
  L -18.504 1.080" stroke="none" fill="rgb(189,189,189)" />
<path d="
  M -14.904 1.080
  C -15.120 0.792 -15.336 0.432 -15.480 0.144
  L 32.400 0.144
  C 32.616 0.360 32.688 0.720 32.688 1.080
  L 17.208 1.080
  C 17.136 0.936 16.992 0.792 16.848 0.504
  C 16.848 0.792 16.776 0.936 16.776 1.152
  L 9.072 1.080
  C 8.856 0.864 8.712 0.720 8.496 0.504
  C 8.424 0.792 8.424 0.936 8.352 1.080
  L -14.904 1.080" stroke="none" fill="rgb(189,189,189)" />
<path d="
  M -18.072 0.144
  C -17.856 -0.144 -17.712 -0.504 -17.568 -0.864
  C -17.496 -0.432 -17.424 -0.072 -17.352 0.144
  L -18.072 0.144" stroke="none" fill="rgb(189,189,189)" />
<path d="
  M -15.480 0.144
  C -15.624 -0.144 -15.696 -0.432 -15.696 -0.864
  L 25.344 -0.864
  C 25.344 -0.576 25.344 -0.360 25.344 -0.072
  C 25.704 -0.360 25.992 -0.648 26.352 -0.864
  L 31.464 -0.864
  C 31.896 -0.576 32.256 -0.216 32.400 0.144
  L -15.480 0.144" stroke="none" fill="rgb(189,189,189)" />
<path d="
  M -15.696 -0.864
  C -15.696 -1.152 -15.696 -1.440 -15.624 -1.728
  L 17.640 -1.728
  C 17.640 -1.440 17.640 -1.152 17.640 -0.864
  C 18.936 -1.224 19.512 -1.440 19.728 -1.728
  L 25.128 -1.728
  C 25.200 -1.512 25.272 -1.224 25.344 -0.864
  L -15.696 -0.864" stroke="none" fill="rgb(192,192,192)" />
<path d="
  M 26.352 -0.864
  C 27.864 -1.656 30.168 -1.584 31.464 -0.864
  L 26.352 -0.864" stroke="none" fill="rgb(192,192,192)" />
<path d="
  M -17.640 -1.728
  C -17.640 -1.728 -17.568 -1.656 -17.568 -1.584
  C -17.568 -1.656 -17.496 -1.656 -17.496 -1.728
  L -17.640 -1.728" stroke="none" fill="rgb(192,192,192)" />
<path d="
  M -17.640 -1.728
  C -17.784 -2.088 -17.928 -2.520 -17.928 -2.808
  L -15.984 -2.736
  C -16.704 -2.592 -17.208 -2.232 -17.496 -1.728
  L -17.640 -1.728" stroke="none" fill="rgb(192,192,192)" />
<path d="
  M -15.624 -1.728
  C -15.552 -2.088 -15.336 -2.520 -14.976 -2.736
  L 17.640 -2.736
  C 17.640 -2.448 17.640 -2.016 17.640 -1.728
  L -15.624 -1.728" stroke="none" fill="rgb(192,192,192)" />
<path d="
  M 19.728 -1.728
  C 19.944 -1.944 20.016 -2.304 20.016 -2.736
  L 24.480 -2.736
  C 24.768 -2.520 24.984 -2.232 25.128 -1.728
  L 19.728 -1.728" stroke="none" fill="rgb(192,192,192)" />
<path d="
  M -17.928 -2.808
  C -18.072 -3.096 -18.072 -3.384 -17.856 -3.672
  L 17.568 -3.672
  C 17.568 -3.312 17.640 -3.024 17.640 -2.736
  L -14.976 -2.736
  C -14.904 -2.880 -14.832 -2.952 -14.688 -3.024
  C -15.120 -3.024 -15.624 -2.880 -15.984 -2.736
  L -17.928 -2.808" stroke="none" fill="rgb(194,194,194)" />
<path d="
  M 20.016 -2.736
  C 20.016 -2.880 20.016 -3.096 20.016 -3.312
  C 22.176 -3.312 23.616 -3.240 24.480 -2.736
  L 20.016 -2.736" stroke="none" fill="rgb(194,194,194)" />
<path d="
  M -17.856 -3.672
  C -17.136 -5.328 -12.456 -3.960 -10.224 -3.960
  C -10.296 -4.176 -10.296 -4.392 -10.296 -4.608
  L 17.208 -4.608
  C 17.352 -4.320 17.496 -4.032 17.568 -3.672
  L -17.856 -3.672" stroke="none" fill="rgb(197,197,197)" />
<path d="
  M -10.296 -4.608
  C -10.296 -4.896 -10.224 -5.184 -10.152 -5.472
  L 16.200 -5.472
  C 16.632 -5.256 16.920 -4.968 17.208 -4.608
  L -10.296 -4.608" stroke="none" fill="rgb(197,197,197)" />
<path d="
  M -10.152 -5.472
  C -10.008 -5.760 -9.864 -6.120 -9.504 -6.480
  L 13.248 -6.480
  C 13.248 -6.264 13.176 -6.192 13.104 -6.048
  C 14.544 -6.048 15.480 -5.832 16.200 -5.472
  L -10.152 -5.472" stroke="none" fill="rgb(199,199,199)" />
<path d="
  M -9.504 -6.480
  C -9.288 -6.768 -9.000 -7.128 -8.640 -7.344
  L 1.800 -7.344
  C 1.944 -7.272 2.160 -7.272 2.304 -7.200
  C 2.304 -7.272 2.304 -7.344 2.304 -7.344
  L 13.176 -7.344
  C 13.248 -7.056 13.320 -6.768 13.248 -6.480
  L -9.504 -6.480" stroke="none" fill="rgb(199,199,199)" />
<path d="
  M -8.640 -7.344
  C -7.920 -7.848 -6.984 -8.208 -5.688 -8.352
  L -3.096 -8.352
  C -1.656 -8.280 -0.144 -7.992 1.800 -7.344
  L -8.640 -7.344" stroke="none" fill="rgb(202,202,202)" />
<path d="
  M 2.304 -7.344
  C 2.304 -7.704 2.448 -8.064 2.592 -8.352
  L 12.672 -8.352
  C 12.816 -7.920 13.032 -7.632 13.176 -7.344
  L 2.304 -7.344" stroke="none" fill="rgb(202,202,202)" />
<path d="
  M -5.688 -8.352
  C -4.896 -8.424 -4.104 -8.496 -3.096 -8.352
  L -5.688 -8.352" stroke="none" fill="rgb(202,202,202)" />
<path d="
  M 2.592 -8.352
  C 2.808 -8.712 3.168 -9.000 3.600 -9.288
  L 12.168 -9.288
  C 12.384 -9.072 12.456 -9.000 12.528 -8.856
  C 12.600 -8.640 12.672 -8.496 12.672 -8.352
  L 2.592 -8.352" stroke="none" fill="rgb(202,202,202)" />
<path d="
  M 3.600 -9.288
  C 5.904 -10.728 10.800 -10.296 12.168 -9.288
  L 3.600 -9.288" stroke="none" fill="rgb(204,204,204)" />
</g>
<g>
<g>
<path d="
  M 8.064 20.232
  L 11.520 24.264" fill="none" stroke="rgb(180,180,180)" stroke-width="0.504" />
<path d="
  M 8.064 23.904
  L 10.800 20.088" fill="none" stroke="rgb(180,180,180)" stroke-width="0.504" />
<path d="
  M 7.776 21.888
  L 11.664 21.888" fill="none" stroke="rgb(180,180,180)" stroke-width="0.504" />
</g>
<g>
<path d="
  M 8.064 12.024
  L 11.376 15.984" fill="none" stroke="rgb(180,180,180)" stroke-width="0.504" />
<path d="
  M 8.064 15.624
  L 10.800 11.808" fill="none" stroke="rgb(180,180,180)" stroke-width="0.504" />
<path d="
  M 7.776 13.608
  L 11.592 13.608" fill="none" stroke="rgb(180,180,180)" stroke-width="0.504" />
</g>
<g>
<path d="
  M 15.840 14.328
  L 19.224 18.360" fill="none" stroke="rgb(180,180,180)" stroke-width="0.504" />
<path d="
  M 15.840 18.072
  L 18.576 14.184" fill="none" stroke="rgb(180,180,180)" stroke-width="0.504" />
<path d="
  M 15.480 15.984
  L 19.368 15.984" fill="none" stroke="rgb(180,180,180)" stroke-width="0.504" />
</g>
<g>
<path d="
  M -14.184 10.584
  L -10.800 14.544" fill="none" stroke="rgb(180,180,180)" stroke-width="0.504" />
<path d="
  M -14.184 14.184
  L -11.448 10.368" fill="none" stroke="rgb(180,180,180)" stroke-width="0.504" />
<path d="
  M -14.472 12.168
  L -10.656 12.168" fill="none" stroke="rgb(180,180,180)" stroke-width="0.504" />
</g>
<g>
<path d="
  M -10.440 21.096
  L -7.056 25.128" fill="none" stroke="rgb(180,180,180)" stroke-width="0.504" />
<path d="
  M -10.440 24.768
  L -7.704 20.952" fill="none" stroke="rgb(180,180,180)" stroke-width="0.504" />
<path d="
  M -10.728 22.680
  L -6.912 22.680" fill="none" stroke="rgb(180,180,180)" stroke-width="0.504" />
</g>
<g>
<path d="
  M -2.448 14.544
  L 0.864 18.576" fill="none" stroke="rgb(180,180,180)" stroke-width="0.504" />
<path d="
  M -2.448 18.216
  L 0.144 14.400" fill="none" stroke="rgb(180,180,180)" stroke-width="0.504" />
<path d="
  M -2.808 16.200
  L 1.008 16.200" fill="none" stroke="rgb(180,180,180)" stroke-width="0.504" />
</g>
<g>
<path d="
  M 24.696 21.312
  L 28.080 25.344" fill="none" stroke="rgb(180,180,180)" stroke-width="0.504" />
<path d="
  M 24.696 24.984
  L 27.432 21.168" fill="none" stroke="rgb(180,180,180)" stroke-width="0.504" />
<path d="
  M 24.408 22.896
  L 28.224 22.896" fill="none" stroke="rgb(180,180,180)" stroke-width="0.504" />
</g>
<g>
<path d="
  M 24.840 10.944
  L 28.224 14.976" fill="none" stroke="rgb(180,180,180)" stroke-width="0.504" />
<path d="
  M 24.840 14.616
  L 27.576 10.800" fill="none" stroke="rgb(180,180,180)" stroke-width="0.504" />
<path d="
  M 24.552 12.600
  L 28.440 12.600" fill="none" stroke="rgb(180,180,180)" stroke-width="0.504" />
</g>
</g>
</g>
</svg>
