<?xml version="1.0" encoding="ISO-8859-1"?><!DOCTYPE svg PUBLIC "-//W3C//DTD SVG 1.1//EN" "http://www.w3.org/Graphics/SVG/1.1/DTD/svg11.dtd"><svg version="1.1" baseProfile="full" width="100%" height="100%" viewBox="-43.128 -33.624 86.328 67.464" xmlns="http://www.w3.org/2000/svg" xmlns:xlink="http://www.w3.org/1999/xlink">
<g>
<path d="
  M -9.144 -20.880
  C -3.312 -26.352 4.536 -25.200 7.992 -19.080
  C 11.376 -12.456 14.976 -16.632 20.232 -16.704
  C 20.808 -14.544 19.944 -6.840 19.224 -1.728
  C 9.432 0.504 9.648 -1.656 5.256 -3.600
  C 1.224 -7.560 -4.464 -7.992 -8.352 -4.680
  C -8.280 -5.688 -8.568 -16.632 -9.144 -20.880" stroke="rgb(0,0,0)" stroke-width="0.216" fill="rgb(255,255,255)" />
<path d="
  M -35.928 4.320
  L -35.928 -2.736
  C -35.928 -9.144 -25.992 -7.992 -23.688 -7.992
  C -19.224 -7.992 -19.008 -8.208 -17.208 -7.704
  C -15.624 -7.416 -14.832 -6.912 -13.248 -6.048
  C -12.456 -5.616 -11.664 -7.416 -11.016 -7.344
  C -10.440 -7.200 -9.432 -6.696 -9.000 -5.976
  C -8.064 -11.088 3.888 -14.256 11.016 -12.672
  C 11.232 -12.672 11.952 -12.744 12.096 -12.672
  C 16.416 -11.448 28.944 -9.000 30.744 -7.992
  C 36.000 -4.752 34.848 9.288 34.848 4.032
  L 34.776 14.616
  L 34.776 26.352
  L 18.576 26.352
  L -3.096 26.352
  L -17.640 26.352
  L -23.328 26.352
  L -35.928 26.352
  L -35.928 4.320" stroke="none" fill="rgb(230,230,230)" />
<g>
<path d="
  M -10.944 -23.472
  L -10.944 -23.472
  C -10.440 -23.472 -10.080 -22.896 -10.080 -22.176
  L -10.080 24.192
  C -10.080 24.912 -10.440 25.488 -10.944 25.488
  L -10.944 25.488
  C -11.520 25.488 -11.880 24.912 -11.880 24.192
  L -11.880 -22.176
  C -11.880 -22.896 -11.520 -23.472 -10.944 -23.472" stroke="none" fill="rgb(102,102,102)" />
<ellipse cx="-11.016" cy="-24.048" rx="1.620" ry="1.548" transform="rotate(-0.000)" stroke="none" fill="rgb(102,102,102)" />
</g>
<path d="
  M -10.872 -7.272
  L -10.872 -7.272
  C -10.368 -7.272 -9.864 -6.912 -9.864 -6.408
  L -9.864 25.488
  C -9.864 26.064 -10.368 26.424 -10.872 26.424
  L -10.872 26.424
  C -11.520 26.424 -11.952 26.064 -11.952 25.488
  L -11.952 -6.408
  C -11.952 -6.912 -11.520 -7.272 -10.872 -7.272" stroke="none" fill="rgb(153,153,153)" />
<path d="
  M -8.352 -4.680
  C -6.552 -6.336 -3.960 -6.984 -1.152 -6.912
  L -1.440 -24.408
  C -5.328 -24.120 -6.336 -22.968 -9.216 -20.880
  C -8.640 -15.336 -8.496 -10.440 -8.352 -4.680" stroke="rgb(0,0,0)" stroke-width="0.216" fill="rgb(255,0,0)" />
<path d="
  M 20.232 -16.704
  C 20.736 -13.968 19.872 -6.696 19.224 -1.728
  C 16.632 -1.152 13.968 -0.792 11.304 -0.792
  L 11.952 -15.408
  C 14.400 -14.904 18.288 -17.064 20.232 -16.704" stroke="rgb(0,0,0)" stroke-width="0.216" fill="rgb(255,0,0)" />
<path d="
  M 5.112 -5.688
  L 5.472 -8.640
  L 6.480 -8.208
  L 7.848 -7.200
  L 7.776 -8.352
  L 7.776 -9.216
  L 10.368 -10.368
  L 8.928 -11.304
  L 10.944 -12.384
  L 9.504 -12.672
  L 9.360 -13.536
  L 7.560 -12.888
  L 7.128 -13.248
  L 7.272 -14.256
  L 7.920 -15.336
  L 8.784 -16.344
  L 7.344 -16.416
  L 6.984 -18.864
  L 5.760 -17.208
  L 4.176 -18.360
  L 4.968 -16.344
  L 5.112 -14.040
  L 4.824 -13.608
  L 4.320 -14.040
  L 3.528 -15.264
  L 2.952 -16.416
  L 2.592 -14.832
  L 1.008 -15.624
  L 1.656 -13.968
  L 0.432 -13.320
  L 2.376 -12.096
  L 3.600 -11.448
  L 2.160 -10.224
  L 3.024 -10.440
  L 3.312 -9.576
  L 4.680 -9.000
  L 4.536 -6.120
  L 5.112 -5.688" stroke="rgb(0,0,0)" stroke-width="0.216" fill="rgb(255,0,0)" />
<path d="
  M 11.880 -12.744
  C 11.520 -10.800 11.376 -8.352 11.376 -6.480
  C 11.304 -4.608 11.304 -2.304 11.304 -0.648
  C 13.104 -0.288 14.256 -0.864 15.840 -1.008
  C 16.128 -1.296 17.568 -1.224 18.144 -1.224
  C 18.360 -1.440 19.224 -1.584 19.512 -1.584
  C 19.512 -3.168 19.800 -5.544 20.088 -7.056
  C 20.376 -8.064 20.304 -9.720 20.304 -10.800
  C 19.944 -10.800 18.864 -11.016 18.720 -11.160
  C 16.416 -11.160 14.040 -12.528 11.880 -12.744" stroke="none" fill="rgb(255,141,146)" />
<path d="
  M 11.880 -12.744
  L 11.592 -11.160
  L 11.520 -9.576
  L 11.376 -7.992
  L 11.376 -6.480
  L 11.376 -6.480
  L 11.304 -4.968
  L 11.304 -3.528
  L 11.304 -2.016
  L 11.304 -0.648
  L 11.304 -0.648
  L 11.952 -0.504
  L 12.528 -0.504
  L 13.104 -0.504
  L 13.608 -0.648
  L 14.184 -0.720
  L 14.688 -0.864
  L 15.192 -0.936
  L 15.840 -1.008
  L 15.840 -1.008
  L 15.984 -1.080
  L 16.200 -1.152
  L 16.488 -1.224
  L 16.920 -1.224
  L 17.208 -1.224
  L 17.568 -1.224
  L 17.928 -1.224
  L 18.144 -1.224
  L 18.144 -1.224
  L 18.432 -1.368
  L 18.792 -1.512
  L 19.224 -1.584
  L 19.512 -1.584
  L 19.512 -1.584
  L 19.584 -2.880
  L 19.728 -4.320
  L 19.872 -5.760
  L 20.088 -7.056
  L 20.088 -7.056
  L 20.304 -7.920
  L 20.304 -8.856
  L 20.304 -9.864
  L 20.304 -10.800
  L 20.304 -10.800
  L 19.872 -10.872
  L 19.440 -10.944
  L 19.008 -11.016
  L 18.720 -11.160
  L 18.720 -11.160
  L 17.928 -11.232
  L 16.992 -11.448
  L 16.128 -11.664
  L 15.264 -11.880
  L 14.400 -12.168
  L 13.536 -12.384
  L 12.672 -12.672
  L 11.880 -12.744
  L 11.880 -12.744" stroke="none" fill="rgb(230,230,230)" />
<path d="
  M -1.152 -12.168
  C -1.656 -12.024 -3.024 -11.160 -3.600 -11.160
  C -3.960 -10.728 -5.184 -10.368 -5.616 -10.080
  C -6.624 -9.720 -7.704 -8.064 -8.352 -7.344
  C -8.496 -7.344 -8.280 -7.344 -8.424 -7.344
  L -8.352 -4.392
  C -8.208 -4.392 -7.632 -4.752 -7.416 -4.824
  C -7.416 -5.112 -6.984 -5.112 -6.768 -5.400
  C -6.696 -5.112 -7.560 -5.256 -7.776 -5.040
  C -7.920 -5.040 -8.136 -4.968 -8.208 -4.896
  C -7.416 -5.184 -6.912 -5.688 -5.976 -5.688
  C -4.464 -6.912 -2.376 -6.336 -1.008 -6.912
  L -1.008 -7.056
  C -0.936 -7.344 -0.576 -7.920 -0.576 -8.208
  C -0.720 -8.208 -1.080 -8.640 -1.152 -8.640
  L -1.152 -12.096
  L -1.152 -12.168" stroke="none" fill="rgb(255,141,146)" />
<path d="
  M -1.152 -12.168
  L -1.368 -12.096
  L -1.656 -11.952
  L -1.944 -11.808
  L -2.304 -11.664
  L -2.736 -11.520
  L -3.024 -11.304
  L -3.384 -11.160
  L -3.600 -11.160
  L -3.600 -11.160
  L -4.032 -10.872
  L -4.536 -10.584
  L -5.184 -10.368
  L -5.616 -10.080
  L -5.616 -10.080
  L -5.976 -9.864
  L -6.408 -9.648
  L -6.768 -9.288
  L -7.056 -8.856
  L -7.416 -8.424
  L -7.776 -8.064
  L -8.064 -7.632
  L -8.352 -7.344
  L -8.352 -7.344
  L -8.424 -7.344
  L -8.352 -7.344
  L -8.352 -7.344
  L -8.424 -7.344
  L -8.352 -4.392
  L -8.352 -4.392
  L -8.208 -4.464
  L -7.920 -4.608
  L -7.632 -4.752
  L -7.416 -4.824
  L -7.416 -4.824
  L -7.344 -4.968
  L -7.200 -5.112
  L -6.984 -5.184
  L -6.768 -5.400
  L -6.768 -5.400
  L -6.840 -5.256
  L -7.128 -5.184
  L -7.560 -5.112
  L -7.776 -5.040
  L -7.776 -5.040
  L -7.920 -5.040
  L -7.992 -4.968
  L -8.136 -4.968
  L -8.208 -4.896
  L -8.208 -4.896
  L -7.704 -5.112
  L -7.128 -5.472
  L -6.624 -5.616
  L -5.976 -5.688
  L -5.976 -5.688
  L -5.400 -6.048
  L -4.752 -6.264
  L -4.104 -6.408
  L -3.456 -6.480
  L -2.808 -6.624
  L -2.160 -6.696
  L -1.512 -6.768
  L -1.008 -6.912
  L -1.008 -7.056
  L -1.008 -7.056
  L -0.936 -7.272
  L -0.792 -7.632
  L -0.648 -7.992
  L -0.576 -8.208
  L -0.576 -8.208
  L -0.720 -8.280
  L -0.864 -8.424
  L -1.080 -8.568
  L -1.152 -8.640
  L -1.152 -12.096
  L -1.152 -12.168
  L -1.152 -12.168" stroke="none" fill="rgb(230,230,230)" />
<path d="
  M 0.792 -12.816
  C 1.872 -12.528 3.312 -13.104 4.248 -13.248
  C 5.328 -13.464 6.984 -13.176 8.136 -13.176
  L 8.280 -12.960
  C 8.784 -12.960 9.216 -12.888 9.792 -12.888
  C 9.792 -12.816 9.864 -12.744 9.864 -12.528
  C 10.152 -12.528 11.160 -12.528 11.376 -12.384
  C 11.160 -12.168 10.368 -11.736 10.152 -11.736
  C 10.080 -11.592 9.720 -11.232 9.576 -11.160
  C 9.720 -11.016 10.080 -10.800 10.224 -10.872
  L 10.368 -10.800
  C 10.368 -10.728 10.584 -10.368 10.584 -10.224
  C 9.936 -10.224 8.208 -9.360 7.776 -9.000
  C 7.776 -8.568 7.920 -7.272 7.848 -6.984
  C 7.488 -7.344 6.264 -8.352 5.616 -8.352
  C 5.616 -7.344 5.328 -6.048 5.328 -5.184
  C 5.040 -5.256 4.248 -5.760 4.104 -5.976
  C 4.104 -6.984 4.392 -7.920 4.392 -9.000
  C 4.176 -9.000 3.168 -9.432 3.024 -9.576
  C 2.592 -9.576 1.584 -9.576 1.224 -9.792
  C 1.224 -10.080 1.944 -11.088 2.232 -11.304
  C 1.800 -11.880 0.936 -12.384 0.792 -12.816" stroke="none" fill="rgb(255,141,146)" />
<path d="
  M 0.792 -12.816
  L 1.224 -12.744
  L 1.656 -12.744
  L 2.160 -12.816
  L 2.592 -12.888
  L 3.024 -12.960
  L 3.456 -13.104
  L 3.888 -13.176
  L 4.248 -13.248
  L 4.248 -13.248
  L 4.752 -13.320
  L 5.184 -13.320
  L 5.616 -13.320
  L 6.192 -13.320
  L 6.624 -13.248
  L 7.200 -13.248
  L 7.632 -13.176
  L 8.136 -13.176
  L 8.280 -12.960
  L 8.280 -12.960
  L 8.640 -12.960
  L 9.000 -12.960
  L 9.432 -12.888
  L 9.792 -12.888
  L 9.792 -12.888
  L 9.792 -12.816
  L 9.864 -12.744
  L 9.864 -12.672
  L 9.864 -12.528
  L 9.864 -12.528
  L 10.152 -12.528
  L 10.656 -12.528
  L 11.088 -12.456
  L 11.376 -12.384
  L 11.376 -12.384
  L 11.160 -12.168
  L 10.800 -11.952
  L 10.368 -11.808
  L 10.152 -11.736
  L 10.152 -11.736
  L 10.080 -11.592
  L 9.864 -11.448
  L 9.720 -11.232
  L 9.576 -11.160
  L 9.576 -11.160
  L 9.720 -11.016
  L 9.936 -10.944
  L 10.080 -10.872
  L 10.224 -10.872
  L 10.368 -10.800
  L 10.368 -10.800
  L 10.368 -10.728
  L 10.440 -10.512
  L 10.584 -10.368
  L 10.584 -10.224
  L 10.584 -10.224
  L 10.224 -10.224
  L 9.936 -10.008
  L 9.504 -9.864
  L 9.072 -9.720
  L 8.640 -9.504
  L 8.352 -9.360
  L 7.992 -9.144
  L 7.776 -9.000
  L 7.776 -9.000
  L 7.776 -8.496
  L 7.848 -7.992
  L 7.848 -7.344
  L 7.848 -6.984
  L 7.848 -6.984
  L 7.416 -7.344
  L 6.840 -7.848
  L 6.192 -8.208
  L 5.616 -8.352
  L 5.616 -8.352
  L 5.544 -7.560
  L 5.472 -6.768
  L 5.400 -5.904
  L 5.328 -5.184
  L 5.328 -5.184
  L 5.040 -5.400
  L 4.680 -5.544
  L 4.320 -5.760
  L 4.104 -5.976
  L 4.104 -5.976
  L 4.176 -6.768
  L 4.248 -7.416
  L 4.320 -8.208
  L 4.392 -9.000
  L 4.392 -9.000
  L 4.104 -9.072
  L 3.744 -9.216
  L 3.312 -9.432
  L 3.024 -9.576
  L 3.024 -9.576
  L 2.592 -9.576
  L 2.160 -9.576
  L 1.584 -9.648
  L 1.224 -9.792
  L 1.224 -9.792
  L 1.368 -10.080
  L 1.584 -10.584
  L 1.944 -11.016
  L 2.232 -11.304
  L 2.232 -11.304
  L 1.800 -11.736
  L 1.440 -12.096
  L 1.080 -12.456
  L 0.792 -12.816
  L 0.792 -12.816" stroke="none" fill="rgb(230,230,230)" />
</g>
</svg>
