<?xml version="1.0" encoding="ISO-8859-1"?><!DOCTYPE svg PUBLIC "-//W3C//DTD SVG 1.1//EN" "http://www.w3.org/Graphics/SVG/1.1/DTD/svg11.dtd"><svg version="1.1" baseProfile="full" width="100%" height="100%" viewBox="-339.696 -8.064 320.328 238.104" xmlns="http://www.w3.org/2000/svg" xmlns:xlink="http://www.w3.org/1999/xlink">
<g>
<rect x="-179.568" y="-47.160" width="320.328" height="110.520" transform="rotate(0.000)" stroke="rgb(0,0,0)" stroke-width="0.216" stroke-dasharray="none" fill="rgb(255,255,255)" />
<rect x="-141.264" y="-166.248" width="243.792" height="127.584" transform="rotate(0.000)" stroke="rgb(0,0,0)" stroke-width="0.216" stroke-dasharray="none" fill="rgb(255,255,255)" />
<g>
<g>
<rect x="-183.096" y="-38.736" width="255.096" height="53.856" transform="rotate(0.000)" stroke="rgb(0,0,0)" stroke-width="0.216" stroke-dasharray="none" fill="none" />
<path d="
  M -310.608 -45.792
  L -55.512 -45.792" fill="none" stroke="rgb(0,0,0)" stroke-width="0.216" stroke-dasharray="none" />
<path d="
  M -310.608 -28.800
  L -55.512 -28.800" fill="none" stroke="rgb(0,0,0)" stroke-width="0.216" stroke-dasharray="none" />
</g>
<path d="
  M -286.344 -65.664
  C -285.912 -45.144 -284.040 -28.800 -281.880 -11.808" fill="none" stroke="rgb(0,0,0)" stroke-width="0.216" stroke-dasharray="none" />
<path d="
  M -261.936 -65.376
  C -258.408 -46.800 -255.240 -28.440 -251.352 -11.808" fill="none" stroke="rgb(0,0,0)" stroke-width="0.216" stroke-dasharray="none" />
<path d="
  M -235.656 -65.664
  C -230.688 -46.080 -226.368 -28.440 -220.752 -11.808" fill="none" stroke="rgb(0,0,0)" stroke-width="0.216" stroke-dasharray="none" />
<path d="
  M -211.104 -65.664
  C -204.480 -45.792 -198.144 -28.800 -190.872 -11.808" fill="none" stroke="rgb(0,0,0)" stroke-width="0.216" stroke-dasharray="none" />
<path d="
  M -185.328 -65.664
  C -177.840 -45.792 -170.568 -28.440 -161.640 -11.808" fill="none" stroke="rgb(0,0,0)" stroke-width="0.216" stroke-dasharray="none" />
<path d="
  M -160.776 -65.664
  C -151.056 -45.144 -142.560 -29.160 -132.120 -11.808" fill="none" stroke="rgb(0,0,0)" stroke-width="0.216" stroke-dasharray="none" />
<path d="
  M -135.000 -65.664
  C -126.360 -46.440 -117.072 -28.440 -102.240 -11.808" fill="none" stroke="rgb(0,0,0)" stroke-width="0.216" stroke-dasharray="none" />
</g>
<g>
<g>
<rect x="-139.824" y="-146.448" width="127.584" height="53.856" transform="rotate(0.000)" stroke="rgb(0,0,0)" stroke-width="0.216" stroke-dasharray="none" fill="none" />
<path d="
  M -203.616 -153.504
  L -76.032 -153.504" fill="none" stroke="rgb(0,0,0)" stroke-width="0.216" stroke-dasharray="none" />
<path d="
  M -203.616 -136.512
  L -76.032 -136.512" fill="none" stroke="rgb(0,0,0)" stroke-width="0.216" stroke-dasharray="none" />
</g>
<path d="
  M -197.208 -173.376
  C -195.984 -153.504 -194.184 -136.512 -191.736 -119.520" fill="none" stroke="rgb(0,0,0)" stroke-width="0.216" stroke-dasharray="none" />
<path d="
  M -189.432 -173.376
  C -186.480 -153.144 -182.016 -137.160 -177.408 -119.520" fill="none" stroke="rgb(0,0,0)" stroke-width="0.216" stroke-dasharray="none" />
<path d="
  M -179.352 -173.376
  C -175.248 -154.152 -169.848 -136.584 -161.208 -119.520" fill="none" stroke="rgb(0,0,0)" stroke-width="0.216" stroke-dasharray="none" />
<path d="
  M -163.512 -173.376
  C -155.808 -154.800 -145.440 -136.584 -131.616 -119.520" fill="none" stroke="rgb(0,0,0)" stroke-width="0.216" stroke-dasharray="none" />
<path d="
  M -141.408 -173.376
  C -130.968 -153.504 -119.736 -136.872 -95.544 -119.520" fill="none" stroke="rgb(0,0,0)" stroke-width="0.216" stroke-dasharray="none" />
</g>
<path d="
  M -244.512 -194.328
  L -245.520 -194.328
  L -245.520 -203.904
  L -244.512 -203.904
  L -244.512 -194.328" stroke="none" fill="rgb(0,0,0)" />
<path d="
  M -241.560 -194.328
  L -242.496 -194.328
  L -242.496 -203.904
  L -241.344 -203.904
  L -235.800 -195.840
  L -235.800 -203.904
  L -234.936 -203.904
  L -234.936 -194.328
  L -235.872 -194.328
  L -241.560 -202.680
  L -241.560 -194.328" stroke="none" fill="rgb(0,0,0)" />
<path d="
  M -225.432 -194.328
  L -225.432 -203.904
  L -224.568 -203.904
  L -224.568 -198.432
  L -220.176 -203.904
  L -218.952 -203.904
  L -222.696 -199.296
  L -218.880 -194.328
  L -220.176 -194.328
  L -223.272 -198.504
  L -224.568 -196.992
  L -224.568 -194.328
  L -225.504 -194.328" stroke="none" fill="rgb(0,0,0)" />
<path d="
  M -216.864 -194.328
  L -217.800 -194.328
  L -217.800 -203.904
  L -216.648 -203.904
  L -211.104 -195.840
  L -211.104 -203.904
  L -210.168 -203.904
  L -210.168 -194.328
  L -211.176 -194.328
  L -216.864 -202.680
  L -216.864 -194.328" stroke="none" fill="rgb(0,0,0)" />
<path d="
  M -208.656 -199.296
  C -208.656 -201.672 -206.496 -203.976 -203.544 -203.976
  C -200.664 -203.976 -198.432 -201.816 -198.432 -198.936
  C -198.432 -195.768 -201.240 -194.184 -203.688 -194.184
  C -206.064 -194.256 -208.656 -196.272 -208.656 -199.296" stroke="none" fill="rgb(0,0,0)" />
<path d="
  M -207.648 -199.368
  C -207.576 -196.272 -205.128 -194.976 -203.688 -194.976
  C -201.888 -195.048 -199.512 -196.056 -199.440 -198.936
  C -199.368 -201.384 -201.384 -203.184 -203.544 -203.184
  C -205.632 -203.184 -207.648 -201.312 -207.648 -199.368" stroke="none" fill="rgb(0,0,0)" />
<path d="
  M -195.624 -194.328
  L -195.624 -203.112
  L -197.856 -203.112
  L -197.856 -203.904
  L -192.456 -203.904
  L -192.456 -203.112
  L -194.688 -203.112
  L -194.688 -194.328
  L -195.624 -194.328" stroke="none" fill="rgb(0,0,0)" />
<path d="
  M -191.880 -196.992
  C -191.304 -193.680 -186.840 -195.480 -188.352 -197.928
  C -189.144 -199.296 -192.600 -198.432 -192.600 -201.744
  C -192.600 -203.184 -191.304 -203.976 -190.008 -203.976
  C -188.352 -203.976 -187.272 -202.392 -187.344 -201.384
  L -188.208 -201.384
  C -188.856 -203.976 -191.664 -203.472 -191.736 -201.744
  C -191.808 -198.864 -187.776 -200.592 -186.984 -197.496
  C -186.696 -196.200 -187.848 -194.256 -189.864 -194.184
  C -191.376 -194.184 -192.744 -195.192 -192.960 -196.992
  L -191.880 -196.992" stroke="none" fill="rgb(0,0,0)" />
<path d="
  M -178.488 -194.328
  L -178.488 -203.904
  L -173.592 -203.904
  L -173.592 -202.968
  L -177.552 -202.968
  L -177.552 -199.368
  L -173.664 -199.368
  L -173.664 -198.504
  L -177.552 -198.504
  L -177.552 -194.328
  L -178.488 -194.328" stroke="none" fill="rgb(0,0,0)" />
<path d="
  M -173.232 -199.296
  C -173.232 -201.672 -171.072 -203.976 -168.192 -203.976
  C -165.312 -203.976 -163.080 -201.816 -163.080 -198.936
  C -163.080 -195.768 -165.888 -194.184 -168.264 -194.184
  C -170.640 -194.256 -173.232 -196.272 -173.232 -199.296" stroke="none" fill="rgb(0,0,0)" />
<path d="
  M -172.224 -199.368
  C -172.152 -196.272 -169.776 -194.976 -168.264 -194.976
  C -166.536 -195.048 -164.088 -196.056 -164.016 -198.936
  C -163.944 -201.384 -166.032 -203.184 -168.192 -203.184
  C -170.280 -203.184 -172.224 -201.312 -172.224 -199.368" stroke="none" fill="rgb(0,0,0)" />
<path d="
  M -161.568 -194.328
  L -161.568 -203.904
  L -159.264 -203.904
  C -155.808 -203.904 -154.944 -202.248 -155.016 -200.664
  C -155.232 -198.792 -156.240 -197.928 -157.968 -197.928
  L -155.232 -194.328
  L -156.312 -194.328
  L -159.624 -198.720
  C -157.032 -198.720 -156.096 -199.080 -155.952 -200.664
  C -155.736 -202.392 -157.248 -203.112 -158.976 -203.112
  L -160.632 -203.112
  L -160.632 -194.328
  L -161.568 -194.328" stroke="none" fill="rgb(0,0,0)" />
<path d="
  M -142.416 -203.904
  L -141.264 -203.904
  L -141.264 -196.920
  L -140.400 -196.920
  L -140.400 -196.056
  L -141.264 -196.056
  L -141.264 -194.328
  L -142.272 -194.328
  L -142.272 -196.056
  L -147.024 -196.056
  L -147.024 -196.920
  L -142.416 -203.904" stroke="none" fill="rgb(0,0,0)" />
<path d="
  M -142.272 -202.608
  L -145.872 -196.920
  L -142.272 -196.920
  L -142.272 -202.608" stroke="none" fill="rgb(0,0,0)" />
<path d="
  M -131.616 -194.328
  L -131.616 -203.904
  L -130.248 -203.904
  L -126.720 -195.696
  L -123.264 -203.904
  L -121.680 -203.904
  L -121.680 -194.328
  L -122.760 -194.328
  L -122.760 -202.752
  L -126.360 -194.328
  L -127.152 -194.328
  L -130.752 -202.752
  L -130.752 -194.328
  L -131.616 -194.328" stroke="none" fill="rgb(0,0,0)" />
<path d="
  M -117.288 -203.904
  C -115.344 -203.904 -114.264 -202.968 -114.048 -201.528
  C -114.048 -200.448 -114.624 -199.656 -115.344 -199.296
  C -114.048 -199.080 -113.544 -198.072 -113.544 -196.776
  C -113.544 -195.480 -114.696 -194.328 -116.640 -194.328
  L -119.736 -194.328
  L -119.736 -203.904
  L -117.288 -203.904" stroke="none" fill="rgb(0,0,0)" />
<path d="
  M -118.800 -202.968
  L -118.800 -199.728
  L -117.144 -199.728
  C -116.136 -199.728 -115.200 -200.016 -115.128 -201.384
  C -115.128 -202.680 -115.776 -202.968 -117.000 -202.968
  L -118.800 -202.968" stroke="none" fill="rgb(0,0,0)" />
<path d="
  M -118.800 -198.864
  L -118.800 -195.192
  L -116.568 -195.192
  C -115.632 -195.192 -114.624 -195.696 -114.624 -196.992
  C -114.624 -198.288 -115.632 -198.864 -117.072 -198.864
  L -118.800 -198.864" stroke="none" fill="rgb(0,0,0)" />
<path d="
  M -103.896 -194.328
  L -104.832 -194.328
  L -104.832 -203.904
  L -103.896 -203.904
  L -103.896 -194.328" stroke="none" fill="rgb(0,0,0)" />
<path d="
  M -100.872 -194.328
  L -101.880 -194.328
  L -101.880 -203.904
  L -100.728 -203.904
  L -95.184 -195.840
  L -95.184 -203.904
  L -94.248 -203.904
  L -94.248 -194.328
  L -95.256 -194.328
  L -100.872 -202.680
  L -100.872 -194.328" stroke="none" fill="rgb(0,0,0)" />
<path d="
  M -90.936 -194.328
  L -90.936 -203.112
  L -93.168 -203.112
  L -93.168 -203.904
  L -87.768 -203.904
  L -87.768 -203.112
  L -90.000 -203.112
  L -90.000 -194.328
  L -90.936 -194.328" stroke="none" fill="rgb(0,0,0)" />
<path d="
  M -87.624 -194.328
  L -87.624 -203.904
  L -82.296 -203.904
  L -82.296 -202.968
  L -86.688 -202.968
  L -86.688 -199.584
  L -82.440 -199.584
  L -82.440 -198.720
  L -86.688 -198.720
  L -86.688 -195.192
  L -82.296 -195.192
  L -82.296 -194.328
  L -87.624 -194.328" stroke="none" fill="rgb(0,0,0)" />
<path d="
  M -80.640 -194.328
  L -80.640 -203.904
  L -78.336 -203.904
  C -74.952 -203.904 -74.016 -202.248 -74.088 -200.664
  C -74.376 -198.792 -75.384 -197.928 -77.112 -197.928
  L -74.376 -194.328
  L -75.456 -194.328
  L -78.768 -198.720
  C -76.104 -198.720 -75.168 -199.080 -75.024 -200.664
  C -74.880 -202.392 -76.392 -203.112 -78.120 -203.112
  L -79.776 -203.112
  L -79.776 -194.328
  L -80.640 -194.328" stroke="none" fill="rgb(0,0,0)" />
<path d="
  M -69.552 -194.328
  L -73.512 -203.904
  L -72.576 -203.904
  L -69.120 -195.480
  L -65.664 -203.904
  L -64.656 -203.904
  L -68.616 -194.328
  L -69.552 -194.328" stroke="none" fill="rgb(0,0,0)" />
<path d="
  M -60.336 -203.904
  L -59.184 -203.904
  L -55.152 -194.328
  L -56.160 -194.328
  L -57.456 -197.496
  L -62.208 -197.496
  L -63.504 -194.328
  L -64.512 -194.328
  L -60.336 -203.904" stroke="none" fill="rgb(0,0,0)" />
<path d="
  M -59.832 -202.968
  L -61.776 -198.432
  L -57.888 -198.432
  L -59.832 -202.968" stroke="none" fill="rgb(0,0,0)" />
<path d="
  M -53.928 -195.192
  L -49.896 -195.192
  L -49.896 -194.328
  L -54.792 -194.328
  L -54.792 -203.904
  L -53.928 -203.904
  L -53.928 -195.192" stroke="none" fill="rgb(0,0,0)" />
<path d="
  M -48.960 -196.992
  C -48.312 -193.680 -43.848 -195.480 -45.360 -197.928
  C -46.224 -199.296 -49.680 -198.432 -49.680 -201.744
  C -49.680 -203.184 -48.312 -203.976 -47.016 -203.976
  C -45.360 -203.976 -44.280 -202.392 -44.352 -201.384
  L -45.288 -201.384
  C -45.864 -203.976 -48.672 -203.472 -48.744 -201.744
  C -48.816 -198.864 -44.784 -200.592 -44.064 -197.496
  C -43.704 -196.200 -44.856 -194.256 -46.944 -194.184
  C -48.456 -194.184 -49.752 -195.192 -49.968 -196.992
  L -48.960 -196.992" stroke="none" fill="rgb(0,0,0)" />
<path d="
  M -233.496 -215.496
  C -233.208 -221.688 -225.216 -222.552 -222.840 -217.944
  L -223.992 -217.944
  C -225.720 -220.608 -230.112 -220.392 -231.768 -217.872
  C -232.776 -216.072 -232.416 -213.120 -230.904 -212.112
  C -229.176 -210.816 -227.736 -210.816 -226.080 -211.320
  C -224.712 -211.680 -223.632 -212.976 -223.344 -214.200
  L -229.464 -214.200
  L -229.464 -215.136
  L -222.120 -215.136
  C -222.552 -211.680 -224.856 -210.096 -227.952 -210.168
  C -231.480 -210.240 -233.424 -212.400 -233.496 -215.496" stroke="none" fill="rgb(0,0,0)" />
<path d="
  M -220.536 -210.240
  L -220.536 -220.752
  L -214.704 -220.752
  L -214.704 -219.816
  L -219.528 -219.816
  L -219.528 -216.072
  L -214.776 -216.072
  L -214.776 -215.064
  L -219.528 -215.064
  L -219.528 -211.176
  L -214.704 -211.176
  L -214.704 -210.240
  L -220.536 -210.240" stroke="none" fill="rgb(0,0,0)" />
<path d="
  M -213.336 -215.712
  C -213.336 -218.304 -210.960 -220.896 -207.792 -220.896
  C -204.552 -220.896 -202.104 -218.520 -202.104 -215.280
  C -202.104 -211.824 -205.200 -210.096 -207.864 -210.096
  C -210.528 -210.168 -213.336 -212.400 -213.336 -215.712" stroke="none" fill="rgb(0,0,0)" />
<path d="
  M -212.256 -215.784
  C -212.112 -212.400 -209.520 -210.960 -207.864 -210.960
  C -205.920 -211.032 -203.328 -212.112 -203.184 -215.280
  C -203.112 -218.016 -205.416 -219.960 -207.792 -219.960
  C -210.024 -219.960 -212.256 -217.944 -212.256 -215.784" stroke="none" fill="rgb(0,0,0)" />
<path d="
  M -200.016 -213.192
  C -199.368 -209.520 -194.472 -211.464 -196.128 -214.200
  C -196.992 -215.712 -200.808 -214.776 -200.808 -218.448
  C -200.808 -219.960 -199.368 -220.896 -197.928 -220.896
  C -196.128 -220.896 -194.904 -219.168 -194.976 -218.016
  L -195.984 -218.016
  C -196.632 -220.896 -199.728 -220.320 -199.800 -218.448
  C -199.944 -215.208 -195.480 -217.152 -194.616 -213.768
  C -194.256 -212.328 -195.552 -210.168 -197.856 -210.096
  C -199.440 -210.096 -200.952 -211.176 -201.168 -213.192
  L -200.016 -213.192" stroke="none" fill="rgb(0,0,0)" />
<path d="
  M -191.880 -210.240
  L -191.880 -219.888
  L -194.328 -219.888
  L -194.328 -220.752
  L -188.424 -220.752
  L -188.424 -219.888
  L -190.872 -219.888
  L -190.872 -210.240
  L -191.880 -210.240" stroke="none" fill="rgb(0,0,0)" />
<path d="
  M -188.280 -210.240
  L -188.280 -220.752
  L -185.688 -220.752
  C -181.944 -220.752 -180.936 -218.952 -181.080 -217.224
  C -181.296 -215.136 -182.448 -214.200 -184.320 -214.200
  L -181.296 -210.240
  L -182.520 -210.240
  L -186.120 -215.064
  C -183.240 -215.064 -182.232 -215.496 -182.016 -217.224
  C -181.872 -219.168 -183.528 -219.888 -185.400 -219.888
  L -187.272 -219.888
  L -187.272 -210.240
  L -188.280 -210.240" stroke="none" fill="rgb(0,0,0)" />
<path d="
  M -179.928 -215.712
  C -179.928 -218.304 -177.552 -220.896 -174.384 -220.896
  C -171.216 -220.896 -168.768 -218.520 -168.768 -215.280
  C -168.768 -211.824 -171.864 -210.096 -174.456 -210.096
  C -177.120 -210.168 -179.928 -212.400 -179.928 -215.712" stroke="none" fill="rgb(0,0,0)" />
<path d="
  M -178.848 -215.784
  C -178.776 -212.400 -176.112 -210.960 -174.456 -210.960
  C -172.584 -211.032 -169.920 -212.112 -169.848 -215.280
  C -169.704 -218.016 -172.008 -219.960 -174.384 -219.960
  C -176.688 -219.960 -178.848 -217.944 -178.848 -215.784" stroke="none" fill="rgb(0,0,0)" />
<path d="
  M -166.968 -210.240
  L -166.968 -220.752
  L -164.232 -220.752
  C -162.072 -220.752 -160.272 -219.960 -160.128 -217.656
  C -159.984 -215.784 -161.280 -214.416 -163.512 -214.416
  L -166.032 -214.416
  L -166.032 -210.240
  L -166.968 -210.240" stroke="none" fill="rgb(0,0,0)" />
<path d="
  M -166.032 -219.816
  L -166.032 -215.496
  L -163.872 -215.496
  C -161.712 -215.496 -161.136 -216.504 -161.136 -217.656
  C -161.280 -219.168 -162.360 -219.816 -163.872 -219.816
  L -166.032 -219.816" stroke="none" fill="rgb(0,0,0)" />
<path d="
  M -159.408 -210.240
  L -159.408 -220.752
  L -158.400 -220.752
  L -158.400 -216.144
  L -152.856 -216.144
  L -152.856 -220.752
  L -151.848 -220.752
  L -151.848 -210.240
  L -152.856 -210.240
  L -152.856 -215.136
  L -158.400 -215.136
  L -158.400 -210.240
  L -159.552 -210.240" stroke="none" fill="rgb(0,0,0)" />
<path d="
  M -148.608 -210.240
  L -149.688 -210.240
  L -149.688 -220.752
  L -148.608 -220.752
  L -148.608 -210.240" stroke="none" fill="rgb(0,0,0)" />
<path d="
  M -146.736 -216.216
  C -145.728 -221.544 -139.032 -222.768 -136.368 -217.944
  L -137.664 -217.944
  C -139.608 -221.688 -145.656 -219.960 -145.656 -215.568
  C -145.512 -210.096 -139.176 -210.312 -137.520 -212.832
  L -136.296 -212.832
  C -139.464 -207.792 -147.384 -210.168 -146.736 -216.216" stroke="none" fill="rgb(0,0,0)" />
<path d="
  M -117.864 -211.464
  L -115.128 -220.752
  L -113.976 -220.752
  L -117.144 -210.240
  L -118.512 -210.240
  L -120.816 -218.880
  L -123.120 -210.240
  L -124.488 -210.240
  L -127.728 -220.752
  L -126.504 -220.752
  L -123.768 -211.680
  L -121.320 -220.752
  L -120.240 -220.752
  L -117.864 -211.464" stroke="none" fill="rgb(0,0,0)" />
<path d="
  M -112.752 -210.240
  L -113.832 -210.240
  L -113.832 -220.752
  L -112.752 -220.752
  L -112.752 -210.240" stroke="none" fill="rgb(0,0,0)" />
<path d="
  M -109.440 -210.240
  L -110.520 -210.240
  L -110.520 -220.752
  L -109.296 -220.752
  L -103.176 -211.968
  L -103.176 -220.752
  L -102.168 -220.752
  L -102.168 -210.240
  L -103.248 -210.240
  L -109.440 -219.384
  L -109.440 -210.240" stroke="none" fill="rgb(0,0,0)" />
<path d="
  M -99.936 -210.240
  L -99.936 -220.752
  L -97.056 -220.752
  C -93.024 -220.752 -90.936 -218.592 -90.936 -215.280
  C -90.936 -211.968 -93.744 -210.240 -96.408 -210.240
  L -99.936 -210.240" stroke="none" fill="rgb(0,0,0)" />
<path d="
  M -98.928 -219.888
  L -98.928 -211.032
  L -96.408 -211.032
  C -94.248 -211.032 -92.088 -212.760 -92.088 -215.280
  C -92.088 -217.656 -93.456 -219.888 -97.056 -219.888
  L -98.928 -219.888" stroke="none" fill="rgb(0,0,0)" />
<path d="
  M -80.784 -213.192
  C -80.208 -209.520 -75.240 -211.464 -76.896 -214.200
  C -77.832 -215.712 -81.648 -214.776 -81.648 -218.448
  C -81.648 -219.960 -80.208 -220.896 -78.696 -220.896
  C -76.896 -220.896 -75.672 -219.168 -75.816 -218.016
  L -76.824 -218.016
  C -77.472 -220.896 -80.568 -220.320 -80.640 -218.448
  C -80.712 -215.208 -76.248 -217.152 -75.456 -213.768
  C -75.096 -212.328 -76.320 -210.168 -78.624 -210.096
  C -80.280 -210.096 -81.720 -211.176 -82.008 -213.192
  L -80.784 -213.192" stroke="none" fill="rgb(0,0,0)" />
<path d="
  M -74.520 -216.216
  C -73.512 -221.544 -66.744 -222.768 -64.152 -217.944
  L -65.376 -217.944
  C -67.392 -221.688 -73.440 -219.960 -73.440 -215.568
  C -73.224 -210.096 -66.960 -210.312 -65.304 -212.832
  L -64.008 -212.832
  C -67.248 -207.792 -75.168 -210.168 -74.520 -216.216" stroke="none" fill="rgb(0,0,0)" />
<path d="
  M -59.040 -220.752
  L -57.744 -220.752
  L -53.280 -210.240
  L -54.360 -210.240
  L -55.800 -213.768
  L -61.056 -213.768
  L -62.496 -210.240
  L -63.576 -210.240
  L -59.040 -220.752" stroke="none" fill="rgb(0,0,0)" />
<path d="
  M -58.464 -219.816
  L -60.552 -214.776
  L -56.304 -214.776
  L -58.464 -219.816" stroke="none" fill="rgb(0,0,0)" />
<path d="
  M -51.912 -211.176
  L -47.520 -211.176
  L -47.520 -210.240
  L -52.920 -210.240
  L -52.920 -220.752
  L -51.912 -220.752
  L -51.912 -211.176" stroke="none" fill="rgb(0,0,0)" />
<path d="
  M -46.872 -210.240
  L -46.872 -220.752
  L -41.040 -220.752
  L -41.040 -219.816
  L -45.864 -219.816
  L -45.864 -216.072
  L -41.112 -216.072
  L -41.112 -215.064
  L -45.864 -215.064
  L -45.864 -211.176
  L -41.040 -211.176
  L -41.040 -210.240
  L -46.872 -210.240" stroke="none" fill="rgb(0,0,0)" />
<path d="
  M -199.728 -175.608
  C -204.264 -175.752 -203.544 -180.720 -201.312 -181.872
  C -203.112 -182.664 -202.896 -186.624 -199.584 -186.696
  C -196.992 -186.696 -195.840 -183.024 -198.000 -181.872
  C -194.760 -180.072 -196.560 -175.608 -199.728 -175.608" stroke="none" fill="rgb(0,0,0)" />
<path d="
  M -201.312 -183.816
  C -201.312 -181.656 -198.000 -181.656 -198.000 -183.816
  C -198.000 -186.264 -201.312 -186.192 -201.312 -183.816" stroke="none" fill="rgb(0,0,0)" />
<path d="
  M -201.312 -180.504
  C -202.104 -179.640 -202.104 -178.128 -201.312 -177.336
  C -200.232 -176.328 -198.936 -176.472 -197.928 -177.624
  C -197.136 -178.416 -197.136 -179.856 -198.360 -180.720
  C -199.224 -181.440 -200.520 -181.440 -201.312 -180.504" stroke="none" fill="rgb(0,0,0)" />
<path d="
  M -195.264 -183.024
  C -195.192 -187.776 -188.280 -187.488 -188.280 -183.600
  L -188.280 -178.920
  C -188.280 -174.312 -195.264 -174.960 -195.264 -178.704
  L -195.264 -183.024" stroke="none" fill="rgb(0,0,0)" />
<path d="
  M -194.256 -183.024
  L -194.256 -179.208
  C -194.256 -175.752 -189.288 -175.608 -189.288 -179.208
  L -189.288 -183.024
  C -189.288 -186.408 -194.184 -186.480 -194.256 -183.024" stroke="none" fill="rgb(0,0,0)" />
<path d="
  M -198.216 -105.696
  C -202.752 -105.840 -202.032 -110.808 -199.800 -111.960
  C -201.600 -112.752 -201.384 -116.712 -198.072 -116.784
  C -195.480 -116.784 -194.328 -113.112 -196.488 -111.960
  C -193.248 -110.160 -195.048 -105.696 -198.216 -105.696" stroke="none" fill="rgb(0,0,0)" />
<path d="
  M -199.800 -113.904
  C -199.800 -111.744 -196.488 -111.744 -196.488 -113.904
  C -196.488 -116.352 -199.800 -116.280 -199.800 -113.904" stroke="none" fill="rgb(0,0,0)" />
<path d="
  M -199.800 -110.592
  C -200.592 -109.728 -200.592 -108.216 -199.800 -107.424
  C -198.720 -106.416 -197.424 -106.560 -196.416 -107.712
  C -195.624 -108.504 -195.624 -109.944 -196.848 -110.808
  C -197.712 -111.528 -199.008 -111.528 -199.800 -110.592" stroke="none" fill="rgb(0,0,0)" />
<path d="
  M -193.752 -113.112
  C -193.680 -117.864 -186.768 -117.576 -186.768 -113.688
  L -186.768 -109.008
  C -186.768 -104.400 -193.752 -105.048 -193.752 -108.792
  L -193.752 -113.112" stroke="none" fill="rgb(0,0,0)" />
<path d="
  M -192.744 -113.112
  L -192.744 -109.296
  C -192.744 -105.840 -187.776 -105.696 -187.776 -109.296
  L -187.776 -113.112
  C -187.776 -116.496 -192.672 -116.568 -192.744 -113.112" stroke="none" fill="rgb(0,0,0)" />
<path d="
  M -178.344 -116.352
  L -176.976 -116.352
  L -176.976 -108.648
  L -176.112 -108.648
  L -176.112 -107.640
  L -176.976 -107.640
  L -176.976 -105.768
  L -178.128 -105.768
  L -178.128 -107.640
  L -183.384 -107.640
  L -183.384 -108.648
  L -178.344 -116.352" stroke="none" fill="rgb(0,0,0)" />
<path d="
  M -178.128 -114.840
  L -182.160 -108.648
  L -178.128 -108.648
  L -178.128 -114.840" stroke="none" fill="rgb(0,0,0)" />
<path d="
  M -175.248 -112.968
  C -175.176 -117.720 -168.264 -117.432 -168.264 -113.544
  L -168.264 -108.864
  C -168.264 -104.256 -175.248 -104.904 -175.248 -108.648
  L -175.248 -112.968" stroke="none" fill="rgb(0,0,0)" />
<path d="
  M -174.240 -112.968
  L -174.240 -109.152
  C -174.240 -105.696 -169.272 -105.552 -169.272 -109.152
  L -169.272 -112.968
  C -169.272 -116.352 -174.168 -116.424 -174.240 -112.968" stroke="none" fill="rgb(0,0,0)" />
<path d="
  M -165.168 -113.472
  C -164.376 -120.240 -154.440 -116.136 -159.912 -110.952
  L -163.728 -107.280
  L -158.400 -107.280
  L -158.400 -106.272
  L -165.168 -106.272
  L -165.168 -107.280
  L -160.416 -111.888
  C -158.400 -113.904 -159.984 -115.920 -161.712 -116.064
  C -162.720 -116.136 -164.088 -115.488 -164.088 -113.472
  L -165.168 -113.472" stroke="none" fill="rgb(0,0,0)" />
<path d="
  M -155.808 -116.856
  L -151.056 -116.856
  L -151.056 -115.920
  L -155.016 -115.920
  L -155.592 -113.040
  C -153.216 -114.120 -150.840 -113.040 -150.264 -110.664
  C -149.688 -108.504 -151.272 -106.200 -153.576 -106.200
  C -155.592 -106.200 -157.032 -106.992 -157.392 -109.656
  L -156.384 -109.656
  C -156.168 -107.928 -153.864 -106.056 -152.064 -107.784
  C -150.912 -108.936 -150.912 -111.096 -152.640 -112.104
  C -153.576 -112.680 -155.016 -112.536 -155.880 -111.456
  L -156.816 -111.672
  L -155.808 -116.856" stroke="none" fill="rgb(0,0,0)" />
<path d="
  M -185.184 -183.024
  C -184.392 -189.792 -174.456 -185.688 -179.928 -180.504
  L -183.744 -176.832
  L -178.416 -176.832
  L -178.416 -175.824
  L -185.184 -175.824
  L -185.184 -176.832
  L -180.432 -181.440
  C -178.416 -183.456 -180.000 -185.472 -181.728 -185.616
  C -182.736 -185.688 -184.104 -185.040 -184.104 -183.024
  L -185.184 -183.024" stroke="none" fill="rgb(0,0,0)" />
<path d="
  M -175.824 -186.408
  L -171.072 -186.408
  L -171.072 -185.472
  L -175.032 -185.472
  L -175.608 -182.592
  C -173.232 -183.672 -170.856 -182.592 -170.280 -180.216
  C -169.704 -178.056 -171.288 -175.752 -173.592 -175.752
  C -175.608 -175.752 -177.048 -176.544 -177.408 -179.208
  L -176.400 -179.208
  C -176.184 -177.480 -173.880 -175.608 -172.080 -177.336
  C -170.928 -178.488 -170.928 -180.648 -172.656 -181.656
  C -173.592 -182.232 -175.032 -182.088 -175.896 -181.008
  L -176.832 -181.224
  L -175.824 -186.408" stroke="none" fill="rgb(0,0,0)" />
<path d="
  M -135.864 -116.352
  L -137.808 -116.352
  L -137.808 -117.288
  L -134.856 -117.288
  L -134.856 -106.704
  L -135.864 -106.704
  L -135.864 -116.352" stroke="none" fill="rgb(0,0,0)" />
<path d="
  M -130.104 -117.288
  L -125.352 -117.288
  L -125.352 -116.352
  L -129.312 -116.352
  L -129.888 -113.472
  C -127.512 -114.552 -125.136 -113.472 -124.560 -111.096
  C -123.984 -108.936 -125.568 -106.632 -127.872 -106.632
  C -129.888 -106.632 -131.328 -107.424 -131.688 -110.088
  L -130.680 -110.088
  C -130.464 -108.360 -128.160 -106.488 -126.360 -108.216
  C -125.208 -109.368 -125.208 -111.528 -126.936 -112.536
  C -127.872 -113.112 -129.312 -112.968 -130.176 -111.888
  L -131.112 -112.104
  L -130.104 -117.288" stroke="none" fill="rgb(0,0,0)" />
<path d="
  M -144.576 -185.472
  L -146.520 -185.472
  L -146.520 -186.408
  L -143.568 -186.408
  L -143.568 -175.824
  L -144.576 -175.824
  L -144.576 -185.472" stroke="none" fill="rgb(0,0,0)" />
<path d="
  M -140.256 -183.024
  C -140.184 -187.776 -133.272 -187.488 -133.272 -183.600
  L -133.272 -178.920
  C -133.272 -174.312 -140.256 -174.960 -140.256 -178.704
  L -140.256 -183.024" stroke="none" fill="rgb(0,0,0)" />
<path d="
  M -139.248 -183.024
  L -139.248 -179.208
  C -139.248 -175.752 -134.280 -175.608 -134.280 -179.208
  L -134.280 -183.024
  C -134.280 -186.408 -139.176 -186.480 -139.248 -183.024" stroke="none" fill="rgb(0,0,0)" />
<path d="
  M -224.064 -126.360
  L -222.696 -126.360
  L -222.696 -118.656
  L -221.832 -118.656
  L -221.832 -117.648
  L -222.696 -117.648
  L -222.696 -115.776
  L -223.848 -115.776
  L -223.848 -117.648
  L -229.104 -117.648
  L -229.104 -118.656
  L -224.064 -126.360" stroke="none" fill="rgb(0,0,0)" />
<path d="
  M -223.848 -124.848
  L -227.880 -118.656
  L -223.848 -118.656
  L -223.848 -124.848" stroke="none" fill="rgb(0,0,0)" />
<path d="
  M -220.968 -122.976
  C -220.896 -127.728 -213.984 -127.440 -213.984 -123.552
  L -213.984 -118.872
  C -213.984 -114.264 -220.968 -114.912 -220.968 -118.656
  L -220.968 -122.976" stroke="none" fill="rgb(0,0,0)" />
<path d="
  M -219.960 -122.976
  L -219.960 -119.160
  C -219.960 -115.704 -214.992 -115.560 -214.992 -119.160
  L -214.992 -122.976
  C -214.992 -126.360 -219.888 -126.432 -219.960 -122.976" stroke="none" fill="rgb(0,0,0)" />
<path d="
  M -213.264 -124.920
  C -213.264 -125.928 -212.400 -126.864 -211.104 -126.864
  C -209.952 -126.864 -209.160 -126.072 -209.160 -124.992
  C -209.160 -123.624 -209.952 -122.904 -211.176 -122.904
  C -212.256 -122.904 -213.192 -123.552 -213.264 -124.920" stroke="none" fill="rgb(0,0,0)" />
<path d="
  M -212.688 -124.920
  C -212.616 -123.840 -211.824 -123.264 -211.176 -123.336
  C -210.456 -123.408 -209.664 -123.912 -209.664 -124.992
  C -209.664 -125.784 -210.384 -126.288 -211.176 -126.360
  C -211.968 -126.432 -212.616 -125.784 -212.688 -124.920" stroke="none" fill="rgb(0,0,0)" />
<path d="
  M -66.240 -126.648
  L -64.872 -126.648
  L -64.872 -118.944
  L -64.008 -118.944
  L -64.008 -117.936
  L -64.872 -117.936
  L -64.872 -116.064
  L -66.024 -116.064
  L -66.024 -117.936
  L -71.280 -117.936
  L -71.280 -118.944
  L -66.240 -126.648" stroke="none" fill="rgb(0,0,0)" />
<path d="
  M -66.024 -125.136
  L -70.056 -118.944
  L -66.024 -118.944
  L -66.024 -125.136" stroke="none" fill="rgb(0,0,0)" />
<path d="
  M -63.144 -123.264
  C -63.072 -128.016 -56.160 -127.728 -56.160 -123.840
  L -56.160 -119.160
  C -56.160 -114.552 -63.144 -115.200 -63.144 -118.944
  L -63.144 -123.264" stroke="none" fill="rgb(0,0,0)" />
<path d="
  M -62.136 -123.264
  L -62.136 -119.448
  C -62.136 -115.992 -57.168 -115.848 -57.168 -119.448
  L -57.168 -123.264
  C -57.168 -126.648 -62.064 -126.720 -62.136 -123.264" stroke="none" fill="rgb(0,0,0)" />
<path d="
  M -55.440 -125.208
  C -55.440 -126.216 -54.576 -127.152 -53.280 -127.152
  C -52.128 -127.152 -51.336 -126.360 -51.336 -125.280
  C -51.336 -123.912 -52.128 -123.192 -53.352 -123.192
  C -54.432 -123.192 -55.368 -123.840 -55.440 -125.208" stroke="none" fill="rgb(0,0,0)" />
<path d="
  M -54.864 -125.208
  C -54.792 -124.128 -54.000 -123.552 -53.352 -123.624
  C -52.632 -123.696 -51.840 -124.200 -51.840 -125.280
  C -51.840 -126.072 -52.560 -126.576 -53.352 -126.648
  C -54.144 -126.720 -54.792 -126.072 -54.864 -125.208" stroke="none" fill="rgb(0,0,0)" />
<path d="
  M -227.448 -143.712
  L -222.696 -143.712
  L -222.696 -142.776
  L -226.656 -142.776
  L -227.232 -139.896
  C -224.856 -140.976 -222.480 -139.896 -221.904 -137.520
  C -221.328 -135.360 -222.912 -133.056 -225.216 -133.056
  C -227.232 -133.056 -228.672 -133.848 -229.032 -136.512
  L -228.024 -136.512
  C -227.808 -134.784 -225.504 -132.912 -223.704 -134.640
  C -222.552 -135.792 -222.552 -137.952 -224.280 -138.960
  C -225.216 -139.536 -226.656 -139.392 -227.520 -138.312
  L -228.456 -138.528
  L -227.448 -143.712" stroke="none" fill="rgb(0,0,0)" />
<path d="
  M -220.968 -140.328
  C -220.896 -145.080 -213.984 -144.792 -213.984 -140.904
  L -213.984 -136.224
  C -213.984 -131.616 -220.968 -132.264 -220.968 -136.008
  L -220.968 -140.328" stroke="none" fill="rgb(0,0,0)" />
<path d="
  M -219.960 -140.328
  L -219.960 -136.512
  C -219.960 -133.056 -214.992 -132.912 -214.992 -136.512
  L -214.992 -140.328
  C -214.992 -143.712 -219.888 -143.784 -219.960 -140.328" stroke="none" fill="rgb(0,0,0)" />
<path d="
  M -213.264 -142.272
  C -213.264 -143.280 -212.400 -144.216 -211.104 -144.216
  C -209.952 -144.216 -209.160 -143.424 -209.160 -142.344
  C -209.160 -140.976 -209.952 -140.256 -211.176 -140.256
  C -212.256 -140.256 -213.192 -140.904 -213.264 -142.272" stroke="none" fill="rgb(0,0,0)" />
<path d="
  M -212.688 -142.272
  C -212.616 -141.192 -211.824 -140.616 -211.176 -140.688
  C -210.456 -140.760 -209.664 -141.264 -209.664 -142.344
  C -209.664 -143.136 -210.384 -143.640 -211.176 -143.712
  C -211.968 -143.784 -212.616 -143.136 -212.688 -142.272" stroke="none" fill="rgb(0,0,0)" />
<path d="
  M -69.624 -144.216
  L -64.872 -144.216
  L -64.872 -143.280
  L -68.832 -143.280
  L -69.408 -140.400
  C -67.032 -141.480 -64.656 -140.400 -64.080 -138.024
  C -63.504 -135.864 -65.088 -133.560 -67.392 -133.560
  C -69.408 -133.560 -70.848 -134.352 -71.208 -137.016
  L -70.200 -137.016
  C -69.984 -135.288 -67.680 -133.416 -65.880 -135.144
  C -64.728 -136.296 -64.728 -138.456 -66.456 -139.464
  C -67.392 -140.040 -68.832 -139.896 -69.696 -138.816
  L -70.632 -139.032
  L -69.624 -144.216" stroke="none" fill="rgb(0,0,0)" />
<path d="
  M -63.144 -140.832
  C -63.072 -145.584 -56.160 -145.296 -56.160 -141.408
  L -56.160 -136.728
  C -56.160 -132.120 -63.144 -132.768 -63.144 -136.512
  L -63.144 -140.832" stroke="none" fill="rgb(0,0,0)" />
<path d="
  M -62.136 -140.832
  L -62.136 -137.016
  C -62.136 -133.560 -57.168 -133.416 -57.168 -137.016
  L -57.168 -140.832
  C -57.168 -144.216 -62.064 -144.288 -62.136 -140.832" stroke="none" fill="rgb(0,0,0)" />
<path d="
  M -55.440 -142.776
  C -55.440 -143.784 -54.576 -144.720 -53.280 -144.720
  C -52.128 -144.720 -51.336 -143.928 -51.336 -142.848
  C -51.336 -141.480 -52.128 -140.760 -53.352 -140.760
  C -54.432 -140.760 -55.368 -141.408 -55.440 -142.776" stroke="none" fill="rgb(0,0,0)" />
<path d="
  M -54.864 -142.776
  C -54.792 -141.696 -54.000 -141.120 -53.352 -141.192
  C -52.632 -141.264 -51.840 -141.768 -51.840 -142.848
  C -51.840 -143.640 -52.560 -144.144 -53.352 -144.216
  C -54.144 -144.288 -54.792 -143.640 -54.864 -142.776" stroke="none" fill="rgb(0,0,0)" />
<path d="
  M -70.272 -157.608
  L -67.392 -161.928
  L -66.096 -161.928
  L -68.616 -158.328
  C -65.520 -159.336 -63.648 -156.816 -63.864 -154.584
  C -64.008 -152.784 -65.304 -151.128 -67.680 -151.128
  C -69.480 -151.128 -70.632 -152.352 -70.992 -153.576
  C -71.208 -154.368 -71.280 -156.168 -70.272 -157.608" stroke="none" fill="rgb(0,0,0)" />
<path d="
  M -69.408 -156.744
  C -70.488 -155.376 -69.984 -152.064 -67.464 -152.064
  C -65.880 -152.064 -64.512 -154.008 -65.304 -156.024
  C -66.024 -157.752 -68.256 -158.184 -69.408 -156.744" stroke="none" fill="rgb(0,0,0)" />
<path d="
  M -63.144 -158.544
  C -63.072 -163.296 -56.160 -163.008 -56.160 -159.120
  L -56.160 -154.440
  C -56.160 -149.832 -63.144 -150.480 -63.144 -154.224
  L -63.144 -158.544" stroke="none" fill="rgb(0,0,0)" />
<path d="
  M -62.136 -158.544
  L -62.136 -154.728
  C -62.136 -151.272 -57.168 -151.128 -57.168 -154.728
  L -57.168 -158.544
  C -57.168 -161.928 -62.064 -162.000 -62.136 -158.544" stroke="none" fill="rgb(0,0,0)" />
<path d="
  M -55.440 -160.488
  C -55.440 -161.496 -54.576 -162.432 -53.280 -162.432
  C -52.128 -162.432 -51.336 -161.640 -51.336 -160.560
  C -51.336 -159.192 -52.128 -158.472 -53.352 -158.472
  C -54.432 -158.472 -55.368 -159.120 -55.440 -160.488" stroke="none" fill="rgb(0,0,0)" />
<path d="
  M -54.864 -160.488
  C -54.792 -159.408 -54.000 -158.832 -53.352 -158.904
  C -52.632 -158.976 -51.840 -159.480 -51.840 -160.560
  C -51.840 -161.352 -52.560 -161.856 -53.352 -161.928
  C -54.144 -162.000 -54.792 -161.352 -54.864 -160.488" stroke="none" fill="rgb(0,0,0)" />
<path d="
  M -228.096 -157.248
  L -225.216 -161.568
  L -223.920 -161.568
  L -226.440 -157.968
  C -223.344 -158.976 -221.472 -156.456 -221.688 -154.224
  C -221.832 -152.424 -223.128 -150.768 -225.504 -150.768
  C -227.304 -150.768 -228.456 -151.992 -228.816 -153.216
  C -229.032 -154.008 -229.104 -155.808 -228.096 -157.248" stroke="none" fill="rgb(0,0,0)" />
<path d="
  M -227.232 -156.384
  C -228.312 -155.016 -227.808 -151.704 -225.288 -151.704
  C -223.704 -151.704 -222.336 -153.648 -223.128 -155.664
  C -223.848 -157.392 -226.080 -157.824 -227.232 -156.384" stroke="none" fill="rgb(0,0,0)" />
<path d="
  M -220.968 -158.184
  C -220.896 -162.936 -213.984 -162.648 -213.984 -158.760
  L -213.984 -154.080
  C -213.984 -149.472 -220.968 -150.120 -220.968 -153.864
  L -220.968 -158.184" stroke="none" fill="rgb(0,0,0)" />
<path d="
  M -219.960 -158.184
  L -219.960 -154.368
  C -219.960 -150.912 -214.992 -150.768 -214.992 -154.368
  L -214.992 -158.184
  C -214.992 -161.568 -219.888 -161.640 -219.960 -158.184" stroke="none" fill="rgb(0,0,0)" />
<path d="
  M -213.264 -160.128
  C -213.264 -161.136 -212.400 -162.072 -211.104 -162.072
  C -209.952 -162.072 -209.160 -161.280 -209.160 -160.200
  C -209.160 -158.832 -209.952 -158.112 -211.176 -158.112
  C -212.256 -158.112 -213.192 -158.760 -213.264 -160.128" stroke="none" fill="rgb(0,0,0)" />
<path d="
  M -212.688 -160.128
  C -212.616 -159.048 -211.824 -158.472 -211.176 -158.544
  C -210.456 -158.616 -209.664 -159.120 -209.664 -160.200
  C -209.664 -160.992 -210.384 -161.496 -211.176 -161.568
  C -211.968 -161.640 -212.616 -160.992 -212.688 -160.128" stroke="none" fill="rgb(0,0,0)" />
<path d="
  M -69.984 -169.056
  L -65.520 -178.704
  L -70.632 -178.704
  L -70.632 -179.640
  L -64.512 -179.640
  L -64.512 -178.632
  L -68.832 -169.056
  L -69.984 -169.056" stroke="none" fill="rgb(0,0,0)" />
<path d="
  M -63.144 -176.256
  C -63.072 -181.008 -56.160 -180.720 -56.160 -176.832
  L -56.160 -172.152
  C -56.160 -167.544 -63.144 -168.192 -63.144 -171.936
  L -63.144 -176.256" stroke="none" fill="rgb(0,0,0)" />
<path d="
  M -62.136 -176.256
  L -62.136 -172.440
  C -62.136 -168.984 -57.168 -168.840 -57.168 -172.440
  L -57.168 -176.256
  C -57.168 -179.640 -62.064 -179.712 -62.136 -176.256" stroke="none" fill="rgb(0,0,0)" />
<path d="
  M -55.440 -178.200
  C -55.440 -179.208 -54.576 -180.144 -53.280 -180.144
  C -52.128 -180.144 -51.336 -179.352 -51.336 -178.272
  C -51.336 -176.904 -52.128 -176.184 -53.352 -176.184
  C -54.432 -176.184 -55.368 -176.832 -55.440 -178.200" stroke="none" fill="rgb(0,0,0)" />
<path d="
  M -54.864 -178.200
  C -54.792 -177.120 -54.000 -176.544 -53.352 -176.616
  C -52.632 -176.688 -51.840 -177.192 -51.840 -178.272
  C -51.840 -179.064 -52.560 -179.568 -53.352 -179.640
  C -54.144 -179.712 -54.792 -179.064 -54.864 -178.200" stroke="none" fill="rgb(0,0,0)" />
<path d="
  M -227.376 -169.272
  L -222.912 -178.920
  L -228.024 -178.920
  L -228.024 -179.856
  L -221.904 -179.856
  L -221.904 -178.848
  L -226.224 -169.272
  L -227.376 -169.272" stroke="none" fill="rgb(0,0,0)" />
<path d="
  M -220.536 -176.472
  C -220.464 -181.224 -213.552 -180.936 -213.552 -177.048
  L -213.552 -172.368
  C -213.552 -167.760 -220.536 -168.408 -220.536 -172.152
  L -220.536 -176.472" stroke="none" fill="rgb(0,0,0)" />
<path d="
  M -219.528 -176.472
  L -219.528 -172.656
  C -219.528 -169.200 -214.560 -169.056 -214.560 -172.656
  L -214.560 -176.472
  C -214.560 -179.856 -219.456 -179.928 -219.528 -176.472" stroke="none" fill="rgb(0,0,0)" />
<path d="
  M -212.832 -178.416
  C -212.832 -179.424 -211.968 -180.360 -210.672 -180.360
  C -209.520 -180.360 -208.728 -179.568 -208.728 -178.488
  C -208.728 -177.120 -209.520 -176.400 -210.744 -176.400
  C -211.824 -176.400 -212.760 -177.048 -212.832 -178.416" stroke="none" fill="rgb(0,0,0)" />
<path d="
  M -212.256 -178.416
  C -212.184 -177.336 -211.392 -176.760 -210.744 -176.832
  C -210.024 -176.904 -209.232 -177.408 -209.232 -178.488
  C -209.232 -179.280 -209.952 -179.784 -210.744 -179.856
  C -211.536 -179.928 -212.184 -179.280 -212.256 -178.416" stroke="none" fill="rgb(0,0,0)" />
<path d="
  M -49.680 -46.944
  L -46.800 -51.264
  L -45.504 -51.264
  L -48.024 -47.664
  C -44.928 -48.672 -43.056 -46.152 -43.272 -43.920
  C -43.416 -42.120 -44.712 -40.464 -47.088 -40.464
  C -48.888 -40.464 -50.040 -41.688 -50.400 -42.912
  C -50.616 -43.704 -50.688 -45.504 -49.680 -46.944" stroke="none" fill="rgb(0,0,0)" />
<path d="
  M -48.816 -46.080
  C -49.896 -44.712 -49.392 -41.400 -46.872 -41.400
  C -45.288 -41.400 -43.920 -43.344 -44.712 -45.360
  C -45.432 -47.088 -47.664 -47.520 -48.816 -46.080" stroke="none" fill="rgb(0,0,0)" />
<path d="
  M -42.552 -47.880
  C -42.480 -52.632 -35.568 -52.344 -35.568 -48.456
  L -35.568 -43.776
  C -35.568 -39.168 -42.552 -39.816 -42.552 -43.560
  L -42.552 -47.880" stroke="none" fill="rgb(0,0,0)" />
<path d="
  M -41.544 -47.880
  L -41.544 -44.064
  C -41.544 -40.608 -36.576 -40.464 -36.576 -44.064
  L -36.576 -47.880
  C -36.576 -51.264 -41.472 -51.336 -41.544 -47.880" stroke="none" fill="rgb(0,0,0)" />
<path d="
  M -34.848 -49.824
  C -34.848 -50.832 -33.984 -51.768 -32.688 -51.768
  C -31.536 -51.768 -30.744 -50.976 -30.744 -49.896
  C -30.744 -48.528 -31.536 -47.808 -32.760 -47.808
  C -33.840 -47.808 -34.776 -48.456 -34.848 -49.824" stroke="none" fill="rgb(0,0,0)" />
<path d="
  M -34.272 -49.824
  C -34.200 -48.744 -33.408 -48.168 -32.760 -48.240
  C -32.040 -48.312 -31.248 -48.816 -31.248 -49.896
  C -31.248 -50.688 -31.968 -51.192 -32.760 -51.264
  C -33.552 -51.336 -34.200 -50.688 -34.272 -49.824" stroke="none" fill="rgb(0,0,0)" />
<path d="
  M -335.448 -47.520
  L -332.568 -51.840
  L -331.272 -51.840
  L -333.792 -48.240
  C -330.696 -49.248 -328.824 -46.728 -329.040 -44.496
  C -329.184 -42.696 -330.480 -41.040 -332.856 -41.040
  C -334.656 -41.040 -335.808 -42.264 -336.168 -43.488
  C -336.384 -44.280 -336.456 -46.080 -335.448 -47.520" stroke="none" fill="rgb(0,0,0)" />
<path d="
  M -334.584 -46.656
  C -335.664 -45.288 -335.160 -41.976 -332.640 -41.976
  C -331.056 -41.976 -329.688 -43.920 -330.480 -45.936
  C -331.200 -47.664 -333.432 -48.096 -334.584 -46.656" stroke="none" fill="rgb(0,0,0)" />
<path d="
  M -328.320 -48.456
  C -328.248 -53.208 -321.336 -52.920 -321.336 -49.032
  L -321.336 -44.352
  C -321.336 -39.744 -328.320 -40.392 -328.320 -44.136
  L -328.320 -48.456" stroke="none" fill="rgb(0,0,0)" />
<path d="
  M -327.312 -48.456
  L -327.312 -44.640
  C -327.312 -41.184 -322.344 -41.040 -322.344 -44.640
  L -322.344 -48.456
  C -322.344 -51.840 -327.240 -51.912 -327.312 -48.456" stroke="none" fill="rgb(0,0,0)" />
<path d="
  M -320.616 -50.400
  C -320.616 -51.408 -319.752 -52.344 -318.456 -52.344
  C -317.304 -52.344 -316.512 -51.552 -316.512 -50.472
  C -316.512 -49.104 -317.304 -48.384 -318.528 -48.384
  C -319.608 -48.384 -320.544 -49.032 -320.616 -50.400" stroke="none" fill="rgb(0,0,0)" />
<path d="
  M -320.040 -50.400
  C -319.968 -49.320 -319.176 -48.744 -318.528 -48.816
  C -317.808 -48.888 -317.016 -49.392 -317.016 -50.472
  C -317.016 -51.264 -317.736 -51.768 -318.528 -51.840
  C -319.320 -51.912 -319.968 -51.264 -320.040 -50.400" stroke="none" fill="rgb(0,0,0)" />
<path d="
  M -49.032 -34.560
  L -44.280 -34.560
  L -44.280 -33.624
  L -48.240 -33.624
  L -48.816 -30.744
  C -46.440 -31.824 -44.064 -30.744 -43.488 -28.368
  C -42.912 -26.208 -44.496 -23.904 -46.800 -23.904
  C -48.816 -23.904 -50.256 -24.696 -50.616 -27.360
  L -49.608 -27.360
  C -49.392 -25.632 -47.088 -23.760 -45.288 -25.488
  C -44.136 -26.640 -44.136 -28.800 -45.864 -29.808
  C -46.800 -30.384 -48.240 -30.240 -49.104 -29.160
  L -50.040 -29.376
  L -49.032 -34.560" stroke="none" fill="rgb(0,0,0)" />
<path d="
  M -42.552 -31.176
  C -42.480 -35.928 -35.568 -35.640 -35.568 -31.752
  L -35.568 -27.072
  C -35.568 -22.464 -42.552 -23.112 -42.552 -26.856
  L -42.552 -31.176" stroke="none" fill="rgb(0,0,0)" />
<path d="
  M -41.544 -31.176
  L -41.544 -27.360
  C -41.544 -23.904 -36.576 -23.760 -36.576 -27.360
  L -36.576 -31.176
  C -36.576 -34.560 -41.472 -34.632 -41.544 -31.176" stroke="none" fill="rgb(0,0,0)" />
<path d="
  M -34.848 -33.120
  C -34.848 -34.128 -33.984 -35.064 -32.688 -35.064
  C -31.536 -35.064 -30.744 -34.272 -30.744 -33.192
  C -30.744 -31.824 -31.536 -31.104 -32.760 -31.104
  C -33.840 -31.104 -34.776 -31.752 -34.848 -33.120" stroke="none" fill="rgb(0,0,0)" />
<path d="
  M -34.272 -33.120
  C -34.200 -32.040 -33.408 -31.464 -32.760 -31.536
  C -32.040 -31.608 -31.248 -32.112 -31.248 -33.192
  C -31.248 -33.984 -31.968 -34.488 -32.760 -34.560
  C -33.552 -34.632 -34.200 -33.984 -34.272 -33.120" stroke="none" fill="rgb(0,0,0)" />
<path d="
  M -334.944 -34.488
  L -330.192 -34.488
  L -330.192 -33.552
  L -334.152 -33.552
  L -334.728 -30.672
  C -332.352 -31.752 -329.976 -30.672 -329.400 -28.296
  C -328.824 -26.136 -330.408 -23.832 -332.712 -23.832
  C -334.728 -23.832 -336.168 -24.624 -336.528 -27.288
  L -335.520 -27.288
  C -335.304 -25.560 -333.000 -23.688 -331.200 -25.416
  C -330.048 -26.568 -330.048 -28.728 -331.776 -29.736
  C -332.712 -30.312 -334.152 -30.168 -335.016 -29.088
  L -335.952 -29.304
  L -334.944 -34.488" stroke="none" fill="rgb(0,0,0)" />
<path d="
  M -328.464 -31.104
  C -328.392 -35.856 -321.480 -35.568 -321.480 -31.680
  L -321.480 -27.000
  C -321.480 -22.392 -328.464 -23.040 -328.464 -26.784
  L -328.464 -31.104" stroke="none" fill="rgb(0,0,0)" />
<path d="
  M -327.456 -31.104
  L -327.456 -27.288
  C -327.456 -23.832 -322.488 -23.688 -322.488 -27.288
  L -322.488 -31.104
  C -322.488 -34.488 -327.384 -34.560 -327.456 -31.104" stroke="none" fill="rgb(0,0,0)" />
<path d="
  M -320.760 -33.048
  C -320.760 -34.056 -319.896 -34.992 -318.600 -34.992
  C -317.448 -34.992 -316.656 -34.200 -316.656 -33.120
  C -316.656 -31.752 -317.448 -31.032 -318.672 -31.032
  C -319.752 -31.032 -320.688 -31.680 -320.760 -33.048" stroke="none" fill="rgb(0,0,0)" />
<path d="
  M -320.184 -33.048
  C -320.112 -31.968 -319.320 -31.392 -318.672 -31.464
  C -317.952 -31.536 -317.160 -32.040 -317.160 -33.120
  C -317.160 -33.912 -317.880 -34.416 -318.672 -34.488
  C -319.464 -34.560 -320.112 -33.912 -320.184 -33.048" stroke="none" fill="rgb(0,0,0)" />
<path d="
  M -45.648 -17.496
  L -44.280 -17.496
  L -44.280 -9.792
  L -43.416 -9.792
  L -43.416 -8.784
  L -44.280 -8.784
  L -44.280 -6.912
  L -45.432 -6.912
  L -45.432 -8.784
  L -50.688 -8.784
  L -50.688 -9.792
  L -45.648 -17.496" stroke="none" fill="rgb(0,0,0)" />
<path d="
  M -45.432 -15.984
  L -49.464 -9.792
  L -45.432 -9.792
  L -45.432 -15.984" stroke="none" fill="rgb(0,0,0)" />
<path d="
  M -42.552 -14.112
  C -42.480 -18.864 -35.568 -18.576 -35.568 -14.688
  L -35.568 -10.008
  C -35.568 -5.400 -42.552 -6.048 -42.552 -9.792
  L -42.552 -14.112" stroke="none" fill="rgb(0,0,0)" />
<path d="
  M -41.544 -14.112
  L -41.544 -10.296
  C -41.544 -6.840 -36.576 -6.696 -36.576 -10.296
  L -36.576 -14.112
  C -36.576 -17.496 -41.472 -17.568 -41.544 -14.112" stroke="none" fill="rgb(0,0,0)" />
<path d="
  M -34.848 -16.056
  C -34.848 -17.064 -33.984 -18.000 -32.688 -18.000
  C -31.536 -18.000 -30.744 -17.208 -30.744 -16.128
  C -30.744 -14.760 -31.536 -14.040 -32.760 -14.040
  C -33.840 -14.040 -34.776 -14.688 -34.848 -16.056" stroke="none" fill="rgb(0,0,0)" />
<path d="
  M -34.272 -16.056
  C -34.200 -14.976 -33.408 -14.400 -32.760 -14.472
  C -32.040 -14.544 -31.248 -15.048 -31.248 -16.128
  C -31.248 -16.920 -31.968 -17.424 -32.760 -17.496
  C -33.552 -17.568 -34.200 -16.920 -34.272 -16.056" stroke="none" fill="rgb(0,0,0)" />
<path d="
  M -330.984 -16.992
  L -329.616 -16.992
  L -329.616 -9.288
  L -328.752 -9.288
  L -328.752 -8.280
  L -329.616 -8.280
  L -329.616 -6.408
  L -330.768 -6.408
  L -330.768 -8.280
  L -336.024 -8.280
  L -336.024 -9.288
  L -330.984 -16.992" stroke="none" fill="rgb(0,0,0)" />
<path d="
  M -330.768 -15.480
  L -334.800 -9.288
  L -330.768 -9.288
  L -330.768 -15.480" stroke="none" fill="rgb(0,0,0)" />
<path d="
  M -327.888 -13.608
  C -327.816 -18.360 -320.904 -18.072 -320.904 -14.184
  L -320.904 -9.504
  C -320.904 -4.896 -327.888 -5.544 -327.888 -9.288
  L -327.888 -13.608" stroke="none" fill="rgb(0,0,0)" />
<path d="
  M -326.880 -13.608
  L -326.880 -9.792
  C -326.880 -6.336 -321.912 -6.192 -321.912 -9.792
  L -321.912 -13.608
  C -321.912 -16.992 -326.808 -17.064 -326.880 -13.608" stroke="none" fill="rgb(0,0,0)" />
<path d="
  M -320.184 -15.552
  C -320.184 -16.560 -319.320 -17.496 -318.024 -17.496
  C -316.872 -17.496 -316.080 -16.704 -316.080 -15.624
  C -316.080 -14.256 -316.872 -13.536 -318.096 -13.536
  C -319.176 -13.536 -320.112 -14.184 -320.184 -15.552" stroke="none" fill="rgb(0,0,0)" />
<path d="
  M -319.608 -15.552
  C -319.536 -14.472 -318.744 -13.896 -318.096 -13.968
  C -317.376 -14.040 -316.584 -14.544 -316.584 -15.624
  C -316.584 -16.416 -317.304 -16.920 -318.096 -16.992
  C -318.888 -17.064 -319.536 -16.416 -319.608 -15.552" stroke="none" fill="rgb(0,0,0)" />
<path d="
  M -49.392 -58.680
  L -44.928 -68.328
  L -50.040 -68.328
  L -50.040 -69.264
  L -43.920 -69.264
  L -43.920 -68.256
  L -48.240 -58.680
  L -49.392 -58.680" stroke="none" fill="rgb(0,0,0)" />
<path d="
  M -42.552 -65.880
  C -42.480 -70.632 -35.568 -70.344 -35.568 -66.456
  L -35.568 -61.776
  C -35.568 -57.168 -42.552 -57.816 -42.552 -61.560
  L -42.552 -65.880" stroke="none" fill="rgb(0,0,0)" />
<path d="
  M -41.544 -65.880
  L -41.544 -62.064
  C -41.544 -58.608 -36.576 -58.464 -36.576 -62.064
  L -36.576 -65.880
  C -36.576 -69.264 -41.472 -69.336 -41.544 -65.880" stroke="none" fill="rgb(0,0,0)" />
<path d="
  M -34.848 -67.824
  C -34.848 -68.832 -33.984 -69.768 -32.688 -69.768
  C -31.536 -69.768 -30.744 -68.976 -30.744 -67.896
  C -30.744 -66.528 -31.536 -65.808 -32.760 -65.808
  C -33.840 -65.808 -34.776 -66.456 -34.848 -67.824" stroke="none" fill="rgb(0,0,0)" />
<path d="
  M -34.272 -67.824
  C -34.200 -66.744 -33.408 -66.168 -32.760 -66.240
  C -32.040 -66.312 -31.248 -66.816 -31.248 -67.896
  C -31.248 -68.688 -31.968 -69.192 -32.760 -69.264
  C -33.552 -69.336 -34.200 -68.688 -34.272 -67.824" stroke="none" fill="rgb(0,0,0)" />
<path d="
  M -334.080 -58.752
  L -329.616 -68.400
  L -334.728 -68.400
  L -334.728 -69.336
  L -328.608 -69.336
  L -328.608 -68.328
  L -332.928 -58.752
  L -334.080 -58.752" stroke="none" fill="rgb(0,0,0)" />
<path d="
  M -327.240 -65.952
  C -327.168 -70.704 -320.256 -70.416 -320.256 -66.528
  L -320.256 -61.848
  C -320.256 -57.240 -327.240 -57.888 -327.240 -61.632
  L -327.240 -65.952" stroke="none" fill="rgb(0,0,0)" />
<path d="
  M -326.232 -65.952
  L -326.232 -62.136
  C -326.232 -58.680 -321.264 -58.536 -321.264 -62.136
  L -321.264 -65.952
  C -321.264 -69.336 -326.160 -69.408 -326.232 -65.952" stroke="none" fill="rgb(0,0,0)" />
<path d="
  M -319.536 -67.896
  C -319.536 -68.904 -318.672 -69.840 -317.376 -69.840
  C -316.224 -69.840 -315.432 -69.048 -315.432 -67.968
  C -315.432 -66.600 -316.224 -65.880 -317.448 -65.880
  C -318.528 -65.880 -319.464 -66.528 -319.536 -67.896" stroke="none" fill="rgb(0,0,0)" />
<path d="
  M -318.960 -67.896
  C -318.888 -66.816 -318.096 -66.240 -317.448 -66.312
  C -316.728 -66.384 -315.936 -66.888 -315.936 -67.968
  C -315.936 -68.760 -316.656 -69.264 -317.448 -69.336
  C -318.240 -69.408 -318.888 -68.760 -318.960 -67.896" stroke="none" fill="rgb(0,0,0)" />
</g>
<g>
<path d="
  M -294.768 -76.536
  L -296.496 -76.536
  L -296.496 -77.328
  L -293.832 -77.328
  L -293.832 -67.968
  L -294.768 -67.968
  L -294.768 -76.536" stroke="none" fill="rgb(0,0,0)" />
<path d="
  M -290.880 -74.376
  C -290.808 -78.552 -284.688 -78.336 -284.688 -74.880
  L -284.688 -70.704
  C -284.688 -66.672 -290.880 -67.248 -290.880 -70.488
  L -290.880 -74.376" stroke="none" fill="rgb(0,0,0)" />
<path d="
  M -290.016 -74.376
  L -290.016 -70.920
  C -290.016 -67.968 -285.552 -67.824 -285.552 -70.920
  L -285.552 -74.376
  C -285.552 -77.328 -289.944 -77.400 -290.016 -74.376" stroke="none" fill="rgb(0,0,0)" />
<path d="
  M -283.824 -74.376
  C -283.752 -78.552 -277.632 -78.336 -277.632 -74.880
  L -277.632 -70.704
  C -277.632 -66.672 -283.824 -67.248 -283.824 -70.488
  L -283.824 -74.376" stroke="none" fill="rgb(0,0,0)" />
<path d="
  M -282.960 -74.376
  L -282.960 -70.920
  C -282.960 -67.968 -278.496 -67.824 -278.496 -70.920
  L -278.496 -74.376
  C -278.496 -77.328 -282.888 -77.400 -282.960 -74.376" stroke="none" fill="rgb(0,0,0)" />
<path d="
  M -290.520 -6.336
  L -292.464 -6.336
  L -292.464 -7.272
  L -289.512 -7.272
  L -289.512 3.312
  L -290.520 3.312
  L -290.520 -6.336" stroke="none" fill="rgb(0,0,0)" />
<path d="
  M -286.200 -3.888
  C -286.128 -8.640 -279.216 -8.352 -279.216 -4.464
  L -279.216 0.216
  C -279.216 4.824 -286.200 4.176 -286.200 0.432
  L -286.200 -3.888" stroke="none" fill="rgb(0,0,0)" />
<path d="
  M -285.192 -3.888
  L -285.192 -0.072
  C -285.192 3.384 -280.224 3.528 -280.224 -0.072
  L -280.224 -3.888
  C -280.224 -7.272 -285.120 -7.344 -285.192 -3.888" stroke="none" fill="rgb(0,0,0)" />
<path d="
  M -278.280 -3.888
  C -278.208 -8.640 -271.296 -8.352 -271.296 -4.464
  L -271.296 0.216
  C -271.296 4.824 -278.280 4.176 -278.280 0.432
  L -278.280 -3.888" stroke="none" fill="rgb(0,0,0)" />
<path d="
  M -277.272 -3.888
  L -277.272 -0.072
  C -277.272 3.384 -272.304 3.528 -272.304 -0.072
  L -272.304 -3.888
  C -272.304 -7.272 -277.200 -7.344 -277.272 -3.888" stroke="none" fill="rgb(0,0,0)" />
<path d="
  M -271.944 -74.952
  C -271.224 -80.928 -262.368 -77.328 -267.264 -72.648
  L -270.648 -69.408
  L -265.896 -69.408
  L -265.896 -68.544
  L -271.944 -68.544
  L -271.944 -69.408
  L -267.696 -73.512
  C -265.896 -75.312 -267.336 -77.112 -268.848 -77.256
  C -269.784 -77.328 -271.008 -76.752 -271.008 -74.952
  L -271.944 -74.952" stroke="none" fill="rgb(0,0,0)" />
<path d="
  M -264.888 -74.952
  C -264.816 -79.128 -258.696 -78.912 -258.696 -75.456
  L -258.696 -71.280
  C -258.696 -67.248 -264.888 -67.824 -264.888 -71.064
  L -264.888 -74.952" stroke="none" fill="rgb(0,0,0)" />
<path d="
  M -264.024 -74.952
  L -264.024 -71.496
  C -264.024 -68.544 -259.560 -68.400 -259.560 -71.496
  L -259.560 -74.952
  C -259.560 -77.904 -263.952 -77.976 -264.024 -74.952" stroke="none" fill="rgb(0,0,0)" />
<path d="
  M -257.832 -74.952
  C -257.760 -79.128 -251.640 -78.912 -251.640 -75.456
  L -251.640 -71.280
  C -251.640 -67.248 -257.832 -67.824 -257.832 -71.064
  L -257.832 -74.952" stroke="none" fill="rgb(0,0,0)" />
<path d="
  M -256.968 -74.952
  L -256.968 -71.496
  C -256.968 -68.544 -252.504 -68.400 -252.504 -71.496
  L -252.504 -74.952
  C -252.504 -77.904 -256.896 -77.976 -256.968 -74.952" stroke="none" fill="rgb(0,0,0)" />
<path d="
  M -264.816 -3.888
  C -264.024 -10.656 -254.088 -6.552 -259.560 -1.368
  L -263.376 2.304
  L -258.048 2.304
  L -258.048 3.312
  L -264.816 3.312
  L -264.816 2.304
  L -260.064 -2.304
  C -258.048 -4.320 -259.632 -6.336 -261.360 -6.480
  C -262.368 -6.552 -263.736 -5.904 -263.736 -3.888
  L -264.816 -3.888" stroke="none" fill="rgb(0,0,0)" />
<path d="
  M -256.896 -3.888
  C -256.824 -8.640 -249.912 -8.352 -249.912 -4.464
  L -249.912 0.216
  C -249.912 4.824 -256.896 4.176 -256.896 0.432
  L -256.896 -3.888" stroke="none" fill="rgb(0,0,0)" />
<path d="
  M -255.888 -3.888
  L -255.888 -0.072
  C -255.888 3.384 -250.920 3.528 -250.920 -0.072
  L -250.920 -3.888
  C -250.920 -7.272 -255.816 -7.344 -255.888 -3.888" stroke="none" fill="rgb(0,0,0)" />
<path d="
  M -248.976 -3.888
  C -248.904 -8.640 -241.992 -8.352 -241.992 -4.464
  L -241.992 0.216
  C -241.992 4.824 -248.976 4.176 -248.976 0.432
  L -248.976 -3.888" stroke="none" fill="rgb(0,0,0)" />
<path d="
  M -247.968 -3.888
  L -247.968 -0.072
  C -247.968 3.384 -243.000 3.528 -243.000 -0.072
  L -243.000 -3.888
  C -243.000 -7.272 -247.896 -7.344 -247.968 -3.888" stroke="none" fill="rgb(0,0,0)" />
<path d="
  M -244.872 -75.672
  C -244.728 -78.840 -240.912 -78.696 -240.192 -76.536
  C -239.904 -75.528 -240.192 -74.376 -241.128 -74.016
  C -239.688 -73.296 -239.400 -72.144 -239.544 -70.992
  C -240.408 -67.392 -245.376 -67.824 -245.592 -71.496
  L -244.656 -71.496
  C -244.296 -68.328 -240.408 -69.120 -240.480 -71.424
  C -240.624 -73.152 -241.488 -73.368 -243.216 -73.512
  L -243.216 -74.304
  C -242.424 -74.232 -241.128 -74.592 -241.128 -75.816
  C -240.984 -77.328 -243.648 -78.192 -244.008 -75.672
  L -244.872 -75.672" stroke="none" fill="rgb(0,0,0)" />
<path d="
  M -238.536 -74.952
  C -238.464 -79.128 -232.344 -78.912 -232.344 -75.456
  L -232.344 -71.280
  C -232.344 -67.248 -238.536 -67.824 -238.536 -71.064
  L -238.536 -74.952" stroke="none" fill="rgb(0,0,0)" />
<path d="
  M -237.672 -74.952
  L -237.672 -71.496
  C -237.672 -68.544 -233.208 -68.400 -233.208 -71.496
  L -233.208 -74.952
  C -233.208 -77.904 -237.600 -77.976 -237.672 -74.952" stroke="none" fill="rgb(0,0,0)" />
<path d="
  M -231.480 -74.952
  C -231.408 -79.128 -225.288 -78.912 -225.288 -75.456
  L -225.288 -71.280
  C -225.288 -67.248 -231.480 -67.824 -231.480 -71.064
  L -231.480 -74.952" stroke="none" fill="rgb(0,0,0)" />
<path d="
  M -230.616 -74.952
  L -230.616 -71.496
  C -230.616 -68.544 -226.152 -68.400 -226.152 -71.496
  L -226.152 -74.952
  C -226.152 -77.904 -230.544 -77.976 -230.616 -74.952" stroke="none" fill="rgb(0,0,0)" />
<path d="
  M -232.200 -4.752
  C -231.984 -8.280 -227.736 -8.136 -226.944 -5.688
  C -226.584 -4.536 -226.944 -3.312 -227.952 -2.880
  C -226.368 -2.088 -226.008 -0.792 -226.224 0.504
  C -227.160 4.608 -232.776 4.176 -232.992 -0.072
  L -231.912 -0.072
  C -231.552 3.600 -227.160 2.592 -227.232 0.072
  C -227.376 -1.872 -228.384 -2.160 -230.328 -2.304
  L -230.328 -3.168
  C -229.392 -3.096 -227.952 -3.528 -227.952 -4.896
  C -227.808 -6.552 -230.760 -7.560 -231.192 -4.752
  L -232.200 -4.752" stroke="none" fill="rgb(0,0,0)" />
<path d="
  M -225.072 -3.888
  C -225.000 -8.640 -218.088 -8.352 -218.088 -4.464
  L -218.088 0.216
  C -218.088 4.824 -225.072 4.176 -225.072 0.432
  L -225.072 -3.888" stroke="none" fill="rgb(0,0,0)" />
<path d="
  M -224.064 -3.888
  L -224.064 -0.072
  C -224.064 3.384 -219.096 3.528 -219.096 -0.072
  L -219.096 -3.888
  C -219.096 -7.272 -223.992 -7.344 -224.064 -3.888" stroke="none" fill="rgb(0,0,0)" />
<path d="
  M -217.152 -3.888
  C -217.080 -8.640 -210.168 -8.352 -210.168 -4.464
  L -210.168 0.216
  C -210.168 4.824 -217.152 4.176 -217.152 0.432
  L -217.152 -3.888" stroke="none" fill="rgb(0,0,0)" />
<path d="
  M -216.144 -3.888
  L -216.144 -0.072
  C -216.144 3.384 -211.176 3.528 -211.176 -0.072
  L -211.176 -3.888
  C -211.176 -7.272 -216.072 -7.344 -216.144 -3.888" stroke="none" fill="rgb(0,0,0)" />
<path d="
  M -217.080 -77.904
  L -215.928 -77.904
  L -215.928 -71.064
  L -215.136 -71.064
  L -215.136 -70.200
  L -215.928 -70.200
  L -215.928 -68.544
  L -216.936 -68.544
  L -216.936 -70.200
  L -221.616 -70.200
  L -221.616 -71.064
  L -217.080 -77.904" stroke="none" fill="rgb(0,0,0)" />
<path d="
  M -216.936 -76.608
  L -220.536 -71.064
  L -216.936 -71.064
  L -216.936 -76.608" stroke="none" fill="rgb(0,0,0)" />
<path d="
  M -214.344 -74.952
  C -214.272 -79.128 -208.152 -78.912 -208.152 -75.456
  L -208.152 -71.280
  C -208.152 -67.248 -214.344 -67.824 -214.344 -71.064
  L -214.344 -74.952" stroke="none" fill="rgb(0,0,0)" />
<path d="
  M -213.480 -74.952
  L -213.480 -71.496
  C -213.480 -68.544 -209.016 -68.400 -209.016 -71.496
  L -209.016 -74.952
  C -209.016 -77.904 -213.408 -77.976 -213.480 -74.952" stroke="none" fill="rgb(0,0,0)" />
<path d="
  M -207.288 -74.952
  C -207.216 -79.128 -201.096 -78.912 -201.096 -75.456
  L -201.096 -71.280
  C -201.096 -67.248 -207.288 -67.824 -207.288 -71.064
  L -207.288 -74.952" stroke="none" fill="rgb(0,0,0)" />
<path d="
  M -206.424 -74.952
  L -206.424 -71.496
  C -206.424 -68.544 -201.960 -68.400 -201.960 -71.496
  L -201.960 -74.952
  C -201.960 -77.904 -206.352 -77.976 -206.424 -74.952" stroke="none" fill="rgb(0,0,0)" />
<path d="
  M -198.792 -7.272
  L -197.424 -7.272
  L -197.424 0.432
  L -196.560 0.432
  L -196.560 1.440
  L -197.424 1.440
  L -197.424 3.312
  L -198.576 3.312
  L -198.576 1.440
  L -203.832 1.440
  L -203.832 0.432
  L -198.792 -7.272" stroke="none" fill="rgb(0,0,0)" />
<path d="
  M -198.576 -5.760
  L -202.608 0.432
  L -198.576 0.432
  L -198.576 -5.760" stroke="none" fill="rgb(0,0,0)" />
<path d="
  M -195.696 -3.888
  C -195.624 -8.640 -188.712 -8.352 -188.712 -4.464
  L -188.712 0.216
  C -188.712 4.824 -195.696 4.176 -195.696 0.432
  L -195.696 -3.888" stroke="none" fill="rgb(0,0,0)" />
<path d="
  M -194.688 -3.888
  L -194.688 -0.072
  C -194.688 3.384 -189.720 3.528 -189.720 -0.072
  L -189.720 -3.888
  C -189.720 -7.272 -194.616 -7.344 -194.688 -3.888" stroke="none" fill="rgb(0,0,0)" />
<path d="
  M -187.776 -3.888
  C -187.704 -8.640 -180.792 -8.352 -180.792 -4.464
  L -180.792 0.216
  C -180.792 4.824 -187.776 4.176 -187.776 0.432
  L -187.776 -3.888" stroke="none" fill="rgb(0,0,0)" />
<path d="
  M -186.768 -3.888
  L -186.768 -0.072
  C -186.768 3.384 -181.800 3.528 -181.800 -0.072
  L -181.800 -3.888
  C -181.800 -7.272 -186.696 -7.344 -186.768 -3.888" stroke="none" fill="rgb(0,0,0)" />
<path d="
  M -195.696 -77.904
  L -191.520 -77.904
  L -191.520 -77.112
  L -195.048 -77.112
  L -195.552 -74.520
  C -193.392 -75.528 -191.304 -74.520 -190.800 -72.432
  C -190.296 -70.488 -191.664 -68.544 -193.752 -68.544
  C -195.552 -68.544 -196.776 -69.120 -197.136 -71.496
  L -196.200 -71.496
  C -196.056 -69.984 -193.968 -68.400 -192.384 -69.840
  C -191.376 -70.848 -191.376 -72.792 -192.888 -73.728
  C -193.752 -74.232 -195.048 -74.088 -195.768 -73.152
  L -196.632 -73.296
  L -195.696 -77.904" stroke="none" fill="rgb(0,0,0)" />
<path d="
  M -189.936 -74.952
  C -189.864 -79.128 -183.744 -78.912 -183.744 -75.456
  L -183.744 -71.280
  C -183.744 -67.248 -189.936 -67.824 -189.936 -71.064
  L -189.936 -74.952" stroke="none" fill="rgb(0,0,0)" />
<path d="
  M -189.072 -74.952
  L -189.072 -71.496
  C -189.072 -68.544 -184.608 -68.400 -184.608 -71.496
  L -184.608 -74.952
  C -184.608 -77.904 -189.000 -77.976 -189.072 -74.952" stroke="none" fill="rgb(0,0,0)" />
<path d="
  M -182.880 -74.952
  C -182.808 -79.128 -176.688 -78.912 -176.688 -75.456
  L -176.688 -71.280
  C -176.688 -67.248 -182.880 -67.824 -182.880 -71.064
  L -182.880 -74.952" stroke="none" fill="rgb(0,0,0)" />
<path d="
  M -182.016 -74.952
  L -182.016 -71.496
  C -182.016 -68.544 -177.552 -68.400 -177.552 -71.496
  L -177.552 -74.952
  C -177.552 -77.904 -181.944 -77.976 -182.016 -74.952" stroke="none" fill="rgb(0,0,0)" />
<path d="
  M -172.368 -7.272
  L -167.616 -7.272
  L -167.616 -6.336
  L -171.576 -6.336
  L -172.152 -3.456
  C -169.776 -4.536 -167.400 -3.456 -166.824 -1.080
  C -166.248 1.080 -167.832 3.384 -170.136 3.384
  C -172.152 3.384 -173.592 2.592 -173.952 -0.072
  L -172.944 -0.072
  C -172.728 1.656 -170.424 3.528 -168.624 1.800
  C -167.472 0.648 -167.472 -1.512 -169.200 -2.520
  C -170.136 -3.096 -171.576 -2.952 -172.440 -1.872
  L -173.376 -2.088
  L -172.368 -7.272" stroke="none" fill="rgb(0,0,0)" />
<path d="
  M -165.888 -3.888
  C -165.816 -8.640 -158.904 -8.352 -158.904 -4.464
  L -158.904 0.216
  C -158.904 4.824 -165.888 4.176 -165.888 0.432
  L -165.888 -3.888" stroke="none" fill="rgb(0,0,0)" />
<path d="
  M -164.880 -3.888
  L -164.880 -0.072
  C -164.880 3.384 -159.912 3.528 -159.912 -0.072
  L -159.912 -3.888
  C -159.912 -7.272 -164.808 -7.344 -164.880 -3.888" stroke="none" fill="rgb(0,0,0)" />
<path d="
  M -157.968 -3.888
  C -157.896 -8.640 -150.984 -8.352 -150.984 -4.464
  L -150.984 0.216
  C -150.984 4.824 -157.968 4.176 -157.968 0.432
  L -157.968 -3.888" stroke="none" fill="rgb(0,0,0)" />
<path d="
  M -156.960 -3.888
  L -156.960 -0.072
  C -156.960 3.384 -151.992 3.528 -151.992 -0.072
  L -151.992 -3.888
  C -151.992 -7.272 -156.888 -7.344 -156.960 -3.888" stroke="none" fill="rgb(0,0,0)" />
<path d="
  M -169.848 -74.088
  L -167.328 -77.904
  L -166.176 -77.904
  L -168.408 -74.736
  C -165.672 -75.600 -163.944 -73.368 -164.160 -71.424
  C -164.304 -69.768 -165.456 -68.400 -167.544 -68.400
  C -169.200 -68.400 -170.208 -69.408 -170.496 -70.488
  C -170.712 -71.208 -170.784 -72.792 -169.848 -74.088" stroke="none" fill="rgb(0,0,0)" />
<path d="
  M -169.128 -73.296
  C -170.064 -72.072 -169.632 -69.120 -167.400 -69.120
  C -165.960 -69.120 -164.736 -70.848 -165.456 -72.648
  C -166.104 -74.232 -168.048 -74.592 -169.128 -73.296" stroke="none" fill="rgb(0,0,0)" />
<path d="
  M -163.512 -74.952
  C -163.440 -79.128 -157.320 -78.912 -157.320 -75.456
  L -157.320 -71.280
  C -157.320 -67.248 -163.512 -67.824 -163.512 -71.064
  L -163.512 -74.952" stroke="none" fill="rgb(0,0,0)" />
<path d="
  M -162.648 -74.952
  L -162.648 -71.496
  C -162.648 -68.544 -158.184 -68.400 -158.184 -71.496
  L -158.184 -74.952
  C -158.184 -77.904 -162.576 -77.976 -162.648 -74.952" stroke="none" fill="rgb(0,0,0)" />
<path d="
  M -156.456 -74.952
  C -156.384 -79.128 -150.264 -78.912 -150.264 -75.456
  L -150.264 -71.280
  C -150.264 -67.248 -156.456 -67.824 -156.456 -71.064
  L -156.456 -74.952" stroke="none" fill="rgb(0,0,0)" />
<path d="
  M -155.592 -74.952
  L -155.592 -71.496
  C -155.592 -68.544 -151.128 -68.400 -151.128 -71.496
  L -151.128 -74.952
  C -151.128 -77.904 -155.520 -77.976 -155.592 -74.952" stroke="none" fill="rgb(0,0,0)" />
<path d="
  M -144.216 -2.952
  L -141.336 -7.272
  L -140.040 -7.272
  L -142.560 -3.672
  C -139.464 -4.680 -137.592 -2.160 -137.808 0.072
  C -137.952 1.872 -139.248 3.528 -141.624 3.528
  C -143.424 3.528 -144.576 2.304 -144.936 1.080
  C -145.152 0.288 -145.224 -1.512 -144.216 -2.952" stroke="none" fill="rgb(0,0,0)" />
<path d="
  M -143.352 -2.088
  C -144.432 -0.720 -143.928 2.592 -141.408 2.592
  C -139.824 2.592 -138.456 0.648 -139.248 -1.368
  C -139.968 -3.096 -142.200 -3.528 -143.352 -2.088" stroke="none" fill="rgb(0,0,0)" />
<path d="
  M -137.088 -3.888
  C -137.016 -8.640 -130.104 -8.352 -130.104 -4.464
  L -130.104 0.216
  C -130.104 4.824 -137.088 4.176 -137.088 0.432
  L -137.088 -3.888" stroke="none" fill="rgb(0,0,0)" />
<path d="
  M -136.080 -3.888
  L -136.080 -0.072
  C -136.080 3.384 -131.112 3.528 -131.112 -0.072
  L -131.112 -3.888
  C -131.112 -7.272 -136.008 -7.344 -136.080 -3.888" stroke="none" fill="rgb(0,0,0)" />
<path d="
  M -129.168 -3.888
  C -129.096 -8.640 -122.184 -8.352 -122.184 -4.464
  L -122.184 0.216
  C -122.184 4.824 -129.168 4.176 -129.168 0.432
  L -129.168 -3.888" stroke="none" fill="rgb(0,0,0)" />
<path d="
  M -128.160 -3.888
  L -128.160 -0.072
  C -128.160 3.384 -123.192 3.528 -123.192 -0.072
  L -123.192 -3.888
  C -123.192 -7.272 -128.088 -7.344 -128.160 -3.888" stroke="none" fill="rgb(0,0,0)" />
<path d="
  M -143.208 -68.544
  L -139.248 -77.112
  L -143.784 -77.112
  L -143.784 -77.904
  L -138.312 -77.904
  L -138.312 -77.040
  L -142.200 -68.544
  L -143.208 -68.544" stroke="none" fill="rgb(0,0,0)" />
<path d="
  M -137.088 -74.952
  C -137.016 -79.128 -130.896 -78.912 -130.896 -75.456
  L -130.896 -71.280
  C -130.896 -67.248 -137.088 -67.824 -137.088 -71.064
  L -137.088 -74.952" stroke="none" fill="rgb(0,0,0)" />
<path d="
  M -136.224 -74.952
  L -136.224 -71.496
  C -136.224 -68.544 -131.760 -68.400 -131.760 -71.496
  L -131.760 -74.952
  C -131.760 -77.904 -136.152 -77.976 -136.224 -74.952" stroke="none" fill="rgb(0,0,0)" />
<path d="
  M -130.032 -74.952
  C -129.960 -79.128 -123.840 -78.912 -123.840 -75.456
  L -123.840 -71.280
  C -123.840 -67.248 -130.032 -67.824 -130.032 -71.064
  L -130.032 -74.952" stroke="none" fill="rgb(0,0,0)" />
<path d="
  M -129.168 -74.952
  L -129.168 -71.496
  C -129.168 -68.544 -124.704 -68.400 -124.704 -71.496
  L -124.704 -74.952
  C -124.704 -77.904 -129.096 -77.976 -129.168 -74.952" stroke="none" fill="rgb(0,0,0)" />
<path d="
  M -113.112 3.312
  L -108.648 -6.336
  L -113.760 -6.336
  L -113.760 -7.272
  L -107.640 -7.272
  L -107.640 -6.264
  L -111.960 3.312
  L -113.112 3.312" stroke="none" fill="rgb(0,0,0)" />
<path d="
  M -106.272 -3.888
  C -106.200 -8.640 -99.288 -8.352 -99.288 -4.464
  L -99.288 0.216
  C -99.288 4.824 -106.272 4.176 -106.272 0.432
  L -106.272 -3.888" stroke="none" fill="rgb(0,0,0)" />
<path d="
  M -105.264 -3.888
  L -105.264 -0.072
  C -105.264 3.384 -100.296 3.528 -100.296 -0.072
  L -100.296 -3.888
  C -100.296 -7.272 -105.192 -7.344 -105.264 -3.888" stroke="none" fill="rgb(0,0,0)" />
<path d="
  M -98.352 -3.888
  C -98.280 -8.640 -91.368 -8.352 -91.368 -4.464
  L -91.368 0.216
  C -91.368 4.824 -98.352 4.176 -98.352 0.432
  L -98.352 -3.888" stroke="none" fill="rgb(0,0,0)" />
<path d="
  M -97.344 -3.888
  L -97.344 -0.072
  C -97.344 3.384 -92.376 3.528 -92.376 -0.072
  L -92.376 -3.888
  C -92.376 -7.272 -97.272 -7.344 -97.344 -3.888" stroke="none" fill="rgb(0,0,0)" />
<path d="
  M -259.272 -88.128
  C -258.624 -84.384 -253.656 -86.400 -255.312 -89.136
  C -256.248 -90.576 -260.064 -89.712 -260.064 -93.312
  C -260.064 -94.896 -258.624 -95.760 -257.112 -95.760
  C -255.312 -95.760 -254.088 -94.104 -254.232 -92.952
  L -255.240 -92.952
  C -255.888 -95.760 -258.912 -95.256 -259.056 -93.312
  C -259.200 -90.144 -254.664 -92.088 -253.872 -88.704
  C -253.512 -87.192 -254.736 -85.032 -257.040 -84.888
  C -258.696 -84.888 -260.208 -86.112 -260.424 -88.128
  L -259.272 -88.128" stroke="none" fill="rgb(0,0,0)" />
<path d="
  M -252.936 -91.152
  C -251.928 -96.480 -245.160 -97.704 -242.568 -92.880
  L -243.792 -92.880
  C -245.808 -96.552 -251.784 -94.896 -251.784 -90.504
  C -251.712 -84.888 -245.376 -85.176 -243.720 -87.768
  L -242.424 -87.768
  C -245.592 -82.656 -253.584 -85.032 -252.936 -91.152" stroke="none" fill="rgb(0,0,0)" />
<path d="
  M -237.384 -95.688
  L -236.160 -95.688
  L -231.624 -85.104
  L -232.776 -85.104
  L -234.216 -88.704
  L -239.400 -88.704
  L -240.912 -85.104
  L -241.992 -85.104
  L -237.384 -95.688" stroke="none" fill="rgb(0,0,0)" />
<path d="
  M -236.808 -94.680
  L -238.968 -89.712
  L -234.720 -89.712
  L -236.808 -94.680" stroke="none" fill="rgb(0,0,0)" />
<path d="
  M -230.400 -86.112
  L -226.008 -86.112
  L -226.008 -85.104
  L -231.408 -85.104
  L -231.408 -95.688
  L -230.400 -95.688
  L -230.400 -86.112" stroke="none" fill="rgb(0,0,0)" />
<path d="
  M -225.432 -85.104
  L -225.432 -95.688
  L -219.600 -95.688
  L -219.600 -94.680
  L -224.424 -94.680
  L -224.424 -90.936
  L -219.672 -90.936
  L -219.672 -89.928
  L -224.424 -89.928
  L -224.424 -86.112
  L -219.600 -86.112
  L -219.600 -85.104
  L -225.432 -85.104" stroke="none" fill="rgb(0,0,0)" />
<path d="
  M -210.096 -90.576
  C -210.096 -93.168 -207.720 -95.760 -204.408 -95.760
  C -201.240 -95.760 -198.792 -93.384 -198.792 -90.288
  C -198.792 -86.760 -201.960 -84.888 -204.552 -84.888
  C -207.216 -85.032 -210.096 -87.336 -210.096 -90.576" stroke="none" fill="rgb(0,0,0)" />
<path d="
  M -208.944 -90.720
  C -208.800 -87.336 -206.208 -85.824 -204.552 -85.824
  C -202.608 -85.968 -200.016 -86.976 -199.944 -90.288
  C -199.800 -92.952 -202.032 -94.896 -204.408 -94.896
  C -206.784 -94.896 -208.944 -92.880 -208.944 -90.720" stroke="none" fill="rgb(0,0,0)" />
<path d="
  M -197.208 -85.104
  L -197.208 -95.688
  L -191.808 -95.688
  L -191.808 -94.680
  L -196.200 -94.680
  L -196.200 -90.720
  L -191.952 -90.720
  L -191.952 -89.784
  L -196.200 -89.784
  L -196.200 -85.104
  L -197.208 -85.104" stroke="none" fill="rgb(0,0,0)" />
<path d="
  M -181.008 -85.104
  L -182.088 -85.104
  L -182.088 -95.688
  L -180.792 -95.688
  L -174.672 -86.904
  L -174.672 -95.688
  L -173.664 -95.688
  L -173.664 -85.104
  L -174.816 -85.104
  L -181.008 -94.320
  L -181.008 -85.104" stroke="none" fill="rgb(0,0,0)" />
<path d="
  M -167.904 -95.688
  L -166.680 -95.688
  L -162.144 -85.104
  L -163.296 -85.104
  L -164.736 -88.704
  L -169.920 -88.704
  L -171.432 -85.104
  L -172.512 -85.104
  L -167.904 -95.688" stroke="none" fill="rgb(0,0,0)" />
<path d="
  M -167.328 -94.680
  L -169.488 -89.712
  L -165.240 -89.712
  L -167.328 -94.680" stroke="none" fill="rgb(0,0,0)" />
<path d="
  M -161.928 -88.488
  L -161.928 -95.688
  L -160.776 -95.688
  L -160.776 -88.344
  C -160.776 -85.320 -155.808 -85.104 -155.808 -88.344
  L -155.808 -95.688
  L -154.728 -95.688
  L -154.728 -88.344
  C -154.728 -84.096 -161.496 -83.232 -161.928 -88.488" stroke="none" fill="rgb(0,0,0)" />
<path d="
  M -151.200 -85.104
  L -151.200 -94.752
  L -153.648 -94.752
  L -153.648 -95.688
  L -147.672 -95.688
  L -147.672 -94.752
  L -150.192 -94.752
  L -150.192 -85.104
  L -151.200 -85.104" stroke="none" fill="rgb(0,0,0)" />
<path d="
  M -146.520 -85.104
  L -147.600 -85.104
  L -147.600 -95.688
  L -146.520 -95.688
  L -146.520 -85.104" stroke="none" fill="rgb(0,0,0)" />
<path d="
  M -144.720 -91.152
  C -143.712 -96.480 -136.944 -97.704 -134.352 -92.880
  L -135.576 -92.880
  C -137.592 -96.552 -143.568 -94.896 -143.568 -90.504
  C -143.496 -84.888 -137.160 -85.176 -135.504 -87.768
  L -134.208 -87.768
  C -137.376 -82.656 -145.368 -85.032 -144.720 -91.152" stroke="none" fill="rgb(0,0,0)" />
<path d="
  M -129.168 -95.688
  L -127.944 -95.688
  L -123.408 -85.104
  L -124.560 -85.104
  L -126.000 -88.704
  L -131.184 -88.704
  L -132.696 -85.104
  L -133.776 -85.104
  L -129.168 -95.688" stroke="none" fill="rgb(0,0,0)" />
<path d="
  M -128.592 -94.680
  L -130.752 -89.712
  L -126.504 -89.712
  L -128.592 -94.680" stroke="none" fill="rgb(0,0,0)" />
<path d="
  M -122.184 -86.112
  L -117.792 -86.112
  L -117.792 -85.104
  L -123.192 -85.104
  L -123.192 -95.688
  L -122.184 -95.688
  L -122.184 -86.112" stroke="none" fill="rgb(0,0,0)" />
<path d="
  M -108.432 -85.104
  L -108.432 -95.688
  L -106.848 -95.688
  L -103.032 -86.616
  L -99.144 -95.688
  L -97.488 -95.688
  L -97.488 -85.104
  L -98.640 -85.104
  L -98.640 -94.464
  L -102.528 -85.104
  L -103.464 -85.104
  L -107.424 -94.464
  L -107.424 -85.104
  L -108.432 -85.104" stroke="none" fill="rgb(0,0,0)" />
<path d="
  M -94.248 -85.104
  L -95.328 -85.104
  L -95.328 -95.688
  L -94.248 -95.688
  L -94.248 -85.104" stroke="none" fill="rgb(0,0,0)" />
<path d="
  M -91.008 -86.112
  L -86.616 -86.112
  L -86.616 -85.104
  L -92.016 -85.104
  L -92.016 -95.688
  L -91.008 -95.688
  L -91.008 -86.112" stroke="none" fill="rgb(0,0,0)" />
<path d="
  M -86.040 -85.104
  L -86.040 -95.688
  L -80.208 -95.688
  L -80.208 -94.680
  L -85.032 -94.680
  L -85.032 -90.936
  L -80.280 -90.936
  L -80.280 -89.928
  L -85.032 -89.928
  L -85.032 -86.112
  L -80.208 -86.112
  L -80.208 -85.104
  L -86.040 -85.104" stroke="none" fill="rgb(0,0,0)" />
<path d="
  M -77.904 -88.128
  C -77.256 -84.384 -72.288 -86.400 -73.944 -89.136
  C -74.880 -90.576 -78.696 -89.712 -78.696 -93.312
  C -78.696 -94.896 -77.256 -95.760 -75.744 -95.760
  C -73.944 -95.760 -72.720 -94.104 -72.864 -92.952
  L -73.872 -92.952
  C -74.520 -95.760 -77.544 -95.256 -77.688 -93.312
  C -77.832 -90.144 -73.296 -92.088 -72.504 -88.704
  C -72.144 -87.192 -73.368 -85.032 -75.672 -84.888
  C -77.328 -84.888 -78.840 -86.112 -79.056 -88.128
  L -77.904 -88.128" stroke="none" fill="rgb(0,0,0)" />
</g>
</svg>
