<?xml version="1.0" encoding="ISO-8859-1"?><!DOCTYPE svg PUBLIC "-//W3C//DTD SVG 1.1//EN" "http://www.w3.org/Graphics/SVG/1.1/DTD/svg11.dtd"><svg version="1.1" baseProfile="full" width="100%" height="100%" viewBox="-34.056 -1.512 71.496 68.040" xmlns="http://www.w3.org/2000/svg" xmlns:xlink="http://www.w3.org/1999/xlink">
<path d=" M -24.120 -9.576 L -24.120 -56.016 C -24.120 -65.016 -30.672 -64.080 -34.056 -64.080 L -34.056 -66.528 -5.544 -66.528 -5.544 -64.080 C -13.608 -64.080 -13.608 -60.048 -13.608 -56.664 L -13.608 -35.568 17.064 -35.568 17.064 -56.664 C 17.064 -63.144 12.384 -64.080 8.064 -64.080 L 8.064 -66.528 36.504 -66.528 36.504 -64.080 C 30.960 -64.080 27.576 -63.144 27.576 -55.080 L 27.576 -11.160 C 27.576 -8.064 26.928 -0.648 37.440 -0.648 L 37.440 1.512 8.064 1.512 8.064 -0.648 C 14.544 -2.448 17.064 -0.648 17.064 -12.096 L 17.064 -30.672 -13.608 -30.672 -13.608 -9.000 C -13.608 -3.096 -12.096 -2.448 -4.608 -0.648 L -4.608 1.512 -34.056 1.512 -34.056 -0.648 C -25.056 -1.512 -24.120 -4.032 -24.120 -9.576" stroke="none" />
</svg>
