<?xml version="1.0" encoding="ISO-8859-1"?><!DOCTYPE svg PUBLIC "-//W3C//DTD SVG 1.1//EN" "http://www.w3.org/Graphics/SVG/1.1/DTD/svg11.dtd"><svg version="1.1" baseProfile="full" width="100%" height="100%" viewBox="-43.920 -32.976 87.768 65.880" xmlns="http://www.w3.org/2000/svg" xmlns:xlink="http://www.w3.org/1999/xlink">
<g>
<g>
<g>
<path d="
  M 33.768 -3.744
  L 34.488 -3.600
  L 33.768 -3.528
  L 33.768 -3.744" stroke="none" fill="rgb(255,255,54)" />
<path d="
  M 31.608 -12.744
  L 32.256 -13.176
  L 31.464 -12.960
  L 31.608 -12.744" stroke="none" fill="rgb(255,255,54)" />
<path d="
  M 25.848 -20.088
  L 26.208 -20.664
  L 25.704 -20.160
  L 25.848 -20.088" stroke="none" fill="rgb(255,255,54)" />
<path d="
  M 17.496 -24.336
  L 17.496 -24.696
  L 17.280 -24.336
  L 17.496 -24.336" stroke="none" fill="rgb(255,255,54)" />
<path d="
  M 7.920 -24.624
  L 7.776 -24.984
  L 7.776 -24.624
  L 7.920 -24.624" stroke="none" fill="rgb(255,255,54)" />
<path d="
  M -0.720 -20.664
  L -1.296 -21.168
  L -0.936 -20.448
  L -0.720 -20.664" stroke="none" fill="rgb(255,255,54)" />
<path d="
  M -9.360 -3.672
  L -10.080 -3.600
  L -9.360 -3.528
  L -9.360 -3.672" stroke="none" fill="rgb(255,255,54)" />
<path d="
  M 7.704 17.568
  L 7.704 18.000
  L 7.848 17.640
  L 7.704 17.568" stroke="none" fill="rgb(255,255,54)" />
<path d="
  M 16.920 17.496
  L 17.136 17.928
  L 17.136 17.496
  L 16.920 17.496" stroke="none" fill="rgb(255,255,54)" />
<path d="
  M 25.776 13.176
  L 26.496 13.896
  L 26.064 12.888
  L 25.776 13.176" stroke="none" fill="rgb(255,255,54)" />
<path d="
  M 31.536 5.832
  L 32.760 6.336
  L 31.680 5.472
  C 31.824 5.472 31.680 5.688 31.536 5.832" stroke="none" fill="rgb(255,255,54)" />
<path d="
  M 33.768 -3.744
  L 32.184 -4.032
  C 32.256 -3.744 32.256 -3.528 32.256 -3.312
  L 33.768 -3.528
  L 33.768 -3.744" stroke="none" fill="rgb(255,255,67)" />
<path d="
  M 31.608 -12.744
  L 30.384 -11.808
  C 30.384 -12.024 30.168 -12.240 29.880 -12.600
  L 31.464 -12.960
  L 31.608 -12.744" stroke="none" fill="rgb(255,255,67)" />
<path d="
  M 25.848 -20.088
  L 25.056 -18.720
  C 24.840 -19.008 24.696 -19.224 24.480 -19.224
  L 25.704 -20.160
  L 25.848 -20.088" stroke="none" fill="rgb(255,255,67)" />
<path d="
  M 17.496 -24.336
  L 17.280 -22.680
  C 16.920 -22.896 16.848 -22.968 16.776 -22.896
  L 17.280 -24.336
  L 17.496 -24.336" stroke="none" fill="rgb(255,255,67)" />
<path d="
  M 7.920 -24.624
  L 8.496 -23.040
  C 8.424 -23.184 8.208 -23.184 7.848 -22.968
  L 7.776 -24.624
  L 7.920 -24.624" stroke="none" fill="rgb(255,255,67)" />
<path d="
  M -0.720 -20.664
  L 0.360 -19.584
  C 0.288 -19.584 0.072 -19.368 -0.072 -19.224
  L -0.936 -20.448
  L -0.720 -20.664" stroke="none" fill="rgb(255,255,67)" />
<path d="
  M -9.360 -3.672
  L -7.848 -3.888
  C -7.848 -3.672 -7.848 -3.384 -7.848 -3.240
  L -9.360 -3.528
  L -9.360 -3.672" stroke="none" fill="rgb(255,255,67)" />
<path d="
  M 7.704 17.568
  L 7.848 16.056
  C 8.208 16.200 8.424 16.200 8.496 16.128
  L 7.848 17.640
  L 7.704 17.568" stroke="none" fill="rgb(255,255,67)" />
<path d="
  M 16.920 17.496
  L 16.488 16.056
  C 16.560 16.128 16.848 16.056 17.208 15.840
  L 17.136 17.496
  L 16.920 17.496" stroke="none" fill="rgb(255,255,67)" />
<path d="
  M 25.776 13.176
  L 24.768 12.096
  C 24.984 11.952 25.200 11.808 25.416 11.520
  L 26.064 12.888
  L 25.776 13.176" stroke="none" fill="rgb(255,255,67)" />
<path d="
  M 31.536 5.832
  L 30.096 5.328
  C 30.384 4.968 30.528 4.608 30.528 4.536
  L 31.680 5.472
  C 31.824 5.472 31.680 5.688 31.536 5.832" stroke="none" fill="rgb(255,255,67)" />
<path d="
  M -5.688 -12.384
  L -6.768 -12.600
  L -5.832 -12.024
  C -5.976 -12.024 -5.832 -12.096 -5.688 -12.384" stroke="none" fill="rgb(255,255,67)" />
<path d="
  M -6.048 4.752
  L -7.200 5.472
  L -5.760 5.112
  C -6.048 4.896 -6.048 4.752 -6.048 4.752" stroke="none" fill="rgb(255,255,67)" />
<path d="
  M -0.576 11.880
  L -1.008 12.600
  L -0.360 12.096
  L -0.576 11.880" stroke="none" fill="rgb(255,255,67)" />
<path d="
  M 32.184 -4.032
  L 30.600 -4.392
  C 30.744 -3.960 30.744 -3.528 30.744 -3.024
  L 32.256 -3.312
  C 32.256 -3.528 32.256 -3.744 32.184 -4.032" stroke="none" fill="rgb(255,255,77)" />
<path d="
  M 30.384 -11.808
  L 29.088 -11.016
  C 28.944 -11.376 28.728 -11.808 28.368 -12.240
  L 29.880 -12.600
  C 30.168 -12.240 30.384 -12.024 30.384 -11.808" stroke="none" fill="rgb(255,255,77)" />
<path d="
  M 25.056 -18.720
  L 24.120 -17.424
  C 23.976 -17.784 23.616 -18.000 23.256 -18.216
  L 24.480 -19.224
  C 24.696 -19.224 24.840 -19.008 25.056 -18.720" stroke="none" fill="rgb(255,255,77)" />
<path d="
  M 17.280 -22.680
  L 17.136 -21.240
  C 16.776 -21.456 16.416 -21.528 16.200 -21.528
  L 16.776 -22.896
  C 16.848 -22.968 16.920 -22.896 17.280 -22.680" stroke="none" fill="rgb(255,255,77)" />
<path d="
  M 8.496 -23.040
  L 9.144 -21.744
  C 8.784 -21.600 8.424 -21.600 7.920 -21.456
  L 7.848 -22.968
  C 8.208 -23.184 8.424 -23.184 8.496 -23.040" stroke="none" fill="rgb(255,255,77)" />
<path d="
  M 0.360 -19.584
  L 1.512 -18.504
  C 1.152 -18.360 0.864 -18.144 0.720 -17.784
  L -0.072 -19.224
  C 0.072 -19.368 0.288 -19.584 0.360 -19.584" stroke="none" fill="rgb(255,255,77)" />
<path d="
  M -5.688 -12.384
  L -4.176 -11.880
  C -4.392 -11.664 -4.536 -11.376 -4.608 -11.088
  L -5.832 -12.024
  C -5.976 -12.024 -5.832 -12.096 -5.688 -12.384" stroke="none" fill="rgb(255,255,77)" />
<path d="
  M -7.848 -3.888
  L -6.192 -4.104
  C -6.336 -3.672 -6.336 -3.312 -6.192 -2.952
  L -7.848 -3.240
  C -7.848 -3.384 -7.848 -3.672 -7.848 -3.888" stroke="none" fill="rgb(255,255,77)" />
<path d="
  M -6.048 4.752
  L -4.752 3.960
  C -4.680 4.176 -4.536 4.392 -4.320 4.752
  L -5.760 5.112
  C -6.048 4.896 -6.048 4.752 -6.048 4.752" stroke="none" fill="rgb(255,255,77)" />
<path d="
  M -0.576 11.880
  L 0.360 10.512
  C 0.432 10.800 0.720 11.016 0.864 11.088
  L -0.360 12.096
  L -0.576 11.880" stroke="none" fill="rgb(255,255,77)" />
<path d="
  M 7.848 16.056
  L 7.920 14.472
  C 8.424 14.688 8.784 14.760 9.144 14.760
  L 8.496 16.128
  C 8.424 16.200 8.208 16.200 7.848 16.056" stroke="none" fill="rgb(255,255,77)" />
<path d="
  M 16.488 16.056
  L 16.056 14.616
  C 16.416 14.616 16.776 14.472 17.208 14.256
  L 17.208 15.840
  C 16.848 16.056 16.560 16.128 16.488 16.056" stroke="none" fill="rgb(255,255,77)" />
<path d="
  M 24.768 12.096
  L 23.616 10.872
  C 24.048 10.728 24.408 10.440 24.696 10.008
  L 25.416 11.520
  C 25.200 11.808 24.984 11.952 24.768 12.096" stroke="none" fill="rgb(255,255,77)" />
<path d="
  M 30.096 5.328
  L 28.728 4.752
  C 29.016 4.320 29.160 3.888 29.376 3.528
  L 30.528 4.536
  C 30.528 4.608 30.384 4.968 30.096 5.328" stroke="none" fill="rgb(255,255,77)" />
<path d="
  M 30.600 -4.392
  L 29.088 -4.680
  C 29.160 -4.032 29.160 -3.528 29.088 -2.880
  L 30.744 -3.024
  C 30.744 -3.528 30.744 -3.960 30.600 -4.392" stroke="none" fill="rgb(255,255,87)" />
<path d="
  M 29.088 -11.016
  L 27.720 -10.152
  C 27.576 -10.728 27.288 -11.304 26.856 -12.024
  L 28.368 -12.240
  C 28.728 -11.808 28.944 -11.376 29.088 -11.016" stroke="none" fill="rgb(255,255,87)" />
<path d="
  M 24.120 -17.424
  L 23.400 -16.200
  C 22.968 -16.560 22.536 -16.920 22.104 -17.280
  L 23.256 -18.216
  C 23.616 -18.000 23.976 -17.784 24.120 -17.424" stroke="none" fill="rgb(255,255,87)" />
<path d="
  M 17.136 -21.240
  L 16.920 -19.656
  C 16.416 -19.944 15.984 -20.016 15.624 -20.088
  L 16.200 -21.528
  C 16.416 -21.528 16.776 -21.456 17.136 -21.240" stroke="none" fill="rgb(255,255,87)" />
<path d="
  M 9.144 -21.744
  L 9.648 -20.160
  C 9.216 -20.160 8.640 -20.088 8.064 -19.800
  L 7.920 -21.456
  C 8.424 -21.600 8.784 -21.600 9.144 -21.744" stroke="none" fill="rgb(255,255,87)" />
<path d="
  M 1.512 -18.504
  L 2.520 -17.496
  C 2.232 -17.208 1.800 -16.848 1.440 -16.488
  L 0.720 -17.784
  C 0.864 -18.144 1.152 -18.360 1.512 -18.504" stroke="none" fill="rgb(255,255,87)" />
<path d="
  M -4.176 -11.880
  L -2.736 -11.448
  C -2.952 -11.016 -3.168 -10.728 -3.312 -10.224
  L -4.608 -11.088
  C -4.536 -11.376 -4.392 -11.664 -4.176 -11.880" stroke="none" fill="rgb(255,255,87)" />
<path d="
  M -6.192 -4.104
  L -4.680 -4.320
  C -4.752 -3.744 -4.752 -3.240 -4.680 -2.808
  L -6.192 -2.952
  C -6.336 -3.312 -6.336 -3.672 -6.192 -4.104" stroke="none" fill="rgb(255,255,87)" />
<path d="
  M -4.752 3.960
  L -3.456 3.096
  C -3.240 3.528 -3.096 3.888 -2.808 4.320
  L -4.320 4.752
  C -4.536 4.392 -4.680 4.176 -4.752 3.960" stroke="none" fill="rgb(255,255,87)" />
<path d="
  M 0.360 10.512
  L 1.152 9.288
  C 1.440 9.648 1.800 9.936 2.160 10.080
  L 0.864 11.088
  C 0.720 11.016 0.432 10.800 0.360 10.512" stroke="none" fill="rgb(255,255,87)" />
<path d="
  M 7.920 14.472
  L 8.136 12.960
  C 8.784 13.176 9.288 13.248 9.720 13.248
  L 9.144 14.760
  C 8.784 14.760 8.424 14.688 7.920 14.472" stroke="none" fill="rgb(255,255,87)" />
<path d="
  M 16.056 14.616
  L 15.480 13.176
  C 16.056 13.032 16.704 12.888 17.280 12.600
  L 17.208 14.256
  C 16.776 14.472 16.416 14.616 16.056 14.616" stroke="none" fill="rgb(255,255,87)" />
<path d="
  M 23.616 10.872
  L 22.608 9.936
  C 23.040 9.576 23.616 9.216 24.048 8.640
  L 24.696 10.008
  C 24.408 10.440 24.048 10.728 23.616 10.872" stroke="none" fill="rgb(255,255,87)" />
<path d="
  M 28.728 4.752
  L 27.288 4.176
  C 27.648 3.600 27.936 3.096 28.008 2.520
  L 29.376 3.528
  C 29.160 3.888 29.016 4.320 28.728 4.752" stroke="none" fill="rgb(255,255,87)" />
<path d="
  M 29.088 -4.680
  L 27.504 -5.040
  C 27.648 -4.248 27.648 -3.384 27.576 -2.664
  L 29.088 -2.880
  C 29.160 -3.528 29.160 -4.032 29.088 -4.680" stroke="none" fill="rgb(255,255,97)" />
<path d="
  M 27.720 -10.152
  L 26.496 -9.288
  C 26.208 -10.008 25.848 -10.872 25.200 -11.664
  L 26.856 -12.024
  C 27.288 -11.304 27.576 -10.728 27.720 -10.152" stroke="none" fill="rgb(255,255,97)" />
<path d="
  M 23.400 -16.200
  L 22.536 -14.760
  C 21.960 -15.408 21.456 -15.840 20.808 -16.200
  L 22.104 -17.280
  C 22.536 -16.920 22.968 -16.560 23.400 -16.200" stroke="none" fill="rgb(255,255,97)" />
<path d="
  M 16.920 -19.656
  L 16.776 -18.144
  C 16.128 -18.360 15.624 -18.576 14.976 -18.576
  L 15.624 -20.088
  C 15.984 -20.016 16.416 -19.944 16.920 -19.656" stroke="none" fill="rgb(255,255,97)" />
<path d="
  M 9.648 -20.160
  L 10.296 -18.720
  C 9.576 -18.720 8.856 -18.576 8.136 -18.288
  L 8.064 -19.800
  C 8.640 -20.088 9.216 -20.160 9.648 -20.160" stroke="none" fill="rgb(255,255,97)" />
<path d="
  M 2.520 -17.496
  L 3.744 -16.344
  C 3.240 -16.056 2.664 -15.696 2.232 -15.048
  L 1.440 -16.488
  C 1.800 -16.848 2.232 -17.208 2.520 -17.496" stroke="none" fill="rgb(255,255,97)" />
<path d="
  M -2.736 -11.448
  L -1.080 -11.088
  C -1.656 -10.512 -1.872 -9.864 -2.088 -9.360
  L -3.312 -10.224
  C -3.168 -10.728 -2.952 -11.016 -2.736 -11.448" stroke="none" fill="rgb(255,255,97)" />
<path d="
  M -4.680 -4.320
  L -3.168 -4.464
  C -3.240 -3.888 -3.240 -3.168 -3.168 -2.520
  L -4.680 -2.808
  C -4.752 -3.240 -4.752 -3.744 -4.680 -4.320" stroke="none" fill="rgb(255,255,97)" />
<path d="
  M -3.456 3.096
  L -2.088 2.232
  C -1.872 2.808 -1.656 3.312 -1.152 3.960
  L -2.808 4.320
  C -3.096 3.888 -3.240 3.528 -3.456 3.096" stroke="none" fill="rgb(255,255,97)" />
<path d="
  M 1.152 9.288
  L 1.944 7.920
  C 2.448 8.496 2.880 8.856 3.384 9.072
  L 2.160 10.080
  C 1.800 9.936 1.440 9.648 1.152 9.288" stroke="none" fill="rgb(255,255,97)" />
<path d="
  M 8.136 12.960
  L 8.208 11.376
  C 8.928 11.592 9.720 11.808 10.440 11.808
  L 9.720 13.248
  C 9.288 13.248 8.784 13.176 8.136 12.960" stroke="none" fill="rgb(255,255,97)" />
<path d="
  M 15.480 13.176
  L 15.048 11.592
  C 15.768 11.592 16.560 11.376 17.424 11.016
  L 17.280 12.600
  C 16.704 12.888 16.056 13.032 15.480 13.176" stroke="none" fill="rgb(255,255,97)" />
<path d="
  M 22.608 9.936
  L 21.456 8.712
  C 22.176 8.352 22.824 7.776 23.328 7.128
  L 24.048 8.640
  C 23.616 9.216 23.040 9.576 22.608 9.936" stroke="none" fill="rgb(255,255,97)" />
<path d="
  M 27.288 4.176
  L 25.776 3.600
  C 26.280 2.880 26.568 2.160 26.784 1.440
  L 28.008 2.520
  C 27.936 3.096 27.648 3.600 27.288 4.176" stroke="none" fill="rgb(255,255,97)" />
<path d="
  M 27.504 -5.040
  L 25.848 -5.328
  C 26.064 -4.320 26.064 -3.384 25.920 -2.448
  L 27.576 -2.664
  C 27.648 -3.384 27.648 -4.248 27.504 -5.040" stroke="none" fill="rgb(255,255,108)" />
<path d="
  M 26.496 -9.288
  L 25.128 -8.352
  C 24.768 -9.360 24.336 -10.368 23.616 -11.304
  L 25.200 -11.664
  C 25.848 -10.872 26.208 -10.008 26.496 -9.288" stroke="none" fill="rgb(255,255,108)" />
<path d="
  M 22.536 -14.760
  L 21.744 -13.536
  C 21.024 -14.184 20.304 -14.688 19.584 -15.120
  L 20.808 -16.200
  C 21.456 -15.840 21.960 -15.408 22.536 -14.760" stroke="none" fill="rgb(255,255,108)" />
<path d="
  M 16.776 -18.144
  L 16.704 -16.488
  C 15.840 -16.848 15.048 -17.064 14.328 -17.136
  L 14.976 -18.576
  C 15.624 -18.576 16.128 -18.360 16.776 -18.144" stroke="none" fill="rgb(255,255,108)" />
<path d="
  M 10.296 -18.720
  L 10.944 -17.208
  C 10.008 -17.136 9.144 -17.064 8.136 -16.704
  L 8.136 -18.288
  C 8.856 -18.576 9.576 -18.720 10.296 -18.720" stroke="none" fill="rgb(255,255,108)" />
<path d="
  M 3.744 -16.344
  L 4.824 -15.120
  C 4.248 -14.760 3.600 -14.328 3.024 -13.824
  L 2.232 -15.048
  C 2.664 -15.696 3.240 -16.056 3.744 -16.344" stroke="none" fill="rgb(255,255,108)" />
<path d="
  M -1.080 -11.088
  L 0.432 -10.728
  C -0.072 -10.008 -0.432 -9.144 -0.720 -8.424
  L -2.088 -9.360
  C -1.872 -9.864 -1.656 -10.512 -1.080 -11.088" stroke="none" fill="rgb(255,255,108)" />
<path d="
  M -3.168 -4.464
  L -1.512 -4.680
  C -1.656 -3.888 -1.656 -3.024 -1.512 -2.232
  L -3.168 -2.520
  C -3.240 -3.168 -3.240 -3.888 -3.168 -4.464" stroke="none" fill="rgb(255,255,108)" />
<path d="
  M -2.088 2.232
  L -0.720 1.368
  C -0.432 2.088 -0.072 2.808 0.360 3.600
  L -1.152 3.960
  C -1.656 3.312 -1.872 2.808 -2.088 2.232" stroke="none" fill="rgb(255,255,108)" />
<path d="
  M 1.944 7.920
  L 2.808 6.552
  C 3.384 7.200 4.032 7.632 4.608 8.136
  L 3.384 9.072
  C 2.880 8.856 2.448 8.496 1.944 7.920" stroke="none" fill="rgb(255,255,108)" />
<path d="
  M 8.208 11.376
  L 8.280 9.720
  C 9.288 10.080 10.224 10.296 11.088 10.296
  L 10.440 11.808
  C 9.720 11.808 8.928 11.592 8.208 11.376" stroke="none" fill="rgb(255,255,108)" />
<path d="
  M 15.048 11.592
  L 14.544 10.080
  C 15.408 10.008 16.416 9.720 17.424 9.360
  L 17.424 11.016
  C 16.560 11.376 15.768 11.592 15.048 11.592" stroke="none" fill="rgb(255,255,108)" />
<path d="
  M 21.456 8.712
  L 20.448 7.560
  C 21.240 7.056 21.960 6.336 22.608 5.616
  L 23.328 7.128
  C 22.824 7.776 22.176 8.352 21.456 8.712" stroke="none" fill="rgb(255,255,108)" />
<path d="
  M 25.776 3.600
  L 24.336 3.096
  C 24.840 2.160 25.200 1.296 25.416 0.360
  L 26.784 1.440
  C 26.568 2.160 26.280 2.880 25.776 3.600" stroke="none" fill="rgb(255,255,108)" />
<path d="
  M 25.848 -5.328
  L 24.264 -5.688
  C 24.480 -4.464 24.624 -3.312 24.336 -2.232
  L 25.920 -2.448
  C 26.064 -3.384 26.064 -4.320 25.848 -5.328" stroke="none" fill="rgb(255,255,120)" />
<path d="
  M 25.128 -8.352
  L 23.760 -7.344
  C 23.400 -8.640 22.824 -9.864 21.888 -10.872
  L 23.616 -11.304
  C 24.336 -10.368 24.768 -9.360 25.128 -8.352" stroke="none" fill="rgb(255,255,120)" />
<path d="
  M 21.744 -13.536
  L 20.880 -12.168
  C 20.088 -12.960 19.224 -13.608 18.216 -14.040
  L 19.584 -15.120
  C 20.304 -14.688 21.024 -14.184 21.744 -13.536" stroke="none" fill="rgb(255,255,120)" />
<path d="
  M 16.704 -16.488
  L 16.488 -14.976
  C 15.624 -15.336 14.688 -15.624 13.824 -15.624
  L 14.328 -17.136
  C 15.048 -17.064 15.840 -16.848 16.704 -16.488" stroke="none" fill="rgb(255,255,120)" />
<path d="
  M 10.944 -17.208
  L 11.448 -15.696
  C 10.368 -15.696 9.288 -15.480 8.208 -15.048
  L 8.136 -16.704
  C 9.144 -17.064 10.008 -17.136 10.944 -17.208" stroke="none" fill="rgb(255,255,120)" />
<path d="
  M 4.824 -15.120
  L 6.048 -13.968
  C 5.256 -13.608 4.464 -13.104 3.744 -12.456
  L 3.024 -13.824
  C 3.600 -14.328 4.248 -14.760 4.824 -15.120" stroke="none" fill="rgb(255,255,120)" />
<path d="
  M 0.432 -10.728
  L 2.088 -10.224
  C 1.368 -9.432 0.864 -8.424 0.648 -7.488
  L -0.720 -8.424
  C -0.432 -9.144 -0.072 -10.008 0.432 -10.728" stroke="none" fill="rgb(255,255,120)" />
<path d="
  M -1.512 -4.680
  L 0.072 -4.968
  C -0.072 -3.960 -0.072 -2.952 0.072 -1.944
  L -1.512 -2.232
  C -1.656 -3.024 -1.656 -3.888 -1.512 -4.680" stroke="none" fill="rgb(255,255,120)" />
<path d="
  M -0.720 1.368
  L 0.648 0.576
  C 0.864 1.440 1.368 2.376 1.944 3.168
  L 0.360 3.600
  C -0.072 2.808 -0.432 2.088 -0.720 1.368" stroke="none" fill="rgb(255,255,120)" />
<path d="
  M 2.808 6.552
  L 3.600 5.328
  C 4.320 6.048 5.040 6.696 5.976 7.056
  L 4.608 8.136
  C 4.032 7.632 3.384 7.200 2.808 6.552" stroke="none" fill="rgb(255,255,120)" />
<path d="
  M 8.280 9.720
  L 8.496 8.208
  C 9.576 8.568 10.656 8.712 11.736 8.712
  L 11.088 10.296
  C 10.224 10.296 9.288 10.080 8.280 9.720" stroke="none" fill="rgb(255,255,120)" />
<path d="
  M 14.544 10.080
  L 14.040 8.640
  C 15.264 8.496 16.416 8.208 17.496 7.560
  L 17.424 9.360
  C 16.416 9.720 15.408 10.008 14.544 10.080" stroke="none" fill="rgb(255,255,120)" />
<path d="
  M 20.448 7.560
  L 19.296 6.480
  C 20.304 5.832 21.168 4.968 21.888 3.960
  L 22.608 5.616
  C 21.960 6.336 21.240 7.056 20.448 7.560" stroke="none" fill="rgb(255,255,120)" />
<path d="
  M 24.336 3.096
  L 22.824 2.520
  C 23.544 1.512 23.904 0.432 24.120 -0.648
  L 25.416 0.360
  C 25.200 1.296 24.840 2.160 24.336 3.096" stroke="none" fill="rgb(255,255,120)" />
<path d="
  M 24.264 -5.688
  L 22.536 -6.048
  C 22.968 -4.680 23.040 -3.312 22.680 -1.944
  L 24.336 -2.232
  C 24.624 -3.312 24.480 -4.464 24.264 -5.688" stroke="none" fill="rgb(255,255,131)" />
<path d="
  M 23.760 -7.344
  L 22.464 -6.480
  C 22.176 -7.992 21.384 -9.360 20.304 -10.512
  L 21.888 -10.872
  C 22.824 -9.864 23.400 -8.640 23.760 -7.344" stroke="none" fill="rgb(255,255,131)" />
<path d="
  M 20.880 -12.168
  L 20.016 -10.872
  C 19.224 -11.808 18.144 -12.528 16.920 -13.104
  L 18.216 -14.040
  C 19.224 -13.608 20.088 -12.960 20.880 -12.168" stroke="none" fill="rgb(255,255,131)" />
<path d="
  M 16.488 -14.976
  L 16.344 -13.464
  C 15.264 -13.896 14.256 -14.040 13.176 -14.040
  L 13.824 -15.624
  C 14.688 -15.624 15.624 -15.336 16.488 -14.976" stroke="none" fill="rgb(255,255,131)" />
<path d="
  M 11.448 -15.696
  L 12.096 -14.256
  C 10.800 -14.256 9.576 -13.968 8.280 -13.536
  L 8.208 -15.048
  C 9.288 -15.480 10.368 -15.696 11.448 -15.696" stroke="none" fill="rgb(255,255,131)" />
<path d="
  M 6.048 -13.968
  L 7.128 -12.888
  C 6.264 -12.528 5.328 -11.808 4.536 -11.088
  L 3.744 -12.456
  C 4.464 -13.104 5.256 -13.608 6.048 -13.968" stroke="none" fill="rgb(255,255,131)" />
<path d="
  M 2.088 -10.224
  L 3.672 -9.792
  C 2.808 -8.928 2.232 -7.704 1.944 -6.552
  L 0.648 -7.488
  C 0.864 -8.424 1.368 -9.432 2.088 -10.224" stroke="none" fill="rgb(255,255,131)" />
<path d="
  M 0.072 -4.968
  L 1.728 -5.112
  C 1.368 -4.032 1.440 -2.880 1.800 -1.728
  L 0.072 -1.944
  C -0.072 -2.952 -0.072 -3.960 0.072 -4.968" stroke="none" fill="rgb(255,255,131)" />
<path d="
  M 0.648 0.576
  L 2.088 -0.360
  C 2.232 0.720 2.808 1.800 3.600 2.736
  L 1.944 3.168
  C 1.368 2.376 0.864 1.440 0.648 0.576" stroke="none" fill="rgb(255,255,131)" />
<path d="
  M 3.600 5.328
  L 4.464 3.960
  C 5.256 4.896 6.120 5.616 7.200 6.048
  L 5.976 7.056
  C 5.040 6.696 4.320 6.048 3.600 5.328" stroke="none" fill="rgb(255,255,131)" />
<path d="
  M 8.496 8.208
  L 8.568 6.552
  C 9.864 7.128 11.160 7.272 12.456 7.200
  L 11.736 8.712
  C 10.656 8.712 9.576 8.568 8.496 8.208" stroke="none" fill="rgb(255,255,131)" />
<path d="
  M 14.040 8.640
  L 13.536 7.056
  C 14.976 7.056 16.344 6.552 17.568 5.688
  L 17.496 7.560
  C 16.416 8.208 15.264 8.496 14.040 8.640" stroke="none" fill="rgb(255,255,131)" />
<path d="
  M 19.296 6.480
  L 18.144 5.328
  C 19.440 4.608 20.448 3.600 21.096 2.232
  L 21.888 3.960
  C 21.168 4.968 20.304 5.832 19.296 6.480" stroke="none" fill="rgb(255,255,131)" />
<path d="
  M 22.824 2.520
  L 21.384 1.872
  C 22.176 0.792 22.608 -0.432 22.608 -1.800
  L 24.120 -0.648
  C 23.904 0.432 23.544 1.512 22.824 2.520" stroke="none" fill="rgb(255,255,131)" />
<path d="
  M 22.536 -6.048
  L 21.888 -6.120
  L 22.464 -6.480
  C 22.176 -7.992 21.384 -9.360 20.304 -10.512
  L 19.728 -10.440
  L 20.016 -10.872
  C 19.224 -11.808 18.144 -12.528 16.920 -13.104
  L 16.200 -12.456
  L 16.344 -13.464
  C 15.264 -13.896 14.256 -14.040 13.176 -14.040
  L 12.600 -12.816
  L 12.096 -14.256
  C 10.800 -14.256 9.576 -13.968 8.280 -13.536
  L 8.424 -11.880
  C 12.240 -13.608 16.776 -12.528 19.368 -9.360
  C 22.104 -6.048 22.176 -1.440 19.656 2.016
  C 17.136 5.400 12.744 6.696 8.784 5.040
  L 8.568 6.552
  C 9.864 7.128 11.160 7.272 12.456 7.200
  L 13.104 5.760
  L 13.536 7.056
  C 14.976 7.056 16.344 6.552 17.568 5.688
  L 17.568 4.680
  L 18.144 5.328
  C 19.440 4.608 20.448 3.600 21.096 2.232
  L 20.808 1.728
  L 21.384 1.872
  C 22.176 0.792 22.608 -0.432 22.608 -1.800
  L 22.464 -1.944
  L 22.680 -1.944
  C 23.040 -3.312 22.968 -4.680 22.536 -6.048" stroke="none" fill="rgb(255,255,141)" />
<path d="
  M 7.128 -12.888
  L 8.280 -11.808
  C 7.128 -11.376 6.120 -10.584 5.400 -9.648
  L 4.536 -11.088
  C 5.328 -11.808 6.264 -12.528 7.128 -12.888" stroke="none" fill="rgb(255,255,141)" />
<path d="
  M 3.672 -9.792
  L 5.256 -9.360
  C 4.248 -8.280 3.528 -6.984 3.384 -5.544
  L 1.944 -6.552
  C 2.232 -7.704 2.808 -8.928 3.672 -9.792" stroke="none" fill="rgb(255,255,141)" />
<path d="
  M 1.728 -5.112
  L 3.312 -5.328
  C 2.880 -4.032 2.880 -2.808 3.312 -1.512
  L 1.800 -1.728
  C 1.440 -2.880 1.368 -4.032 1.728 -5.112" stroke="none" fill="rgb(255,255,141)" />
<path d="
  M 2.088 -0.360
  L 3.384 -1.224
  C 3.600 0.072 4.248 1.368 5.256 2.376
  L 3.600 2.736
  C 2.808 1.800 2.232 0.720 2.088 -0.360" stroke="none" fill="rgb(255,255,141)" />
<path d="
  M 4.464 3.960
  L 5.328 2.520
  C 6.120 3.672 7.200 4.536 8.496 4.968
  L 7.200 6.048
  C 6.120 5.616 5.256 4.896 4.464 3.960" stroke="none" fill="rgb(255,255,141)" />
<path d="
  M 19.944 -3.528
  C 19.944 -7.704 16.416 -11.160 12.168 -11.160
  C 7.920 -11.160 4.464 -7.704 4.464 -3.528
  C 4.464 0.720 7.920 4.248 12.168 4.248
  C 16.416 4.248 19.944 0.720 19.944 -3.528" stroke="none" fill="rgb(255,255,151)" />
<path d="
  M 8.424 -11.880
  L 8.424 -11.736
  L 8.280 -11.808
  C 7.128 -11.376 6.120 -10.584 5.400 -9.648
  L 5.616 -9.288
  L 5.256 -9.360
  C 4.248 -8.280 3.528 -6.984 3.384 -5.544
  L 3.672 -5.400
  L 3.312 -5.328
  C 2.880 -4.032 2.880 -2.808 3.312 -1.512
  L 3.744 -1.440
  L 3.384 -1.224
  C 3.600 0.072 4.248 1.368 5.256 2.376
  L 5.544 2.232
  L 5.328 2.520
  C 6.120 3.672 7.200 4.536 8.496 4.968
  L 8.784 4.752
  L 8.784 5.040
  C 12.744 6.696 17.136 5.400 19.656 2.016
  C 22.176 -1.440 22.104 -6.048 19.368 -9.360
  C 16.776 -12.528 12.240 -13.608 8.424 -11.880" stroke="none" fill="rgb(255,255,151)" />
<path d="
  M 19.944 -3.528
  C 19.944 -7.704 16.416 -11.160 12.168 -11.160
  C 7.920 -11.160 4.464 -7.704 4.464 -3.528
  C 4.464 0.720 7.920 4.248 12.168 4.248
  C 16.416 4.248 19.944 0.720 19.944 -3.528" stroke="none" fill="rgb(255,255,164)" />
<path d="
  M 18.288 -3.528
  C 18.288 -6.840 15.480 -9.648 12.168 -9.648
  C 8.856 -9.648 6.048 -6.840 6.048 -3.528
  C 6.048 -0.144 8.856 2.592 12.168 2.592
  C 15.480 2.592 18.288 -0.144 18.288 -3.528" stroke="none" fill="rgb(255,255,164)" />
<path d="
  M 18.288 -3.528
  C 18.288 -6.840 15.480 -9.648 12.168 -9.648
  C 8.856 -9.648 6.048 -6.840 6.048 -3.528
  C 6.048 -0.144 8.856 2.592 12.168 2.592
  C 15.480 2.592 18.288 -0.144 18.288 -3.528" stroke="none" fill="rgb(255,255,174)" />
<path d="
  M 16.776 -3.528
  C 16.776 -6.048 14.688 -8.064 12.168 -8.064
  C 9.648 -8.064 7.560 -6.048 7.560 -3.528
  C 7.560 -1.008 9.648 1.080 12.168 1.080
  C 14.688 1.080 16.776 -1.008 16.776 -3.528" stroke="none" fill="rgb(255,255,174)" />
<path d="
  M 16.776 -3.528
  C 16.776 -6.048 14.688 -8.064 12.168 -8.064
  C 9.648 -8.064 7.560 -6.048 7.560 -3.528
  C 7.560 -1.008 9.648 1.080 12.168 1.080
  C 14.688 1.080 16.776 -1.008 16.776 -3.528" stroke="none" fill="rgb(255,255,184)" />
<path d="
  M 15.264 -3.528
  C 15.264 -5.112 13.824 -6.552 12.168 -6.552
  C 10.584 -6.552 9.144 -5.112 9.144 -3.528
  C 9.144 -1.872 10.584 -0.432 12.168 -0.432
  C 13.824 -0.432 15.264 -1.872 15.264 -3.528" stroke="none" fill="rgb(255,255,184)" />
<path d="
  M 15.264 -3.528
  C 15.264 -5.112 13.824 -6.552 12.168 -6.552
  C 10.584 -6.552 9.144 -5.112 9.144 -3.528
  C 9.144 -1.872 10.584 -0.432 12.168 -0.432
  C 13.824 -0.432 15.264 -1.872 15.264 -3.528" stroke="none" fill="rgb(255,255,194)" />
<path d="
  M 13.680 -3.528
  C 13.680 -4.320 12.960 -5.040 12.168 -5.040
  C 11.376 -5.040 10.656 -4.320 10.656 -3.528
  C 10.656 -2.664 11.376 -1.944 12.168 -1.944
  C 12.960 -1.944 13.680 -2.664 13.680 -3.528" stroke="none" fill="rgb(255,255,194)" />
<path d="
  M 13.680 -3.528
  C 13.680 -4.320 12.960 -5.040 12.168 -5.040
  C 11.376 -5.040 10.656 -4.320 10.656 -3.528
  C 10.656 -2.664 11.376 -1.944 12.168 -1.944
  C 12.960 -1.944 13.680 -2.664 13.680 -3.528" stroke="none" fill="rgb(255,255,204)" />
</g>
<path d="
  M -1.296 -21.168
  L 8.424 -11.736
  L 7.776 -24.984
  L 12.600 -12.816
  L 17.496 -24.696
  L 16.200 -12.456
  L 26.208 -20.664
  L 19.728 -10.440
  L 32.256 -13.176
  L 21.888 -6.120
  L 34.488 -3.600
  L 22.464 -1.944
  L 32.760 6.336
  L 20.808 1.728
  L 26.496 13.896
  L 17.568 4.680
  L 17.136 17.928
  L 13.104 5.760
  L 7.704 18.000
  L 8.784 4.752
  L -1.008 12.600
  L 5.544 2.232
  L -7.200 5.472
  L 3.744 -1.440
  L -10.080 -3.600
  L 3.672 -5.400
  L -6.768 -12.600
  L 5.616 -9.288
  L -1.296 -21.168" stroke="rgb(0,0,0)" stroke-width="0.504" fill="none" />
<g>
<path d="
  M 24.840 -2.880
  C 24.840 -9.360 19.440 -14.688 12.960 -14.688
  C 6.480 -14.688 1.152 -9.360 1.152 -2.880
  C 1.152 3.600 6.480 9.000 12.960 9.000
  C 19.440 9.000 24.840 3.600 24.840 -2.880" stroke="none" fill="rgb(255,255,54)" />
<path d="
  M 12.960 -14.760
  C 19.584 -14.760 24.984 -9.432 24.984 -2.880
  C 24.984 3.816 19.584 9.216 12.960 9.216
  C 6.408 9.216 1.080 3.816 1.080 -2.880
  C 1.080 -9.432 6.408 -14.760 12.960 -14.760" stroke="none" fill="rgb(255,255,54)" />
<path d="
  M 24.840 -2.880
  C 24.840 -9.360 19.440 -14.688 12.960 -14.688
  C 6.480 -14.688 1.152 -9.360 1.152 -2.880
  C 1.152 3.600 6.480 9.000 12.960 9.000
  C 19.440 9.000 24.840 3.600 24.840 -2.880" stroke="none" fill="rgb(255,255,67)" />
<path d="
  M 23.976 -2.880
  C 23.976 -8.928 19.008 -13.824 12.960 -13.824
  C 6.984 -13.824 2.088 -8.928 2.088 -2.880
  C 2.088 3.168 6.984 8.136 12.960 8.136
  C 19.008 8.136 23.976 3.168 23.976 -2.880" stroke="none" fill="rgb(255,255,67)" />
<path d="
  M 23.976 -2.880
  C 23.976 -8.928 19.008 -13.824 12.960 -13.824
  C 6.984 -13.824 2.088 -8.928 2.088 -2.880
  C 2.088 3.168 6.984 8.136 12.960 8.136
  C 19.008 8.136 23.976 3.168 23.976 -2.880" stroke="none" fill="rgb(255,255,77)" />
<path d="
  M 23.184 -2.880
  C 23.184 -8.424 18.576 -12.960 12.960 -12.960
  C 7.416 -12.960 2.880 -8.424 2.880 -2.880
  C 2.880 2.736 7.416 7.272 12.960 7.272
  C 18.576 7.272 23.184 2.736 23.184 -2.880" stroke="none" fill="rgb(255,255,77)" />
<path d="
  M 23.184 -2.880
  C 23.184 -8.424 18.576 -12.960 12.960 -12.960
  C 7.416 -12.960 2.880 -8.424 2.880 -2.880
  C 2.880 2.736 7.416 7.272 12.960 7.272
  C 18.576 7.272 23.184 2.736 23.184 -2.880" stroke="none" fill="rgb(255,255,87)" />
<path d="
  M 22.248 -2.880
  C 22.248 -7.920 18.000 -12.096 12.960 -12.096
  C 7.920 -12.096 3.744 -7.920 3.744 -2.880
  C 3.744 2.160 7.920 6.408 12.960 6.408
  C 18.000 6.408 22.248 2.160 22.248 -2.880" stroke="none" fill="rgb(255,255,87)" />
<path d="
  M 22.248 -2.880
  C 22.248 -7.920 18.000 -12.096 12.960 -12.096
  C 7.920 -12.096 3.744 -7.920 3.744 -2.880
  C 3.744 2.160 7.920 6.408 12.960 6.408
  C 18.000 6.408 22.248 2.160 22.248 -2.880" stroke="none" fill="rgb(255,255,97)" />
<path d="
  M 21.456 -2.880
  C 21.456 -7.488 17.568 -11.304 12.960 -11.304
  C 8.424 -11.304 4.536 -7.488 4.536 -2.880
  C 4.536 1.728 8.424 5.616 12.960 5.616
  C 17.568 5.616 21.456 1.728 21.456 -2.880" stroke="none" fill="rgb(255,255,97)" />
<path d="
  M 21.456 -2.880
  C 21.456 -7.488 17.568 -11.304 12.960 -11.304
  C 8.424 -11.304 4.536 -7.488 4.536 -2.880
  C 4.536 1.728 8.424 5.616 12.960 5.616
  C 17.568 5.616 21.456 1.728 21.456 -2.880" stroke="none" fill="rgb(255,255,108)" />
<path d="
  M 20.664 -2.880
  C 20.664 -6.984 17.136 -10.512 12.960 -10.512
  C 8.856 -10.512 5.328 -6.984 5.328 -2.880
  C 5.328 1.296 8.856 4.752 12.960 4.752
  C 17.136 4.752 20.664 1.296 20.664 -2.880" stroke="none" fill="rgb(255,255,108)" />
<path d="
  M 20.664 -2.880
  C 20.664 -6.984 17.136 -10.512 12.960 -10.512
  C 8.856 -10.512 5.328 -6.984 5.328 -2.880
  C 5.328 1.296 8.856 4.752 12.960 4.752
  C 17.136 4.752 20.664 1.296 20.664 -2.880" stroke="none" fill="rgb(255,255,120)" />
<path d="
  M 19.728 -2.880
  C 19.728 -6.552 16.704 -9.648 12.960 -9.648
  C 9.288 -9.648 6.264 -6.552 6.264 -2.880
  C 6.264 0.792 9.288 3.888 12.960 3.888
  C 16.704 3.888 19.728 0.792 19.728 -2.880" stroke="none" fill="rgb(255,255,120)" />
<path d="
  M 19.728 -2.880
  C 19.728 -6.552 16.704 -9.648 12.960 -9.648
  C 9.288 -9.648 6.264 -6.552 6.264 -2.880
  C 6.264 0.792 9.288 3.888 12.960 3.888
  C 16.704 3.888 19.728 0.792 19.728 -2.880" stroke="none" fill="rgb(255,255,131)" />
<path d="
  M 18.936 -2.880
  C 18.936 -6.120 16.200 -8.784 12.960 -8.784
  C 9.720 -8.784 7.056 -6.120 7.056 -2.880
  C 7.056 0.360 9.720 3.096 12.960 3.096
  C 16.200 3.096 18.936 0.360 18.936 -2.880" stroke="none" fill="rgb(255,255,131)" />
<path d="
  M 18.936 -2.880
  C 18.936 -6.120 16.200 -8.784 12.960 -8.784
  C 9.720 -8.784 7.056 -6.120 7.056 -2.880
  C 7.056 0.360 9.720 3.096 12.960 3.096
  C 16.200 3.096 18.936 0.360 18.936 -2.880" stroke="none" fill="rgb(255,255,141)" />
<path d="
  M 18.000 -2.880
  C 18.000 -5.544 15.696 -7.920 12.960 -7.920
  C 10.296 -7.920 7.920 -5.544 7.920 -2.880
  C 7.920 -0.144 10.296 2.160 12.960 2.160
  C 15.696 2.160 18.000 -0.144 18.000 -2.880" stroke="none" fill="rgb(255,255,141)" />
<path d="
  M 18.000 -2.880
  C 18.000 -5.544 15.696 -7.920 12.960 -7.920
  C 10.296 -7.920 7.920 -5.544 7.920 -2.880
  C 7.920 -0.144 10.296 2.160 12.960 2.160
  C 15.696 2.160 18.000 -0.144 18.000 -2.880" stroke="none" fill="rgb(255,255,151)" />
<path d="
  M 17.208 -2.880
  C 17.208 -5.112 15.264 -7.128 12.960 -7.128
  C 10.728 -7.128 8.784 -5.112 8.784 -2.880
  C 8.784 -0.648 10.728 1.368 12.960 1.368
  C 15.264 1.368 17.208 -0.648 17.208 -2.880" stroke="none" fill="rgb(255,255,151)" />
<path d="
  M 17.208 -2.880
  C 17.208 -5.112 15.264 -7.128 12.960 -7.128
  C 10.728 -7.128 8.784 -5.112 8.784 -2.880
  C 8.784 -0.648 10.728 1.368 12.960 1.368
  C 15.264 1.368 17.208 -0.648 17.208 -2.880" stroke="none" fill="rgb(255,255,164)" />
<path d="
  M 16.344 -2.880
  C 16.344 -4.680 14.760 -6.192 12.960 -6.192
  C 11.160 -6.192 9.648 -4.680 9.648 -2.880
  C 9.648 -1.080 11.160 0.432 12.960 0.432
  C 14.760 0.432 16.344 -1.080 16.344 -2.880" stroke="none" fill="rgb(255,255,164)" />
<path d="
  M 16.344 -2.880
  C 16.344 -4.680 14.760 -6.192 12.960 -6.192
  C 11.160 -6.192 9.648 -4.680 9.648 -2.880
  C 9.648 -1.080 11.160 0.432 12.960 0.432
  C 14.760 0.432 16.344 -1.080 16.344 -2.880" stroke="none" fill="rgb(255,255,174)" />
<path d="
  M 15.480 -2.880
  C 15.480 -4.248 14.328 -5.400 12.960 -5.400
  C 11.664 -5.400 10.440 -4.248 10.440 -2.880
  C 10.440 -1.512 11.664 -0.360 12.960 -0.360
  C 14.328 -0.360 15.480 -1.512 15.480 -2.880" stroke="none" fill="rgb(255,255,174)" />
<path d="
  M 15.480 -2.880
  C 15.480 -4.248 14.328 -5.400 12.960 -5.400
  C 11.664 -5.400 10.440 -4.248 10.440 -2.880
  C 10.440 -1.512 11.664 -0.360 12.960 -0.360
  C 14.328 -0.360 15.480 -1.512 15.480 -2.880" stroke="none" fill="rgb(255,255,184)" />
<path d="
  M 14.616 -2.880
  C 14.616 -3.672 13.824 -4.464 12.960 -4.464
  C 12.168 -4.464 11.376 -3.672 11.376 -2.880
  C 11.376 -2.088 12.168 -1.224 12.960 -1.224
  C 13.824 -1.224 14.616 -2.088 14.616 -2.880" stroke="none" fill="rgb(255,255,184)" />
<path d="
  M 14.616 -2.880
  C 14.616 -3.672 13.824 -4.464 12.960 -4.464
  C 12.168 -4.464 11.376 -3.672 11.376 -2.880
  C 11.376 -2.088 12.168 -1.224 12.960 -1.224
  C 13.824 -1.224 14.616 -2.088 14.616 -2.880" stroke="none" fill="rgb(255,255,194)" />
<path d="
  M 13.824 -2.880
  C 13.824 -3.240 13.320 -3.672 12.960 -3.672
  C 12.600 -3.672 12.168 -3.240 12.168 -2.880
  C 12.168 -2.520 12.600 -2.088 12.960 -2.088
  C 13.320 -2.088 13.824 -2.520 13.824 -2.880" stroke="none" fill="rgb(255,255,194)" />
<path d="
  M 13.824 -2.880
  C 13.824 -3.240 13.320 -3.672 12.960 -3.672
  C 12.600 -3.672 12.168 -3.240 12.168 -2.880
  C 12.168 -2.520 12.600 -2.088 12.960 -2.088
  C 13.320 -2.088 13.824 -2.520 13.824 -2.880" stroke="none" fill="rgb(255,255,204)" />
</g>
<circle cx="12.888" cy="-2.952" r="11.916" stroke="rgb(0,0,0)" stroke-width="0.504" fill="none" />
</g>
<g>
<path d="
  M -12.456 23.112
  C -11.088 23.688 -10.008 24.336 -8.136 25.056
  C -6.696 24.408 -4.752 23.832 -2.592 23.112
  L -12.456 23.112" stroke="none" fill="rgb(128,128,128)" />
<path d="
  M -12.456 23.112
  C -13.032 22.896 -13.752 22.680 -14.616 22.392
  C -15.120 22.248 -15.912 21.816 -16.632 21.240
  L 1.800 21.240
  C 0.288 22.032 -1.296 22.608 -2.592 23.112
  L -12.456 23.112" stroke="none" fill="rgb(131,131,131)" />
<path d="
  M -16.632 21.240
  C -17.496 20.592 -18.288 19.872 -18.432 19.368
  L 4.896 19.368
  C 3.888 20.088 2.808 20.736 1.800 21.240
  L -16.632 21.240" stroke="none" fill="rgb(133,133,133)" />
<path d="
  M -30.240 19.440
  C -29.880 19.656 -29.448 19.872 -29.016 20.088
  C -25.992 21.456 -23.112 20.016 -20.160 19.368
  L -30.240 19.440" stroke="none" fill="rgb(133,133,133)" />
<path d="
  M 9.864 19.368
  C 13.824 21.528 18.288 21.456 22.104 19.368
  L 9.864 19.368" stroke="none" fill="rgb(133,133,133)" />
<path d="
  M -30.240 19.440
  C -31.176 18.936 -31.896 18.216 -32.472 17.496
  L 24.768 17.496
  C 23.976 18.288 23.040 18.792 22.104 19.368
  L 9.864 19.368
  C 8.928 18.792 8.064 18.216 7.200 17.496
  C 6.408 18.216 5.616 18.792 4.896 19.368
  L -18.432 19.368
  C -18.432 19.296 -18.432 19.152 -18.432 19.080
  C -19.008 19.080 -19.512 19.152 -20.160 19.368
  L -30.240 19.440" stroke="none" fill="rgb(136,136,136)" />
<path d="
  M -32.472 17.496
  C -33.048 16.848 -33.408 16.200 -33.696 15.552
  L 30.960 15.696
  C 29.448 16.128 28.008 16.128 26.136 16.128
  C 25.704 16.632 25.200 17.136 24.768 17.496
  L -32.472 17.496" stroke="none" fill="rgb(138,138,138)" />
<path d="
  M -33.696 15.552
  C -34.056 14.976 -34.200 14.328 -34.272 13.680
  L 33.624 13.680
  C 33.480 14.040 33.408 14.328 33.336 14.616
  C 32.544 15.048 31.680 15.408 30.960 15.696
  L -33.696 15.552" stroke="none" fill="rgb(141,141,141)" />
<path d="
  M -34.272 13.680
  C -34.488 13.032 -34.488 12.456 -34.488 11.808
  L 34.128 11.808
  C 34.056 12.456 33.840 13.032 33.624 13.680
  L -34.272 13.680" stroke="none" fill="rgb(146,146,146)" />
<path d="
  M -34.488 11.808
  C -34.416 11.160 -34.272 10.512 -34.056 9.936
  L 34.488 9.936
  C 34.416 10.512 34.344 11.160 34.128 11.808
  L -34.488 11.808" stroke="none" fill="rgb(146,146,146)" />
<path d="
  M -34.056 9.936
  C -33.840 9.360 -33.552 8.928 -33.192 8.496
  C -33.336 8.352 -33.408 8.208 -33.408 7.992
  L 34.416 7.992
  C 34.488 8.640 34.488 9.288 34.488 9.936
  L -34.056 9.936" stroke="none" fill="rgb(151,151,151)" />
<path d="
  M -33.408 7.992
  C -33.696 7.488 -33.768 6.840 -33.696 6.192
  L 33.768 6.120
  C 34.056 6.696 34.344 7.272 34.416 7.992
  L -33.408 7.992" stroke="none" fill="rgb(153,153,153)" />
<path d="
  M -33.696 6.192
  C -33.552 5.616 -33.408 4.896 -33.120 4.248
  L 31.680 4.176
  C 32.616 4.680 33.336 5.328 33.768 6.120
  L -33.696 6.192" stroke="none" fill="rgb(153,153,153)" />
<path d="
  M -33.120 4.248
  C -32.832 3.600 -32.616 2.880 -32.256 2.232
  L 23.904 2.376
  C 24.264 2.808 24.480 3.456 24.696 4.176
  C 26.424 3.960 28.800 3.240 30.456 3.672
  C 30.888 3.888 31.320 3.960 31.680 4.176
  L -33.120 4.248" stroke="none" fill="rgb(159,159,159)" />
<path d="
  M -32.256 2.232
  C -31.752 1.656 -31.320 1.008 -30.888 0.432
  L 21.816 0.360
  C 22.608 0.792 23.328 1.440 23.904 2.376
  L -32.256 2.232" stroke="none" fill="rgb(161,161,161)" />
<path d="
  M -30.888 0.432
  C -30.888 0.432 -30.816 0.360 -30.816 0.360
  C -29.016 -1.368 -26.208 -1.152 -23.472 -1.152
  C -23.472 -1.224 -23.472 -1.368 -23.400 -1.440
  L 13.968 -1.440
  C 13.968 -0.864 13.968 -0.360 13.968 0.216
  C 17.136 -0.288 19.800 -0.504 21.816 0.360
  L -30.888 0.432" stroke="none" fill="rgb(164,164,164)" />
<path d="
  M -23.400 -1.440
  C -23.256 -2.088 -22.968 -2.664 -22.608 -3.312
  L 13.824 -3.312
  C 13.896 -2.664 13.896 -2.088 13.968 -1.440
  L -23.400 -1.440" stroke="none" fill="rgb(166,166,166)" />
<path d="
  M -22.608 -3.312
  C -22.176 -4.032 -21.600 -4.680 -20.952 -5.184
  L 13.464 -5.184
  C 13.608 -4.608 13.680 -3.960 13.824 -3.312
  L -22.608 -3.312" stroke="none" fill="rgb(169,169,169)" />
<path d="
  M -20.952 -5.184
  C -20.160 -6.048 -19.152 -6.624 -18.072 -7.128
  L -8.208 -7.200
  C -7.488 -6.840 -6.840 -6.408 -6.192 -5.832
  C -6.120 -6.264 -6.048 -6.768 -5.832 -7.128
  L 12.744 -7.128
  C 13.104 -6.480 13.248 -5.832 13.464 -5.184
  L -20.952 -5.184" stroke="none" fill="rgb(171,171,171)" />
<path d="
  M -18.072 -7.128
  C -15.048 -8.424 -11.232 -8.712 -8.208 -7.200
  L -18.072 -7.128" stroke="none" fill="rgb(174,174,174)" />
<path d="
  M -5.832 -7.128
  C -5.616 -7.848 -5.112 -8.424 -4.608 -9.000
  L 11.448 -9.000
  C 12.024 -8.424 12.456 -7.848 12.744 -7.128
  L -5.832 -7.128" stroke="none" fill="rgb(174,174,174)" />
<path d="
  M -4.608 -9.000
  C -3.816 -9.792 -2.736 -10.440 -1.512 -10.872
  L 8.640 -10.872
  C 9.864 -10.440 10.728 -9.792 11.448 -9.000
  L -4.608 -9.000" stroke="none" fill="rgb(176,176,176)" />
<path d="
  M -1.512 -10.872
  C 1.224 -11.880 4.680 -12.024 7.416 -11.304
  C 7.848 -11.160 8.280 -11.016 8.640 -10.872
  L -1.512 -10.872" stroke="none" fill="rgb(179,179,179)" />
</g>
<path d="
  M -33.192 8.496
  C -34.560 6.408 -32.688 2.448 -30.816 0.360
  C -29.016 -1.368 -26.208 -1.152 -23.472 -1.152
  C -22.032 -7.488 -11.880 -10.800 -6.192 -5.832
  C -5.616 -11.016 2.304 -12.744 7.416 -11.304
  C 13.320 -9.720 13.968 -4.608 13.968 0.216
  C 19.224 -0.648 23.184 -0.792 24.696 4.176
  C 26.424 3.960 28.800 3.240 30.456 3.672
  C 35.928 5.328 34.704 11.016 33.336 14.616
  C 30.816 16.056 29.016 16.128 26.136 16.128
  C 21.240 21.816 13.104 22.680 7.200 17.496
  C 1.368 22.752 -4.752 23.472 -8.136 25.056
  C -10.872 24.048 -11.880 23.112 -14.616 22.392
  C -15.912 22.032 -18.432 20.088 -18.432 19.080
  C -22.032 19.368 -25.488 21.672 -29.016 20.088
  C -33.912 18.000 -36.000 12.096 -33.192 8.496" stroke="rgb(0,0,0)" stroke-width="0.504" fill="none" />
<g>
<path d="
  M -13.320 17.568
  C -13.248 17.640 -13.248 17.640 -13.176 17.712
  C -9.792 18.720 -7.056 18.936 -4.536 17.568
  L -13.320 17.568" stroke="none" fill="rgb(179,179,179)" />
<path d="
  M -13.320 17.568
  C -13.680 17.136 -13.752 16.632 -13.608 16.128
  L -2.592 16.128
  C -3.240 16.776 -3.888 17.208 -4.536 17.568
  L -13.320 17.568" stroke="none" fill="rgb(182,182,182)" />
<path d="
  M -13.608 16.128
  C -13.392 15.552 -12.960 15.048 -12.528 14.616
  L -4.896 14.616
  C -4.248 15.192 -3.240 15.912 -2.592 16.128
  C -2.592 16.128 -2.592 16.128 -2.592 16.128
  L -13.608 16.128" stroke="none" fill="rgb(182,182,182)" />
<path d="
  M -29.736 14.616
  C -28.512 16.056 -26.856 15.696 -25.272 14.616
  L -29.736 14.616" stroke="none" fill="rgb(182,182,182)" />
<path d="
  M -3.240 14.616
  C -1.080 15.048 1.152 15.192 3.240 14.616
  L -3.240 14.616" stroke="none" fill="rgb(182,182,182)" />
<path d="
  M 20.736 14.616
  C 21.384 14.760 21.744 14.976 21.240 14.976
  C 22.104 15.192 22.824 15.048 23.328 14.616
  L 20.736 14.616" stroke="none" fill="rgb(182,182,182)" />
<path d="
  M -29.736 14.616
  C -29.952 14.256 -30.240 13.752 -30.456 13.032
  L -20.520 13.032
  C -21.168 13.608 -21.456 14.256 -22.392 13.248
  C -22.680 14.976 -25.920 13.032 -24.408 13.896
  C -24.696 14.112 -24.912 14.400 -25.272 14.616
  L -29.736 14.616" stroke="none" fill="rgb(184,184,184)" />
<path d="
  M -12.528 14.616
  C -11.952 13.968 -11.376 13.392 -10.800 12.960
  L 3.744 13.032
  C 4.032 13.320 4.392 13.680 4.680 14.040
  C 4.320 14.328 3.744 14.472 3.240 14.616
  L -3.240 14.616
  C -3.888 14.400 -4.608 14.256 -5.256 14.040
  C -5.112 14.256 -5.040 14.400 -4.896 14.616
  L -12.528 14.616" stroke="none" fill="rgb(184,184,184)" />
<path d="
  M 20.736 14.616
  C 19.656 14.256 17.784 13.608 17.136 13.032
  L 24.840 13.032
  C 24.408 13.680 23.904 14.256 23.328 14.616
  L 20.736 14.616" stroke="none" fill="rgb(184,184,184)" />
<path d="
  M -30.456 13.032
  C -30.528 13.032 -30.528 12.960 -30.528 12.888
  C -30.600 12.456 -30.672 12.096 -30.672 11.592
  L -18.288 11.520
  C -18.360 11.736 -18.432 11.880 -18.432 12.168
  C -19.512 12.168 -20.088 12.600 -20.520 13.032
  L -30.456 13.032" stroke="none" fill="rgb(184,184,184)" />
<path d="
  M -10.800 12.960
  C -10.152 12.528 -9.648 12.096 -9.576 11.880
  C -12.960 11.880 -14.688 14.040 -15.408 11.736
  L 2.880 11.592
  C 3.024 12.168 3.312 12.600 3.744 13.032
  L -10.800 12.960" stroke="none" fill="rgb(184,184,184)" />
<path d="
  M 17.136 13.032
  C 16.920 12.888 16.848 12.816 16.848 12.600
  C 15.048 12.600 14.328 12.312 14.040 11.592
  L 26.064 11.592
  C 25.560 12.096 25.200 12.600 24.840 13.032
  L 17.136 13.032" stroke="none" fill="rgb(184,184,184)" />
<path d="
  M 6.408 11.736
  C 8.064 12.816 9.936 13.248 11.880 11.736
  L 6.408 11.736" stroke="none" fill="rgb(184,184,184)" />
<path d="
  M -30.672 11.592
  C -30.600 11.160 -30.528 10.656 -30.456 10.080
  L 2.520 10.152
  C 2.592 10.728 2.664 11.160 2.880 11.592
  L -15.408 11.736
  C -15.480 11.376 -15.552 11.088 -15.696 10.656
  C -15.912 11.880 -17.640 10.872 -18.288 11.520
  L -30.672 11.592" stroke="none" fill="rgb(187,187,187)" />
<path d="
  M 6.408 11.736
  C 5.760 11.232 5.184 10.728 4.680 10.080
  L 11.736 10.080
  C 11.448 10.512 11.448 10.800 12.384 11.376
  C 12.168 11.448 12.096 11.592 11.880 11.736
  L 6.408 11.736" stroke="none" fill="rgb(187,187,187)" />
<path d="
  M 14.040 11.592
  C 13.896 11.232 13.824 10.728 13.608 10.080
  L 31.248 10.080
  C 29.304 10.800 29.664 10.152 27.288 10.152
  C 26.856 10.512 26.424 11.088 26.064 11.592
  L 14.040 11.592" stroke="none" fill="rgb(187,187,187)" />
<path d="
  M -30.456 10.080
  C -30.240 9.648 -30.096 9.072 -29.880 8.568
  L -27.288 8.568
  C -26.856 8.712 -26.208 8.712 -25.416 8.712
  C -25.416 8.640 -25.488 8.640 -25.488 8.568
  L 2.592 8.640
  C 2.520 9.216 2.520 9.720 2.520 10.152
  L -30.456 10.080" stroke="none" fill="rgb(187,187,187)" />
<path d="
  M 4.680 10.080
  C 4.248 9.576 3.744 9.000 3.384 8.568
  L 12.600 8.640
  C 12.456 9.360 12.024 9.720 11.736 10.080
  L 4.680 10.080" stroke="none" fill="rgb(187,187,187)" />
<path d="
  M 13.608 10.080
  C 13.536 9.648 13.320 9.216 13.176 8.568
  L 31.896 8.496
  C 31.824 9.000 31.680 9.432 31.536 10.008
  C 31.464 10.008 31.320 10.080 31.248 10.080
  L 13.608 10.080" stroke="none" fill="rgb(187,187,187)" />
<path d="
  M -29.880 8.568
  C -29.592 8.136 -29.448 7.632 -29.232 7.128
  L -28.440 7.128
  C -28.152 7.920 -27.936 8.352 -27.288 8.568
  L -29.880 8.568" stroke="none" fill="rgb(189,189,189)" />
<path d="
  M -25.488 8.568
  C -25.776 8.136 -25.920 7.632 -26.136 7.128
  L 31.608 7.128
  C 31.824 7.488 31.896 7.992 31.896 8.496
  L 13.176 8.568
  C 13.104 8.280 12.888 7.992 12.816 7.776
  C 12.816 8.136 12.744 8.352 12.600 8.640
  L 3.384 8.568
  C 3.168 8.280 2.952 7.992 2.808 7.776
  C 2.664 7.992 2.664 8.352 2.592 8.640
  L -25.488 8.568" stroke="none" fill="rgb(189,189,189)" />
<path d="
  M -29.232 7.128
  C -29.088 6.552 -28.872 6.120 -28.728 5.616
  C -28.656 6.192 -28.512 6.768 -28.440 7.128
  L -29.232 7.128" stroke="none" fill="rgb(189,189,189)" />
<path d="
  M -26.136 7.128
  C -26.280 6.696 -26.352 6.120 -26.496 5.616
  L 23.040 5.472
  C 23.040 5.832 23.040 6.336 23.040 6.768
  C 23.328 6.336 23.688 5.832 24.120 5.616
  L 30.456 5.616
  C 30.960 5.976 31.320 6.480 31.608 7.128
  L -26.136 7.128" stroke="none" fill="rgb(189,189,189)" />
<path d="
  M -26.496 5.616
  C -26.496 5.040 -26.496 4.536 -26.280 4.032
  L 13.680 4.032
  C 13.680 4.608 13.680 5.040 13.680 5.616
  C 15.336 4.968 16.056 4.680 16.344 4.032
  L 22.824 3.960
  C 22.896 4.392 22.968 4.968 23.040 5.472
  L -26.496 5.616" stroke="none" fill="rgb(192,192,192)" />
<path d="
  M 24.120 5.616
  C 25.920 4.248 28.728 4.320 30.456 5.616
  L 24.120 5.616" stroke="none" fill="rgb(192,192,192)" />
<path d="
  M -28.872 3.960
  C -28.800 4.176 -28.800 4.248 -28.728 4.392
  C -28.656 4.320 -28.656 4.176 -28.512 4.032
  L -28.872 3.960" stroke="none" fill="rgb(192,192,192)" />
<path d="
  M -28.872 3.960
  C -29.088 3.456 -29.160 2.952 -29.160 2.520
  L -26.928 2.592
  C -27.576 2.880 -28.080 3.456 -28.512 4.032
  L -28.872 3.960" stroke="none" fill="rgb(192,192,192)" />
<path d="
  M -26.280 4.032
  C -26.208 3.528 -25.992 2.952 -25.632 2.520
  L 13.680 2.592
  C 13.680 3.096 13.680 3.600 13.680 4.032
  L -26.280 4.032" stroke="none" fill="rgb(192,192,192)" />
<path d="
  M 16.344 4.032
  C 16.488 3.672 16.560 3.240 16.560 2.592
  L 22.104 2.592
  C 22.320 2.952 22.608 3.456 22.824 3.960
  L 16.344 4.032" stroke="none" fill="rgb(192,192,192)" />
<path d="
  M -29.160 2.520
  C -29.232 1.872 -29.160 1.368 -29.088 1.008
  L 13.608 1.080
  C 13.608 1.656 13.680 2.088 13.680 2.592
  L -25.632 2.520
  C -25.560 2.448 -25.416 2.232 -25.200 2.088
  C -25.848 2.088 -26.352 2.232 -26.928 2.592
  L -29.160 2.520" stroke="none" fill="rgb(194,194,194)" />
<path d="
  M 16.560 2.592
  C 16.560 2.232 16.560 2.016 16.560 1.512
  C 19.368 1.512 21.096 1.656 22.104 2.592
  L 16.560 2.592" stroke="none" fill="rgb(194,194,194)" />
<path d="
  M -29.088 1.008
  C -28.008 -1.584 -22.392 0.576 -19.872 0.576
  C -20.016 0.288 -20.016 -0.072 -20.016 -0.432
  L 13.176 -0.432
  C 13.320 -0.000 13.536 0.576 13.608 1.080
  L -29.088 1.008" stroke="none" fill="rgb(197,197,197)" />
<path d="
  M -20.016 -0.432
  C -19.872 -0.864 -19.872 -1.368 -19.728 -1.872
  L 12.024 -1.872
  C 12.528 -1.512 12.888 -1.008 13.176 -0.432
  L -20.016 -0.432" stroke="none" fill="rgb(197,197,197)" />
<path d="
  M -19.728 -1.872
  C -19.656 -2.448 -19.368 -2.952 -19.080 -3.384
  L 8.424 -3.384
  C 8.424 -3.240 8.280 -3.024 8.208 -2.880
  C 10.008 -2.880 11.160 -2.520 12.024 -1.872
  L -19.728 -1.872" stroke="none" fill="rgb(199,199,199)" />
<path d="
  M -19.080 -3.384
  C -18.792 -3.960 -18.432 -4.464 -17.928 -4.968
  L -5.400 -4.968
  C -5.256 -4.824 -4.968 -4.752 -4.680 -4.680
  C -4.680 -4.752 -4.680 -4.824 -4.680 -4.968
  L 8.280 -4.968
  C 8.496 -4.392 8.568 -3.960 8.424 -3.384
  L -19.080 -3.384" stroke="none" fill="rgb(199,199,199)" />
<path d="
  M -17.928 -4.968
  C -17.208 -5.544 -16.200 -6.120 -14.832 -6.408
  L -10.656 -6.408
  C -9.072 -6.192 -7.416 -5.760 -5.400 -4.968
  L -17.928 -4.968" stroke="none" fill="rgb(202,202,202)" />
<path d="
  M -4.680 -4.968
  C -4.680 -5.472 -4.536 -6.048 -4.320 -6.480
  L 7.848 -6.264
  C 8.064 -5.760 8.208 -5.328 8.280 -4.968
  L -4.680 -4.968" stroke="none" fill="rgb(202,202,202)" />
<path d="
  M -14.832 -6.408
  C -13.680 -6.624 -12.312 -6.624 -10.656 -6.408
  L -14.832 -6.408" stroke="none" fill="rgb(202,202,202)" />
<path d="
  M -4.320 -6.480
  C -4.032 -6.984 -3.600 -7.560 -3.096 -7.920
  L 7.128 -7.920
  C 7.344 -7.704 7.488 -7.560 7.560 -7.272
  C 7.704 -6.912 7.776 -6.552 7.848 -6.264
  L -4.320 -6.480" stroke="none" fill="rgb(202,202,202)" />
<path d="
  M -3.096 -7.920
  C -0.288 -10.080 5.328 -9.504 7.128 -7.920
  L -3.096 -7.920" stroke="none" fill="rgb(204,204,204)" />
</g>
<path d="
  M -28.728 5.616
  C -29.520 8.280 -31.176 10.656 -30.528 12.888
  C -29.448 16.632 -26.640 15.912 -24.408 13.896
  C -25.920 13.032 -22.680 14.976 -22.392 13.248
  C -20.808 14.832 -21.096 12.168 -18.432 12.168
  C -18.432 10.440 -15.912 12.168 -15.696 10.656
  C -15.048 14.616 -13.392 11.880 -9.576 11.880
  C -9.936 12.600 -15.408 15.840 -13.176 17.712
  C -8.928 19.008 -5.472 19.008 -2.592 16.128
  C -3.456 15.912 -4.896 14.760 -5.256 14.040
  C -2.160 14.976 1.728 15.552 4.680 14.040
  C 2.592 12.168 2.160 10.656 2.808 7.776
  C 4.680 10.368 8.280 15.048 12.384 11.376
  C 10.368 10.152 12.816 10.080 12.816 7.776
  C 14.400 11.376 12.960 12.600 16.848 12.600
  C 16.848 13.680 22.608 14.976 21.240 14.976
  C 24.048 15.768 25.200 11.880 27.288 10.152
  C 29.736 10.152 29.304 10.872 31.536 10.008
  C 33.624 4.680 25.560 2.736 23.040 6.768
  C 23.040 1.800 21.456 1.512 16.560 1.512
  C 16.560 4.392 16.704 4.392 13.680 5.616
  C 13.680 1.512 14.328 -2.880 8.208 -2.880
  C 8.928 -4.392 8.136 -4.968 7.560 -7.272
  C 6.624 -10.008 -4.680 -10.872 -4.680 -4.680
  C -18.432 -10.224 -20.376 -2.160 -19.872 0.576
  C -23.112 0.576 -31.320 -2.952 -28.728 4.392
  C -28.080 3.096 -26.640 2.160 -25.200 2.088
  C -27.000 3.672 -26.640 6.696 -25.416 8.712
  C -28.080 8.712 -28.296 8.280 -28.728 5.616" stroke="rgb(0,0,0)" stroke-width="0.504" fill="none" />
<path d="
  M 3.240 4.032
  L -4.896 9.648
  L -4.896 5.832
  L -17.568 5.832
  L -17.568 2.088
  L -4.896 2.088
  L -4.896 -1.728
  L 3.240 4.032" stroke="rgb(0,0,0)" stroke-width="0.504" fill="rgb(0,0,0)" />
</g>
</svg>
