<?xml version="1.0" encoding="ISO-8859-1"?><!DOCTYPE svg PUBLIC "-//W3C//DTD SVG 1.1//EN" "http://www.w3.org/Graphics/SVG/1.1/DTD/svg11.dtd"><svg version="1.1" baseProfile="full" width="100%" height="100%" viewBox="-43.920 -31.248 87.768 62.424" xmlns="http://www.w3.org/2000/svg" xmlns:xlink="http://www.w3.org/1999/xlink">
<g>
<g>
<path d="
  M 5.040 -2.304
  C 6.552 1.872 9.648 5.472 13.680 7.488
  L 5.040 -2.304" stroke="none" fill="rgb(255,255,34)" />
<path d="
  M 5.040 -2.304
  C 4.536 -3.744 4.176 -5.328 4.032 -6.912
  L 18.000 9.000
  C 16.488 8.712 15.048 8.208 13.680 7.488
  L 5.040 -2.304" stroke="none" fill="rgb(255,255,44)" />
<path d="
  M 4.032 -6.912
  C 3.888 -7.776 3.888 -8.568 4.032 -9.504
  C 4.032 -9.792 4.032 -10.152 4.104 -10.368
  L 21.384 9.360
  C 21.024 9.360 20.808 9.360 20.448 9.360
  C 19.584 9.288 18.720 9.216 18.000 9.000
  L 4.032 -6.912" stroke="none" fill="rgb(255,255,54)" />
<path d="
  M 4.104 -10.368
  C 4.176 -11.304 4.320 -12.456 4.608 -13.392
  L 24.408 9.288
  C 23.400 9.360 22.392 9.432 21.384 9.360
  L 4.104 -10.368" stroke="none" fill="rgb(255,255,67)" />
<path d="
  M 4.608 -13.392
  C 4.824 -14.256 5.112 -15.120 5.472 -15.912
  L 12.744 -7.488
  C 14.256 -4.464 16.560 -1.872 19.368 -0.072
  L 26.928 8.784
  C 26.136 9.000 25.272 9.216 24.408 9.288
  L 4.608 -13.392" stroke="none" fill="rgb(255,255,77)" />
<path d="
  M 5.472 -15.912
  C 5.760 -16.632 6.192 -17.424 6.624 -18.072
  L 11.088 -13.032
  C 11.376 -11.016 11.952 -9.216 12.744 -7.488
  L 5.472 -15.912" stroke="none" fill="rgb(255,255,87)" />
<path d="
  M 19.368 -0.072
  C 20.880 1.008 22.536 1.800 24.408 2.304
  L 29.232 7.920
  C 28.584 8.280 27.792 8.496 26.928 8.784
  L 19.368 -0.072" stroke="none" fill="rgb(255,255,87)" />
<path d="
  M 6.624 -18.072
  C 7.056 -18.720 7.560 -19.368 8.064 -19.944
  L 10.944 -16.776
  C 10.944 -16.776 10.944 -16.776 10.944 -16.776
  C 10.872 -15.480 10.944 -14.184 11.088 -13.032
  L 6.624 -18.072" stroke="none" fill="rgb(255,255,97)" />
<path d="
  M 24.408 2.304
  C 25.632 2.664 26.856 2.952 28.152 3.024
  L 31.392 6.768
  C 30.672 7.128 30.024 7.560 29.232 7.920
  L 24.408 2.304" stroke="none" fill="rgb(255,255,97)" />
<path d="
  M 8.064 -19.944
  C 8.568 -20.592 9.144 -21.096 9.792 -21.456
  L 11.448 -19.656
  C 11.232 -18.720 11.016 -17.784 10.944 -16.776
  L 8.064 -19.944" stroke="none" fill="rgb(255,255,108)" />
<path d="
  M 28.152 3.024
  C 28.224 3.024 28.224 3.024 28.296 3.024
  C 29.232 3.096 30.240 3.096 31.176 3.024
  L 33.120 5.328
  C 32.616 5.904 32.040 6.336 31.392 6.768
  L 28.152 3.024" stroke="none" fill="rgb(255,255,108)" />
<path d="
  M 9.792 -21.456
  C 10.368 -22.032 11.016 -22.392 11.736 -22.752
  L 12.240 -22.176
  C 11.952 -21.384 11.592 -20.592 11.448 -19.656
  L 9.792 -21.456" stroke="none" fill="rgb(255,255,120)" />
<path d="
  M 31.176 3.024
  C 32.040 2.952 32.904 2.736 33.840 2.592
  L 34.776 3.672
  C 34.272 4.248 33.768 4.752 33.120 5.328
  L 31.176 3.024" stroke="none" fill="rgb(255,255,120)" />
<path d="
  M 11.736 -22.752
  C 12.024 -22.896 12.312 -23.112 12.672 -23.256
  C 12.456 -22.896 12.384 -22.608 12.240 -22.176
  L 11.736 -22.752" stroke="none" fill="rgb(255,255,131)" />
<path d="
  M 33.840 2.592
  C 34.488 2.448 35.280 2.160 35.928 1.872
  C 35.568 2.520 35.208 3.096 34.776 3.672
  L 33.840 2.592" stroke="none" fill="rgb(255,255,131)" />
</g>
<path d="
  M 12.672 -23.256
  C 11.808 -21.168 11.088 -19.008 10.944 -16.776
  C 10.296 -6.552 18.072 2.304 28.296 3.024
  C 30.888 3.168 33.480 2.808 35.928 1.872
  C 32.544 7.488 26.856 9.792 20.448 9.360
  C 10.728 8.784 3.312 0.216 4.032 -9.504
  C 4.320 -15.624 7.128 -20.664 12.672 -23.256" stroke="rgb(0,0,0)" stroke-width="0.504" fill="none" />
<g>
<g>
<path d="
  M -15.192 21.528
  C -14.040 22.032 -13.104 22.680 -11.592 23.328
  C -10.440 22.752 -8.784 22.248 -6.912 21.528
  L -15.192 21.528" stroke="none" fill="rgb(128,128,128)" />
<path d="
  M -15.192 21.528
  C -15.768 21.312 -16.344 21.024 -17.208 20.808
  C -17.712 20.736 -18.360 20.304 -18.936 19.800
  L -2.952 19.800
  C -4.320 20.520 -5.760 21.168 -6.912 21.528
  L -15.192 21.528" stroke="none" fill="rgb(131,131,131)" />
<path d="
  M -18.936 19.800
  C -19.656 19.152 -20.304 18.504 -20.520 18.000
  L -0.216 18.000
  C -1.152 18.648 -2.016 19.296 -2.952 19.800
  L -18.936 19.800" stroke="none" fill="rgb(133,133,133)" />
<path d="
  M -30.888 18.000
  C -30.600 18.288 -30.168 18.432 -29.808 18.576
  C -27.288 19.872 -24.840 18.576 -22.392 18.000
  L -30.888 18.000" stroke="none" fill="rgb(133,133,133)" />
<path d="
  M 4.320 18.000
  C 7.704 19.944 11.592 19.872 14.904 18.000
  L 4.320 18.000" stroke="none" fill="rgb(133,133,133)" />
<path d="
  M -30.888 18.000
  C -31.680 17.568 -32.256 16.920 -32.832 16.200
  L 1.872 16.200
  C 1.224 16.920 0.432 17.496 -0.216 18.000
  L -20.520 18.000
  C -20.592 17.856 -20.592 17.712 -20.592 17.640
  C -21.168 17.712 -21.744 17.856 -22.392 18.000
  L -30.888 18.000" stroke="none" fill="rgb(136,136,136)" />
<path d="
  M 4.320 18.000
  C 3.528 17.496 2.736 16.920 2.016 16.200
  L 17.208 16.200
  C 16.560 16.920 15.696 17.496 14.904 18.000
  L 4.320 18.000" stroke="none" fill="rgb(136,136,136)" />
<path d="
  M -32.832 16.200
  C -33.264 15.696 -33.624 15.120 -33.912 14.472
  L 22.752 14.472
  C 21.456 14.832 20.160 14.976 18.432 14.976
  C 18.072 15.480 17.640 15.912 17.208 16.200
  L 2.016 16.200
  C 2.016 16.200 1.944 16.128 1.944 16.128
  C 1.944 16.128 1.872 16.200 1.872 16.200
  L -32.832 16.200" stroke="none" fill="rgb(138,138,138)" />
<path d="
  M -33.912 14.472
  C -34.200 13.824 -34.416 13.248 -34.488 12.672
  L 25.128 12.672
  C 24.984 12.888 24.912 13.176 24.840 13.392
  C 24.048 13.824 23.400 14.184 22.752 14.472
  L -33.912 14.472" stroke="none" fill="rgb(141,141,141)" />
<path d="
  M -34.488 12.672
  C -34.632 12.096 -34.632 11.448 -34.632 10.872
  L 25.488 10.872
  C 25.416 11.448 25.272 12.096 25.128 12.672
  L -34.488 12.672" stroke="none" fill="rgb(146,146,146)" />
<path d="
  M -34.632 10.872
  C -34.560 10.296 -34.488 9.720 -34.272 9.072
  L 25.776 9.072
  C 25.776 9.720 25.632 10.296 25.488 10.872
  L -34.632 10.872" stroke="none" fill="rgb(146,146,146)" />
<path d="
  M -34.272 9.072
  C -34.128 8.568 -33.912 8.064 -33.552 7.632
  C -33.624 7.560 -33.624 7.488 -33.696 7.344
  L 25.776 7.344
  C 25.776 7.920 25.776 8.496 25.776 9.072
  L -34.272 9.072" stroke="none" fill="rgb(151,151,151)" />
<path d="
  M -33.696 7.344
  C -33.912 6.840 -33.984 6.192 -33.912 5.616
  L 25.200 5.544
  C 25.488 6.048 25.704 6.768 25.776 7.344
  L -33.696 7.344" stroke="none" fill="rgb(153,153,153)" />
<path d="
  M -33.912 5.616
  C -33.768 5.040 -33.696 4.392 -33.480 3.744
  L 23.472 3.744
  C 24.264 4.176 24.840 4.752 25.200 5.544
  L -33.912 5.616" stroke="none" fill="rgb(153,153,153)" />
<path d="
  M -33.480 3.744
  C -33.192 3.168 -32.976 2.520 -32.616 1.872
  L 16.560 2.016
  C 16.776 2.448 17.064 3.024 17.208 3.600
  C 18.720 3.528 20.880 2.808 22.320 3.240
  C 22.752 3.456 23.112 3.600 23.472 3.744
  L -33.480 3.744" stroke="none" fill="rgb(159,159,159)" />
<path d="
  M -32.616 1.872
  C -32.256 1.296 -31.824 0.720 -31.392 0.216
  L 14.832 0.216
  C 15.552 0.648 16.128 1.152 16.560 2.016
  L -32.616 1.872" stroke="none" fill="rgb(161,161,161)" />
<path d="
  M -31.392 0.216
  C -31.392 0.144 -31.392 0.144 -31.320 0.072
  C -29.808 -1.584 -27.360 -1.368 -24.984 -1.368
  C -24.984 -1.512 -24.984 -1.512 -24.984 -1.584
  L 7.848 -1.584
  C 7.848 -1.080 7.848 -0.576 7.848 -0.072
  C 10.728 -0.576 13.032 -0.792 14.832 0.216
  L -31.392 0.216" stroke="none" fill="rgb(164,164,164)" />
<path d="
  M -24.984 -1.584
  C -24.840 -2.160 -24.552 -2.808 -24.192 -3.312
  L 7.632 -3.312
  C 7.704 -2.736 7.704 -2.160 7.848 -1.584
  L -24.984 -1.584" stroke="none" fill="rgb(166,166,166)" />
<path d="
  M -24.192 -3.312
  C -23.904 -4.032 -23.400 -4.608 -22.896 -5.112
  L 7.416 -5.112
  C 7.488 -4.536 7.560 -3.960 7.632 -3.312
  L -24.192 -3.312" stroke="none" fill="rgb(169,169,169)" />
<path d="
  M -22.896 -5.112
  C -22.104 -5.904 -21.240 -6.480 -20.232 -6.912
  L -11.592 -6.984
  C -11.016 -6.624 -10.440 -6.192 -9.936 -5.688
  C -9.792 -6.120 -9.720 -6.552 -9.648 -6.912
  L 6.768 -6.912
  C 7.056 -6.336 7.200 -5.688 7.416 -5.112
  L -22.896 -5.112" stroke="none" fill="rgb(171,171,171)" />
<path d="
  M -20.232 -6.912
  C -17.640 -8.208 -14.328 -8.424 -11.592 -6.984
  L -20.232 -6.912" stroke="none" fill="rgb(174,174,174)" />
<path d="
  M -9.648 -6.912
  C -9.432 -7.560 -9.000 -8.208 -8.496 -8.712
  L 5.688 -8.712
  C 6.120 -8.208 6.552 -7.560 6.768 -6.912
  L -9.648 -6.912" stroke="none" fill="rgb(174,174,174)" />
<path d="
  M -8.496 -8.712
  C -7.776 -9.504 -6.768 -10.152 -5.688 -10.512
  L 3.096 -10.584
  C 4.176 -10.152 5.040 -9.432 5.688 -8.712
  L -8.496 -8.712" stroke="none" fill="rgb(176,176,176)" />
<path d="
  M -5.688 -10.512
  C -3.312 -11.520 -0.216 -11.592 2.088 -10.872
  C 2.376 -10.800 2.736 -10.656 3.096 -10.584
  L -5.688 -10.512" stroke="none" fill="rgb(179,179,179)" />
</g>
<path d="
  M -33.552 7.632
  C -34.632 5.688 -33.048 2.016 -31.320 0.072
  C -29.808 -1.584 -27.360 -1.368 -24.984 -1.368
  C -23.688 -7.272 -14.832 -10.368 -9.936 -5.688
  C -9.288 -10.584 -2.376 -12.240 2.088 -10.872
  C 7.272 -9.432 7.848 -4.536 7.848 -0.072
  C 12.384 -0.864 15.840 -1.008 17.208 3.600
  C 18.720 3.528 20.880 2.808 22.320 3.240
  C 27.072 4.680 25.920 10.008 24.840 13.392
  C 22.536 14.760 21.024 14.976 18.432 14.976
  C 14.184 20.304 6.984 21.024 1.944 16.128
  C -3.312 21.240 -8.640 21.816 -11.592 23.328
  C -13.968 22.320 -14.832 21.456 -17.208 20.808
  C -18.360 20.520 -20.592 18.576 -20.592 17.640
  C -23.688 17.928 -26.712 20.088 -29.808 18.576
  C -34.128 16.704 -36.000 11.088 -33.552 7.632" stroke="rgb(0,0,0)" stroke-width="0.504" fill="none" />
<g>
<path d="
  M -16.200 16.128
  C -16.200 16.128 -16.056 16.200 -16.056 16.200
  C -13.176 17.208 -10.872 17.424 -8.640 16.128
  L -16.200 16.128" stroke="none" fill="rgb(179,179,179)" />
<path d="
  M -16.200 16.128
  C -16.632 15.696 -16.632 15.264 -16.416 14.760
  L -7.056 14.760
  C -7.560 15.408 -8.136 15.768 -8.640 16.128
  L -16.200 16.128" stroke="none" fill="rgb(182,182,182)" />
<path d="
  M -16.416 14.760
  C -16.344 14.256 -15.984 13.824 -15.552 13.320
  L -8.856 13.320
  C -8.352 13.968 -7.416 14.616 -6.912 14.688
  C -6.912 14.688 -7.056 14.760 -7.056 14.760
  L -16.416 14.760" stroke="none" fill="rgb(182,182,182)" />
<path d="
  M -30.600 13.320
  C -29.664 14.688 -28.152 14.328 -26.712 13.320
  L -30.600 13.320" stroke="none" fill="rgb(182,182,182)" />
<path d="
  M -7.128 13.320
  C -5.328 13.680 -3.528 13.824 -1.872 13.320
  L -7.128 13.320" stroke="none" fill="rgb(182,182,182)" />
<path d="
  M 13.752 13.320
  C 14.184 13.536 14.328 13.608 13.968 13.608
  C 14.688 13.824 15.264 13.680 15.840 13.320
  L 13.752 13.320" stroke="none" fill="rgb(182,182,182)" />
<path d="
  M -30.600 13.320
  C -30.888 13.032 -31.104 12.600 -31.248 11.880
  L -22.608 11.880
  C -23.112 12.528 -23.400 12.888 -24.192 12.096
  C -24.480 13.680 -27.360 11.880 -25.920 12.672
  C -26.136 12.888 -26.424 13.176 -26.712 13.320
  L -30.600 13.320" stroke="none" fill="rgb(184,184,184)" />
<path d="
  M -15.552 13.320
  C -15.192 12.816 -14.544 12.312 -14.040 11.880
  L -1.296 11.880
  C -1.008 12.168 -0.792 12.528 -0.432 12.816
  C -0.864 13.104 -1.368 13.248 -1.872 13.320
  L -7.128 13.320
  C -7.848 13.248 -8.568 13.104 -9.216 12.816
  C -9.144 13.032 -9.072 13.176 -8.856 13.320
  L -15.552 13.320" stroke="none" fill="rgb(184,184,184)" />
<path d="
  M 13.752 13.320
  C 12.888 13.032 11.088 12.528 10.440 11.880
  L 17.136 11.880
  C 16.776 12.528 16.272 13.032 15.840 13.320
  L 13.752 13.320" stroke="none" fill="rgb(184,184,184)" />
<path d="
  M -31.248 11.880
  C -31.320 11.880 -31.320 11.808 -31.320 11.736
  C -31.392 11.304 -31.536 10.944 -31.536 10.512
  L -20.592 10.440
  C -20.664 10.512 -20.736 10.728 -20.736 11.088
  C -21.744 11.088 -22.248 11.592 -22.608 11.880
  L -31.248 11.880" stroke="none" fill="rgb(184,184,184)" />
<path d="
  M -14.040 11.880
  C -13.536 11.376 -13.032 10.944 -12.960 10.800
  C -15.984 10.800 -17.424 12.816 -18.144 10.656
  L -2.088 10.512
  C -1.872 10.944 -1.584 11.448 -1.296 11.880
  L -14.040 11.880" stroke="none" fill="rgb(184,184,184)" />
<path d="
  M 10.440 11.880
  C 10.152 11.736 10.080 11.664 10.080 11.448
  C 8.496 11.448 7.920 11.232 7.632 10.512
  L 18.144 10.512
  C 17.784 10.944 17.496 11.448 17.136 11.880
  L 10.440 11.880" stroke="none" fill="rgb(184,184,184)" />
<path d="
  M 1.080 10.512
  C 2.376 11.664 4.032 12.096 5.760 10.656
  L 1.080 10.512" stroke="none" fill="rgb(184,184,184)" />
<path d="
  M -31.536 10.512
  C -31.392 10.152 -31.320 9.648 -31.248 9.072
  L -2.376 9.072
  C -2.376 9.648 -2.232 10.152 -2.088 10.512
  L -18.144 10.656
  C -18.216 10.296 -18.216 10.008 -18.288 9.648
  C -18.576 10.728 -20.016 9.936 -20.592 10.440
  L -31.536 10.512" stroke="none" fill="rgb(187,187,187)" />
<path d="
  M 1.080 10.512
  C 0.576 10.152 0.072 9.720 -0.360 9.216
  L 5.616 9.072
  C 5.472 9.504 5.472 9.792 6.192 10.224
  C 6.048 10.368 5.976 10.440 5.760 10.656
  L 1.080 10.512" stroke="none" fill="rgb(187,187,187)" />
<path d="
  M 7.632 10.512
  C 7.488 10.224 7.416 9.720 7.272 9.072
  L 22.752 9.072
  C 21.024 9.792 21.312 9.216 19.224 9.216
  C 18.792 9.504 18.504 10.008 18.144 10.512
  L 7.632 10.512" stroke="none" fill="rgb(187,187,187)" />
<path d="
  M -31.248 9.072
  C -31.176 8.712 -31.032 8.208 -30.816 7.632
  L -28.512 7.632
  C -28.152 7.848 -27.576 7.848 -26.856 7.848
  C -26.856 7.776 -26.928 7.776 -26.928 7.632
  L -2.304 7.776
  C -2.376 8.280 -2.376 8.712 -2.376 9.072
  L -31.248 9.072" stroke="none" fill="rgb(187,187,187)" />
<path d="
  M -0.360 9.216
  C -0.792 8.712 -1.152 8.208 -1.512 7.632
  L 6.480 7.776
  C 6.264 8.424 5.832 8.784 5.616 9.072
  L -0.360 9.216" stroke="none" fill="rgb(187,187,187)" />
<path d="
  M 7.272 9.072
  C 7.200 8.712 7.056 8.280 6.912 7.632
  L 23.256 7.632
  C 23.256 8.064 23.112 8.496 22.968 9.000
  C 22.896 9.000 22.824 9.072 22.752 9.072
  L 7.272 9.072" stroke="none" fill="rgb(187,187,187)" />
<path d="
  M -30.816 7.632
  C -30.672 7.272 -30.456 6.840 -30.312 6.336
  L -29.592 6.336
  C -29.304 7.056 -29.016 7.488 -28.512 7.632
  L -30.816 7.632" stroke="none" fill="rgb(189,189,189)" />
<path d="
  M -26.928 7.632
  C -27.216 7.272 -27.360 6.840 -27.432 6.336
  L 23.040 6.192
  C 23.256 6.624 23.328 7.128 23.256 7.632
  L 6.912 7.632
  C 6.768 7.416 6.696 7.128 6.624 6.912
  C 6.624 7.272 6.552 7.488 6.480 7.776
  L -1.512 7.632
  C -1.800 7.344 -1.944 7.056 -2.088 6.840
  C -2.232 7.128 -2.232 7.416 -2.304 7.776
  L -26.928 7.632" stroke="none" fill="rgb(189,189,189)" />
<path d="
  M -30.312 6.336
  C -30.168 5.904 -29.952 5.400 -29.808 4.896
  L -29.808 4.896
  C -29.736 5.472 -29.664 5.904 -29.592 6.336
  L -30.312 6.336" stroke="none" fill="rgb(189,189,189)" />
<path d="
  M -27.432 6.336
  C -27.576 5.904 -27.720 5.400 -27.720 4.896
  L 15.552 4.752
  C 15.552 5.112 15.552 5.544 15.552 5.976
  C 15.768 5.544 16.128 5.112 16.488 4.896
  L 22.032 4.896
  C 22.536 5.184 22.896 5.688 23.040 6.192
  L -27.432 6.336" stroke="none" fill="rgb(189,189,189)" />
<path d="
  M -29.808 4.896
  C -29.808 4.896 -29.808 4.752 -29.808 4.752
  C -29.808 4.752 -29.808 4.896 -29.808 4.896
  L -29.808 4.896" stroke="none" fill="rgb(192,192,192)" />
<path d="
  M -27.720 4.896
  C -27.792 4.392 -27.792 3.888 -27.576 3.456
  L 7.416 3.456
  C 7.416 3.888 7.416 4.392 7.416 4.752
  C 8.712 4.176 9.360 3.960 9.648 3.456
  L 15.264 3.312
  C 15.336 3.744 15.408 4.248 15.552 4.752
  L -27.720 4.896" stroke="none" fill="rgb(192,192,192)" />
<path d="
  M 16.488 4.896
  C 18.144 3.528 20.592 3.672 22.032 4.896
  L 16.488 4.896" stroke="none" fill="rgb(192,192,192)" />
<path d="
  M -29.880 3.312
  C -29.880 3.528 -29.808 3.600 -29.808 3.672
  C -29.736 3.600 -29.736 3.528 -29.664 3.456
  L -29.880 3.312" stroke="none" fill="rgb(192,192,192)" />
<path d="
  M -29.880 3.312
  C -30.096 2.808 -30.168 2.448 -30.240 2.016
  L -28.224 2.088
  C -28.800 2.304 -29.304 2.808 -29.664 3.456
  L -29.880 3.312" stroke="none" fill="rgb(192,192,192)" />
<path d="
  M -27.576 3.456
  C -27.504 2.952 -27.360 2.448 -27.072 2.088
  L 7.416 2.088
  C 7.416 2.592 7.416 3.024 7.416 3.456
  L -27.576 3.456" stroke="none" fill="rgb(192,192,192)" />
<path d="
  M 9.648 3.456
  C 9.864 3.096 9.936 2.664 9.936 2.088
  L 14.688 2.088
  C 14.904 2.448 15.192 2.808 15.264 3.312
  L 9.648 3.456" stroke="none" fill="rgb(192,192,192)" />
<path d="
  M -30.240 2.016
  C -30.312 1.368 -30.240 1.008 -30.168 0.576
  L 7.272 0.648
  C 7.416 1.080 7.416 1.584 7.416 2.088
  L -27.072 2.088
  C -26.928 1.872 -26.856 1.728 -26.712 1.584
  C -27.216 1.584 -27.792 1.728 -28.224 2.088
  L -30.240 2.016" stroke="none" fill="rgb(194,194,194)" />
<path d="
  M 9.936 2.088
  C 9.936 1.728 9.936 1.512 9.936 1.080
  C 12.384 1.080 13.824 1.152 14.688 2.088
  L 9.936 2.088" stroke="none" fill="rgb(194,194,194)" />
<path d="
  M -30.168 0.576
  C -29.232 -1.872 -24.192 0.144 -22.032 0.144
  C -22.104 -0.144 -22.104 -0.432 -22.104 -0.792
  L 6.912 -0.864
  C 7.128 -0.360 7.200 0.144 7.272 0.648
  L -30.168 0.576" stroke="none" fill="rgb(197,197,197)" />
<path d="
  M -22.104 -0.792
  C -22.104 -1.224 -22.032 -1.656 -21.960 -2.160
  L 5.832 -2.160
  C 6.408 -1.800 6.696 -1.368 6.912 -0.864
  L -22.104 -0.792" stroke="none" fill="rgb(197,197,197)" />
<path d="
  M -21.960 -2.160
  C -21.744 -2.592 -21.600 -3.168 -21.312 -3.600
  L 2.736 -3.600
  C 2.736 -3.456 2.664 -3.240 2.592 -3.096
  C 4.104 -3.096 5.184 -2.736 5.832 -2.160
  L -21.960 -2.160" stroke="none" fill="rgb(199,199,199)" />
<path d="
  M -21.312 -3.600
  C -21.096 -4.104 -20.736 -4.608 -20.304 -5.040
  L -9.432 -5.040
  C -9.144 -4.968 -9.000 -4.896 -8.712 -4.752
  C -8.712 -4.896 -8.712 -4.968 -8.712 -5.040
  L 2.664 -4.968
  C 2.808 -4.536 2.808 -4.104 2.736 -3.600
  L -21.312 -3.600" stroke="none" fill="rgb(199,199,199)" />
<path d="
  M -20.304 -5.040
  C -19.656 -5.616 -18.864 -6.120 -17.784 -6.408
  L -13.608 -6.408
  C -12.384 -6.120 -11.016 -5.688 -9.432 -5.040
  L -20.304 -5.040" stroke="none" fill="rgb(202,202,202)" />
<path d="
  M -8.712 -5.040
  C -8.712 -5.544 -8.568 -6.048 -8.352 -6.480
  L 2.232 -6.336
  C 2.376 -5.832 2.592 -5.400 2.664 -4.968
  L -8.712 -5.040" stroke="none" fill="rgb(202,202,202)" />
<path d="
  M -17.784 -6.408
  C -16.704 -6.624 -15.336 -6.768 -13.608 -6.408
  L -17.784 -6.408" stroke="none" fill="rgb(202,202,202)" />
<path d="
  M -8.352 -6.480
  C -8.136 -6.984 -7.776 -7.488 -7.272 -7.848
  L 1.728 -7.920
  C 1.872 -7.632 2.016 -7.488 2.088 -7.272
  C 2.160 -6.912 2.232 -6.552 2.232 -6.336
  L -8.352 -6.480" stroke="none" fill="rgb(202,202,202)" />
<path d="
  M -7.272 -7.848
  C -4.824 -9.864 0.144 -9.432 1.728 -7.920
  L -7.272 -7.848" stroke="none" fill="rgb(204,204,204)" />
</g>
<path d="
  M -29.808 4.752
  C -30.456 7.416 -31.896 9.648 -31.320 11.736
  C -30.384 15.264 -27.936 14.616 -25.920 12.672
  C -27.360 11.880 -24.480 13.680 -24.192 12.096
  C -22.752 13.536 -23.040 11.088 -20.736 11.088
  C -20.736 9.432 -18.648 10.944 -18.288 9.648
  C -17.784 13.320 -16.344 10.800 -12.960 10.800
  C -13.320 11.448 -18.072 14.544 -16.056 16.200
  C -12.456 17.496 -9.504 17.496 -6.912 14.688
  C -7.632 14.616 -8.856 13.536 -9.216 12.816
  C -6.552 13.680 -3.096 14.184 -0.432 12.816
  C -2.304 11.088 -2.736 9.648 -2.088 6.840
  C -0.432 9.288 2.664 13.752 6.192 10.224
  C 4.392 9.216 6.624 9.000 6.624 6.912
  C 7.992 10.296 6.696 11.448 10.080 11.448
  C 10.080 12.384 15.192 13.608 13.968 13.608
  C 16.488 14.472 17.496 10.800 19.224 9.216
  C 21.384 9.216 21.024 9.864 22.968 9.000
  C 24.768 3.960 17.784 2.160 15.552 5.976
  C 15.552 1.296 14.184 1.080 9.936 1.080
  C 9.936 3.744 9.936 3.672 7.416 4.752
  C 7.416 1.008 7.992 -3.096 2.592 -3.096
  C 3.168 -4.608 2.448 -5.040 2.088 -7.272
  C 1.296 -9.864 -8.712 -10.584 -8.712 -4.752
  C -20.736 -10.152 -22.464 -2.448 -22.032 0.144
  C -24.840 0.144 -32.112 -3.168 -29.808 3.672
  C -29.232 2.520 -27.936 1.656 -26.712 1.584
  C -28.224 3.024 -27.936 5.904 -26.856 7.848
  C -29.232 7.848 -29.376 7.416 -29.808 4.752" stroke="rgb(0,0,0)" stroke-width="0.504" fill="none" />
</g>
<path d="
  M 0.504 4.032
  L -7.056 9.288
  L -7.056 5.832
  L -18.936 5.832
  L -18.936 2.232
  L -7.056 2.232
  L -7.056 -1.296
  L 0.504 4.032" stroke="rgb(0,0,0)" stroke-width="0.504" fill="rgb(0,0,0)" />
</g>
</svg>
