<?xml version="1.0" encoding="ISO-8859-1"?><!DOCTYPE svg PUBLIC "-//W3C//DTD SVG 1.1//EN" "http://www.w3.org/Graphics/SVG/1.1/DTD/svg11.dtd"><svg version="1.1" baseProfile="full" width="100%" height="100%" viewBox="-52.200 -21.600 108.000 108.000" xmlns="http://www.w3.org/2000/svg" xmlns:xlink="http://www.w3.org/1999/xlink">
<path d="
  M 1.800 21.600
  C 31.536 21.600 55.800 -2.664 55.800 -32.400
  C 55.800 -62.136 31.536 -86.400 1.800 -86.400
  C -27.936 -86.400 -52.200 -62.136 -52.200 -32.400
  C -52.200 -2.664 -27.936 21.600 1.800 21.600
  L 1.800 1.512
  L -26.424 1.512
  L -26.424 -0.720
  C -21.240 -0.720 -17.064 -2.736 -17.064 -8.496
  L -17.064 -59.472
  C -17.064 -66.240 -19.584 -67.320 -26.424 -67.320
  L -26.424 -69.840
  L 3.384 -69.840
  L 3.384 -67.320
  C -1.728 -67.320 -6.048 -66.240 -6.048 -59.472
  L -6.048 -9.576
  C -4.968 -2.736 -0.792 -3.312 3.384 -3.312
  L 17.712 -3.312
  C 22.896 -3.312 32.328 -8.496 33.912 -16.992
  L 37.512 -16.992
  L 31.392 1.512
  L 1.800 1.512
  L 1.800 21.600" stroke="none" />
</svg>
