<?xml version="1.0" encoding="ISO-8859-1"?><!DOCTYPE svg PUBLIC "-//W3C//DTD SVG 1.1//EN" "http://www.w3.org/Graphics/SVG/1.1/DTD/svg11.dtd"><svg version="1.1" baseProfile="full" width="100%" height="100%" viewBox="-54.000 -72.000 108.000 144.000" stroke="black" xmlns="http://www.w3.org/2000/svg" xmlns:xlink="http://www.w3.org/1999/xlink">
<circle cx="0" cy="0" r="54" fill="none"/>
<circle cx="0" cy="0" r="36"/>
<path d="
  M -36.000 -0.000
  L -36.000 -0.000
  L -35.712 6.264
  L -34.920 12.528
  L -33.552 18.648
  L -31.680 24.624
  L -29.232 30.456
  L -26.352 36.000
  L -22.968 41.328
  L -19.152 46.296
  L -14.904 50.904
  L -10.296 55.152
  L -5.328 58.968
  L 0.000 62.352
  L 5.544 65.232
  L 11.376 67.680
  L 17.352 69.552
  L 23.472 70.920
  L 29.736 71.712
  L 36.000 72.000
  L 42.264 71.712
  L 49.824 70.776
  L 43.704 69.552
  L 37.728 67.680
  L 31.896 65.232
  L 26.352 62.352
  L 21.024 58.968
  L 16.056 55.152
  L 11.448 50.904
  L 7.200 46.296
  L 3.384 41.328
  L 0.000 36.000
  L -6.264 35.424
  L -12.312 33.840
  L -18.000 31.176
  L -23.112 27.576
  L -25.488 25.488
  L -27.576 23.112
  L -31.176 18.000
  L -33.840 12.312
  L -35.424 6.264
  L -36.000 -0.000Z" fill="none" />
<path d="
  M 36.000 -0.000
  L 36.000 -0.000
  L 35.712 -6.264
  L 34.920 -12.528
  L 33.552 -18.648
  L 31.680 -24.624
  L 29.232 -30.456
  L 26.352 -36.000
  L 22.968 -41.328
  L 19.152 -46.296
  L 14.904 -50.904
  L 10.296 -55.152
  L 5.328 -58.968
  L 0.000 -62.352
  L -5.544 -65.232
  L -11.376 -67.680
  L -17.352 -69.552
  L -23.472 -70.920
  L -29.736 -71.712
  L -36.000 -72.000
  L -42.264 -71.712
  L -49.824 -70.776
  L -43.704 -69.552
  L -37.728 -67.680
  L -31.896 -65.232
  L -26.352 -62.352
  L -21.024 -58.968
  L -16.056 -55.152
  L -11.448 -50.904
  L -7.200 -46.296
  L -3.384 -41.328
  L 0.000 -36.000
  L 6.264 -35.424
  L 12.312 -33.840
  L 18.000 -31.176
  L 23.112 -27.576
  L 25.488 -25.488
  L 27.576 -23.112
  L 31.176 -18.000
  L 33.840 -12.312
  L 35.424 -6.264
  L 36.000 -0.000Z" fill="none" />
<circle cx="0" cy="0" r="54" fill="none"/>
</svg>
