<?xml version="1.0" encoding="ISO-8859-1"?><!DOCTYPE svg PUBLIC "-//W3C//DTD SVG 1.1//EN" "http://www.w3.org/Graphics/SVG/1.1/DTD/svg11.dtd"><svg version="1.1" baseProfile="full" width="100%" height="100%" viewBox="-27.648 -41.760 55.584 83.808" xmlns="http://www.w3.org/2000/svg" xmlns:xlink="http://www.w3.org/1999/xlink">
<g>
<g>
<g>
<g>
<path d="
  M -12.744 -0.504
  C -11.016 -0.000 -9.000 0.360 -7.128 0.360
  C -6.984 0.360 -6.480 0.360 -5.976 0.288
  L -12.744 -0.504" stroke="none" fill="rgb(62,233,255)" />
<path d="
  M -12.744 -0.504
  C -13.824 -0.792 -14.904 -1.224 -15.840 -1.728
  C -16.416 -2.016 -16.992 -2.376 -17.496 -3.024
  L -2.304 -1.152
  C -2.952 -0.648 -3.672 -0.216 -4.608 -0.000
  C -4.896 0.072 -5.472 0.144 -5.976 0.288
  L -12.744 -0.504" stroke="none" fill="rgb(72,235,255)" />
<path d="
  M -17.496 -3.024
  C -18.000 -3.600 -18.504 -4.248 -18.792 -4.968
  L -0.648 -2.808
  C -1.152 -2.088 -1.656 -1.584 -2.304 -1.152
  L -17.496 -3.024" stroke="none" fill="rgb(82,235,255)" />
<path d="
  M -18.792 -4.968
  C -19.080 -5.688 -19.368 -6.336 -19.440 -7.056
  L 0.216 -4.536
  C 0.072 -3.960 -0.288 -3.384 -0.648 -2.808
  L -18.792 -4.968" stroke="none" fill="rgb(92,238,255)" />
<path d="
  M -19.440 -7.056
  C -19.440 -7.416 -19.440 -7.848 -19.440 -8.208
  C -19.440 -8.424 -19.440 -8.640 -19.584 -8.928
  L 0.792 -6.336
  C 0.648 -5.760 0.504 -5.112 0.216 -4.536
  L -19.440 -7.056" stroke="none" fill="rgb(102,238,255)" />
<path d="
  M -19.584 -8.928
  C -19.584 -9.504 -19.440 -10.080 -19.296 -10.800
  L 1.008 -8.208
  C 1.008 -7.632 0.936 -6.984 0.792 -6.336
  L -19.584 -8.928" stroke="none" fill="rgb(113,240,255)" />
<path d="
  M -19.296 -10.800
  C -19.152 -11.376 -18.936 -11.952 -18.792 -12.600
  L 1.152 -10.080
  C 1.152 -9.504 1.152 -8.856 1.008 -8.208
  L -19.296 -10.800" stroke="none" fill="rgb(123,240,255)" />
<path d="
  M -18.792 -12.600
  C -18.576 -13.176 -18.360 -13.752 -18.216 -14.328
  L -18.216 -14.328
  L 1.152 -11.952
  C 1.152 -11.376 1.152 -10.800 1.152 -10.080
  L -18.792 -12.600" stroke="none" fill="rgb(133,243,255)" />
<path d="
  M -18.216 -14.328
  L -17.280 -16.128
  L 0.936 -13.968
  C 1.008 -13.320 1.008 -12.672 1.152 -11.952
  L -18.216 -14.328" stroke="none" fill="rgb(143,243,255)" />
<path d="
  M -17.280 -16.128
  L -16.488 -17.784
  L -16.416 -17.856
  L 0.648 -15.912
  C 0.648 -15.408 0.720 -15.048 0.792 -14.616
  C 0.792 -14.472 0.936 -14.112 0.936 -13.968
  L -17.280 -16.128" stroke="none" fill="rgb(153,243,255)" />
<path d="
  M -16.416 -17.856
  L -15.408 -19.656
  L 0.360 -17.784
  C 0.360 -17.424 0.432 -16.992 0.504 -16.632
  C 0.504 -16.416 0.504 -16.128 0.648 -15.912
  L -16.416 -17.856" stroke="none" fill="rgb(164,245,255)" />
<path d="
  M -15.408 -19.656
  L -14.328 -21.456
  L -0.144 -19.728
  C 0.072 -19.152 0.144 -18.504 0.360 -17.784
  L -15.408 -19.656" stroke="none" fill="rgb(174,248,255)" />
<path d="
  M -14.328 -21.456
  L -13.320 -23.040
  C -13.320 -23.040 -13.320 -23.112 -13.248 -23.112
  L -0.648 -21.744
  C -0.648 -21.600 -0.576 -21.528 -0.576 -21.456
  C -0.432 -20.952 -0.288 -20.376 -0.144 -19.728
  L -14.328 -21.456" stroke="none" fill="rgb(184,248,255)" />
<path d="
  M -13.248 -23.112
  C -13.032 -23.472 -12.672 -24.192 -12.096 -24.984
  L -1.224 -23.688
  C -1.080 -23.040 -0.864 -22.320 -0.648 -21.744
  L -13.248 -23.112" stroke="none" fill="rgb(194,248,255)" />
<path d="
  M -12.096 -24.984
  C -11.664 -25.488 -11.304 -26.064 -10.800 -26.640
  L -1.728 -25.560
  C -1.728 -25.344 -1.656 -25.200 -1.656 -25.056
  C -1.512 -24.552 -1.368 -24.120 -1.224 -23.688
  L -12.096 -24.984" stroke="none" fill="rgb(204,250,255)" />
<path d="
  M -10.800 -26.640
  C -10.368 -27.216 -10.008 -27.864 -9.504 -28.440
  L -2.448 -27.648
  C -2.160 -26.856 -1.944 -26.064 -1.728 -25.560
  L -10.800 -26.640" stroke="none" fill="rgb(215,253,255)" />
<path d="
  M -9.504 -28.440
  C -9.144 -28.944 -8.640 -29.520 -8.208 -30.096
  L -3.024 -29.592
  C -2.952 -29.016 -2.592 -28.296 -2.448 -27.648
  L -9.504 -28.440" stroke="none" fill="rgb(225,253,255)" />
<path d="
  M -8.208 -30.096
  C -7.776 -30.672 -7.344 -31.248 -6.840 -31.896
  L -3.672 -31.464
  L -3.240 -30.024
  C -3.240 -29.880 -3.096 -29.736 -3.024 -29.592
  L -8.208 -30.096" stroke="none" fill="rgb(235,253,255)" />
<path d="
  M -6.840 -31.896
  C -6.336 -32.472 -5.904 -33.048 -5.472 -33.624
  L -4.392 -33.408
  L -3.672 -31.464
  L -6.840 -31.896" stroke="none" fill="rgb(245,255,255)" />
<path d="
  M -5.472 -33.624
  C -5.184 -33.912 -4.896 -34.200 -4.680 -34.560
  L -4.392 -33.408
  L -5.472 -33.624" stroke="none" fill="rgb(255,255,255)" />
</g>
<path d="
  M -4.680 -34.560
  C -7.560 -31.104 -12.672 -24.264 -13.320 -23.040
  L -16.488 -17.784
  L -18.216 -14.328
  C -18.648 -12.600 -19.728 -10.224 -19.440 -8.208
  C -19.656 -5.976 -18.072 -2.664 -15.840 -1.728
  C -13.320 -0.504 -10.080 0.360 -7.128 0.360
  C -6.768 0.360 -5.184 0.144 -4.608 -0.000
  C 1.728 -1.728 1.512 -9.792 0.792 -14.616
  C 0.720 -15.192 0.504 -16.128 0.504 -16.632
  C 0.216 -18.216 -0.144 -19.944 -0.576 -21.456
  C -0.864 -22.392 -1.224 -23.760 -1.656 -25.056
  C -1.944 -26.064 -2.808 -28.944 -3.240 -30.024
  L -4.680 -34.560" stroke="rgb(0,0,0)" stroke-width="0.216" fill="none" />
<g>
<path d="
  M -10.008 -2.232
  C -9.216 -2.016 -8.496 -2.016 -7.776 -1.872
  L -10.008 -2.232" stroke="none" fill="rgb(125,255,255)" />
<path d="
  M -10.008 -2.232
  C -11.520 -2.376 -12.960 -2.880 -14.256 -3.456
  C -14.472 -3.600 -15.048 -4.104 -15.336 -4.104
  C -15.624 -4.248 -15.840 -4.464 -15.912 -4.680
  L -3.312 -2.880
  C -3.600 -2.664 -4.032 -2.520 -4.176 -2.376
  C -4.320 -2.376 -5.472 -2.088 -5.688 -2.088
  C -6.336 -2.016 -7.056 -1.872 -7.776 -1.872
  L -10.008 -2.232" stroke="none" fill="rgb(131,255,255)" />
<path d="
  M -15.912 -4.680
  C -16.488 -5.112 -16.776 -5.544 -17.064 -5.976
  L -17.280 -6.264
  C -17.280 -6.336 -17.424 -6.336 -17.424 -6.480
  L -1.512 -4.464
  C -1.656 -4.176 -2.520 -3.456 -3.312 -2.880
  L -15.912 -4.680" stroke="none" fill="rgb(138,255,255)" />
<path d="
  M -17.424 -6.480
  C -17.496 -6.840 -17.712 -7.416 -17.784 -7.776
  C -17.784 -7.848 -17.784 -8.064 -17.856 -8.136
  L -0.864 -5.976
  C -1.080 -5.472 -1.224 -4.896 -1.512 -4.464
  C -1.512 -4.464 -1.512 -4.464 -1.512 -4.464
  L -17.424 -6.480" stroke="none" fill="rgb(146,255,255)" />
<path d="
  M -17.856 -8.136
  C -17.856 -8.640 -17.856 -9.216 -17.784 -9.720
  L -0.432 -7.632
  C -0.576 -7.128 -0.720 -6.552 -0.864 -5.976
  L -17.856 -8.136" stroke="none" fill="rgb(153,255,255)" />
<path d="
  M -17.784 -9.720
  C -17.784 -10.296 -17.712 -10.872 -17.568 -11.520
  L -0.144 -9.288
  C -0.288 -8.856 -0.360 -8.208 -0.432 -7.632
  L -17.784 -9.720" stroke="none" fill="rgb(159,255,255)" />
<path d="
  M -17.568 -11.520
  C -17.496 -12.096 -17.424 -12.672 -17.208 -13.176
  L -0.072 -11.088
  C -0.072 -10.512 -0.144 -9.936 -0.144 -9.288
  L -17.568 -11.520" stroke="none" fill="rgb(166,255,255)" />
<path d="
  M -17.208 -13.176
  C -17.064 -13.536 -16.992 -13.968 -16.920 -14.256
  L -16.704 -14.616
  L -0.072 -12.672
  C -0.072 -12.168 -0.072 -11.592 -0.072 -11.088
  L -17.208 -13.176" stroke="none" fill="rgb(174,255,255)" />
<path d="
  M -16.704 -14.616
  L -16.128 -16.200
  L -0.144 -14.328
  C -0.072 -13.824 -0.072 -13.248 -0.072 -12.672
  L -16.704 -14.616" stroke="none" fill="rgb(182,255,255)" />
<path d="
  M -16.128 -16.200
  L -15.552 -17.496
  L -15.336 -17.784
  L -0.360 -16.128
  C -0.288 -15.624 -0.144 -15.048 -0.144 -14.328
  L -16.128 -16.200" stroke="none" fill="rgb(187,255,255)" />
<path d="
  M -15.336 -17.784
  L -14.328 -19.296
  L -0.720 -17.568
  L -0.576 -16.920
  C -0.432 -16.704 -0.432 -16.416 -0.360 -16.128
  L -15.336 -17.784" stroke="none" fill="rgb(194,255,255)" />
<path d="
  M -14.328 -19.296
  L -13.320 -20.808
  L -1.224 -19.368
  L -0.720 -17.568
  L -14.328 -19.296" stroke="none" fill="rgb(202,255,255)" />
<path d="
  M -13.320 -20.808
  L -12.240 -22.320
  L -1.728 -21.168
  L -1.224 -19.368
  L -13.320 -20.808" stroke="none" fill="rgb(207,255,255)" />
<path d="
  M -12.240 -22.320
  L -11.376 -23.760
  L -2.232 -22.680
  L -1.728 -21.168
  L -12.240 -22.320" stroke="none" fill="rgb(215,255,255)" />
<path d="
  M -11.376 -23.760
  L -10.296 -25.344
  L -2.736 -24.480
  L -2.232 -22.680
  L -11.376 -23.760" stroke="none" fill="rgb(222,255,255)" />
<path d="
  M -10.296 -25.344
  L -10.224 -25.560
  C -9.936 -25.992 -9.648 -26.424 -9.216 -27.072
  L -3.312 -26.280
  L -2.736 -24.480
  L -10.296 -25.344" stroke="none" fill="rgb(230,255,255)" />
<path d="
  M -9.216 -27.072
  C -8.856 -27.504 -8.424 -28.008 -8.064 -28.440
  L -3.672 -27.936
  L -3.312 -26.280
  L -9.216 -27.072" stroke="none" fill="rgb(235,255,255)" />
<path d="
  M -8.064 -28.440
  C -7.848 -28.728 -7.632 -29.016 -7.416 -29.232
  C -7.344 -29.376 -7.128 -29.736 -6.840 -30.024
  L -4.320 -29.592
  L -3.672 -27.936
  L -8.064 -28.440" stroke="none" fill="rgb(243,255,255)" />
<path d="
  M -6.840 -30.024
  C -6.552 -30.384 -6.192 -30.816 -5.760 -31.464
  L -4.752 -31.392
  L -4.320 -29.592
  L -6.840 -30.024" stroke="none" fill="rgb(250,255,255)" />
<path d="
  M -5.760 -31.464
  C -5.688 -31.464 -5.688 -31.608 -5.688 -31.608
  C -5.184 -32.328 -4.968 -32.040 -4.752 -31.464
  L -4.752 -31.392
  L -5.760 -31.464" stroke="none" fill="rgb(255,255,255)" />
</g>
<path d="
  M -5.688 -31.608
  C -6.336 -30.384 -7.128 -29.736 -7.416 -29.232
  C -8.136 -28.296 -9.504 -26.640 -10.224 -25.560
  L -15.552 -17.496
  L -16.920 -14.256
  C -17.424 -12.960 -18.072 -9.432 -17.784 -7.776
  C -17.712 -7.416 -17.496 -6.624 -17.280 -6.264
  L -17.064 -5.976
  C -16.704 -5.400 -16.344 -4.824 -15.336 -4.104
  C -15.048 -4.104 -14.472 -3.600 -14.256 -3.456
  C -11.664 -2.304 -8.352 -1.584 -5.688 -2.088
  C -5.472 -2.088 -4.320 -2.376 -4.176 -2.376
  C -3.528 -2.664 -1.728 -3.960 -1.512 -4.464
  C 0.432 -8.352 0.144 -14.544 -0.576 -16.920
  L -4.752 -31.464
  C -4.968 -32.040 -5.184 -32.328 -5.688 -31.608" stroke="rgb(0,0,0)" stroke-width="0.216" fill="none" />
<path d="
  M -4.968 -6.192
  C -4.176 -5.976 -3.528 -5.760 -3.024 -5.472
  C -3.024 -4.824 -4.464 -4.104 -5.256 -3.888
  C -5.472 -3.888 -5.976 -3.960 -6.192 -3.888
  C -7.272 -4.176 -8.064 -4.536 -8.352 -5.400
  C -7.920 -5.400 -7.344 -5.256 -6.984 -5.256
  C -6.768 -5.256 -6.336 -5.400 -6.264 -5.400
  C -5.688 -5.544 -5.544 -5.688 -4.968 -6.192" stroke="rgb(0,0,0)" stroke-width="0.216" fill="rgb(240,240,240)" />
<path d="
  M -1.512 -11.952
  C -1.512 -11.376 -1.800 -10.728 -2.160 -10.080
  L -3.024 -8.064
  C -3.240 -7.632 -3.600 -7.344 -3.816 -7.056
  C -3.240 -6.840 -2.592 -6.624 -1.944 -6.552
  C -1.728 -7.776 -0.936 -9.216 -1.152 -10.368
  C -1.224 -11.016 -1.440 -11.520 -1.512 -11.952" stroke="rgb(0,0,0)" stroke-width="0.216" fill="rgb(240,240,240)" />
</g>
<path d="
  M -17.856 -10.728
  C -17.568 -10.728 -18.288 -8.712 -18.000 -8.712
  C -17.784 -8.928 -16.704 -9.648 -16.488 -9.792
  C -16.488 -10.512 -14.904 -12.672 -14.472 -12.960
  C -14.472 -12.456 -16.344 -9.144 -16.128 -8.640
  L -15.840 -8.424
  L -14.904 -8.424
  L -14.904 -7.560
  C -15.120 -7.344 -15.408 -7.056 -15.408 -6.624
  C -15.408 -6.624 -14.256 -5.544 -13.968 -5.544
  L -13.464 -5.544
  L -11.592 -9.792
  C -11.592 -9.504 -10.728 -6.840 -10.728 -6.480
  C -10.872 -6.192 -11.160 -5.976 -11.160 -5.544
  L -10.224 -5.112
  L -10.224 -4.248
  C -9.720 -4.248 -9.216 -3.888 -8.856 -3.888
  L -8.856 -2.880
  C -7.632 -2.880 -5.760 -2.520 -4.608 -2.520
  C -3.600 -3.384 -1.080 -4.896 0.360 -4.248
  C 0.360 -2.304 -2.448 -0.432 -2.448 1.944
  C -2.736 1.944 -2.952 2.232 -2.952 2.448
  C -4.320 2.448 -6.624 2.808 -7.632 3.672
  C -7.632 4.680 -7.128 7.056 -6.984 7.776
  L -6.480 7.920
  C -6.192 8.640 -7.128 11.088 -7.632 11.592
  C -7.632 12.672 -7.632 13.752 -8.496 14.040
  C -8.496 15.984 -10.008 20.232 -8.352 21.816
  L -8.352 22.680
  C -10.008 24.264 -9.216 26.784 -10.872 28.224
  L -10.872 30.528
  C -11.880 31.392 -11.880 33.336 -11.880 34.560
  C -14.256 32.256 -12.600 26.424 -12.600 23.616
  C -12.096 23.616 -11.880 23.112 -11.376 22.680
  C -11.376 20.088 -15.840 17.064 -12.744 14.256
  L -12.744 12.888
  L -13.752 11.952
  L -13.752 7.344
  C -14.904 6.192 -15.840 5.760 -15.840 4.032
  C -17.712 2.232 -18.000 -0.000 -19.368 -1.800
  L -19.368 -2.304
  L -20.016 -2.664
  L -19.872 -4.536
  L -20.448 -6.336
  L -19.440 -10.080
  L -18.216 -13.248
  L -17.856 -10.728" stroke="none" fill="rgb(255,255,255)" />
<path d="
  M -17.856 -10.728
  L -17.784 -10.368
  L -17.856 -9.720
  L -18.072 -9.000
  L -18.000 -8.712
  L -18.000 -8.712
  L -17.712 -8.928
  L -17.208 -9.288
  L -16.776 -9.648
  L -16.488 -9.792
  L -16.488 -9.792
  L -16.200 -10.584
  L -15.624 -11.592
  L -14.904 -12.456
  L -14.472 -12.960
  L -14.472 -12.960
  L -14.760 -12.168
  L -15.336 -10.800
  L -15.912 -9.432
  L -16.128 -8.640
  L -15.840 -8.424
  L -14.904 -8.424
  L -14.904 -7.560
  L -14.904 -7.560
  L -15.120 -7.344
  L -15.192 -7.128
  L -15.336 -6.984
  L -15.408 -6.624
  L -15.408 -6.624
  L -15.192 -6.480
  L -14.832 -6.192
  L -14.328 -5.760
  L -13.968 -5.544
  L -13.464 -5.544
  L -11.592 -9.792
  L -11.592 -9.792
  L -11.520 -9.216
  L -11.088 -8.136
  L -10.800 -7.128
  L -10.728 -6.480
  L -10.728 -6.480
  L -10.872 -6.264
  L -11.016 -6.048
  L -11.088 -5.904
  L -11.160 -5.544
  L -10.224 -5.112
  L -10.224 -4.248
  L -10.224 -4.248
  L -9.792 -4.176
  L -9.504 -4.104
  L -9.144 -3.960
  L -8.856 -3.888
  L -8.856 -2.880
  L -8.856 -2.880
  L -8.352 -2.880
  L -7.848 -2.808
  L -7.272 -2.808
  L -6.624 -2.664
  L -6.192 -2.592
  L -5.544 -2.592
  L -5.112 -2.520
  L -4.608 -2.520
  L -4.608 -2.520
  L -4.176 -2.880
  L -3.600 -3.312
  L -2.952 -3.600
  L -2.232 -3.960
  L -1.512 -4.248
  L -0.864 -4.392
  L -0.288 -4.464
  L 0.360 -4.248
  L 0.360 -4.248
  L -0.072 -2.808
  L -1.080 -1.296
  L -2.016 0.288
  L -2.448 1.944
  L -2.448 1.944
  L -2.592 1.944
  L -2.808 2.160
  L -2.952 2.232
  L -2.952 2.448
  L -2.952 2.448
  L -3.528 2.448
  L -4.104 2.520
  L -4.752 2.592
  L -5.400 2.736
  L -6.048 2.952
  L -6.624 3.096
  L -7.272 3.384
  L -7.632 3.672
  L -7.632 3.672
  L -7.560 4.680
  L -7.344 5.904
  L -7.128 6.984
  L -6.984 7.776
  L -6.480 7.920
  L -6.480 7.920
  L -6.480 8.712
  L -6.768 9.792
  L -7.272 10.872
  L -7.632 11.592
  L -7.632 11.592
  L -7.632 12.384
  L -7.776 13.032
  L -8.064 13.680
  L -8.496 14.040
  L -8.496 14.040
  L -8.712 15.912
  L -9.000 18.072
  L -9.000 20.232
  L -8.352 21.816
  L -8.352 22.680
  L -8.352 22.680
  L -9.216 23.976
  L -9.648 25.488
  L -10.008 26.928
  L -10.872 28.224
  L -10.872 30.528
  L -10.872 30.528
  L -11.520 31.392
  L -11.808 32.328
  L -11.880 33.552
  L -11.880 34.560
  L -11.880 34.560
  L -12.960 32.256
  L -13.032 29.304
  L -12.744 26.136
  L -12.600 23.616
  L -12.600 23.616
  L -12.240 23.472
  L -11.952 23.328
  L -11.664 23.040
  L -11.376 22.680
  L -11.376 22.680
  L -11.592 21.744
  L -12.096 20.664
  L -12.672 19.656
  L -13.248 18.576
  L -13.680 17.496
  L -13.824 16.416
  L -13.536 15.336
  L -12.744 14.256
  L -12.744 12.888
  L -13.752 11.952
  L -13.752 7.344
  L -13.752 7.344
  L -14.544 6.552
  L -15.192 5.904
  L -15.624 5.112
  L -15.840 4.032
  L -15.840 4.032
  L -16.416 3.312
  L -16.992 2.592
  L -17.424 1.872
  L -17.784 1.080
  L -18.072 0.360
  L -18.504 -0.432
  L -18.864 -1.152
  L -19.368 -1.800
  L -19.368 -2.304
  L -20.016 -2.664
  L -19.872 -4.536
  L -20.448 -6.336
  L -19.440 -10.080
  L -18.216 -13.248
  L -17.856 -10.728
  L -17.856 -10.728" stroke="none" fill="rgb(0,0,0)" />
<path d="
  M -8.136 1.224
  C -9.144 1.224 -10.512 0.576 -11.304 0.576
  C -11.304 1.152 -15.408 0.936 -14.472 -0.360
  L -13.464 1.440
  C -13.464 1.728 -15.120 3.384 -11.592 2.304
  L -11.592 3.096
  C -11.808 3.240 -12.096 3.384 -12.240 3.528
  L -12.240 4.104
  C -11.160 5.112 -10.872 6.696 -9.792 7.632
  L -9.792 8.208
  L -10.512 8.928
  C -10.512 9.288 -10.368 9.792 -10.368 10.224
  L -9.792 10.800
  L -9.792 11.880
  C -9.216 12.456 -12.168 12.384 -12.168 13.176
  C -12.744 13.464 -9.936 13.968 -10.512 13.968
  C -10.512 14.472 -11.160 15.120 -10.728 15.120
  L -10.296 15.984
  C -10.296 16.488 -10.872 16.344 -10.872 16.992
  L -10.368 17.784
  L -11.088 19.152
  L -10.080 19.152
  C -10.080 19.584 -10.728 20.088 -10.080 20.160
  L -10.800 20.736
  L -9.720 21.528
  L -10.080 22.104
  C -10.080 22.320 -11.088 22.320 -11.160 22.392
  C -11.160 22.896 -10.296 23.472 -10.296 23.904
  C -11.520 25.200 -12.168 34.056 -12.168 32.688
  C -11.304 31.896 -11.520 30.600 -10.224 26.280
  C -10.008 25.560 -8.136 22.032 -8.496 21.960
  C -9.792 22.032 -8.496 17.208 -9.000 15.912
  C -8.496 15.408 -8.712 14.328 -8.712 13.680
  C -8.208 13.392 -8.136 13.032 -7.848 12.744
  C -7.848 11.880 -7.128 8.856 -6.552 8.208
  L -7.272 7.416
  C -7.560 7.344 -7.344 7.272 -7.560 7.056
  L -7.848 3.816
  C -6.768 2.952 -4.608 2.232 -3.672 1.944
  C -3.312 1.656 -2.592 1.656 -2.592 1.224
  C -2.304 1.080 -2.520 0.072 -2.160 0.072
  C -2.160 -1.008 -0.360 -2.016 -0.360 -3.456
  L -0.936 -3.960
  C -2.304 -3.960 -2.160 -1.512 -3.384 -1.008
  C -3.384 -0.792 -4.752 0.576 -4.752 0.648
  C -5.976 0.648 -7.128 1.224 -8.136 1.224" stroke="none" fill="rgb(164,204,204)" />
</g>
<g>
<g>
<g>
<path d="
  M 10.872 -7.416
  C 12.024 -7.056 13.320 -6.840 14.544 -6.840
  C 14.616 -6.840 14.976 -6.840 15.408 -6.984
  L 10.872 -7.416" stroke="none" fill="rgb(62,233,255)" />
<path d="
  M 10.872 -7.416
  C 10.152 -7.632 9.504 -7.848 8.928 -8.136
  C 8.496 -8.352 8.136 -8.640 7.704 -9.000
  L 17.856 -7.848
  C 17.352 -7.416 16.848 -7.272 16.272 -7.056
  C 16.056 -7.056 15.696 -6.984 15.408 -6.984
  L 10.872 -7.416" stroke="none" fill="rgb(72,235,255)" />
<path d="
  M 7.704 -9.000
  C 7.416 -9.432 7.128 -9.936 6.912 -10.368
  L 18.936 -8.928
  C 18.648 -8.496 18.288 -8.136 17.856 -7.848
  L 7.704 -9.000" stroke="none" fill="rgb(82,235,255)" />
<path d="
  M 6.912 -10.368
  C 6.768 -10.800 6.552 -11.160 6.552 -11.592
  L 19.440 -10.080
  C 19.368 -9.648 19.152 -9.288 18.936 -8.928
  L 6.912 -10.368" stroke="none" fill="rgb(92,238,255)" />
<path d="
  M 6.552 -11.592
  C 6.408 -11.952 6.408 -12.240 6.408 -12.600
  C 6.408 -12.672 6.408 -12.744 6.408 -12.888
  L 19.800 -11.376
  C 19.728 -10.872 19.656 -10.512 19.440 -10.080
  L 6.552 -11.592" stroke="none" fill="rgb(102,238,255)" />
<path d="
  M 6.408 -12.888
  C 6.336 -13.248 6.408 -13.752 6.552 -14.112
  L 20.016 -12.672
  C 20.016 -12.168 19.944 -11.808 19.800 -11.376
  L 6.408 -12.888" stroke="none" fill="rgb(113,240,255)" />
<path d="
  M 6.552 -14.112
  C 6.624 -14.544 6.768 -14.904 6.840 -15.336
  L 20.016 -13.752
  C 20.016 -13.320 20.016 -12.960 20.016 -12.672
  L 6.552 -14.112" stroke="none" fill="rgb(123,240,255)" />
<path d="
  M 6.840 -15.336
  C 7.056 -15.696 7.128 -16.128 7.344 -16.488
  L 20.016 -15.048
  C 20.016 -14.616 20.016 -14.112 20.016 -13.752
  L 6.840 -15.336" stroke="none" fill="rgb(133,243,255)" />
<path d="
  M 7.344 -16.488
  C 7.344 -16.488 7.344 -16.632 7.344 -16.632
  L 7.848 -17.712
  L 19.944 -16.200
  C 19.944 -15.840 20.016 -15.408 20.016 -15.048
  L 7.344 -16.488" stroke="none" fill="rgb(143,243,255)" />
<path d="
  M 7.848 -17.712
  L 8.280 -18.864
  L 8.424 -18.936
  L 19.728 -17.496
  C 19.800 -17.280 19.800 -16.992 19.800 -16.776
  C 19.800 -16.632 19.944 -16.416 19.944 -16.200
  L 7.848 -17.712" stroke="none" fill="rgb(153,243,255)" />
<path d="
  M 8.424 -18.936
  L 9.072 -20.160
  L 19.440 -18.936
  C 19.512 -18.648 19.512 -18.504 19.656 -18.216
  C 19.656 -18.000 19.728 -17.784 19.728 -17.496
  L 8.424 -18.936" stroke="none" fill="rgb(164,245,255)" />
<path d="
  M 9.072 -20.160
  L 9.792 -21.312
  L 19.224 -20.160
  C 19.368 -19.728 19.440 -19.368 19.440 -18.936
  L 9.072 -20.160" stroke="none" fill="rgb(174,248,255)" />
<path d="
  M 9.792 -21.312
  L 10.440 -22.392
  C 10.440 -22.392 10.440 -22.392 10.440 -22.536
  L 18.936 -21.456
  C 18.936 -21.456 18.936 -21.312 18.936 -21.312
  C 19.008 -20.952 19.152 -20.520 19.224 -20.160
  L 9.792 -21.312" stroke="none" fill="rgb(184,248,255)" />
<path d="
  M 10.440 -22.536
  C 10.656 -22.680 10.944 -23.112 11.232 -23.616
  L 18.576 -22.680
  C 18.648 -22.248 18.864 -21.744 18.936 -21.456
  L 10.440 -22.536" stroke="none" fill="rgb(194,248,255)" />
<path d="
  M 11.232 -23.616
  C 11.592 -23.976 11.880 -24.264 12.168 -24.768
  L 18.144 -23.976
  C 18.288 -23.904 18.288 -23.904 18.288 -23.760
  C 18.360 -23.400 18.432 -23.040 18.576 -22.680
  L 11.232 -23.616" stroke="none" fill="rgb(204,250,255)" />
<path d="
  M 12.168 -24.768
  C 12.456 -25.056 12.744 -25.488 13.032 -25.992
  L 17.784 -25.344
  C 17.928 -24.768 18.072 -24.264 18.144 -23.976
  L 12.168 -24.768" stroke="none" fill="rgb(215,253,255)" />
<path d="
  M 13.032 -25.992
  C 13.248 -26.280 13.536 -26.640 13.824 -26.928
  L 17.280 -26.640
  C 17.496 -26.280 17.568 -25.776 17.784 -25.344
  L 13.032 -25.992" stroke="none" fill="rgb(225,253,255)" />
<path d="
  M 13.824 -26.928
  C 14.112 -27.360 14.400 -27.720 14.688 -28.152
  L 16.848 -27.936
  L 17.136 -27.072
  C 17.136 -26.928 17.280 -26.712 17.280 -26.640
  L 13.824 -26.928" stroke="none" fill="rgb(235,253,255)" />
<path d="
  M 14.688 -28.152
  C 14.976 -28.584 15.408 -29.016 15.696 -29.304
  L 16.416 -29.304
  L 16.848 -27.936
  L 14.688 -28.152" stroke="none" fill="rgb(245,255,255)" />
<path d="
  M 15.696 -29.304
  C 15.912 -29.592 15.984 -29.808 16.200 -30.024
  L 16.416 -29.304
  L 15.696 -29.304" stroke="none" fill="rgb(255,255,255)" />
</g>
<path d="
  M 16.200 -30.024
  C 14.328 -27.720 10.944 -23.184 10.440 -22.392
  L 8.280 -18.864
  L 7.344 -16.632
  C 6.912 -15.408 6.264 -13.824 6.408 -12.600
  C 6.336 -11.088 7.344 -8.856 8.928 -8.136
  C 10.440 -7.416 12.672 -6.840 14.544 -6.840
  C 14.832 -6.840 15.912 -6.984 16.272 -7.056
  C 20.448 -8.136 20.304 -13.680 19.800 -16.776
  C 19.800 -17.208 19.728 -17.784 19.656 -18.216
  C 19.440 -19.152 19.224 -20.376 18.936 -21.312
  C 18.720 -21.888 18.432 -22.896 18.288 -23.760
  C 18.072 -24.408 17.496 -26.280 17.136 -27.072
  L 16.200 -30.024" stroke="rgb(0,0,0)" stroke-width="0.216" fill="none" />
<g>
<path d="
  M 11.952 -8.640
  C 12.960 -8.424 13.896 -8.352 14.904 -8.352
  L 11.952 -8.640" stroke="none" fill="rgb(125,255,255)" />
<path d="
  M 11.952 -8.640
  C 11.232 -8.856 10.440 -9.000 9.864 -9.288
  C 9.792 -9.432 9.288 -9.720 9.216 -9.792
  C 9.000 -9.936 8.928 -10.008 8.712 -10.080
  L 17.352 -9.144
  C 17.064 -8.928 16.776 -8.712 16.560 -8.640
  C 16.488 -8.640 15.696 -8.424 15.624 -8.424
  C 15.408 -8.424 15.120 -8.352 14.904 -8.352
  L 11.952 -8.640" stroke="none" fill="rgb(131,255,255)" />
<path d="
  M 8.712 -10.080
  C 8.424 -10.512 8.136 -10.728 7.992 -11.088
  L 7.920 -11.304
  C 7.920 -11.304 7.920 -11.376 7.848 -11.376
  L 18.360 -10.080
  C 18.360 -10.080 18.360 -10.008 18.360 -10.008
  C 18.288 -9.792 17.856 -9.432 17.352 -9.144
  L 8.712 -10.080" stroke="none" fill="rgb(138,255,255)" />
<path d="
  M 7.848 -11.376
  C 7.704 -11.592 7.632 -11.952 7.488 -12.240
  C 7.488 -12.384 7.488 -12.384 7.488 -12.456
  L 18.720 -11.088
  C 18.648 -10.800 18.576 -10.368 18.360 -10.080
  L 7.848 -11.376" stroke="none" fill="rgb(146,255,255)" />
<path d="
  M 7.488 -12.456
  C 7.416 -12.744 7.416 -13.176 7.488 -13.536
  L 19.008 -12.168
  C 18.936 -11.880 18.864 -11.520 18.720 -11.088
  L 7.488 -12.456" stroke="none" fill="rgb(153,255,255)" />
<path d="
  M 7.488 -13.536
  C 7.488 -13.824 7.488 -14.256 7.632 -14.616
  L 19.224 -13.248
  C 19.152 -12.960 19.152 -12.600 19.008 -12.168
  L 7.488 -13.536" stroke="none" fill="rgb(159,255,255)" />
<path d="
  M 7.632 -14.616
  C 7.704 -14.904 7.704 -15.336 7.848 -15.624
  L 19.368 -14.472
  C 19.368 -14.040 19.224 -13.680 19.224 -13.248
  L 7.632 -14.616" stroke="none" fill="rgb(166,255,255)" />
<path d="
  M 7.848 -15.624
  C 7.920 -15.984 7.992 -16.344 8.136 -16.488
  L 8.208 -16.704
  L 19.368 -15.552
  C 19.368 -15.120 19.368 -14.760 19.368 -14.472
  L 7.848 -15.624" stroke="none" fill="rgb(174,255,255)" />
<path d="
  M 8.208 -16.704
  L 8.640 -17.712
  L 19.224 -16.632
  C 19.224 -16.200 19.368 -15.912 19.368 -15.552
  L 8.208 -16.704" stroke="none" fill="rgb(182,255,255)" />
<path d="
  M 8.640 -17.712
  L 9.000 -18.648
  L 9.072 -18.792
  L 19.152 -17.712
  C 19.152 -17.424 19.224 -16.992 19.224 -16.632
  L 8.640 -17.712" stroke="none" fill="rgb(187,255,255)" />
<path d="
  M 9.072 -18.792
  L 9.720 -19.728
  L 18.864 -18.648
  L 18.936 -18.288
  C 19.008 -18.072 19.008 -17.856 19.152 -17.712
  L 9.072 -18.792" stroke="none" fill="rgb(194,255,255)" />
<path d="
  M 9.720 -19.728
  L 10.368 -20.808
  L 18.576 -19.872
  L 18.864 -18.648
  L 9.720 -19.728" stroke="none" fill="rgb(202,255,255)" />
<path d="
  M 10.368 -20.808
  L 11.088 -21.816
  L 18.144 -20.952
  L 18.576 -19.872
  L 10.368 -20.808" stroke="none" fill="rgb(207,255,255)" />
<path d="
  M 11.088 -21.816
  L 11.736 -22.896
  L 17.856 -22.104
  L 18.144 -20.952
  L 11.088 -21.816" stroke="none" fill="rgb(215,255,255)" />
<path d="
  M 11.736 -22.896
  L 12.456 -23.904
  L 17.568 -23.328
  L 17.856 -22.104
  L 11.736 -22.896" stroke="none" fill="rgb(222,255,255)" />
<path d="
  M 12.456 -23.904
  L 12.528 -24.120
  C 12.744 -24.408 12.960 -24.696 13.248 -24.984
  L 17.136 -24.408
  L 17.568 -23.328
  L 12.456 -23.904" stroke="none" fill="rgb(230,255,255)" />
<path d="
  M 13.248 -24.984
  C 13.464 -25.272 13.752 -25.632 14.040 -25.992
  L 16.848 -25.560
  L 17.136 -24.408
  L 13.248 -24.984" stroke="none" fill="rgb(235,255,255)" />
<path d="
  M 14.040 -25.992
  C 14.112 -26.136 14.328 -26.352 14.400 -26.424
  C 14.544 -26.568 14.616 -26.712 14.688 -26.928
  L 16.560 -26.640
  L 16.848 -25.560
  L 14.040 -25.992" stroke="none" fill="rgb(243,255,255)" />
<path d="
  M 14.688 -26.928
  C 14.904 -27.144 15.192 -27.504 15.480 -27.864
  L 16.272 -27.864
  L 16.560 -26.640
  L 14.688 -26.928" stroke="none" fill="rgb(250,255,255)" />
<path d="
  M 15.480 -27.864
  C 15.480 -27.936 15.624 -27.936 15.624 -28.008
  C 15.912 -28.512 15.984 -28.440 16.200 -28.008
  L 16.272 -27.864
  L 15.480 -27.864" stroke="none" fill="rgb(255,255,255)" />
</g>
<path d="
  M 15.624 -28.008
  C 15.120 -27.360 14.616 -26.712 14.400 -26.424
  C 13.896 -25.848 13.032 -24.768 12.528 -24.120
  L 9.000 -18.648
  L 8.136 -16.488
  C 7.704 -15.696 7.344 -13.320 7.488 -12.240
  C 7.632 -11.952 7.704 -11.520 7.920 -11.304
  L 7.992 -11.088
  C 8.208 -10.584 8.496 -10.296 9.216 -9.792
  C 9.288 -9.720 9.792 -9.432 9.864 -9.288
  C 11.592 -8.640 13.824 -8.136 15.624 -8.424
  C 15.696 -8.424 16.488 -8.640 16.560 -8.640
  C 16.992 -8.856 18.144 -9.648 18.360 -10.008
  C 19.656 -12.672 19.440 -16.776 18.936 -18.288
  L 16.200 -28.008
  C 15.984 -28.440 15.912 -28.512 15.624 -28.008" stroke="rgb(0,0,0)" stroke-width="0.216" fill="none" />
<path d="
  M 16.056 -11.160
  C 16.560 -11.088 16.992 -10.872 17.352 -10.728
  C 17.352 -10.296 16.272 -9.720 15.912 -9.648
  C 15.696 -9.648 15.408 -9.720 15.192 -9.648
  C 14.544 -9.792 13.896 -10.008 13.824 -10.728
  C 14.112 -10.584 14.400 -10.584 14.688 -10.584
  C 14.832 -10.584 15.120 -10.728 15.192 -10.728
  C 15.480 -10.800 15.696 -10.872 16.056 -11.160" stroke="rgb(0,0,0)" stroke-width="0.216" fill="rgb(240,240,240)" />
<path d="
  M 18.360 -15.048
  C 18.360 -14.616 18.072 -14.256 17.928 -13.824
  L 17.352 -12.456
  C 17.136 -12.168 16.992 -11.952 16.776 -11.808
  C 17.136 -11.592 17.568 -11.520 18.072 -11.520
  C 18.144 -12.168 18.720 -13.176 18.576 -14.040
  C 18.432 -14.328 18.360 -14.760 18.360 -15.048" stroke="rgb(0,0,0)" stroke-width="0.216" fill="rgb(240,240,240)" />
</g>
<path d="
  M 7.488 -14.256
  C 7.632 -14.256 7.200 -12.888 7.344 -12.888
  C 7.488 -13.032 8.208 -13.464 8.424 -13.680
  C 8.424 -14.040 9.360 -15.552 9.792 -15.696
  C 9.792 -15.408 8.496 -13.176 8.712 -12.888
  L 8.784 -12.672
  L 9.360 -12.672
  L 9.360 -12.096
  C 9.288 -11.952 9.072 -11.808 9.072 -11.520
  C 9.072 -11.520 9.864 -10.800 10.080 -10.800
  L 10.368 -10.800
  L 11.664 -13.536
  C 11.664 -13.464 12.240 -11.664 12.240 -11.376
  C 12.024 -11.160 11.952 -11.088 11.952 -10.800
  L 12.528 -10.512
  L 12.528 -9.936
  C 12.816 -9.936 13.104 -9.648 13.536 -9.648
  L 13.536 -9.000
  C 14.184 -9.000 15.480 -8.712 16.272 -8.712
  C 16.848 -9.288 18.648 -10.296 19.512 -9.936
  C 19.512 -8.496 17.640 -7.344 17.640 -5.760
  C 17.568 -5.760 17.352 -5.544 17.352 -5.472
  C 16.488 -5.472 14.904 -5.184 14.184 -4.680
  C 14.184 -4.104 14.616 -2.376 14.688 -2.016
  L 14.976 -1.800
  C 15.192 -1.440 14.616 0.288 14.184 0.576
  C 14.184 1.224 14.184 2.016 13.608 2.160
  C 13.608 3.528 12.744 6.336 13.824 7.344
  L 13.824 7.920
  C 12.744 9.000 13.104 10.584 12.024 11.664
  L 12.024 13.176
  C 11.448 13.752 11.448 15.048 11.448 15.840
  C 9.864 14.328 10.944 10.512 10.944 8.568
  C 11.376 8.568 11.448 8.208 11.736 7.920
  C 11.736 6.192 8.784 4.176 10.872 2.304
  L 10.872 1.440
  L 10.152 0.864
  L 10.152 -2.304
  C 9.360 -3.024 8.784 -3.312 8.784 -4.464
  C 7.632 -5.544 7.416 -7.056 6.408 -8.208
  L 6.408 -8.496
  L 6.048 -8.856
  L 6.120 -10.080
  L 5.760 -11.376
  L 6.408 -13.752
  L 7.200 -15.912
  L 7.488 -14.256" stroke="none" fill="rgb(255,255,255)" />
<path d="
  M 7.488 -14.256
  L 7.488 -14.040
  L 7.416 -13.536
  L 7.344 -13.032
  L 7.344 -12.888
  L 7.344 -12.888
  L 7.488 -13.032
  L 7.920 -13.248
  L 8.208 -13.464
  L 8.424 -13.680
  L 8.424 -13.680
  L 8.640 -14.112
  L 9.000 -14.760
  L 9.360 -15.336
  L 9.792 -15.696
  L 9.792 -15.696
  L 9.576 -15.192
  L 9.216 -14.328
  L 8.784 -13.320
  L 8.712 -12.888
  L 8.784 -12.672
  L 9.360 -12.672
  L 9.360 -12.096
  L 9.360 -12.096
  L 9.288 -11.952
  L 9.216 -11.880
  L 9.072 -11.664
  L 9.072 -11.520
  L 9.072 -11.520
  L 9.216 -11.376
  L 9.504 -11.160
  L 9.864 -10.872
  L 10.080 -10.800
  L 10.368 -10.800
  L 11.664 -13.536
  L 11.664 -13.536
  L 11.736 -13.248
  L 11.952 -12.600
  L 12.168 -11.880
  L 12.240 -11.376
  L 12.240 -11.376
  L 12.168 -11.304
  L 12.024 -11.088
  L 11.952 -11.016
  L 11.952 -10.800
  L 12.528 -10.512
  L 12.528 -9.936
  L 12.528 -9.936
  L 12.744 -9.936
  L 13.032 -9.792
  L 13.248 -9.648
  L 13.536 -9.648
  L 13.536 -9.000
  L 13.536 -9.000
  L 14.112 -9.000
  L 14.904 -8.928
  L 15.624 -8.712
  L 16.272 -8.712
  L 16.272 -8.712
  L 16.560 -8.928
  L 16.848 -9.216
  L 17.352 -9.432
  L 17.784 -9.720
  L 18.288 -9.936
  L 18.720 -10.008
  L 19.152 -10.008
  L 19.512 -9.936
  L 19.512 -9.936
  L 19.224 -8.928
  L 18.648 -7.920
  L 17.928 -6.840
  L 17.640 -5.760
  L 17.640 -5.760
  L 17.568 -5.760
  L 17.496 -5.688
  L 17.352 -5.544
  L 17.352 -5.472
  L 17.352 -5.472
  L 16.992 -5.472
  L 16.560 -5.400
  L 16.200 -5.400
  L 15.696 -5.256
  L 15.336 -5.112
  L 14.904 -4.968
  L 14.544 -4.824
  L 14.184 -4.680
  L 14.184 -4.680
  L 14.328 -4.104
  L 14.400 -3.312
  L 14.616 -2.520
  L 14.688 -2.016
  L 14.976 -1.800
  L 14.976 -1.800
  L 14.976 -1.296
  L 14.832 -0.648
  L 14.544 0.144
  L 14.184 0.576
  L 14.184 0.576
  L 14.184 1.080
  L 14.112 1.512
  L 13.896 1.944
  L 13.608 2.160
  L 13.608 2.160
  L 13.536 3.384
  L 13.320 4.896
  L 13.320 6.264
  L 13.824 7.344
  L 13.824 7.920
  L 13.824 7.920
  L 13.248 8.856
  L 12.960 9.792
  L 12.672 10.800
  L 12.024 11.664
  L 12.024 13.176
  L 12.024 13.176
  L 11.736 13.752
  L 11.592 14.472
  L 11.448 15.120
  L 11.448 15.840
  L 11.448 15.840
  L 10.656 14.328
  L 10.656 12.384
  L 10.872 10.296
  L 10.944 8.568
  L 10.944 8.568
  L 11.232 8.424
  L 11.376 8.352
  L 11.592 8.136
  L 11.736 7.920
  L 11.736 7.920
  L 11.664 7.272
  L 11.376 6.552
  L 10.944 5.904
  L 10.584 5.184
  L 10.296 4.464
  L 10.152 3.672
  L 10.296 3.024
  L 10.872 2.304
  L 10.872 1.440
  L 10.152 0.864
  L 10.152 -2.304
  L 10.152 -2.304
  L 9.576 -2.808
  L 9.216 -3.168
  L 8.928 -3.672
  L 8.784 -4.464
  L 8.784 -4.464
  L 8.136 -5.256
  L 7.488 -6.336
  L 7.056 -7.344
  L 6.408 -8.208
  L 6.408 -8.496
  L 6.048 -8.856
  L 6.120 -10.080
  L 5.760 -11.376
  L 6.408 -13.752
  L 7.200 -15.912
  L 7.488 -14.256
  L 7.488 -14.256" stroke="none" fill="rgb(0,0,0)" />
<path d="
  M 13.896 -6.264
  C 13.320 -6.264 12.312 -6.624 11.880 -6.624
  C 11.880 -6.264 9.072 -6.336 9.792 -7.272
  L 10.368 -6.048
  C 10.368 -5.904 9.288 -4.824 11.664 -5.472
  L 11.664 -4.968
  C 11.592 -4.896 11.376 -4.824 11.160 -4.752
  L 11.160 -4.392
  C 11.952 -3.744 12.168 -2.664 12.816 -2.016
  L 12.816 -1.728
  L 12.312 -1.224
  C 12.312 -0.936 12.456 -0.648 12.456 -0.360
  L 12.816 0.072
  L 12.816 0.720
  C 13.248 1.152 11.232 1.080 11.232 1.656
  C 10.872 1.872 12.744 2.160 12.312 2.160
  C 12.312 2.448 11.952 2.952 12.240 2.952
  L 12.456 3.528
  C 12.456 3.888 12.024 3.672 12.024 4.176
  L 12.456 4.680
  L 11.952 5.544
  L 12.672 5.544
  C 12.672 5.904 12.240 6.192 12.672 6.264
  L 12.168 6.696
  L 12.960 7.272
  L 12.672 7.560
  C 12.672 7.776 11.952 7.776 11.880 7.776
  C 11.880 8.064 12.528 8.424 12.528 8.712
  C 11.664 9.648 11.232 15.408 11.232 14.616
  C 11.880 14.040 11.736 13.176 12.528 10.296
  C 12.744 9.936 13.896 7.416 13.752 7.416
  C 12.816 7.416 13.608 4.320 13.320 3.384
  C 13.608 3.096 13.536 2.448 13.536 1.944
  C 13.824 1.728 13.896 1.512 14.112 1.368
  C 14.112 0.720 14.616 -1.296 14.976 -1.584
  L 14.544 -2.088
  C 14.328 -2.232 14.400 -2.304 14.328 -2.376
  L 14.112 -4.680
  C 14.832 -5.112 16.272 -5.544 16.848 -5.760
  C 17.064 -5.976 17.568 -5.976 17.568 -6.264
  C 17.784 -6.336 17.640 -6.984 17.856 -6.984
  C 17.856 -7.776 19.152 -8.424 19.152 -9.288
  L 18.648 -9.720
  C 17.784 -9.720 17.856 -8.064 17.064 -7.776
  C 17.064 -7.632 16.200 -6.624 16.200 -6.552
  C 15.408 -6.552 14.616 -6.264 13.896 -6.264" stroke="none" fill="rgb(164,204,204)" />
</g>
</g>
</svg>
