<?xml version="1.0" encoding="ISO-8859-1"?><!DOCTYPE svg PUBLIC "-//W3C//DTD SVG 1.1//EN" "http://www.w3.org/Graphics/SVG/1.1/DTD/svg11.dtd"><svg version="1.1" baseProfile="full" width="100%" height="100%" viewBox="-43.920 -39.672 87.048 80.064" xmlns="http://www.w3.org/2000/svg" xmlns:xlink="http://www.w3.org/1999/xlink">
<g>
<g>
<g>
<path d="
  M 11.448 -9.144
  L 12.168 -9.288
  L 11.448 -9.360
  L 11.448 -9.144" stroke="none" fill="rgb(255,255,54)" />
<path d="
  M 9.144 -19.224
  L 9.792 -19.656
  L 8.928 -19.512
  L 9.144 -19.224" stroke="none" fill="rgb(255,255,54)" />
<path d="
  M 2.880 -27.216
  L 3.240 -27.792
  L 2.664 -27.360
  L 2.880 -27.216" stroke="none" fill="rgb(255,255,54)" />
<path d="
  M -6.120 -31.752
  L -6.120 -32.184
  L -6.264 -31.752
  L -6.120 -31.752" stroke="none" fill="rgb(255,255,54)" />
<path d="
  M -16.416 -32.040
  L -16.632 -32.472
  L -16.632 -32.040
  L -16.416 -32.040" stroke="none" fill="rgb(255,255,54)" />
<path d="
  M -25.848 -27.792
  L -26.424 -28.368
  L -26.064 -27.576
  L -25.848 -27.792" stroke="none" fill="rgb(255,255,54)" />
<path d="
  M -35.208 -9.360
  L -36.000 -9.288
  L -35.208 -9.144
  L -35.208 -9.360" stroke="none" fill="rgb(255,255,54)" />
<path d="
  M -16.776 13.536
  L -16.776 14.040
  L -16.632 13.680
  L -16.776 13.536" stroke="none" fill="rgb(255,255,54)" />
<path d="
  M -6.696 13.464
  L -6.552 13.824
  L -6.552 13.464
  L -6.696 13.464" stroke="none" fill="rgb(255,255,54)" />
<path d="
  M 2.880 8.784
  L 3.528 9.504
  L 3.168 8.568
  L 2.880 8.784" stroke="none" fill="rgb(255,255,54)" />
<path d="
  M 9.144 0.792
  L 10.440 1.296
  L 9.360 0.432
  C 9.360 0.504 9.360 0.576 9.144 0.792" stroke="none" fill="rgb(255,255,54)" />
<path d="
  M 11.448 -9.144
  L 9.792 -9.000
  C 9.792 -9.288 9.792 -9.432 9.720 -9.720
  L 11.448 -9.360
  L 11.448 -9.144" stroke="none" fill="rgb(255,255,67)" />
<path d="
  M 9.144 -19.224
  L 7.776 -18.216
  C 7.776 -18.432 7.560 -18.720 7.272 -19.080
  L 8.928 -19.512
  L 9.144 -19.224" stroke="none" fill="rgb(255,255,67)" />
<path d="
  M 2.880 -27.216
  L 2.016 -25.848
  C 1.800 -25.992 1.584 -26.208 1.440 -26.280
  L 2.664 -27.360
  L 2.880 -27.216" stroke="none" fill="rgb(255,255,67)" />
<path d="
  M -6.120 -31.752
  L -6.264 -30.024
  C -6.696 -30.312 -6.840 -30.312 -6.840 -30.240
  L -6.264 -31.752
  L -6.120 -31.752" stroke="none" fill="rgb(255,255,67)" />
<path d="
  M -16.416 -32.040
  L -15.840 -30.384
  C -15.912 -30.528 -16.128 -30.528 -16.488 -30.312
  L -16.632 -32.040
  L -16.416 -32.040" stroke="none" fill="rgb(255,255,67)" />
<path d="
  M -25.848 -27.792
  L -24.696 -26.640
  C -24.768 -26.640 -24.984 -26.424 -25.200 -26.208
  L -26.064 -27.576
  L -25.848 -27.792" stroke="none" fill="rgb(255,255,67)" />
<path d="
  M -35.208 -9.360
  L -33.480 -9.648
  C -33.552 -9.360 -33.552 -9.144 -33.552 -8.856
  L -35.208 -9.144
  L -35.208 -9.360" stroke="none" fill="rgb(255,255,67)" />
<path d="
  M -16.776 13.536
  L -16.632 11.880
  C -16.200 12.024 -16.056 12.096 -15.912 12.024
  L -16.632 13.680
  L -16.776 13.536" stroke="none" fill="rgb(255,255,67)" />
<path d="
  M -6.696 13.464
  L -7.128 11.880
  C -7.056 12.024 -6.840 11.880 -6.480 11.736
  L -6.552 13.464
  L -6.696 13.464" stroke="none" fill="rgb(255,255,67)" />
<path d="
  M 2.880 8.784
  L 1.800 7.632
  C 2.016 7.560 2.232 7.344 2.520 7.056
  L 3.168 8.568
  L 2.880 8.784" stroke="none" fill="rgb(255,255,67)" />
<path d="
  M 9.144 0.792
  L 7.560 0.216
  C 7.848 -0.144 7.992 -0.432 7.992 -0.648
  L 9.360 0.432
  C 9.360 0.504 9.360 0.576 9.144 0.792" stroke="none" fill="rgb(255,255,67)" />
<path d="
  M -31.248 -18.720
  L -32.472 -19.080
  L -31.392 -18.288
  C -31.536 -18.432 -31.392 -18.504 -31.248 -18.720" stroke="none" fill="rgb(255,255,67)" />
<path d="
  M -31.608 -0.360
  L -32.904 0.432
  L -31.392 -0.000
  C -31.608 -0.288 -31.680 -0.360 -31.608 -0.360" stroke="none" fill="rgb(255,255,67)" />
<path d="
  M -25.704 7.416
  L -26.136 8.208
  L -25.488 7.632
  L -25.704 7.416" stroke="none" fill="rgb(255,255,67)" />
<path d="
  M 9.720 -9.720
  L 8.064 -10.008
  C 8.136 -9.648 8.136 -9.144 8.136 -8.784
  L 9.792 -9.000
  C 9.792 -9.288 9.792 -9.432 9.720 -9.720" stroke="none" fill="rgb(255,255,77)" />
<path d="
  M 7.776 -18.216
  L 6.480 -17.352
  C 6.264 -17.712 6.120 -18.216 5.688 -18.792
  L 7.272 -19.080
  C 7.560 -18.720 7.776 -18.432 7.776 -18.216" stroke="none" fill="rgb(255,255,77)" />
<path d="
  M 2.016 -25.848
  L 1.152 -24.336
  C 0.864 -24.768 0.432 -25.056 0.072 -25.272
  L 1.440 -26.280
  C 1.584 -26.208 1.800 -25.992 2.016 -25.848" stroke="none" fill="rgb(255,255,77)" />
<path d="
  M -6.264 -30.024
  L -6.480 -28.440
  C -6.840 -28.656 -7.272 -28.728 -7.416 -28.728
  L -6.840 -30.240
  C -6.840 -30.312 -6.696 -30.312 -6.264 -30.024" stroke="none" fill="rgb(255,255,77)" />
<path d="
  M -15.840 -30.384
  L -15.120 -28.944
  C -15.552 -28.872 -15.912 -28.872 -16.416 -28.656
  L -16.488 -30.312
  C -16.128 -30.528 -15.912 -30.528 -15.840 -30.384" stroke="none" fill="rgb(255,255,77)" />
<path d="
  M -24.696 -26.640
  L -23.400 -25.416
  C -23.832 -25.344 -24.120 -25.056 -24.336 -24.624
  L -25.200 -26.208
  C -24.984 -26.424 -24.768 -26.640 -24.696 -26.640" stroke="none" fill="rgb(255,255,77)" />
<path d="
  M -31.248 -18.720
  L -29.592 -18.288
  C -29.880 -17.928 -30.024 -17.640 -30.024 -17.424
  L -31.392 -18.288
  C -31.536 -18.432 -31.392 -18.504 -31.248 -18.720" stroke="none" fill="rgb(255,255,77)" />
<path d="
  M -33.480 -9.648
  L -31.824 -9.864
  C -31.896 -9.432 -31.896 -9.072 -31.824 -8.712
  L -33.552 -8.856
  C -33.552 -9.144 -33.552 -9.360 -33.480 -9.648" stroke="none" fill="rgb(255,255,77)" />
<path d="
  M -31.608 -0.360
  L -30.240 -1.224
  C -30.168 -1.080 -30.024 -0.792 -29.736 -0.360
  L -31.392 -0.000
  C -31.608 -0.288 -31.680 -0.360 -31.608 -0.360" stroke="none" fill="rgb(255,255,77)" />
<path d="
  M -25.704 7.416
  L -24.768 5.976
  C -24.624 6.264 -24.336 6.480 -24.120 6.552
  L -25.488 7.632
  L -25.704 7.416" stroke="none" fill="rgb(255,255,77)" />
<path d="
  M -16.632 11.880
  L -16.488 10.224
  C -16.056 10.440 -15.552 10.440 -15.264 10.512
  L -15.912 12.024
  C -16.056 12.096 -16.200 12.024 -16.632 11.880" stroke="none" fill="rgb(255,255,77)" />
<path d="
  M -7.128 11.880
  L -7.776 10.440
  C -7.344 10.368 -6.840 10.224 -6.408 10.080
  L -6.480 11.736
  C -6.840 11.880 -7.056 12.024 -7.128 11.880" stroke="none" fill="rgb(255,255,77)" />
<path d="
  M 1.800 7.632
  L 0.576 6.336
  C 1.008 6.192 1.440 5.904 1.728 5.400
  L 2.520 7.056
  C 2.232 7.344 2.016 7.560 1.800 7.632" stroke="none" fill="rgb(255,255,77)" />
<path d="
  M 7.560 0.216
  L 6.120 -0.360
  C 6.408 -0.864 6.552 -1.368 6.768 -1.728
  L 7.992 -0.648
  C 7.992 -0.432 7.848 -0.144 7.560 0.216" stroke="none" fill="rgb(255,255,77)" />
<path d="
  M 8.064 -10.008
  L 6.480 -10.440
  C 6.552 -9.720 6.552 -9.144 6.480 -8.496
  L 8.136 -8.784
  C 8.136 -9.144 8.136 -9.648 8.064 -10.008" stroke="none" fill="rgb(255,255,87)" />
<path d="
  M 6.480 -17.352
  L 5.040 -16.344
  C 4.824 -17.064 4.536 -17.712 4.032 -18.432
  L 5.688 -18.792
  C 6.120 -18.216 6.264 -17.712 6.480 -17.352" stroke="none" fill="rgb(255,255,87)" />
<path d="
  M 1.152 -24.336
  L 0.216 -22.968
  C -0.216 -23.472 -0.720 -23.904 -1.080 -24.192
  L 0.072 -25.272
  C 0.432 -25.056 0.864 -24.768 1.152 -24.336" stroke="none" fill="rgb(255,255,87)" />
<path d="
  M -6.480 -28.440
  L -6.696 -26.712
  C -7.272 -27.000 -7.776 -27.072 -8.136 -27.216
  L -7.416 -28.728
  C -7.272 -28.728 -6.840 -28.656 -6.480 -28.440" stroke="none" fill="rgb(255,255,87)" />
<path d="
  M -15.120 -28.944
  L -14.544 -27.288
  C -15.048 -27.288 -15.696 -27.216 -16.416 -26.928
  L -16.416 -28.656
  C -15.912 -28.872 -15.552 -28.872 -15.120 -28.944" stroke="none" fill="rgb(255,255,87)" />
<path d="
  M -23.400 -25.416
  L -22.392 -24.336
  C -22.680 -24.048 -23.112 -23.688 -23.544 -23.328
  L -24.336 -24.624
  C -24.120 -25.056 -23.832 -25.344 -23.400 -25.416" stroke="none" fill="rgb(255,255,87)" />
<path d="
  M -29.592 -18.288
  L -28.008 -17.856
  C -28.296 -17.352 -28.584 -16.848 -28.656 -16.488
  L -30.024 -17.424
  C -30.024 -17.640 -29.880 -17.928 -29.592 -18.288" stroke="none" fill="rgb(255,255,87)" />
<path d="
  M -31.824 -9.864
  L -30.168 -10.008
  C -30.240 -9.432 -30.240 -9.000 -30.168 -8.352
  L -31.824 -8.712
  C -31.896 -9.072 -31.896 -9.432 -31.824 -9.864" stroke="none" fill="rgb(255,255,87)" />
<path d="
  M -30.240 -1.224
  L -28.800 -2.088
  C -28.656 -1.728 -28.512 -1.368 -28.080 -0.792
  L -29.736 -0.360
  C -30.024 -0.792 -30.168 -1.080 -30.240 -1.224" stroke="none" fill="rgb(255,255,87)" />
<path d="
  M -24.768 5.976
  L -23.904 4.536
  C -23.544 4.968 -23.112 5.256 -22.752 5.472
  L -24.120 6.552
  C -24.336 6.480 -24.624 6.264 -24.768 5.976" stroke="none" fill="rgb(255,255,87)" />
<path d="
  M -16.488 10.224
  L -16.344 8.496
  C -15.624 8.784 -15.048 8.856 -14.472 8.856
  L -15.264 10.512
  C -15.552 10.440 -16.056 10.440 -16.488 10.224" stroke="none" fill="rgb(255,255,87)" />
<path d="
  M -7.776 10.440
  L -8.208 8.784
  C -7.632 8.712 -7.056 8.568 -6.408 8.208
  L -6.408 10.080
  C -6.840 10.224 -7.344 10.368 -7.776 10.440" stroke="none" fill="rgb(255,255,87)" />
<path d="
  M 0.576 6.336
  L -0.504 5.184
  C -0.072 4.896 0.576 4.536 1.008 3.888
  L 1.728 5.400
  C 1.440 5.904 1.008 6.192 0.576 6.336" stroke="none" fill="rgb(255,255,87)" />
<path d="
  M 6.120 -0.360
  L 4.536 -0.936
  C 4.896 -1.656 5.184 -2.232 5.328 -2.808
  L 6.768 -1.728
  C 6.552 -1.368 6.408 -0.864 6.120 -0.360" stroke="none" fill="rgb(255,255,87)" />
<path d="
  M 6.480 -10.440
  L 4.752 -10.728
  C 4.896 -9.936 4.896 -9.144 4.824 -8.280
  L 6.480 -8.496
  C 6.552 -9.144 6.552 -9.720 6.480 -10.440" stroke="none" fill="rgb(255,255,97)" />
<path d="
  M 5.040 -16.344
  L 3.672 -15.408
  C 3.384 -16.272 2.952 -17.136 2.304 -18.000
  L 4.032 -18.432
  C 4.536 -17.712 4.824 -17.064 5.040 -16.344" stroke="none" fill="rgb(255,255,97)" />
<path d="
  M 0.216 -22.968
  L -0.720 -21.456
  C -1.224 -22.104 -1.872 -22.680 -2.592 -22.968
  L -1.080 -24.192
  C -0.720 -23.904 -0.216 -23.472 0.216 -22.968" stroke="none" fill="rgb(255,255,97)" />
<path d="
  M -6.696 -26.712
  L -6.840 -25.056
  C -7.560 -25.344 -8.208 -25.560 -8.784 -25.560
  L -8.136 -27.216
  C -7.776 -27.072 -7.272 -27.000 -6.696 -26.712" stroke="none" fill="rgb(255,255,97)" />
<path d="
  M -14.544 -27.288
  L -13.896 -25.704
  C -14.688 -25.704 -15.408 -25.560 -16.344 -25.128
  L -16.416 -26.928
  C -15.696 -27.216 -15.048 -27.288 -14.544 -27.288" stroke="none" fill="rgb(255,255,97)" />
<path d="
  M -22.392 -24.336
  L -21.024 -23.112
  C -21.600 -22.824 -22.176 -22.392 -22.680 -21.744
  L -23.544 -23.328
  C -23.112 -23.688 -22.680 -24.048 -22.392 -24.336" stroke="none" fill="rgb(255,255,97)" />
<path d="
  M -28.008 -17.856
  L -26.280 -17.424
  C -26.856 -16.776 -27.144 -16.056 -27.360 -15.480
  L -28.656 -16.488
  C -28.584 -16.848 -28.296 -17.352 -28.008 -17.856" stroke="none" fill="rgb(255,255,97)" />
<path d="
  M -30.168 -10.008
  L -28.512 -10.368
  C -28.584 -9.576 -28.584 -8.856 -28.512 -8.064
  L -30.168 -8.352
  C -30.240 -9.000 -30.240 -9.432 -30.168 -10.008" stroke="none" fill="rgb(255,255,97)" />
<path d="
  M -28.800 -2.088
  L -27.360 -3.096
  C -27.216 -2.520 -26.928 -1.944 -26.424 -1.224
  L -28.080 -0.792
  C -28.512 -1.368 -28.656 -1.728 -28.800 -2.088" stroke="none" fill="rgb(255,255,97)" />
<path d="
  M -23.904 4.536
  L -22.968 3.168
  C -22.536 3.744 -21.960 4.104 -21.384 4.392
  L -22.752 5.472
  C -23.112 5.256 -23.544 4.968 -23.904 4.536" stroke="none" fill="rgb(255,255,97)" />
<path d="
  M -16.344 8.496
  L -16.128 6.840
  C -15.336 7.128 -14.544 7.344 -13.752 7.344
  L -14.472 8.856
  C -15.048 8.856 -15.624 8.784 -16.344 8.496" stroke="none" fill="rgb(255,255,97)" />
<path d="
  M -8.208 8.784
  L -8.712 7.128
  C -7.920 7.128 -7.128 6.840 -6.264 6.480
  L -6.408 8.208
  C -7.056 8.568 -7.632 8.712 -8.208 8.784" stroke="none" fill="rgb(255,255,97)" />
<path d="
  M -0.504 5.184
  L -1.728 4.032
  C -1.008 3.528 -0.360 2.952 0.216 2.232
  L 1.008 3.888
  C 0.576 4.536 -0.072 4.896 -0.504 5.184" stroke="none" fill="rgb(255,255,97)" />
<path d="
  M 4.536 -0.936
  L 2.952 -1.656
  C 3.456 -2.448 3.888 -3.168 3.960 -3.960
  L 5.328 -2.808
  C 5.184 -2.232 4.896 -1.656 4.536 -0.936" stroke="none" fill="rgb(255,255,97)" />
<path d="
  M 4.752 -10.728
  L 2.952 -11.088
  C 3.168 -10.152 3.168 -9.072 3.096 -8.064
  L 4.824 -8.280
  C 4.896 -9.144 4.896 -9.936 4.752 -10.728" stroke="none" fill="rgb(255,255,108)" />
<path d="
  M 3.672 -15.408
  L 2.232 -14.400
  C 1.800 -15.480 1.224 -16.560 0.576 -17.640
  L 2.304 -18.000
  C 2.952 -17.136 3.384 -16.272 3.672 -15.408" stroke="none" fill="rgb(255,255,108)" />
<path d="
  M -0.720 -21.456
  L -1.584 -20.088
  C -2.304 -20.736 -3.168 -21.456 -3.960 -21.960
  L -2.592 -22.968
  C -1.872 -22.680 -1.224 -22.104 -0.720 -21.456" stroke="none" fill="rgb(255,255,108)" />
<path d="
  M -6.840 -25.056
  L -7.056 -23.328
  C -7.920 -23.688 -8.712 -23.904 -9.504 -23.976
  L -8.784 -25.560
  C -8.208 -25.560 -7.560 -25.344 -6.840 -25.056" stroke="none" fill="rgb(255,255,108)" />
<path d="
  M -13.896 -25.704
  L -13.176 -24.048
  C -14.184 -23.976 -15.120 -23.760 -16.200 -23.472
  L -16.344 -25.128
  C -15.408 -25.560 -14.688 -25.704 -13.896 -25.704" stroke="none" fill="rgb(255,255,108)" />
<path d="
  M -21.024 -23.112
  L -19.800 -21.816
  C -20.520 -21.456 -21.168 -20.952 -21.744 -20.376
  L -22.680 -21.744
  C -22.176 -22.392 -21.600 -22.824 -21.024 -23.112" stroke="none" fill="rgb(255,255,108)" />
<path d="
  M -26.280 -17.424
  L -24.624 -16.992
  C -25.200 -16.056 -25.560 -15.336 -25.848 -14.544
  L -27.360 -15.480
  C -27.144 -16.056 -26.856 -16.776 -26.280 -17.424" stroke="none" fill="rgb(255,255,108)" />
<path d="
  M -28.512 -10.368
  L -26.712 -10.512
  C -26.856 -9.648 -26.856 -8.784 -26.712 -7.920
  L -28.512 -8.064
  C -28.584 -8.856 -28.584 -9.576 -28.512 -10.368" stroke="none" fill="rgb(255,255,108)" />
<path d="
  M -27.360 -3.096
  L -25.848 -3.960
  C -25.704 -3.312 -25.272 -2.520 -24.696 -1.656
  L -26.424 -1.224
  C -26.928 -1.944 -27.216 -2.520 -27.360 -3.096" stroke="none" fill="rgb(255,255,108)" />
<path d="
  M -22.968 3.168
  L -22.032 1.656
  C -21.456 2.232 -20.808 2.880 -20.016 3.312
  L -21.384 4.392
  C -21.960 4.104 -22.536 3.744 -22.968 3.168" stroke="none" fill="rgb(255,255,108)" />
<path d="
  M -16.128 6.840
  L -16.056 5.112
  C -14.976 5.472 -13.968 5.688 -13.104 5.688
  L -13.752 7.344
  C -14.544 7.344 -15.336 7.128 -16.128 6.840" stroke="none" fill="rgb(255,255,108)" />
<path d="
  M -8.712 7.128
  L -9.288 5.472
  C -8.352 5.400 -7.272 5.112 -6.192 4.680
  L -6.264 6.480
  C -7.128 6.840 -7.920 7.128 -8.712 7.128" stroke="none" fill="rgb(255,255,108)" />
<path d="
  M -1.728 4.032
  L -2.880 2.736
  C -2.016 2.160 -1.224 1.368 -0.504 0.576
  L 0.216 2.232
  C -0.360 2.952 -1.008 3.528 -1.728 4.032" stroke="none" fill="rgb(255,255,108)" />
<path d="
  M 2.952 -1.656
  L 1.296 -2.232
  C 1.872 -3.168 2.304 -4.176 2.520 -5.040
  L 3.960 -3.960
  C 3.888 -3.168 3.456 -2.448 2.952 -1.656" stroke="none" fill="rgb(255,255,108)" />
<path d="
  M 2.952 -11.088
  L 1.224 -11.520
  C 1.512 -10.224 1.584 -9.072 1.440 -7.920
  L 3.096 -8.064
  C 3.168 -9.072 3.168 -10.152 2.952 -11.088" stroke="none" fill="rgb(255,255,120)" />
<path d="
  M 2.232 -14.400
  L 0.720 -13.320
  C 0.360 -14.832 -0.360 -16.056 -1.296 -17.280
  L 0.576 -17.640
  C 1.224 -16.560 1.800 -15.480 2.232 -14.400" stroke="none" fill="rgb(255,255,120)" />
<path d="
  M -1.584 -20.088
  L -2.448 -18.720
  C -3.384 -19.512 -4.320 -20.304 -5.400 -20.736
  L -3.960 -21.960
  C -3.168 -21.456 -2.304 -20.736 -1.584 -20.088" stroke="none" fill="rgb(255,255,120)" />
<path d="
  M -7.056 -23.328
  L -7.272 -21.672
  C -8.208 -22.032 -9.216 -22.320 -10.152 -22.320
  L -9.504 -23.976
  C -8.712 -23.904 -7.920 -23.688 -7.056 -23.328" stroke="none" fill="rgb(255,255,120)" />
<path d="
  M -13.176 -24.048
  L -12.600 -22.392
  C -13.752 -22.392 -14.976 -22.248 -16.128 -21.744
  L -16.200 -23.472
  C -15.120 -23.760 -14.184 -23.976 -13.176 -24.048" stroke="none" fill="rgb(255,255,120)" />
<path d="
  M -19.800 -21.816
  L -18.432 -20.592
  C -19.368 -20.160 -20.232 -19.584 -21.024 -18.936
  L -21.744 -20.376
  C -21.168 -20.952 -20.520 -21.456 -19.800 -21.816" stroke="none" fill="rgb(255,255,120)" />
<path d="
  M -24.624 -16.992
  L -22.968 -16.488
  C -23.616 -15.624 -24.120 -14.544 -24.408 -13.464
  L -25.848 -14.544
  C -25.560 -15.336 -25.200 -16.056 -24.624 -16.992" stroke="none" fill="rgb(255,255,120)" />
<path d="
  M -26.712 -10.512
  L -24.984 -10.800
  C -25.200 -9.720 -25.200 -8.712 -24.984 -7.632
  L -26.712 -7.920
  C -26.856 -8.784 -26.856 -9.648 -26.712 -10.512" stroke="none" fill="rgb(255,255,120)" />
<path d="
  M -25.848 -3.960
  L -24.408 -4.968
  C -24.120 -3.960 -23.688 -3.024 -23.040 -2.088
  L -24.696 -1.656
  C -25.272 -2.520 -25.704 -3.312 -25.848 -3.960" stroke="none" fill="rgb(255,255,120)" />
<path d="
  M -22.032 1.656
  L -21.168 0.216
  C -20.376 1.008 -19.512 1.656 -18.576 2.160
  L -20.016 3.312
  C -20.808 2.880 -21.456 2.232 -22.032 1.656" stroke="none" fill="rgb(255,255,120)" />
<path d="
  M -16.056 5.112
  L -15.840 3.456
  C -14.688 3.816 -13.464 4.032 -12.312 4.032
  L -13.104 5.688
  C -13.968 5.688 -14.976 5.472 -16.056 5.112" stroke="none" fill="rgb(255,255,120)" />
<path d="
  M -9.288 5.472
  L -9.792 3.888
  C -8.496 3.744 -7.344 3.456 -6.120 2.736
  L -6.192 4.680
  C -7.272 5.112 -8.352 5.400 -9.288 5.472" stroke="none" fill="rgb(255,255,120)" />
<path d="
  M -2.880 2.736
  L -4.032 1.512
  C -2.952 0.792 -2.016 -0.072 -1.296 -1.152
  L -0.504 0.576
  C -1.224 1.368 -2.016 2.160 -2.880 2.736" stroke="none" fill="rgb(255,255,120)" />
<path d="
  M 1.296 -2.232
  L -0.216 -2.808
  C 0.432 -3.888 0.936 -5.040 1.152 -6.192
  L 2.520 -5.040
  C 2.304 -4.176 1.872 -3.168 1.296 -2.232" stroke="none" fill="rgb(255,255,120)" />
<path d="
  M 1.224 -11.520
  L -0.648 -11.880
  C -0.144 -10.440 -0.072 -9.072 -0.432 -7.632
  L 1.440 -7.920
  C 1.584 -9.072 1.512 -10.224 1.224 -11.520" stroke="none" fill="rgb(255,255,131)" />
<path d="
  M 0.720 -13.320
  L -0.720 -12.384
  C -1.008 -14.040 -1.872 -15.624 -3.168 -16.848
  L -1.296 -17.280
  C -0.360 -16.056 0.360 -14.832 0.720 -13.320" stroke="none" fill="rgb(255,255,131)" />
<path d="
  M -2.448 -18.720
  L -3.384 -17.136
  C -4.320 -18.216 -5.472 -19.080 -6.768 -19.656
  L -5.400 -20.736
  C -4.320 -20.304 -3.384 -19.512 -2.448 -18.720" stroke="none" fill="rgb(255,255,131)" />
<path d="
  M -7.272 -21.672
  L -7.416 -20.016
  C -8.640 -20.448 -9.720 -20.736 -10.872 -20.664
  L -10.152 -22.320
  C -9.216 -22.320 -8.208 -22.032 -7.272 -21.672" stroke="none" fill="rgb(255,255,131)" />
<path d="
  M -12.600 -22.392
  L -11.952 -20.880
  C -13.320 -20.880 -14.760 -20.592 -16.128 -20.088
  L -16.128 -21.744
  C -14.976 -22.248 -13.752 -22.392 -12.600 -22.392" stroke="none" fill="rgb(255,255,131)" />
<path d="
  M -18.432 -20.592
  L -17.280 -19.368
  C -18.288 -19.008 -19.224 -18.216 -20.088 -17.424
  L -21.024 -18.936
  C -20.232 -19.584 -19.368 -20.160 -18.432 -20.592" stroke="none" fill="rgb(255,255,131)" />
<path d="
  M -22.968 -16.488
  L -21.096 -15.984
  C -22.032 -14.976 -22.680 -13.752 -22.824 -12.456
  L -24.408 -13.464
  C -24.120 -14.544 -23.616 -15.624 -22.968 -16.488" stroke="none" fill="rgb(255,255,131)" />
<path d="
  M -24.984 -10.800
  L -23.112 -11.016
  C -23.544 -9.864 -23.616 -8.568 -23.112 -7.344
  L -24.984 -7.632
  C -25.200 -8.712 -25.200 -9.720 -24.984 -10.800" stroke="none" fill="rgb(255,255,131)" />
<path d="
  M -24.408 -4.968
  L -22.824 -5.904
  C -22.680 -4.680 -22.176 -3.600 -21.168 -2.592
  L -23.040 -2.088
  C -23.688 -3.024 -24.120 -3.960 -24.408 -4.968" stroke="none" fill="rgb(255,255,131)" />
<path d="
  M -21.168 0.216
  L -20.304 -1.224
  C -19.440 -0.288 -18.360 0.504 -17.208 1.080
  L -18.576 2.160
  C -19.512 1.656 -20.376 1.008 -21.168 0.216" stroke="none" fill="rgb(255,255,131)" />
<path d="
  M -15.840 3.456
  L -15.696 1.656
  C -14.400 2.232 -13.032 2.448 -11.664 2.448
  L -12.312 4.032
  C -13.464 4.032 -14.688 3.816 -15.840 3.456" stroke="none" fill="rgb(255,255,131)" />
<path d="
  M -9.792 3.888
  L -10.368 2.160
  C -8.784 2.160 -7.344 1.656 -6.120 0.720
  L -6.120 2.736
  C -7.344 3.456 -8.496 3.744 -9.792 3.888" stroke="none" fill="rgb(255,255,131)" />
<path d="
  M -4.032 1.512
  L -5.328 0.216
  C -3.960 -0.432 -2.880 -1.656 -2.160 -3.024
  L -1.296 -1.152
  C -2.016 -0.072 -2.952 0.792 -4.032 1.512" stroke="none" fill="rgb(255,255,131)" />
<path d="
  M -0.216 -2.808
  L -1.872 -3.456
  C -1.008 -4.680 -0.504 -6.048 -0.432 -7.416
  L 1.152 -6.192
  C 0.936 -5.040 0.432 -3.888 -0.216 -2.808" stroke="none" fill="rgb(255,255,131)" />
<path d="
  M -0.648 -11.880
  L -1.296 -12.024
  L -0.720 -12.384
  C -1.008 -14.040 -1.872 -15.624 -3.168 -16.848
  L -3.672 -16.776
  L -3.384 -17.136
  C -4.320 -18.216 -5.472 -19.080 -6.768 -19.656
  L -7.560 -19.008
  L -7.416 -20.016
  C -8.640 -20.448 -9.720 -20.736 -10.872 -20.664
  L -11.376 -19.368
  L -11.952 -20.880
  C -13.320 -20.880 -14.760 -20.592 -16.128 -20.088
  L -16.056 -18.216
  L -17.280 -19.368
  C -18.288 -19.008 -19.224 -18.216 -20.088 -17.424
  L -19.152 -15.768
  C -15.912 -19.584 -10.296 -20.304 -6.120 -17.352
  C -1.872 -14.400 -0.648 -8.856 -2.952 -4.464
  C -5.400 -0.000 -10.728 1.944 -15.552 -0.000
  L -15.696 1.656
  C -14.400 2.232 -13.032 2.448 -11.664 2.448
  L -10.872 0.720
  L -10.368 2.160
  C -8.784 2.160 -7.344 1.656 -6.120 0.720
  L -5.976 -0.432
  L -5.328 0.216
  C -3.960 -0.432 -2.880 -1.656 -2.160 -3.024
  L -2.448 -3.672
  L -1.872 -3.456
  C -1.008 -4.680 -0.504 -6.048 -0.432 -7.416
  L -0.720 -7.632
  L -0.432 -7.632
  C -0.072 -9.072 -0.144 -10.440 -0.648 -11.880" stroke="none" fill="rgb(255,255,141)" />
<path d="
  M -21.096 -15.984
  L -19.368 -15.480
  C -20.520 -14.400 -21.312 -12.960 -21.384 -11.520
  L -22.824 -12.456
  C -22.680 -13.752 -22.032 -14.976 -21.096 -15.984" stroke="none" fill="rgb(255,255,141)" />
<path d="
  M -23.112 -11.016
  L -21.456 -11.304
  C -21.960 -9.936 -21.960 -8.496 -21.456 -7.128
  L -23.112 -7.344
  C -23.616 -8.568 -23.544 -9.864 -23.112 -11.016" stroke="none" fill="rgb(255,255,141)" />
<path d="
  M -22.824 -5.904
  L -21.384 -6.768
  C -21.168 -5.400 -20.520 -4.104 -19.440 -3.024
  L -21.168 -2.592
  C -22.176 -3.600 -22.680 -4.680 -22.824 -5.904" stroke="none" fill="rgb(255,255,141)" />
<path d="
  M -20.304 -1.224
  L -19.368 -2.808
  C -18.432 -1.512 -17.208 -0.648 -15.840 -0.072
  L -17.208 1.080
  C -18.360 0.504 -19.440 -0.288 -20.304 -1.224" stroke="none" fill="rgb(255,255,141)" />
<path d="
  M -3.456 -9.144
  C -3.456 -13.752 -7.272 -17.568 -11.808 -17.568
  C -16.416 -17.568 -20.232 -13.752 -20.232 -9.144
  C -20.232 -4.680 -16.416 -0.864 -11.808 -0.864
  C -7.272 -0.864 -3.456 -4.680 -3.456 -9.144" stroke="none" fill="rgb(255,255,151)" />
<path d="
  M -19.152 -15.768
  L -18.936 -15.408
  L -19.368 -15.480
  C -20.520 -14.400 -21.312 -12.960 -21.384 -11.520
  L -21.168 -11.304
  L -21.456 -11.304
  C -21.960 -9.936 -21.960 -8.496 -21.456 -7.128
  L -21.024 -7.056
  L -21.384 -6.768
  C -21.168 -5.400 -20.520 -4.104 -19.440 -3.024
  L -19.152 -3.096
  L -19.368 -2.808
  C -18.432 -1.512 -17.208 -0.648 -15.840 -0.072
  L -15.552 -0.288
  L -15.552 -0.000
  C -10.728 1.944 -5.400 -0.000 -2.952 -4.464
  C -0.648 -8.856 -1.872 -14.400 -6.120 -17.352
  C -10.296 -20.304 -15.912 -19.584 -19.152 -15.768" stroke="none" fill="rgb(255,255,151)" />
<path d="
  M -3.456 -9.144
  C -3.456 -13.752 -7.272 -17.568 -11.808 -17.568
  C -16.416 -17.568 -20.232 -13.752 -20.232 -9.144
  C -20.232 -4.680 -16.416 -0.864 -11.808 -0.864
  C -7.272 -0.864 -3.456 -4.680 -3.456 -9.144" stroke="none" fill="rgb(255,255,164)" />
<path d="
  M -5.184 -9.144
  C -5.184 -12.744 -8.208 -15.768 -11.808 -15.768
  C -15.408 -15.768 -18.432 -12.744 -18.432 -9.144
  C -18.432 -5.616 -15.408 -2.592 -11.808 -2.592
  C -8.208 -2.592 -5.184 -5.616 -5.184 -9.144" stroke="none" fill="rgb(255,255,164)" />
<path d="
  M -5.184 -9.144
  C -5.184 -12.744 -8.208 -15.768 -11.808 -15.768
  C -15.408 -15.768 -18.432 -12.744 -18.432 -9.144
  C -18.432 -5.616 -15.408 -2.592 -11.808 -2.592
  C -8.208 -2.592 -5.184 -5.616 -5.184 -9.144" stroke="none" fill="rgb(255,255,174)" />
<path d="
  M -6.840 -9.144
  C -6.840 -11.880 -9.072 -14.112 -11.808 -14.112
  C -14.544 -14.112 -16.776 -11.880 -16.776 -9.144
  C -16.776 -6.480 -14.544 -4.248 -11.808 -4.248
  C -9.072 -4.248 -6.840 -6.480 -6.840 -9.144" stroke="none" fill="rgb(255,255,174)" />
<path d="
  M -6.840 -9.144
  C -6.840 -11.880 -9.072 -14.112 -11.808 -14.112
  C -14.544 -14.112 -16.776 -11.880 -16.776 -9.144
  C -16.776 -6.480 -14.544 -4.248 -11.808 -4.248
  C -9.072 -4.248 -6.840 -6.480 -6.840 -9.144" stroke="none" fill="rgb(255,255,184)" />
<path d="
  M -8.496 -9.144
  C -8.496 -10.944 -10.080 -12.456 -11.808 -12.456
  C -13.608 -12.456 -15.120 -10.944 -15.120 -9.144
  C -15.120 -7.416 -13.608 -5.904 -11.808 -5.904
  C -10.080 -5.904 -8.496 -7.416 -8.496 -9.144" stroke="none" fill="rgb(255,255,184)" />
<path d="
  M -8.496 -9.144
  C -8.496 -10.944 -10.080 -12.456 -11.808 -12.456
  C -13.608 -12.456 -15.120 -10.944 -15.120 -9.144
  C -15.120 -7.416 -13.608 -5.904 -11.808 -5.904
  C -10.080 -5.904 -8.496 -7.416 -8.496 -9.144" stroke="none" fill="rgb(255,255,194)" />
<path d="
  M -10.152 -9.144
  C -10.152 -10.008 -10.944 -10.800 -11.808 -10.800
  C -12.744 -10.800 -13.464 -10.008 -13.464 -9.144
  C -13.464 -8.280 -12.744 -7.488 -11.808 -7.488
  C -10.944 -7.488 -10.152 -8.280 -10.152 -9.144" stroke="none" fill="rgb(255,255,194)" />
<path d="
  M -10.152 -9.144
  C -10.152 -10.008 -10.944 -10.800 -11.808 -10.800
  C -12.744 -10.800 -13.464 -10.008 -13.464 -9.144
  C -13.464 -8.280 -12.744 -7.488 -11.808 -7.488
  C -10.944 -7.488 -10.152 -8.280 -10.152 -9.144" stroke="none" fill="rgb(255,255,204)" />
</g>
<path d="
  M -26.424 -28.368
  L -16.056 -18.216
  L -16.632 -32.472
  L -11.376 -19.368
  L -6.120 -32.184
  L -7.560 -19.008
  L 3.240 -27.792
  L -3.672 -16.776
  L 9.792 -19.656
  L -1.296 -12.024
  L 12.168 -9.288
  L -0.720 -7.632
  L 10.440 1.296
  L -2.448 -3.672
  L 3.528 9.504
  L -5.976 -0.432
  L -6.552 13.824
  L -10.872 0.720
  L -16.776 14.040
  L -15.552 -0.288
  L -26.136 8.208
  L -19.152 -3.096
  L -32.904 0.432
  L -21.024 -7.056
  L -36.000 -9.288
  L -21.168 -11.304
  L -32.472 -19.080
  L -18.936 -15.408
  L -26.424 -28.368" stroke="rgb(0,0,0)" stroke-width="0.504" fill="none" />
<g>
<path d="
  M 1.728 -11.088
  C 0.576 -17.064 -4.752 -21.528 -11.088 -21.528
  C -18.144 -21.528 -24.048 -15.696 -24.048 -8.496
  C -24.048 -1.368 -18.144 4.536 -11.088 4.536
  C -4.752 4.536 0.576 -0.000 1.728 -5.904
  C 0.432 0.504 -5.616 4.968 -12.240 4.320
  C -18.864 3.744 -23.904 -1.944 -23.904 -8.496
  C -23.904 -15.120 -18.864 -20.736 -12.240 -21.312
  C -5.616 -22.032 0.432 -17.568 1.728 -11.088" stroke="none" fill="rgb(255,255,54)" />
<path d="
  M 1.008 -8.496
  C 1.008 -14.976 -4.392 -20.448 -10.944 -20.448
  C -17.496 -20.448 -22.968 -14.976 -22.968 -8.496
  C -22.968 -2.016 -17.496 3.456 -10.944 3.456
  C -4.392 3.456 1.008 -2.016 1.008 -8.496" stroke="none" fill="rgb(255,255,67)" />
<path d="
  M 1.728 -11.088
  C 1.872 -10.224 2.016 -9.360 2.016 -8.496
  C 2.016 -7.632 1.872 -6.768 1.728 -5.904
  C 0.432 0.504 -5.616 4.968 -12.240 4.320
  C -18.864 3.744 -23.904 -1.944 -23.904 -8.496
  C -23.904 -15.120 -18.864 -20.736 -12.240 -21.312
  C -5.616 -22.032 0.432 -17.568 1.728 -11.088" stroke="none" fill="rgb(255,255,67)" />
<path d="
  M 1.008 -8.496
  C 1.008 -14.976 -4.392 -20.448 -10.944 -20.448
  C -17.496 -20.448 -22.968 -14.976 -22.968 -8.496
  C -22.968 -2.016 -17.496 3.456 -10.944 3.456
  C -4.392 3.456 1.008 -2.016 1.008 -8.496" stroke="none" fill="rgb(255,255,77)" />
<path d="
  M 0.144 -8.496
  C 0.144 -14.544 -4.896 -19.584 -10.944 -19.584
  C -16.992 -19.584 -22.032 -14.544 -22.032 -8.496
  C -22.032 -2.520 -16.992 2.520 -10.944 2.520
  C -4.896 2.520 0.144 -2.520 0.144 -8.496" stroke="none" fill="rgb(255,255,77)" />
<path d="
  M 0.144 -8.496
  C 0.144 -14.544 -4.896 -19.584 -10.944 -19.584
  C -16.992 -19.584 -22.032 -14.544 -22.032 -8.496
  C -22.032 -2.520 -16.992 2.520 -10.944 2.520
  C -4.896 2.520 0.144 -2.520 0.144 -8.496" stroke="none" fill="rgb(255,255,87)" />
<path d="
  M -0.792 -8.496
  C -0.792 -14.040 -5.400 -18.648 -10.944 -18.648
  C -16.488 -18.648 -21.096 -14.040 -21.096 -8.496
  C -21.096 -3.024 -16.488 1.584 -10.944 1.584
  C -5.400 1.584 -0.792 -3.024 -0.792 -8.496" stroke="none" fill="rgb(255,255,87)" />
<path d="
  M -0.792 -8.496
  C -0.792 -14.040 -5.400 -18.648 -10.944 -18.648
  C -16.488 -18.648 -21.096 -14.040 -21.096 -8.496
  C -21.096 -3.024 -16.488 1.584 -10.944 1.584
  C -5.400 1.584 -0.792 -3.024 -0.792 -8.496" stroke="none" fill="rgb(255,255,97)" />
<path d="
  M -1.728 -8.496
  C -1.728 -13.536 -5.904 -17.712 -10.944 -17.712
  C -16.056 -17.712 -20.232 -13.536 -20.232 -8.496
  C -20.232 -3.456 -16.056 0.720 -10.944 0.720
  C -5.904 0.720 -1.728 -3.456 -1.728 -8.496" stroke="none" fill="rgb(255,255,97)" />
<path d="
  M -1.728 -8.496
  C -1.728 -13.536 -5.904 -17.712 -10.944 -17.712
  C -16.056 -17.712 -20.232 -13.536 -20.232 -8.496
  C -20.232 -3.456 -16.056 0.720 -10.944 0.720
  C -5.904 0.720 -1.728 -3.456 -1.728 -8.496" stroke="none" fill="rgb(255,255,108)" />
<path d="
  M -2.664 -8.496
  C -2.664 -12.960 -6.480 -16.776 -10.944 -16.776
  C -15.408 -16.776 -19.224 -12.960 -19.224 -8.496
  C -19.224 -4.104 -15.408 -0.288 -10.944 -0.288
  C -6.480 -0.288 -2.664 -4.104 -2.664 -8.496" stroke="none" fill="rgb(255,255,108)" />
<path d="
  M -2.664 -8.496
  C -2.664 -12.960 -6.480 -16.776 -10.944 -16.776
  C -15.408 -16.776 -19.224 -12.960 -19.224 -8.496
  C -19.224 -4.104 -15.408 -0.288 -10.944 -0.288
  C -6.480 -0.288 -2.664 -4.104 -2.664 -8.496" stroke="none" fill="rgb(255,255,120)" />
<path d="
  M -3.528 -8.496
  C -3.528 -12.456 -6.984 -15.912 -10.944 -15.912
  C -14.976 -15.912 -18.360 -12.456 -18.360 -8.496
  C -18.360 -4.536 -14.976 -1.152 -10.944 -1.152
  C -6.984 -1.152 -3.528 -4.536 -3.528 -8.496" stroke="none" fill="rgb(255,255,120)" />
<path d="
  M -3.528 -8.496
  C -3.528 -12.456 -6.984 -15.912 -10.944 -15.912
  C -14.976 -15.912 -18.360 -12.456 -18.360 -8.496
  C -18.360 -4.536 -14.976 -1.152 -10.944 -1.152
  C -6.984 -1.152 -3.528 -4.536 -3.528 -8.496" stroke="none" fill="rgb(255,255,131)" />
<path d="
  M -4.536 -8.496
  C -4.536 -12.024 -7.416 -14.904 -10.944 -14.904
  C -14.472 -14.904 -17.352 -12.024 -17.352 -8.496
  C -17.352 -5.040 -14.472 -2.088 -10.944 -2.088
  C -7.416 -2.088 -4.536 -5.040 -4.536 -8.496" stroke="none" fill="rgb(255,255,131)" />
<path d="
  M -4.536 -8.496
  C -4.536 -12.024 -7.416 -14.904 -10.944 -14.904
  C -14.472 -14.904 -17.352 -12.024 -17.352 -8.496
  C -17.352 -5.040 -14.472 -2.088 -10.944 -2.088
  C -7.416 -2.088 -4.536 -5.040 -4.536 -8.496" stroke="none" fill="rgb(255,255,141)" />
<path d="
  M -5.400 -8.496
  C -5.400 -11.520 -7.920 -14.040 -10.944 -14.040
  C -13.968 -14.040 -16.488 -11.520 -16.488 -8.496
  C -16.488 -5.544 -13.968 -3.024 -10.944 -3.024
  C -7.920 -3.024 -5.400 -5.544 -5.400 -8.496" stroke="none" fill="rgb(255,255,141)" />
<path d="
  M -5.400 -8.496
  C -5.400 -11.520 -7.920 -14.040 -10.944 -14.040
  C -13.968 -14.040 -16.488 -11.520 -16.488 -8.496
  C -16.488 -5.544 -13.968 -3.024 -10.944 -3.024
  C -7.920 -3.024 -5.400 -5.544 -5.400 -8.496" stroke="none" fill="rgb(255,255,151)" />
<path d="
  M -6.408 -8.496
  C -6.408 -10.944 -8.496 -13.032 -10.944 -13.032
  C -13.392 -13.032 -15.552 -10.944 -15.552 -8.496
  C -15.552 -6.120 -13.392 -3.960 -10.944 -3.960
  C -8.496 -3.960 -6.408 -6.120 -6.408 -8.496" stroke="none" fill="rgb(255,255,151)" />
<path d="
  M -6.408 -8.496
  C -6.408 -10.944 -8.496 -13.032 -10.944 -13.032
  C -13.392 -13.032 -15.552 -10.944 -15.552 -8.496
  C -15.552 -6.120 -13.392 -3.960 -10.944 -3.960
  C -8.496 -3.960 -6.408 -6.120 -6.408 -8.496" stroke="none" fill="rgb(255,255,164)" />
<path d="
  M -7.272 -8.496
  C -7.272 -10.440 -9.000 -12.168 -10.944 -12.168
  C -12.888 -12.168 -14.688 -10.440 -14.688 -8.496
  C -14.688 -6.624 -12.888 -4.824 -10.944 -4.824
  C -9.000 -4.824 -7.272 -6.624 -7.272 -8.496" stroke="none" fill="rgb(255,255,164)" />
<path d="
  M -7.272 -8.496
  C -7.272 -10.440 -9.000 -12.168 -10.944 -12.168
  C -12.888 -12.168 -14.688 -10.440 -14.688 -8.496
  C -14.688 -6.624 -12.888 -4.824 -10.944 -4.824
  C -9.000 -4.824 -7.272 -6.624 -7.272 -8.496" stroke="none" fill="rgb(255,255,174)" />
<path d="
  M -8.208 -8.496
  C -8.208 -9.936 -9.504 -11.232 -10.944 -11.232
  C -12.384 -11.232 -13.680 -9.936 -13.680 -8.496
  C -13.680 -7.056 -12.384 -5.832 -10.944 -5.832
  C -9.504 -5.832 -8.208 -7.056 -8.208 -8.496" stroke="none" fill="rgb(255,255,174)" />
<path d="
  M -8.208 -8.496
  C -8.208 -9.936 -9.504 -11.232 -10.944 -11.232
  C -12.384 -11.232 -13.680 -9.936 -13.680 -8.496
  C -13.680 -7.056 -12.384 -5.832 -10.944 -5.832
  C -9.504 -5.832 -8.208 -7.056 -8.208 -8.496" stroke="none" fill="rgb(255,255,184)" />
<path d="
  M -9.072 -8.496
  C -9.072 -9.432 -10.008 -10.368 -10.944 -10.368
  C -11.952 -10.368 -12.816 -9.432 -12.816 -8.496
  C -12.816 -7.488 -11.952 -6.696 -10.944 -6.696
  C -10.008 -6.696 -9.072 -7.488 -9.072 -8.496" stroke="none" fill="rgb(255,255,184)" />
<path d="
  M -9.072 -8.496
  C -9.072 -9.432 -10.008 -10.368 -10.944 -10.368
  C -11.952 -10.368 -12.816 -9.432 -12.816 -8.496
  C -12.816 -7.488 -11.952 -6.696 -10.944 -6.696
  C -10.008 -6.696 -9.072 -7.488 -9.072 -8.496" stroke="none" fill="rgb(255,255,194)" />
<path d="
  M -10.080 -8.496
  C -10.080 -8.856 -10.584 -9.360 -10.944 -9.360
  C -11.376 -9.360 -11.808 -8.856 -11.808 -8.496
  C -11.808 -8.064 -11.376 -7.632 -10.944 -7.632
  C -10.584 -7.632 -10.080 -8.064 -10.080 -8.496" stroke="none" fill="rgb(255,255,194)" />
<path d="
  M -10.080 -8.496
  C -10.080 -8.856 -10.584 -9.360 -10.944 -9.360
  C -11.376 -9.360 -11.808 -8.856 -11.808 -8.496
  C -11.808 -8.064 -11.376 -7.632 -10.944 -7.632
  C -10.584 -7.632 -10.080 -8.064 -10.080 -8.496" stroke="none" fill="rgb(255,255,204)" />
</g>
<circle cx="-11.160" cy="-8.784" r="12.888" stroke="rgb(0,0,0)" stroke-width="0.504" fill="none" />
</g>
<g>
<path d="
  M -16.920 15.984
  C -16.488 16.272 -16.128 16.416 -15.696 16.488
  C -12.888 16.992 -10.584 17.496 -6.840 17.496
  C -3.528 17.064 -1.440 16.848 0.864 15.984
  L -16.920 15.984" stroke="none" fill="rgb(51,51,51)" />
<path d="
  M -16.920 15.984
  C -17.784 15.624 -18.720 15.048 -19.368 14.544
  L 3.960 14.616
  C 2.808 15.192 1.800 15.696 0.864 15.984
  L -16.920 15.984" stroke="none" fill="rgb(62,62,62)" />
<path d="
  M -30.960 14.544
  C -28.584 15.408 -26.280 15.048 -23.904 14.544
  L -30.960 14.544" stroke="none" fill="rgb(62,62,62)" />
<path d="
  M 11.448 14.544
  C 14.760 15.480 18.288 15.480 21.456 14.544
  L 11.448 14.544" stroke="none" fill="rgb(62,62,62)" />
<path d="
  M -30.960 14.544
  C -30.960 14.544 -30.960 14.544 -30.960 14.544
  C -32.040 14.256 -32.976 13.680 -33.696 13.104
  L 6.264 13.176
  C 5.400 13.752 4.608 14.256 3.960 14.616
  L -19.368 14.544
  C -19.656 14.256 -19.800 13.968 -19.800 13.752
  C -21.168 13.824 -22.536 14.256 -23.904 14.544
  L -30.960 14.544" stroke="none" fill="rgb(69,69,69)" />
<path d="
  M 11.448 14.544
  C 10.440 14.256 9.216 13.752 8.136 13.104
  L 24.840 13.104
  C 23.760 13.680 22.680 14.184 21.456 14.544
  L 11.448 14.544" stroke="none" fill="rgb(69,69,69)" />
<path d="
  M -33.696 13.104
  C -34.128 12.672 -34.560 12.096 -34.920 11.592
  L 26.856 11.592
  C 26.208 12.168 25.488 12.672 24.840 13.104
  L 8.136 13.104
  C 7.848 12.888 7.488 12.672 7.200 12.528
  C 6.912 12.672 6.552 12.960 6.264 13.176
  L -33.696 13.104" stroke="none" fill="rgb(77,77,77)" />
<path d="
  M -34.920 11.592
  C -35.208 11.160 -35.424 10.656 -35.496 10.152
  L 34.776 10.152
  C 34.776 10.152 34.776 10.152 34.776 10.152
  C 32.040 11.304 30.168 11.448 27.072 11.448
  C 27.000 11.520 26.856 11.520 26.856 11.592
  L -34.920 11.592" stroke="none" fill="rgb(85,85,85)" />
<path d="
  M -35.496 10.152
  C -35.712 9.648 -35.712 9.216 -35.712 8.712
  L 35.352 8.712
  C 35.136 9.216 34.992 9.648 34.776 10.152
  L -35.496 10.152" stroke="none" fill="rgb(92,92,92)" />
<path d="
  M -35.712 8.712
  C -35.712 8.208 -35.712 7.704 -35.640 7.200
  L 35.712 7.200
  C 35.640 7.704 35.568 8.208 35.352 8.712
  L -35.712 8.712" stroke="none" fill="rgb(100,100,100)" />
<path d="
  M -35.640 7.200
  C -35.424 6.768 -35.208 6.264 -34.920 5.760
  L 35.928 5.760
  C 35.928 6.264 35.856 6.768 35.712 7.200
  L -35.640 7.200" stroke="none" fill="rgb(108,108,108)" />
<path d="
  M -34.920 5.760
  C -34.704 5.400 -34.416 4.968 -34.128 4.680
  C -34.272 4.608 -34.344 4.536 -34.344 4.320
  L 35.640 4.320
  C 35.856 4.824 35.928 5.256 35.928 5.760
  L -34.920 5.760" stroke="none" fill="rgb(118,118,118)" />
<path d="
  M -34.344 4.320
  C -34.632 3.888 -34.704 3.312 -34.848 2.880
  L 34.704 2.880
  C 35.136 3.240 35.424 3.744 35.640 4.320
  L -34.344 4.320" stroke="none" fill="rgb(125,125,125)" />
<path d="
  M -34.848 2.880
  C -34.848 2.376 -34.704 1.872 -34.632 1.368
  L 25.416 1.368
  C 25.488 1.512 25.488 1.584 25.632 1.800
  C 27.432 1.656 30.024 1.080 31.680 1.512
  C 33.048 1.800 33.984 2.232 34.704 2.880
  L -34.848 2.880" stroke="none" fill="rgb(133,133,133)" />
<path d="
  M -34.632 1.368
  C -34.416 0.864 -34.128 0.432 -33.840 -0.072
  L 24.336 -0.072
  C 24.768 0.288 25.128 0.792 25.416 1.368
  L -34.632 1.368" stroke="none" fill="rgb(141,141,141)" />
<path d="
  M -33.840 -0.072
  C -33.552 -0.432 -33.192 -0.864 -32.760 -1.224
  C -32.688 -1.368 -32.472 -1.440 -32.400 -1.512
  L 14.400 -1.512
  C 14.400 -1.440 14.400 -1.440 14.400 -1.368
  C 15.120 -1.440 15.768 -1.512 16.344 -1.512
  L 21.456 -1.512
  C 22.608 -1.224 23.544 -0.864 24.336 -0.072
  L -33.840 -0.072" stroke="none" fill="rgb(148,148,148)" />
<path d="
  M -32.400 -1.512
  C -30.528 -2.592 -27.792 -2.520 -25.056 -2.520
  C -24.984 -2.736 -24.984 -2.880 -24.912 -3.024
  L 14.328 -3.024
  C 14.400 -2.520 14.400 -2.016 14.400 -1.512
  L -32.400 -1.512" stroke="none" fill="rgb(156,156,156)" />
<path d="
  M 16.344 -1.512
  C 18.288 -1.728 19.944 -1.800 21.456 -1.512
  L 16.344 -1.512" stroke="none" fill="rgb(156,156,156)" />
<path d="
  M -24.912 -3.024
  C -24.696 -3.456 -24.336 -3.960 -23.904 -4.464
  L 14.112 -4.464
  C 14.184 -3.960 14.328 -3.456 14.328 -3.024
  L -24.912 -3.024" stroke="none" fill="rgb(164,164,164)" />
<path d="
  M -23.904 -4.464
  C -23.400 -5.040 -22.824 -5.544 -22.032 -5.904
  L 13.752 -5.904
  C 13.896 -5.400 14.040 -4.968 14.112 -4.464
  L -23.904 -4.464" stroke="none" fill="rgb(174,174,174)" />
<path d="
  M -22.032 -5.904
  C -21.168 -6.480 -20.088 -6.984 -18.936 -7.344
  L -9.432 -7.344
  C -8.496 -7.056 -7.776 -6.696 -6.984 -6.192
  C -6.840 -6.624 -6.768 -6.984 -6.552 -7.344
  L 12.960 -7.344
  C 13.320 -6.912 13.536 -6.408 13.752 -5.904
  L -22.032 -5.904" stroke="none" fill="rgb(182,182,182)" />
<path d="
  M -18.936 -7.344
  C -16.056 -8.208 -12.384 -8.280 -9.432 -7.344
  L -18.936 -7.344" stroke="none" fill="rgb(189,189,189)" />
<path d="
  M -6.552 -7.344
  C -6.192 -7.920 -5.760 -8.352 -5.184 -8.784
  L 11.592 -8.784
  C 12.168 -8.352 12.672 -7.920 12.960 -7.344
  L -6.552 -7.344" stroke="none" fill="rgb(189,189,189)" />
<path d="
  M -5.184 -8.784
  C -4.320 -9.432 -3.168 -9.936 -1.800 -10.224
  L 8.568 -10.224
  C 9.792 -9.864 10.800 -9.360 11.592 -8.784
  L -5.184 -8.784" stroke="none" fill="rgb(197,197,197)" />
<path d="
  M -1.800 -10.224
  C 1.008 -11.016 4.608 -11.088 7.416 -10.512
  C 7.776 -10.440 8.136 -10.368 8.568 -10.224
  L -1.800 -10.224" stroke="none" fill="rgb(204,204,204)" />
</g>
<g>
<path d="
  M -14.040 13.824
  C -14.040 13.824 -14.040 13.968 -13.968 13.968
  C -10.440 14.832 -7.560 15.048 -4.896 13.824
  L -14.040 13.824" stroke="none" fill="rgb(179,179,179)" />
<path d="
  M -14.040 13.824
  C -14.544 13.536 -14.688 13.104 -14.472 12.672
  L -2.952 12.672
  C -3.528 13.176 -4.248 13.536 -4.896 13.824
  L -14.040 13.824" stroke="none" fill="rgb(182,182,182)" />
<path d="
  M -14.472 12.672
  C -14.256 12.312 -13.896 11.880 -13.392 11.520
  L -5.328 11.520
  C -4.752 12.024 -3.528 12.600 -2.952 12.672
  C -2.952 12.672 -2.952 12.672 -2.952 12.672
  L -14.472 12.672" stroke="none" fill="rgb(182,182,182)" />
<path d="
  M -31.392 11.520
  C -30.240 12.672 -28.368 12.384 -26.712 11.520
  L -31.392 11.520" stroke="none" fill="rgb(182,182,182)" />
<path d="
  M -3.744 11.520
  C -1.440 11.880 1.224 12.024 3.528 11.520
  L -3.744 11.520" stroke="none" fill="rgb(182,182,182)" />
<path d="
  M 22.104 11.520
  C 22.464 11.592 22.680 11.736 22.320 11.736
  C 23.112 11.880 23.760 11.808 24.336 11.520
  L 22.104 11.520" stroke="none" fill="rgb(182,182,182)" />
<path d="
  M -31.392 11.520
  C -31.680 11.232 -32.040 10.872 -32.328 10.224
  L -21.744 10.224
  C -22.464 10.728 -22.752 11.232 -23.688 10.440
  C -24.048 11.808 -27.504 10.224 -25.776 10.944
  C -26.064 11.160 -26.352 11.304 -26.712 11.520
  L -31.392 11.520" stroke="none" fill="rgb(184,184,184)" />
<path d="
  M -13.392 11.520
  C -12.816 11.016 -12.024 10.656 -11.448 10.224
  L 3.744 10.224
  C 4.032 10.512 4.464 10.872 4.824 11.160
  C 4.464 11.304 4.032 11.448 3.528 11.520
  L -3.744 11.520
  C -4.392 11.448 -5.040 11.232 -5.616 11.160
  C -5.472 11.232 -5.400 11.448 -5.328 11.520
  L -13.392 11.520" stroke="none" fill="rgb(184,184,184)" />
<path d="
  M 22.104 11.520
  C 21.096 11.304 18.576 10.728 17.784 10.224
  L 26.064 10.224
  C 25.488 10.728 25.056 11.232 24.336 11.520
  L 22.104 11.520" stroke="none" fill="rgb(184,184,184)" />
<path d="
  M -32.328 10.224
  C -32.328 10.224 -32.328 10.152 -32.328 10.152
  C -32.400 9.792 -32.472 9.504 -32.472 9.072
  L -19.368 9.072
  C -19.440 9.216 -19.512 9.288 -19.512 9.576
  C -20.736 9.576 -21.312 9.936 -21.744 10.224
  L -32.328 10.224" stroke="none" fill="rgb(184,184,184)" />
<path d="
  M -11.448 10.224
  C -10.872 9.864 -10.368 9.576 -10.296 9.360
  C -13.896 9.360 -15.552 11.160 -16.416 9.072
  L 2.880 9.216
  C 3.096 9.576 3.384 9.864 3.744 10.224
  L -11.448 10.224" stroke="none" fill="rgb(184,184,184)" />
<path d="
  M 17.784 10.224
  C 17.640 10.152 17.496 10.080 17.496 9.936
  C 15.480 9.936 14.904 9.648 14.472 9.072
  L 27.144 9.072
  C 26.784 9.504 26.424 9.864 26.064 10.224
  L 17.784 10.224" stroke="none" fill="rgb(184,184,184)" />
<path d="
  M 6.480 9.072
  C 8.136 10.080 10.296 10.512 12.456 9.072
  L 6.480 9.072" stroke="none" fill="rgb(184,184,184)" />
<path d="
  M -32.472 9.072
  C -32.400 8.712 -32.328 8.280 -32.184 7.920
  L 2.520 7.992
  C 2.592 8.424 2.664 8.784 2.880 9.216
  L -16.416 9.072
  C -16.488 8.856 -16.488 8.568 -16.632 8.280
  C -16.920 9.288 -18.648 8.568 -19.368 9.072
  L -32.472 9.072" stroke="none" fill="rgb(187,187,187)" />
<path d="
  M 6.480 9.072
  C 5.904 8.784 5.400 8.424 4.824 7.920
  L 12.168 7.920
  C 11.952 8.208 11.952 8.496 12.816 8.856
  C 12.744 9.000 12.672 9.072 12.456 9.072
  L 6.480 9.072" stroke="none" fill="rgb(187,187,187)" />
<path d="
  M 14.472 9.072
  C 14.400 8.784 14.328 8.424 14.112 7.920
  L 32.616 7.920
  C 30.672 8.424 30.888 7.920 28.512 7.920
  C 28.080 8.208 27.576 8.712 27.144 9.072
  L 14.472 9.072" stroke="none" fill="rgb(187,187,187)" />
<path d="
  M -32.184 7.920
  C -32.040 7.560 -31.824 7.056 -31.608 6.624
  L -28.584 6.624
  C -28.080 6.768 -27.648 6.768 -26.856 6.768
  C -26.856 6.768 -26.928 6.624 -26.928 6.624
  L 2.592 6.624
  C 2.520 7.128 2.520 7.632 2.520 7.992
  L -32.184 7.920" stroke="none" fill="rgb(187,187,187)" />
<path d="
  M 4.824 7.920
  C 4.320 7.560 3.888 7.056 3.456 6.624
  L 13.104 6.768
  C 12.960 7.344 12.384 7.632 12.168 7.920
  L 4.824 7.920" stroke="none" fill="rgb(187,187,187)" />
<path d="
  M 14.112 7.920
  C 14.040 7.560 13.896 7.128 13.752 6.624
  L 33.408 6.624
  C 33.336 6.912 33.192 7.416 33.048 7.848
  C 32.832 7.848 32.760 7.920 32.616 7.920
  L 14.112 7.920" stroke="none" fill="rgb(187,187,187)" />
<path d="
  M -31.608 6.624
  C -31.392 6.264 -31.248 5.904 -31.032 5.472
  L -30.168 5.472
  C -29.880 6.264 -29.448 6.552 -28.584 6.624
  L -31.608 6.624" stroke="none" fill="rgb(189,189,189)" />
<path d="
  M -26.928 6.624
  C -27.216 6.264 -27.504 5.904 -27.648 5.472
  L 33.120 5.400
  C 33.336 5.760 33.408 6.192 33.408 6.624
  L 13.752 6.624
  C 13.608 6.480 13.464 6.264 13.320 5.976
  C 13.320 6.264 13.248 6.552 13.104 6.768
  L 3.456 6.624
  C 3.168 6.336 2.952 6.192 2.808 5.976
  C 2.664 6.264 2.664 6.480 2.592 6.624
  L -26.928 6.624" stroke="none" fill="rgb(189,189,189)" />
<path d="
  M -31.032 5.472
  C -30.816 5.112 -30.672 4.680 -30.456 4.320
  L -30.456 4.320
  C -30.312 4.824 -30.240 5.184 -30.168 5.472
  L -31.032 5.472" stroke="none" fill="rgb(189,189,189)" />
<path d="
  M -27.648 5.472
  C -27.792 5.112 -27.936 4.680 -28.008 4.320
  L 24.048 4.176
  C 24.048 4.536 24.048 4.896 24.048 5.184
  C 24.336 4.824 24.768 4.536 25.128 4.320
  L 31.968 4.320
  C 32.400 4.608 32.832 4.968 33.120 5.400
  L -27.648 5.472" stroke="none" fill="rgb(189,189,189)" />
<path d="
  M -30.456 4.320
  C -30.456 4.320 -30.456 4.176 -30.456 4.176
  C -30.456 4.176 -30.456 4.320 -30.456 4.320
  L -30.456 4.320" stroke="none" fill="rgb(192,192,192)" />
<path d="
  M -28.008 4.320
  C -28.008 3.816 -28.008 3.456 -27.792 3.024
  L 14.328 3.024
  C 14.328 3.456 14.328 3.816 14.328 4.176
  C 15.984 3.744 16.632 3.528 17.064 3.024
  L 23.760 3.024
  C 23.832 3.456 23.976 3.816 24.048 4.176
  L -28.008 4.320" stroke="none" fill="rgb(192,192,192)" />
<path d="
  M 25.128 4.320
  C 27.144 3.168 30.168 3.240 31.968 4.320
  L 25.128 4.320" stroke="none" fill="rgb(192,192,192)" />
<path d="
  M -30.672 2.952
  C -30.528 3.168 -30.528 3.240 -30.456 3.312
  C -30.312 3.240 -30.312 3.168 -30.240 3.024
  L -30.672 2.952" stroke="none" fill="rgb(192,192,192)" />
<path d="
  M -30.672 2.952
  C -30.744 2.520 -30.960 2.160 -30.960 1.800
  L -28.368 1.872
  C -29.088 2.088 -29.736 2.520 -30.240 3.024
  L -30.672 2.952" stroke="none" fill="rgb(192,192,192)" />
<path d="
  M -27.792 3.024
  C -27.720 2.520 -27.432 2.160 -27.144 1.800
  L 14.328 1.872
  C 14.328 2.232 14.328 2.664 14.328 3.024
  L -27.792 3.024" stroke="none" fill="rgb(192,192,192)" />
<path d="
  M 17.064 3.024
  C 17.208 2.736 17.352 2.448 17.352 1.872
  L 22.968 1.872
  C 23.400 2.160 23.544 2.520 23.760 3.024
  L 17.064 3.024" stroke="none" fill="rgb(192,192,192)" />
<path d="
  M -30.960 1.800
  C -31.032 1.368 -30.960 1.008 -30.816 0.720
  L 14.184 0.720
  C 14.328 1.080 14.328 1.512 14.328 1.872
  L -27.144 1.800
  C -26.928 1.656 -26.856 1.584 -26.640 1.512
  C -27.216 1.512 -27.792 1.656 -28.368 1.872
  L -30.960 1.800" stroke="none" fill="rgb(194,194,194)" />
<path d="
  M 17.352 1.872
  C 17.352 1.584 17.352 1.368 17.352 1.008
  C 20.160 1.008 21.888 1.080 22.968 1.872
  L 17.352 1.872" stroke="none" fill="rgb(194,194,194)" />
<path d="
  M -30.816 0.720
  C -29.736 -1.512 -23.832 0.216 -21.096 0.216
  C -21.168 -0.000 -21.168 -0.288 -21.168 -0.576
  L 13.752 -0.576
  C 13.896 -0.144 14.112 0.216 14.184 0.720
  L -30.816 0.720" stroke="none" fill="rgb(197,197,197)" />
<path d="
  M -21.168 -0.576
  C -21.096 -0.936 -21.096 -1.368 -20.880 -1.728
  L 12.528 -1.728
  C 13.032 -1.440 13.464 -1.080 13.752 -0.576
  L -21.168 -0.576" stroke="none" fill="rgb(197,197,197)" />
<path d="
  M -20.880 -1.728
  C -20.808 -2.088 -20.592 -2.520 -20.304 -2.880
  L 8.784 -2.880
  C 8.784 -2.808 8.640 -2.736 8.568 -2.520
  C 10.440 -2.520 11.664 -2.232 12.528 -1.728
  L -20.880 -1.728" stroke="none" fill="rgb(199,199,199)" />
<path d="
  M -20.304 -2.880
  C -19.944 -3.384 -19.512 -3.744 -18.936 -4.176
  L -5.904 -4.176
  C -5.616 -4.176 -5.400 -4.104 -5.112 -3.960
  C -5.112 -4.104 -5.112 -4.176 -5.112 -4.176
  L 8.640 -4.176
  C 8.784 -3.744 8.856 -3.384 8.784 -2.880
  L -20.304 -2.880" stroke="none" fill="rgb(199,199,199)" />
<path d="
  M -18.936 -4.176
  C -18.144 -4.752 -17.064 -5.112 -15.696 -5.328
  L -11.376 -5.328
  C -9.792 -5.112 -7.920 -4.824 -5.904 -4.176
  L -18.936 -4.176" stroke="none" fill="rgb(202,202,202)" />
<path d="
  M -5.112 -4.176
  C -5.112 -4.680 -4.896 -5.040 -4.752 -5.400
  L 8.064 -5.328
  C 8.280 -4.824 8.496 -4.464 8.640 -4.176
  L -5.112 -4.176" stroke="none" fill="rgb(202,202,202)" />
<path d="
  M -15.696 -5.328
  C -14.544 -5.544 -13.104 -5.544 -11.376 -5.328
  L -15.696 -5.328" stroke="none" fill="rgb(202,202,202)" />
<path d="
  M -4.752 -5.400
  C -4.392 -5.832 -4.032 -6.192 -3.456 -6.480
  L 7.416 -6.480
  C 7.704 -6.336 7.776 -6.192 7.848 -6.048
  C 7.992 -5.760 8.064 -5.544 8.064 -5.328
  L -4.752 -5.400" stroke="none" fill="rgb(202,202,202)" />
<path d="
  M -3.456 -6.480
  C -0.504 -8.280 5.688 -7.776 7.416 -6.480
  L -3.456 -6.480" stroke="none" fill="rgb(204,204,204)" />
</g>
<g>
<path d="
  M -33.336 22.176
  L -32.184 22.608
  L -29.592 17.064
  L -31.896 16.128
  L -34.560 21.672
  L -33.336 22.176
  L -33.336 22.176" stroke="none" fill="rgb(0,0,0)" />
<path d="
  M -33.768 31.608
  L -32.616 32.184
  L -29.304 25.488
  L -31.608 24.264
  L -34.920 31.032
  L -33.768 31.608
  L -33.768 31.608" stroke="none" fill="rgb(0,0,0)" />
<path d="
  M -27.720 24.480
  L -26.568 25.056
  L -22.464 16.776
  L -24.768 15.624
  L -28.872 23.904
  L -27.720 24.480
  L -27.720 24.480" stroke="none" fill="rgb(0,0,0)" />
<path d="
  M -27.720 31.896
  L -26.568 32.472
  L -22.824 25.056
  L -25.200 23.904
  L -28.872 31.320
  L -27.720 31.896
  L -27.720 31.896" stroke="none" fill="rgb(0,0,0)" />
<path d="
  M -22.176 26.352
  L -21.024 26.928
  L -17.280 19.440
  L -19.656 18.216
  L -23.328 25.776
  L -22.176 26.352
  L -22.176 26.352" stroke="none" fill="rgb(0,0,0)" />
<path d="
  M -20.592 30.456
  L -19.440 31.032
  L -15.696 23.472
  L -18.072 22.320
  L -21.744 29.808
  L -20.592 30.456
  L -20.592 30.456" stroke="none" fill="rgb(0,0,0)" />
<path d="
  M -13.104 26.352
  L -11.952 26.928
  L -8.208 19.440
  L -10.584 18.216
  L -14.256 25.776
  L -13.104 26.352
  L -13.104 26.352" stroke="none" fill="rgb(0,0,0)" />
<path d="
  M -10.152 30.456
  L -9.000 31.032
  L -5.616 24.264
  L -7.920 23.112
  L -11.376 29.808
  L -10.152 30.456
  L -10.152 30.456" stroke="none" fill="rgb(0,0,0)" />
<path d="
  M -2.304 22.176
  L -1.080 22.752
  L 0.720 19.008
  L -1.584 17.856
  L -3.456 21.528
  L -2.304 22.176
  L -2.304 22.176" stroke="none" fill="rgb(0,0,0)" />
<path d="
  M -2.664 29.664
  L -1.512 30.240
  L 1.800 23.472
  L -0.504 22.320
  L -3.816 29.088
  L -2.664 29.664
  L -2.664 29.664" stroke="none" fill="rgb(0,0,0)" />
<path d="
  M 6.264 24.768
  L 7.416 25.344
  L 11.448 17.136
  L 9.144 15.984
  L 5.112 24.192
  L 6.264 24.768
  L 6.264 24.768" stroke="none" fill="rgb(0,0,0)" />
<path d="
  M 6.984 31.176
  L 8.136 31.824
  L 11.448 25.056
  L 9.144 23.904
  L 5.904 30.600
  L 6.984 31.176
  L 6.984 31.176" stroke="none" fill="rgb(0,0,0)" />
<path d="
  M 16.776 22.536
  L 17.928 23.112
  L 20.160 18.648
  L 17.784 17.496
  L 15.552 21.960
  L 16.776 22.536
  L 16.776 22.536" stroke="none" fill="rgb(0,0,0)" />
<path d="
  M 15.264 31.896
  L 16.416 32.472
  L 21.240 23.472
  L 18.864 22.320
  L 14.112 31.320
  L 15.264 31.896
  L 15.264 31.896" stroke="none" fill="rgb(0,0,0)" />
<path d="
  M 25.704 23.688
  L 26.856 24.264
  L 30.600 16.776
  L 28.224 15.624
  L 24.552 23.112
  L 25.704 23.688
  L 25.704 23.688" stroke="none" fill="rgb(0,0,0)" />
</g>
</g>
</svg>
