<?xml version="1.0" encoding="ISO-8859-1"?><!DOCTYPE svg PUBLIC "-//W3C//DTD SVG 1.1//EN" "http://www.w3.org/Graphics/SVG/1.1/DTD/svg11.dtd"><svg version="1.1" baseProfile="full" width="100%" height="100%" viewBox="-33.696 -43.920 67.320 87.768" xmlns="http://www.w3.org/2000/svg" xmlns:xlink="http://www.w3.org/1999/xlink">
<g>
<g>
<g>
<path d="
  M -24.048 -0.792
  C -23.616 -0.360 -23.184 -0.000 -22.680 0.216
  C -20.736 0.936 -18.144 1.584 -15.912 1.584
  C -15.624 1.584 -14.328 1.512 -13.896 1.368
  C -13.464 1.296 -13.032 1.152 -12.600 0.936
  L -24.048 -0.792" stroke="none" fill="rgb(72,235,255)" />
<path d="
  M -24.048 -0.792
  C -24.480 -1.224 -24.840 -1.728 -25.056 -2.304
  L -11.088 -0.216
  C -11.520 0.216 -11.952 0.648 -12.600 0.936
  L -24.048 -0.792" stroke="none" fill="rgb(82,235,255)" />
<path d="
  M -25.056 -2.304
  C -25.200 -2.664 -25.416 -3.096 -25.416 -3.672
  L -10.368 -1.440
  C -10.584 -1.008 -10.800 -0.648 -11.088 -0.216
  L -25.056 -2.304" stroke="none" fill="rgb(92,238,255)" />
<path d="
  M -25.416 -3.672
  C -25.560 -3.960 -25.560 -4.320 -25.560 -4.608
  C -25.560 -4.752 -25.560 -4.968 -25.560 -5.040
  L -9.792 -2.808
  C -9.936 -2.376 -10.152 -1.872 -10.368 -1.440
  L -25.416 -3.672" stroke="none" fill="rgb(102,238,255)" />
<path d="
  M -25.560 -5.040
  C -25.560 -5.472 -25.560 -6.048 -25.416 -6.480
  L -9.504 -4.176
  C -9.576 -3.672 -9.720 -3.240 -9.792 -2.808
  L -25.560 -5.040" stroke="none" fill="rgb(113,240,255)" />
<path d="
  M -25.416 -6.480
  C -25.200 -6.840 -25.128 -7.200 -24.912 -7.632
  L -9.504 -5.472
  C -9.504 -5.040 -9.504 -4.608 -9.504 -4.176
  L -25.416 -6.480" stroke="none" fill="rgb(123,240,255)" />
<path d="
  M -24.912 -7.632
  C -24.840 -8.064 -24.624 -8.424 -24.480 -8.712
  L -24.408 -9.072
  L -9.504 -6.912
  C -9.504 -6.480 -9.360 -6.048 -9.504 -5.472
  L -24.912 -7.632" stroke="none" fill="rgb(133,243,255)" />
<path d="
  M -24.408 -9.072
  L -23.760 -10.224
  L -9.576 -8.280
  C -9.576 -7.848 -9.504 -7.416 -9.504 -6.912
  L -24.408 -9.072" stroke="none" fill="rgb(143,243,255)" />
<path d="
  M -23.760 -10.224
  L -23.328 -11.160
  L -23.112 -11.592
  L -9.792 -9.720
  C -9.720 -9.504 -9.720 -9.144 -9.720 -8.928
  C -9.720 -8.712 -9.576 -8.496 -9.576 -8.280
  L -23.760 -10.224" stroke="none" fill="rgb(153,243,255)" />
<path d="
  M -23.112 -11.592
  L -22.248 -12.816
  L -10.008 -11.088
  C -10.008 -10.872 -9.936 -10.584 -9.936 -10.368
  C -9.936 -10.224 -9.792 -9.936 -9.792 -9.720
  L -23.112 -11.592" stroke="none" fill="rgb(164,245,255)" />
<path d="
  M -22.248 -12.816
  L -21.456 -13.968
  L -10.368 -12.456
  C -10.224 -12.024 -10.152 -11.592 -10.008 -11.088
  L -22.248 -12.816" stroke="none" fill="rgb(174,248,255)" />
<path d="
  M -21.456 -13.968
  L -20.808 -14.976
  C -20.808 -15.048 -20.736 -15.048 -20.664 -15.192
  L -10.800 -13.896
  C -10.800 -13.896 -10.800 -13.752 -10.800 -13.752
  C -10.656 -13.320 -10.584 -12.888 -10.368 -12.456
  L -21.456 -13.968" stroke="none" fill="rgb(184,248,255)" />
<path d="
  M -20.664 -15.192
  C -20.448 -15.480 -20.088 -15.912 -19.656 -16.416
  L -11.232 -15.264
  C -11.088 -14.760 -10.872 -14.328 -10.800 -13.896
  L -20.664 -15.192" stroke="none" fill="rgb(194,248,255)" />
<path d="
  M -19.656 -16.416
  C -19.368 -16.776 -19.008 -17.208 -18.720 -17.640
  L -11.664 -16.632
  C -11.664 -16.560 -11.520 -16.560 -11.520 -16.416
  C -11.448 -15.984 -11.304 -15.696 -11.232 -15.264
  L -19.656 -16.416" stroke="none" fill="rgb(204,250,255)" />
<path d="
  M -18.720 -17.640
  C -18.360 -18.072 -17.928 -18.504 -17.640 -18.936
  L -12.168 -18.288
  C -11.952 -17.640 -11.736 -16.992 -11.664 -16.632
  L -18.720 -17.640" stroke="none" fill="rgb(215,253,255)" />
<path d="
  M -17.640 -18.936
  C -17.280 -19.368 -16.992 -19.728 -16.632 -20.088
  L -12.672 -19.656
  C -12.600 -19.224 -12.384 -18.792 -12.168 -18.288
  L -17.640 -18.936" stroke="none" fill="rgb(225,253,255)" />
<path d="
  M -16.632 -20.088
  C -16.272 -20.520 -15.912 -20.952 -15.624 -21.384
  L -13.248 -21.024
  L -12.816 -19.944
  C -12.816 -19.872 -12.672 -19.728 -12.672 -19.656
  L -16.632 -20.088" stroke="none" fill="rgb(235,253,255)" />
<path d="
  M -15.624 -21.384
  C -15.192 -21.816 -14.832 -22.248 -14.544 -22.680
  L -13.752 -22.536
  L -13.248 -21.024
  L -15.624 -21.384" stroke="none" fill="rgb(245,255,255)" />
<path d="
  M -14.544 -22.680
  C -14.328 -22.896 -14.112 -22.968 -13.968 -23.184
  L -13.752 -22.536
  L -14.544 -22.680" stroke="none" fill="rgb(255,255,255)" />
</g>
<path d="
  M -13.968 -23.184
  C -16.272 -20.736 -20.232 -15.768 -20.808 -14.976
  L -23.328 -11.160
  L -24.480 -8.712
  C -25.056 -7.560 -25.776 -6.048 -25.560 -4.608
  C -25.632 -2.880 -24.480 -0.576 -22.680 0.216
  C -20.736 0.936 -18.144 1.584 -15.912 1.584
  C -15.624 1.584 -14.328 1.512 -13.896 1.368
  C -8.928 0.216 -9.144 -5.688 -9.720 -8.928
  C -9.720 -9.360 -9.792 -10.008 -9.936 -10.368
  C -10.152 -11.520 -10.440 -12.816 -10.800 -13.752
  C -11.016 -14.544 -11.304 -15.480 -11.520 -16.416
  C -11.880 -17.064 -12.456 -19.152 -12.816 -19.944
  L -13.968 -23.184" stroke="rgb(0,0,0)" stroke-width="0.504" fill="none" />
<g>
<path d="
  M -22.752 -1.944
  C -22.680 -1.872 -22.464 -1.656 -22.248 -1.512
  C -22.104 -1.512 -21.600 -1.224 -21.456 -1.080
  C -19.440 -0.360 -16.848 0.216 -14.760 -0.144
  C -14.616 -0.144 -13.680 -0.360 -13.536 -0.360
  C -13.464 -0.360 -13.248 -0.432 -13.032 -0.576
  L -22.752 -1.944" stroke="none" fill="rgb(131,255,255)" />
<path d="
  M -22.752 -1.944
  C -23.328 -2.376 -23.544 -2.592 -23.760 -2.880
  L -23.832 -3.240
  C -23.832 -3.240 -23.832 -3.240 -23.832 -3.240
  L -11.736 -1.512
  C -11.952 -1.224 -12.600 -0.864 -13.032 -0.576
  L -22.752 -1.944" stroke="none" fill="rgb(138,255,255)" />
<path d="
  M -23.832 -3.240
  C -23.976 -3.456 -24.192 -3.960 -24.264 -4.176
  C -24.264 -4.320 -24.264 -4.392 -24.264 -4.536
  L -11.088 -2.592
  C -11.304 -2.376 -11.448 -2.088 -11.520 -1.872
  C -11.520 -1.728 -11.664 -1.656 -11.736 -1.512
  L -23.832 -3.240" stroke="none" fill="rgb(146,255,255)" />
<path d="
  M -24.264 -4.536
  C -24.408 -4.824 -24.264 -5.256 -24.264 -5.688
  L -10.800 -3.744
  C -10.872 -3.312 -11.016 -2.880 -11.088 -2.592
  L -24.264 -4.536" stroke="none" fill="rgb(153,255,255)" />
<path d="
  M -24.264 -5.688
  C -24.264 -6.120 -24.192 -6.552 -24.048 -6.912
  L -10.440 -4.968
  C -10.584 -4.536 -10.656 -4.104 -10.800 -3.744
  L -24.264 -5.688" stroke="none" fill="rgb(159,255,255)" />
<path d="
  M -24.048 -6.912
  C -23.976 -7.344 -23.832 -7.776 -23.760 -8.208
  L -10.368 -6.120
  C -10.368 -5.688 -10.440 -5.400 -10.440 -4.968
  L -24.048 -6.912" stroke="none" fill="rgb(166,255,255)" />
<path d="
  M -23.760 -8.208
  C -23.616 -8.280 -23.616 -8.496 -23.544 -8.640
  L -23.184 -9.288
  L -10.224 -7.344
  C -10.224 -6.912 -10.224 -6.552 -10.368 -6.120
  L -23.760 -8.208" stroke="none" fill="rgb(174,255,255)" />
<path d="
  M -23.184 -9.288
  L -22.752 -10.368
  L -10.368 -8.640
  C -10.224 -8.208 -10.224 -7.776 -10.224 -7.344
  L -23.184 -9.288" stroke="none" fill="rgb(182,255,255)" />
<path d="
  M -22.752 -10.368
  L -22.464 -11.016
  L -22.104 -11.376
  L -10.440 -9.936
  C -10.440 -9.504 -10.368 -9.072 -10.368 -8.640
  L -22.752 -10.368" stroke="none" fill="rgb(187,255,255)" />
<path d="
  M -22.104 -11.376
  L -21.384 -12.456
  L -10.800 -11.016
  L -10.656 -10.584
  C -10.584 -10.368 -10.584 -10.152 -10.440 -9.936
  L -22.104 -11.376" stroke="none" fill="rgb(194,255,255)" />
<path d="
  M -21.384 -12.456
  L -20.520 -13.536
  L -11.232 -12.240
  L -10.800 -11.016
  L -21.384 -12.456" stroke="none" fill="rgb(202,255,255)" />
<path d="
  M -20.520 -13.536
  L -19.800 -14.616
  L -11.664 -13.536
  L -11.232 -12.240
  L -20.520 -13.536" stroke="none" fill="rgb(207,255,255)" />
<path d="
  M -19.800 -14.616
  L -19.008 -15.696
  L -12.096 -14.760
  L -11.664 -13.536
  L -19.800 -14.616" stroke="none" fill="rgb(215,255,255)" />
<path d="
  M -19.008 -15.696
  L -18.288 -16.776
  C -18.288 -16.776 -18.288 -16.776 -18.288 -16.776
  L -12.456 -15.984
  L -12.096 -14.760
  L -19.008 -15.696" stroke="none" fill="rgb(222,255,255)" />
<path d="
  M -18.288 -16.776
  C -18.072 -17.064 -17.712 -17.496 -17.424 -17.856
  L -12.888 -17.280
  L -12.456 -15.984
  L -18.288 -16.776" stroke="none" fill="rgb(230,255,255)" />
<path d="
  M -17.424 -17.856
  C -17.064 -18.288 -16.632 -18.720 -16.416 -19.008
  L -13.248 -18.576
  L -12.888 -17.280
  L -17.424 -17.856" stroke="none" fill="rgb(235,255,255)" />
<path d="
  M -16.416 -19.008
  C -16.344 -19.152 -16.272 -19.224 -16.128 -19.368
  C -16.056 -19.584 -15.840 -19.728 -15.624 -19.944
  L -13.680 -19.728
  L -13.248 -18.576
  L -16.416 -19.008" stroke="none" fill="rgb(243,255,255)" />
<path d="
  M -15.624 -19.944
  C -15.264 -20.304 -15.048 -20.592 -14.760 -21.024
  C -14.760 -21.024 -14.760 -21.024 -14.760 -21.024
  L -14.112 -21.024
  L -13.680 -19.728
  L -15.624 -19.944" stroke="none" fill="rgb(250,255,255)" />
<path d="
  M -14.760 -21.024
  C -14.328 -21.600 -14.184 -21.384 -14.112 -21.024
  L -14.112 -21.024
  L -14.760 -21.024" stroke="none" fill="rgb(255,255,255)" />
</g>
<path d="
  M -14.760 -21.024
  C -15.264 -20.160 -15.912 -19.656 -16.128 -19.368
  C -16.632 -18.720 -17.712 -17.496 -18.288 -16.776
  L -22.464 -11.016
  L -23.544 -8.640
  C -23.976 -7.848 -24.480 -5.400 -24.264 -4.176
  C -24.192 -3.960 -23.976 -3.456 -23.832 -3.240
  L -23.760 -2.880
  C -23.400 -2.520 -23.112 -2.160 -22.248 -1.512
  C -22.104 -1.512 -21.600 -1.224 -21.456 -1.080
  C -19.440 -0.360 -16.848 0.216 -14.760 -0.144
  C -14.616 -0.144 -13.680 -0.360 -13.536 -0.360
  C -13.032 -0.576 -11.664 -1.440 -11.520 -1.872
  C -9.936 -4.608 -10.152 -8.928 -10.656 -10.584
  L -14.112 -21.024
  C -14.184 -21.384 -14.328 -21.600 -14.760 -21.024" stroke="rgb(0,0,0)" stroke-width="0.504" fill="none" />
<path d="
  M -14.184 -3.096
  C -13.536 -2.880 -13.032 -2.808 -12.672 -2.592
  C -12.600 -2.160 -13.896 -1.512 -14.400 -1.440
  C -14.544 -1.440 -14.976 -1.512 -15.192 -1.440
  C -15.912 -1.656 -16.632 -1.872 -16.848 -2.592
  C -16.416 -2.520 -16.056 -2.520 -15.696 -2.520
  C -15.624 -2.520 -15.264 -2.592 -15.192 -2.520
  C -14.760 -2.664 -14.616 -2.808 -14.184 -3.096" stroke="rgb(0,0,0)" stroke-width="0.504" fill="rgb(240,240,240)" />
<path d="
  M -11.520 -7.128
  C -11.520 -6.768 -11.736 -6.336 -11.952 -5.904
  L -12.672 -4.392
  C -12.816 -4.176 -13.104 -3.960 -13.320 -3.672
  C -12.816 -3.528 -12.240 -3.456 -11.880 -3.312
  C -11.664 -4.176 -11.016 -5.256 -11.232 -6.120
  C -11.304 -6.552 -11.448 -6.840 -11.520 -7.128" stroke="rgb(0,0,0)" stroke-width="0.504" fill="rgb(240,240,240)" />
</g>
<g>
<g>
<path d="
  M -1.800 -13.464
  C -1.368 -13.032 -0.936 -12.672 -0.504 -12.456
  C 1.440 -11.736 4.032 -11.088 6.264 -11.088
  C 6.696 -11.088 7.992 -11.160 8.424 -11.304
  C 8.856 -11.376 9.288 -11.520 9.576 -11.736
  L -1.800 -13.464" stroke="none" fill="rgb(72,235,255)" />
<path d="
  M -1.800 -13.464
  C -2.232 -13.896 -2.520 -14.328 -2.880 -14.832
  L 11.160 -12.888
  C 10.728 -12.456 10.224 -12.024 9.576 -11.736
  L -1.800 -13.464" stroke="none" fill="rgb(82,235,255)" />
<path d="
  M -2.880 -14.832
  C -3.096 -15.408 -3.168 -15.768 -3.312 -16.344
  L 11.952 -14.184
  C 11.736 -13.752 11.520 -13.320 11.160 -12.888
  L -2.880 -14.832" stroke="none" fill="rgb(92,238,255)" />
<path d="
  M -3.312 -16.344
  C -3.384 -16.632 -3.384 -16.992 -3.384 -17.280
  C -3.384 -17.424 -3.384 -17.496 -3.384 -17.640
  L 12.456 -15.480
  C 12.384 -15.048 12.168 -14.616 11.952 -14.184
  L -3.312 -16.344" stroke="none" fill="rgb(102,238,255)" />
<path d="
  M -3.384 -17.640
  C -3.384 -18.144 -3.384 -18.720 -3.168 -19.152
  L 12.672 -16.848
  C 12.672 -16.416 12.600 -15.912 12.456 -15.480
  L -3.384 -17.640" stroke="none" fill="rgb(113,240,255)" />
<path d="
  M -3.168 -19.152
  C -3.096 -19.584 -2.880 -20.088 -2.736 -20.520
  L 12.816 -18.288
  C 12.816 -17.712 12.816 -17.280 12.672 -16.848
  L -3.168 -19.152" stroke="none" fill="rgb(123,240,255)" />
<path d="
  M -2.736 -20.520
  C -2.520 -20.808 -2.448 -21.240 -2.304 -21.600
  L -2.304 -21.672
  L 12.816 -19.584
  C 12.816 -19.152 12.816 -18.720 12.816 -18.288
  L -2.736 -20.520" stroke="none" fill="rgb(133,243,255)" />
<path d="
  M -2.304 -21.672
  L -1.584 -22.968
  L 12.672 -20.952
  C 12.816 -20.520 12.816 -20.088 12.816 -19.584
  L -2.304 -21.672" stroke="none" fill="rgb(143,243,255)" />
<path d="
  M -1.584 -22.968
  L -1.008 -24.048
  L -0.936 -24.264
  L 12.456 -22.464
  C 12.456 -22.248 12.600 -22.032 12.600 -21.816
  C 12.600 -21.600 12.672 -21.240 12.672 -20.952
  L -1.584 -22.968" stroke="none" fill="rgb(153,243,255)" />
<path d="
  M -0.936 -24.264
  L -0.144 -25.416
  L 12.240 -23.760
  C 12.240 -23.544 12.384 -23.400 12.384 -23.184
  C 12.384 -22.968 12.384 -22.680 12.456 -22.464
  L -0.936 -24.264" stroke="none" fill="rgb(164,245,255)" />
<path d="
  M -0.144 -25.416
  L 0.720 -26.712
  L 11.952 -25.128
  C 12.024 -24.696 12.168 -24.264 12.240 -23.760
  L -0.144 -25.416" stroke="none" fill="rgb(174,248,255)" />
<path d="
  M 0.720 -26.712
  L 1.440 -27.792
  C 1.440 -27.792 1.512 -27.936 1.512 -27.936
  L 11.520 -26.640
  C 11.592 -26.208 11.808 -25.632 11.952 -25.128
  L 0.720 -26.712" stroke="none" fill="rgb(184,248,255)" />
<path d="
  M 1.512 -27.936
  C 1.728 -28.224 2.088 -28.656 2.520 -29.160
  L 11.088 -28.008
  C 11.304 -27.504 11.376 -27.072 11.520 -26.640
  C 11.520 -26.640 11.520 -26.640 11.520 -26.640
  L 1.512 -27.936" stroke="none" fill="rgb(194,248,255)" />
<path d="
  M 2.520 -29.160
  C 2.808 -29.520 3.168 -29.952 3.600 -30.384
  L 10.512 -29.520
  C 10.656 -29.376 10.656 -29.376 10.656 -29.304
  C 10.728 -28.872 10.944 -28.440 11.088 -28.008
  L 2.520 -29.160" stroke="none" fill="rgb(204,250,255)" />
<path d="
  M 3.600 -30.384
  C 3.888 -30.816 4.248 -31.248 4.536 -31.680
  L 10.080 -31.032
  C 10.296 -30.384 10.440 -29.808 10.512 -29.520
  L 3.600 -30.384" stroke="none" fill="rgb(215,253,255)" />
<path d="
  M 4.536 -31.680
  C 4.896 -32.112 5.184 -32.544 5.616 -32.832
  L 9.576 -32.400
  C 9.792 -31.968 9.864 -31.464 10.080 -31.032
  L 4.536 -31.680" stroke="none" fill="rgb(225,253,255)" />
<path d="
  M 5.616 -32.832
  C 5.904 -33.264 6.336 -33.768 6.696 -34.128
  L 9.072 -33.768
  L 9.504 -32.832
  C 9.504 -32.688 9.576 -32.544 9.576 -32.400
  L 5.616 -32.832" stroke="none" fill="rgb(235,253,255)" />
<path d="
  M 6.696 -34.128
  C 6.984 -34.560 7.416 -34.992 7.776 -35.424
  L 8.496 -35.280
  L 9.072 -33.768
  L 6.696 -34.128" stroke="none" fill="rgb(245,255,255)" />
<path d="
  M 7.776 -35.424
  C 7.992 -35.640 8.064 -35.712 8.280 -35.928
  L 8.496 -35.280
  L 7.776 -35.424" stroke="none" fill="rgb(255,255,255)" />
</g>
<path d="
  M 8.280 -35.928
  C 6.048 -33.552 2.088 -28.656 1.440 -27.792
  L -1.008 -24.048
  L -2.304 -21.600
  C -2.736 -20.304 -3.600 -18.720 -3.384 -17.280
  C -3.456 -15.552 -2.232 -13.248 -0.504 -12.456
  C 1.440 -11.736 4.032 -11.088 6.264 -11.088
  C 6.696 -11.088 7.992 -11.160 8.424 -11.304
  C 13.248 -12.456 13.104 -18.360 12.600 -21.816
  C 12.456 -22.248 12.384 -22.896 12.384 -23.184
  C 12.168 -24.336 11.808 -25.560 11.520 -26.640
  C 11.304 -27.360 10.944 -28.368 10.656 -29.304
  C 10.440 -29.952 9.792 -31.968 9.504 -32.832
  L 8.280 -35.928" stroke="rgb(0,0,0)" stroke-width="0.504" fill="none" />
<g>
<path d="
  M -0.576 -14.616
  C -0.504 -14.544 -0.288 -14.400 -0.072 -14.184
  C 0.144 -14.184 0.576 -13.896 0.792 -13.752
  C 2.736 -13.032 5.400 -12.456 7.560 -12.816
  C 7.632 -12.816 8.640 -13.032 8.712 -13.032
  C 8.856 -13.104 9.072 -13.104 9.144 -13.248
  L -0.576 -14.616" stroke="none" fill="rgb(131,255,255)" />
<path d="
  M -0.576 -14.616
  C -1.008 -15.048 -1.224 -15.264 -1.440 -15.552
  L -1.584 -15.768
  C -1.584 -15.768 -1.656 -15.912 -1.656 -15.912
  L 10.512 -14.184
  C 10.224 -13.896 9.576 -13.536 9.144 -13.248
  L -0.576 -14.616" stroke="none" fill="rgb(138,255,255)" />
<path d="
  M -1.656 -15.912
  C -1.800 -16.200 -2.016 -16.632 -2.016 -16.848
  C -2.016 -16.992 -2.016 -17.064 -2.088 -17.208
  L 11.088 -15.264
  C 10.944 -15.048 10.872 -14.760 10.728 -14.544
  C 10.728 -14.400 10.656 -14.328 10.512 -14.184
  L -1.656 -15.912" stroke="none" fill="rgb(146,255,255)" />
<path d="
  M -2.088 -17.208
  C -2.088 -17.496 -2.088 -17.928 -2.088 -18.360
  L 11.520 -16.416
  C 11.376 -15.984 11.304 -15.696 11.088 -15.264
  L -2.088 -17.208" stroke="none" fill="rgb(153,255,255)" />
<path d="
  M -2.088 -18.360
  C -2.016 -18.792 -2.016 -19.224 -1.872 -19.656
  L 11.736 -17.640
  C 11.592 -17.208 11.592 -16.776 11.520 -16.416
  L -2.088 -18.360" stroke="none" fill="rgb(159,255,255)" />
<path d="
  M -1.872 -19.656
  C -1.800 -20.088 -1.656 -20.520 -1.584 -20.808
  L 11.808 -18.792
  C 11.808 -18.360 11.808 -17.928 11.736 -17.640
  L -1.872 -19.656" stroke="none" fill="rgb(166,255,255)" />
<path d="
  M -1.584 -20.808
  C -1.584 -21.024 -1.440 -21.240 -1.368 -21.456
  L -1.152 -21.888
  L 11.952 -19.944
  C 11.952 -19.584 11.952 -19.224 11.808 -18.792
  L -1.584 -20.808" stroke="none" fill="rgb(174,255,255)" />
<path d="
  M -1.152 -21.888
  L -0.576 -22.968
  L 11.808 -21.240
  C 11.952 -20.808 11.952 -20.376 11.952 -19.944
  L -1.152 -21.888" stroke="none" fill="rgb(182,255,255)" />
<path d="
  M -0.576 -22.968
  L -0.144 -23.832
  L 0.072 -24.120
  L 11.736 -22.680
  C 11.808 -22.248 11.808 -21.672 11.808 -21.240
  L -0.576 -22.968" stroke="none" fill="rgb(187,255,255)" />
<path d="
  M 0.072 -24.120
  L 0.792 -25.200
  L 11.376 -23.760
  L 11.520 -23.400
  C 11.592 -23.184 11.592 -22.968 11.736 -22.680
  L 0.072 -24.120" stroke="none" fill="rgb(194,255,255)" />
<path d="
  M 0.792 -25.200
  L 1.512 -26.280
  L 10.944 -24.984
  L 11.376 -23.760
  L 0.792 -25.200" stroke="none" fill="rgb(202,255,255)" />
<path d="
  M 1.512 -26.280
  L 2.376 -27.504
  L 10.656 -26.208
  L 10.944 -24.984
  L 1.512 -26.280" stroke="none" fill="rgb(207,255,255)" />
<path d="
  M 2.376 -27.504
  L 3.168 -28.512
  L 10.224 -27.504
  L 10.656 -26.208
  L 2.376 -27.504" stroke="none" fill="rgb(215,255,255)" />
<path d="
  M 3.168 -28.512
  L 3.888 -29.592
  C 3.888 -29.592 3.888 -29.592 3.888 -29.592
  L 9.792 -28.728
  L 10.224 -27.504
  L 3.168 -28.512" stroke="none" fill="rgb(222,255,255)" />
<path d="
  M 3.888 -29.592
  C 4.104 -29.952 4.464 -30.240 4.752 -30.672
  L 9.360 -29.952
  L 9.792 -28.728
  L 3.888 -29.592" stroke="none" fill="rgb(230,255,255)" />
<path d="
  M 4.752 -30.672
  C 5.112 -31.032 5.400 -31.464 5.688 -31.752
  L 9.072 -31.248
  L 9.360 -29.952
  L 4.752 -30.672" stroke="none" fill="rgb(235,255,255)" />
<path d="
  M 5.688 -31.752
  C 5.832 -31.896 5.904 -32.112 6.048 -32.184
  C 6.120 -32.328 6.336 -32.544 6.552 -32.688
  L 8.640 -32.400
  L 9.072 -31.248
  L 5.688 -31.752" stroke="none" fill="rgb(243,255,255)" />
<path d="
  M 6.552 -32.688
  C 6.912 -33.048 7.200 -33.480 7.560 -33.912
  C 7.560 -33.912 7.560 -33.912 7.560 -33.912
  L 8.208 -33.768
  L 8.640 -32.400
  L 6.552 -32.688" stroke="none" fill="rgb(250,255,255)" />
<path d="
  M 7.560 -33.912
  C 7.848 -34.416 8.064 -34.200 8.208 -33.768
  L 8.208 -33.768
  L 7.560 -33.912" stroke="none" fill="rgb(255,255,255)" />
</g>
<path d="
  M 7.560 -33.912
  C 6.912 -33.048 6.336 -32.544 6.048 -32.184
  C 5.616 -31.536 4.464 -30.384 3.888 -29.592
  L -0.144 -23.832
  L -1.368 -21.456
  C -1.800 -20.592 -2.304 -18.072 -2.016 -16.848
  C -2.016 -16.632 -1.800 -16.128 -1.584 -15.768
  L -1.440 -15.552
  C -1.152 -15.192 -0.936 -14.832 -0.072 -14.184
  C 0.144 -14.184 0.576 -13.896 0.792 -13.752
  C 2.736 -13.032 5.400 -12.456 7.560 -12.816
  C 7.632 -12.816 8.640 -13.032 8.712 -13.032
  C 9.144 -13.248 10.512 -14.112 10.728 -14.544
  C 12.240 -17.280 12.024 -21.816 11.520 -23.400
  L 8.208 -33.768
  C 8.064 -34.200 7.848 -34.416 7.560 -33.912" stroke="rgb(0,0,0)" stroke-width="0.504" fill="none" />
<path d="
  M 8.064 -15.768
  C 8.712 -15.552 9.144 -15.480 9.576 -15.264
  C 9.576 -14.832 8.424 -14.184 7.848 -14.112
  C 7.632 -14.112 7.344 -14.112 7.128 -14.112
  C 6.264 -14.328 5.616 -14.544 5.400 -15.264
  C 5.688 -15.192 6.120 -15.192 6.552 -15.192
  C 6.696 -15.192 6.912 -15.264 6.984 -15.192
  C 7.416 -15.408 7.632 -15.480 8.064 -15.768" stroke="rgb(0,0,0)" stroke-width="0.504" fill="rgb(240,240,240)" />
<path d="
  M 10.728 -19.872
  C 10.728 -19.440 10.512 -19.008 10.296 -18.576
  L 9.576 -17.064
  C 9.504 -16.848 9.144 -16.632 8.928 -16.344
  C 9.504 -16.200 9.864 -16.128 10.440 -15.984
  C 10.512 -16.848 11.160 -17.928 10.944 -18.792
  C 10.944 -19.224 10.872 -19.584 10.728 -19.872" stroke="rgb(0,0,0)" stroke-width="0.504" fill="rgb(240,240,240)" />
</g>
<g>
<g>
<path d="
  M 10.872 10.080
  C 11.160 10.440 11.592 10.656 12.024 10.872
  C 13.968 11.736 16.560 12.384 18.792 12.384
  C 19.080 12.384 20.376 12.168 20.808 12.096
  C 21.240 11.952 21.672 11.880 22.104 11.664
  L 10.872 10.080" stroke="none" fill="rgb(72,235,255)" />
<path d="
  M 10.872 10.080
  C 10.440 9.648 10.008 9.072 9.648 8.568
  L 23.544 10.440
  C 23.112 10.872 22.680 11.304 22.104 11.664
  L 10.872 10.080" stroke="none" fill="rgb(82,235,255)" />
<path d="
  M 9.648 8.568
  C 9.504 8.136 9.360 7.560 9.288 7.128
  L 24.408 9.288
  C 24.192 9.720 23.832 10.080 23.544 10.440
  L 9.648 8.568" stroke="none" fill="rgb(92,238,255)" />
<path d="
  M 9.288 7.128
  C 9.144 6.840 9.144 6.480 9.144 6.192
  C 9.144 6.048 9.144 5.904 9.144 5.760
  L 24.912 7.920
  C 24.696 8.424 24.624 8.856 24.408 9.288
  L 9.288 7.128" stroke="none" fill="rgb(102,238,255)" />
<path d="
  M 9.144 5.760
  C 9.144 5.328 9.144 4.896 9.288 4.464
  L 25.128 6.696
  C 25.056 7.128 25.056 7.488 24.912 7.920
  L 9.144 5.760" stroke="none" fill="rgb(113,240,255)" />
<path d="
  M 9.288 4.464
  C 9.360 4.032 9.576 3.528 9.792 3.096
  L 25.272 5.256
  C 25.272 5.760 25.272 6.192 25.128 6.696
  L 9.288 4.464" stroke="none" fill="rgb(123,240,255)" />
<path d="
  M 9.792 3.096
  C 9.864 2.664 10.080 2.232 10.224 1.872
  L 10.224 1.800
  L 25.272 3.816
  C 25.272 4.392 25.272 4.824 25.272 5.256
  L 9.792 3.096" stroke="none" fill="rgb(133,243,255)" />
<path d="
  M 10.224 1.800
  L 10.872 0.504
  L 25.128 2.448
  C 25.272 2.880 25.272 3.384 25.272 3.816
  L 10.224 1.800" stroke="none" fill="rgb(143,243,255)" />
<path d="
  M 10.872 0.504
  L 11.520 -0.648
  L 11.592 -0.792
  L 24.912 1.080
  C 24.912 1.296 25.056 1.512 25.056 1.584
  C 25.056 1.872 25.128 2.088 25.128 2.448
  L 10.872 0.504" stroke="none" fill="rgb(153,243,255)" />
<path d="
  M 11.592 -0.792
  L 12.384 -1.944
  L 24.624 -0.216
  C 24.624 -0.144 24.696 0.072 24.696 0.216
  C 24.840 0.504 24.840 0.720 24.912 1.080
  L 11.592 -0.792" stroke="none" fill="rgb(164,245,255)" />
<path d="
  M 12.384 -1.944
  L 13.248 -3.240
  L 24.264 -1.728
  C 24.408 -1.224 24.480 -0.792 24.624 -0.216
  L 12.384 -1.944" stroke="none" fill="rgb(174,248,255)" />
<path d="
  M 13.248 -3.240
  L 13.968 -4.320
  C 13.968 -4.320 13.968 -4.320 13.968 -4.392
  L 24.048 -3.024
  C 24.192 -2.592 24.264 -2.160 24.264 -1.728
  L 13.248 -3.240" stroke="none" fill="rgb(184,248,255)" />
<path d="
  M 13.968 -4.392
  C 14.184 -4.608 14.472 -5.040 14.904 -5.616
  L 23.544 -4.536
  C 23.760 -4.104 23.832 -3.528 23.976 -3.240
  C 23.976 -3.096 23.976 -3.096 24.048 -3.024
  L 13.968 -4.392" stroke="none" fill="rgb(194,248,255)" />
<path d="
  M 14.904 -5.616
  C 15.264 -6.048 15.552 -6.480 15.912 -6.840
  L 23.112 -5.904
  C 23.112 -5.904 23.112 -5.832 23.112 -5.832
  C 23.184 -5.400 23.400 -4.968 23.544 -4.536
  L 14.904 -5.616" stroke="none" fill="rgb(204,250,255)" />
<path d="
  M 15.912 -6.840
  C 16.200 -7.128 16.560 -7.560 16.992 -8.064
  L 22.536 -7.200
  C 22.752 -6.768 22.968 -6.264 23.112 -5.904
  L 15.912 -6.840" stroke="none" fill="rgb(215,253,255)" />
<path d="
  M 16.992 -8.064
  C 17.280 -8.424 17.640 -8.856 18.072 -9.288
  L 22.104 -8.712
  C 22.248 -8.280 22.392 -7.776 22.536 -7.200
  L 16.992 -8.064" stroke="none" fill="rgb(225,253,255)" />
<path d="
  M 18.072 -9.288
  C 18.360 -9.720 18.792 -10.152 19.080 -10.584
  L 21.456 -10.224
  L 21.888 -9.144
  C 21.888 -9.072 22.032 -8.928 22.104 -8.712
  L 18.072 -9.288" stroke="none" fill="rgb(235,253,255)" />
<path d="
  M 19.080 -10.584
  C 19.512 -11.088 19.872 -11.376 20.160 -11.808
  L 20.952 -11.736
  L 21.456 -10.224
  L 19.080 -10.584" stroke="none" fill="rgb(245,255,255)" />
<path d="
  M 20.160 -11.808
  C 20.376 -12.024 20.592 -12.168 20.736 -12.384
  L 20.952 -11.736
  L 20.160 -11.808" stroke="none" fill="rgb(255,255,255)" />
</g>
<path d="
  M 20.736 -12.384
  C 18.432 -9.936 14.472 -5.256 13.968 -4.320
  L 11.520 -0.648
  L 10.224 1.872
  C 9.792 3.096 8.928 4.824 9.144 6.192
  C 9.072 7.776 10.296 10.152 12.024 10.872
  C 13.968 11.736 16.560 12.384 18.792 12.384
  C 19.080 12.384 20.376 12.168 20.808 12.096
  C 25.704 10.872 25.560 5.112 25.056 1.584
  C 24.912 1.152 24.840 0.648 24.696 0.216
  C 24.480 -0.864 24.264 -2.160 23.976 -3.240
  C 23.760 -3.888 23.400 -4.968 23.112 -5.832
  C 22.896 -6.552 22.248 -8.280 21.888 -9.144
  L 20.736 -12.384" stroke="rgb(0,0,0)" stroke-width="0.504" fill="none" />
<g>
<path d="
  M 12.024 9.000
  C 12.168 9.000 12.384 9.072 12.456 9.216
  C 12.672 9.216 13.104 9.648 13.248 9.720
  C 15.264 10.440 17.928 11.016 20.088 10.584
  C 20.160 10.584 21.024 10.440 21.168 10.368
  C 21.168 10.368 21.240 10.368 21.240 10.368
  L 12.024 9.000" stroke="none" fill="rgb(131,255,255)" />
<path d="
  M 12.024 9.000
  C 11.520 8.568 11.304 8.136 11.088 7.776
  L 10.872 7.560
  C 10.872 7.560 10.872 7.560 10.872 7.560
  L 22.968 9.216
  C 22.536 9.648 21.816 10.152 21.240 10.368
  L 12.024 9.000" stroke="none" fill="rgb(138,255,255)" />
<path d="
  M 10.872 7.560
  C 10.728 7.344 10.512 6.840 10.512 6.480
  C 10.512 6.480 10.512 6.408 10.512 6.408
  L 23.544 8.208
  C 23.400 8.424 23.328 8.784 23.184 9.000
  C 23.184 9.072 23.112 9.072 22.968 9.216
  L 10.872 7.560" stroke="none" fill="rgb(146,255,255)" />
<path d="
  M 10.512 6.408
  C 10.440 6.048 10.440 5.688 10.440 5.112
  L 23.976 7.056
  C 23.832 7.488 23.760 7.776 23.544 8.208
  L 10.512 6.408" stroke="none" fill="rgb(153,255,255)" />
<path d="
  M 10.440 5.112
  C 10.440 4.824 10.512 4.392 10.656 4.032
  L 24.192 5.904
  C 24.048 6.264 24.048 6.696 23.976 7.056
  L 10.440 5.112" stroke="none" fill="rgb(159,255,255)" />
<path d="
  M 10.656 4.032
  C 10.656 3.600 10.728 3.168 10.872 2.880
  L 24.264 4.680
  C 24.264 5.112 24.264 5.544 24.192 5.904
  L 10.656 4.032" stroke="none" fill="rgb(166,255,255)" />
<path d="
  M 10.872 2.880
  C 10.944 2.448 11.088 2.088 11.160 1.872
  L 11.304 1.728
  L 24.408 3.528
  C 24.408 3.816 24.408 4.248 24.264 4.680
  L 10.872 2.880" stroke="none" fill="rgb(174,255,255)" />
<path d="
  M 11.304 1.728
  L 11.808 0.648
  L 24.264 2.232
  C 24.408 2.664 24.408 3.096 24.408 3.528
  L 11.304 1.728" stroke="none" fill="rgb(182,255,255)" />
<path d="
  M 11.808 0.648
  L 12.240 -0.432
  L 12.384 -0.576
  L 24.192 0.936
  C 24.264 1.368 24.264 1.800 24.264 2.232
  L 11.808 0.648" stroke="none" fill="rgb(187,255,255)" />
<path d="
  M 12.384 -0.576
  L 13.104 -1.656
  L 23.976 -0.144
  L 23.976 -0.000
  C 24.048 0.288 24.048 0.648 24.192 0.936
  L 12.384 -0.576" stroke="none" fill="rgb(194,255,255)" />
<path d="
  M 13.104 -1.656
  L 13.824 -2.664
  L 23.544 -1.440
  L 23.976 -0.144
  L 13.104 -1.656" stroke="none" fill="rgb(202,255,255)" />
<path d="
  M 13.824 -2.664
  L 14.616 -3.744
  L 23.112 -2.664
  L 23.544 -1.440
  L 13.824 -2.664" stroke="none" fill="rgb(207,255,255)" />
<path d="
  M 14.616 -3.744
  L 15.336 -4.752
  L 22.680 -3.888
  L 23.112 -2.664
  L 14.616 -3.744" stroke="none" fill="rgb(215,255,255)" />
<path d="
  M 15.336 -4.752
  L 16.128 -5.832
  L 22.320 -5.184
  L 22.680 -3.888
  L 15.336 -4.752" stroke="none" fill="rgb(222,255,255)" />
<path d="
  M 16.128 -5.832
  L 16.416 -6.264
  C 16.632 -6.480 16.848 -6.768 17.064 -6.984
  L 22.032 -6.480
  L 22.320 -5.184
  L 16.128 -5.832" stroke="none" fill="rgb(230,255,255)" />
<path d="
  M 17.064 -6.984
  C 17.424 -7.344 17.856 -7.776 18.072 -8.064
  L 21.600 -7.560
  L 22.032 -6.480
  L 17.064 -6.984" stroke="none" fill="rgb(235,255,255)" />
<path d="
  M 18.072 -8.064
  C 18.216 -8.280 18.432 -8.496 18.576 -8.640
  C 18.648 -8.712 18.864 -8.928 19.080 -9.144
  L 21.168 -8.856
  L 21.600 -7.560
  L 18.072 -8.064" stroke="none" fill="rgb(243,255,255)" />
<path d="
  M 19.080 -9.144
  C 19.296 -9.504 19.728 -9.792 20.088 -10.224
  C 20.088 -10.224 20.088 -10.368 20.160 -10.368
  L 20.736 -10.224
  L 21.168 -8.856
  L 19.080 -9.144" stroke="none" fill="rgb(250,255,255)" />
<path d="
  M 20.160 -10.368
  C 20.376 -10.872 20.520 -10.656 20.736 -10.224
  L 20.736 -10.224
  L 20.160 -10.368" stroke="none" fill="rgb(255,255,255)" />
</g>
<path d="
  M 20.088 -10.224
  C 19.440 -9.504 18.792 -8.928 18.576 -8.640
  C 18.072 -7.992 16.992 -6.912 16.416 -6.264
  L 12.240 -0.432
  L 11.160 1.872
  C 10.728 2.736 10.224 5.472 10.512 6.480
  C 10.512 6.840 10.728 7.344 10.872 7.560
  L 11.088 7.776
  C 11.304 8.208 11.592 8.640 12.456 9.216
  C 12.672 9.216 13.104 9.648 13.248 9.720
  C 15.264 10.440 17.928 11.016 20.088 10.584
  C 20.160 10.584 21.024 10.440 21.168 10.368
  C 21.672 10.296 22.968 9.288 23.184 9.000
  C 24.696 6.192 24.480 1.728 23.976 -0.000
  L 20.736 -10.224
  C 20.520 -10.656 20.376 -10.872 20.088 -10.224" stroke="rgb(0,0,0)" stroke-width="0.504" fill="none" />
<path d="
  M 20.592 7.704
  C 21.168 7.776 21.672 7.992 22.104 8.208
  C 22.104 8.640 20.952 9.288 20.304 9.432
  C 20.160 9.432 19.728 9.288 19.512 9.288
  C 18.792 9.216 18.144 8.856 17.928 8.208
  C 18.216 8.208 18.648 8.352 19.008 8.352
  C 19.080 8.352 19.440 8.208 19.512 8.208
  C 19.944 8.136 20.088 7.992 20.592 7.704" stroke="rgb(0,0,0)" stroke-width="0.504" fill="rgb(240,240,240)" />
<path d="
  M 23.184 3.528
  C 23.184 3.960 22.896 4.464 22.680 4.824
  L 22.104 6.264
  C 21.888 6.624 21.600 6.840 21.456 7.056
  C 21.888 7.272 22.392 7.344 22.896 7.344
  C 22.968 6.624 23.616 5.544 23.400 4.608
  C 23.328 4.248 23.184 3.960 23.184 3.528" stroke="rgb(0,0,0)" stroke-width="0.504" fill="rgb(240,240,240)" />
</g>
<g>
<g>
<path d="
  M -8.280 35.208
  C -6.696 35.568 -5.112 35.856 -3.456 36.000
  L -8.280 35.208" stroke="none" fill="rgb(62,233,255)" />
<path d="
  M -8.280 35.208
  C -10.440 34.776 -12.456 34.128 -14.184 33.408
  C -15.048 32.976 -15.912 32.400 -16.632 31.680
  L 4.248 34.704
  C 3.456 34.992 2.592 35.352 1.728 35.568
  C 1.008 35.784 -1.368 36.000 -2.016 36.000
  C -2.520 36.000 -3.096 36.000 -3.456 36.000
  L -8.280 35.208" stroke="none" fill="rgb(72,235,255)" />
<path d="
  M -16.632 31.680
  C -17.424 30.816 -18.072 29.880 -18.504 28.872
  L 6.912 32.544
  C 6.120 33.408 5.256 34.128 4.248 34.704
  L -16.632 31.680" stroke="none" fill="rgb(82,235,255)" />
<path d="
  M -18.504 28.872
  C -18.936 28.008 -19.224 27.072 -19.368 26.208
  L 8.424 30.168
  C 7.992 31.032 7.560 31.896 6.912 32.544
  L -18.504 28.872" stroke="none" fill="rgb(92,238,255)" />
<path d="
  M -19.368 26.208
  C -19.440 25.704 -19.440 25.128 -19.440 24.696
  C -19.584 24.408 -19.584 24.048 -19.584 23.760
  L 9.288 27.936
  C 9.072 28.656 8.712 29.520 8.424 30.168
  L -19.368 26.208" stroke="none" fill="rgb(102,238,255)" />
<path d="
  M -19.584 23.760
  C -19.584 23.040 -19.368 22.176 -19.152 21.384
  L 9.792 25.488
  C 9.648 26.352 9.504 27.072 9.288 27.936
  L -19.584 23.760" stroke="none" fill="rgb(113,240,255)" />
<path d="
  M -19.152 21.384
  C -18.936 20.664 -18.720 19.800 -18.360 19.008
  L 9.864 23.040
  C 9.864 23.832 9.864 24.624 9.792 25.488
  L -19.152 21.384" stroke="none" fill="rgb(123,240,255)" />
<path d="
  M -18.360 19.008
  C -18.072 18.288 -17.712 17.568 -17.496 16.920
  L -17.424 16.704
  L 9.864 20.520
  C 9.864 21.312 9.864 22.176 9.864 23.040
  L -18.360 19.008" stroke="none" fill="rgb(133,243,255)" />
<path d="
  M -17.424 16.704
  L -16.272 14.328
  L 9.648 18.000
  C 9.792 18.864 9.864 19.584 9.864 20.520
  L -17.424 16.704" stroke="none" fill="rgb(143,243,255)" />
<path d="
  M -16.272 14.328
  L -15.264 12.384
  L -15.048 11.952
  L 9.360 15.480
  C 9.360 15.840 9.504 16.128 9.504 16.488
  C 9.576 16.920 9.576 17.424 9.648 18.000
  L -16.272 14.328" stroke="none" fill="rgb(153,243,255)" />
<path d="
  M -15.048 11.952
  L -13.536 9.864
  L 8.856 13.032
  C 8.928 13.392 8.928 13.608 9.072 13.896
  C 9.144 14.328 9.288 14.832 9.360 15.480
  L -15.048 11.952" stroke="none" fill="rgb(164,245,255)" />
<path d="
  M -13.536 9.864
  L -12.096 7.560
  L 8.280 10.440
  C 8.496 11.304 8.640 12.168 8.856 13.032
  L -13.536 9.864" stroke="none" fill="rgb(174,248,255)" />
<path d="
  M -12.096 7.560
  L -10.800 5.688
  C -10.800 5.544 -10.656 5.544 -10.656 5.472
  L 7.632 7.920
  C 7.848 8.784 8.064 9.648 8.280 10.440
  L -12.096 7.560" stroke="none" fill="rgb(184,248,255)" />
<path d="
  M -10.656 5.472
  C -10.368 4.896 -9.720 4.176 -8.856 3.096
  L 6.768 5.328
  C 7.128 6.192 7.344 7.056 7.560 7.704
  C 7.560 7.776 7.560 7.776 7.632 7.920
  L -10.656 5.472" stroke="none" fill="rgb(194,248,255)" />
<path d="
  M -8.856 3.096
  C -8.424 2.448 -7.776 1.728 -7.128 0.936
  L 5.904 2.736
  C 5.904 2.736 6.048 2.880 6.048 2.952
  C 6.264 3.744 6.552 4.608 6.768 5.328
  L -8.856 3.096" stroke="none" fill="rgb(204,250,255)" />
<path d="
  M -7.128 0.936
  C -6.480 0.216 -5.832 -0.576 -5.184 -1.296
  L 5.112 0.072
  C 5.400 1.080 5.688 2.088 5.904 2.736
  L -7.128 0.936" stroke="none" fill="rgb(215,253,255)" />
<path d="
  M -5.184 -1.296
  C -4.680 -2.088 -4.032 -2.808 -3.312 -3.528
  L 4.104 -2.592
  C 4.320 -1.872 4.752 -0.864 5.112 0.072
  L -5.184 -1.296" stroke="none" fill="rgb(225,253,255)" />
<path d="
  M -3.312 -3.528
  C -2.664 -4.392 -2.016 -5.184 -1.368 -5.904
  L 3.168 -5.256
  L 3.816 -3.456
  C 3.888 -3.240 4.032 -2.880 4.104 -2.592
  L -3.312 -3.528" stroke="none" fill="rgb(235,253,255)" />
<path d="
  M -1.368 -5.904
  C -0.576 -6.696 0.072 -7.416 0.720 -8.064
  L 2.088 -7.848
  L 3.168 -5.256
  L -1.368 -5.904" stroke="none" fill="rgb(245,255,255)" />
<path d="
  M 0.720 -8.064
  C 1.008 -8.424 1.296 -8.712 1.656 -9.072
  L 2.088 -7.848
  L 0.720 -8.064" stroke="none" fill="rgb(255,255,255)" />
</g>
<path d="
  M 1.656 -9.072
  C -2.520 -4.824 -9.720 3.960 -10.800 5.688
  L -15.264 12.384
  L -17.496 16.920
  C -18.360 19.224 -19.872 22.248 -19.440 24.696
  C -19.656 27.720 -17.424 31.968 -14.184 33.408
  C -10.800 34.776 -6.048 36.000 -2.016 36.000
  C -1.368 36.000 1.008 35.784 1.728 35.568
  C 10.728 33.408 10.440 22.824 9.504 16.488
  C 9.360 15.696 9.144 14.544 9.072 13.896
  C 8.640 11.880 8.064 9.648 7.560 7.704
  C 7.128 6.408 6.552 4.608 6.048 2.952
  C 5.616 1.728 4.320 -1.944 3.816 -3.456
  L 1.656 -9.072" stroke="rgb(0,0,0)" stroke-width="0.504" fill="none" />
<g>
<path d="
  M -14.328 29.664
  C -13.968 29.880 -13.752 30.096 -13.464 30.312
  C -13.104 30.312 -12.240 31.032 -12.096 31.176
  C -8.424 32.544 -3.600 33.480 0.288 32.832
  C 0.504 32.832 2.160 32.400 2.376 32.400
  C 2.592 32.328 2.808 32.184 3.168 32.112
  L -14.328 29.664" stroke="none" fill="rgb(131,255,255)" />
<path d="
  M -14.328 29.664
  C -15.192 28.872 -15.624 28.368 -16.056 27.720
  L -16.344 27.288
  C -16.344 27.288 -16.344 27.216 -16.344 27.216
  L 5.616 30.384
  C 4.968 30.960 3.888 31.680 3.168 32.112
  L -14.328 29.664" stroke="none" fill="rgb(138,255,255)" />
<path d="
  M -16.344 27.216
  C -16.560 26.784 -16.848 25.920 -16.992 25.344
  C -16.992 25.272 -16.992 25.128 -17.064 25.056
  L 6.768 28.368
  C 6.552 28.872 6.336 29.304 6.120 29.736
  C 6.048 29.952 5.904 30.096 5.616 30.384
  L -16.344 27.216" stroke="none" fill="rgb(146,255,255)" />
<path d="
  M -17.064 25.056
  C -17.208 24.408 -17.208 23.544 -17.064 22.680
  L 7.560 26.208
  C 7.344 27.000 7.128 27.720 6.768 28.368
  L -17.064 25.056" stroke="none" fill="rgb(153,255,255)" />
<path d="
  M -17.064 22.680
  C -16.992 21.960 -16.848 21.168 -16.776 20.448
  L 7.992 24.048
  C 7.848 24.840 7.776 25.488 7.560 26.208
  L -17.064 22.680" stroke="none" fill="rgb(159,255,255)" />
<path d="
  M -16.776 20.448
  C -16.632 19.656 -16.416 18.936 -16.272 18.288
  L 8.208 21.960
  C 8.208 22.680 8.064 23.328 7.992 24.048
  L -16.776 20.448" stroke="none" fill="rgb(166,255,255)" />
<path d="
  M -16.272 18.288
  C -16.128 17.784 -15.912 17.352 -15.840 16.992
  L -15.480 16.344
  L 8.280 19.656
  C 8.280 20.448 8.280 21.168 8.208 21.960
  L -16.272 18.288" stroke="none" fill="rgb(174,255,255)" />
<path d="
  M -15.480 16.344
  L -14.400 14.256
  L 8.208 17.352
  C 8.280 18.072 8.280 18.936 8.280 19.656
  L -15.480 16.344" stroke="none" fill="rgb(182,255,255)" />
<path d="
  M -14.400 14.256
  L -13.752 12.816
  L -13.320 12.312
  L 7.992 15.048
  C 8.064 15.696 8.208 16.488 8.208 17.352
  L -14.400 14.256" stroke="none" fill="rgb(187,255,255)" />
<path d="
  M -13.320 12.312
  L -11.952 10.296
  L 7.344 13.032
  L 7.560 13.608
  C 7.632 14.040 7.848 14.472 7.992 15.048
  L -13.320 12.312" stroke="none" fill="rgb(194,255,255)" />
<path d="
  M -11.952 10.296
  L -10.584 8.208
  L 6.552 10.656
  L 7.344 13.032
  L -11.952 10.296" stroke="none" fill="rgb(202,255,255)" />
<path d="
  M -10.584 8.208
  L -9.144 6.264
  L 5.832 8.424
  L 6.552 10.656
  L -10.584 8.208" stroke="none" fill="rgb(207,255,255)" />
<path d="
  M -9.144 6.264
  L -7.776 4.248
  L 5.184 6.048
  L 5.832 8.424
  L -9.144 6.264" stroke="none" fill="rgb(215,255,255)" />
<path d="
  M -7.776 4.248
  L -6.408 2.304
  L 4.464 3.816
  L 5.184 6.048
  L -7.776 4.248" stroke="none" fill="rgb(222,255,255)" />
<path d="
  M -6.408 2.304
  L -6.264 2.232
  C -5.832 1.728 -5.328 0.936 -4.680 0.288
  L 3.672 1.512
  L 4.464 3.816
  L -6.408 2.304" stroke="none" fill="rgb(230,255,255)" />
<path d="
  M -4.680 0.288
  C -4.104 -0.360 -3.456 -1.080 -3.096 -1.656
  L 2.952 -0.792
  L 3.672 1.512
  L -4.680 0.288" stroke="none" fill="rgb(235,255,255)" />
<path d="
  M -3.096 -1.656
  C -2.736 -1.944 -2.664 -2.160 -2.448 -2.376
  C -2.232 -2.592 -1.800 -3.024 -1.368 -3.528
  L 2.160 -3.024
  L 2.952 -0.792
  L -3.096 -1.656" stroke="none" fill="rgb(243,255,255)" />
<path d="
  M -1.368 -3.528
  C -0.792 -4.104 -0.288 -4.608 0.288 -5.400
  C 0.288 -5.472 0.360 -5.616 0.360 -5.616
  L 1.440 -5.400
  L 2.160 -3.024
  L -1.368 -3.528" stroke="none" fill="rgb(250,255,255)" />
<path d="
  M 0.360 -5.616
  C 0.864 -6.336 1.224 -6.048 1.440 -5.400
  L 1.440 -5.400
  L 0.360 -5.616" stroke="none" fill="rgb(255,255,255)" />
</g>
<path d="
  M 0.288 -5.400
  C -0.792 -3.960 -2.016 -2.880 -2.448 -2.376
  C -3.312 -1.224 -5.328 0.864 -6.264 2.232
  L -13.752 12.816
  L -15.840 16.992
  C -16.560 18.648 -17.496 23.328 -16.992 25.344
  C -16.848 25.920 -16.560 26.856 -16.344 27.288
  L -16.056 27.720
  C -15.480 28.584 -14.976 29.232 -13.464 30.312
  C -13.104 30.312 -12.240 31.032 -12.096 31.176
  C -8.424 32.544 -3.600 33.480 0.288 32.832
  C 0.504 32.832 2.160 32.400 2.376 32.400
  C 3.240 32.112 5.832 30.528 6.120 29.736
  C 8.928 24.696 8.640 16.560 7.560 13.608
  L 1.440 -5.400
  C 1.224 -6.120 0.864 -6.480 0.288 -5.400" stroke="rgb(0,0,0)" stroke-width="0.504" fill="none" />
<path d="
  M 1.224 27.432
  C 2.376 27.720 3.384 28.008 4.032 28.368
  C 4.104 29.232 1.872 30.312 0.792 30.528
  C 0.576 30.600 -0.144 30.384 -0.576 30.528
  C -2.016 30.168 -3.168 29.664 -3.600 28.440
  C -2.952 28.584 -2.232 28.656 -1.584 28.584
  C -1.368 28.584 -0.792 28.440 -0.720 28.440
  C 0.144 28.224 0.360 28.008 1.224 27.432" stroke="rgb(0,0,0)" stroke-width="0.504" fill="rgb(240,240,240)" />
<path d="
  M 6.120 19.872
  C 6.120 20.736 5.688 21.600 5.256 22.392
  L 4.032 25.056
  C 3.816 25.560 3.168 25.920 2.808 26.352
  C 3.672 26.640 4.680 26.856 5.472 27.000
  C 5.832 25.488 6.984 23.544 6.552 21.960
  C 6.480 21.312 6.264 20.664 6.120 19.872" stroke="rgb(0,0,0)" stroke-width="0.504" fill="rgb(240,240,240)" />
</g>
</g>
</svg>
