<?xml version="1.0" encoding="ISO-8859-1"?><!DOCTYPE svg PUBLIC "-//W3C//DTD SVG 1.1//EN" "http://www.w3.org/Graphics/SVG/1.1/DTD/svg11.dtd"><svg version="1.1" baseProfile="full" width="100%" height="100%" viewBox="-47.880 -43.488 95.760 86.904" xmlns="http://www.w3.org/2000/svg" xmlns:xlink="http://www.w3.org/1999/xlink">
<g>
<g>
<g>
<path d="
  M 13.824 24.408
  C 17.208 25.488 20.880 26.136 24.192 26.136
  C 24.408 26.136 24.768 26.136 25.272 26.064
  L 13.824 24.408" stroke="none" fill="rgb(62,233,255)" />
<path d="
  M 13.824 24.408
  C 12.096 23.832 10.584 23.256 9.216 22.608
  C 8.064 22.032 6.984 21.168 6.120 20.160
  L 32.760 23.760
  C 31.608 24.552 30.312 25.128 28.944 25.488
  C 28.224 25.704 26.424 25.920 25.272 26.064
  L 13.824 24.408" stroke="none" fill="rgb(72,235,255)" />
<path d="
  M 6.120 20.160
  C 5.184 19.008 4.392 17.712 3.816 16.344
  L 35.640 20.880
  C 34.776 22.032 33.912 23.040 32.760 23.760
  L 6.120 20.160" stroke="none" fill="rgb(82,235,255)" />
<path d="
  M 3.816 16.344
  C 3.312 15.192 2.952 14.040 2.736 12.888
  L 37.368 17.712
  C 36.864 18.864 36.288 19.944 35.640 20.880
  L 3.816 16.344" stroke="none" fill="rgb(92,238,255)" />
<path d="
  M 2.736 12.888
  C 2.664 12.240 2.664 11.520 2.664 10.800
  C 2.520 10.368 2.520 9.936 2.520 9.432
  L 38.232 14.544
  C 38.016 15.552 37.800 16.704 37.368 17.712
  L 2.736 12.888" stroke="none" fill="rgb(102,238,255)" />
<path d="
  M 2.520 9.432
  C 2.664 8.424 2.736 7.344 2.952 6.336
  L 38.808 11.304
  C 38.736 12.312 38.520 13.464 38.232 14.544
  L 2.520 9.432" stroke="none" fill="rgb(113,240,255)" />
<path d="
  M 2.952 6.336
  C 3.312 5.184 3.672 4.176 4.032 3.024
  L 39.096 7.920
  C 39.096 9.000 38.952 10.152 38.808 11.304
  L 2.952 6.336" stroke="none" fill="rgb(123,240,255)" />
<path d="
  M 4.032 3.024
  C 4.392 1.944 4.680 1.008 5.040 0.144
  L 5.184 -0.216
  L 38.952 4.464
  C 39.096 5.616 39.096 6.768 39.096 7.920
  L 4.032 3.024" stroke="none" fill="rgb(133,243,255)" />
<path d="
  M 5.184 -0.216
  L 6.696 -3.312
  L 38.736 1.008
  C 38.808 2.160 38.952 3.312 38.952 4.464
  L 5.184 -0.216" stroke="none" fill="rgb(143,243,255)" />
<path d="
  M 6.696 -3.312
  L 7.920 -6.120
  L 8.136 -6.480
  L 38.160 -2.304
  C 38.232 -1.728 38.376 -1.008 38.520 -0.576
  C 38.592 -0.000 38.592 0.432 38.736 1.008
  L 6.696 -3.312" stroke="none" fill="rgb(153,243,255)" />
<path d="
  M 8.136 -6.480
  L 10.008 -9.576
  L 37.584 -5.616
  C 37.656 -5.040 37.800 -4.608 37.944 -4.032
  C 38.016 -3.600 38.016 -3.024 38.160 -2.304
  L 8.136 -6.480" stroke="none" fill="rgb(164,245,255)" />
<path d="
  M 10.008 -9.576
  L 11.880 -12.672
  L 36.864 -9.072
  C 37.080 -7.920 37.368 -6.768 37.584 -5.616
  L 10.008 -9.576" stroke="none" fill="rgb(174,248,255)" />
<path d="
  M 11.880 -12.672
  L 13.392 -15.264
  C 13.464 -15.336 13.608 -15.552 13.752 -15.840
  L 35.856 -12.672
  C 35.928 -12.600 35.928 -12.600 35.928 -12.456
  C 36.288 -11.448 36.504 -10.224 36.864 -9.072
  L 11.880 -12.672" stroke="none" fill="rgb(184,248,255)" />
<path d="
  M 13.752 -15.840
  C 14.184 -16.488 14.904 -17.568 15.912 -18.936
  L 34.920 -16.128
  C 35.280 -14.904 35.640 -13.608 35.856 -12.672
  L 13.752 -15.840" stroke="none" fill="rgb(194,248,255)" />
<path d="
  M 15.912 -18.936
  C 16.488 -19.872 17.208 -20.736 18.000 -21.816
  L 33.984 -19.584
  C 34.128 -19.296 34.128 -19.152 34.200 -18.936
  C 34.488 -18.000 34.704 -17.064 34.920 -16.128
  L 15.912 -18.936" stroke="none" fill="rgb(204,250,255)" />
<path d="
  M 18.000 -21.816
  C 18.648 -22.824 19.512 -23.904 20.304 -24.912
  L 32.832 -23.184
  C 33.336 -21.816 33.768 -20.520 33.984 -19.584
  L 18.000 -21.816" stroke="none" fill="rgb(215,253,255)" />
<path d="
  M 20.304 -24.912
  C 21.096 -25.920 21.816 -26.856 22.608 -27.936
  L 31.680 -26.640
  C 32.040 -25.704 32.400 -24.480 32.832 -23.184
  L 20.304 -24.912" stroke="none" fill="rgb(225,253,255)" />
<path d="
  M 22.608 -27.936
  C 23.400 -28.944 24.192 -29.952 24.984 -31.032
  L 30.456 -30.240
  L 31.320 -27.648
  C 31.464 -27.432 31.608 -27.072 31.680 -26.640
  L 22.608 -27.936" stroke="none" fill="rgb(235,253,255)" />
<path d="
  M 24.984 -31.032
  C 25.920 -32.184 26.712 -33.192 27.576 -34.128
  L 29.304 -33.768
  L 30.456 -30.240
  L 24.984 -31.032" stroke="none" fill="rgb(245,255,255)" />
<path d="
  M 27.576 -34.128
  C 27.864 -34.560 28.368 -35.064 28.728 -35.496
  L 29.304 -33.768
  L 27.576 -34.128" stroke="none" fill="rgb(255,255,255)" />
</g>
<path d="
  M 28.728 -35.496
  C 23.616 -29.520 14.616 -17.568 13.392 -15.264
  L 7.920 -6.120
  L 5.040 0.144
  C 4.032 3.240 2.160 7.272 2.664 10.800
  C 2.376 14.832 5.184 20.592 9.216 22.608
  C 13.392 24.552 19.152 26.136 24.192 26.136
  C 25.128 26.136 28.008 25.704 28.944 25.488
  C 39.960 22.608 39.672 8.064 38.520 -0.576
  C 38.232 -1.584 38.016 -3.096 37.944 -4.032
  C 37.368 -6.768 36.792 -9.936 35.928 -12.456
  C 35.496 -14.184 34.776 -16.704 34.200 -18.936
  C 33.624 -20.664 32.040 -25.632 31.320 -27.648
  L 28.728 -35.496" stroke="rgb(0,0,0)" stroke-width="0.504" fill="none" />
<g>
<path d="
  M 9.072 17.496
  C 9.432 17.712 9.792 18.000 10.152 18.288
  C 10.440 18.432 11.520 19.224 11.808 19.440
  C 16.344 21.456 22.248 22.680 27.072 21.744
  C 27.288 21.744 29.376 21.312 29.736 21.168
  C 29.952 21.096 30.456 20.880 31.032 20.520
  L 9.072 17.496" stroke="none" fill="rgb(131,255,255)" />
<path d="
  M 9.072 17.496
  C 7.920 16.488 7.488 15.768 6.912 14.832
  L 6.696 14.256
  C 6.696 14.256 6.696 14.256 6.696 14.256
  L 34.128 18.072
  C 33.408 18.792 32.040 19.800 31.032 20.520
  L 9.072 17.496" stroke="none" fill="rgb(138,255,255)" />
<path d="
  M 6.696 14.256
  C 6.336 13.608 5.832 12.312 5.760 11.664
  C 5.760 11.520 5.760 11.304 5.616 11.160
  L 35.352 15.192
  C 35.064 15.984 34.704 16.848 34.344 17.640
  C 34.344 17.712 34.200 17.856 34.128 18.072
  L 6.696 14.256" stroke="none" fill="rgb(146,255,255)" />
<path d="
  M 5.616 11.160
  C 5.544 10.368 5.544 9.360 5.616 8.208
  L 36.072 12.456
  C 35.928 13.392 35.640 14.256 35.352 15.192
  L 5.616 11.160" stroke="none" fill="rgb(153,255,255)" />
<path d="
  M 5.616 8.208
  C 5.760 7.272 5.832 6.336 5.976 5.400
  L 36.648 9.576
  C 36.504 10.512 36.288 11.376 36.072 12.456
  L 5.616 8.208" stroke="none" fill="rgb(159,255,255)" />
<path d="
  M 5.976 5.400
  C 6.192 4.248 6.336 3.312 6.552 2.448
  L 37.008 6.552
  C 36.864 7.488 36.792 8.496 36.648 9.576
  L 5.976 5.400" stroke="none" fill="rgb(166,255,255)" />
<path d="
  M 6.552 2.448
  C 6.768 1.512 6.984 0.792 7.272 0.216
  L 7.488 -0.432
  L 37.008 3.672
  C 37.008 4.608 37.008 5.544 37.008 6.552
  L 6.552 2.448" stroke="none" fill="rgb(174,255,255)" />
<path d="
  M 7.488 -0.432
  L 8.712 -3.240
  L 37.008 0.576
  C 37.008 1.584 37.008 2.520 37.008 3.672
  L 7.488 -0.432" stroke="none" fill="rgb(182,255,255)" />
<path d="
  M 8.712 -3.240
  L 9.792 -5.544
  L 10.008 -5.976
  L 36.648 -2.304
  C 36.792 -1.368 36.864 -0.432 37.008 0.576
  L 8.712 -3.240" stroke="none" fill="rgb(187,255,255)" />
<path d="
  M 10.008 -5.976
  L 11.736 -8.640
  L 35.928 -5.328
  L 36.216 -4.464
  C 36.288 -3.888 36.504 -3.096 36.648 -2.304
  L 10.008 -5.976" stroke="none" fill="rgb(194,255,255)" />
<path d="
  M 11.736 -8.640
  L 13.464 -11.448
  L 35.064 -8.496
  L 35.928 -5.328
  L 11.736 -8.640" stroke="none" fill="rgb(202,255,255)" />
<path d="
  M 13.464 -11.448
  L 15.192 -14.112
  L 34.128 -11.448
  L 35.064 -8.496
  L 13.464 -11.448" stroke="none" fill="rgb(207,255,255)" />
<path d="
  M 15.192 -14.112
  L 17.064 -16.992
  L 33.192 -14.688
  L 34.128 -11.448
  L 15.192 -14.112" stroke="none" fill="rgb(215,255,255)" />
<path d="
  M 17.064 -16.992
  L 18.792 -19.584
  L 32.256 -17.640
  L 33.192 -14.688
  L 17.064 -16.992" stroke="none" fill="rgb(222,255,255)" />
<path d="
  M 18.792 -19.584
  L 18.936 -19.872
  C 19.368 -20.520 20.088 -21.312 20.664 -22.248
  L 31.320 -20.736
  L 32.256 -17.640
  L 18.792 -19.584" stroke="none" fill="rgb(230,255,255)" />
<path d="
  M 20.664 -22.248
  C 21.456 -23.184 22.248 -24.120 22.824 -25.056
  L 30.456 -23.904
  L 31.320 -20.736
  L 20.664 -22.248" stroke="none" fill="rgb(235,255,255)" />
<path d="
  M 22.824 -25.056
  C 23.184 -25.344 23.544 -25.848 23.760 -26.208
  C 23.976 -26.496 24.408 -27.000 24.912 -27.576
  L 29.520 -26.856
  L 30.456 -23.904
  L 22.824 -25.056" stroke="none" fill="rgb(243,255,255)" />
<path d="
  M 24.912 -27.576
  C 25.560 -28.368 26.280 -29.304 27.072 -30.312
  C 27.072 -30.312 27.072 -30.312 27.072 -30.312
  L 28.584 -30.096
  L 29.520 -26.856
  L 24.912 -27.576" stroke="none" fill="rgb(250,255,255)" />
<path d="
  M 27.072 -30.312
  C 27.864 -31.680 28.224 -31.248 28.584 -30.240
  L 28.584 -30.096
  L 27.072 -30.312" stroke="none" fill="rgb(255,255,255)" />
</g>
<path d="
  M 27.072 -30.312
  C 25.704 -28.368 24.336 -27.000 23.760 -26.208
  C 22.608 -24.552 20.160 -21.672 18.936 -19.872
  L 9.792 -5.544
  L 7.272 0.216
  C 6.336 2.448 5.184 8.856 5.760 11.664
  C 5.832 12.312 6.336 13.608 6.696 14.256
  L 6.912 14.832
  C 7.560 15.984 8.280 16.848 10.152 18.288
  C 10.440 18.432 11.520 19.224 11.808 19.440
  C 16.344 21.456 22.248 22.680 27.072 21.744
  C 27.288 21.744 29.376 21.312 29.736 21.168
  C 30.744 20.880 33.912 18.576 34.344 17.640
  C 37.800 10.728 37.368 -0.360 36.216 -4.464
  L 28.584 -30.240
  C 28.224 -31.248 27.864 -31.680 27.072 -30.312" stroke="rgb(0,0,0)" stroke-width="0.504" fill="none" />
<path d="
  M 28.368 14.400
  C 29.736 14.832 30.888 15.192 31.680 15.768
  C 31.824 16.848 29.016 18.432 27.792 18.648
  C 27.432 18.792 26.496 18.576 26.064 18.576
  C 24.192 18.216 22.680 17.496 22.248 15.768
  C 23.040 15.912 23.976 16.128 24.768 15.984
  C 24.984 15.984 25.704 15.912 25.920 15.912
  C 27.000 15.552 27.216 15.336 28.368 14.400" stroke="rgb(0,0,0)" stroke-width="0.504" fill="rgb(240,240,240)" />
<path d="
  M 34.344 4.248
  C 34.344 5.400 33.768 6.552 33.336 7.488
  L 31.680 11.160
  C 31.320 11.880 30.672 12.456 30.312 13.032
  C 31.320 13.392 32.472 13.608 33.624 13.824
  C 33.984 11.736 35.352 9.216 34.920 7.056
  C 34.776 6.120 34.560 5.184 34.344 4.248" stroke="rgb(0,0,0)" stroke-width="0.504" fill="rgb(240,240,240)" />
</g>
<g>
<path d="
  M 18.648 6.192
  L 19.008 5.904
  L 18.576 5.328
  C 18.648 5.616 18.648 5.904 18.648 6.192" stroke="none" fill="rgb(182,255,255)" />
<path d="
  M 13.752 -10.008
  L 13.608 -10.944
  L 12.888 -10.944
  C 13.248 -10.656 13.464 -10.368 13.752 -10.008" stroke="none" fill="rgb(182,255,255)" />
<path d="
  M 6.696 -17.208
  L 6.696 -18.216
  L 5.184 -18.216
  C 5.616 -18.000 6.192 -17.640 6.696 -17.208" stroke="none" fill="rgb(182,255,255)" />
<path d="
  M -10.152 -22.824
  L -10.512 -23.040
  L -10.872 -22.824
  C -10.584 -22.824 -10.368 -22.824 -10.152 -22.824" stroke="none" fill="rgb(182,255,255)" />
<path d="
  M -25.704 -18.360
  L -27.864 -18.216
  L -27.864 -16.848
  C -27.216 -17.568 -26.424 -18.000 -25.704 -18.360" stroke="none" fill="rgb(182,255,255)" />
<path d="
  M -33.552 -11.232
  L -35.136 -11.304
  L -35.280 -8.856
  C -34.776 -9.648 -34.200 -10.440 -33.552 -11.232" stroke="none" fill="rgb(182,255,255)" />
<path d="
  M -39.384 5.400
  L -39.960 5.976
  L -39.528 6.552
  C -39.528 6.192 -39.528 5.904 -39.384 5.400" stroke="none" fill="rgb(182,255,255)" />
<path d="
  M -34.776 22.032
  L -34.776 23.256
  L -33.984 23.184
  C -34.344 22.824 -34.704 22.320 -34.776 22.032" stroke="none" fill="rgb(182,255,255)" />
<path d="
  M -28.008 29.232
  L -27.864 30.528
  L -26.424 30.528
  C -27.000 30.168 -27.576 29.808 -28.008 29.232" stroke="none" fill="rgb(182,255,255)" />
<path d="
  M -10.728 35.352
  L -10.512 35.568
  L -10.296 35.352
  C -10.368 35.352 -10.584 35.352 -10.728 35.352" stroke="none" fill="rgb(182,255,255)" />
<path d="
  M 5.976 30.312
  L 6.768 30.312
  L 6.768 29.736
  C 6.408 29.952 6.192 30.168 5.976 30.312" stroke="none" fill="rgb(182,255,255)" />
<path d="
  M 13.032 23.256
  L 13.968 23.256
  L 13.968 22.104
  C 13.752 22.464 13.464 22.824 13.032 23.256" stroke="none" fill="rgb(182,255,255)" />
<path d="
  M 18.648 6.192
  L 16.344 8.280
  C 16.704 6.480 16.632 4.464 16.272 2.520
  L 16.488 2.520
  L 18.576 5.328
  C 18.648 5.616 18.648 5.904 18.648 6.192" stroke="none" fill="rgb(187,255,255)" />
<path d="
  M 13.752 -10.008
  L 13.968 -7.632
  L 13.176 -6.768
  C 12.456 -8.280 11.520 -9.792 10.224 -10.944
  L 12.888 -10.944
  C 13.248 -10.656 13.464 -10.368 13.752 -10.008" stroke="none" fill="rgb(187,255,255)" />
<path d="
  M 6.696 -17.208
  L 6.696 -14.544
  C 5.256 -15.912 3.672 -16.992 1.944 -17.568
  L 2.736 -18.360
  L 5.184 -18.216
  C 5.616 -18.000 6.192 -17.640 6.696 -17.208" stroke="none" fill="rgb(187,255,255)" />
<path d="
  M -10.152 -22.824
  L -7.488 -20.736
  L -7.488 -20.448
  C -9.432 -20.736 -11.448 -20.736 -13.392 -20.448
  L -10.872 -22.824
  C -10.584 -22.824 -10.368 -22.824 -10.152 -22.824" stroke="none" fill="rgb(187,255,255)" />
<path d="
  M -25.704 -18.360
  L -23.400 -18.576
  L -22.464 -17.640
  C -24.408 -16.992 -26.280 -15.696 -27.792 -14.184
  L -27.864 -14.328
  L -27.864 -16.848
  C -27.216 -17.568 -26.424 -18.000 -25.704 -18.360" stroke="none" fill="rgb(187,255,255)" />
<path d="
  M -33.552 -11.232
  L -30.960 -10.944
  C -32.472 -9.576 -33.552 -7.848 -34.344 -6.120
  L -35.280 -7.056
  L -35.280 -8.856
  C -34.776 -9.648 -34.200 -10.440 -33.552 -11.232" stroke="none" fill="rgb(187,255,255)" />
<path d="
  M -39.384 5.400
  L -37.080 3.096
  C -37.440 5.040 -37.440 6.912 -37.224 8.856
  L -37.296 8.856
  L -39.528 6.552
  C -39.528 6.192 -39.528 5.904 -39.384 5.400" stroke="none" fill="rgb(187,255,255)" />
<path d="
  M -34.776 22.032
  L -34.920 19.440
  L -34.200 18.792
  C -33.624 20.304 -32.616 21.672 -31.464 23.040
  L -33.984 23.184
  C -34.344 22.824 -34.704 22.320 -34.776 22.032" stroke="none" fill="rgb(187,255,255)" />
<path d="
  M -28.008 29.232
  L -28.224 26.928
  L -27.864 26.640
  C -26.496 28.008 -24.912 29.160 -23.184 29.808
  L -23.832 30.528
  L -26.424 30.528
  C -27.000 30.168 -27.576 29.808 -28.008 29.232" stroke="none" fill="rgb(187,255,255)" />
<path d="
  M -10.728 35.352
  L -12.888 33.048
  C -11.088 33.264 -9.360 33.264 -7.488 32.904
  L -10.296 35.352
  C -10.368 35.352 -10.584 35.352 -10.728 35.352" stroke="none" fill="rgb(187,255,255)" />
<path d="
  M 5.976 30.312
  L 2.736 30.528
  L 2.160 29.952
  C 3.816 29.376 5.256 28.368 6.696 27.072
  L 6.768 29.736
  C 6.408 29.952 6.192 30.168 5.976 30.312" stroke="none" fill="rgb(187,255,255)" />
<path d="
  M 13.032 23.256
  L 10.584 23.184
  C 11.736 21.888 12.672 20.376 13.248 18.864
  L 13.824 19.440
  L 13.968 22.104
  C 13.752 22.464 13.464 22.824 13.032 23.256" stroke="none" fill="rgb(187,255,255)" />
<path d="
  M 16.272 2.520
  L 14.184 2.520
  C 14.544 4.608 14.616 6.768 14.328 8.856
  L 15.768 8.856
  L 16.344 8.280
  C 16.704 6.480 16.632 4.464 16.272 2.520" stroke="none" fill="rgb(192,255,255)" />
<path d="
  M 13.176 -6.768
  L 11.592 -5.328
  C 10.944 -6.912 9.864 -8.496 8.496 -9.936
  L 9.648 -10.944
  L 10.224 -10.944
  C 11.520 -9.792 12.456 -8.280 13.176 -6.768" stroke="none" fill="rgb(192,255,255)" />
<path d="
  M 6.696 -14.544
  L 6.696 -14.328
  L 5.256 -12.960
  C 3.888 -14.328 2.160 -15.336 0.432 -16.056
  L 1.944 -17.568
  C 3.672 -16.992 5.256 -15.912 6.696 -14.544" stroke="none" fill="rgb(192,255,255)" />
<path d="
  M -7.488 -20.448
  L -7.488 -18.432
  C -9.576 -18.792 -11.520 -18.720 -13.608 -18.360
  L -13.608 -20.160
  L -13.392 -20.448
  C -11.448 -20.736 -9.432 -20.736 -7.488 -20.448" stroke="none" fill="rgb(192,255,255)" />
<path d="
  M -22.464 -17.640
  L -20.952 -16.128
  C -22.968 -15.480 -24.768 -14.328 -26.280 -12.672
  L -27.792 -14.184
  C -26.280 -15.696 -24.408 -16.992 -22.464 -17.640" stroke="none" fill="rgb(192,255,255)" />
<path d="
  M -30.960 -10.944
  L -30.528 -10.944
  L -29.304 -9.792
  C -30.888 -8.280 -32.040 -6.480 -32.832 -4.608
  L -34.344 -6.120
  C -33.552 -7.848 -32.472 -9.576 -30.960 -10.944" stroke="none" fill="rgb(192,255,255)" />
<path d="
  M -37.080 3.096
  L -37.008 3.024
  L -34.992 3.024
  C -35.352 4.968 -35.496 6.912 -35.136 8.856
  L -37.224 8.856
  C -37.440 6.912 -37.440 5.040 -37.080 3.096" stroke="none" fill="rgb(192,255,255)" />
<path d="
  M -34.200 18.792
  L -32.688 17.136
  C -31.896 19.008 -30.888 20.736 -29.376 22.104
  L -30.168 22.896
  L -31.464 23.040
  C -32.616 21.672 -33.624 20.304 -34.200 18.792" stroke="none" fill="rgb(192,255,255)" />
<path d="
  M -27.864 26.640
  L -26.424 25.200
  C -24.984 26.640 -23.400 27.648 -21.672 28.368
  L -23.184 29.808
  C -24.912 29.160 -26.496 28.008 -27.864 26.640" stroke="none" fill="rgb(192,255,255)" />
<path d="
  M -12.888 33.048
  L -13.464 32.328
  L -13.464 30.888
  C -11.304 31.320 -9.144 31.320 -6.912 30.888
  L -6.912 32.472
  L -7.488 32.904
  C -9.360 33.264 -11.088 33.264 -12.888 33.048" stroke="none" fill="rgb(192,255,255)" />
<path d="
  M 2.160 29.952
  L 0.648 28.440
  C 2.376 27.792 4.104 26.712 5.544 25.200
  L 6.696 26.352
  L 6.696 27.072
  C 5.256 28.368 3.816 29.376 2.160 29.952" stroke="none" fill="rgb(192,255,255)" />
<path d="
  M 10.584 23.184
  L 9.648 23.184
  L 8.712 22.104
  C 10.152 20.736 11.160 19.008 11.808 17.280
  L 13.248 18.864
  C 12.672 20.376 11.736 21.888 10.584 23.184" stroke="none" fill="rgb(192,255,255)" />
<path d="
  M 14.184 2.520
  L 12.096 2.520
  C 12.456 4.752 12.600 6.768 12.240 8.856
  L 14.328 8.856
  C 14.616 6.768 14.544 4.608 14.184 2.520" stroke="none" fill="rgb(197,255,255)" />
<path d="
  M 11.592 -5.328
  L 10.152 -3.672
  C 9.432 -5.400 8.424 -7.128 6.984 -8.496
  L 8.496 -9.936
  C 9.864 -8.496 10.944 -6.912 11.592 -5.328" stroke="none" fill="rgb(197,255,255)" />
<path d="
  M 5.256 -12.960
  L 3.816 -11.448
  C 2.304 -12.816 0.648 -13.824 -1.080 -14.544
  L 0.432 -16.056
  C 2.160 -15.336 3.888 -14.328 5.256 -12.960" stroke="none" fill="rgb(197,255,255)" />
<path d="
  M -7.488 -18.432
  L -7.488 -16.272
  C -9.576 -16.704 -11.520 -16.632 -13.608 -16.272
  L -13.608 -18.360
  C -11.520 -18.720 -9.576 -18.792 -7.488 -18.432" stroke="none" fill="rgb(197,255,255)" />
<path d="
  M -20.952 -16.128
  L -19.512 -14.688
  C -21.456 -13.968 -23.256 -12.816 -24.912 -11.304
  L -26.280 -12.672
  C -24.768 -14.328 -22.968 -15.480 -20.952 -16.128" stroke="none" fill="rgb(197,255,255)" />
<path d="
  M -29.304 -9.792
  L -27.864 -8.280
  C -29.376 -6.768 -30.528 -4.968 -31.248 -3.096
  L -32.832 -4.608
  C -32.040 -6.480 -30.888 -8.280 -29.304 -9.792" stroke="none" fill="rgb(197,255,255)" />
<path d="
  M -34.992 3.024
  L -32.976 3.024
  C -33.264 4.968 -33.408 6.912 -33.048 8.856
  L -35.136 8.856
  C -35.496 6.912 -35.352 4.968 -34.992 3.024" stroke="none" fill="rgb(197,255,255)" />
<path d="
  M -32.688 17.136
  L -31.248 15.696
  C -30.528 17.424 -29.376 19.152 -28.008 20.736
  L -29.376 22.104
  C -30.888 20.736 -31.896 19.008 -32.688 17.136" stroke="none" fill="rgb(197,255,255)" />
<path d="
  M -26.424 25.200
  L -24.912 23.760
  C -23.544 25.128 -21.888 26.136 -20.160 26.856
  L -21.672 28.368
  C -23.400 27.648 -24.984 26.640 -26.424 25.200" stroke="none" fill="rgb(197,255,255)" />
<path d="
  M -13.464 30.888
  L -13.464 28.800
  C -11.304 29.232 -9.216 29.232 -7.056 28.800
  L -6.912 30.888
  C -9.144 31.320 -11.304 31.320 -13.464 30.888" stroke="none" fill="rgb(197,255,255)" />
<path d="
  M 0.648 28.440
  L -0.792 26.928
  C 0.936 26.280 2.664 25.200 4.104 23.832
  L 5.544 25.200
  C 4.104 26.712 2.376 27.792 0.648 28.440" stroke="none" fill="rgb(197,255,255)" />
<path d="
  M 8.712 22.104
  L 7.272 20.592
  C 8.640 19.152 9.648 17.496 10.368 15.696
  L 11.808 17.280
  C 11.160 19.008 10.152 20.736 8.712 22.104" stroke="none" fill="rgb(197,255,255)" />
<path d="
  M 12.096 2.520
  L 10.008 2.520
  C 10.440 4.608 10.584 6.768 10.152 8.856
  L 12.240 8.856
  C 12.600 6.768 12.456 4.752 12.096 2.520" stroke="none" fill="rgb(202,255,255)" />
<path d="
  M 10.152 -3.672
  L 8.640 -2.304
  C 7.920 -4.032 6.912 -5.616 5.544 -7.128
  L 6.984 -8.496
  C 8.424 -7.128 9.432 -5.400 10.152 -3.672" stroke="none" fill="rgb(202,255,255)" />
<path d="
  M 3.816 -11.448
  L 2.376 -10.152
  C 0.792 -11.304 -0.792 -12.384 -2.664 -13.032
  L -1.080 -14.544
  C 0.648 -13.824 2.304 -12.816 3.816 -11.448" stroke="none" fill="rgb(202,255,255)" />
<path d="
  M -7.488 -16.272
  L -7.488 -14.184
  C -9.576 -14.688 -11.520 -14.688 -13.464 -14.184
  L -13.608 -16.272
  C -11.520 -16.632 -9.576 -16.704 -7.488 -16.272" stroke="none" fill="rgb(202,255,255)" />
<path d="
  M -19.512 -14.688
  L -17.856 -13.032
  C -19.800 -12.384 -21.816 -11.304 -23.400 -9.936
  L -24.912 -11.304
  C -23.256 -12.816 -21.456 -13.968 -19.512 -14.688" stroke="none" fill="rgb(202,255,255)" />
<path d="
  M -27.864 -8.280
  L -26.424 -6.912
  C -27.864 -5.328 -28.944 -3.456 -29.736 -1.512
  L -31.248 -3.096
  C -30.528 -4.968 -29.376 -6.768 -27.864 -8.280" stroke="none" fill="rgb(202,255,255)" />
<path d="
  M -32.976 3.024
  L -30.888 3.096
  C -31.248 4.968 -31.320 6.912 -30.888 8.856
  L -33.048 8.856
  C -33.408 6.912 -33.264 4.968 -32.976 3.024" stroke="none" fill="rgb(202,255,255)" />
<path d="
  M -31.248 15.696
  L -29.736 14.040
  C -28.944 15.912 -27.864 17.640 -26.496 19.224
  L -28.008 20.736
  C -29.376 19.152 -30.528 17.424 -31.248 15.696" stroke="none" fill="rgb(202,255,255)" />
<path d="
  M -24.912 23.760
  L -23.544 22.320
  C -22.032 23.616 -20.376 24.624 -18.648 25.344
  L -20.160 26.856
  C -21.888 26.136 -23.544 25.128 -24.912 23.760" stroke="none" fill="rgb(202,255,255)" />
<path d="
  M -13.464 28.800
  L -13.464 26.712
  C -11.448 27.216 -9.216 27.216 -7.056 26.712
  L -7.056 28.800
  C -9.216 29.232 -11.304 29.232 -13.464 28.800" stroke="none" fill="rgb(202,255,255)" />
<path d="
  M -0.792 26.928
  L -2.304 25.488
  C -0.576 24.768 1.152 23.760 2.664 22.320
  L 4.104 23.832
  C 2.664 25.200 0.936 26.280 -0.792 26.928" stroke="none" fill="rgb(202,255,255)" />
<path d="
  M 7.272 20.592
  L 5.832 19.152
  C 7.128 17.640 8.136 15.912 8.856 14.184
  L 10.368 15.696
  C 9.648 17.496 8.640 19.152 7.272 20.592" stroke="none" fill="rgb(202,255,255)" />
<path d="
  M 10.008 2.520
  L 7.920 2.520
  C 8.280 4.752 8.424 6.768 8.064 8.856
  L 10.152 8.856
  C 10.584 6.768 10.440 4.608 10.008 2.520" stroke="none" fill="rgb(207,255,255)" />
<path d="
  M 8.640 -2.304
  L 6.912 -0.576
  C 6.336 -2.304 5.256 -4.032 3.888 -5.544
  L 5.544 -7.128
  C 6.912 -5.616 7.920 -4.032 8.640 -2.304" stroke="none" fill="rgb(207,255,255)" />
<path d="
  M 2.376 -10.152
  L 0.792 -8.496
  C -0.792 -9.936 -2.520 -10.728 -4.392 -11.304
  L -2.664 -13.032
  C -0.792 -12.384 0.792 -11.304 2.376 -10.152" stroke="none" fill="rgb(207,255,255)" />
<path d="
  M -7.488 -14.184
  L -7.488 -12.096
  C -9.576 -12.456 -11.520 -12.456 -13.464 -12.096
  L -13.464 -14.184
  C -11.520 -14.688 -9.576 -14.688 -7.488 -14.184" stroke="none" fill="rgb(207,255,255)" />
<path d="
  M -17.856 -13.032
  L -16.128 -11.304
  C -18.216 -10.728 -20.160 -9.792 -21.816 -8.280
  L -23.400 -9.936
  C -21.816 -11.304 -19.800 -12.384 -17.856 -13.032" stroke="none" fill="rgb(207,255,255)" />
<path d="
  M -26.424 -6.912
  L -24.912 -5.328
  C -26.424 -3.672 -27.432 -1.728 -28.008 0.216
  L -29.736 -1.512
  C -28.944 -3.456 -27.864 -5.328 -26.424 -6.912" stroke="none" fill="rgb(207,255,255)" />
<path d="
  M -30.888 3.096
  L -28.800 3.096
  C -29.016 5.040 -29.160 6.912 -28.800 8.856
  L -30.888 8.856
  C -31.320 6.912 -31.248 4.968 -30.888 3.096" stroke="none" fill="rgb(207,255,255)" />
<path d="
  M -29.736 14.040
  L -28.008 12.240
  C -27.432 14.184 -26.424 15.984 -24.912 17.640
  L -26.496 19.224
  C -27.864 17.640 -28.944 15.912 -29.736 14.040" stroke="none" fill="rgb(207,255,255)" />
<path d="
  M -23.544 22.320
  L -21.888 20.736
  C -20.376 22.104 -18.648 23.040 -16.920 23.616
  L -18.648 25.344
  C -20.376 24.624 -22.032 23.616 -23.544 22.320" stroke="none" fill="rgb(207,255,255)" />
<path d="
  M -13.464 26.712
  L -13.608 24.552
  C -11.448 24.984 -9.360 24.984 -7.128 24.552
  L -7.056 26.712
  C -9.216 27.216 -11.448 27.216 -13.464 26.712" stroke="none" fill="rgb(207,255,255)" />
<path d="
  M -2.304 25.488
  L -4.032 23.760
  C -2.232 23.184 -0.504 22.104 1.008 20.736
  L 2.664 22.320
  C 1.152 23.760 -0.576 24.768 -2.304 25.488" stroke="none" fill="rgb(207,255,255)" />
<path d="
  M 5.832 19.152
  L 4.248 17.496
  C 5.616 15.984 6.696 14.184 7.128 12.312
  L 8.856 14.184
  C 8.136 15.912 7.128 17.640 5.832 19.152" stroke="none" fill="rgb(207,255,255)" />
<path d="
  M 7.920 2.520
  L 5.760 2.520
  C 6.192 4.608 6.336 6.768 5.976 8.856
  L 8.064 8.856
  C 8.424 6.768 8.280 4.752 7.920 2.520" stroke="none" fill="rgb(215,255,255)" />
<path d="
  M 6.912 -0.576
  L 5.256 1.008
  C 4.824 -0.792 3.816 -2.664 2.376 -4.176
  L 3.888 -5.544
  C 5.256 -4.032 6.336 -2.304 6.912 -0.576" stroke="none" fill="rgb(215,255,255)" />
<path d="
  M 0.792 -8.496
  L -0.720 -7.128
  C -2.304 -8.424 -4.176 -9.360 -5.976 -9.648
  L -4.392 -11.304
  C -2.520 -10.728 -0.792 -9.936 0.792 -8.496" stroke="none" fill="rgb(215,255,255)" />
<path d="
  M -7.488 -12.096
  L -7.488 -10.008
  C -9.432 -10.440 -11.520 -10.440 -13.464 -10.008
  L -13.464 -12.096
  C -11.520 -12.456 -9.576 -12.456 -7.488 -12.096" stroke="none" fill="rgb(215,255,255)" />
<path d="
  M -16.128 -11.304
  L -14.544 -9.792
  C -16.632 -9.360 -18.648 -8.280 -20.376 -6.912
  L -21.816 -8.280
  C -20.160 -9.792 -18.216 -10.728 -16.128 -11.304" stroke="none" fill="rgb(215,255,255)" />
<path d="
  M -24.912 -5.328
  L -23.400 -3.888
  C -24.912 -2.160 -25.848 -0.216 -26.280 1.872
  L -28.008 0.216
  C -27.432 -1.728 -26.424 -3.672 -24.912 -5.328" stroke="none" fill="rgb(215,255,255)" />
<path d="
  M -28.800 3.096
  L -26.640 3.096
  C -27.072 5.040 -27.072 6.912 -26.712 8.856
  L -28.800 8.856
  C -29.160 6.912 -29.016 5.040 -28.800 3.096" stroke="none" fill="rgb(215,255,255)" />
<path d="
  M -28.008 12.240
  L -26.280 10.584
  C -25.848 12.528 -24.912 14.544 -23.544 16.272
  L -24.912 17.640
  C -26.424 15.984 -27.432 14.184 -28.008 12.240" stroke="none" fill="rgb(215,255,255)" />
<path d="
  M -21.888 20.736
  L -20.376 19.368
  C -18.936 20.592 -17.064 21.528 -15.336 22.032
  L -16.920 23.616
  C -18.648 23.040 -20.376 22.104 -21.888 20.736" stroke="none" fill="rgb(215,255,255)" />
<path d="
  M -13.608 24.552
  L -13.608 22.464
  C -11.448 22.896 -9.360 22.896 -7.128 22.464
  L -7.128 24.552
  C -9.360 24.984 -11.448 24.984 -13.608 24.552" stroke="none" fill="rgb(215,255,255)" />
<path d="
  M -4.032 23.760
  L -5.688 22.032
  C -3.816 21.528 -1.944 20.592 -0.360 19.368
  L 1.008 20.736
  C -0.504 22.104 -2.232 23.184 -4.032 23.760" stroke="none" fill="rgb(215,255,255)" />
<path d="
  M 4.248 17.496
  L 2.880 15.984
  C 4.104 14.400 5.040 12.528 5.544 10.584
  L 7.128 12.312
  C 6.696 14.184 5.616 15.984 4.248 17.496" stroke="none" fill="rgb(215,255,255)" />
<path d="
  M 5.760 2.520
  L 3.816 2.520
  L 5.256 1.008
  C 4.824 -0.792 3.816 -2.664 2.376 -4.176
  L 0.792 -2.664
  C 4.968 2.304 5.184 9.360 1.224 14.400
  L 2.880 15.984
  C 4.104 14.400 5.040 12.528 5.544 10.584
  L 3.888 8.856
  L 5.976 8.856
  C 6.336 6.768 6.192 4.608 5.760 2.520" stroke="none" fill="rgb(220,255,255)" />
<path d="
  M -0.720 -7.128
  L -2.304 -5.544
  C -7.272 -9.216 -13.968 -9.072 -18.792 -5.328
  L -20.376 -6.912
  C -18.648 -8.280 -16.632 -9.360 -14.544 -9.792
  L -13.464 -8.784
  L -13.464 -10.008
  C -11.520 -10.440 -9.432 -10.440 -7.488 -10.008
  L -7.488 -8.280
  L -5.976 -9.648
  C -4.176 -9.360 -2.304 -8.424 -0.720 -7.128" stroke="none" fill="rgb(220,255,255)" />
<path d="
  M -23.400 -3.888
  L -21.816 -2.304
  C -25.848 2.664 -25.848 9.648 -21.888 14.616
  L -23.544 16.272
  C -24.912 14.544 -25.848 12.528 -26.280 10.584
  L -24.696 8.856
  L -26.712 8.856
  C -27.072 6.912 -27.072 5.040 -26.640 3.096
  L -24.984 3.096
  L -26.280 1.872
  C -25.848 -0.216 -24.912 -2.160 -23.400 -3.888" stroke="none" fill="rgb(220,255,255)" />
<path d="
  M -20.376 19.368
  L -18.792 17.712
  C -13.824 21.672 -6.912 21.672 -1.944 17.712
  L -0.360 19.368
  C -1.944 20.592 -3.816 21.528 -5.688 22.032
  L -7.272 20.376
  L -7.128 22.464
  C -9.360 22.896 -11.448 22.896 -13.608 22.464
  L -13.608 20.304
  L -15.336 22.032
  C -17.064 21.528 -18.936 20.592 -20.376 19.368" stroke="none" fill="rgb(220,255,255)" />
<path d="
  M 0.792 -2.664
  L -0.720 -1.152
  C 2.736 2.880 2.880 8.640 -0.216 12.888
  L 1.224 14.400
  C 5.184 9.360 4.968 2.304 0.792 -2.664" stroke="none" fill="rgb(225,255,255)" />
<path d="
  M -2.304 -5.544
  L -3.816 -4.032
  C -7.992 -6.912 -13.248 -6.912 -17.280 -3.816
  L -18.792 -5.328
  C -13.968 -9.072 -7.272 -9.216 -2.304 -5.544" stroke="none" fill="rgb(225,255,255)" />
<path d="
  M -21.816 -2.304
  L -20.304 -0.792
  C -23.544 3.312 -23.544 9.000 -20.376 13.104
  L -21.888 14.616
  C -25.848 9.648 -25.848 2.664 -21.816 -2.304" stroke="none" fill="rgb(225,255,255)" />
<path d="
  M -18.792 17.712
  L -17.280 16.272
  C -13.176 19.368 -7.632 19.368 -3.456 16.272
  L -1.944 17.712
  C -6.912 21.672 -13.824 21.672 -18.792 17.712" stroke="none" fill="rgb(225,255,255)" />
<path d="
  M -0.720 -1.152
  L -2.232 0.216
  C 0.432 3.456 0.648 7.920 -1.656 11.376
  L -0.216 12.888
  C 2.880 8.640 2.736 2.880 -0.720 -1.152" stroke="none" fill="rgb(230,255,255)" />
<path d="
  M -3.816 -4.032
  L -5.328 -2.520
  C -8.568 -4.752 -12.672 -4.608 -15.768 -2.304
  L -17.280 -3.816
  C -13.248 -6.912 -7.992 -6.912 -3.816 -4.032" stroke="none" fill="rgb(230,255,255)" />
<path d="
  M -20.304 -0.792
  L -18.936 0.720
  C -21.312 4.032 -21.312 8.424 -18.936 11.664
  L -20.376 13.104
  C -23.544 9.000 -23.544 3.312 -20.304 -0.792" stroke="none" fill="rgb(230,255,255)" />
<path d="
  M -17.280 16.272
  L -15.768 14.832
  C -12.456 17.136 -8.208 17.136 -4.968 14.760
  L -3.456 16.272
  C -7.632 19.368 -13.176 19.368 -17.280 16.272" stroke="none" fill="rgb(230,255,255)" />
<path d="
  M -2.088 6.192
  C -2.088 1.728 -5.904 -2.088 -10.368 -2.088
  C -14.904 -2.088 -18.648 1.728 -18.648 6.192
  C -18.648 10.728 -14.904 14.544 -10.368 14.544
  C -5.904 14.544 -2.088 10.728 -2.088 6.192" stroke="none" fill="rgb(235,255,255)" />
<path d="
  M -2.232 0.216
  L -3.096 1.152
  L -5.688 -2.160
  L -5.328 -2.520
  C -8.568 -4.752 -12.672 -4.608 -15.768 -2.304
  L -15.336 -1.872
  L -18.576 1.008
  L -18.936 0.720
  C -21.312 4.032 -21.312 8.424 -18.936 11.664
  L -18.000 10.728
  L -14.976 14.040
  L -15.768 14.832
  C -12.456 17.136 -8.208 17.136 -4.968 14.760
  L -5.760 13.968
  L -2.448 10.584
  L -1.656 11.376
  C 0.648 7.920 0.432 3.456 -2.232 0.216" stroke="none" fill="rgb(235,255,255)" />
<path d="
  M -2.088 6.192
  C -2.088 1.728 -5.904 -2.088 -10.368 -2.088
  C -14.904 -2.088 -18.648 1.728 -18.648 6.192
  C -18.648 10.728 -14.904 14.544 -10.368 14.544
  C -5.904 14.544 -2.088 10.728 -2.088 6.192" stroke="none" fill="rgb(240,255,255)" />
<path d="
  M -4.176 6.192
  C -4.176 2.880 -7.056 -0.000 -10.368 -0.000
  C -13.752 -0.000 -16.632 2.880 -16.632 6.192
  C -16.632 9.576 -13.752 12.456 -10.368 12.456
  C -7.056 12.456 -4.176 9.576 -4.176 6.192" stroke="none" fill="rgb(240,255,255)" />
<path d="
  M -4.176 6.192
  C -4.176 2.880 -7.056 -0.000 -10.368 -0.000
  C -13.752 -0.000 -16.632 2.880 -16.632 6.192
  C -16.632 9.576 -13.752 12.456 -10.368 12.456
  C -7.056 12.456 -4.176 9.576 -4.176 6.192" stroke="none" fill="rgb(245,255,255)" />
<path d="
  M -6.264 6.192
  C -6.264 4.032 -8.208 2.088 -10.368 2.088
  C -12.600 2.088 -14.544 4.032 -14.544 6.192
  C -14.544 8.424 -12.600 10.368 -10.368 10.368
  C -8.208 10.368 -6.264 8.424 -6.264 6.192" stroke="none" fill="rgb(245,255,255)" />
<path d="
  M -6.264 6.192
  C -6.264 4.032 -8.208 2.088 -10.368 2.088
  C -12.600 2.088 -14.544 4.032 -14.544 6.192
  C -14.544 8.424 -12.600 10.368 -10.368 10.368
  C -8.208 10.368 -6.264 8.424 -6.264 6.192" stroke="none" fill="rgb(250,255,255)" />
<path d="
  M -8.280 6.192
  C -8.280 5.184 -9.360 4.176 -10.368 4.176
  C -11.448 4.176 -12.456 5.184 -12.456 6.192
  C -12.456 7.272 -11.448 8.280 -10.368 8.280
  C -9.360 8.280 -8.280 7.272 -8.280 6.192" stroke="none" fill="rgb(250,255,255)" />
<path d="
  M -8.280 6.192
  C -8.280 5.184 -9.360 4.176 -10.368 4.176
  C -11.448 4.176 -12.456 5.184 -12.456 6.192
  C -12.456 7.272 -11.448 8.280 -10.368 8.280
  C -9.360 8.280 -8.280 7.272 -8.280 6.192" stroke="none" fill="rgb(255,255,255)" />
</g>
<path d="
  M -7.488 -8.280
  L 2.736 -18.360
  L 6.696 -18.216
  L 6.696 -14.328
  L -5.688 -2.160
  L -3.096 1.152
  L 9.648 -10.944
  L 13.608 -10.944
  L 13.968 -7.632
  L 3.816 2.520
  L 16.488 2.520
  L 19.008 5.904
  L 15.768 8.856
  L 3.888 8.856
  L 13.824 19.440
  L 13.968 23.256
  L 9.648 23.184
  L -2.448 10.584
  L -5.760 13.968
  L 6.696 26.352
  L 6.768 30.312
  L 2.736 30.528
  L -7.272 20.376
  L -6.912 32.472
  L -10.512 35.568
  L -13.464 32.328
  L -13.608 20.304
  L -23.832 30.528
  L -27.864 30.528
  L -28.224 26.928
  L -14.976 14.040
  L -18.000 10.728
  L -30.168 22.896
  L -34.776 23.256
  L -34.920 19.440
  L -24.696 8.856
  L -37.296 8.856
  L -39.960 5.976
  L -37.008 3.024
  L -24.984 3.096
  L -35.280 -7.056
  L -35.136 -11.304
  L -30.528 -10.944
  L -18.576 1.008
  L -15.336 -1.872
  L -27.864 -14.328
  L -27.864 -18.216
  L -23.400 -18.576
  L -13.464 -8.784
  L -13.608 -20.160
  L -10.512 -23.040
  L -7.488 -20.736
  L -7.488 -8.280" stroke="rgb(0,0,0)" stroke-width="0.504" fill="none" />
</g>
</svg>
