<?xml version="1.0" encoding="ISO-8859-1"?><!DOCTYPE svg PUBLIC "-//W3C//DTD SVG 1.1//EN" "http://www.w3.org/Graphics/SVG/1.1/DTD/svg11.dtd"><svg version="1.1" baseProfile="full" width="100%" height="100%" viewBox="-25.416 -36.000 50.760 71.928" xmlns="http://www.w3.org/2000/svg" xmlns:xlink="http://www.w3.org/1999/xlink">
<g>
<g>
<path d="
  M -2.952 -25.272
  L -2.592 -24.840
  L -2.808 -24.624
  C -2.808 -24.840 -2.808 -25.056 -2.952 -25.272" stroke="none" fill="rgb(182,255,255)" />
<path d="
  M -4.536 -30.312
  L -4.680 -31.248
  L -5.256 -31.248
  C -4.896 -31.032 -4.536 -30.744 -4.536 -30.312" stroke="none" fill="rgb(182,255,255)" />
<path d="
  M -7.416 -33.336
  L -7.416 -34.056
  L -8.496 -34.056
  C -8.064 -34.056 -7.704 -33.768 -7.416 -33.336" stroke="none" fill="rgb(182,255,255)" />
<path d="
  M -13.608 -35.568
  L -13.896 -35.928
  L -14.256 -35.568
  C -14.040 -35.712 -13.824 -35.712 -13.608 -35.568" stroke="none" fill="rgb(182,255,255)" />
<path d="
  M -19.224 -34.200
  L -20.520 -34.056
  L -20.520 -33.336
  C -20.232 -33.768 -19.800 -34.056 -19.224 -34.200" stroke="none" fill="rgb(182,255,255)" />
<path d="
  M -22.464 -31.392
  L -23.328 -31.392
  L -23.328 -30.096
  C -23.256 -30.600 -23.040 -31.032 -22.464 -31.392" stroke="none" fill="rgb(182,255,255)" />
<path d="
  M -24.840 -25.056
  L -25.200 -24.768
  L -24.984 -24.408
  C -24.984 -24.624 -24.984 -24.840 -24.840 -25.056" stroke="none" fill="rgb(182,255,255)" />
<path d="
  M -23.256 -19.008
  L -23.256 -18.144
  L -22.680 -18.216
  C -23.040 -18.432 -23.256 -18.648 -23.256 -19.008" stroke="none" fill="rgb(182,255,255)" />
<path d="
  M -20.664 -16.056
  L -20.520 -15.408
  L -19.656 -15.408
  C -20.088 -15.408 -20.448 -15.624 -20.664 -16.056" stroke="none" fill="rgb(182,255,255)" />
<path d="
  M -14.040 -13.536
  L -13.896 -13.464
  L -13.824 -13.536
  C -13.824 -13.536 -13.896 -13.536 -14.040 -13.536" stroke="none" fill="rgb(182,255,255)" />
<path d="
  M -8.064 -15.552
  L -7.416 -15.552
  L -7.416 -15.984
  C -7.488 -15.624 -7.704 -15.408 -8.064 -15.552" stroke="none" fill="rgb(182,255,255)" />
<path d="
  M -5.112 -18.144
  L -4.536 -18.144
  L -4.680 -19.008
  C -4.536 -18.648 -4.752 -18.360 -5.112 -18.144" stroke="none" fill="rgb(182,255,255)" />
<path d="
  M -2.952 -25.272
  L -3.600 -26.064
  L -3.888 -26.064
  C -3.600 -25.272 -3.600 -24.408 -3.816 -23.688
  L -2.808 -24.624
  C -2.808 -24.840 -2.808 -25.056 -2.952 -25.272" stroke="none" fill="rgb(187,255,255)" />
<path d="
  M -4.536 -30.312
  L -4.536 -29.952
  L -4.968 -29.520
  C -5.256 -30.168 -5.544 -30.816 -6.192 -31.248
  L -6.192 -31.248
  L -5.256 -31.248
  C -4.896 -31.032 -4.536 -30.744 -4.536 -30.312" stroke="none" fill="rgb(187,255,255)" />
<path d="
  M -7.416 -33.336
  L -7.416 -32.544
  L -7.488 -32.472
  C -7.920 -33.120 -8.568 -33.552 -9.360 -33.624
  L -8.928 -34.056
  L -8.496 -34.056
  C -8.064 -34.056 -7.704 -33.768 -7.416 -33.336" stroke="none" fill="rgb(187,255,255)" />
<path d="
  M -13.608 -35.568
  L -12.816 -35.064
  L -12.816 -34.704
  C -13.608 -34.920 -14.328 -34.920 -15.120 -34.704
  L -15.120 -34.848
  L -14.256 -35.568
  C -14.040 -35.712 -13.824 -35.712 -13.608 -35.568" stroke="none" fill="rgb(187,255,255)" />
<path d="
  M -19.224 -34.200
  L -18.792 -34.200
  L -18.360 -33.768
  C -19.080 -33.552 -19.872 -33.120 -20.448 -32.472
  L -20.520 -32.544
  L -20.520 -33.336
  C -20.232 -33.768 -19.800 -34.056 -19.224 -34.200" stroke="none" fill="rgb(187,255,255)" />
<path d="
  M -22.464 -31.392
  L -21.600 -31.248
  C -22.248 -30.744 -22.680 -30.096 -22.896 -29.304
  L -23.328 -29.736
  L -23.328 -30.096
  C -23.256 -30.600 -23.040 -31.032 -22.464 -31.392" stroke="none" fill="rgb(187,255,255)" />
<path d="
  M -24.840 -25.056
  L -23.976 -25.920
  L -23.904 -25.920
  C -24.192 -25.200 -24.192 -24.408 -23.976 -23.688
  L -24.192 -23.688
  L -24.984 -24.408
  C -24.984 -24.624 -24.984 -24.840 -24.840 -25.056" stroke="none" fill="rgb(187,255,255)" />
<path d="
  M -23.256 -19.008
  L -23.256 -19.656
  L -22.896 -19.944
  C -22.824 -19.296 -22.392 -18.792 -21.816 -18.360
  L -22.680 -18.216
  C -23.040 -18.432 -23.256 -18.648 -23.256 -19.008" stroke="none" fill="rgb(187,255,255)" />
<path d="
  M -20.664 -16.056
  L -20.736 -16.848
  L -20.664 -16.920
  C -20.088 -16.272 -19.440 -15.840 -18.648 -15.768
  L -19.008 -15.408
  L -19.656 -15.408
  C -20.088 -15.408 -20.448 -15.624 -20.664 -16.056" stroke="none" fill="rgb(187,255,255)" />
<path d="
  M -14.040 -13.536
  L -14.976 -14.544
  C -14.256 -14.328 -13.464 -14.328 -12.744 -14.544
  L -13.824 -13.536
  C -13.824 -13.536 -13.896 -13.536 -14.040 -13.536" stroke="none" fill="rgb(187,255,255)" />
<path d="
  M -8.064 -15.552
  L -8.928 -15.408
  L -9.144 -15.624
  C -8.496 -15.840 -7.848 -16.272 -7.416 -16.848
  L -7.416 -15.984
  C -7.488 -15.624 -7.704 -15.408 -8.064 -15.552" stroke="none" fill="rgb(187,255,255)" />
<path d="
  M -5.112 -18.144
  L -6.120 -18.216
  C -5.472 -18.648 -5.112 -19.296 -4.896 -19.944
  L -4.680 -19.656
  L -4.680 -19.008
  C -4.536 -18.648 -4.752 -18.360 -5.112 -18.144" stroke="none" fill="rgb(187,255,255)" />
<path d="
  M -3.888 -26.064
  L -4.680 -26.064
  C -4.320 -25.272 -4.320 -24.408 -4.536 -23.688
  L -3.816 -23.688
  L -3.816 -23.688
  C -3.600 -24.408 -3.600 -25.272 -3.888 -26.064" stroke="none" fill="rgb(192,255,255)" />
<path d="
  M -4.968 -29.520
  L -5.544 -29.016
  C -5.760 -29.664 -6.192 -30.312 -6.768 -30.744
  L -6.192 -31.248
  C -5.544 -30.816 -5.256 -30.168 -4.968 -29.520" stroke="none" fill="rgb(192,255,255)" />
<path d="
  M -7.488 -32.472
  L -8.064 -31.896
  C -8.496 -32.544 -9.144 -32.976 -9.792 -33.192
  L -9.360 -33.624
  C -8.568 -33.552 -7.920 -33.120 -7.488 -32.472" stroke="none" fill="rgb(192,255,255)" />
<path d="
  M -12.816 -34.704
  L -12.816 -33.984
  C -13.608 -34.200 -14.328 -34.200 -15.120 -33.984
  L -15.120 -34.704
  C -14.328 -34.920 -13.608 -34.920 -12.816 -34.704" stroke="none" fill="rgb(192,255,255)" />
<path d="
  M -18.360 -33.768
  L -17.928 -33.192
  C -18.576 -32.976 -19.296 -32.544 -19.872 -31.896
  L -20.448 -32.472
  C -19.872 -33.120 -19.080 -33.552 -18.360 -33.768" stroke="none" fill="rgb(192,255,255)" />
<path d="
  M -21.600 -31.248
  L -21.600 -31.248
  L -21.096 -30.744
  C -21.744 -30.168 -22.176 -29.520 -22.392 -28.728
  L -22.896 -29.304
  C -22.680 -30.096 -22.248 -30.744 -21.600 -31.248" stroke="none" fill="rgb(192,255,255)" />
<path d="
  M -23.904 -25.920
  L -23.256 -25.920
  C -23.472 -25.200 -23.472 -24.408 -23.256 -23.688
  L -23.976 -23.688
  C -24.192 -24.408 -24.192 -25.200 -23.904 -25.920" stroke="none" fill="rgb(192,255,255)" />
<path d="
  M -22.896 -19.944
  L -22.392 -20.520
  C -22.176 -19.872 -21.816 -19.224 -21.168 -18.648
  L -21.528 -18.360
  L -21.816 -18.360
  C -22.392 -18.792 -22.824 -19.296 -22.896 -19.944" stroke="none" fill="rgb(192,255,255)" />
<path d="
  M -20.664 -16.920
  L -20.016 -17.496
  C -19.584 -16.920 -18.864 -16.488 -18.144 -16.272
  L -18.648 -15.768
  C -19.440 -15.840 -20.088 -16.272 -20.664 -16.920" stroke="none" fill="rgb(192,255,255)" />
<path d="
  M -14.976 -14.544
  L -15.120 -14.688
  L -15.120 -15.336
  C -14.256 -15.120 -13.464 -15.120 -12.600 -15.336
  L -12.600 -14.688
  L -12.744 -14.544
  C -13.464 -14.328 -14.256 -14.328 -14.976 -14.544" stroke="none" fill="rgb(192,255,255)" />
<path d="
  M -9.144 -15.624
  L -9.648 -16.200
  C -9.000 -16.416 -8.352 -16.848 -7.848 -17.496
  L -7.416 -17.064
  L -7.416 -16.848
  C -7.848 -16.272 -8.496 -15.840 -9.144 -15.624" stroke="none" fill="rgb(192,255,255)" />
<path d="
  M -6.120 -18.216
  L -6.192 -18.216
  L -6.624 -18.648
  C -6.120 -19.224 -5.688 -19.728 -5.472 -20.520
  L -4.896 -19.944
  C -5.112 -19.296 -5.472 -18.648 -6.120 -18.216" stroke="none" fill="rgb(192,255,255)" />
<path d="
  M -4.680 -26.064
  L -5.544 -26.064
  C -5.256 -25.272 -5.256 -24.408 -5.472 -23.688
  L -4.536 -23.688
  C -4.320 -24.408 -4.320 -25.272 -4.680 -26.064" stroke="none" fill="rgb(197,255,255)" />
<path d="
  M -5.544 -29.016
  L -6.120 -28.440
  C -6.408 -29.088 -6.768 -29.664 -7.272 -30.168
  L -6.768 -30.744
  C -6.192 -30.312 -5.760 -29.664 -5.544 -29.016" stroke="none" fill="rgb(197,255,255)" />
<path d="
  M -8.064 -31.896
  L -8.568 -31.392
  C -9.144 -31.896 -9.792 -32.328 -10.440 -32.544
  L -9.792 -33.192
  C -9.144 -32.976 -8.496 -32.544 -8.064 -31.896" stroke="none" fill="rgb(197,255,255)" />
<path d="
  M -12.816 -33.984
  L -12.816 -33.120
  C -13.608 -33.336 -14.328 -33.336 -15.120 -33.120
  L -15.120 -33.984
  C -14.328 -34.200 -13.608 -34.200 -12.816 -33.984" stroke="none" fill="rgb(197,255,255)" />
<path d="
  M -17.928 -33.192
  L -17.280 -32.688
  C -18.000 -32.328 -18.792 -31.896 -19.224 -31.248
  L -19.872 -31.896
  C -19.296 -32.544 -18.576 -32.976 -17.928 -33.192" stroke="none" fill="rgb(197,255,255)" />
<path d="
  M -21.096 -30.744
  L -20.448 -30.168
  C -21.096 -29.520 -21.528 -28.872 -21.816 -28.224
  L -22.392 -28.728
  C -22.176 -29.520 -21.744 -30.168 -21.096 -30.744" stroke="none" fill="rgb(197,255,255)" />
<path d="
  M -23.256 -25.920
  L -22.392 -25.920
  C -22.608 -25.200 -22.608 -24.408 -22.392 -23.688
  L -23.256 -23.688
  C -23.472 -24.408 -23.472 -25.200 -23.256 -25.920" stroke="none" fill="rgb(197,255,255)" />
<path d="
  M -22.392 -20.520
  L -21.816 -21.024
  C -21.528 -20.376 -21.168 -19.728 -20.520 -19.296
  L -21.168 -18.648
  C -21.816 -19.224 -22.176 -19.872 -22.392 -20.520" stroke="none" fill="rgb(197,255,255)" />
<path d="
  M -20.016 -17.496
  L -19.296 -18.144
  C -18.864 -17.496 -18.216 -17.136 -17.568 -16.848
  L -18.144 -16.272
  C -18.864 -16.488 -19.584 -16.920 -20.016 -17.496" stroke="none" fill="rgb(197,255,255)" />
<path d="
  M -15.120 -15.336
  L -15.120 -16.200
  C -14.328 -15.984 -13.464 -15.984 -12.600 -16.200
  L -12.600 -15.336
  C -13.464 -15.120 -14.256 -15.120 -15.120 -15.336" stroke="none" fill="rgb(197,255,255)" />
<path d="
  M -9.648 -16.200
  L -10.224 -16.848
  C -9.576 -17.064 -9.000 -17.496 -8.352 -18.000
  L -7.848 -17.496
  C -8.352 -16.848 -9.000 -16.416 -9.648 -16.200" stroke="none" fill="rgb(197,255,255)" />
<path d="
  M -6.624 -18.648
  L -7.200 -19.296
  C -6.624 -19.728 -6.336 -20.376 -5.976 -21.024
  L -5.472 -20.520
  C -5.688 -19.728 -6.120 -19.224 -6.624 -18.648" stroke="none" fill="rgb(197,255,255)" />
<path d="
  M -5.544 -26.064
  L -6.336 -26.064
  C -5.976 -25.272 -5.976 -24.408 -6.192 -23.688
  L -5.472 -23.688
  C -5.256 -24.408 -5.256 -25.272 -5.544 -26.064" stroke="none" fill="rgb(202,255,255)" />
<path d="
  M -6.120 -28.440
  L -6.768 -27.792
  C -6.984 -28.512 -7.272 -29.088 -7.848 -29.664
  L -7.272 -30.168
  C -6.768 -29.664 -6.408 -29.088 -6.120 -28.440" stroke="none" fill="rgb(202,255,255)" />
<path d="
  M -8.568 -31.392
  L -9.144 -30.816
  C -9.648 -31.392 -10.296 -31.824 -11.088 -31.896
  L -10.440 -32.544
  C -9.792 -32.328 -9.144 -31.896 -8.568 -31.392" stroke="none" fill="rgb(202,255,255)" />
<path d="
  M -12.816 -33.120
  L -12.816 -32.328
  C -13.608 -32.544 -14.328 -32.544 -15.120 -32.328
  L -15.120 -33.120
  C -14.328 -33.336 -13.608 -33.336 -12.816 -33.120" stroke="none" fill="rgb(202,255,255)" />
<path d="
  M -17.280 -32.688
  L -16.632 -32.040
  C -17.496 -31.824 -18.144 -31.392 -18.648 -30.744
  L -19.224 -31.248
  C -18.792 -31.896 -18.000 -32.328 -17.280 -32.688" stroke="none" fill="rgb(202,255,255)" />
<path d="
  M -20.448 -30.168
  L -19.872 -29.664
  C -20.520 -29.016 -20.952 -28.296 -21.168 -27.648
  L -21.816 -28.224
  C -21.528 -28.872 -21.096 -29.520 -20.448 -30.168" stroke="none" fill="rgb(202,255,255)" />
<path d="
  M -22.392 -25.920
  L -21.528 -25.920
  C -21.816 -25.200 -21.816 -24.408 -21.600 -23.688
  L -22.392 -23.688
  C -22.608 -24.408 -22.608 -25.200 -22.392 -25.920" stroke="none" fill="rgb(202,255,255)" />
<path d="
  M -21.816 -21.024
  L -21.168 -21.744
  C -20.952 -21.024 -20.664 -20.304 -20.016 -19.872
  L -20.520 -19.296
  C -21.168 -19.728 -21.528 -20.376 -21.816 -21.024" stroke="none" fill="rgb(202,255,255)" />
<path d="
  M -19.296 -18.144
  L -18.792 -18.648
  C -18.360 -18.000 -17.712 -17.712 -17.064 -17.352
  L -17.568 -16.848
  C -18.216 -17.136 -18.864 -17.496 -19.296 -18.144" stroke="none" fill="rgb(202,255,255)" />
<path d="
  M -15.120 -16.200
  L -15.120 -16.920
  C -14.328 -16.704 -13.464 -16.704 -12.600 -16.920
  L -12.600 -16.200
  C -13.464 -15.984 -14.328 -15.984 -15.120 -16.200" stroke="none" fill="rgb(202,255,255)" />
<path d="
  M -10.224 -16.848
  L -10.872 -17.352
  C -10.080 -17.568 -9.576 -18.000 -9.000 -18.648
  L -8.352 -18.000
  C -9.000 -17.496 -9.576 -17.064 -10.224 -16.848" stroke="none" fill="rgb(202,255,255)" />
<path d="
  M -7.200 -19.296
  L -7.848 -19.872
  C -7.200 -20.304 -6.840 -21.024 -6.624 -21.744
  L -5.976 -21.024
  C -6.336 -20.376 -6.624 -19.728 -7.200 -19.296" stroke="none" fill="rgb(202,255,255)" />
<path d="
  M -6.336 -26.064
  L -6.984 -26.064
  C -6.768 -25.272 -6.768 -24.408 -6.984 -23.688
  L -6.192 -23.688
  C -5.976 -24.408 -5.976 -25.272 -6.336 -26.064" stroke="none" fill="rgb(207,255,255)" />
<path d="
  M -6.768 -27.792
  L -7.272 -27.216
  C -7.488 -27.864 -7.848 -28.512 -8.352 -29.232
  L -7.848 -29.664
  C -7.272 -29.088 -6.984 -28.512 -6.768 -27.792" stroke="none" fill="rgb(207,255,255)" />
<path d="
  M -9.144 -30.816
  L -9.648 -30.312
  C -10.224 -30.816 -10.944 -31.248 -11.592 -31.392
  L -11.088 -31.896
  C -10.296 -31.824 -9.648 -31.392 -9.144 -30.816" stroke="none" fill="rgb(207,255,255)" />
<path d="
  M -12.816 -32.328
  L -12.816 -31.608
  C -13.608 -31.824 -14.328 -31.824 -15.120 -31.608
  L -15.120 -32.328
  C -14.328 -32.544 -13.608 -32.544 -12.816 -32.328" stroke="none" fill="rgb(207,255,255)" />
<path d="
  M -16.632 -32.040
  L -16.056 -31.392
  C -16.920 -31.176 -17.568 -30.816 -18.144 -30.168
  L -18.648 -30.744
  C -18.144 -31.392 -17.496 -31.824 -16.632 -32.040" stroke="none" fill="rgb(207,255,255)" />
<path d="
  M -19.872 -29.664
  L -19.296 -29.088
  C -20.016 -28.440 -20.448 -27.792 -20.664 -27.000
  L -21.168 -27.648
  C -20.952 -28.296 -20.520 -29.016 -19.872 -29.664" stroke="none" fill="rgb(207,255,255)" />
<path d="
  M -21.528 -25.920
  L -20.880 -25.920
  C -21.096 -25.200 -21.096 -24.408 -20.880 -23.688
  L -21.600 -23.688
  C -21.816 -24.408 -21.816 -25.200 -21.528 -25.920" stroke="none" fill="rgb(207,255,255)" />
<path d="
  M -21.168 -21.744
  L -20.664 -22.392
  C -20.448 -21.600 -20.088 -20.808 -19.440 -20.376
  L -20.016 -19.872
  C -20.664 -20.304 -20.952 -21.024 -21.168 -21.744" stroke="none" fill="rgb(207,255,255)" />
<path d="
  M -18.792 -18.648
  L -18.216 -19.224
  C -17.784 -18.576 -17.136 -18.216 -16.416 -18.000
  L -17.064 -17.352
  C -17.712 -17.712 -18.360 -18.000 -18.792 -18.648" stroke="none" fill="rgb(207,255,255)" />
<path d="
  M -15.120 -16.920
  L -15.120 -17.712
  C -14.328 -17.496 -13.464 -17.496 -12.744 -17.712
  L -12.600 -16.920
  C -13.464 -16.704 -14.328 -16.704 -15.120 -16.920" stroke="none" fill="rgb(207,255,255)" />
<path d="
  M -10.872 -17.352
  L -11.376 -17.928
  C -10.728 -18.144 -10.080 -18.576 -9.432 -19.080
  L -9.000 -18.648
  C -9.576 -18.000 -10.080 -17.568 -10.872 -17.352" stroke="none" fill="rgb(207,255,255)" />
<path d="
  M -7.848 -19.872
  L -8.280 -20.376
  C -7.704 -20.808 -7.416 -21.600 -7.200 -22.392
  L -6.624 -21.744
  C -6.840 -21.024 -7.200 -20.304 -7.848 -19.872" stroke="none" fill="rgb(207,255,255)" />
<path d="
  M -6.984 -26.064
  L -7.920 -26.064
  C -7.632 -25.272 -7.632 -24.408 -7.848 -23.688
  L -6.984 -23.688
  C -6.768 -24.408 -6.768 -25.272 -6.984 -26.064" stroke="none" fill="rgb(215,255,255)" />
<path d="
  M -7.272 -27.216
  L -8.064 -26.496
  C -8.136 -27.216 -8.496 -27.864 -9.000 -28.512
  L -8.352 -29.232
  C -7.848 -28.512 -7.488 -27.864 -7.272 -27.216" stroke="none" fill="rgb(215,255,255)" />
<path d="
  M -9.648 -30.312
  L -10.296 -29.664
  C -10.872 -30.312 -11.592 -30.600 -12.384 -30.600
  L -11.592 -31.392
  C -10.944 -31.248 -10.224 -30.816 -9.648 -30.312" stroke="none" fill="rgb(215,255,255)" />
<path d="
  M -12.816 -31.608
  L -12.816 -30.744
  C -13.608 -30.960 -14.328 -30.960 -15.120 -30.744
  L -15.120 -31.608
  C -14.328 -31.824 -13.608 -31.824 -12.816 -31.608" stroke="none" fill="rgb(215,255,255)" />
<path d="
  M -16.056 -31.392
  L -15.336 -30.600
  C -16.200 -30.600 -16.920 -30.312 -17.568 -29.664
  L -18.144 -30.168
  C -17.568 -30.816 -16.920 -31.176 -16.056 -31.392" stroke="none" fill="rgb(215,255,255)" />
<path d="
  M -19.296 -29.088
  L -18.792 -28.440
  C -19.296 -27.864 -19.800 -27.144 -19.872 -26.352
  L -20.664 -27.000
  C -20.448 -27.792 -20.016 -28.440 -19.296 -29.088" stroke="none" fill="rgb(215,255,255)" />
<path d="
  M -20.880 -25.920
  L -19.872 -25.920
  C -20.232 -25.200 -20.232 -24.408 -20.016 -23.688
  L -20.880 -23.688
  C -21.096 -24.408 -21.096 -25.200 -20.880 -25.920" stroke="none" fill="rgb(215,255,255)" />
<path d="
  M -20.664 -22.392
  L -19.872 -23.112
  C -19.872 -22.392 -19.440 -21.600 -18.864 -20.952
  L -19.440 -20.376
  C -20.088 -20.808 -20.448 -21.600 -20.664 -22.392" stroke="none" fill="rgb(215,255,255)" />
<path d="
  M -18.216 -19.224
  L -17.712 -19.728
  C -17.064 -19.224 -16.416 -18.792 -15.624 -18.792
  L -16.416 -18.000
  C -17.136 -18.216 -17.784 -18.576 -18.216 -19.224" stroke="none" fill="rgb(215,255,255)" />
<path d="
  M -15.120 -17.712
  L -15.120 -18.576
  C -14.328 -18.360 -13.464 -18.360 -12.744 -18.576
  L -12.744 -17.712
  C -13.464 -17.496 -14.328 -17.496 -15.120 -17.712" stroke="none" fill="rgb(215,255,255)" />
<path d="
  M -11.376 -17.928
  L -12.168 -18.792
  C -11.376 -18.792 -10.656 -19.224 -10.080 -19.728
  L -9.432 -19.080
  C -10.080 -18.576 -10.728 -18.144 -11.376 -17.928" stroke="none" fill="rgb(215,255,255)" />
<path d="
  M -8.280 -20.376
  L -8.928 -21.024
  C -8.280 -21.600 -7.920 -22.392 -7.920 -23.256
  L -7.200 -22.392
  C -7.416 -21.600 -7.704 -20.808 -8.280 -20.376" stroke="none" fill="rgb(215,255,255)" />
<path d="
  M -7.920 -26.064
  L -8.496 -26.064
  L -8.064 -26.496
  C -8.136 -27.216 -8.496 -27.864 -9.000 -28.512
  L -9.576 -28.008
  C -8.064 -26.136 -7.920 -23.472 -9.432 -21.600
  L -8.928 -21.024
  C -8.280 -21.600 -7.920 -22.392 -7.920 -23.256
  L -8.352 -23.688
  L -7.848 -23.688
  C -7.632 -24.408 -7.632 -25.272 -7.920 -26.064" stroke="none" fill="rgb(220,255,255)" />
<path d="
  M -10.296 -29.664
  L -10.872 -29.088
  C -12.744 -30.528 -15.192 -30.528 -17.064 -29.088
  L -17.568 -29.664
  C -16.920 -30.312 -16.200 -30.600 -15.336 -30.600
  L -15.120 -30.384
  L -15.120 -30.744
  C -14.328 -30.960 -13.608 -30.960 -12.816 -30.744
  L -12.816 -30.168
  L -12.384 -30.600
  C -11.592 -30.600 -10.872 -30.312 -10.296 -29.664" stroke="none" fill="rgb(220,255,255)" />
<path d="
  M -18.792 -28.440
  L -18.216 -28.008
  C -19.800 -26.064 -19.800 -23.472 -18.360 -21.456
  L -18.864 -20.952
  C -20.016 -22.392 -20.448 -24.192 -19.872 -25.920
  L -19.440 -25.920
  L -19.872 -26.352
  C -19.800 -27.144 -19.296 -27.864 -18.792 -28.440" stroke="none" fill="rgb(220,255,255)" />
<path d="
  M -17.712 -19.728
  L -17.136 -20.304
  C -15.192 -18.792 -12.600 -18.792 -10.656 -20.304
  L -10.080 -19.728
  C -12.312 -17.928 -15.408 -17.928 -17.712 -19.728" stroke="none" fill="rgb(220,255,255)" />
<path d="
  M -9.576 -28.008
  L -10.224 -27.432
  C -8.928 -25.920 -8.784 -23.760 -10.008 -22.032
  L -9.432 -21.600
  C -7.920 -23.472 -8.064 -26.136 -9.576 -28.008" stroke="none" fill="rgb(225,255,255)" />
<path d="
  M -10.872 -29.088
  L -11.376 -28.512
  C -12.960 -29.664 -14.976 -29.664 -16.488 -28.512
  L -17.064 -29.088
  C -15.192 -30.528 -12.744 -30.528 -10.872 -29.088" stroke="none" fill="rgb(225,255,255)" />
<path d="
  M -18.216 -28.008
  L -17.712 -27.360
  C -18.864 -25.848 -19.008 -23.688 -17.712 -22.032
  L -18.360 -21.456
  C -19.800 -23.472 -19.800 -26.064 -18.216 -28.008" stroke="none" fill="rgb(225,255,255)" />
<path d="
  M -17.136 -20.304
  L -16.632 -20.808
  C -14.976 -19.512 -12.816 -19.512 -11.160 -20.808
  L -10.656 -20.304
  C -12.600 -18.792 -15.192 -18.792 -17.136 -20.304" stroke="none" fill="rgb(225,255,255)" />
<path d="
  M -10.224 -27.432
  L -10.872 -26.784
  C -9.864 -25.632 -9.792 -23.976 -10.656 -22.680
  L -10.008 -22.032
  C -8.784 -23.760 -8.928 -25.920 -10.224 -27.432" stroke="none" fill="rgb(230,255,255)" />
<path d="
  M -11.376 -28.512
  L -12.024 -27.864
  C -13.176 -28.728 -14.688 -28.728 -15.840 -27.864
  L -16.488 -28.512
  C -14.976 -29.664 -12.960 -29.664 -11.376 -28.512" stroke="none" fill="rgb(230,255,255)" />
<path d="
  M -17.712 -27.360
  L -17.064 -26.784
  C -18.000 -25.632 -18.000 -23.904 -17.136 -22.608
  L -17.712 -22.032
  C -19.008 -23.688 -18.864 -25.848 -17.712 -27.360" stroke="none" fill="rgb(230,255,255)" />
<path d="
  M -16.632 -20.808
  L -15.984 -21.384
  C -14.688 -20.520 -13.032 -20.520 -11.808 -21.456
  L -11.160 -20.808
  C -12.816 -19.512 -14.976 -19.512 -16.632 -20.808" stroke="none" fill="rgb(230,255,255)" />
<path d="
  M -10.728 -24.624
  C -10.728 -26.352 -12.168 -27.792 -13.896 -27.792
  C -15.624 -27.792 -17.064 -26.352 -17.064 -24.624
  C -17.064 -22.896 -15.624 -21.456 -13.896 -21.456
  C -12.168 -21.456 -10.728 -22.896 -10.728 -24.624" stroke="none" fill="rgb(235,255,255)" />
<path d="
  M -10.872 -26.784
  L -11.088 -26.568
  L -12.024 -27.864
  L -12.024 -27.864
  C -13.176 -28.728 -14.688 -28.728 -15.840 -27.864
  L -15.768 -27.792
  L -16.920 -26.712
  L -17.064 -26.784
  C -18.000 -25.632 -18.000 -23.904 -17.136 -22.608
  L -16.704 -23.040
  L -15.624 -21.744
  L -15.984 -21.384
  C -14.688 -20.520 -13.032 -20.520 -11.808 -21.456
  L -12.168 -21.816
  L -10.872 -23.040
  L -10.656 -22.680
  C -9.792 -23.976 -9.864 -25.632 -10.872 -26.784" stroke="none" fill="rgb(235,255,255)" />
<path d="
  M -10.728 -24.624
  C -10.728 -26.352 -12.168 -27.792 -13.896 -27.792
  C -15.624 -27.792 -17.064 -26.352 -17.064 -24.624
  C -17.064 -22.896 -15.624 -21.456 -13.896 -21.456
  C -12.168 -21.456 -10.728 -22.896 -10.728 -24.624" stroke="none" fill="rgb(240,255,255)" />
<path d="
  M -11.520 -24.624
  C -11.520 -25.920 -12.600 -27.000 -13.896 -27.000
  C -15.192 -27.000 -16.272 -25.920 -16.272 -24.624
  C -16.272 -23.328 -15.192 -22.248 -13.896 -22.248
  C -12.600 -22.248 -11.520 -23.328 -11.520 -24.624" stroke="none" fill="rgb(240,255,255)" />
<path d="
  M -11.520 -24.624
  C -11.520 -25.920 -12.600 -27.000 -13.896 -27.000
  C -15.192 -27.000 -16.272 -25.920 -16.272 -24.624
  C -16.272 -23.328 -15.192 -22.248 -13.896 -22.248
  C -12.600 -22.248 -11.520 -23.328 -11.520 -24.624" stroke="none" fill="rgb(245,255,255)" />
<path d="
  M -12.384 -24.624
  C -12.384 -25.416 -13.176 -26.136 -13.896 -26.136
  C -14.688 -26.136 -15.408 -25.416 -15.408 -24.624
  C -15.408 -23.904 -14.688 -23.112 -13.896 -23.112
  C -13.176 -23.112 -12.384 -23.904 -12.384 -24.624" stroke="none" fill="rgb(245,255,255)" />
<path d="
  M -12.384 -24.624
  C -12.384 -25.416 -13.176 -26.136 -13.896 -26.136
  C -14.688 -26.136 -15.408 -25.416 -15.408 -24.624
  C -15.408 -23.904 -14.688 -23.112 -13.896 -23.112
  C -13.176 -23.112 -12.384 -23.904 -12.384 -24.624" stroke="none" fill="rgb(250,255,255)" />
<path d="
  M -13.176 -24.624
  C -13.176 -24.984 -13.608 -25.416 -13.896 -25.416
  C -14.256 -25.416 -14.688 -24.984 -14.688 -24.624
  C -14.688 -24.336 -14.256 -23.904 -13.896 -23.904
  C -13.608 -23.904 -13.176 -24.336 -13.176 -24.624" stroke="none" fill="rgb(250,255,255)" />
<path d="
  M -13.176 -24.624
  C -13.176 -24.984 -13.608 -25.416 -13.896 -25.416
  C -14.256 -25.416 -14.688 -24.984 -14.688 -24.624
  C -14.688 -24.336 -14.256 -23.904 -13.896 -23.904
  C -13.608 -23.904 -13.176 -24.336 -13.176 -24.624" stroke="none" fill="rgb(255,255,255)" />
</g>
<path d="
  M -12.816 -30.168
  L -8.928 -34.056
  L -7.416 -34.056
  L -7.416 -32.544
  L -12.024 -27.864
  L -11.088 -26.568
  L -6.192 -31.248
  L -4.680 -31.248
  L -4.536 -29.952
  L -8.496 -26.064
  L -3.600 -26.064
  L -2.592 -24.840
  L -3.816 -23.688
  L -8.352 -23.688
  L -4.680 -19.656
  L -4.536 -18.144
  L -6.192 -18.216
  L -10.872 -23.040
  L -12.168 -21.816
  L -7.416 -17.064
  L -7.416 -15.552
  L -8.928 -15.408
  L -12.744 -19.296
  L -12.600 -14.688
  L -13.896 -13.464
  L -15.120 -14.688
  L -15.120 -19.296
  L -19.008 -15.408
  L -20.520 -15.408
  L -20.736 -16.848
  L -15.624 -21.744
  L -16.704 -23.040
  L -21.528 -18.360
  L -23.256 -18.144
  L -23.256 -19.656
  L -19.296 -23.688
  L -24.192 -23.688
  L -25.200 -24.768
  L -23.976 -25.920
  L -19.440 -25.920
  L -23.328 -29.736
  L -23.328 -31.392
  L -21.600 -31.248
  L -16.920 -26.712
  L -15.768 -27.792
  L -20.520 -32.544
  L -20.520 -34.056
  L -18.792 -34.200
  L -15.120 -30.384
  L -15.120 -34.848
  L -13.896 -35.928
  L -12.816 -35.064
  L -12.816 -30.168" stroke="rgb(0,0,0)" stroke-width="0.504" fill="none" />
<g>
<path d="
  M 25.128 -24.768
  L 25.344 -24.984
  L 24.984 -25.416
  C 25.128 -25.200 25.128 -24.984 25.128 -24.768" stroke="none" fill="rgb(182,255,255)" />
<path d="
  M 20.592 -33.408
  L 20.592 -34.200
  L 19.512 -34.200
  C 19.944 -34.200 20.304 -33.840 20.592 -33.408" stroke="none" fill="rgb(182,255,255)" />
<path d="
  M 14.184 -35.784
  L 13.968 -35.928
  L 13.752 -35.712
  C 13.896 -35.784 13.968 -35.784 14.184 -35.784" stroke="none" fill="rgb(182,255,255)" />
<path d="
  M 8.784 -34.272
  L 7.344 -34.200
  L 7.344 -33.336
  C 7.776 -33.840 8.208 -34.200 8.784 -34.272" stroke="none" fill="rgb(182,255,255)" />
<path d="
  M 5.544 -31.464
  L 4.680 -31.464
  L 4.536 -30.096
  C 4.680 -30.600 4.968 -31.032 5.544 -31.464" stroke="none" fill="rgb(182,255,255)" />
<path d="
  M 3.168 -25.200
  L 2.808 -24.840
  L 3.024 -24.552
  C 3.024 -24.768 3.024 -24.984 3.168 -25.200" stroke="none" fill="rgb(182,255,255)" />
<path d="
  M 4.752 -19.080
  L 4.752 -18.216
  L 5.328 -18.360
  C 4.968 -18.576 4.752 -18.792 4.752 -19.080" stroke="none" fill="rgb(182,255,255)" />
<path d="
  M 7.272 -16.200
  L 7.344 -15.552
  L 8.352 -15.552
  C 7.920 -15.552 7.560 -15.840 7.272 -16.200" stroke="none" fill="rgb(182,255,255)" />
<path d="
  M 13.896 -13.680
  L 13.968 -13.536
  L 14.112 -13.680
  C 13.968 -13.680 13.968 -13.680 13.896 -13.680" stroke="none" fill="rgb(182,255,255)" />
<path d="
  M 19.944 -15.624
  L 20.592 -15.624
  L 20.592 -16.056
  C 20.520 -15.768 20.304 -15.552 19.944 -15.624" stroke="none" fill="rgb(182,255,255)" />
<path d="
  M 22.752 -18.216
  L 23.400 -18.216
  L 23.328 -19.080
  C 23.400 -18.792 23.184 -18.432 22.752 -18.216" stroke="none" fill="rgb(182,255,255)" />
<path d="
  M 25.128 -24.768
  L 24.048 -23.760
  C 24.264 -24.552 24.264 -25.416 23.904 -26.136
  L 24.336 -26.136
  L 24.984 -25.416
  C 25.128 -25.200 25.128 -24.984 25.128 -24.768" stroke="none" fill="rgb(187,255,255)" />
<path d="
  M 20.592 -33.408
  L 20.592 -32.688
  L 20.376 -32.472
  C 19.944 -33.120 19.296 -33.552 18.576 -33.624
  L 19.080 -34.200
  L 19.512 -34.200
  C 19.944 -34.200 20.304 -33.840 20.592 -33.408" stroke="none" fill="rgb(187,255,255)" />
<path d="
  M 14.184 -35.784
  L 15.192 -35.064
  L 15.192 -34.704
  C 14.400 -34.920 13.536 -34.920 12.816 -34.632
  L 12.816 -34.920
  L 13.752 -35.712
  C 13.896 -35.784 13.968 -35.784 14.184 -35.784" stroke="none" fill="rgb(187,255,255)" />
<path d="
  M 8.784 -34.272
  L 9.072 -34.272
  L 9.648 -33.768
  C 8.856 -33.552 8.136 -33.120 7.704 -32.328
  L 7.344 -32.688
  L 7.344 -33.336
  C 7.776 -33.840 8.208 -34.200 8.784 -34.272" stroke="none" fill="rgb(187,255,255)" />
<path d="
  M 5.544 -31.464
  L 6.408 -31.392
  L 6.480 -31.248
  C 5.832 -30.744 5.328 -30.096 5.184 -29.232
  L 4.536 -29.880
  L 4.536 -30.096
  C 4.680 -30.600 4.968 -31.032 5.544 -31.464" stroke="none" fill="rgb(187,255,255)" />
<path d="
  M 3.168 -25.200
  L 4.032 -26.064
  L 4.248 -26.064
  C 3.888 -25.272 3.888 -24.552 4.104 -23.760
  L 3.816 -23.760
  L 3.024 -24.552
  C 3.024 -24.768 3.024 -24.984 3.168 -25.200" stroke="none" fill="rgb(187,255,255)" />
<path d="
  M 4.752 -19.080
  L 4.752 -19.728
  L 5.184 -20.160
  C 5.328 -19.440 5.760 -18.864 6.408 -18.432
  L 5.328 -18.360
  C 4.968 -18.576 4.752 -18.792 4.752 -19.080" stroke="none" fill="rgb(187,255,255)" />
<path d="
  M 7.272 -16.200
  L 7.272 -16.848
  L 7.560 -17.136
  C 7.992 -16.488 8.640 -16.056 9.432 -15.984
  L 9.000 -15.552
  L 8.352 -15.552
  C 7.920 -15.552 7.560 -15.840 7.272 -16.200" stroke="none" fill="rgb(187,255,255)" />
<path d="
  M 13.896 -13.680
  L 12.888 -14.760
  L 12.888 -14.760
  C 13.752 -14.544 14.544 -14.544 15.408 -14.904
  L 15.408 -14.760
  L 14.112 -13.680
  C 13.968 -13.680 13.968 -13.680 13.896 -13.680" stroke="none" fill="rgb(187,255,255)" />
<path d="
  M 19.944 -15.624
  L 19.080 -15.552
  L 18.792 -15.840
  C 19.512 -16.056 20.160 -16.488 20.592 -17.136
  L 20.592 -17.136
  L 20.592 -16.056
  C 20.520 -15.768 20.304 -15.552 19.944 -15.624" stroke="none" fill="rgb(187,255,255)" />
<path d="
  M 22.752 -18.216
  L 21.816 -18.360
  C 22.464 -18.792 22.752 -19.440 22.968 -20.160
  L 23.328 -19.728
  L 23.328 -19.080
  C 23.400 -18.792 23.184 -18.432 22.752 -18.216" stroke="none" fill="rgb(187,255,255)" />
<path d="
  M 22.896 -29.520
  L 23.400 -30.096
  L 23.184 -31.392
  L 21.672 -31.392
  L 21.672 -31.392
  C 22.320 -30.816 22.680 -30.312 22.896 -29.520" stroke="none" fill="rgb(187,255,255)" />
<path d="
  M 23.904 -26.136
  L 23.184 -26.136
  C 23.472 -25.416 23.472 -24.552 23.328 -23.760
  L 24.048 -23.760
  L 24.048 -23.760
  C 24.264 -24.552 24.264 -25.416 23.904 -26.136" stroke="none" fill="rgb(192,255,255)" />
<path d="
  M 22.896 -29.520
  L 22.320 -29.016
  C 22.104 -29.736 21.816 -30.312 21.168 -30.960
  L 21.672 -31.392
  C 22.320 -30.816 22.680 -30.312 22.896 -29.520" stroke="none" fill="rgb(192,255,255)" />
<path d="
  M 20.376 -32.472
  L 19.944 -32.040
  C 19.440 -32.544 18.792 -32.976 18.144 -33.192
  L 18.576 -33.624
  C 19.296 -33.552 19.944 -33.120 20.376 -32.472" stroke="none" fill="rgb(192,255,255)" />
<path d="
  M 15.192 -34.704
  L 15.192 -33.984
  C 14.400 -34.200 13.536 -34.200 12.816 -33.984
  L 12.816 -34.632
  C 13.536 -34.920 14.400 -34.920 15.192 -34.704" stroke="none" fill="rgb(192,255,255)" />
<path d="
  M 9.648 -33.768
  L 10.224 -33.192
  C 9.432 -32.976 8.640 -32.544 8.136 -31.896
  L 7.704 -32.328
  C 8.136 -33.120 8.856 -33.552 9.648 -33.768" stroke="none" fill="rgb(192,255,255)" />
<path d="
  M 6.480 -31.248
  L 7.056 -30.744
  C 6.264 -30.168 5.832 -29.448 5.616 -28.728
  L 5.184 -29.232
  C 5.328 -30.096 5.832 -30.744 6.480 -31.248" stroke="none" fill="rgb(192,255,255)" />
<path d="
  M 4.248 -26.064
  L 4.896 -26.064
  C 4.680 -25.272 4.680 -24.552 4.896 -23.760
  L 4.104 -23.760
  C 3.888 -24.552 3.888 -25.272 4.248 -26.064" stroke="none" fill="rgb(192,255,255)" />
<path d="
  M 5.184 -20.160
  L 5.616 -20.736
  C 5.832 -19.944 6.264 -19.440 6.912 -18.864
  L 6.480 -18.432
  L 6.408 -18.432
  C 5.760 -18.864 5.328 -19.440 5.184 -20.160" stroke="none" fill="rgb(192,255,255)" />
<path d="
  M 7.560 -17.136
  L 8.136 -17.712
  C 8.568 -17.064 9.216 -16.632 9.864 -16.416
  L 9.432 -15.984
  C 8.640 -16.056 7.992 -16.488 7.560 -17.136" stroke="none" fill="rgb(192,255,255)" />
<path d="
  M 12.888 -14.760
  L 12.888 -15.552
  C 13.680 -15.336 14.544 -15.336 15.408 -15.552
  L 15.408 -14.904
  C 14.544 -14.544 13.752 -14.544 12.888 -14.760" stroke="none" fill="rgb(192,255,255)" />
<path d="
  M 18.792 -15.840
  L 18.216 -16.416
  C 18.864 -16.632 19.512 -17.064 20.088 -17.712
  L 20.592 -17.136
  C 20.160 -16.488 19.512 -16.056 18.792 -15.840" stroke="none" fill="rgb(192,255,255)" />
<path d="
  M 21.816 -18.360
  L 21.672 -18.360
  L 21.240 -18.792
  C 21.816 -19.296 22.248 -19.944 22.464 -20.592
  L 22.968 -20.160
  C 22.752 -19.440 22.464 -18.792 21.816 -18.360" stroke="none" fill="rgb(192,255,255)" />
<path d="
  M 23.184 -26.136
  L 22.464 -26.136
  C 22.752 -25.416 22.752 -24.552 22.536 -23.760
  L 23.328 -23.760
  C 23.472 -24.552 23.472 -25.416 23.184 -26.136" stroke="none" fill="rgb(197,255,255)" />
<path d="
  M 22.320 -29.016
  L 21.888 -28.512
  C 21.600 -29.232 21.168 -29.880 20.592 -30.384
  L 21.168 -30.960
  C 21.816 -30.312 22.104 -29.736 22.320 -29.016" stroke="none" fill="rgb(197,255,255)" />
<path d="
  M 19.944 -32.040
  L 19.440 -31.464
  C 18.864 -32.040 18.216 -32.472 17.568 -32.688
  L 18.144 -33.192
  C 18.792 -32.976 19.440 -32.544 19.944 -32.040" stroke="none" fill="rgb(197,255,255)" />
<path d="
  M 15.192 -33.984
  L 15.192 -33.192
  C 14.400 -33.408 13.680 -33.408 12.816 -33.192
  L 12.816 -33.984
  C 13.536 -34.200 14.400 -34.200 15.192 -33.984" stroke="none" fill="rgb(197,255,255)" />
<path d="
  M 10.224 -33.192
  L 10.656 -32.760
  C 10.008 -32.472 9.216 -32.040 8.640 -31.392
  L 8.136 -31.896
  C 8.640 -32.544 9.432 -32.976 10.224 -33.192" stroke="none" fill="rgb(197,255,255)" />
<path d="
  M 7.056 -30.744
  L 7.560 -30.168
  C 6.840 -29.664 6.480 -29.016 6.192 -28.224
  L 5.616 -28.728
  C 5.832 -29.448 6.264 -30.168 7.056 -30.744" stroke="none" fill="rgb(197,255,255)" />
<path d="
  M 4.896 -26.064
  L 5.616 -26.064
  C 5.400 -25.272 5.400 -24.552 5.616 -23.760
  L 4.896 -23.760
  C 4.680 -24.552 4.680 -25.272 4.896 -26.064" stroke="none" fill="rgb(197,255,255)" />
<path d="
  M 5.616 -20.736
  L 6.192 -21.168
  C 6.480 -20.520 6.840 -19.872 7.488 -19.440
  L 6.912 -18.864
  C 6.264 -19.440 5.832 -19.944 5.616 -20.736" stroke="none" fill="rgb(197,255,255)" />
<path d="
  M 8.136 -17.712
  L 8.640 -18.216
  C 9.072 -17.568 9.792 -17.280 10.440 -16.920
  L 9.864 -16.416
  C 9.216 -16.632 8.568 -17.064 8.136 -17.712" stroke="none" fill="rgb(197,255,255)" />
<path d="
  M 12.888 -15.552
  L 12.888 -16.272
  C 13.680 -16.056 14.544 -16.056 15.408 -16.272
  L 15.408 -15.552
  C 14.544 -15.336 13.680 -15.336 12.888 -15.552" stroke="none" fill="rgb(197,255,255)" />
<path d="
  M 18.216 -16.416
  L 17.712 -16.920
  C 18.360 -17.136 19.008 -17.568 19.512 -18.144
  L 20.088 -17.712
  C 19.512 -17.064 18.864 -16.632 18.216 -16.416" stroke="none" fill="rgb(197,255,255)" />
<path d="
  M 21.240 -18.792
  L 20.736 -19.296
  C 21.240 -19.872 21.672 -20.520 22.032 -21.168
  L 22.464 -20.592
  C 22.248 -19.944 21.816 -19.296 21.240 -18.792" stroke="none" fill="rgb(197,255,255)" />
<path d="
  M 22.464 -26.136
  L 21.672 -26.136
  C 22.032 -25.416 22.032 -24.552 21.816 -23.760
  L 22.536 -23.760
  C 22.752 -24.552 22.752 -25.416 22.464 -26.136" stroke="none" fill="rgb(202,255,255)" />
<path d="
  M 21.888 -28.512
  L 21.240 -27.864
  C 21.024 -28.656 20.592 -29.304 20.088 -29.880
  L 20.592 -30.384
  C 21.168 -29.880 21.600 -29.232 21.888 -28.512" stroke="none" fill="rgb(202,255,255)" />
<path d="
  M 19.440 -31.464
  L 18.864 -30.960
  C 18.360 -31.464 17.712 -31.896 16.920 -32.040
  L 17.568 -32.688
  C 18.216 -32.472 18.864 -32.040 19.440 -31.464" stroke="none" fill="rgb(202,255,255)" />
<path d="
  M 15.192 -33.192
  L 15.192 -32.472
  C 14.400 -32.688 13.680 -32.688 12.888 -32.472
  L 12.816 -33.192
  C 13.680 -33.408 14.400 -33.408 15.192 -33.192" stroke="none" fill="rgb(202,255,255)" />
<path d="
  M 10.656 -32.760
  L 11.304 -32.112
  C 10.512 -31.896 9.792 -31.464 9.216 -30.816
  L 8.640 -31.392
  C 9.216 -32.040 10.008 -32.472 10.656 -32.760" stroke="none" fill="rgb(202,255,255)" />
<path d="
  M 7.560 -30.168
  L 8.136 -29.664
  C 7.344 -29.088 7.056 -28.296 6.840 -27.576
  L 6.192 -28.224
  C 6.480 -29.016 6.840 -29.664 7.560 -30.168" stroke="none" fill="rgb(202,255,255)" />
<path d="
  M 5.616 -26.064
  L 6.408 -25.920
  C 6.192 -25.272 6.192 -24.552 6.408 -23.760
  L 5.616 -23.760
  C 5.400 -24.552 5.400 -25.272 5.616 -26.064" stroke="none" fill="rgb(202,255,255)" />
<path d="
  M 6.192 -21.168
  L 6.840 -21.816
  C 7.056 -21.168 7.344 -20.520 7.992 -19.944
  L 7.488 -19.440
  C 6.840 -19.872 6.480 -20.520 6.192 -21.168" stroke="none" fill="rgb(202,255,255)" />
<path d="
  M 8.640 -18.216
  L 9.216 -18.792
  C 9.648 -18.144 10.296 -17.784 10.944 -17.568
  L 10.440 -16.920
  C 9.792 -17.280 9.072 -17.568 8.640 -18.216" stroke="none" fill="rgb(202,255,255)" />
<path d="
  M 12.888 -16.272
  L 12.888 -17.064
  C 13.680 -16.848 14.544 -16.848 15.264 -17.064
  L 15.408 -16.272
  C 14.544 -16.056 13.680 -16.056 12.888 -16.272" stroke="none" fill="rgb(202,255,255)" />
<path d="
  M 17.712 -16.920
  L 17.136 -17.496
  C 17.784 -17.712 18.432 -18.144 19.008 -18.648
  L 19.512 -18.144
  C 19.008 -17.568 18.360 -17.136 17.712 -16.920" stroke="none" fill="rgb(202,255,255)" />
<path d="
  M 20.736 -19.296
  L 20.160 -19.872
  C 20.736 -20.376 21.168 -21.024 21.384 -21.816
  L 22.032 -21.168
  C 21.672 -20.520 21.240 -19.872 20.736 -19.296" stroke="none" fill="rgb(202,255,255)" />
<path d="
  M 21.672 -26.136
  L 20.808 -26.136
  C 21.168 -25.416 21.168 -24.552 20.952 -23.760
  L 21.816 -23.760
  C 22.032 -24.552 22.032 -25.416 21.672 -26.136" stroke="none" fill="rgb(207,255,255)" />
<path d="
  M 21.240 -27.864
  L 20.592 -27.216
  C 20.376 -28.008 19.944 -28.656 19.440 -29.232
  L 20.088 -29.880
  C 20.592 -29.304 21.024 -28.656 21.240 -27.864" stroke="none" fill="rgb(207,255,255)" />
<path d="
  M 18.864 -30.960
  L 18.216 -30.312
  C 17.712 -30.816 17.064 -31.248 16.272 -31.392
  L 16.920 -32.040
  C 17.712 -31.896 18.360 -31.464 18.864 -30.960" stroke="none" fill="rgb(207,255,255)" />
<path d="
  M 15.192 -32.472
  L 15.192 -31.608
  C 14.400 -31.824 13.680 -31.824 12.888 -31.608
  L 12.888 -32.472
  C 13.680 -32.688 14.400 -32.688 15.192 -32.472" stroke="none" fill="rgb(207,255,255)" />
<path d="
  M 11.304 -32.112
  L 12.024 -31.392
  C 11.160 -31.248 10.440 -30.816 9.864 -30.312
  L 9.216 -30.816
  C 9.792 -31.464 10.512 -31.896 11.304 -32.112" stroke="none" fill="rgb(207,255,255)" />
<path d="
  M 8.136 -29.664
  L 8.640 -29.088
  C 7.992 -28.440 7.704 -27.792 7.488 -26.928
  L 6.840 -27.576
  C 7.056 -28.296 7.344 -29.088 8.136 -29.664" stroke="none" fill="rgb(207,255,255)" />
<path d="
  M 6.408 -25.920
  L 7.272 -25.920
  C 7.056 -25.272 7.056 -24.552 7.272 -23.760
  L 6.408 -23.760
  C 6.192 -24.552 6.192 -25.272 6.408 -25.920" stroke="none" fill="rgb(207,255,255)" />
<path d="
  M 6.840 -21.816
  L 7.488 -22.608
  C 7.704 -21.816 7.992 -21.024 8.568 -20.520
  L 7.992 -19.944
  C 7.344 -20.520 7.056 -21.168 6.840 -21.816" stroke="none" fill="rgb(207,255,255)" />
<path d="
  M 9.216 -18.792
  L 9.792 -19.296
  C 10.296 -18.792 10.944 -18.432 11.592 -18.216
  L 10.944 -17.568
  C 10.296 -17.784 9.648 -18.144 9.216 -18.792" stroke="none" fill="rgb(207,255,255)" />
<path d="
  M 12.888 -17.064
  L 12.816 -17.928
  C 13.680 -17.712 14.544 -17.712 15.264 -17.928
  L 15.264 -17.064
  C 14.544 -16.848 13.680 -16.848 12.888 -17.064" stroke="none" fill="rgb(207,255,255)" />
<path d="
  M 17.136 -17.496
  L 16.488 -18.144
  C 17.136 -18.360 17.928 -18.792 18.432 -19.296
  L 19.008 -18.648
  C 18.432 -18.144 17.784 -17.712 17.136 -17.496" stroke="none" fill="rgb(207,255,255)" />
<path d="
  M 20.160 -19.872
  L 19.656 -20.520
  C 20.160 -21.024 20.520 -21.816 20.736 -22.464
  L 21.384 -21.816
  C 21.168 -21.024 20.736 -20.376 20.160 -19.872" stroke="none" fill="rgb(207,255,255)" />
<path d="
  M 20.808 -26.136
  L 20.088 -26.136
  C 20.376 -25.416 20.376 -24.552 20.160 -23.760
  L 20.952 -23.760
  C 21.168 -24.552 21.168 -25.416 20.808 -26.136" stroke="none" fill="rgb(215,255,255)" />
<path d="
  M 20.592 -27.216
  L 19.944 -26.568
  C 19.872 -27.360 19.512 -28.080 18.864 -28.656
  L 19.440 -29.232
  C 19.944 -28.656 20.376 -28.008 20.592 -27.216" stroke="none" fill="rgb(215,255,255)" />
<path d="
  M 18.216 -30.312
  L 17.712 -29.736
  C 17.064 -30.384 16.416 -30.744 15.624 -30.744
  L 16.272 -31.392
  C 17.064 -31.248 17.712 -30.816 18.216 -30.312" stroke="none" fill="rgb(215,255,255)" />
<path d="
  M 15.192 -31.608
  L 15.192 -30.816
  C 14.400 -31.032 13.680 -31.032 12.888 -30.816
  L 12.888 -31.608
  C 13.680 -31.824 14.400 -31.824 15.192 -31.608" stroke="none" fill="rgb(215,255,255)" />
<path d="
  M 12.024 -31.392
  L 12.672 -30.744
  C 11.808 -30.744 11.088 -30.312 10.440 -29.736
  L 9.864 -30.312
  C 10.440 -30.816 11.160 -31.248 12.024 -31.392" stroke="none" fill="rgb(215,255,255)" />
<path d="
  M 8.640 -29.088
  L 9.216 -28.512
  C 8.568 -27.864 8.208 -27.144 8.136 -26.280
  L 7.488 -26.928
  C 7.704 -27.792 7.992 -28.440 8.640 -29.088" stroke="none" fill="rgb(215,255,255)" />
<path d="
  M 7.272 -25.920
  L 7.992 -25.920
  C 7.776 -25.200 7.776 -24.552 7.992 -23.760
  L 7.272 -23.760
  C 7.056 -24.552 7.056 -25.272 7.272 -25.920" stroke="none" fill="rgb(215,255,255)" />
<path d="
  M 7.488 -22.608
  L 8.136 -23.256
  C 8.136 -22.464 8.568 -21.744 9.072 -21.024
  L 8.568 -20.520
  C 7.992 -21.024 7.704 -21.816 7.488 -22.608" stroke="none" fill="rgb(215,255,255)" />
<path d="
  M 9.792 -19.296
  L 10.296 -19.872
  C 10.944 -19.296 11.592 -18.864 12.240 -18.864
  L 11.592 -18.216
  C 10.944 -18.432 10.296 -18.792 9.792 -19.296" stroke="none" fill="rgb(215,255,255)" />
<path d="
  M 12.816 -17.928
  L 12.816 -18.792
  C 13.680 -18.432 14.400 -18.432 15.264 -18.648
  L 15.264 -17.928
  C 14.544 -17.712 13.680 -17.712 12.816 -17.928" stroke="none" fill="rgb(215,255,255)" />
<path d="
  M 16.488 -18.144
  L 15.840 -18.792
  C 16.488 -18.864 17.280 -19.224 17.928 -19.872
  L 18.432 -19.296
  C 17.928 -18.792 17.136 -18.360 16.488 -18.144" stroke="none" fill="rgb(215,255,255)" />
<path d="
  M 19.656 -20.520
  L 19.080 -21.024
  C 19.656 -21.744 20.088 -22.464 20.088 -23.256
  L 20.736 -22.464
  C 20.520 -21.816 20.160 -21.024 19.656 -20.520" stroke="none" fill="rgb(215,255,255)" />
<path d="
  M 20.088 -26.136
  L 19.512 -26.136
  L 19.944 -26.568
  C 19.872 -27.360 19.512 -28.080 18.864 -28.656
  L 18.360 -28.080
  C 19.944 -26.280 20.088 -23.688 18.576 -21.600
  L 19.080 -21.024
  C 20.304 -22.464 20.592 -24.408 20.088 -26.136" stroke="none" fill="rgb(220,255,255)" />
<path d="
  M 17.712 -29.736
  L 17.136 -29.304
  C 15.264 -30.600 12.816 -30.600 10.944 -29.232
  L 10.440 -29.736
  C 11.088 -30.312 11.808 -30.744 12.672 -30.744
  L 12.888 -30.528
  L 12.888 -30.816
  C 13.680 -31.032 14.400 -31.032 15.192 -30.816
  L 15.192 -30.312
  L 15.624 -30.744
  C 16.416 -30.744 17.064 -30.384 17.712 -29.736" stroke="none" fill="rgb(220,255,255)" />
<path d="
  M 9.216 -28.512
  L 9.792 -28.008
  C 8.208 -26.136 8.208 -23.544 9.648 -21.600
  L 9.072 -21.024
  C 7.992 -22.464 7.560 -24.192 7.992 -25.920
  L 8.424 -25.920
  L 8.136 -26.280
  C 8.208 -27.144 8.568 -27.864 9.216 -28.512" stroke="none" fill="rgb(220,255,255)" />
<path d="
  M 10.296 -19.872
  L 10.872 -20.376
  C 12.816 -18.864 15.408 -18.864 17.352 -20.376
  L 17.928 -19.872
  C 17.280 -19.224 16.488 -18.864 15.840 -18.792
  L 15.264 -19.296
  L 15.264 -18.648
  C 13.536 -18.216 11.736 -18.648 10.296 -19.872" stroke="none" fill="rgb(220,255,255)" />
<path d="
  M 18.360 -28.080
  L 17.712 -27.576
  C 19.008 -26.064 19.080 -23.904 17.928 -22.248
  L 18.576 -21.600
  C 20.088 -23.688 19.944 -26.280 18.360 -28.080" stroke="none" fill="rgb(225,255,255)" />
<path d="
  M 17.136 -29.304
  L 16.488 -28.656
  C 14.976 -29.664 13.032 -29.664 11.592 -28.512
  L 10.944 -29.232
  C 12.816 -30.600 15.264 -30.600 17.136 -29.304" stroke="none" fill="rgb(225,255,255)" />
<path d="
  M 9.792 -28.008
  L 10.440 -27.360
  C 9.216 -25.848 9.072 -23.760 10.296 -22.248
  L 9.648 -21.600
  C 8.208 -23.544 8.208 -26.136 9.792 -28.008" stroke="none" fill="rgb(225,255,255)" />
<path d="
  M 10.872 -20.376
  L 11.520 -20.952
  C 13.032 -19.728 15.192 -19.728 16.704 -20.952
  L 17.352 -20.376
  C 15.408 -18.864 12.816 -18.864 10.872 -20.376" stroke="none" fill="rgb(225,255,255)" />
<path d="
  M 17.712 -27.576
  L 17.136 -27.000
  C 18.144 -25.848 18.216 -24.192 17.352 -22.824
  L 17.928 -22.248
  C 19.080 -23.904 19.008 -26.064 17.712 -27.576" stroke="none" fill="rgb(230,255,255)" />
<path d="
  M 16.488 -28.656
  L 15.912 -28.080
  C 14.760 -28.872 13.248 -28.728 12.168 -28.008
  L 11.592 -28.512
  C 13.032 -29.664 14.976 -29.664 16.488 -28.656" stroke="none" fill="rgb(230,255,255)" />
<path d="
  M 10.440 -27.360
  L 10.944 -26.784
  C 10.008 -25.632 10.008 -23.976 10.872 -22.824
  L 10.296 -22.248
  C 9.072 -23.760 9.216 -25.848 10.440 -27.360" stroke="none" fill="rgb(230,255,255)" />
<path d="
  M 11.520 -20.952
  L 12.024 -21.456
  C 13.320 -20.592 14.832 -20.592 16.128 -21.456
  L 16.704 -20.952
  C 15.192 -19.728 13.032 -19.728 11.520 -20.952" stroke="none" fill="rgb(230,255,255)" />
<path d="
  M 17.280 -24.768
  C 17.280 -26.496 15.840 -27.864 14.112 -27.864
  C 12.384 -27.864 10.944 -26.496 10.944 -24.768
  C 10.944 -23.040 12.384 -21.600 14.112 -21.600
  C 15.840 -21.600 17.280 -23.040 17.280 -24.768" stroke="none" fill="rgb(235,255,255)" />
<path d="
  M 17.136 -27.000
  L 16.848 -26.712
  L 15.840 -28.008
  L 15.912 -28.080
  C 14.760 -28.872 13.248 -28.728 12.168 -28.008
  L 12.240 -27.864
  L 10.944 -26.784
  L 10.944 -26.784
  C 10.008 -25.632 10.008 -23.976 10.872 -22.824
  L 11.160 -23.112
  L 12.384 -21.816
  L 12.024 -21.456
  C 13.320 -20.592 14.832 -20.592 16.128 -21.456
  L 15.840 -21.816
  L 17.136 -23.112
  L 17.352 -22.824
  C 18.216 -24.192 18.144 -25.848 17.136 -27.000" stroke="none" fill="rgb(235,255,255)" />
<path d="
  M 17.280 -24.768
  C 17.280 -26.496 15.840 -27.864 14.112 -27.864
  C 12.384 -27.864 10.944 -26.496 10.944 -24.768
  C 10.944 -23.040 12.384 -21.600 14.112 -21.600
  C 15.840 -21.600 17.280 -23.040 17.280 -24.768" stroke="none" fill="rgb(240,255,255)" />
<path d="
  M 16.416 -24.768
  C 16.416 -25.920 15.264 -27.000 14.112 -27.000
  C 12.888 -27.000 11.808 -25.920 11.808 -24.768
  C 11.808 -23.544 12.888 -22.464 14.112 -22.464
  C 15.264 -22.464 16.416 -23.544 16.416 -24.768" stroke="none" fill="rgb(240,255,255)" />
<path d="
  M 16.416 -24.768
  C 16.416 -25.920 15.264 -27.000 14.112 -27.000
  C 12.888 -27.000 11.808 -25.920 11.808 -24.768
  C 11.808 -23.544 12.888 -22.464 14.112 -22.464
  C 15.264 -22.464 16.416 -23.544 16.416 -24.768" stroke="none" fill="rgb(245,255,255)" />
<path d="
  M 15.624 -24.768
  C 15.624 -25.488 14.832 -26.280 14.112 -26.280
  C 13.320 -26.280 12.600 -25.488 12.600 -24.768
  C 12.600 -23.976 13.320 -23.256 14.112 -23.256
  C 14.832 -23.256 15.624 -23.976 15.624 -24.768" stroke="none" fill="rgb(245,255,255)" />
<path d="
  M 15.624 -24.768
  C 15.624 -25.488 14.832 -26.280 14.112 -26.280
  C 13.320 -26.280 12.600 -25.488 12.600 -24.768
  C 12.600 -23.976 13.320 -23.256 14.112 -23.256
  C 14.832 -23.256 15.624 -23.976 15.624 -24.768" stroke="none" fill="rgb(250,255,255)" />
<path d="
  M 14.832 -24.768
  C 14.832 -25.056 14.400 -25.488 14.112 -25.488
  C 13.752 -25.488 13.320 -25.056 13.320 -24.768
  C 13.320 -24.408 13.752 -23.976 14.112 -23.976
  C 14.400 -23.976 14.832 -24.408 14.832 -24.768" stroke="none" fill="rgb(250,255,255)" />
<path d="
  M 14.832 -24.768
  C 14.832 -25.056 14.400 -25.488 14.112 -25.488
  C 13.752 -25.488 13.320 -25.056 13.320 -24.768
  C 13.320 -24.408 13.752 -23.976 14.112 -23.976
  C 14.400 -23.976 14.832 -24.408 14.832 -24.768" stroke="none" fill="rgb(255,255,255)" />
</g>
<path d="
  M 15.192 -30.312
  L 19.080 -34.200
  L 20.592 -34.200
  L 20.592 -32.688
  L 15.840 -28.008
  L 16.848 -26.712
  L 21.672 -31.392
  L 23.184 -31.392
  L 23.400 -30.096
  L 19.512 -26.136
  L 24.336 -26.136
  L 25.344 -24.984
  L 24.048 -23.760
  L 19.512 -23.760
  L 23.328 -19.728
  L 23.400 -18.216
  L 21.672 -18.360
  L 17.136 -23.112
  L 15.840 -21.816
  L 20.592 -17.136
  L 20.592 -15.624
  L 19.080 -15.552
  L 15.264 -19.296
  L 15.408 -14.760
  L 13.968 -13.536
  L 12.888 -14.760
  L 12.816 -19.440
  L 9.000 -15.552
  L 7.344 -15.552
  L 7.272 -16.848
  L 12.384 -21.816
  L 11.160 -23.112
  L 6.480 -18.432
  L 4.752 -18.216
  L 4.752 -19.728
  L 8.640 -23.760
  L 3.816 -23.760
  L 2.808 -24.840
  L 4.032 -26.064
  L 8.424 -25.920
  L 4.536 -29.880
  L 4.680 -31.464
  L 6.408 -31.392
  L 10.944 -26.784
  L 12.240 -27.864
  L 7.344 -32.688
  L 7.344 -34.200
  L 9.072 -34.272
  L 12.888 -30.528
  L 12.816 -34.920
  L 13.968 -35.928
  L 15.192 -35.064
  L 15.192 -30.312" stroke="rgb(0,0,0)" stroke-width="0.504" fill="none" />
<g>
<path d="
  M 24.336 9.936
  L 24.912 10.584
  L 24.480 11.016
  C 24.480 10.656 24.480 10.224 24.336 9.936" stroke="none" fill="rgb(182,255,255)" />
<path d="
  M 20.520 -2.592
  L 20.376 -3.744
  L 19.512 -3.744
  C 19.944 -3.312 20.304 -2.880 20.520 -2.592" stroke="none" fill="rgb(182,255,255)" />
<path d="
  M 14.328 -8.928
  L 14.328 -9.864
  L 12.888 -9.864
  C 13.320 -9.792 13.896 -9.432 14.328 -8.928" stroke="none" fill="rgb(182,255,255)" />
<path d="
  M 0.072 -13.752
  L -0.216 -13.968
  L -0.576 -13.752
  C -0.360 -13.752 -0.144 -13.752 0.072 -13.752" stroke="none" fill="rgb(182,255,255)" />
<path d="
  M -13.176 -10.080
  L -15.120 -9.864
  L -15.120 -8.712
  C -14.472 -9.360 -13.824 -9.792 -13.176 -10.080" stroke="none" fill="rgb(182,255,255)" />
<path d="
  M -19.872 -3.960
  L -21.168 -4.104
  L -21.312 -1.800
  C -20.952 -2.592 -20.520 -3.312 -19.872 -3.960" stroke="none" fill="rgb(182,255,255)" />
<path d="
  M -24.840 10.224
  L -25.416 10.800
  L -24.984 11.304
  C -24.984 11.016 -24.984 10.656 -24.840 10.224" stroke="none" fill="rgb(182,255,255)" />
<path d="
  M -20.952 24.264
  L -20.952 25.416
  L -20.232 25.416
  C -20.520 24.984 -20.880 24.552 -20.952 24.264" stroke="none" fill="rgb(182,255,255)" />
<path d="
  M -15.192 30.456
  L -15.120 31.608
  L -13.608 31.608
  C -14.112 31.392 -14.688 30.960 -15.192 30.456" stroke="none" fill="rgb(182,255,255)" />
<path d="
  M -0.576 35.640
  L -0.216 36.000
  L 0.216 35.640
  C -0.144 35.640 -0.360 35.640 -0.576 35.640" stroke="none" fill="rgb(182,255,255)" />
<path d="
  M 13.248 31.536
  L 14.544 31.536
  L 14.544 30.672
  C 14.112 31.104 13.680 31.392 13.248 31.536" stroke="none" fill="rgb(182,255,255)" />
<path d="
  M 19.656 25.416
  L 20.592 25.416
  L 20.592 24.120
  C 20.376 24.552 20.088 24.984 19.656 25.416" stroke="none" fill="rgb(182,255,255)" />
<path d="
  M 24.336 9.936
  L 22.752 7.848
  L 22.464 7.848
  C 22.752 9.576 22.896 11.088 22.536 12.816
  L 24.480 11.016
  C 24.480 10.656 24.480 10.224 24.336 9.936" stroke="none" fill="rgb(187,255,255)" />
<path d="
  M 20.520 -2.592
  L 20.592 -0.864
  L 19.872 -0.072
  C 19.296 -1.368 18.432 -2.664 17.352 -3.744
  L 19.512 -3.744
  C 19.944 -3.312 20.304 -2.880 20.520 -2.592" stroke="none" fill="rgb(187,255,255)" />
<path d="
  M 14.328 -8.928
  L 14.328 -6.768
  C 13.104 -7.848 11.808 -8.712 10.440 -9.360
  L 11.088 -10.008
  L 12.888 -9.864
  C 13.320 -9.792 13.896 -9.432 14.328 -8.928" stroke="none" fill="rgb(187,255,255)" />
<path d="
  M 0.072 -13.752
  L 2.376 -12.024
  L 2.376 -11.808
  C 0.648 -12.024 -1.008 -12.024 -2.736 -11.808
  L -0.576 -13.752
  C -0.360 -13.752 -0.144 -13.752 0.072 -13.752" stroke="none" fill="rgb(187,255,255)" />
<path d="
  M -13.176 -10.080
  L -11.160 -10.224
  L -10.440 -9.432
  C -12.024 -8.784 -13.680 -7.848 -14.976 -6.552
  L -15.120 -6.696
  L -15.120 -8.712
  C -14.472 -9.360 -13.824 -9.792 -13.176 -10.080" stroke="none" fill="rgb(187,255,255)" />
<path d="
  M -19.872 -3.960
  L -17.784 -3.744
  C -19.008 -2.448 -20.016 -1.080 -20.664 0.504
  L -21.384 -0.288
  L -21.312 -1.800
  C -20.952 -2.592 -20.520 -3.312 -19.872 -3.960" stroke="none" fill="rgb(187,255,255)" />
<path d="
  M -24.840 10.224
  L -23.040 8.424
  C -23.256 10.008 -23.256 11.520 -23.040 13.176
  L -23.112 13.176
  L -24.984 11.304
  C -24.984 11.016 -24.984 10.656 -24.840 10.224" stroke="none" fill="rgb(187,255,255)" />
<path d="
  M -20.952 24.264
  L -21.096 22.176
  L -20.448 21.528
  C -19.872 22.824 -19.080 24.120 -18.000 25.344
  L -20.232 25.416
  C -20.520 24.984 -20.880 24.552 -20.952 24.264" stroke="none" fill="rgb(187,255,255)" />
<path d="
  M -15.192 30.456
  L -15.336 28.728
  L -14.976 28.368
  C -13.824 29.592 -12.528 30.456 -11.088 31.104
  L -11.592 31.608
  L -13.608 31.608
  C -14.112 31.392 -14.688 30.960 -15.192 30.456" stroke="none" fill="rgb(187,255,255)" />
<path d="
  M -0.576 35.640
  L -2.376 33.696
  C -0.792 33.912 0.720 33.912 2.376 33.696
  L 0.216 35.640
  C -0.144 35.640 -0.360 35.640 -0.576 35.640" stroke="none" fill="rgb(187,255,255)" />
<path d="
  M 13.248 31.536
  L 11.088 31.608
  L 10.512 31.104
  C 11.952 30.528 13.248 29.664 14.328 28.584
  L 14.544 30.672
  C 14.112 31.104 13.680 31.392 13.248 31.536" stroke="none" fill="rgb(187,255,255)" />
<path d="
  M 19.656 25.416
  L 17.568 25.344
  C 18.576 24.264 19.440 22.968 19.944 21.672
  L 20.520 22.176
  L 20.592 24.120
  C 20.376 24.552 20.088 24.984 19.656 25.416" stroke="none" fill="rgb(187,255,255)" />
<path d="
  M 22.464 7.848
  L 20.736 7.848
  C 21.024 9.576 21.168 11.448 20.808 13.176
  L 22.248 13.176
  L 22.536 12.816
  C 22.896 11.088 22.752 9.576 22.464 7.848" stroke="none" fill="rgb(192,255,255)" />
<path d="
  M 19.872 -0.072
  L 18.576 1.224
  C 18.000 -0.144 17.064 -1.584 15.912 -2.808
  L 16.920 -3.744
  L 17.352 -3.744
  C 18.432 -2.664 19.296 -1.368 19.872 -0.072" stroke="none" fill="rgb(192,255,255)" />
<path d="
  M 14.328 -6.768
  L 14.328 -6.696
  L 13.104 -5.472
  C 11.952 -6.696 10.512 -7.488 9.072 -8.064
  L 10.440 -9.360
  C 11.808 -8.712 13.104 -7.848 14.328 -6.768" stroke="none" fill="rgb(192,255,255)" />
<path d="
  M 2.376 -11.808
  L 2.376 -10.080
  C 0.648 -10.440 -1.080 -10.296 -2.952 -10.008
  L -2.952 -11.592
  L -2.736 -11.808
  C -1.008 -12.024 0.648 -12.024 2.376 -11.808" stroke="none" fill="rgb(192,255,255)" />
<path d="
  M -10.440 -9.432
  L -9.216 -8.280
  C -10.872 -7.632 -12.384 -6.552 -13.824 -5.400
  L -14.976 -6.552
  C -13.680 -7.848 -12.024 -8.784 -10.440 -9.432" stroke="none" fill="rgb(192,255,255)" />
<path d="
  M -17.784 -3.744
  L -17.352 -3.744
  L -16.416 -2.808
  C -17.712 -1.368 -18.648 0.144 -19.296 1.656
  L -20.664 0.504
  C -20.016 -1.080 -19.008 -2.448 -17.784 -3.744" stroke="none" fill="rgb(192,255,255)" />
<path d="
  M -23.040 8.424
  L -22.824 8.208
  L -21.168 8.208
  C -21.528 9.936 -21.528 11.520 -21.312 13.176
  L -23.040 13.176
  C -23.256 11.520 -23.256 10.008 -23.040 8.424" stroke="none" fill="rgb(192,255,255)" />
<path d="
  M -20.448 21.528
  L -19.224 20.232
  C -18.576 21.744 -17.568 23.256 -16.272 24.480
  L -17.064 25.200
  L -18.000 25.344
  C -19.080 24.120 -19.872 22.824 -20.448 21.528" stroke="none" fill="rgb(192,255,255)" />
<path d="
  M -14.976 28.368
  L -13.680 27.072
  C -12.600 28.296 -11.160 29.232 -9.792 29.808
  L -11.088 31.104
  C -12.528 30.456 -13.824 29.592 -14.976 28.368" stroke="none" fill="rgb(192,255,255)" />
<path d="
  M -2.376 33.696
  L -2.808 33.264
  L -2.808 31.968
  C -1.008 32.256 0.864 32.184 2.736 31.824
  L 2.736 33.336
  L 2.376 33.696
  C 0.720 33.912 -0.792 33.912 -2.376 33.696" stroke="none" fill="rgb(192,255,255)" />
<path d="
  M 10.512 31.104
  L 9.216 29.808
  C 10.728 29.232 12.168 28.296 13.320 27.072
  L 14.328 28.008
  L 14.328 28.584
  C 13.248 29.664 11.952 30.528 10.512 31.104" stroke="none" fill="rgb(192,255,255)" />
<path d="
  M 17.568 25.344
  L 16.920 25.344
  L 16.056 24.336
  C 17.280 23.184 18.144 21.744 18.792 20.304
  L 19.944 21.672
  C 19.440 22.968 18.576 24.264 17.568 25.344" stroke="none" fill="rgb(192,255,255)" />
<path d="
  M 20.736 7.848
  L 18.864 7.848
  C 19.224 9.720 19.296 11.448 19.008 13.176
  L 20.808 13.176
  C 21.168 11.448 21.024 9.576 20.736 7.848" stroke="none" fill="rgb(197,255,255)" />
<path d="
  M 18.576 1.224
  L 17.280 2.520
  C 16.632 1.152 15.696 -0.288 14.544 -1.512
  L 15.912 -2.808
  C 17.064 -1.584 18.000 -0.144 18.576 1.224" stroke="none" fill="rgb(197,255,255)" />
<path d="
  M 13.104 -5.472
  L 11.808 -4.176
  C 10.656 -5.256 9.216 -6.120 7.776 -6.768
  L 9.072 -8.064
  C 10.512 -7.488 11.952 -6.696 13.104 -5.472" stroke="none" fill="rgb(197,255,255)" />
<path d="
  M 2.376 -10.080
  L 2.376 -8.136
  C 0.648 -8.568 -1.080 -8.568 -2.952 -8.136
  L -2.952 -10.008
  C -1.080 -10.296 0.648 -10.440 2.376 -10.080" stroke="none" fill="rgb(197,255,255)" />
<path d="
  M -9.216 -8.280
  L -7.920 -6.912
  C -9.576 -6.264 -11.088 -5.256 -12.384 -3.960
  L -13.824 -5.400
  C -12.384 -6.552 -10.872 -7.632 -9.216 -8.280" stroke="none" fill="rgb(197,255,255)" />
<path d="
  M -16.416 -2.808
  L -14.976 -1.512
  C -16.272 -0.072 -17.280 1.440 -17.928 3.096
  L -19.296 1.656
  C -18.648 0.144 -17.712 -1.368 -16.416 -2.808" stroke="none" fill="rgb(197,255,255)" />
<path d="
  M -21.168 8.208
  L -19.296 8.208
  C -19.656 9.936 -19.800 11.520 -19.440 13.176
  L -21.312 13.176
  C -21.528 11.520 -21.528 9.936 -21.168 8.208" stroke="none" fill="rgb(197,255,255)" />
<path d="
  M -19.224 20.232
  L -17.928 18.792
  C -17.280 20.448 -16.272 21.960 -15.120 23.184
  L -16.272 24.480
  C -17.568 23.256 -18.576 21.744 -19.224 20.232" stroke="none" fill="rgb(197,255,255)" />
<path d="
  M -13.680 27.072
  L -12.384 25.848
  C -11.160 26.928 -9.864 27.792 -8.352 28.368
  L -9.792 29.808
  C -11.160 29.232 -12.600 28.296 -13.680 27.072" stroke="none" fill="rgb(197,255,255)" />
<path d="
  M -2.808 31.968
  L -2.808 30.024
  C -1.008 30.456 0.720 30.456 2.592 30.024
  L 2.736 31.824
  C 0.864 32.184 -1.008 32.256 -2.808 31.968" stroke="none" fill="rgb(197,255,255)" />
<path d="
  M 9.216 29.808
  L 7.920 28.512
  C 9.432 27.792 10.872 26.928 12.024 25.776
  L 13.320 27.072
  C 12.168 28.296 10.728 29.232 9.216 29.808" stroke="none" fill="rgb(197,255,255)" />
<path d="
  M 16.056 24.336
  L 14.760 23.040
  C 15.912 21.888 16.848 20.304 17.352 18.936
  L 18.792 20.304
  C 18.144 21.744 17.280 23.184 16.056 24.336" stroke="none" fill="rgb(197,255,255)" />
<path d="
  M 18.864 7.848
  L 17.136 7.848
  C 17.496 9.720 17.568 11.448 17.280 13.176
  L 19.008 13.176
  C 19.296 11.448 19.224 9.720 18.864 7.848" stroke="none" fill="rgb(202,255,255)" />
<path d="
  M 17.280 2.520
  L 15.912 3.816
  C 15.408 2.304 14.544 0.936 13.320 -0.288
  L 14.544 -1.512
  C 15.696 -0.288 16.632 1.152 17.280 2.520" stroke="none" fill="rgb(202,255,255)" />
<path d="
  M 11.808 -4.176
  L 10.656 -3.024
  C 9.360 -4.104 7.920 -4.968 6.480 -5.472
  L 7.776 -6.768
  C 9.216 -6.120 10.656 -5.256 11.808 -4.176" stroke="none" fill="rgb(202,255,255)" />
<path d="
  M 2.376 -8.136
  L 2.376 -6.552
  C 0.648 -6.912 -1.080 -6.912 -2.808 -6.552
  L -2.952 -8.136
  C -1.080 -8.568 0.648 -8.568 2.376 -8.136" stroke="none" fill="rgb(202,255,255)" />
<path d="
  M -7.920 -6.912
  L -6.552 -5.616
  C -8.280 -4.968 -9.792 -4.104 -11.160 -2.808
  L -12.384 -3.960
  C -11.088 -5.256 -9.576 -6.264 -7.920 -6.912" stroke="none" fill="rgb(202,255,255)" />
<path d="
  M -14.976 -1.512
  L -13.824 -0.288
  C -15.120 1.152 -16.056 2.736 -16.632 4.392
  L -17.928 3.096
  C -17.280 1.440 -16.272 -0.072 -14.976 -1.512" stroke="none" fill="rgb(202,255,255)" />
<path d="
  M -19.296 8.208
  L -17.712 8.280
  C -17.928 9.936 -18.000 11.520 -17.712 13.176
  L -19.440 13.176
  C -19.800 11.520 -19.656 9.936 -19.296 8.208" stroke="none" fill="rgb(202,255,255)" />
<path d="
  M -17.928 18.792
  L -16.632 17.496
  C -15.984 19.152 -15.120 20.664 -13.896 21.960
  L -15.120 23.184
  C -16.272 21.960 -17.280 20.448 -17.928 18.792" stroke="none" fill="rgb(202,255,255)" />
<path d="
  M -12.384 25.848
  L -11.160 24.696
  C -10.008 25.776 -8.568 26.640 -7.200 27.144
  L -8.352 28.368
  C -9.864 27.792 -11.160 26.928 -12.384 25.848" stroke="none" fill="rgb(202,255,255)" />
<path d="
  M -2.808 30.024
  L -2.808 28.368
  C -1.008 28.728 0.720 28.728 2.592 28.368
  L 2.592 30.024
  C 0.720 30.456 -1.008 30.456 -2.808 30.024" stroke="none" fill="rgb(202,255,255)" />
<path d="
  M 7.920 28.512
  L 6.624 27.144
  C 8.136 26.640 9.576 25.776 10.872 24.552
  L 12.024 25.776
  C 10.872 26.928 9.432 27.792 7.920 28.512" stroke="none" fill="rgb(202,255,255)" />
<path d="
  M 14.760 23.040
  L 13.536 21.888
  C 14.760 20.520 15.624 19.008 16.128 17.496
  L 17.352 18.936
  C 16.848 20.304 15.912 21.888 14.760 23.040" stroke="none" fill="rgb(202,255,255)" />
<path d="
  M 17.136 7.848
  L 15.408 7.848
  C 15.696 9.720 15.840 11.448 15.480 13.176
  L 17.280 13.176
  C 17.568 11.448 17.496 9.720 17.136 7.848" stroke="none" fill="rgb(207,255,255)" />
<path d="
  M 15.912 3.816
  L 14.544 5.256
  C 14.112 3.600 13.248 2.232 12.168 0.936
  L 13.320 -0.288
  C 14.544 0.936 15.408 2.304 15.912 3.816" stroke="none" fill="rgb(207,255,255)" />
<path d="
  M 10.656 -3.024
  L 9.432 -1.728
  C 8.136 -2.808 6.624 -3.672 5.112 -4.104
  L 6.480 -5.472
  C 7.920 -4.968 9.360 -4.104 10.656 -3.024" stroke="none" fill="rgb(207,255,255)" />
<path d="
  M 2.376 -6.552
  L 2.376 -4.824
  C 0.648 -5.184 -1.080 -5.184 -2.808 -4.824
  L -2.808 -6.552
  C -1.080 -6.912 0.648 -6.912 2.376 -6.552" stroke="none" fill="rgb(207,255,255)" />
<path d="
  M -6.552 -5.616
  L -5.256 -4.176
  C -6.840 -3.744 -8.568 -2.880 -10.008 -1.584
  L -11.160 -2.808
  C -9.792 -4.104 -8.280 -4.968 -6.552 -5.616" stroke="none" fill="rgb(207,255,255)" />
<path d="
  M -13.824 -0.288
  L -12.600 0.936
  C -13.896 2.448 -14.760 4.032 -15.192 5.688
  L -16.632 4.392
  C -16.056 2.736 -15.120 1.152 -13.824 -0.288" stroke="none" fill="rgb(207,255,255)" />
<path d="
  M -17.712 8.280
  L -15.984 8.280
  C -16.200 9.936 -16.272 11.520 -15.984 13.176
  L -17.712 13.176
  C -18.000 11.520 -17.928 9.936 -17.712 8.280" stroke="none" fill="rgb(207,255,255)" />
<path d="
  M -16.632 17.496
  L -15.192 16.128
  C -14.760 17.712 -13.896 19.368 -12.744 20.736
  L -13.896 21.960
  C -15.120 20.664 -15.984 19.152 -16.632 17.496" stroke="none" fill="rgb(207,255,255)" />
<path d="
  M -11.160 24.696
  L -10.008 23.472
  C -8.712 24.552 -7.272 25.344 -5.760 25.776
  L -7.200 27.144
  C -8.568 26.640 -10.008 25.776 -11.160 24.696" stroke="none" fill="rgb(207,255,255)" />
<path d="
  M -2.808 28.368
  L -2.952 26.640
  C -1.080 26.928 0.720 26.928 2.592 26.496
  L 2.592 28.368
  C 0.720 28.728 -1.008 28.728 -2.808 28.368" stroke="none" fill="rgb(207,255,255)" />
<path d="
  M 6.624 27.144
  L 5.184 25.776
  C 6.840 25.344 8.352 24.480 9.648 23.400
  L 10.872 24.552
  C 9.576 25.776 8.136 26.640 6.624 27.144" stroke="none" fill="rgb(207,255,255)" />
<path d="
  M 13.536 21.888
  L 12.384 20.520
  C 13.464 19.224 14.328 17.640 14.760 16.128
  L 16.128 17.496
  C 15.624 19.008 14.760 20.520 13.536 21.888" stroke="none" fill="rgb(207,255,255)" />
<path d="
  M 15.408 7.848
  L 13.464 7.848
  C 13.896 9.576 13.968 11.448 13.680 13.176
  L 15.480 13.176
  C 15.840 11.448 15.696 9.720 15.408 7.848" stroke="none" fill="rgb(215,255,255)" />
<path d="
  M 14.544 5.256
  L 13.104 6.624
  C 12.672 5.040 11.952 3.528 10.728 2.232
  L 12.168 0.936
  C 13.248 2.232 14.112 3.600 14.544 5.256" stroke="none" fill="rgb(215,255,255)" />
<path d="
  M 9.432 -1.728
  L 8.136 -0.432
  C 6.840 -1.512 5.184 -2.232 3.600 -2.592
  L 5.112 -4.104
  C 6.624 -3.672 8.136 -2.808 9.432 -1.728" stroke="none" fill="rgb(215,255,255)" />
<path d="
  M 2.376 -4.824
  L 2.376 -2.880
  C 0.648 -3.312 -1.080 -3.312 -2.808 -2.880
  L -2.808 -4.824
  C -1.080 -5.184 0.648 -5.184 2.376 -4.824" stroke="none" fill="rgb(215,255,255)" />
<path d="
  M -5.256 -4.176
  L -3.672 -2.664
  C -5.544 -2.376 -7.272 -1.512 -8.712 -0.288
  L -10.008 -1.584
  C -8.568 -2.880 -6.840 -3.744 -5.256 -4.176" stroke="none" fill="rgb(215,255,255)" />
<path d="
  M -12.600 0.936
  L -11.304 2.232
  C -12.528 3.744 -13.392 5.328 -13.824 7.200
  L -15.192 5.688
  C -14.760 4.032 -13.896 2.448 -12.600 0.936" stroke="none" fill="rgb(215,255,255)" />
<path d="
  M -15.984 8.280
  L -14.040 8.280
  C -14.472 9.936 -14.472 11.520 -14.112 13.176
  L -15.984 13.176
  C -16.272 11.520 -16.200 9.936 -15.984 8.280" stroke="none" fill="rgb(215,255,255)" />
<path d="
  M -15.192 16.128
  L -13.824 14.616
  C -13.392 16.344 -12.528 18.072 -11.304 19.440
  L -12.744 20.736
  C -13.896 19.368 -14.760 17.712 -15.192 16.128" stroke="none" fill="rgb(215,255,255)" />
<path d="
  M -10.008 23.472
  L -8.568 22.176
  C -7.416 23.184 -5.904 23.904 -4.320 24.336
  L -5.760 25.776
  C -7.272 25.344 -8.712 24.552 -10.008 23.472" stroke="none" fill="rgb(215,255,255)" />
<path d="
  M -2.952 26.640
  L -2.952 24.696
  C -1.080 25.128 0.720 25.128 2.520 24.696
  L 2.592 26.496
  C 0.720 26.928 -1.080 26.928 -2.952 26.640" stroke="none" fill="rgb(215,255,255)" />
<path d="
  M 5.184 25.776
  L 3.816 24.336
  C 5.400 23.904 6.912 23.184 8.352 22.104
  L 9.648 23.400
  C 8.352 24.480 6.840 25.344 5.184 25.776" stroke="none" fill="rgb(215,255,255)" />
<path d="
  M 12.384 20.520
  L 11.088 19.224
  C 12.168 17.856 12.888 16.200 13.320 14.616
  L 14.760 16.128
  C 14.328 17.640 13.464 19.224 12.384 20.520" stroke="none" fill="rgb(215,255,255)" />
<path d="
  M 13.464 7.848
  L 11.952 7.848
  L 13.104 6.624
  C 12.672 5.040 11.952 3.528 10.728 2.232
  L 9.360 3.528
  C 12.888 7.632 13.032 13.464 9.648 17.856
  L 11.088 19.224
  C 12.168 17.856 12.888 16.200 13.320 14.616
  L 12.024 13.176
  L 13.680 13.176
  C 13.968 11.448 13.896 9.576 13.464 7.848" stroke="none" fill="rgb(220,255,255)" />
<path d="
  M 8.136 -0.432
  L 6.696 1.008
  C 2.592 -2.232 -3.168 -2.232 -7.272 1.152
  L -8.712 -0.288
  C -7.272 -1.512 -5.544 -2.376 -3.672 -2.664
  L -2.808 -1.800
  L -2.808 -2.880
  C -1.080 -3.312 0.648 -3.312 2.376 -2.880
  L 2.376 -1.368
  L 3.600 -2.592
  C 5.184 -2.232 6.840 -1.512 8.136 -0.432" stroke="none" fill="rgb(220,255,255)" />
<path d="
  M -11.304 2.232
  L -9.864 3.600
  C -13.392 7.848 -13.464 13.824 -10.008 18.072
  L -11.304 19.440
  C -13.824 16.344 -14.904 12.312 -14.040 8.280
  L -12.600 8.280
  L -13.824 7.200
  C -13.392 5.328 -12.528 3.744 -11.304 2.232" stroke="none" fill="rgb(220,255,255)" />
<path d="
  M -8.568 22.176
  L -7.200 20.736
  C -3.024 24.048 2.808 24.048 6.912 20.664
  L 8.352 22.104
  C 6.912 23.184 5.400 23.904 3.816 24.336
  L 2.520 23.040
  L 2.520 24.696
  C 0.720 25.128 -1.080 25.128 -2.952 24.696
  L -2.952 22.968
  L -4.320 24.336
  C -5.904 23.904 -7.416 23.184 -8.568 22.176" stroke="none" fill="rgb(220,255,255)" />
<path d="
  M 9.360 3.528
  L 8.136 4.680
  C 10.944 8.208 11.088 12.960 8.424 16.560
  L 9.648 17.856
  C 13.032 13.464 12.888 7.632 9.360 3.528" stroke="none" fill="rgb(225,255,255)" />
<path d="
  M 6.696 1.008
  L 5.544 2.232
  C 2.088 -0.432 -2.592 -0.288 -6.120 2.304
  L -7.272 1.152
  C -3.168 -2.232 2.592 -2.232 6.696 1.008" stroke="none" fill="rgb(225,255,255)" />
<path d="
  M -9.864 3.600
  L -8.712 4.824
  C -11.520 8.424 -11.520 13.248 -8.784 16.848
  L -10.008 18.072
  C -13.464 13.824 -13.392 7.848 -9.864 3.600" stroke="none" fill="rgb(225,255,255)" />
<path d="
  M -7.200 20.736
  L -5.976 19.584
  C -2.520 22.176 2.304 22.104 5.760 19.440
  L 6.912 20.664
  C 2.808 24.048 -3.024 24.048 -7.200 20.736" stroke="none" fill="rgb(225,255,255)" />
<path d="
  M 8.136 4.680
  L 6.840 5.904
  C 8.856 8.640 9.072 12.312 7.272 15.264
  L 8.424 16.560
  C 11.088 12.960 10.944 8.208 8.136 4.680" stroke="none" fill="rgb(230,255,255)" />
<path d="
  M 5.544 2.232
  L 4.248 3.528
  C 1.512 1.656 -2.088 1.656 -4.752 3.600
  L -6.120 2.304
  C -2.592 -0.288 2.088 -0.432 5.544 2.232" stroke="none" fill="rgb(230,255,255)" />
<path d="
  M -8.712 4.824
  L -7.416 6.120
  C -9.432 8.928 -9.576 12.744 -7.488 15.552
  L -8.784 16.848
  C -11.520 13.248 -11.520 8.424 -8.712 4.824" stroke="none" fill="rgb(230,255,255)" />
<path d="
  M -5.976 19.584
  L -4.680 18.288
  C -1.944 20.088 1.728 20.088 4.464 18.144
  L 5.760 19.440
  C 2.304 22.104 -2.520 22.176 -5.976 19.584" stroke="none" fill="rgb(230,255,255)" />
<path d="
  M 6.840 10.872
  C 6.840 7.128 3.600 3.816 -0.216 3.816
  C -4.032 3.816 -7.272 7.128 -7.272 10.872
  C -7.272 14.688 -4.032 17.928 -0.216 17.928
  C 3.600 17.928 6.840 14.688 6.840 10.872" stroke="none" fill="rgb(235,255,255)" />
<path d="
  M 6.840 5.904
  L 6.048 6.624
  L 3.888 3.816
  L 4.248 3.528
  C 1.512 1.656 -2.088 1.656 -4.752 3.600
  L -4.320 4.032
  L -7.056 6.408
  L -7.416 6.120
  C -9.432 8.928 -9.576 12.744 -7.488 15.552
  L -6.624 14.688
  L -4.032 17.640
  L -4.680 18.288
  C -1.944 20.088 1.728 20.088 4.464 18.144
  L 3.816 17.496
  L 6.624 14.616
  L 7.272 15.264
  C 9.072 12.312 8.856 8.640 6.840 5.904" stroke="none" fill="rgb(235,255,255)" />
<path d="
  M 6.840 10.872
  C 6.840 7.128 3.600 3.816 -0.216 3.816
  C -4.032 3.816 -7.272 7.128 -7.272 10.872
  C -7.272 14.688 -4.032 17.928 -0.216 17.928
  C 3.600 17.928 6.840 14.688 6.840 10.872" stroke="none" fill="rgb(240,255,255)" />
<path d="
  M 5.112 10.872
  C 5.112 7.992 2.736 5.544 -0.216 5.544
  C -3.168 5.544 -5.544 7.992 -5.544 10.872
  C -5.544 13.824 -3.168 16.200 -0.216 16.200
  C 2.736 16.200 5.112 13.824 5.112 10.872" stroke="none" fill="rgb(240,255,255)" />
<path d="
  M 5.112 10.872
  C 5.112 7.992 2.736 5.544 -0.216 5.544
  C -3.168 5.544 -5.544 7.992 -5.544 10.872
  C -5.544 13.824 -3.168 16.200 -0.216 16.200
  C 2.736 16.200 5.112 13.824 5.112 10.872" stroke="none" fill="rgb(245,255,255)" />
<path d="
  M 3.240 10.872
  C 3.240 9.072 1.584 7.416 -0.216 7.416
  C -2.088 7.416 -3.672 9.072 -3.672 10.872
  C -3.672 12.744 -2.088 14.400 -0.216 14.400
  C 1.584 14.400 3.240 12.744 3.240 10.872" stroke="none" fill="rgb(245,255,255)" />
<path d="
  M 3.240 10.872
  C 3.240 9.072 1.584 7.416 -0.216 7.416
  C -2.088 7.416 -3.672 9.072 -3.672 10.872
  C -3.672 12.744 -2.088 14.400 -0.216 14.400
  C 1.584 14.400 3.240 12.744 3.240 10.872" stroke="none" fill="rgb(250,255,255)" />
<path d="
  M 1.512 10.872
  C 1.512 10.008 0.648 9.144 -0.216 9.144
  C -1.080 9.144 -1.944 10.008 -1.944 10.872
  C -1.944 11.736 -1.080 12.600 -0.216 12.600
  C 0.648 12.600 1.512 11.736 1.512 10.872" stroke="none" fill="rgb(250,255,255)" />
<path d="
  M 1.512 10.872
  C 1.512 10.008 0.648 9.144 -0.216 9.144
  C -1.080 9.144 -1.944 10.008 -1.944 10.872
  C -1.944 11.736 -1.080 12.600 -0.216 12.600
  C 0.648 12.600 1.512 11.736 1.512 10.872" stroke="none" fill="rgb(255,255,255)" />
</g>
<path d="
  M 2.376 -1.368
  L 11.088 -10.008
  L 14.328 -9.864
  L 14.328 -6.696
  L 3.888 3.816
  L 6.048 6.624
  L 16.920 -3.744
  L 20.376 -3.744
  L 20.592 -0.864
  L 11.952 7.848
  L 22.752 7.848
  L 24.912 10.584
  L 22.248 13.176
  L 12.024 13.176
  L 20.520 22.176
  L 20.592 25.416
  L 16.920 25.344
  L 6.624 14.616
  L 3.816 17.496
  L 14.328 28.008
  L 14.544 31.536
  L 11.088 31.608
  L 2.520 23.040
  L 2.736 33.336
  L -0.216 36.000
  L -2.808 33.264
  L -2.952 22.968
  L -11.592 31.608
  L -15.120 31.608
  L -15.336 28.728
  L -4.032 17.640
  L -6.624 14.688
  L -17.064 25.200
  L -20.952 25.416
  L -21.096 22.176
  L -12.384 13.176
  L -23.112 13.176
  L -25.416 10.800
  L -22.824 8.208
  L -12.600 8.280
  L -21.384 -0.288
  L -21.168 -4.104
  L -17.352 -3.744
  L -7.056 6.408
  L -4.320 4.032
  L -15.120 -6.696
  L -15.120 -9.864
  L -11.160 -10.224
  L -2.808 -1.800
  L -2.952 -11.592
  L -0.216 -13.968
  L 2.376 -12.024
  L 2.376 -1.368" stroke="rgb(0,0,0)" stroke-width="0.504" fill="none" />
</g>
</svg>
