<?xml version="1.0" encoding="ISO-8859-1"?><!DOCTYPE svg PUBLIC "-//W3C//DTD SVG 1.1//EN" "http://www.w3.org/Graphics/SVG/1.1/DTD/svg11.dtd"><svg version="1.1" baseProfile="full" width="100%" height="100%" viewBox="-43.272 -42.048 86.472 84.096" xmlns="http://www.w3.org/2000/svg" xmlns:xlink="http://www.w3.org/1999/xlink">
<g>
<g>
<path d="
  M 34.272 -0.144
  L 35.280 -0.216
  L 34.272 -0.432
  L 34.272 -0.144" stroke="none" fill="rgb(255,255,54)" />
<path d="
  M 30.888 -14.832
  L 31.824 -15.408
  L 30.672 -15.192
  L 30.888 -14.832" stroke="none" fill="rgb(255,255,54)" />
<path d="
  M 21.672 -26.568
  L 22.176 -27.288
  L 21.456 -26.640
  L 21.672 -26.568" stroke="none" fill="rgb(255,255,54)" />
<path d="
  M 8.352 -33.264
  L 8.352 -33.624
  L 8.208 -33.264
  L 8.352 -33.264" stroke="none" fill="rgb(255,255,54)" />
<path d="
  M -6.768 -33.624
  L -6.984 -34.128
  L -6.984 -33.624
  L -6.768 -33.624" stroke="none" fill="rgb(255,255,54)" />
<path d="
  M -20.664 -27.360
  L -21.384 -28.080
  L -20.880 -27.144
  L -20.664 -27.360" stroke="none" fill="rgb(255,255,54)" />
<path d="
  M -34.344 -0.360
  L -35.352 -0.216
  L -34.344 -0.072
  L -34.344 -0.360" stroke="none" fill="rgb(255,255,54)" />
<path d="
  M -7.128 33.480
  L -7.128 34.128
  L -6.984 33.624
  L -7.128 33.480" stroke="none" fill="rgb(255,255,54)" />
<path d="
  M 7.704 33.408
  L 7.776 33.768
  L 7.776 33.336
  L 7.704 33.408" stroke="none" fill="rgb(255,255,54)" />
<path d="
  M 21.672 26.568
  L 22.536 27.432
  L 21.960 26.208
  L 21.672 26.568" stroke="none" fill="rgb(255,255,54)" />
<path d="
  M 30.888 14.760
  L 32.688 15.480
  L 31.104 14.184
  C 31.176 14.256 31.104 14.400 30.888 14.760" stroke="none" fill="rgb(255,255,54)" />
<path d="
  M 34.272 -0.144
  L 31.896 0.144
  C 31.896 -0.144 31.896 -0.576 31.824 -0.936
  L 34.272 -0.432
  L 34.272 -0.144" stroke="none" fill="rgb(255,255,67)" />
<path d="
  M 30.888 -14.832
  L 28.944 -13.392
  C 28.800 -13.608 28.584 -14.112 28.296 -14.616
  L 30.672 -15.192
  L 30.888 -14.832" stroke="none" fill="rgb(255,255,67)" />
<path d="
  M 21.672 -26.568
  L 20.448 -24.552
  C 20.160 -24.768 19.872 -24.984 19.584 -25.200
  L 21.456 -26.640
  L 21.672 -26.568" stroke="none" fill="rgb(255,255,67)" />
<path d="
  M 8.352 -33.264
  L 8.064 -30.816
  C 7.704 -31.032 7.344 -31.032 7.272 -31.032
  L 8.208 -33.264
  L 8.352 -33.264" stroke="none" fill="rgb(255,255,67)" />
<path d="
  M -6.768 -33.624
  L -5.832 -31.320
  C -5.976 -31.320 -6.264 -31.320 -6.840 -31.176
  L -6.984 -33.624
  L -6.768 -33.624" stroke="none" fill="rgb(255,255,67)" />
<path d="
  M -20.664 -27.360
  L -18.936 -25.632
  C -19.080 -25.560 -19.440 -25.344 -19.728 -25.056
  L -20.880 -27.144
  L -20.664 -27.360" stroke="none" fill="rgb(255,255,67)" />
<path d="
  M -34.344 -0.360
  L -31.968 -0.720
  C -31.968 -0.360 -31.968 -0.072 -31.968 0.216
  L -34.344 -0.072
  L -34.344 -0.360" stroke="none" fill="rgb(255,255,67)" />
<path d="
  M -7.128 33.480
  L -6.984 31.104
  C -6.336 31.320 -6.048 31.320 -5.976 31.320
  L -6.984 33.624
  L -7.128 33.480" stroke="none" fill="rgb(255,255,67)" />
<path d="
  M 7.704 33.408
  L 6.912 31.104
  C 6.984 31.104 7.344 31.032 7.848 30.888
  L 7.776 33.336
  L 7.704 33.408" stroke="none" fill="rgb(255,255,67)" />
<path d="
  M 21.672 26.568
  L 20.016 24.840
  C 20.376 24.552 20.664 24.336 20.952 23.976
  L 21.960 26.208
  L 21.672 26.568" stroke="none" fill="rgb(255,255,67)" />
<path d="
  M 30.888 14.760
  L 28.584 13.896
  C 29.016 13.320 29.088 12.888 29.232 12.672
  L 31.104 14.184
  C 31.176 14.256 31.104 14.400 30.888 14.760" stroke="none" fill="rgb(255,255,67)" />
<path d="
  M -28.656 -14.112
  L -30.240 -14.544
  L -28.872 -13.608
  C -28.944 -13.536 -28.872 -13.752 -28.656 -14.112" stroke="none" fill="rgb(255,255,67)" />
<path d="
  M -29.160 13.104
  L -30.888 14.184
  L -28.872 13.680
  C -29.088 13.320 -29.160 13.104 -29.160 13.104" stroke="none" fill="rgb(255,255,67)" />
<path d="
  M -20.376 24.552
  L -21.024 25.416
  L -20.088 24.768
  L -20.376 24.552" stroke="none" fill="rgb(255,255,67)" />
<path d="
  M 31.824 -0.936
  L 29.304 -1.440
  C 29.376 -0.720 29.376 -0.144 29.376 0.576
  L 31.896 0.144
  C 31.896 -0.144 31.896 -0.576 31.824 -0.936" stroke="none" fill="rgb(255,255,77)" />
<path d="
  M 28.944 -13.392
  L 26.784 -12.024
  C 26.640 -12.528 26.208 -13.248 25.848 -14.112
  L 28.296 -14.616
  C 28.584 -14.112 28.800 -13.608 28.944 -13.392" stroke="none" fill="rgb(255,255,77)" />
<path d="
  M 20.448 -24.552
  L 19.080 -22.392
  C 18.576 -22.896 18.072 -23.256 17.568 -23.472
  L 19.584 -25.200
  C 19.872 -24.984 20.160 -24.768 20.448 -24.552" stroke="none" fill="rgb(255,255,77)" />
<path d="
  M 8.064 -30.816
  L 7.848 -28.368
  C 7.200 -28.584 6.696 -28.656 6.408 -28.728
  L 7.272 -31.032
  C 7.344 -31.032 7.704 -31.032 8.064 -30.816" stroke="none" fill="rgb(255,255,77)" />
<path d="
  M -5.832 -31.320
  L -4.896 -28.944
  C -5.400 -28.944 -5.976 -28.872 -6.768 -28.656
  L -6.840 -31.176
  C -6.264 -31.320 -5.976 -31.320 -5.832 -31.320" stroke="none" fill="rgb(255,255,77)" />
<path d="
  M -18.936 -25.632
  L -17.136 -23.904
  C -17.496 -23.688 -17.928 -23.400 -18.432 -22.896
  L -19.728 -25.056
  C -19.440 -25.344 -19.080 -25.560 -18.936 -25.632" stroke="none" fill="rgb(255,255,77)" />
<path d="
  M -28.656 -14.112
  L -26.208 -13.392
  C -26.496 -12.816 -26.640 -12.456 -26.784 -12.096
  L -28.872 -13.608
  C -28.944 -13.536 -28.872 -13.752 -28.656 -14.112" stroke="none" fill="rgb(255,255,77)" />
<path d="
  M -31.968 -0.720
  L -29.376 -1.080
  C -29.448 -0.432 -29.448 0.072 -29.448 0.648
  L -31.968 0.216
  C -31.968 -0.072 -31.968 -0.360 -31.968 -0.720" stroke="none" fill="rgb(255,255,77)" />
<path d="
  M -29.160 13.104
  L -27.000 11.664
  C -26.856 12.024 -26.640 12.528 -26.352 12.960
  L -28.872 13.680
  C -29.088 13.320 -29.160 13.104 -29.160 13.104" stroke="none" fill="rgb(255,255,77)" />
<path d="
  M -20.376 24.552
  L -19.008 22.320
  C -18.720 22.752 -18.432 22.968 -18.144 23.184
  L -20.088 24.768
  L -20.376 24.552" stroke="none" fill="rgb(255,255,77)" />
<path d="
  M -6.984 31.104
  L -6.768 28.656
  C -5.976 28.800 -5.400 28.944 -4.896 28.944
  L -5.976 31.320
  C -6.048 31.320 -6.336 31.320 -6.984 31.104" stroke="none" fill="rgb(255,255,77)" />
<path d="
  M 6.912 31.104
  L 6.048 28.800
  C 6.480 28.728 7.200 28.512 7.992 28.296
  L 7.848 30.888
  C 7.344 31.032 6.984 31.104 6.912 31.104" stroke="none" fill="rgb(255,255,77)" />
<path d="
  M 20.016 24.840
  L 18.288 22.968
  C 18.720 22.680 19.368 22.176 19.872 21.528
  L 20.952 23.976
  C 20.664 24.336 20.376 24.552 20.016 24.840" stroke="none" fill="rgb(255,255,77)" />
<path d="
  M 28.584 13.896
  L 26.352 12.960
  C 26.712 12.168 27.000 11.592 27.216 11.088
  L 29.232 12.672
  C 29.088 12.888 29.016 13.320 28.584 13.896" stroke="none" fill="rgb(255,255,77)" />
<path d="
  M 29.304 -1.440
  L 26.784 -1.944
  C 26.928 -0.936 26.928 -0.072 26.928 0.864
  L 29.376 0.576
  C 29.376 -0.144 29.376 -0.720 29.304 -1.440" stroke="none" fill="rgb(255,255,87)" />
<path d="
  M 26.784 -12.024
  L 24.696 -10.656
  C 24.336 -11.520 23.832 -12.528 23.256 -13.536
  L 25.848 -14.112
  C 26.208 -13.248 26.640 -12.528 26.784 -12.024" stroke="none" fill="rgb(255,255,87)" />
<path d="
  M 19.080 -22.392
  L 17.640 -20.160
  C 17.064 -20.880 16.344 -21.456 15.552 -21.888
  L 17.568 -23.472
  C 18.072 -23.256 18.576 -22.896 19.080 -22.392" stroke="none" fill="rgb(255,255,87)" />
<path d="
  M 7.848 -28.368
  L 7.560 -25.848
  C 6.768 -26.136 5.976 -26.280 5.400 -26.352
  L 6.408 -28.728
  C 6.696 -28.656 7.200 -28.584 7.848 -28.368" stroke="none" fill="rgb(255,255,87)" />
<path d="
  M -4.896 -28.944
  L -3.960 -26.640
  C -4.752 -26.568 -5.688 -26.352 -6.696 -26.064
  L -6.768 -28.656
  C -5.976 -28.872 -5.400 -28.944 -4.896 -28.944" stroke="none" fill="rgb(255,255,87)" />
<path d="
  M -17.136 -23.904
  L -15.336 -22.176
  C -15.912 -21.816 -16.488 -21.312 -17.136 -20.808
  L -18.432 -22.896
  C -17.928 -23.400 -17.496 -23.688 -17.136 -23.904" stroke="none" fill="rgb(255,255,87)" />
<path d="
  M -26.208 -13.392
  L -23.688 -12.744
  C -24.192 -11.952 -24.480 -11.304 -24.768 -10.728
  L -26.784 -12.096
  C -26.640 -12.456 -26.496 -12.816 -26.208 -13.392" stroke="none" fill="rgb(255,255,87)" />
<path d="
  M -29.376 -1.080
  L -27.000 -1.368
  C -27.000 -0.576 -27.000 0.216 -27.000 1.080
  L -29.448 0.648
  C -29.448 0.072 -29.448 -0.432 -29.376 -1.080" stroke="none" fill="rgb(255,255,87)" />
<path d="
  M -27.000 11.664
  L -24.912 10.440
  C -24.696 11.016 -24.264 11.592 -23.904 12.384
  L -26.352 12.960
  C -26.640 12.528 -26.856 12.024 -27.000 11.664" stroke="none" fill="rgb(255,255,87)" />
<path d="
  M -19.008 22.320
  L -17.712 20.160
  C -17.208 20.736 -16.632 21.168 -16.128 21.528
  L -18.144 23.184
  C -18.432 22.968 -18.720 22.752 -19.008 22.320" stroke="none" fill="rgb(255,255,87)" />
<path d="
  M -6.768 28.656
  L -6.552 26.064
  C -5.544 26.352 -4.680 26.568 -3.888 26.640
  L -4.896 28.944
  C -5.400 28.944 -5.976 28.800 -6.768 28.656" stroke="none" fill="rgb(255,255,87)" />
<path d="
  M 6.048 28.800
  L 5.256 26.352
  C 6.048 26.208 7.056 26.064 8.064 25.704
  L 7.992 28.296
  C 7.200 28.512 6.480 28.728 6.048 28.800" stroke="none" fill="rgb(255,255,87)" />
<path d="
  M 18.288 22.968
  L 16.488 21.168
  C 17.280 20.664 18.072 19.944 18.720 19.152
  L 19.872 21.528
  C 19.368 22.176 18.720 22.680 18.288 22.968" stroke="none" fill="rgb(255,255,87)" />
<path d="
  M 26.352 12.960
  L 23.904 12.096
  C 24.552 11.088 24.912 10.224 25.200 9.432
  L 27.216 11.088
  C 27.000 11.592 26.712 12.168 26.352 12.960" stroke="none" fill="rgb(255,255,87)" />
<path d="
  M 26.784 -1.944
  L 24.336 -2.448
  C 24.552 -1.224 24.552 -0.072 24.408 1.152
  L 26.928 0.864
  C 26.928 -0.072 26.928 -0.936 26.784 -1.944" stroke="none" fill="rgb(255,255,97)" />
<path d="
  M 24.696 -10.656
  L 22.752 -9.216
  C 22.248 -10.440 21.672 -11.736 20.736 -13.032
  L 23.256 -13.536
  C 23.832 -12.528 24.336 -11.520 24.696 -10.656" stroke="none" fill="rgb(255,255,97)" />
<path d="
  M 17.640 -20.160
  L 16.344 -18.216
  C 15.552 -19.008 14.544 -19.800 13.680 -20.376
  L 15.552 -21.888
  C 16.344 -21.456 17.064 -20.880 17.640 -20.160" stroke="none" fill="rgb(255,255,97)" />
<path d="
  M 7.560 -25.848
  L 7.272 -23.400
  C 6.264 -23.760 5.256 -23.976 4.464 -24.192
  L 5.400 -26.352
  C 5.976 -26.280 6.768 -26.136 7.560 -25.848" stroke="none" fill="rgb(255,255,97)" />
<path d="
  M -3.960 -26.640
  L -2.952 -24.264
  C -4.104 -24.264 -5.256 -24.048 -6.480 -23.544
  L -6.696 -26.064
  C -5.688 -26.352 -4.752 -26.568 -3.960 -26.640" stroke="none" fill="rgb(255,255,97)" />
<path d="
  M -15.336 -22.176
  L -13.536 -20.520
  C -14.328 -20.016 -15.192 -19.368 -15.912 -18.576
  L -17.136 -20.808
  C -16.488 -21.312 -15.912 -21.816 -15.336 -22.176" stroke="none" fill="rgb(255,255,97)" />
<path d="
  M -23.688 -12.744
  L -21.312 -12.096
  C -21.888 -11.160 -22.392 -10.152 -22.824 -9.360
  L -24.768 -10.728
  C -24.480 -11.304 -24.192 -11.952 -23.688 -12.744" stroke="none" fill="rgb(255,255,97)" />
<path d="
  M -27.000 -1.368
  L -24.408 -1.728
  C -24.552 -0.648 -24.552 0.360 -24.480 1.440
  L -27.000 1.080
  C -27.000 0.216 -27.000 -0.576 -27.000 -1.368" stroke="none" fill="rgb(255,255,97)" />
<path d="
  M -24.912 10.440
  L -22.824 9.144
  C -22.464 9.936 -22.104 10.800 -21.528 11.808
  L -23.904 12.384
  C -24.264 11.592 -24.696 11.016 -24.912 10.440" stroke="none" fill="rgb(255,255,97)" />
<path d="
  M -17.712 20.160
  L -16.344 18.072
  C -15.696 18.864 -14.904 19.440 -14.112 19.944
  L -16.128 21.528
  C -16.632 21.168 -17.208 20.736 -17.712 20.160" stroke="none" fill="rgb(255,255,97)" />
<path d="
  M -6.552 26.064
  L -6.336 23.616
  C -5.040 24.048 -3.888 24.264 -2.880 24.264
  L -3.888 26.640
  C -4.680 26.568 -5.544 26.352 -6.552 26.064" stroke="none" fill="rgb(255,255,97)" />
<path d="
  M 5.256 26.352
  L 4.608 24.048
  C 5.688 23.976 6.912 23.616 8.208 23.040
  L 8.064 25.704
  C 7.056 26.064 6.048 26.208 5.256 26.352" stroke="none" fill="rgb(255,255,97)" />
<path d="
  M 16.488 21.168
  L 14.760 19.440
  C 15.840 18.792 16.776 17.856 17.640 16.848
  L 18.720 19.152
  C 18.072 19.944 17.280 20.664 16.488 21.168" stroke="none" fill="rgb(255,255,97)" />
<path d="
  M 23.904 12.096
  L 21.744 11.232
  C 22.464 10.008 22.968 8.928 23.112 7.848
  L 25.200 9.432
  C 24.912 10.224 24.552 11.088 23.904 12.096" stroke="none" fill="rgb(255,255,97)" />
<path d="
  M 24.336 -2.448
  L 21.744 -2.952
  C 22.032 -1.440 22.032 0.072 21.816 1.512
  L 24.408 1.152
  C 24.552 -0.072 24.552 -1.224 24.336 -2.448" stroke="none" fill="rgb(255,255,108)" />
<path d="
  M 22.752 -9.216
  L 20.520 -7.632
  C 20.016 -9.216 19.224 -10.800 18.144 -12.456
  L 20.736 -13.032
  C 21.672 -11.736 22.248 -10.440 22.752 -9.216" stroke="none" fill="rgb(255,255,108)" />
<path d="
  M 16.344 -18.216
  L 15.048 -15.984
  C 13.968 -17.136 12.816 -18.000 11.592 -18.720
  L 13.680 -20.376
  C 14.544 -19.800 15.552 -19.008 16.344 -18.216" stroke="none" fill="rgb(255,255,108)" />
<path d="
  M 7.272 -23.400
  L 7.056 -20.808
  C 5.760 -21.384 4.608 -21.672 3.528 -21.672
  L 4.464 -24.192
  C 5.256 -23.976 6.264 -23.760 7.272 -23.400" stroke="none" fill="rgb(255,255,108)" />
<path d="
  M -2.952 -24.264
  L -2.088 -21.888
  C -3.456 -21.888 -4.896 -21.600 -6.336 -20.952
  L -6.480 -23.544
  C -5.256 -24.048 -4.104 -24.264 -2.952 -24.264" stroke="none" fill="rgb(255,255,108)" />
<path d="
  M -13.536 -20.520
  L -11.664 -18.720
  C -12.744 -18.072 -13.752 -17.424 -14.616 -16.416
  L -15.912 -18.576
  C -15.192 -19.368 -14.328 -20.016 -13.536 -20.520" stroke="none" fill="rgb(255,255,108)" />
<path d="
  M -21.312 -12.096
  L -18.792 -11.448
  C -19.584 -10.224 -20.232 -9.072 -20.520 -7.848
  L -22.824 -9.360
  C -22.392 -10.152 -21.888 -11.160 -21.312 -12.096" stroke="none" fill="rgb(255,255,108)" />
<path d="
  M -24.408 -1.728
  L -21.888 -2.016
  C -22.104 -0.720 -22.104 0.576 -21.888 1.872
  L -24.480 1.440
  C -24.552 0.360 -24.552 -0.648 -24.408 -1.728" stroke="none" fill="rgb(255,255,108)" />
<path d="
  M -22.824 9.144
  L -20.592 7.632
  C -20.304 8.784 -19.728 10.008 -18.936 11.088
  L -21.528 11.808
  C -22.104 10.800 -22.464 9.936 -22.824 9.144" stroke="none" fill="rgb(255,255,108)" />
<path d="
  M -16.344 18.072
  L -15.048 16.056
  C -14.112 16.992 -13.104 17.784 -12.168 18.360
  L -14.112 19.944
  C -14.904 19.440 -15.696 18.864 -16.344 18.072" stroke="none" fill="rgb(255,255,108)" />
<path d="
  M -6.336 23.616
  L -6.048 21.024
  C -4.536 21.672 -3.168 21.888 -1.800 21.888
  L -2.880 24.264
  C -3.888 24.264 -5.040 24.048 -6.336 23.616" stroke="none" fill="rgb(255,255,108)" />
<path d="
  M 4.608 24.048
  L 3.672 21.672
  C 5.184 21.456 6.696 21.024 8.280 20.376
  L 8.208 23.040
  C 6.912 23.616 5.688 23.976 4.608 24.048" stroke="none" fill="rgb(255,255,108)" />
<path d="
  M 14.760 19.440
  L 13.104 17.640
  C 14.400 16.776 15.552 15.696 16.560 14.400
  L 17.640 16.848
  C 16.776 17.856 15.840 18.792 14.760 19.440" stroke="none" fill="rgb(255,255,108)" />
<path d="
  M 21.744 11.232
  L 19.368 10.296
  C 20.232 8.928 20.736 7.416 21.024 6.120
  L 23.112 7.848
  C 22.968 8.928 22.464 10.008 21.744 11.232" stroke="none" fill="rgb(255,255,108)" />
<path d="
  M 21.744 -2.952
  L 19.152 -3.456
  C 19.584 -1.656 19.656 0.072 19.368 1.872
  L 21.816 1.512
  C 22.032 0.072 22.032 -1.440 21.744 -2.952" stroke="none" fill="rgb(255,255,120)" />
<path d="
  M 20.520 -7.632
  L 18.360 -6.264
  C 17.856 -8.208 16.848 -10.152 15.480 -11.808
  L 18.144 -12.456
  C 19.224 -10.800 20.016 -9.216 20.520 -7.632" stroke="none" fill="rgb(255,255,120)" />
<path d="
  M 15.048 -15.984
  L 13.680 -13.896
  C 12.456 -15.192 11.088 -16.200 9.504 -16.920
  L 11.592 -18.720
  C 12.816 -18.000 13.968 -17.136 15.048 -15.984" stroke="none" fill="rgb(255,255,120)" />
<path d="
  M 7.056 -20.808
  L 6.768 -18.288
  C 5.400 -18.864 3.960 -19.296 2.520 -19.296
  L 3.528 -21.672
  C 4.608 -21.672 5.760 -21.384 7.056 -20.808" stroke="none" fill="rgb(255,255,120)" />
<path d="
  M -2.088 -21.888
  L -1.080 -19.512
  C -2.880 -19.512 -4.536 -19.080 -6.264 -18.432
  L -6.336 -20.952
  C -4.896 -21.600 -3.456 -21.888 -2.088 -21.888" stroke="none" fill="rgb(255,255,120)" />
<path d="
  M -11.664 -18.720
  L -9.720 -16.776
  C -11.016 -16.200 -12.240 -15.336 -13.320 -14.184
  L -14.616 -16.416
  C -13.752 -17.424 -12.744 -18.072 -11.664 -18.720" stroke="none" fill="rgb(255,255,120)" />
<path d="
  M -18.792 -11.448
  L -16.344 -10.728
  C -17.280 -9.360 -18.000 -7.848 -18.432 -6.336
  L -20.520 -7.848
  C -20.232 -9.072 -19.584 -10.224 -18.792 -11.448" stroke="none" fill="rgb(255,255,120)" />
<path d="
  M -21.888 -2.016
  L -19.440 -2.304
  C -19.584 -0.864 -19.584 0.648 -19.440 2.232
  L -21.888 1.872
  C -22.104 0.576 -22.104 -0.720 -21.888 -2.016" stroke="none" fill="rgb(255,255,120)" />
<path d="
  M -20.592 7.632
  L -18.432 6.336
  C -18.144 7.704 -17.424 9.144 -16.416 10.512
  L -18.936 11.088
  C -19.728 10.008 -20.304 8.784 -20.592 7.632" stroke="none" fill="rgb(255,255,120)" />
<path d="
  M -15.048 16.056
  L -13.752 13.896
  C -12.600 15.120 -11.376 15.984 -9.936 16.704
  L -12.168 18.360
  C -13.104 17.784 -14.112 16.992 -15.048 16.056" stroke="none" fill="rgb(255,255,120)" />
<path d="
  M -6.048 21.024
  L -5.832 18.504
  C -4.176 19.152 -2.448 19.440 -0.792 19.440
  L -1.800 21.888
  C -3.168 21.888 -4.536 21.672 -6.048 21.024" stroke="none" fill="rgb(255,255,120)" />
<path d="
  M 3.672 21.672
  L 3.024 19.296
  C 4.824 19.080 6.696 18.504 8.352 17.568
  L 8.280 20.376
  C 6.696 21.024 5.184 21.456 3.672 21.672" stroke="none" fill="rgb(255,255,120)" />
<path d="
  M 13.104 17.640
  L 11.304 15.768
  C 12.888 14.760 14.400 13.392 15.336 11.808
  L 16.560 14.400
  C 15.552 15.696 14.400 16.776 13.104 17.640" stroke="none" fill="rgb(255,255,120)" />
<path d="
  M 19.368 10.296
  L 16.992 9.432
  C 17.928 7.848 18.648 6.120 18.936 4.464
  L 21.024 6.120
  C 20.736 7.416 20.232 8.928 19.368 10.296" stroke="none" fill="rgb(255,255,120)" />
<path d="
  M 19.152 -3.456
  L 16.488 -4.032
  C 17.064 -1.944 17.136 0.144 16.776 2.160
  L 19.368 1.872
  C 19.656 0.072 19.584 -1.656 19.152 -3.456" stroke="none" fill="rgb(255,255,131)" />
<path d="
  M 18.360 -6.264
  L 16.272 -4.824
  C 15.696 -7.128 14.472 -9.360 12.672 -11.232
  L 15.480 -11.808
  C 16.848 -10.152 17.856 -8.208 18.360 -6.264" stroke="none" fill="rgb(255,255,131)" />
<path d="
  M 13.680 -13.896
  L 12.312 -11.592
  C 11.016 -13.248 9.360 -14.544 7.488 -15.192
  L 9.504 -16.920
  C 11.088 -16.200 12.456 -15.192 13.680 -13.896" stroke="none" fill="rgb(255,255,131)" />
<path d="
  M 6.768 -18.288
  L 6.480 -15.696
  C 4.896 -16.488 3.168 -16.920 1.512 -16.920
  L 2.520 -19.296
  C 3.960 -19.296 5.400 -18.864 6.768 -18.288" stroke="none" fill="rgb(255,255,131)" />
<path d="
  M -1.080 -19.512
  L -0.216 -17.136
  C -2.160 -17.136 -4.176 -16.704 -6.192 -15.840
  L -6.264 -18.432
  C -4.536 -19.080 -2.880 -19.512 -1.080 -19.512" stroke="none" fill="rgb(255,255,131)" />
<path d="
  M -9.720 -16.776
  L -7.920 -14.976
  C -9.432 -14.400 -10.872 -13.320 -12.024 -12.024
  L -13.320 -14.184
  C -12.240 -15.336 -11.016 -16.200 -9.720 -16.776" stroke="none" fill="rgb(255,255,131)" />
<path d="
  M -16.344 -10.728
  L -13.752 -10.008
  C -15.048 -8.424 -15.840 -6.768 -16.200 -4.896
  L -18.432 -6.336
  C -18.000 -7.848 -17.280 -9.360 -16.344 -10.728" stroke="none" fill="rgb(255,255,131)" />
<path d="
  M -19.440 -2.304
  L -16.848 -2.736
  C -17.208 -0.936 -17.208 0.864 -16.848 2.664
  L -19.440 2.232
  C -19.584 0.648 -19.584 -0.864 -19.440 -2.304" stroke="none" fill="rgb(255,255,131)" />
<path d="
  M -18.432 6.336
  L -16.200 4.896
  C -15.840 6.624 -15.048 8.280 -13.824 9.792
  L -16.416 10.512
  C -17.424 9.144 -18.144 7.704 -18.432 6.336" stroke="none" fill="rgb(255,255,131)" />
<path d="
  M -13.752 13.896
  L -12.312 11.664
  C -11.016 13.104 -9.576 14.256 -7.848 14.976
  L -9.936 16.704
  C -11.376 15.984 -12.600 15.120 -13.752 13.896" stroke="none" fill="rgb(255,255,131)" />
<path d="
  M -5.832 18.504
  L -5.688 15.984
  C -3.672 16.776 -1.656 17.064 0.288 17.064
  L -0.792 19.440
  C -2.448 19.440 -4.176 19.152 -5.832 18.504" stroke="none" fill="rgb(255,255,131)" />
<path d="
  M 3.024 19.296
  L 2.088 16.776
  C 4.392 16.704 6.480 15.984 8.496 14.688
  L 8.352 17.568
  C 6.696 18.504 4.824 19.080 3.024 19.296" stroke="none" fill="rgb(255,255,131)" />
<path d="
  M 11.304 15.768
  L 9.576 13.968
  C 11.520 12.816 13.104 11.232 14.184 9.288
  L 15.336 11.808
  C 14.400 13.392 12.888 14.760 11.304 15.768" stroke="none" fill="rgb(255,255,131)" />
<path d="
  M 16.992 9.432
  L 14.688 8.496
  C 15.840 6.624 16.560 4.608 16.776 2.664
  L 18.936 4.464
  C 18.648 6.120 17.928 7.848 16.992 9.432" stroke="none" fill="rgb(255,255,131)" />
<path d="
  M 16.488 -4.032
  L 15.336 -4.248
  L 16.272 -4.824
  C 15.696 -7.128 14.472 -9.360 12.672 -11.232
  L 11.880 -11.016
  L 12.312 -11.592
  C 11.016 -13.248 9.360 -14.544 7.488 -15.192
  L 6.408 -14.328
  L 6.480 -15.696
  C 4.896 -16.488 3.168 -16.920 1.512 -16.920
  L 0.720 -14.904
  L -0.216 -17.136
  C -2.160 -17.136 -4.176 -16.704 -6.192 -15.840
  L -6.048 -13.320
  C 0.000 -16.200 7.272 -14.400 11.376 -9.216
  C 15.552 -4.104 15.768 3.312 11.808 8.712
  C 7.848 14.112 0.792 16.056 -5.472 13.608
  L -5.688 15.984
  C -3.672 16.776 -1.656 17.064 0.288 17.064
  L 1.368 14.616
  L 2.088 16.776
  C 4.392 16.704 6.480 15.984 8.496 14.688
  L 8.568 12.888
  L 9.576 13.968
  C 11.520 12.816 13.104 11.232 14.184 9.288
  L 13.680 8.136
  L 14.688 8.496
  C 15.840 6.624 16.560 4.608 16.776 2.664
  L 16.272 2.232
  L 16.776 2.160
  C 17.136 0.144 17.064 -1.944 16.488 -4.032" stroke="none" fill="rgb(255,255,141)" />
<path d="
  M -7.920 -14.976
  L -6.192 -13.320
  C -7.920 -12.528 -9.576 -11.448 -10.728 -9.864
  L -12.024 -12.024
  C -10.872 -13.320 -9.432 -14.400 -7.920 -14.976" stroke="none" fill="rgb(255,255,141)" />
<path d="
  M -13.752 -10.008
  L -11.160 -9.360
  C -12.744 -7.776 -13.824 -5.688 -14.256 -3.528
  L -16.200 -4.896
  C -15.840 -6.768 -15.048 -8.424 -13.752 -10.008" stroke="none" fill="rgb(255,255,141)" />
<path d="
  M -16.848 -2.736
  L -14.400 -3.024
  C -14.832 -1.080 -14.832 0.936 -14.400 2.952
  L -16.848 2.664
  C -17.208 0.864 -17.208 -0.936 -16.848 -2.736" stroke="none" fill="rgb(255,255,141)" />
<path d="
  M -16.200 4.896
  L -14.256 3.600
  C -13.752 5.616 -12.744 7.632 -11.376 9.216
  L -13.824 9.792
  C -15.048 8.280 -15.840 6.624 -16.200 4.896" stroke="none" fill="rgb(255,255,141)" />
<path d="
  M -12.312 11.664
  L -10.944 9.576
  C -9.648 11.304 -7.848 12.600 -5.832 13.392
  L -7.848 14.976
  C -9.576 14.256 -11.016 13.104 -12.312 11.664" stroke="none" fill="rgb(255,255,141)" />
<path d="
  M 12.168 -0.072
  C 12.168 -6.624 6.696 -12.240 0.000 -12.240
  C -6.696 -12.240 -12.240 -6.624 -12.240 -0.072
  C -12.240 6.624 -6.696 12.168 0.000 12.168
  C 6.696 12.168 12.168 6.624 12.168 -0.072" stroke="none" fill="rgb(255,255,151)" />
<path d="
  M -6.048 -13.320
  L -6.048 -13.248
  L -6.192 -13.320
  C -7.920 -12.528 -9.576 -11.448 -10.728 -9.864
  L -10.368 -9.144
  L -11.160 -9.360
  C -12.744 -7.776 -13.824 -5.688 -14.256 -3.528
  L -13.608 -3.168
  L -14.400 -3.024
  C -14.832 -1.080 -14.832 0.936 -14.400 2.952
  L -13.464 3.168
  L -14.256 3.600
  C -13.752 5.616 -12.744 7.632 -11.376 9.216
  L -10.656 9.000
  L -10.944 9.576
  C -9.648 11.304 -7.848 12.600 -5.832 13.392
  L -5.472 13.104
  L -5.472 13.608
  C 0.792 16.056 7.848 14.112 11.808 8.712
  C 15.768 3.312 15.552 -4.104 11.376 -9.216
  C 7.272 -14.400 0.000 -16.200 -6.048 -13.320" stroke="none" fill="rgb(255,255,151)" />
<path d="
  M 12.168 -0.072
  C 12.168 -6.624 6.696 -12.240 0.000 -12.240
  C -6.696 -12.240 -12.240 -6.624 -12.240 -0.072
  C -12.240 6.624 -6.696 12.168 0.000 12.168
  C 6.696 12.168 12.168 6.624 12.168 -0.072" stroke="none" fill="rgb(255,255,164)" />
<path d="
  M 9.720 -0.072
  C 9.720 -5.400 5.400 -9.720 0.000 -9.720
  C -5.400 -9.720 -9.720 -5.400 -9.720 -0.072
  C -9.720 5.328 -5.400 9.720 0.000 9.720
  C 5.400 9.720 9.720 5.328 9.720 -0.072" stroke="none" fill="rgb(255,255,164)" />
<path d="
  M 9.720 -0.072
  C 9.720 -5.400 5.400 -9.720 0.000 -9.720
  C -5.400 -9.720 -9.720 -5.400 -9.720 -0.072
  C -9.720 5.328 -5.400 9.720 0.000 9.720
  C 5.400 9.720 9.720 5.328 9.720 -0.072" stroke="none" fill="rgb(255,255,174)" />
<path d="
  M 7.344 -0.072
  C 7.344 -4.032 3.960 -7.344 0.000 -7.344
  C -3.960 -7.344 -7.344 -4.032 -7.344 -0.072
  C -7.344 3.960 -3.960 7.344 0.000 7.344
  C 3.960 7.344 7.344 3.960 7.344 -0.072" stroke="none" fill="rgb(255,255,174)" />
<path d="
  M 7.344 -0.072
  C 7.344 -4.032 3.960 -7.344 0.000 -7.344
  C -3.960 -7.344 -7.344 -4.032 -7.344 -0.072
  C -7.344 3.960 -3.960 7.344 0.000 7.344
  C 3.960 7.344 7.344 3.960 7.344 -0.072" stroke="none" fill="rgb(255,255,184)" />
<path d="
  M 4.896 -0.072
  C 4.896 -2.736 2.664 -4.896 0.000 -4.896
  C -2.664 -4.896 -4.896 -2.736 -4.896 -0.072
  C -4.896 2.664 -2.664 4.824 0.000 4.824
  C 2.664 4.824 4.896 2.664 4.896 -0.072" stroke="none" fill="rgb(255,255,184)" />
<path d="
  M 4.896 -0.072
  C 4.896 -2.736 2.664 -4.896 0.000 -4.896
  C -2.664 -4.896 -4.896 -2.736 -4.896 -0.072
  C -4.896 2.664 -2.664 4.824 0.000 4.824
  C 2.664 4.824 4.896 2.664 4.896 -0.072" stroke="none" fill="rgb(255,255,194)" />
<path d="
  M 2.376 -0.072
  C 2.376 -1.368 1.296 -2.448 0.000 -2.448
  C -1.296 -2.448 -2.376 -1.368 -2.376 -0.072
  C -2.376 1.224 -1.296 2.376 0.000 2.376
  C 1.296 2.376 2.376 1.224 2.376 -0.072" stroke="none" fill="rgb(255,255,194)" />
<path d="
  M 2.376 -0.072
  C 2.376 -1.368 1.296 -2.448 0.000 -2.448
  C -1.296 -2.448 -2.376 -1.368 -2.376 -0.072
  C -2.376 1.224 -1.296 2.376 0.000 2.376
  C 1.296 2.376 2.376 1.224 2.376 -0.072" stroke="none" fill="rgb(255,255,204)" />
</g>
<path d="
  M -21.384 -28.080
  L -6.048 -13.248
  L -6.984 -34.128
  L 0.720 -14.904
  L 8.352 -33.624
  L 6.408 -14.328
  L 22.176 -27.288
  L 11.880 -11.016
  L 31.824 -15.408
  L 15.336 -4.248
  L 35.280 -0.216
  L 16.272 2.232
  L 32.688 15.480
  L 13.680 8.136
  L 22.536 27.432
  L 8.568 12.888
  L 7.776 33.768
  L 1.368 14.616
  L -7.128 34.128
  L -5.472 13.104
  L -21.024 25.416
  L -10.656 9.000
  L -30.888 14.184
  L -13.464 3.168
  L -35.352 -0.216
  L -13.608 -3.168
  L -30.240 -14.544
  L -10.368 -9.144
  L -21.384 -28.080" stroke="rgb(0,0,0)" stroke-width="0.504" fill="none" />
<g>
<path d="
  M 20.016 0.936
  C 20.016 -9.360 11.592 -17.784 1.296 -17.784
  C -9.072 -17.784 -17.496 -9.360 -17.496 0.936
  C -17.496 11.304 -9.072 19.800 1.296 19.800
  C 11.592 19.800 20.016 11.304 20.016 0.936" stroke="none" fill="rgb(255,255,54)" />
<path d="
  M 1.224 -18.072
  C 11.664 -18.072 20.232 -9.504 20.232 0.936
  C 20.232 11.520 11.664 20.088 1.224 20.088
  C -9.144 20.088 -17.712 11.520 -17.712 0.936
  C -17.712 -9.504 -9.144 -18.072 1.224 -18.072" stroke="none" fill="rgb(255,255,54)" />
<path d="
  M 20.016 0.936
  C 20.016 -9.360 11.592 -17.784 1.296 -17.784
  C -9.072 -17.784 -17.496 -9.360 -17.496 0.936
  C -17.496 11.304 -9.072 19.800 1.296 19.800
  C 11.592 19.800 20.016 11.304 20.016 0.936" stroke="none" fill="rgb(255,255,67)" />
<path d="
  M 18.720 0.936
  C 18.720 -8.640 10.872 -16.488 1.296 -16.488
  C -8.352 -16.488 -16.200 -8.640 -16.200 0.936
  C -16.200 10.584 -8.352 18.504 1.296 18.504
  C 10.872 18.504 18.720 10.584 18.720 0.936" stroke="none" fill="rgb(255,255,67)" />
<path d="
  M 18.720 0.936
  C 18.720 -8.640 10.872 -16.488 1.296 -16.488
  C -8.352 -16.488 -16.200 -8.640 -16.200 0.936
  C -16.200 10.584 -8.352 18.504 1.296 18.504
  C 10.872 18.504 18.720 10.584 18.720 0.936" stroke="none" fill="rgb(255,255,77)" />
<path d="
  M 17.352 0.936
  C 17.352 -7.848 10.080 -15.120 1.296 -15.120
  C -7.560 -15.120 -14.832 -7.848 -14.832 0.936
  C -14.832 9.792 -7.560 17.064 1.296 17.064
  C 10.080 17.064 17.352 9.792 17.352 0.936" stroke="none" fill="rgb(255,255,77)" />
<path d="
  M 17.352 0.936
  C 17.352 -7.848 10.080 -15.120 1.296 -15.120
  C -7.560 -15.120 -14.832 -7.848 -14.832 0.936
  C -14.832 9.792 -7.560 17.064 1.296 17.064
  C 10.080 17.064 17.352 9.792 17.352 0.936" stroke="none" fill="rgb(255,255,87)" />
<path d="
  M 16.056 0.936
  C 16.056 -7.128 9.432 -13.824 1.296 -13.824
  C -6.840 -13.824 -13.536 -7.128 -13.536 0.936
  C -13.536 9.144 -6.840 15.768 1.296 15.768
  C 9.432 15.768 16.056 9.144 16.056 0.936" stroke="none" fill="rgb(255,255,87)" />
<path d="
  M 16.056 0.936
  C 16.056 -7.128 9.432 -13.824 1.296 -13.824
  C -6.840 -13.824 -13.536 -7.128 -13.536 0.936
  C -13.536 9.144 -6.840 15.768 1.296 15.768
  C 9.432 15.768 16.056 9.144 16.056 0.936" stroke="none" fill="rgb(255,255,97)" />
<path d="
  M 14.688 0.936
  C 14.688 -6.336 8.640 -12.456 1.296 -12.456
  C -6.048 -12.456 -12.168 -6.336 -12.168 0.936
  C -12.168 8.280 -6.048 14.400 1.296 14.400
  C 8.640 14.400 14.688 8.280 14.688 0.936" stroke="none" fill="rgb(255,255,97)" />
<path d="
  M 14.688 0.936
  C 14.688 -6.336 8.640 -12.456 1.296 -12.456
  C -6.048 -12.456 -12.168 -6.336 -12.168 0.936
  C -12.168 8.280 -6.048 14.400 1.296 14.400
  C 8.640 14.400 14.688 8.280 14.688 0.936" stroke="none" fill="rgb(255,255,108)" />
<path d="
  M 13.248 0.936
  C 13.248 -5.616 7.848 -11.016 1.296 -11.016
  C -5.256 -11.016 -10.728 -5.616 -10.728 0.936
  C -10.728 7.488 -5.256 12.960 1.296 12.960
  C 7.848 12.960 13.248 7.488 13.248 0.936" stroke="none" fill="rgb(255,255,108)" />
<path d="
  M 13.248 0.936
  C 13.248 -5.616 7.848 -11.016 1.296 -11.016
  C -5.256 -11.016 -10.728 -5.616 -10.728 0.936
  C -10.728 7.488 -5.256 12.960 1.296 12.960
  C 7.848 12.960 13.248 7.488 13.248 0.936" stroke="none" fill="rgb(255,255,120)" />
<path d="
  M 11.952 0.936
  C 11.952 -4.896 7.200 -9.720 1.296 -9.720
  C -4.536 -9.720 -9.432 -4.896 -9.432 0.936
  C -9.432 6.840 -4.536 11.664 1.296 11.664
  C 7.200 11.664 11.952 6.840 11.952 0.936" stroke="none" fill="rgb(255,255,120)" />
<path d="
  M 11.952 0.936
  C 11.952 -4.896 7.200 -9.720 1.296 -9.720
  C -4.536 -9.720 -9.432 -4.896 -9.432 0.936
  C -9.432 6.840 -4.536 11.664 1.296 11.664
  C 7.200 11.664 11.952 6.840 11.952 0.936" stroke="none" fill="rgb(255,255,131)" />
<path d="
  M 10.584 0.936
  C 10.584 -4.104 6.408 -8.352 1.296 -8.352
  C -3.744 -8.352 -8.064 -4.104 -8.064 0.936
  C -8.064 6.048 -3.744 10.296 1.296 10.296
  C 6.408 10.296 10.584 6.048 10.584 0.936" stroke="none" fill="rgb(255,255,131)" />
<path d="
  M 10.584 0.936
  C 10.584 -4.104 6.408 -8.352 1.296 -8.352
  C -3.744 -8.352 -8.064 -4.104 -8.064 0.936
  C -8.064 6.048 -3.744 10.296 1.296 10.296
  C 6.408 10.296 10.584 6.048 10.584 0.936" stroke="none" fill="rgb(255,255,141)" />
<path d="
  M 9.360 0.936
  C 9.360 -3.456 5.688 -7.056 1.296 -7.056
  C -3.096 -7.056 -6.768 -3.456 -6.768 0.936
  C -6.768 5.328 -3.096 9.000 1.296 9.000
  C 5.688 9.000 9.360 5.328 9.360 0.936" stroke="none" fill="rgb(255,255,141)" />
<path d="
  M 9.360 0.936
  C 9.360 -3.456 5.688 -7.056 1.296 -7.056
  C -3.096 -7.056 -6.768 -3.456 -6.768 0.936
  C -6.768 5.328 -3.096 9.000 1.296 9.000
  C 5.688 9.000 9.360 5.328 9.360 0.936" stroke="none" fill="rgb(255,255,151)" />
<path d="
  M 7.992 0.936
  C 7.992 -2.736 4.968 -5.688 1.296 -5.688
  C -2.376 -5.688 -5.400 -2.736 -5.400 0.936
  C -5.400 4.608 -2.376 7.632 1.296 7.632
  C 4.968 7.632 7.992 4.608 7.992 0.936" stroke="none" fill="rgb(255,255,151)" />
<path d="
  M 7.992 0.936
  C 7.992 -2.736 4.968 -5.688 1.296 -5.688
  C -2.376 -5.688 -5.400 -2.736 -5.400 0.936
  C -5.400 4.608 -2.376 7.632 1.296 7.632
  C 4.968 7.632 7.992 4.608 7.992 0.936" stroke="none" fill="rgb(255,255,164)" />
<path d="
  M 6.696 0.936
  C 6.696 -1.944 4.176 -4.464 1.296 -4.464
  C -1.584 -4.464 -4.104 -1.944 -4.104 0.936
  C -4.104 3.816 -1.584 6.336 1.296 6.336
  C 4.176 6.336 6.696 3.816 6.696 0.936" stroke="none" fill="rgb(255,255,164)" />
<path d="
  M 6.696 0.936
  C 6.696 -1.944 4.176 -4.464 1.296 -4.464
  C -1.584 -4.464 -4.104 -1.944 -4.104 0.936
  C -4.104 3.816 -1.584 6.336 1.296 6.336
  C 4.176 6.336 6.696 3.816 6.696 0.936" stroke="none" fill="rgb(255,255,174)" />
<path d="
  M 5.256 0.936
  C 5.256 -1.224 3.528 -3.024 1.296 -3.024
  C -0.864 -3.024 -2.664 -1.224 -2.664 0.936
  C -2.664 3.168 -0.864 4.896 1.296 4.896
  C 3.528 4.896 5.256 3.168 5.256 0.936" stroke="none" fill="rgb(255,255,174)" />
<path d="
  M 5.256 0.936
  C 5.256 -1.224 3.528 -3.024 1.296 -3.024
  C -0.864 -3.024 -2.664 -1.224 -2.664 0.936
  C -2.664 3.168 -0.864 4.896 1.296 4.896
  C 3.528 4.896 5.256 3.168 5.256 0.936" stroke="none" fill="rgb(255,255,184)" />
<path d="
  M 3.960 0.936
  C 3.960 -0.432 2.664 -1.728 1.296 -1.728
  C -0.072 -1.728 -1.368 -0.432 -1.368 0.936
  C -1.368 2.376 -0.072 3.600 1.296 3.600
  C 2.664 3.600 3.960 2.376 3.960 0.936" stroke="none" fill="rgb(255,255,184)" />
<path d="
  M 3.960 0.936
  C 3.960 -0.432 2.664 -1.728 1.296 -1.728
  C -0.072 -1.728 -1.368 -0.432 -1.368 0.936
  C -1.368 2.376 -0.072 3.600 1.296 3.600
  C 2.664 3.600 3.960 2.376 3.960 0.936" stroke="none" fill="rgb(255,255,194)" />
<path d="
  M 2.592 0.936
  C 2.592 0.216 2.016 -0.360 1.296 -0.360
  C 0.576 -0.360 0.000 0.216 0.000 0.936
  C 0.000 1.656 0.576 2.232 1.296 2.232
  C 2.016 2.232 2.592 1.656 2.592 0.936" stroke="none" fill="rgb(255,255,194)" />
<path d="
  M 2.592 0.936
  C 2.592 0.216 2.016 -0.360 1.296 -0.360
  C 0.576 -0.360 0.000 0.216 0.000 0.936
  C 0.000 1.656 0.576 2.232 1.296 2.232
  C 2.016 2.232 2.592 1.656 2.592 0.936" stroke="none" fill="rgb(255,255,204)" />
</g>
<circle cx="1.224" cy="1.008" r="18.972" stroke="rgb(0,0,0)" stroke-width="0.504" fill="none" />
</g>
</svg>
