<?xml version="1.0" encoding="ISO-8859-1"?><!DOCTYPE svg PUBLIC "-//W3C//DTD SVG 1.1//EN" "http://www.w3.org/Graphics/SVG/1.1/DTD/svg11.dtd"><svg version="1.1" baseProfile="full" width="100%" height="100%" viewBox="-30.600 -31.536 61.272 59.184" xmlns="http://www.w3.org/2000/svg" xmlns:xlink="http://www.w3.org/1999/xlink">
<g>
<path d=" M -18.504 -22.464 L -5.256 -9.576 -5.976 -27.648 0.648 -11.016 7.272 -27.288 5.544 -10.512 19.296 -21.744 10.440 -7.704 27.720 -11.448 13.464 -1.656 30.672 1.728 14.184 3.888 28.440 15.336 11.952 8.928 19.656 25.704 7.416 13.032 6.768 31.320 1.224 14.544 -6.192 31.536 -4.680 13.248 -18.144 24.048 -9.144 9.720 -26.712 14.184 -11.592 4.608 -30.600 1.728 -11.736 -0.792 -26.208 -10.728 -8.928 -5.976 -18.504 -22.464" stroke="rgb(0,0,0)" stroke-width="0.360" fill="rgb(255,255,255)" />
<circle cx="1.080" cy="2.664" r="16.488" stroke="rgb(0,0,0)" stroke-width="0.432" fill="rgb(255,255,255)" />
</g>
</svg>
