<?xml version="1.0" encoding="ISO-8859-1"?><!DOCTYPE svg PUBLIC "-//W3C//DTD SVG 1.1//EN" "http://www.w3.org/Graphics/SVG/1.1/DTD/svg11.dtd"><svg version="1.1" baseProfile="full" width="100%" height="100%" viewBox="-14.904 -17.496 29.664 35.064" xmlns="http://www.w3.org/2000/svg" xmlns:xlink="http://www.w3.org/1999/xlink">
<path d=" M 14.688 15.120 C 12.096 11.088 10.584 5.472 10.584 -0.072 C 10.584 -5.544 12.096 -11.160 14.688 -15.264 L 14.760 -16.920 L 14.256 -17.568 L 12.888 -17.424 C 10.008 -12.672 8.208 -6.336 8.208 -0.072 C 8.208 6.192 10.008 12.600 12.888 17.208 L 14.256 17.352 L 14.760 16.704 L 14.688 15.120Z" />
<path d=" M -14.832 -15.192 C -12.240 -11.088 -10.728 -5.472 -10.728 -0.000 C -10.728 5.544 -12.240 11.160 -14.832 15.264 L -14.904 16.848 L -14.400 17.496 L -13.032 17.424 C -10.152 12.672 -8.352 6.264 -8.352 -0.000 C -8.352 -6.264 -10.152 -12.600 -13.032 -17.352 L -14.400 -17.424 L -14.904 -16.776 L -14.832 -15.192Z" />
<circle cx="0" cy="0" r="5.400"/>
</svg>
