<?xml version="1.0" encoding="ISO-8859-1"?><!DOCTYPE svg PUBLIC "-//W3C//DTD SVG 1.1//EN" "http://www.w3.org/Graphics/SVG/1.1/DTD/svg11.dtd"><svg version="1.1" baseProfile="full" width="100%" height="100%" viewBox="-14.400 -14.400 27.360 28.800" xmlns="http://www.w3.org/2000/svg" xmlns:xlink="http://www.w3.org/1999/xlink">
<path d=" M -12.240 -10.800 C -12.240 -11.592 -11.592 -12.240 -10.800 -12.240 C -10.008 -12.240 -9.360 -11.592 -9.360 -10.800 C -9.360 -8.856 -7.704 -7.200 -5.760 -7.200 C -3.816 -7.200 -2.160 -8.856 -2.160 -10.800 C -2.160 -11.592 -1.512 -12.240 -0.720 -12.240 C 0.072 -12.240 0.720 -11.592 0.720 -10.800 C 0.720 -8.856 2.376 -7.200 4.320 -7.200 C 6.264 -7.200 7.920 -8.856 7.920 -10.800 C 7.920 -11.592 8.568 -12.240 9.360 -12.240 C 10.152 -12.240 10.800 -11.592 10.800 -10.800 C 10.800 -10.224 11.304 -9.720 11.880 -9.720 C 12.456 -9.720 12.960 -10.224 12.960 -10.800 C 12.960 -12.744 11.304 -14.400 9.360 -14.400 C 7.416 -14.400 5.760 -12.744 5.760 -10.800 C 5.760 -10.008 5.112 -9.360 4.320 -9.360 C 3.528 -9.360 2.880 -10.008 2.880 -10.800 C 2.880 -12.744 1.224 -14.400 -0.720 -14.400 C -2.664 -14.400 -4.320 -12.744 -4.320 -10.800 C -4.320 -10.008 -4.968 -9.360 -5.760 -9.360 C -6.552 -9.360 -7.200 -10.008 -7.200 -10.800 C -7.200 -12.744 -8.856 -14.400 -10.800 -14.400 C -12.744 -14.400 -14.400 -12.744 -14.400 -10.800 L -12.240 -10.800" stroke="none" />
<path d=" M -12.960 14.400 L -12.240 13.680 -12.240 -10.800 -14.400 -10.800 -14.400 13.680 -13.680 14.400 -12.960 14.400" stroke="none" />
</svg>
