<?xml version="1.0" encoding="ISO-8859-1"?><!DOCTYPE svg PUBLIC "-//W3C//DTD SVG 1.1//EN" "http://www.w3.org/Graphics/SVG/1.1/DTD/svg11.dtd"><svg version="1.1" baseProfile="full" width="100%" height="100%" viewBox="-7.920 -22.320 15.840 44.640" xmlns="http://www.w3.org/2000/svg" xmlns:xlink="http://www.w3.org/1999/xlink">
<path d=" M -7.920 -15.480 L -7.200 -16.200 7.200 -16.200 7.920 -15.480 7.920 -14.760 7.200 -14.040 -7.200 -14.040 -7.920 -14.760 -7.920 -15.480" stroke="none" />
<path d=" M -3.672 -22.176 L -2.736 -21.888 4.464 -9.360 4.248 -8.352 3.672 -8.064 2.736 -8.352 -4.464 -20.880 -4.248 -21.888 -3.672 -22.176" stroke="none" />
<path d=" M -4.320 -8.424 L -4.536 -9.432 2.664 -21.816 3.600 -22.104 4.320 -21.816 4.536 -20.808 -2.664 -8.424 -3.600 -8.136 -4.320 -8.424" stroke="none" />
<circle cx="0" cy="0" r="5.400" stroke="none" />
<path d=" M -7.920 14.760 L -7.200 14.040 7.200 14.040 7.920 14.760 7.920 15.480 7.200 16.200 -7.200 16.200 -7.920 15.480 -7.920 14.760" stroke="none" />
<path d=" M -3.672 8.064 L -2.736 8.352 4.464 20.880 4.248 21.888 3.672 22.176 2.736 21.888 -4.464 9.360 -4.248 8.352 -3.672 8.064" stroke="none" />
<path d=" M -4.320 21.816 L -4.536 20.808 2.664 8.424 3.600 8.136 4.320 8.424 4.536 9.432 -2.664 21.816 -3.600 22.104 -4.320 21.816" stroke="none" />
</svg>
