<?xml version="1.0" encoding="ISO-8859-1"?><!DOCTYPE svg PUBLIC "-//W3C//DTD SVG 1.1//EN" "http://www.w3.org/Graphics/SVG/1.1/DTD/svg11.dtd"><svg version="1.1" baseProfile="full" width="100%" height="100%" viewBox="-17.496 -15.480 32.400 33.984" xmlns="http://www.w3.org/2000/svg" xmlns:xlink="http://www.w3.org/1999/xlink">
<g>
<path d="
  M 14.544 13.536
  C 12.096 10.944 10.152 6.984 9.432 2.952
  C 8.640 -1.008 9.000 -5.400 10.440 -8.712
  L 10.296 -10.008
  L 9.792 -10.368
  L 8.784 -10.008
  C 7.200 -6.192 6.768 -1.296 7.776 3.240
  C 8.568 7.704 10.656 12.312 13.464 15.336
  L 14.544 15.192
  L 14.904 14.760
  L 14.544 13.536Z" />
<path d="
  M 8.568 -8.496
  C 9.864 -5.112 10.152 -0.792 9.792 2.880
  C 9.216 6.912 7.416 10.944 5.040 13.752
  L 4.752 14.760
  L 4.824 15.336
  L 6.048 15.480
  C 8.784 12.312 10.944 7.704 11.592 3.312
  C 12.024 -1.008 11.664 -5.976 10.152 -9.792
  L 8.928 -10.080
  L 8.640 -9.792
  L 8.568 -8.496Z" />
</g>
<path d="
  M -7.416 14.688
  L -7.560 13.752
  L 5.760 -14.760
  L 6.624 -15.120
  L 7.416 -14.688
  L 7.560 -13.752
  L -5.760 14.760
  L -6.624 15.120
  L -7.416 14.688Z" />
<g>
<path d="
  M -15.408 -4.752
  C -16.776 -6.120 -17.496 -8.064 -17.352 -10.008
  C -17.064 -13.680 -13.680 -16.560 -10.080 -16.272
  C -8.496 -16.128 -6.984 -15.408 -5.904 -14.328
  C -5.688 -14.040 -5.616 -13.680 -5.616 -13.464
  C -5.616 -12.816 -6.192 -12.384 -6.768 -12.456
  C -6.984 -12.456 -7.272 -12.600 -7.416 -12.816
  C -8.208 -13.464 -9.288 -14.040 -10.296 -14.112
  C -12.744 -14.328 -14.976 -12.384 -15.192 -9.864
  C -15.336 -8.568 -14.760 -7.200 -13.824 -6.264
  L -7.344 -0.864
  C -5.976 0.576 -5.184 2.520 -5.400 4.464
  C -5.688 8.136 -9.072 10.944 -12.672 10.584
  C -14.256 10.512 -15.768 9.720 -16.848 8.712
  C -17.064 8.496 -17.136 8.136 -17.136 7.920
  C -17.064 7.272 -16.560 6.840 -15.984 6.840
  C -15.768 6.840 -15.480 6.984 -15.336 7.128
  C -14.544 7.920 -13.464 8.352 -12.456 8.496
  C -10.008 8.712 -7.776 6.840 -7.560 4.320
  C -7.416 3.024 -7.992 1.584 -8.856 0.648
  L -15.408 -4.752Z" />
<path d="
  M -11.664 12.744
  L -12.240 12.240
  L -12.240 -18.000
  L -11.664 -18.504
  L -11.232 -18.504
  L -10.656 -18.000
  L -10.656 12.240
  L -11.232 12.744
  L -11.664 12.744Z" />
</g>
</svg>
