<?xml version="1.0" encoding="ISO-8859-1"?><!DOCTYPE svg PUBLIC "-//W3C//DTD SVG 1.1//EN" "http://www.w3.org/Graphics/SVG/1.1/DTD/svg11.dtd"><svg version="1.1" baseProfile="full" width="100%" height="100%" viewBox="-5.328 -21.960 10.728 43.992" xmlns="http://www.w3.org/2000/svg" xmlns:xlink="http://www.w3.org/1999/xlink">
<path d=" M 3.672 -17.928 C 5.400 -11.880 -0.288 -8.424 -3.384 -6.840 C -2.160 -7.992 0.936 -12.600 -0.216 -13.464 C -2.952 -13.464 -5.328 -17.784 -2.232 -20.088 C 0.000 -22.032 3.024 -20.304 3.672 -17.928Z" />
<path d=" M 3.672 10.872 C 5.400 16.920 -0.288 20.376 -3.384 21.960 C -2.160 20.808 0.936 16.200 -0.216 15.336 C -2.952 15.336 -5.328 11.016 -2.232 8.712 C 0.000 6.768 3.024 8.496 3.672 10.872Z" />
<path d=" M 3.672 -3.528 C 5.400 2.520 -0.288 5.976 -3.384 7.560 C -2.160 6.408 0.936 1.800 -0.216 0.936 C -2.952 0.936 -5.328 -3.384 -2.232 -5.688 C 0.000 -7.632 3.024 -5.904 3.672 -3.528Z" />
</svg>
