<?xml version="1.0" encoding="ISO-8859-1"?><!DOCTYPE svg PUBLIC "-//W3C//DTD SVG 1.1//EN" "http://www.w3.org/Graphics/SVG/1.1/DTD/svg11.dtd"><svg version="1.1" baseProfile="full" width="100%" height="100%" viewBox="-13.320 -22.320 26.640 44.640" xmlns="http://www.w3.org/2000/svg" xmlns:xlink="http://www.w3.org/1999/xlink">
<path d=" M 0.000 -8.352 L 7.848 -8.352 0.000 -22.032 -7.848 -8.352 0.000 -8.352 0.000 -9.792 -5.328 -9.792 0.000 -19.152 5.328 -9.792 0.000 -9.792 0.000 -8.352Z" stroke="none" />
<path d=" M 12.384 -3.960 L 13.104 -4.680 13.104 -5.400 12.384 -6.120 -12.456 -6.120 -13.176 -5.400 -13.176 -4.680 -12.456 -3.960 -9.576 -3.960 -9.576 21.312 -8.856 22.032 -8.136 22.032 -7.416 21.312 -7.416 -3.960 12.384 -3.960Z" stroke="none" />
<path d=" M 12.384 -4.968 L 12.384 -3.960 4.536 3.888 13.104 12.600 5.616 20.088 4.608 20.088 4.104 19.584 4.104 18.576 10.080 12.600 1.440 3.816 10.800 -5.544 11.880 -5.472 12.384 -4.968Z" stroke="none" />
<path d=" M 2.088 22.032 L 5.184 13.896 4.680 19.440 10.224 18.936 2.088 22.032Z" stroke="none" />
</svg>
