<?xml version="1.0" encoding="ISO-8859-1"?><!DOCTYPE svg PUBLIC "-//W3C//DTD SVG 1.1//EN" "http://www.w3.org/Graphics/SVG/1.1/DTD/svg11.dtd"><svg version="1.1" baseProfile="full" width="100%" height="100%" viewBox="-14.400 -18.000 33.120 32.400" xmlns="http://www.w3.org/2000/svg" xmlns:xlink="http://www.w3.org/1999/xlink">
<path d=" M -14.400 1.800 L -13.680 1.080 13.680 1.080 14.400 1.800 14.400 2.520 13.680 3.240 -13.680 3.240 -14.400 2.520 -14.400 1.800Z" stroke="none" />
<path d=" M -14.400 -2.520 L -13.680 -3.240 13.680 -3.240 14.400 -2.520 14.400 -1.800 13.680 -1.080 -13.680 -1.080 -14.400 -1.800 -14.400 -2.520Z" stroke="none" />
<path d=" M 18.360 -0.000 L 10.440 5.760 14.760 -0.000 10.440 -5.760 18.360 -0.000Z" stroke="none" />
<path d=" M -0.360 14.400 L -1.080 13.680 -1.080 -13.680 -0.360 -14.400 0.360 -14.400 1.080 -13.680 1.080 13.680 0.360 14.400 -0.360 14.400Z" stroke="none" />
<path d=" M 0.000 17.640 L -5.760 9.720 0.000 14.040 5.760 9.720 0.000 17.640Z" stroke="none" />
</svg>
