<?xml version="1.0" encoding="ISO-8859-1"?><!DOCTYPE svg PUBLIC "-//W3C//DTD SVG 1.1//EN" "http://www.w3.org/Graphics/SVG/1.1/DTD/svg11.dtd"><svg version="1.1" baseProfile="full" width="100%" height="100%" viewBox="-16.560 -7.200 33.120 14.400" xmlns="http://www.w3.org/2000/svg" xmlns:xlink="http://www.w3.org/1999/xlink">
<path d=" M 0.720 -0.360 L 1.440 -1.080 15.840 -1.080 16.560 -0.360 16.560 0.360 15.840 1.080 1.440 1.080 0.720 0.360 0.720 -0.360" stroke="none" />
<path d=" M 4.968 -7.056 L 5.904 -6.768 13.104 5.760 12.888 6.768 12.312 7.056 11.376 6.768 4.176 -5.760 4.392 -6.768 4.968 -7.056" stroke="none" />
<path d=" M 4.320 6.696 L 4.104 5.688 11.304 -6.696 12.240 -6.984 12.960 -6.696 13.176 -5.688 5.976 6.696 5.040 6.984 4.320 6.696" stroke="none" />
<path d=" M -16.560 -0.360 L -15.840 -1.080 -1.440 -1.080 -0.720 -0.360 -0.720 0.360 -1.440 1.080 -15.840 1.080 -16.560 0.360 -16.560 -0.360" stroke="none" /> 
<path d=" M -12.312 -7.056 L -11.376 -6.768 -4.176 5.760 -4.392 6.768 -4.968 7.056 -5.904 6.768 -13.104 -5.760 -12.888 -6.768 -12.312 -7.056" stroke="none" />
<path d=" M -12.960 6.696 L -13.176 5.688 -5.976 -6.696 -5.040 -6.984 -4.320 -6.696 -4.104 -5.688 -11.304 6.696 -12.240 6.984 -12.960 6.696" stroke="none" />
</svg>
