<?xml version="1.0" encoding="ISO-8859-1"?><!DOCTYPE svg PUBLIC "-//W3C//DTD SVG 1.1//EN" "http://www.w3.org/Graphics/SVG/1.1/DTD/svg11.dtd"><svg version="1.1" baseProfile="full" width="100%" height="100%" viewBox="-7.920 -18.000 20.160 36.000" xmlns="http://www.w3.org/2000/svg" xmlns:xlink="http://www.w3.org/1999/xlink">
<path d=" M 7.200 -18.000 L 7.200 -18.000 12.240 -18.000 12.240 18.000 7.200 18.000 6.480 17.280 6.480 16.560 7.200 15.840 10.080 15.840 10.080 -15.840 7.200 -15.840 6.480 -16.560 6.480 -17.280 7.200 -18.000Z" />
<g>
<path d=" M -7.920 -0.360 L -7.200 -1.080 7.200 -1.080 7.920 -0.360 7.920 0.360 7.200 1.080 -7.200 1.080 -7.920 0.360 -7.920 -0.360Z" />
<path d=" M -3.672 -7.056 L -2.736 -6.768 4.464 5.760 4.248 6.768 3.672 7.056 2.736 6.768 -4.464 -5.760 -4.248 -6.768 -3.672 -7.056Z" />
<path d=" M -4.320 6.696 L -4.536 5.688 2.664 -6.696 3.600 -6.984 4.320 -6.696 4.536 -5.688 -2.664 6.696 -3.600 6.984 -4.320 6.696Z" />
</g>
</svg>
