<?xml version="1.0" encoding="ISO-8859-1"?><!DOCTYPE svg PUBLIC "-//W3C//DTD SVG 1.1//EN" "http://www.w3.org/Graphics/SVG/1.1/DTD/svg11.dtd"><svg version="1.1" baseProfile="full" width="100%" height="100%" viewBox="-17.280 -22.320 34.560 44.640" xmlns="http://www.w3.org/2000/svg" xmlns:xlink="http://www.w3.org/1999/xlink">
<path d=" M -7.920 -15.480 L -7.200 -16.200 7.200 -16.200 7.920 -15.480 7.920 -14.760 7.200 -14.040 -7.200 -14.040 -7.920 -14.760 -7.920 -15.480" stroke="none" />
<path d=" M -7.920 14.760 L -7.200 14.040 7.200 14.040 7.920 14.760 7.920 15.480 7.200 16.200 -7.200 16.200 -7.920 15.480 -7.920 14.760" stroke="none" />
<path d=" M -17.280 -0.360 L -16.560 -1.080 -2.160 -1.080 -1.440 -0.360 -1.440 0.360 -2.160 1.080 -16.560 1.080 -17.280 0.360 -17.280 -0.360" stroke="none" />
<path d=" M 1.440 -0.360 L 2.160 -1.080 16.560 -1.080 17.280 -0.360 17.280 0.360 16.560 1.080 2.160 1.080 1.440 0.360 1.440 -0.360" stroke="none" />
<path d=" M -3.672 -22.176 L -2.736 -21.888 4.464 -9.360 4.248 -8.352 3.672 -8.064 2.736 -8.352 -4.464 -20.880 -4.248 -21.888 -3.672 -22.176" stroke="none" />
<path d=" M -3.672 8.064 L -2.736 8.352 4.464 20.880 4.248 21.888 3.672 22.176 2.736 21.888 -4.464 9.360 -4.248 8.352 -3.672 8.064" stroke="none" />
<path d=" M -13.032 -7.056 L -12.096 -6.768 -4.896 5.760 -5.112 6.768 -5.688 7.056 -6.624 6.768 -13.824 -5.760 -13.608 -6.768 -13.032 -7.056" stroke="none" />
<path d=" M 5.688 -7.056 L 6.624 -6.768 13.824 5.760 13.608 6.768 13.032 7.056 12.096 6.768 4.896 -5.760 5.112 -6.768 5.688 -7.056" stroke="none" />
<path d=" M -4.320 -8.424 L -4.536 -9.432 2.664 -21.816 3.600 -22.104 4.320 -21.816 4.536 -20.808 -2.664 -8.424 -3.600 -8.136 -4.320 -8.424" stroke="none" />
<path d=" M -4.320 21.816 L -4.536 20.808 2.664 8.424 3.600 8.136 4.320 8.424 4.536 9.432 -2.664 21.816 -3.600 22.104 -4.320 21.816" stroke="none" />
<path d=" M -13.680 6.696 L -13.896 5.688 -6.696 -6.696 -5.760 -6.984 -5.040 -6.696 -4.824 -5.688 -12.024 6.696 -12.960 6.984 -13.680 6.696" stroke="none" />
<path d=" M 5.040 6.696 L 4.824 5.688 12.024 -6.696 12.960 -6.984 13.680 -6.696 13.896 -5.688 6.696 6.696 5.760 6.984 5.040 6.696" stroke="none" />
</svg>
