<?xml version="1.0" encoding="ISO-8859-1"?><!DOCTYPE svg PUBLIC "-//W3C//DTD SVG 1.1//EN" "http://www.w3.org/Graphics/SVG/1.1/DTD/svg11.dtd"><svg version="1.1" baseProfile="full" width="100%" height="100%" viewBox="-13.176 -19.152 53.856 38.952" xmlns="http://www.w3.org/2000/svg" xmlns:xlink="http://www.w3.org/1999/xlink">
<g>
<path d=" M 12.384 -11.952 L 13.104 -12.672 13.104 -13.392 12.384 -14.112 -12.456 -14.112 -13.176 -13.392 -13.176 -12.672 -12.456 -11.952 -9.576 -11.952 -9.576 13.320 -8.856 14.040 -8.136 14.040 -7.416 13.320 -7.416 -11.952 12.384 -11.952Z" />
<path d=" M 12.384 -12.960 L 12.384 -11.952 0.432 -0.000 10.800 10.512 10.800 11.520 10.368 11.952 9.360 11.952 -2.592 -0.144 10.800 -13.536 11.880 -13.464 12.384 -12.960Z" />
<path d=" M 12.888 14.040 L 4.752 10.944 10.296 11.448 9.792 5.904 12.888 14.040Z" /> </g>
<path d=" M 15.840 -18.000 L 15.840 -18.000 20.880 -18.000 20.880 18.000 15.840 18.000 15.120 17.280 15.120 16.560 15.840 15.840 18.720 15.840 18.720 -15.840 15.840 -15.840 15.120 -16.560 15.120 -17.280 15.840 -18.000Z" />
<g>
<path d=" M 22.536 -5.688 L 22.968 -6.120 31.608 -6.120 32.040 -5.688 32.040 -5.256 31.608 -4.824 22.968 -4.824 22.536 -5.256 22.536 -5.688Z" />
<path d=" M 25.056 -9.720 L 25.632 -9.504 29.952 -1.944 29.880 -1.368 29.520 -1.224 28.944 -1.368 24.624 -8.856 24.696 -9.504 25.056 -9.720Z" />
<path d=" M 24.696 -1.440 L 24.552 -2.016 28.872 -9.432 29.448 -9.648 29.880 -9.432 30.024 -8.856 25.704 -1.440 25.128 -1.296 24.696 -1.440Z" />
</g>
<g>
<path d=" M 22.536 -15.768 L 22.968 -16.200 31.608 -16.200 32.040 -15.768 32.040 -15.336 31.608 -14.904 22.968 -14.904 22.536 -15.336 22.536 -15.768Z" />
<path d=" M 25.056 -19.800 L 25.632 -19.584 29.952 -12.024 29.880 -11.448 29.520 -11.304 28.944 -11.448 24.624 -18.936 24.696 -19.584 25.056 -19.800Z" />
<path d=" M 24.696 -11.520 L 24.552 -12.096 28.872 -19.512 29.448 -19.728 29.880 -19.512 30.024 -18.936 25.704 -11.520 25.128 -11.376 24.696 -11.520Z" />
</g>
<path d=" M 36.000 9.072 L 40.680 9.072 36.000 0.864 31.392 9.072 36.000 9.072 36.000 8.208 32.832 8.208 36.000 2.592 39.168 8.208 36.000 8.208 36.000 9.072Z" />
<path d=" M 36.000 19.152 L 40.608 19.152 36.000 10.944 31.392 19.152 36.000 19.152 36.000 18.360 32.904 18.360 36.000 12.672 39.096 18.360 36.000 18.360 36.000 19.152Z" />
<path d=" M 26.712 9.216 L 26.496 8.568 36.792 -9.288 37.512 -9.504 38.088 -9.216 38.232 -8.568 27.936 9.288 27.288 9.504 26.712 9.216Z" />
</svg>
