<?xml version="1.0" encoding="ISO-8859-1"?><!DOCTYPE svg PUBLIC "-//W3C//DTD SVG 1.1//EN" "http://www.w3.org/Graphics/SVG/1.1/DTD/svg11.dtd"><svg version="1.1" baseProfile="full" width="100%" height="100%" viewBox="-7.920 -25.560 15.840 51.120" xmlns="http://www.w3.org/2000/svg" xmlns:xlink="http://www.w3.org/1999/xlink">
<circle cx="0" cy="-19.944" r="5.400" stroke="none" />
<path d=" M -7.920 -5.184 L -7.200 -5.904 7.200 -5.904 7.920 -5.184 7.920 -4.464 7.200 -3.744 -7.200 -3.744 -7.920 -4.464 -7.920 -5.184" stroke="none" />
<path d=" M -3.672 -11.880 L -2.736 -11.592 4.464 0.936 4.248 1.944 3.672 2.232 2.736 1.944  -4.464 -10.584 -4.248 -11.592 -3.672 -11.880" stroke="none" />
<path d=" M -4.320 1.872 L -4.536 0.864 2.664 -11.520 3.600 -11.808 4.320 -11.520 4.536 -10.512 -2.664 1.872 -3.600 2.160 -4.320 1.872" stroke="none" />
<path d=" M 0.000 3.744 L 7.848 3.744 0.000 25.344 -7.848 3.744 0.000 3.744 0.000 5.184 -5.832 5.184 0.000 21.168 5.832 5.184 0.000 5.184 0.000 3.744" stroke="none" />
</svg>
