<?xml version="1.0" encoding="ISO-8859-1"?><!DOCTYPE svg PUBLIC "-//W3C//DTD SVG 1.1//EN" "http://www.w3.org/Graphics/SVG/1.1/DTD/svg11.dtd"><svg version="1.1" baseProfile="full" width="100%" height="100%" viewBox="-7.920 -18.648 20.160 37.296" xmlns="http://www.w3.org/2000/svg" xmlns:xlink="http://www.w3.org/1999/xlink">
<path d=" M 7.200 -18.000 L 7.200 -18.000 12.240 -18.000 12.240 18.000 7.200 18.000 6.480 17.280 6.480 16.560 7.200 15.840 10.080 15.840 10.080 -15.840 7.200 -15.840 6.480 -16.560 6.480 -17.280 7.200 -18.000Z" />
<g>
<path d=" M -7.920 -11.952 L -7.200 -12.672 7.200 -12.672 7.920 -11.952 7.920 -11.232 7.200 -10.512 -7.200 -10.512 -7.920 -11.232 -7.920 -11.952Z" />
<path d=" M -3.672 -18.648 L -2.736 -18.360 4.464 -5.832 4.248 -4.824 3.672 -4.536 2.736 -4.824 -4.464 -17.352 -4.248 -18.360 -3.672 -18.648Z" />
<path d=" M -4.320 -4.896 L -4.536 -5.904 2.664 -18.288 3.600 -18.576 4.320 -18.288 4.536 -17.280 -2.664 -4.896 -3.600 -4.608 -4.320 -4.896Z" />
<path d=" M 0.000 -2.952 L 7.848 -2.952 0.000 18.648 -7.848 -2.952 0.000 -2.952 0.000 -1.512 -5.832 -1.512 0.000 14.472 5.832 -1.512 0.000 -1.512 0.000 -2.952Z" />
</g>
</svg>
