<?xml version="1.0" encoding="ISO-8859-1"?><!DOCTYPE svg PUBLIC "-//W3C//DTD SVG 1.1//EN" "http://www.w3.org/Graphics/SVG/1.1/DTD/svg11.dtd"><svg version="1.1" baseProfile="full" width="100%" height="100%" viewBox="-17.280 -15.120 34.560 30.240" xmlns="http://www.w3.org/2000/svg" xmlns:xlink="http://www.w3.org/1999/xlink">
<path d=" M 1.440 7.560 L 2.160 6.840 16.560 6.840 17.280 7.560 17.280 8.280 16.560 9.000 2.160 9.000 1.440 8.280 1.440 7.560" stroke="none" />
<path d=" M 5.688 0.864 L 6.624 1.152 13.824 13.680 13.608 14.688 13.032 14.976 12.096 14.688 4.896 2.160 5.112 1.152 5.688 0.864" stroke="none" />
<path d=" M 5.040 14.616 L 4.824 13.608 12.024 1.224 12.960 0.936 13.680 1.224 13.896 2.232 6.696 14.616 5.760 14.904 5.040 14.616" stroke="none" />
<path d=" M -17.280 7.560 L -16.560 6.840 -2.160 6.840 -1.440 7.560 -1.440 8.280 -2.160 9.000 -16.560 9.000 -17.280 8.280 -17.280 7.560" stroke="none" />
<path d=" M -7.920 -8.280 L -7.200 -9.000 7.200 -9.000 7.920 -8.280 7.920 -7.560 7.200 -6.840 -7.200 -6.840 -7.920 -7.560 -7.920 -8.280" stroke="none" />
<path d=" M -13.032 0.864 L -12.096 1.152 -4.896 13.680 -5.112 14.688 -5.688 14.976 -6.624 14.688 -13.824 2.160 -13.608 1.152 -13.032 0.864" stroke="none" />
<path d=" M -3.672 -14.976 -2.736 -14.688 4.464 -2.160 4.248 -1.152 3.672 -0.864 2.736 -1.152 -4.464 -13.680 -4.248 -14.688 -3.672 -14.976" stroke="none" />
<path d=" M -13.680 14.616 L -13.896 13.608 -6.696 1.224 -5.760 0.936 -5.040 1.224 -4.824 2.232 -12.024 14.616 -12.960 14.904 -13.680 14.616" stroke="none" />
<path d=" M -4.320 -1.224 L -4.536 -2.232 2.664 -14.616 3.600 -14.904 4.320 -14.616 4.536 -13.608 -2.664 -1.224 -3.600 -0.936 -4.320 -1.224" stroke="none" />
</svg>
