<?xml version="1.0" encoding="ISO-8859-1"?><!DOCTYPE svg PUBLIC "-//W3C//DTD SVG 1.1//EN" "http://www.w3.org/Graphics/SVG/1.1/DTD/svg11.dtd"><svg version="1.1" baseProfile="full" width="100%" height="100%" viewBox="-7.920 -18.000 20.160 36.000" xmlns="http://www.w3.org/2000/svg" xmlns:xlink="http://www.w3.org/1999/xlink">
<path d=" M 7.200 -18.000 L 7.200 -18.000 12.240 -18.000 12.240 18.000 7.200 18.000 6.480 17.280 6.480 16.560 7.200 15.840 10.080 15.840 10.080 -15.840 7.200 -15.840 6.480 -16.560 6.480 -17.280 7.200 -18.000Z" />
<g>
<circle cx="0" cy="-7.920" r="5.400"/>
<path d=" M -7.920 6.840 L -7.200 6.120 7.200 6.120 7.920 6.840 7.920 7.560 7.200 8.280 -7.200 8.280 -7.920 7.560 -7.920 6.840Z" />
<path d=" M -3.672 0.144 L -2.736 0.432 4.464 12.960 4.248 13.968 3.672 14.256 2.736 13.968 -4.464 1.440 -4.248 0.432 -3.672 0.144Z" />
<path d=" M -4.320 13.896 L -4.536 12.888 2.664 0.504 3.600 0.216 4.320 0.504 4.536 1.512 -2.664 13.896 -3.600 14.184 -4.320 13.896Z" />
</g>
</svg>
