<?xml version="1.0" encoding="ISO-8859-1"?><!DOCTYPE svg PUBLIC "-//W3C//DTD SVG 1.1//EN" "http://www.w3.org/Graphics/SVG/1.1/DTD/svg11.dtd"><svg version="1.1" baseProfile="full" width="100%" height="100%" viewBox="-13.320 -22.320 26.640 44.640" xmlns="http://www.w3.org/2000/svg" xmlns:xlink="http://www.w3.org/1999/xlink">
<path d="
  M 0.000 -8.352
  L 7.848 -8.352
  L 0.000 -22.032
  L -7.848 -8.352
  L 0.000 -8.352
  L 0.000 -9.792
  L -5.328 -9.792
  L 0.000 -19.152
  L 5.328 -9.792
  L 0.000 -9.792
  L 0.000 -8.352Z" stroke="none" />
<path d="
  M 12.384 -3.960
  L 13.104 -4.680
  L 13.104 -5.400
  L 12.384 -6.120
  L -12.456 -6.120
  L -13.176 -5.400
  L -13.176 -4.680
  L -12.456 -3.960
  L -9.576 -3.960
  L -9.576 21.312
  L -8.856 22.032
  L -8.136 22.032
  L -7.416 21.312
  L -7.416 -3.960
  L 12.384 -3.960Z" stroke="none" />
<path d="
  M 12.384 -4.968
  L 12.384 -3.960
  L 0.432 7.992
  L 10.800 18.504
  L 10.800 19.512
  L 10.368 19.944
  L 9.360 19.944
  L -2.592 7.848
  L 10.800 -5.544
  L 11.880 -5.472
  L 12.384 -4.968Z" stroke="none" />
<path d="
  M 12.888 22.032
  L 4.752 18.936
  L 10.296 19.440
  L 9.792 13.896
  L 12.888 22.032Z" stroke="none" />
</svg>
