<?xml version="1.0" encoding="ISO-8859-1"?><!DOCTYPE svg PUBLIC "-//W3C//DTD SVG 1.1//EN" "http://www.w3.org/Graphics/SVG/1.1/DTD/svg11.dtd"><svg version="1.1" baseProfile="full" width="100%" height="100%" viewBox="-19.152 -18.432 39.600 36.720" xmlns="http://www.w3.org/2000/svg" xmlns:xlink="http://www.w3.org/1999/xlink">
<path d=" M -12.672 15.120 C -15.264 11.088 -16.776 5.472 -16.776 -0.072 C -16.776 -5.544 -15.264 -11.160 -12.672 -15.264 L -12.600 -16.920 L -13.104 -17.568 L -14.472 -17.424 C -17.352 -12.672 -19.152 -6.336 -19.152 -0.072 C -19.152 6.192 -17.352 12.600 -14.472 17.208 L -13.104 17.352 L -12.600 16.704 L -12.672 15.120Z" />
<path d=" M 13.968 -15.192 C 16.560 -11.088 18.072 -5.472 18.072 -0.000 C 18.072 5.544 16.560 11.160 13.968 15.264 L 13.896 16.848 L 14.400 17.496 L 15.768 17.424 C 18.648 12.672 20.448 6.264 20.448 -0.000 C 20.448 -6.264 18.648 -12.600 15.768 -17.352 L 14.400 -17.424 L 13.896 -16.776 L 13.968 -15.192Z" />
<g>
<path d=" M -5.328 -2.520 C -7.128 -4.320 -8.136 -6.984 -7.920 -9.576 C -7.488 -14.472 -3.024 -18.288 1.872 -17.928 C 3.960 -17.712 5.976 -16.704 7.416 -15.264 C 7.704 -14.904 7.848 -14.472 7.848 -14.112 C 7.776 -13.320 7.056 -12.744 6.264 -12.816 C 5.976 -12.816 5.616 -12.960 5.400 -13.248 C 4.320 -14.184 2.952 -14.904 1.584 -15.048 C -1.728 -15.336 -4.752 -12.672 -5.040 -9.360 C -5.184 -7.632 -4.464 -5.832 -3.240 -4.536 L 5.472 2.736 C 7.344 4.608 8.352 7.272 8.136 9.864 C 7.704 14.760 3.240 18.432 -1.656 18.000 C -3.744 17.856 -5.760 16.848 -7.200 15.480 C -7.488 15.192 -7.632 14.760 -7.632 14.400 C -7.560 13.608 -6.840 12.960 -6.048 12.960 C -5.760 13.032 -5.400 13.176 -5.256 13.392 C -4.176 14.400 -2.736 15.048 -1.368 15.192 C 1.944 15.480 4.968 12.960 5.256 9.648 C 5.400 7.920 4.680 5.976 3.456 4.752 L -5.328 -2.520Z" />
<path d=" M -14.400 -0.360 L -13.680 -1.080 L 13.680 -1.080 L 14.400 -0.360 L 14.400 0.360 L 13.680 1.080 L -13.680 1.080 L -14.400 0.360 L -14.400 -0.360Z" />
<path d=" M 17.640 -0.000 L 9.720 5.760 L 14.040 -0.000 L 9.720 -5.760 L 17.640 -0.000Z" />
</g>
</svg>
