<?xml version="1.0" encoding="ISO-8859-1"?><!DOCTYPE svg PUBLIC "-//W3C//DTD SVG 1.1//EN" "http://www.w3.org/Graphics/SVG/1.1/DTD/svg11.dtd"><svg version="1.1" baseProfile="full" width="100%" height="100%" viewBox="-7.848 -18.720 20.088 37.440" xmlns="http://www.w3.org/2000/svg" xmlns:xlink="http://www.w3.org/1999/xlink">
<path d=" M 7.200 -18.000 L 7.200 -18.000 12.240 -18.000 12.240 18.000 7.200 18.000 6.480 17.280 6.480 16.560 7.200 15.840 10.080 15.840 10.080 -15.840 7.200 -15.840 6.480 -16.560 6.480 -17.280 7.200 -18.000Z" />
<g>
<path d=" M 0.000 -5.040 L 7.848 -5.040 0.000 -18.720 -7.848 -5.040 0.000 -5.040 0.000 -6.480 -5.328 -6.480 0.000 -15.840 5.328 -6.480 0.000 -6.480 0.000 -5.040Z" />
<path d=" M 0.000 -2.880 L 7.848 -2.880 0.000 18.720 -7.848 -2.880 0.000 -2.880 0.000 -1.440 -5.832 -1.440 0.000 14.544 5.832 -1.440 0.000 -1.440 0.000 -2.880Z" />
</g>
</svg>
