<?xml version="1.0" encoding="ISO-8859-1"?><!DOCTYPE svg PUBLIC "-//W3C//DTD SVG 1.1//EN" "http://www.w3.org/Graphics/SVG/1.1/DTD/svg11.dtd"><svg version="1.1" baseProfile="full" width="100%" height="100%" viewBox="-12.960 -20.880 25.920 41.760" xmlns="http://www.w3.org/2000/svg" xmlns:xlink="http://www.w3.org/1999/xlink">
<path d=" M -3.600 -3.528 C -1.872 2.520 -7.632 5.976 -10.800 7.560 C -9.576 6.408 -6.408 1.800 -7.632 0.936 C -10.296 0.936 -12.744 -3.384 -9.648 -5.688 C -7.416 -7.632 -4.248 -5.904 -3.600 -3.528Z" stroke="none" />
<path d=" M 3.816 -16.704 C 5.400 -10.296 -0.288 -6.984 -3.744 -5.256 C -2.520 -6.336 0.792 -11.160 -0.144 -11.952 C -3.168 -11.736 -5.400 -16.416 -2.376 -18.720 C -0.072 -20.664 3.240 -19.152 3.816 -16.704Z" stroke="none" />
<path d=" M 3.816 9.144 C 5.400 15.480 -0.288 18.864 -3.744 20.592 C -2.520 19.512 0.792 14.688 -0.144 13.896 C -3.168 14.112 -5.400 9.432 -2.376 7.056 C -0.072 5.184 3.240 6.696 3.816 9.144Z" stroke="none" />
<path d=" M 11.160 -3.744 C 12.744 2.520 6.984 5.904 3.528 7.632 C 4.752 6.552 8.136 1.728 7.056 0.936 C 4.032 1.152 1.872 -3.456 4.896 -5.760 C 7.200 -7.704 10.584 -6.192 11.160 -3.744Z" stroke="none" />
</svg>
