<?xml version="1.0" encoding="ISO-8859-1"?><!DOCTYPE svg PUBLIC "-//W3C//DTD SVG 1.1//EN" "http://www.w3.org/Graphics/SVG/1.1/DTD/svg11.dtd"><svg version="1.1" baseProfile="full" width="100%" height="100%" viewBox="-14.400 -18.000 33.120 36.000" xmlns="http://www.w3.org/2000/svg" xmlns:xlink="http://www.w3.org/1999/xlink">
<path d=" M 13.680 -18.000 L 13.680 -18.000 18.720 -18.000 18.720 18.000 13.680 18.000 12.960 17.280 12.960 16.560 13.680 15.840 16.560 15.840 16.560 -15.840 13.680 -15.840 12.960 -16.560 12.960 -17.280 13.680 -18.000Z" />
<g>
<path d=" M -14.400 -9.720 L -13.680 -10.440 13.680 -10.440 14.400 -9.720 14.400 -9.000 13.680 -8.280 -13.680 -8.280 -14.400 -9.000 -14.400 -9.720Z" />
<path d=" M -14.400 -0.360 L -13.680 -1.080 13.680 -1.080 14.400 -0.360 14.400 0.360 13.680 1.080 -13.680 1.080 -14.400 0.360 -14.400 -0.360Z" />
<path d=" M -14.400 9.000 L -13.680 8.280 13.680 8.280 14.400 9.000 14.400 9.720 13.680 10.440 -13.680 10.440 -14.400 9.720 -14.400 9.000Z" />
</g>
</svg>
