<?xml version="1.0" encoding="ISO-8859-1"?><!DOCTYPE svg PUBLIC "-//W3C//DTD SVG 1.1//EN" "http://www.w3.org/Graphics/SVG/1.1/DTD/svg11.dtd"><svg version="1.1" baseProfile="full" width="100%" height="100%" viewBox="-13.176 -14.040 26.280 47.160" xmlns="http://www.w3.org/2000/svg" xmlns:xlink="http://www.w3.org/1999/xlink">
<g>
<path d=" M 12.384 -11.952 L 13.104 -12.672 13.104 -13.392 12.384 -14.112 -12.456 -14.112 -13.176 -13.392 -13.176 -12.672 -12.456 -11.952 -9.576 -11.952 -9.576 13.320 -8.856 14.040 -8.136 14.040 -7.416 13.320 -7.416 -11.952 12.384 -11.952Z" />
<path d=" M 12.384 -12.960 L 12.384 -11.952 0.432 -0.000 10.800 10.512 10.800 11.520 10.368 11.952 9.360 11.952 -2.592 -0.144 10.800 -13.536 11.880 -13.464 12.384 -12.960Z" />
<path d=" M 12.888 14.040 L 4.752 10.944 10.296 11.448 9.792 5.904 12.888 14.040Z" />
</g>
<g>
<path d=" M -1.224 -25.992 C -2.016 -26.856 -2.520 -28.008 -2.376 -29.232 C -2.160 -31.464 -0.216 -33.120 1.872 -32.976 C 2.736 -32.904 3.672 -32.400 4.320 -31.752 C 4.464 -31.608 4.536 -31.464 4.536 -31.248 C 4.536 -30.888 4.176 -30.600 3.816 -30.744 C 3.672 -30.744 3.528 -30.744 3.384 -30.888 C 2.880 -31.248 2.304 -31.608 1.656 -31.680 C 0.360 -31.824 -1.008 -30.600 -1.080 -29.088 C -1.152 -28.368 -0.864 -27.576 -0.216 -27.000 L 3.456 -23.832 C 4.248 -23.040 4.752 -21.816 4.680 -20.664 C 4.464 -18.504 2.376 -16.776 0.360 -16.992 C -0.504 -16.992 -1.368 -17.496 -2.016 -18.144 C -2.160 -18.288 -2.304 -18.504 -2.304 -18.648 C -2.160 -18.936 -1.872 -19.296 -1.512 -19.296 C -1.368 -19.224 -1.224 -19.152 -1.224 -19.080 C -0.720 -18.648 -0.072 -18.288 0.504 -18.288 C 1.872 -18.144 3.240 -19.296 3.384 -20.736 C 3.384 -21.528 3.024 -22.392 2.592 -22.968 L -1.224 -25.992Z" />
<path d=" M -5.256 -25.056 L -4.968 -25.344 7.128 -25.344 7.416 -25.056 7.416 -24.984 7.128 -24.624 -4.968 -24.624 -5.256 -24.984 -5.256 -25.056Z" />
<path d=" M 8.856 -25.056 L 5.328 -22.536 7.272 -25.056 5.328 -27.504 8.856 -25.056Z" />
</g>
</svg>
