<?xml version="1.0" encoding="ISO-8859-1"?><!DOCTYPE svg PUBLIC "-//W3C//DTD SVG 1.1//EN" "http://www.w3.org/Graphics/SVG/1.1/DTD/svg11.dtd"><svg version="1.1" baseProfile="full" width="100%" height="100%" viewBox="-16.560 -22.320 33.120 44.640" xmlns="http://www.w3.org/2000/svg" xmlns:xlink="http://www.w3.org/1999/xlink">
<circle cx="-11.160" cy="-14.760" r="5.400" stroke="none" />
<path d=" M -6.480 -8.064 L -6.696 -9.072 0.504 -21.456 1.440 -21.744 2.160 -21.456 2.376 -20.448 -4.824 -8.064 -5.760 -7.776 -6.480 -8.064" stroke="none" />
<path d=" M 0.720 -15.120 L 1.440 -15.840 15.840 -15.840 16.560 -15.120 16.560 -14.400 15.840 -13.680 1.440 -13.680 0.720 -14.400 0.720 -15.120" stroke="none" />
<path d=" M 4.968 -21.816 L 5.904 -21.528 13.104 -9.000 12.888 -7.992 12.312 -7.704 11.376 -7.992 4.176 -20.520 4.392 -21.528 4.968 -21.816" stroke="none" />
<path d=" M 4.320 -8.064 L 4.104 -9.072 11.304 -21.456 12.240 -21.744 12.960 -21.456 13.176 -20.448 5.976 -8.064 5.040 -7.776 4.320 -8.064" stroke="none" />
<path d=" M 12.384 -3.960 L 13.104 -4.680 13.104 -5.400 12.384 -6.120 -12.456 -6.120 -13.176 -5.400 -13.176 -4.680 -12.456 -3.960 -9.576 -3.960 -9.576 21.312 -8.856 22.032 -8.136 22.032 -7.416 21.312 -7.416 -3.960 12.384 -3.960" stroke="none" />
<path d=" M 12.384 -4.968 L 12.384 -3.960 0.432 7.992 10.800 18.504 10.800 19.512 10.368 19.944 9.360 19.944 -2.592 7.848 10.800 -5.544 11.880 -5.472 12.384 -4.968" stroke="none" />
<path d=" M 12.888 22.032 L 4.752 18.936 10.296 19.440 9.792 13.896 12.888 22.032" stroke="none" />
</svg>
