<?xml version="1.0" encoding="ISO-8859-1"?><!DOCTYPE svg PUBLIC "-//W3C//DTD SVG 1.1//EN" "http://www.w3.org/Graphics/SVG/1.1/DTD/svg11.dtd"><svg version="1.1" baseProfile="full" width="100%" height="100%" viewBox="-5.760 -18.720 11.520 37.440" xmlns="http://www.w3.org/2000/svg" xmlns:xlink="http://www.w3.org/1999/xlink">
<path d=" M 1.440 13.680 C 1.440 15.552 2.520 17.352 4.176 18.360 C 4.320 18.432 4.536 18.504 4.680 18.504 C 5.256 18.504 5.760 18.000 5.760 17.424 C 5.760 17.064 5.544 16.704 5.184 16.488 C 4.248 15.912 3.600 14.760 3.600 13.680 L 3.600 13.680 L 3.600 -13.680 C 3.600 -14.760 4.248 -15.912 5.184 -16.488 C 5.544 -16.704 5.760 -17.064 5.760 -17.424 C 5.760 -18.000 5.256 -18.504 4.680 -18.504 C 4.536 -18.504 4.320 -18.432 4.176 -18.360 C 2.520 -17.352 1.440 -15.552 1.440 -13.680 L 1.440 -13.680 L 1.440 13.680" stroke="none" />
<path d=" M -1.440 -13.680 C -1.440 -15.552 -2.520 -17.352 -4.176 -18.360 C -4.320 -18.432 -4.536 -18.504 -4.680 -18.504 C -5.256 -18.504 -5.760 -18.000 -5.760 -17.424 C -5.760 -17.064 -5.544 -16.704 -5.184 -16.488 C -4.248 -15.912 -3.600 -14.760 -3.600 -13.680 L -3.600 -13.680 L -3.600 13.680 C -3.600 14.760 -4.248 15.912 -5.184 16.488 C -5.544 16.704 -5.760 17.064 -5.760 17.424 C -5.760 18.000 -5.256 18.504 -4.680 18.504 C -4.536 18.504 -4.320 18.432 -4.176 18.360 C -2.520 17.352 -1.440 15.552 -1.440 13.680 L -1.440 13.680 L -1.440 -13.680" stroke="none" />
</svg>
