<?xml version="1.0" encoding="ISO-8859-1"?><!DOCTYPE svg PUBLIC "-//W3C//DTD SVG 1.1//EN" "http://www.w3.org/Graphics/SVG/1.1/DTD/svg11.dtd"><svg version="1.1" baseProfile="full" width="100%" height="100%" viewBox="-14.400 -10.440 28.800 20.880" xmlns="http://www.w3.org/2000/svg" xmlns:xlink="http://www.w3.org/1999/xlink">
<path d=" M -14.400 -9.720 L -13.680 -10.440 -5.040 -10.440 -4.320 -9.720 -4.320 -9.000 -5.040 -8.280 -13.680 -8.280 -14.400 -9.000 -14.400 -9.720Z" />
<path d=" M 4.320 -9.720 L 5.040 -10.440 13.680 -10.440 14.400 -9.720 14.400 -9.000 13.680 -8.280 5.040 -8.280 4.320 -9.000 4.320 -9.720Z" />
<path d=" M -14.400 -0.360 L -13.680 -1.080 13.680 -1.080 14.400 -0.360 14.400 0.360 13.680 1.080 -13.680 1.080 -14.400 0.360 -14.400 -0.360Z" />
<path d=" M -14.400 9.000 L -13.680 8.280 -5.040 8.280 -4.320 9.000 -4.320 9.720 -5.040 10.440 -13.680 10.440 -14.400 9.720 -14.400 9.000Z" />
<path d=" M 4.320 9.000 L 5.040 8.280 13.680 8.280 14.400 9.000 14.400 9.720 13.680 10.440 5.040 10.440 4.320 9.720 4.320 9.000Z" />
</svg>
