<?xml version="1.0" encoding="ISO-8859-1"?><!DOCTYPE svg PUBLIC "-//W3C//DTD SVG 1.1//EN" "http://www.w3.org/Graphics/SVG/1.1/DTD/svg11.dtd"><svg version="1.1" baseProfile="full" width="100%" height="100%" viewBox="-14.400 -17.856 28.800 28.296" xmlns="http://www.w3.org/2000/svg" xmlns:xlink="http://www.w3.org/1999/xlink">
<path d=" M -14.400 -9.720 L -13.680 -10.440 13.680 -10.440 14.400 -9.720 14.400 -9.000 13.680 -8.280 -13.680 -8.280 -14.400 -9.000 -14.400 -9.720Z" />
<path d=" M -14.400 -0.360 L -13.680 -1.080 13.680 -1.080 14.400 -0.360 14.400 0.360 13.680 1.080 -13.680 1.080 -14.400 0.360 -14.400 -0.360Z" />
<path d=" M -14.400 9.000 L -13.680 8.280 13.680 8.280 14.400 9.000 14.400 9.720 13.680 10.440 -13.680 10.440 -14.400 9.720 -14.400 9.000Z" />
<path d=" M -5.832 -10.008 L -6.408 -9.072 -0.576 9.720 0.576 9.720 6.408 -9.072 5.832 -10.008 5.112 -10.224 4.248 -9.720 1.224 -0.000 -1.224 -0.000 -4.248 -9.720 -5.112 -10.224 -5.832 -10.008Z" />
</svg>
