<?xml version="1.0" encoding="ISO-8859-1"?><!DOCTYPE svg PUBLIC "-//W3C//DTD SVG 1.1//EN" "http://www.w3.org/Graphics/SVG/1.1/DTD/svg11.dtd"><svg version="1.1" baseProfile="full" width="100%" height="100%" viewBox="-13.320 -14.400 26.640 28.800" xmlns="http://www.w3.org/2000/svg" xmlns:xlink="http://www.w3.org/1999/xlink">
<path d=" M 12.384 -11.952 L 13.104 -12.672 13.104 -13.392 12.384 -14.112 -12.456 -14.112 -13.176 -13.392 -13.176 -12.672 -12.456 -11.952 -9.576 -11.952 -9.576 13.320 -8.856 14.040 -8.136 14.040 -7.416 13.320 -7.416 -11.952 12.384 -11.952" stroke="none" />
<path d=" M 12.384 -12.960 L 12.384 -11.952 0.432 -0.000 10.800 10.512 10.800 11.520 10.368 11.952 9.360 11.952 -2.592 -0.144 10.800 -13.536 11.880 -13.464 12.384 -12.960" stroke="none" />
<path d=" M 12.888 14.040 L 4.752 10.944 10.296 11.448 9.792 5.904 12.888 14.040" stroke="none" />
</svg>
