<?xml version="1.0" encoding="ISO-8859-1"?><!DOCTYPE svg PUBLIC "-//W3C//DTD SVG 1.1//EN" "http://www.w3.org/Graphics/SVG/1.1/DTD/svg11.dtd"><svg version="1.1" baseProfile="full" width="100%" height="100%" viewBox="-7.920 -22.896 15.840 45.792" xmlns="http://www.w3.org/2000/svg" xmlns:xlink="http://www.w3.org/1999/xlink">
<g>
<path d=" M -7.920 15.480 L -7.200 14.760 7.200 14.760 7.920 15.480 7.920 16.200 7.200 16.920 -7.200 16.920 -7.920 16.200 -7.920 15.480Z" />
<path d=" M -3.672 8.784 L -2.736 9.072 4.464 21.600 4.248 22.608 3.672 22.896 2.736 22.608 -4.464 10.080 -4.248 9.072 -3.672 8.784Z" />
<path d=" M -4.320 22.536 L -4.536 21.528 2.664 9.144 3.600 8.856 4.320 9.144 4.536 10.152 -2.664 22.536 -3.600 22.824 -4.320 22.536Z" />
</g>
<g>
<path d=" M -7.920 -16.200 L -7.200 -16.920 7.200 -16.920 7.920 -16.200 7.920 -15.480 7.200 -14.760 -7.200 -14.760 -7.920 -15.480 -7.920 -16.200Z" />
<path d=" M -3.672 -22.896 L -2.736 -22.608 4.464 -10.080 4.248 -9.072 3.672 -8.784 2.736 -9.072 -4.464 -21.600 -4.248 -22.608 -3.672 -22.896Z" />
<path d=" M -4.320 -9.144 L -4.536 -10.152 2.664 -22.536 3.600 -22.824 4.320 -22.536 4.536 -21.528 -2.664 -9.144 -3.600 -8.856 -4.320 -9.144Z" />
</g>
<g>
<path d=" M -7.920 -0.360 L -7.200 -1.080 7.200 -1.080 7.920 -0.360 7.920 0.360 7.200 1.080 -7.200 1.080 -7.920 0.360 -7.920 -0.360Z" />
<path d=" M -3.672 -7.056 L -2.736 -6.768 4.464 5.760 4.248 6.768 3.672 7.056 2.736 6.768 -4.464 -5.760 -4.248 -6.768 -3.672 -7.056Z" />
<path d=" M -4.320 6.696 L -4.536 5.688 2.664 -6.696 3.600 -6.984 4.320 -6.696 4.536 -5.688 -2.664 6.696 -3.600 6.984 -4.320 6.696Z" />
</g>
</svg>
