<?xml version="1.0" encoding="ISO-8859-1"?><!DOCTYPE svg PUBLIC "-//W3C//DTD SVG 1.1//EN" "http://www.w3.org/Graphics/SVG/1.1/DTD/svg11.dtd"><svg version="1.1" baseProfile="full" width="100%" height="100%" viewBox="-18.000 -9.000 36.000 18.000" xmlns="http://www.w3.org/2000/svg" xmlns:xlink="http://www.w3.org/1999/xlink">
<circle cx="-9.000" cy="0" r="3.960" stroke="none" />
<circle cx="9.000" cy="0" r="3.960" stroke="none" />
<path d="
  M -2.160 -5.616
  C -3.816 -7.632 -6.408 -8.856 -9.000 -8.856
  C -13.896 -8.856 -18.000 -4.752 -18.000 0.144
  C -18.000 2.232 -17.208 4.320 -15.840 5.904
  C -15.552 6.192 -15.120 6.408 -14.760 6.408
  C -13.968 6.408 -13.320 5.760 -13.320 4.968
  C -13.320 4.680 -13.464 4.320 -13.680 4.104
  C -14.544 2.952 -15.120 1.512 -15.120 0.144
  C -15.120 -3.168 -12.312 -5.976 -9.000 -5.976
  C -7.272 -5.976 -5.472 -5.112 -4.320 -3.744
  L 2.160 5.616
  C 3.816 7.632 6.408 8.856 9.000 8.856
  C 13.896 8.856 18.000 4.752 18.000 -0.144
  C 18.000 -2.232 17.208 -4.320 15.840 -5.904
  C 15.552 -6.192 15.120 -6.408 14.760 -6.408
  C 13.968 -6.408 13.320 -5.760 13.320 -4.968
  C 13.320 -4.680 13.464 -4.320 13.680 -4.104
  C 14.544 -2.952 15.120 -1.512 15.120 -0.144
  C 15.120 3.168 12.312 5.976 9.000 5.976
  C 7.272 5.976 5.472 5.112 4.320 3.744
  L -2.160 -5.616" stroke="none" />
</svg>
