<?xml version="1.0" encoding="ISO-8859-1"?><!DOCTYPE svg PUBLIC "-//W3C//DTD SVG 1.1//EN" "http://www.w3.org/Graphics/SVG/1.1/DTD/svg11.dtd"><svg version="1.1" baseProfile="full" width="100%" height="100%" viewBox="-18.000 -8.280 36.000 16.560" xmlns="http://www.w3.org/2000/svg" xmlns:xlink="http://www.w3.org/1999/xlink">
<path d="
  M -2.664 5.616
  C -4.320 7.272 -6.696 8.280 -9.000 8.280
  C -13.896 8.280 -18.000 4.176 -18.000 -0.000
  L -15.120 -0.000
  C -15.120 2.592 -12.312 5.400 -9.000 5.400
  C -7.416 5.400 -5.832 4.680 -4.680 3.600
  L 2.664 -5.616
  C 4.320 -7.272 6.696 -8.280 9.000 -8.280
  C 13.896 -8.280 18.000 -4.176 18.000 -0.000
  L 15.120 -0.000
  C 15.120 -2.592 12.312 -5.400 9.000 -5.400
  C 7.416 -5.400 5.832 -4.680 4.680 -3.600
  L -2.664 5.616Z" stroke="none" />
<path d="
  M 2.664 5.616
  C 4.320 7.272 6.696 8.280 9.000 8.280
  C 13.896 8.280 18.000 4.176 18.000 -0.000
  L 15.120 -0.000
  C 15.120 2.592 12.312 5.400 9.000 5.400
  C 7.416 5.400 5.832 4.680 4.680 3.600
  L -2.664 -5.616
  C -4.320 -7.272 -6.696 -8.280 -9.000 -8.280
  C -13.896 -8.280 -18.000 -4.176 -18.000 -0.000
  L -15.120 -0.000
  C -15.120 -2.592 -12.312 -5.400 -9.000 -5.400
  C -7.416 -5.400 -5.832 -4.680 -4.680 -3.600
  L 2.664 5.616Z" stroke="none" />
</svg>
