<?xml version="1.0" encoding="ISO-8859-1"?><!DOCTYPE svg PUBLIC "-//W3C//DTD SVG 1.1//EN" "http://www.w3.org/Graphics/SVG/1.1/DTD/svg11.dtd"><svg version="1.1" baseProfile="full" width="100%" height="100%" viewBox="-13.320 -14.400 26.640 28.800" xmlns="http://www.w3.org/2000/svg" xmlns:xlink="http://www.w3.org/1999/xlink">
<path d=" M 12.384 -11.880 L 13.104 -12.600 13.104 -13.320 12.384 -14.040 -12.456 -14.040 -13.176 -13.320 -13.176 -12.600 -12.456 -11.880 -9.576 -11.880 -9.576 13.392 -8.856 14.112 -8.136 14.112 -7.416 13.392 -7.416 -11.880 12.384 -11.880" stroke="none" />
<path d=" M 12.384 -12.888 L 12.384 -11.880 4.536 -4.032 13.104 4.680 5.616 12.168 4.608 12.168 4.104 11.664 4.104 10.656 10.080 4.680 1.440 -4.104 10.800 -13.464 11.880 -13.392 12.384 -12.888" stroke="none" />
<path d=" M 2.088 14.112 L 5.184 5.976 4.680 11.520 10.224 11.016 2.088 14.112" stroke="none" />
</svg>
