<?xml version="1.0" encoding="ISO-8859-1"?><!DOCTYPE svg PUBLIC "-//W3C//DTD SVG 1.1//EN" "http://www.w3.org/Graphics/SVG/1.1/DTD/svg11.dtd"><svg version="1.1" baseProfile="full" width="100%" height="100%" viewBox="-12.672 -17.496 25.200 35.064" xmlns="http://www.w3.org/2000/svg" xmlns:xlink="http://www.w3.org/1999/xlink">
<path d=" M -6.192 15.120 C -8.784 11.088 -10.296 5.472 -10.296 -0.072 C -10.296 -5.544 -8.784 -11.160 -6.192 -15.264 L -6.120 -16.920 L -6.624 -17.568 L -7.992 -17.424 C -10.872 -12.672 -12.672 -6.336 -12.672 -0.072 C -12.672 6.192 -10.872 12.600 -7.992 17.208 L -6.624 17.352 L -6.120 16.704 L -6.192 15.120Z" />
<path d=" M 6.048 -15.192 C 8.640 -11.088 10.152 -5.472 10.152 -0.000 C 10.152 5.544 8.640 11.160 6.048 15.264 L 5.976 16.848 L 6.480 17.496 L 7.848 17.424 C 10.728 12.672 12.528 6.264 12.528 -0.000 C 12.528 -6.264 10.728 -12.600 7.848 -17.352 L 6.480 -17.424 L 5.976 -16.776 L 6.048 -15.192Z" />
<circle cx="0" cy="0" r="5.400"/>
</svg>
