<?xml version="1.0" encoding="ISO-8859-1"?><!DOCTYPE svg PUBLIC "-//W3C//DTD SVG 1.1//EN" "http://www.w3.org/Graphics/SVG/1.1/DTD/svg11.dtd"><svg version="1.1" baseProfile="full" width="100%" height="100%" viewBox="-7.704 -18.144 13.752 36.288" xmlns="http://www.w3.org/2000/svg" xmlns:xlink="http://www.w3.org/1999/xlink">
<path d="
  M 5.544 6.120
  C 4.176 7.272 2.232 8.064 0.360 8.064
  C -4.032 8.064 -7.704 4.392 -7.704 -0.000
  C -7.704 -4.464 -4.032 -8.136 0.360 -8.136
  C 2.232 -8.136 4.176 -7.344 5.544 -6.192
  C 5.832 -5.832 6.048 -5.400 6.048 -5.112
  C 6.048 -4.320 5.472 -3.672 4.680 -3.672
  C 4.392 -3.672 4.032 -3.816 3.816 -4.032
  C 2.880 -4.896 1.584 -5.400 0.360 -5.400
  C -2.520 -5.400 -5.040 -2.952 -5.040 -0.000
  C -5.040 2.880 -2.520 5.400 0.360 5.400
  C 1.584 5.400 2.880 4.824 3.816 4.104
  C 4.032 3.888 4.392 3.744 4.680 3.744
  C 5.472 3.744 6.048 4.392 6.048 5.184
  C 6.048 5.472 5.832 5.904 5.544 6.120Z" />
<path d="
  M 5.544 16.200
  C 4.176 17.352 2.232 18.144 0.360 18.144
  C -4.032 18.144 -7.704 14.472 -7.704 10.080
  C -7.704 5.616 -4.032 1.944 0.360 1.944
  C 2.232 1.944 4.176 2.736 5.544 3.888
  C 5.832 4.248 6.048 4.680 6.048 4.968
  C 6.048 5.760 5.472 6.408 4.680 6.408
  C 4.392 6.408 4.032 6.264 3.816 6.048
  C 2.880 5.184 1.584 4.680 0.360 4.680
  C -2.520 4.680 -5.040 7.128 -5.040 10.080
  C -5.040 12.960 -2.520 15.480 0.360 15.480
  C 1.584 15.480 2.880 14.904 3.816 14.184
  C 4.032 13.968 4.392 13.824 4.680 13.824
  C 5.472 13.824 6.048 14.472 6.048 15.264
  C 6.048 15.552 5.832 15.984 5.544 16.200Z" />
<path d="
  M 5.544 -3.888
  C 4.176 -2.736 2.232 -1.944 0.360 -1.944
  C -4.032 -1.944 -7.704 -5.616 -7.704 -10.008
  C -7.704 -14.472 -4.032 -18.144 0.360 -18.144
  C 2.232 -18.144 4.176 -17.352 5.544 -16.200
  C 5.832 -15.840 6.048 -15.408 6.048 -15.120
  C 6.048 -14.328 5.472 -13.680 4.680 -13.680
  C 4.392 -13.680 4.032 -13.824 3.816 -14.040
  C 2.880 -14.904 1.584 -15.408 0.360 -15.408
  C -2.520 -15.408 -5.040 -12.960 -5.040 -10.008
  C -5.040 -7.128 -2.520 -4.608 0.360 -4.608
  C 1.584 -4.608 2.880 -5.184 3.816 -5.904
  C 4.032 -6.120 4.392 -6.264 4.680 -6.264
  C 5.472 -6.264 6.048 -5.616 6.048 -4.824
  C 6.048 -4.536 5.832 -4.104 5.544 -3.888Z" />
</svg>
