<?xml version="1.0" encoding="ISO-8859-1"?><!DOCTYPE svg PUBLIC "-//W3C//DTD SVG 1.1//EN" "http://www.w3.org/Graphics/SVG/1.1/DTD/svg11.dtd"><svg version="1.1" baseProfile="full" width="100%" height="100%" viewBox="-12.960 -14.400 25.920 28.800" xmlns="http://www.w3.org/2000/svg" xmlns:xlink="http://www.w3.org/1999/xlink">
<path d=" M -3.600 2.880 C -1.872 9.000 -7.632 12.456 -10.800 14.040 C -9.576 12.888 -6.408 8.280 -7.632 7.416 C -10.296 7.416 -12.744 3.024 -9.648 0.720 C -7.416 -1.152 -4.248 0.504 -3.600 2.880" stroke="none" />
<path d=" M 3.816 -10.224 C 5.400 -3.816 -0.288 -0.504 -3.744 1.152 C -2.520 0.072 0.792 -4.680 -0.144 -5.472 C -3.168 -5.256 -5.400 -9.936 -2.376 -12.240 C -0.072 -14.184 3.240 -12.672 3.816 -10.224" stroke="none" />
<path d=" M 11.160 2.664 C 12.744 9.000 6.984 12.384 3.528 14.112 C 4.752 13.032 8.136 8.208 7.056 7.416 C 4.032 7.632 1.872 2.952 4.896 0.576 C 7.200 -1.224 10.584 0.216 11.160 2.664" stroke="none" />
</svg>
