<?xml version="1.0" encoding="ISO-8859-1"?><!DOCTYPE svg PUBLIC "-//W3C//DTD SVG 1.1//EN" "http://www.w3.org/Graphics/SVG/1.1/DTD/svg11.dtd"><svg version="1.1" baseProfile="full" width="100%" height="100%" viewBox="-43.128 -38.160 86.256 76.104" xmlns="http://www.w3.org/2000/svg" xmlns:xlink="http://www.w3.org/1999/xlink">
<g>
<g>
<path d="
  M -16.776 -4.464
  C -16.128 -4.104 -15.336 -3.816 -14.760 -3.672
  C -12.528 -3.240 -11.160 -3.888 -8.568 -4.464
  L -16.776 -4.464" stroke="none" fill="rgb(0,0,0)" />
<path d="
  M -3.240 -4.464
  C -1.584 -4.320 -0.216 -4.176 1.296 -4.464
  L -3.240 -4.464" stroke="none" fill="rgb(0,0,0)" />
<path d="
  M -16.776 -4.464
  C -17.496 -4.896 -18.144 -5.328 -18.432 -5.832
  L 4.896 -5.760
  C 3.528 -5.040 2.304 -4.680 1.296 -4.464
  L -3.240 -4.464
  C -4.104 -4.608 -5.112 -4.752 -6.264 -4.896
  C -7.128 -4.752 -7.920 -4.608 -8.568 -4.464
  L -16.776 -4.464" stroke="none" fill="rgb(11,11,11)" />
<path d="
  M -30.312 -5.760
  C -30.096 -5.760 -29.808 -5.688 -29.592 -5.544
  C -26.928 -4.680 -24.480 -5.328 -21.960 -5.832
  L -30.312 -5.760" stroke="none" fill="rgb(11,11,11)" />
<path d="
  M 11.160 -5.832
  C 14.832 -4.608 18.936 -4.608 22.464 -5.832
  L 11.160 -5.832" stroke="none" fill="rgb(11,11,11)" />
<path d="
  M -30.312 -5.760
  C -31.248 -6.120 -32.040 -6.696 -32.616 -7.344
  L 7.344 -7.344
  C 6.408 -6.624 5.544 -6.120 4.896 -5.760
  L -18.432 -5.832
  C -18.648 -6.048 -18.720 -6.120 -18.720 -6.336
  C -19.800 -6.264 -20.880 -6.048 -21.960 -5.832
  L -30.312 -5.760" stroke="none" fill="rgb(21,21,21)" />
<path d="
  M 11.160 -5.832
  C 10.152 -6.264 9.216 -6.696 8.280 -7.344
  L 25.488 -7.344
  C 24.624 -6.696 23.544 -6.264 22.464 -5.832
  L 11.160 -5.832" stroke="none" fill="rgb(21,21,21)" />
<path d="
  M -32.616 -7.344
  C -33.120 -7.704 -33.408 -8.208 -33.696 -8.640
  L 30.168 -8.640
  C 29.304 -8.496 28.296 -8.496 27.288 -8.496
  C 26.784 -8.064 26.208 -7.704 25.488 -7.344
  L 8.280 -7.344
  C 8.064 -7.416 7.992 -7.488 7.776 -7.632
  C 7.632 -7.488 7.488 -7.416 7.344 -7.344
  L -32.616 -7.344" stroke="none" fill="rgb(29,29,29)" />
<path d="
  M -33.696 -8.640
  C -33.912 -9.000 -34.056 -9.576 -34.200 -10.080
  L 34.848 -10.080
  C 34.848 -10.008 34.776 -9.864 34.776 -9.792
  C 33.120 -9.072 31.752 -8.712 30.168 -8.640
  L -33.696 -8.640" stroke="none" fill="rgb(39,39,39)" />
<path d="
  M -34.200 -10.080
  C -34.272 -10.440 -34.344 -10.944 -34.344 -11.448
  L 35.424 -11.448
  C 35.280 -10.944 35.064 -10.440 34.848 -10.080
  L -34.200 -10.080" stroke="none" fill="rgb(49,49,49)" />
<path d="
  M -34.344 -11.448
  C -34.272 -11.952 -34.272 -12.384 -34.056 -12.888
  L 35.856 -12.888
  C 35.784 -12.384 35.568 -11.952 35.424 -11.448
  L -34.344 -11.448" stroke="none" fill="rgb(57,57,57)" />
<path d="
  M -34.056 -12.888
  C -33.912 -13.392 -33.696 -13.896 -33.408 -14.256
  L 35.856 -14.256
  C 35.928 -13.752 35.856 -13.392 35.856 -12.888
  L -34.056 -12.888" stroke="none" fill="rgb(67,67,67)" />
<path d="
  M -33.408 -14.256
  C -33.192 -14.544 -32.976 -14.832 -32.688 -15.120
  C -32.904 -15.336 -32.976 -15.552 -33.120 -15.624
  L 35.568 -15.768
  C 35.784 -15.264 35.856 -14.760 35.856 -14.256
  L -33.408 -14.256" stroke="none" fill="rgb(77,77,77)" />
<path d="
  M -33.120 -15.624
  C -33.336 -16.128 -33.408 -16.632 -33.408 -17.136
  L 34.488 -17.208
  C 34.992 -16.704 35.352 -16.200 35.568 -15.768
  L -33.120 -15.624" stroke="none" fill="rgb(85,85,85)" />
<path d="
  M -33.408 -17.136
  C -33.408 -17.568 -33.408 -18.072 -33.192 -18.576
  L 25.488 -18.648
  C 25.632 -18.360 25.704 -18.144 25.776 -18.000
  C 27.576 -18.072 30.096 -18.648 31.752 -18.288
  C 32.904 -18.072 33.768 -17.712 34.488 -17.208
  L -33.408 -17.136" stroke="none" fill="rgb(95,95,95)" />
<path d="
  M -33.192 -18.576
  C -32.976 -19.080 -32.688 -19.512 -32.328 -20.016
  L 24.408 -19.944
  C 24.840 -19.656 25.200 -19.152 25.488 -18.648
  L -33.192 -18.576" stroke="none" fill="rgb(105,105,105)" />
<path d="
  M -32.328 -20.016
  C -32.112 -20.304 -31.824 -20.592 -31.464 -20.880
  C -31.248 -21.096 -30.960 -21.240 -30.672 -21.384
  L 14.760 -21.384
  C 14.760 -21.312 14.760 -21.240 14.760 -21.096
  C 15.768 -21.240 16.704 -21.312 17.568 -21.384
  L 20.232 -21.384
  C 21.960 -21.312 23.328 -20.880 24.408 -19.944
  L -32.328 -20.016" stroke="none" fill="rgb(113,113,113)" />
<path d="
  M -30.672 -21.384
  C -28.944 -22.248 -26.352 -22.176 -23.904 -22.176
  C -23.832 -22.392 -23.832 -22.536 -23.760 -22.752
  L 14.688 -22.752
  C 14.760 -22.392 14.760 -21.888 14.760 -21.384
  L -30.672 -21.384" stroke="none" fill="rgb(123,123,123)" />
<path d="
  M 17.568 -21.384
  C 18.576 -21.528 19.440 -21.528 20.232 -21.384
  L 17.568 -21.384" stroke="none" fill="rgb(123,123,123)" />
<path d="
  M -23.760 -22.752
  C -23.472 -23.256 -23.184 -23.760 -22.680 -24.264
  L 14.472 -24.264
  C 14.544 -23.760 14.688 -23.256 14.688 -22.752
  L -23.760 -22.752" stroke="none" fill="rgb(133,133,133)" />
<path d="
  M -22.680 -24.264
  C -22.176 -24.696 -21.672 -25.200 -21.024 -25.632
  L 14.112 -25.632
  C 14.256 -25.128 14.400 -24.696 14.472 -24.264
  L -22.680 -24.264" stroke="none" fill="rgb(141,141,141)" />
<path d="
  M -21.024 -25.632
  C -20.016 -26.208 -18.864 -26.640 -17.496 -27.072
  L -8.784 -27.072
  C -7.848 -26.784 -6.840 -26.352 -6.048 -25.776
  C -5.976 -26.280 -5.832 -26.640 -5.544 -27.072
  L 13.320 -27.072
  C 13.680 -26.568 13.896 -26.064 14.112 -25.632
  L -21.024 -25.632" stroke="none" fill="rgb(151,151,151)" />
<path d="
  M -17.496 -27.072
  C -14.760 -27.864 -11.520 -27.936 -8.784 -27.072
  L -17.496 -27.072" stroke="none" fill="rgb(161,161,161)" />
<path d="
  M -5.544 -27.072
  C -5.256 -27.648 -4.824 -28.008 -4.176 -28.440
  L 12.024 -28.440
  C 12.528 -28.008 13.032 -27.576 13.320 -27.072
  L -5.544 -27.072" stroke="none" fill="rgb(161,161,161)" />
<path d="
  M -4.176 -28.440
  C -3.312 -29.088 -2.160 -29.592 -0.792 -29.880
  L 9.000 -29.880
  C 10.296 -29.592 11.232 -29.016 12.024 -28.440
  L -4.176 -28.440" stroke="none" fill="rgb(169,169,169)" />
<path d="
  M -0.792 -29.880
  C 1.944 -30.672 5.328 -30.744 7.992 -30.168
  C 8.352 -30.096 8.712 -30.024 9.000 -29.880
  L -0.792 -29.880" stroke="none" fill="rgb(179,179,179)" />
</g>
<path d="
  M 3.528 -8.928
  L -5.400 3.528
  L 0.072 2.808
  L -6.552 12.816
  L -1.152 11.304
  L -12.672 30.672
  L 8.712 8.424
  L 1.440 8.496
  L 9.864 -2.520
  L 3.312 -0.504
  L 11.016 -10.440
  L 3.528 -8.928" stroke="rgb(102,102,102)" stroke-width="0.216" fill="rgb(255,255,0)" />
<g>
<path d="
  M -13.680 -7.704
  C -13.608 -7.632 -13.464 -7.632 -13.392 -7.488
  C -9.936 -6.696 -7.056 -6.552 -4.536 -7.704
  L -13.680 -7.704" stroke="none" fill="rgb(179,179,179)" />
<path d="
  M -13.680 -7.704
  C -14.040 -8.064 -14.040 -8.424 -13.752 -8.784
  L -2.952 -8.784
  C -2.808 -8.712 -2.736 -8.712 -2.664 -8.712
  C -3.240 -8.280 -3.816 -7.992 -4.536 -7.704
  L -13.680 -7.704" stroke="none" fill="rgb(182,182,182)" />
<path d="
  M -13.752 -8.784
  C -13.608 -9.216 -13.176 -9.576 -12.672 -10.008
  L -5.112 -10.008
  C -4.608 -9.504 -3.600 -9.000 -2.952 -8.784
  L -13.752 -8.784" stroke="none" fill="rgb(182,182,182)" />
<path d="
  M -30.600 -10.008
  C -29.376 -8.640 -27.432 -9.000 -25.776 -10.008
  L -30.600 -10.008" stroke="none" fill="rgb(182,182,182)" />
<path d="
  M -3.456 -9.864
  C -1.080 -9.576 1.440 -9.360 3.816 -10.008
  L -3.456 -9.864" stroke="none" fill="rgb(182,182,182)" />
<path d="
  M 21.600 -10.008
  C 22.176 -9.792 22.464 -9.648 22.104 -9.648
  C 22.968 -9.504 23.616 -9.576 24.336 -10.008
  L 21.600 -10.008" stroke="none" fill="rgb(182,182,182)" />
<path d="
  M -30.600 -10.008
  C -30.888 -10.296 -31.032 -10.656 -31.320 -11.160
  L -21.096 -11.160
  C -21.672 -10.656 -21.960 -10.152 -22.968 -10.944
  C -23.328 -9.576 -26.640 -11.160 -24.984 -10.440
  C -25.272 -10.296 -25.488 -10.152 -25.776 -10.008
  L -30.600 -10.008" stroke="none" fill="rgb(184,184,184)" />
<path d="
  M -12.672 -10.008
  C -12.096 -10.368 -11.448 -10.872 -10.944 -11.160
  L 3.960 -11.160
  C 4.320 -10.872 4.680 -10.584 5.040 -10.296
  C 4.680 -10.152 4.320 -10.008 3.816 -10.008
  L -3.456 -9.864
  C -4.104 -10.008 -4.680 -10.152 -5.256 -10.296
  C -5.184 -10.152 -5.184 -10.080 -5.112 -10.008
  L -12.672 -10.008" stroke="none" fill="rgb(184,184,184)" />
<path d="
  M 21.600 -10.008
  C 20.520 -10.152 18.504 -10.656 17.784 -11.160
  L 25.776 -11.160
  C 25.272 -10.656 24.840 -10.296 24.336 -10.008
  L 21.600 -10.008" stroke="none" fill="rgb(184,184,184)" />
<path d="
  M -31.320 -11.160
  C -31.320 -11.160 -31.320 -11.232 -31.320 -11.232
  C -31.464 -11.664 -31.536 -11.952 -31.536 -12.312
  L -18.720 -12.312
  C -18.864 -12.240 -18.936 -12.024 -18.936 -11.808
  C -20.016 -11.808 -20.592 -11.448 -21.096 -11.160
  L -31.320 -11.160" stroke="none" fill="rgb(184,184,184)" />
<path d="
  M -10.944 -11.160
  C -10.368 -11.520 -9.864 -11.808 -9.792 -12.024
  C -13.392 -12.024 -15.048 -10.296 -15.840 -12.312
  L 3.024 -12.312
  C 3.240 -11.952 3.600 -11.520 3.960 -11.160
  L -10.944 -11.160" stroke="none" fill="rgb(184,184,184)" />
<path d="
  M 17.784 -11.160
  C 17.568 -11.232 17.496 -11.376 17.496 -11.448
  C 15.552 -11.448 14.832 -11.736 14.544 -12.312
  L 27.000 -12.312
  C 26.568 -11.952 26.208 -11.520 25.776 -11.160
  L 17.784 -11.160" stroke="none" fill="rgb(184,184,184)" />
<path d="
  M 6.624 -12.312
  C 8.280 -11.376 10.296 -10.872 12.384 -12.312
  L 6.624 -12.312" stroke="none" fill="rgb(184,184,184)" />
<path d="
  M -31.536 -12.312
  C -31.464 -12.744 -31.320 -13.104 -31.248 -13.464
  L 2.736 -13.464
  C 2.736 -13.032 2.808 -12.744 3.024 -12.312
  L -15.840 -12.312
  C -15.912 -12.528 -15.912 -12.744 -16.056 -13.032
  C -16.344 -12.024 -18.072 -12.744 -18.720 -12.312
  L -31.536 -12.312" stroke="none" fill="rgb(187,187,187)" />
<path d="
  M 6.624 -12.312
  C 6.048 -12.744 5.472 -13.104 4.968 -13.464
  L 12.240 -13.464
  C 11.952 -13.104 11.952 -12.888 12.816 -12.528
  C 12.744 -12.384 12.600 -12.312 12.384 -12.312
  L 6.624 -12.312" stroke="none" fill="rgb(187,187,187)" />
<path d="
  M 14.544 -12.312
  C 14.400 -12.600 14.256 -13.032 14.112 -13.464
  L 32.616 -13.464
  C 30.312 -12.816 30.744 -13.392 28.224 -13.392
  C 27.720 -13.104 27.360 -12.744 27.000 -12.312
  L 14.544 -12.312" stroke="none" fill="rgb(187,187,187)" />
<path d="
  M -31.248 -13.464
  C -31.032 -13.896 -30.888 -14.256 -30.672 -14.688
  L -27.720 -14.688
  C -27.360 -14.544 -26.784 -14.544 -26.064 -14.544
  C -26.064 -14.544 -26.208 -14.688 -26.208 -14.688
  L 2.808 -14.688
  C 2.736 -14.184 2.736 -13.752 2.736 -13.464
  L -31.248 -13.464" stroke="none" fill="rgb(187,187,187)" />
<path d="
  M 4.968 -13.464
  C 4.464 -13.896 4.104 -14.400 3.672 -14.688
  L 13.104 -14.544
  C 12.888 -14.112 12.384 -13.680 12.240 -13.464
  L 4.968 -13.464" stroke="none" fill="rgb(187,187,187)" />
<path d="
  M 14.112 -13.464
  C 13.968 -13.752 13.896 -14.184 13.680 -14.688
  L 33.048 -14.688
  C 32.904 -14.256 32.832 -13.896 32.616 -13.464
  C 32.616 -13.464 32.616 -13.464 32.616 -13.464
  L 14.112 -13.464" stroke="none" fill="rgb(187,187,187)" />
<path d="
  M -30.672 -14.688
  C -30.456 -15.048 -30.312 -15.408 -30.096 -15.840
  L -29.304 -15.840
  C -29.016 -15.048 -28.584 -14.760 -27.720 -14.688
  L -30.672 -14.688" stroke="none" fill="rgb(189,189,189)" />
<path d="
  M -26.208 -14.688
  C -26.496 -15.048 -26.640 -15.408 -26.856 -15.840
  L 32.760 -15.840
  C 32.904 -15.552 33.048 -15.120 33.048 -14.688
  L 13.680 -14.688
  C 13.608 -14.832 13.392 -15.048 13.320 -15.336
  C 13.320 -15.048 13.176 -14.760 13.104 -14.544
  L 3.672 -14.688
  C 3.384 -14.976 3.240 -15.120 3.024 -15.336
  C 2.952 -15.048 2.952 -14.832 2.808 -14.688
  L -26.208 -14.688" stroke="none" fill="rgb(189,189,189)" />
<path d="
  M -30.096 -15.840
  C -29.880 -16.200 -29.808 -16.632 -29.592 -16.992
  C -29.520 -16.488 -29.376 -16.128 -29.304 -15.840
  L -30.096 -15.840" stroke="none" fill="rgb(189,189,189)" />
<path d="
  M -26.856 -15.840
  C -27.072 -16.200 -27.144 -16.632 -27.144 -16.992
  L 23.832 -17.136
  C 23.832 -16.704 23.832 -16.416 23.832 -16.056
  C 24.264 -16.416 24.624 -16.704 25.128 -16.992
  L 31.536 -16.992
  C 32.040 -16.704 32.400 -16.344 32.760 -15.840
  L -26.856 -15.840" stroke="none" fill="rgb(189,189,189)" />
<path d="
  M -27.144 -16.992
  C -27.216 -17.424 -27.144 -17.784 -27.072 -18.144
  L 14.256 -18.144
  C 14.256 -17.784 14.256 -17.424 14.256 -16.992
  C 15.912 -17.496 16.632 -17.784 16.920 -18.144
  L 23.544 -18.288
  C 23.616 -17.856 23.760 -17.496 23.832 -17.136
  L -27.144 -16.992" stroke="none" fill="rgb(192,192,192)" />
<path d="
  M 25.128 -16.992
  C 27.072 -18.072 29.808 -18.000 31.536 -16.992
  L 25.128 -16.992" stroke="none" fill="rgb(192,192,192)" />
<path d="
  M -29.664 -18.144
  C -29.664 -18.144 -29.592 -18.072 -29.592 -18.000
  C -29.592 -18.072 -29.520 -18.072 -29.520 -18.144
  L -29.664 -18.144" stroke="none" fill="rgb(192,192,192)" />
<path d="
  M -29.664 -18.144
  C -29.880 -18.648 -29.952 -19.080 -30.096 -19.440
  L -27.720 -19.368
  C -28.440 -19.080 -29.016 -18.648 -29.520 -18.144
  L -29.664 -18.144" stroke="none" fill="rgb(192,192,192)" />
<path d="
  M -27.072 -18.144
  C -26.928 -18.648 -26.640 -19.080 -26.280 -19.440
  L 14.256 -19.368
  C 14.256 -18.936 14.256 -18.576 14.256 -18.144
  L -27.072 -18.144" stroke="none" fill="rgb(192,192,192)" />
<path d="
  M 16.920 -18.144
  C 17.136 -18.504 17.208 -18.864 17.208 -19.368
  L 22.680 -19.368
  C 23.040 -19.080 23.328 -18.792 23.544 -18.288
  L 16.920 -18.144" stroke="none" fill="rgb(192,192,192)" />
<path d="
  M -30.096 -19.440
  C -30.168 -19.944 -30.096 -20.232 -29.952 -20.520
  L 14.184 -20.520
  C 14.256 -20.160 14.256 -19.728 14.256 -19.368
  L -26.280 -19.440
  C -26.208 -19.512 -26.064 -19.656 -25.848 -19.728
  C -26.568 -19.728 -27.144 -19.512 -27.720 -19.368
  L -30.096 -19.440" stroke="none" fill="rgb(194,194,194)" />
<path d="
  M 17.208 -19.368
  C 17.208 -19.656 17.208 -19.872 17.208 -20.160
  C 19.944 -20.160 21.672 -20.016 22.680 -19.368
  L 17.208 -19.368" stroke="none" fill="rgb(194,194,194)" />
<path d="
  M -29.952 -20.520
  C -28.944 -22.680 -23.040 -20.880 -20.448 -20.880
  C -20.520 -21.096 -20.520 -21.384 -20.520 -21.672
  L 13.680 -21.672
  C 13.896 -21.384 14.112 -20.880 14.184 -20.520
  L -29.952 -20.520" stroke="none" fill="rgb(197,197,197)" />
<path d="
  M -20.520 -21.672
  C -20.448 -22.104 -20.448 -22.464 -20.232 -22.896
  L 12.528 -22.896
  C 13.104 -22.536 13.464 -22.176 13.680 -21.672
  L -20.520 -21.672" stroke="none" fill="rgb(197,197,197)" />
<path d="
  M -20.232 -22.896
  C -20.088 -23.256 -19.944 -23.616 -19.656 -24.048
  L 8.784 -24.048
  C 8.784 -23.904 8.712 -23.832 8.640 -23.616
  C 10.440 -23.616 11.664 -23.328 12.528 -22.896
  L -20.232 -22.896" stroke="none" fill="rgb(199,199,199)" />
<path d="
  M -19.656 -24.048
  C -19.368 -24.408 -18.936 -24.840 -18.432 -25.200
  L -5.472 -25.200
  C -5.184 -25.200 -4.968 -25.128 -4.680 -24.984
  C -4.680 -25.128 -4.680 -25.200 -4.680 -25.200
  L 8.712 -25.200
  C 8.928 -24.840 8.928 -24.552 8.784 -24.048
  L -19.656 -24.048" stroke="none" fill="rgb(199,199,199)" />
<path d="
  M -18.432 -25.200
  C -17.712 -25.704 -16.704 -26.208 -15.408 -26.352
  L -10.872 -26.352
  C -9.288 -26.208 -7.560 -25.920 -5.472 -25.200
  L -18.432 -25.200" stroke="none" fill="rgb(202,202,202)" />
<path d="
  M -4.680 -25.200
  C -4.680 -25.704 -4.536 -26.064 -4.320 -26.352
  L 8.280 -26.280
  C 8.424 -25.920 8.640 -25.488 8.712 -25.200
  L -4.680 -25.200" stroke="none" fill="rgb(202,202,202)" />
<path d="
  M -15.408 -26.352
  C -14.184 -26.568 -12.600 -26.640 -10.872 -26.352
  L -15.408 -26.352" stroke="none" fill="rgb(202,202,202)" />
<path d="
  M -4.320 -26.352
  C -4.032 -26.856 -3.600 -27.288 -3.168 -27.576
  L 7.632 -27.576
  C 7.776 -27.360 7.920 -27.288 7.992 -27.072
  C 8.064 -26.784 8.208 -26.568 8.280 -26.280
  L -4.320 -26.352" stroke="none" fill="rgb(202,202,202)" />
<path d="
  M -3.168 -27.576
  C -0.216 -29.304 5.832 -28.944 7.632 -27.576
  L -3.168 -27.576" stroke="none" fill="rgb(204,204,204)" />
</g>
<path d="
  M -33.768 3.528
  L -33.336 3.816
  L -27.576 -4.464
  L -28.512 -5.040
  L -34.272 3.240
  L -33.768 3.528
  L -33.768 3.528" stroke="none" fill="rgb(0,0,0)" />
<path d="
  M -30.312 3.240
  L -29.808 3.528
  L -24.192 -4.464
  L -25.200 -5.040
  L -30.744 2.952
  L -30.312 3.240
  L -30.312 3.240" stroke="none" fill="rgb(0,0,0)" />
<path d="
  M -27.936 5.472
  L -27.432 5.760
  L -19.440 -6.048
  L -20.448 -6.624
  L -28.440 5.184
  L -27.936 5.472
  L -27.936 5.472" stroke="none" fill="rgb(0,0,0)" />
<path d="
  M -27.216 11.016
  L -26.784 11.304
  L -16.200 -4.320
  L -17.208 -4.896
  L -27.720 10.728
  L -27.216 11.016
  L -27.216 11.016" stroke="none" fill="rgb(0,0,0)" />
<path d="
  M -22.464 10.296
  L -21.960 10.584
  L -12.240 -3.816
  L -13.176 -4.392
  L -22.968 9.936
  L -22.464 10.296
  L -22.464 10.296" stroke="none" fill="rgb(0,0,0)" />
<path d="
  M -21.024 15.840
  L -20.520 16.128
  L -6.480 -4.464
  L -7.416 -5.040
  L -21.456 15.552
  L -21.024 15.840
  L -21.024 15.840" stroke="none" fill="rgb(0,0,0)" />
<path d="
  M -15.120 12.960
  L -14.688 13.320
  L -3.168 -3.816
  L -4.104 -4.392
  L -15.624 12.672
  L -15.120 12.960
  L -15.120 12.960" stroke="none" fill="rgb(0,0,0)" />
<path d="
  M -11.952 14.256
  L -11.448 14.544
  L -4.896 5.112
  L -5.832 4.536
  L -12.384 13.968
  L -11.952 14.256
  L -11.952 14.256" stroke="none" fill="rgb(0,0,0)" />
<path d="
  M -12.600 18.576
  L -12.096 18.864
  L -7.632 12.312
  L -8.568 11.736
  L -13.104 18.288
  L -12.600 18.576
  L -12.600 18.576" stroke="none" fill="rgb(0,0,0)" />
<path d="
  M 8.208 5.184
  L 8.640 5.472
  L 15.408 -4.320
  L 14.472 -4.896
  L 7.704 4.896
  L 8.208 5.184
  L 8.208 5.184" stroke="none" fill="rgb(0,0,0)" />
<path d="
  M -1.080 24.912
  L -0.576 25.200
  L 19.944 -5.256
  L 18.936 -5.832
  L -1.584 24.624
  L -1.080 24.912
  L -1.080 24.912" stroke="none" fill="rgb(0,0,0)" />
<path d="
  M 8.928 15.264
  L 9.360 15.552
  L 24.552 -6.840
  L 23.544 -7.416
  L 8.424 14.976
  L 8.928 15.264
  L 8.928 15.264" stroke="none" fill="rgb(0,0,0)" />
<path d="
  M 16.992 9.288
  L 17.496 9.576
  L 29.808 -8.496
  L 28.800 -9.072
  L 16.488 9.000
  L 16.992 9.288
  L 16.992 9.288" stroke="none" fill="rgb(0,0,0)" />
<path d="
  M 24.336 3.456
  L 24.840 3.744
  L 34.272 -10.296
  L 33.336 -10.872
  L 23.832 3.168
  L 24.336 3.456
  L 24.336 3.456" stroke="none" fill="rgb(0,0,0)" />
<path d="
  M -33.480 -3.096
  L -32.976 -2.736
  L -30.744 -5.472
  L -31.752 -6.264
  L -33.984 -3.528
  L -33.480 -3.096
  L -33.480 -3.096" stroke="none" fill="rgb(0,0,0)" />
<path d="
  M -35.568 -6.336
  L -35.136 -5.976
  L -33.912 -7.200
  L -34.704 -7.992
  L -35.928 -6.696
  L -35.568 -6.336
  L -35.568 -6.336" stroke="none" fill="rgb(0,0,0)" />
<path d="
  M 8.640 -3.528
  L 9.072 -3.096
  L 11.160 -5.328
  L 10.152 -6.120
  L 8.208 -3.888
  L 8.640 -3.528
  L 8.640 -3.528" stroke="none" fill="rgb(0,0,0)" />
</g>
</svg>
