<?xml version="1.0" encoding="ISO-8859-1"?><!DOCTYPE svg PUBLIC "-//W3C//DTD SVG 1.1//EN" "http://www.w3.org/Graphics/SVG/1.1/DTD/svg11.dtd"><svg version="1.1" baseProfile="full" width="100%" height="100%" viewBox="-42.624 -42.048 85.176 84.168" xmlns="http://www.w3.org/2000/svg" xmlns:xlink="http://www.w3.org/1999/xlink">
<g>
<g>
<g>
<path d="
  M -4.968 -28.728
  L -4.968 -28.728
  C -4.320 -28.728 -3.744 -28.080 -3.744 -27.072
  L -3.744 32.472
  C -3.744 33.336 -4.320 34.128 -4.968 34.128
  L -4.968 34.128
  C -5.616 34.128 -6.120 33.336 -6.120 32.472
  L -6.120 -27.072
  C -6.120 -28.080 -5.616 -28.728 -4.968 -28.728" stroke="rgb(0,0,0)" stroke-width="0.504" fill="rgb(179,179,179)" />
<circle cx="-4.968" cy="-29.448" r="1.980" stroke="rgb(0,0,0)" stroke-width="0.504" fill="rgb(179,179,179)" />
</g>
<g>
<path d="
  M -2.448 -23.544
  C 4.752 -30.528 14.400 -29.016 18.936 -21.312
  C 23.040 -13.104 27.576 -18.288 33.984 -18.360
  C 34.632 -15.696 33.696 -6.120 32.688 0.216
  C 20.592 3.240 20.880 0.432 15.480 -2.016
  C 10.512 -6.984 3.456 -7.488 -1.512 -3.384
  C -1.368 -4.680 -1.800 -18.288 -2.448 -23.544" stroke="rgb(0,0,0)" stroke-width="0.504" fill="rgb(255,255,255)" />
<path d="
  M -1.512 -3.384
  C 0.720 -5.472 3.960 -6.192 7.632 -6.120
  L 7.200 -28.080
  C 2.376 -27.648 1.152 -26.208 -2.448 -23.688
  C -1.800 -16.560 -1.584 -10.512 -1.512 -3.384" stroke="rgb(0,0,0)" stroke-width="0.504" fill="rgb(255,0,0)" />
<path d="
  M 33.984 -18.288
  C 34.632 -14.976 33.552 -5.904 32.688 0.216
  C 29.448 1.008 26.280 1.512 22.896 1.512
  L 23.688 -16.776
  C 26.712 -16.128 31.608 -18.792 33.984 -18.288" stroke="rgb(0,0,0)" stroke-width="0.504" fill="rgb(255,0,0)" />
<path d="
  M 15.408 -4.464
  L 15.696 -8.352
  L 17.136 -7.488
  L 18.936 -7.056
  L 18.504 -8.064
  L 18.504 -8.928
  L 21.816 -10.440
  L 21.024 -11.592
  L 22.464 -13.032
  L 20.664 -13.320
  L 20.448 -14.400
  L 18.432 -13.680
  L 17.784 -14.112
  L 18.000 -15.264
  L 18.720 -16.560
  L 19.800 -17.928
  L 18.072 -17.928
  L 17.568 -21.096
  L 16.056 -19.008
  L 14.112 -20.448
  L 15.048 -17.856
  L 15.264 -14.976
  L 14.832 -14.544
  L 14.328 -14.976
  L 13.464 -16.560
  L 12.816 -17.928
  L 12.240 -16.128
  L 10.224 -17.064
  L 11.160 -14.976
  L 9.648 -14.112
  L 11.304 -11.808
  L 11.952 -10.944
  L 11.736 -10.224
  L 11.160 -9.792
  L 13.104 -9.432
  L 14.616 -8.784
  L 14.328 -5.040
  L 15.408 -4.464" stroke="rgb(0,0,0)" stroke-width="0.504" fill="rgb(255,0,0)" />
</g>
</g>
<path d="
  M -18.072 17.568
  L -9.648 10.872
  L -18.072 4.752
  L -18.072 8.928
  C -28.512 9.072 -31.176 9.288 -34.272 2.304
  C -34.200 4.680 -34.200 7.848 -32.976 9.936
  C -30.096 15.264 -22.896 13.896 -18.072 13.896
  L -18.072 17.568" stroke="rgb(0,0,0)" stroke-width="0.504" fill="rgb(255,0,0)" />
<path d="
  M -18.720 -0.720
  L -10.728 -7.272
  L -18.792 -13.032
  L -18.792 -8.928
  C -28.944 -8.928 -31.392 -8.712 -34.488 -15.408
  C -34.488 -13.104 -34.416 -10.080 -33.192 -8.064
  C -30.456 -2.880 -23.544 -4.248 -18.720 -4.248
  L -18.720 -0.720" stroke="rgb(0,0,0)" stroke-width="0.504" fill="rgb(255,0,0)" />
<path d="
  M -18.360 -18.936
  L -10.080 -25.560
  L -18.504 -31.680
  L -18.360 -27.504
  C -28.944 -27.432 -31.464 -27.072 -34.704 -34.200
  C -34.632 -31.824 -34.488 -28.584 -33.336 -26.568
  C -30.528 -21.168 -23.328 -22.608 -18.360 -22.608
  L -18.360 -18.936" stroke="rgb(0,0,0)" stroke-width="0.504" fill="rgb(255,0,0)" />
</g>
</svg>
