<?xml version="1.0" encoding="ISO-8859-1"?><!DOCTYPE svg PUBLIC "-//W3C//DTD SVG 1.1//EN" "http://www.w3.org/Graphics/SVG/1.1/DTD/svg11.dtd"><svg version="1.1" baseProfile="full" width="100%" height="100%" viewBox="-40.104 -43.920 79.488 87.768" xmlns="http://www.w3.org/2000/svg" xmlns:xlink="http://www.w3.org/1999/xlink">
<g>
<path d="
  M 21.960 31.680
  L 20.520 27.936
  C 23.760 27.360 26.784 28.512 27.576 30.600
  C 28.296 32.616 26.424 34.776 23.328 35.424
  C 20.232 36.000 17.064 34.776 16.344 32.688
  C 15.552 30.600 17.496 28.512 20.520 27.936
  C 20.520 27.936 20.520 27.936 20.520 27.936
  L 21.960 31.680" stroke="rgb(0,0,0)" stroke-width="0.504" fill="rgb(179,179,179)" />
<path d="
  M 15.840 -16.344
  L 27.576 -16.344" fill="none" stroke="rgb(0,0,0)" stroke-width="0.504" />
<path d="
  M 17.856 -8.496
  L 25.632 -8.496" fill="none" stroke="rgb(0,0,0)" stroke-width="0.504" />
<path d="
  M 15.696 -1.008
  L 27.936 -1.008" fill="none" stroke="rgb(0,0,0)" stroke-width="0.504" />
<path d="
  M 18.576 6.624
  L 25.992 6.624" fill="none" stroke="rgb(0,0,0)" stroke-width="0.504" />
<path d="
  M 15.696 14.040
  L 27.936 14.040" fill="none" stroke="rgb(0,0,0)" stroke-width="0.504" />
<path d="
  M 30.096 0.360
  L 30.672 0.504
  L 31.104 0.792
  L 31.392 1.296
  L 31.464 1.872
  L 31.464 1.872
  L 31.392 2.448
  L 31.104 2.880
  L 30.672 3.168
  L 30.096 3.312
  L 30.096 3.312
  L 29.520 3.168
  L 29.088 2.880
  L 28.728 2.448
  L 28.584 1.872
  L 28.584 1.872
  L 28.728 1.296
  L 29.088 0.792
  L 29.520 0.504
  L 30.096 0.360
  L 30.096 0.360" stroke="none" fill="rgb(0,0,0)" />
<g>
</g>
<path d="
  M 21.960 -22.608
  L 21.816 -22.608
  C 20.808 -22.608 19.944 -21.816 19.944 -20.736
  L 19.944 28.008
  C 19.944 29.160 20.808 29.952 21.816 29.952
  L 21.960 29.952
  C 22.896 29.952 23.832 29.160 23.832 28.008
  L 23.832 -20.736
  C 23.832 -21.816 22.896 -22.608 21.960 -22.608" stroke="rgb(0,0,0)" stroke-width="0.504" fill="rgb(179,179,179)" />
<ellipse cx="21.816" cy="31.176" rx="4.860" ry="3.096" transform="rotate(-0.000)" stroke="rgb(0,0,0)" stroke-width="0.504" fill="rgb(255,0,0)" />
<path d="
  M 21.024 28.656
  L 21.024 8.064
  L 22.752 8.064
  L 22.752 28.656
  L 21.024 28.656" stroke="rgb(0,0,0)" stroke-width="0.504" fill="rgb(255,0,0)" />
<path d="
  M -22.032 2.880
  C -21.456 8.064 -20.448 19.296 -16.560 23.040
  C -12.816 26.712 -4.824 25.344 0.720 24.768
  L 1.440 30.024
  L 12.384 20.016
  L -0.648 12.456
  L -0.072 17.784
  C -4.320 18.288 -6.192 18.720 -10.728 18.504
  C -12.816 18.072 -14.688 17.784 -16.992 15.120
  C -17.136 14.904 -17.280 14.688 -17.496 14.544
  C -14.976 15.624 -11.376 14.904 -8.640 14.616
  L -8.280 17.568
  L -1.944 11.736
  L -9.504 7.344
  L -9.144 10.440
  C -11.664 10.728 -12.672 11.016 -15.480 10.944
  C -16.560 10.656 -17.784 10.512 -19.080 8.856
  C -19.368 8.640 -19.584 8.280 -19.872 7.848
  C -18.432 8.640 -16.272 8.280 -14.688 8.064
  L -14.472 9.864
  L -11.016 6.552
  L -15.192 4.104
  L -14.976 5.832
  C -16.344 6.048 -16.992 6.192 -18.432 6.048
  C -19.080 5.832 -19.728 5.832 -20.448 4.968
  C -21.240 4.104 -21.744 2.376 -22.248 0.864
  L -22.032 2.880" stroke="rgb(0,0,0)" stroke-width="0.504" fill="rgb(0,0,255)" />
<g>
<g>
<path d="
  M -30.024 -32.832
  L -30.024 -32.832
  C -29.304 -32.832 -28.728 -32.040 -28.728 -31.032
  L -28.728 33.768
  C -28.728 34.776 -29.304 35.568 -30.024 35.568
  L -30.024 35.568
  C -30.672 35.568 -31.248 34.776 -31.248 33.768
  L -31.248 -31.032
  C -31.248 -32.040 -30.672 -32.832 -30.024 -32.832" stroke="rgb(0,0,0)" stroke-width="0.504" fill="rgb(179,179,179)" />
<ellipse cx="-29.952" cy="-33.696" rx="2.232" ry="2.160" transform="rotate(-0.000)" stroke="rgb(0,0,0)" stroke-width="0.504" fill="rgb(179,179,179)" />
</g>
<g>
<path d="
  M -27.216 -27.144
  C -19.224 -34.704 -8.424 -33.120 -3.528 -24.696
  C 1.008 -15.768 5.976 -21.528 12.960 -21.528
  C 13.752 -18.648 12.672 -8.064 11.664 -1.224
  C -1.656 2.016 -1.440 -1.080 -7.344 -3.672
  C -12.816 -9.072 -20.736 -9.648 -26.136 -5.112
  C -25.992 -6.480 -26.496 -21.384 -27.216 -27.144" stroke="rgb(0,0,0)" stroke-width="0.504" fill="rgb(255,255,255)" />
<path d="
  M -26.136 -5.112
  C -23.616 -7.416 -20.016 -8.280 -16.056 -8.064
  L -16.560 -32.040
  C -21.816 -31.680 -23.256 -30.024 -27.288 -27.288
  C -26.496 -19.584 -26.280 -12.960 -26.136 -5.112" stroke="rgb(0,0,0)" stroke-width="0.504" fill="rgb(255,0,0)" />
<path d="
  M 12.960 -21.528
  C 13.680 -17.856 12.600 -7.776 11.664 -1.224
  C 8.208 -0.432 4.608 0.216 0.936 0.216
  L 1.728 -19.728
  C 5.112 -19.008 10.512 -22.032 12.960 -21.528" stroke="rgb(0,0,0)" stroke-width="0.504" fill="rgb(255,0,0)" />
<path d="
  M -7.416 -6.264
  L -7.056 -10.584
  L -5.544 -9.576
  L -3.528 -9.072
  L -3.960 -10.152
  L -3.960 -11.232
  L -0.288 -12.888
  L -1.224 -14.256
  L 0.432 -15.624
  L -1.656 -16.056
  L -1.872 -17.208
  L -4.104 -16.344
  L -4.824 -16.848
  L -4.608 -18.144
  L -3.672 -19.584
  L -2.520 -21.024
  L -4.536 -21.096
  L -5.040 -24.480
  L -6.624 -22.320
  L -8.784 -23.760
  L -7.848 -21.024
  L -7.488 -17.856
  L -7.992 -17.352
  L -8.640 -17.856
  L -9.720 -19.584
  L -10.368 -21.096
  L -11.016 -19.008
  L -13.176 -20.088
  L -12.168 -17.712
  L -13.896 -16.920
  L -12.096 -14.472
  L -11.304 -13.464
  L -11.592 -12.672
  L -12.168 -12.240
  L -10.008 -11.880
  L -8.208 -11.088
  L -8.640 -6.912
  L -7.416 -6.264" stroke="rgb(0,0,0)" stroke-width="0.504" fill="rgb(255,0,0)" />
</g>
</g>
</g>
</svg>
