<?xml version="1.0" encoding="ISO-8859-1"?><!DOCTYPE svg PUBLIC "-//W3C//DTD SVG 1.1//EN" "http://www.w3.org/Graphics/SVG/1.1/DTD/svg11.dtd"><svg version="1.1" baseProfile="full" width="100%" height="100%" viewBox="-43.704 -41.976 87.408 84.024" xmlns="http://www.w3.org/2000/svg" xmlns:xlink="http://www.w3.org/1999/xlink">
<g>
<g>
<g>
<path d="
  M -5.040 -31.176
  L -5.040 -31.176
  C -4.392 -31.176 -3.816 -30.384 -3.816 -29.448
  L -3.816 32.328
  C -3.816 33.264 -4.392 34.056 -5.040 34.056
  L -5.040 34.056
  C -5.760 34.056 -6.264 33.264 -6.264 32.328
  L -6.264 -29.448
  C -6.264 -30.384 -5.760 -31.176 -5.040 -31.176" stroke="rgb(0,0,0)" stroke-width="0.504" fill="rgb(179,179,179)" />
<circle cx="-5.112" cy="-31.968" r="2.052" stroke="rgb(0,0,0)" stroke-width="0.504" fill="rgb(179,179,179)" />
</g>
<g>
<path d="
  M -2.520 -25.776
  C 4.896 -32.976 14.976 -31.464 19.512 -23.400
  C 23.760 -14.832 28.440 -20.376 35.064 -20.376
  C 35.784 -17.640 34.776 -7.560 33.696 -1.008
  C 21.312 2.016 21.528 -0.936 15.984 -3.384
  C 10.872 -8.496 3.528 -9.072 -1.440 -4.752
  C -1.368 -6.048 -1.872 -20.304 -2.520 -25.776" stroke="rgb(0,0,0)" stroke-width="0.504" fill="rgb(255,255,255)" />
<path d="
  M -1.440 -4.752
  C 0.792 -6.912 4.104 -7.776 7.848 -7.560
  L 7.344 -30.384
  C 2.520 -30.024 1.224 -28.512 -2.592 -25.848
  C -1.872 -18.576 -1.656 -12.240 -1.440 -4.752" stroke="rgb(0,0,0)" stroke-width="0.504" fill="rgb(255,0,0)" />
<path d="
  M 35.064 -20.376
  C 35.712 -16.848 34.632 -7.272 33.696 -1.008
  C 30.384 -0.216 27.072 0.288 23.688 0.288
  L 24.408 -18.648
  C 27.576 -18.000 32.616 -20.808 35.064 -20.376" stroke="rgb(0,0,0)" stroke-width="0.504" fill="rgb(255,0,0)" />
<path d="
  M 15.912 -5.832
  L 16.272 -9.936
  L 17.712 -9.000
  L 19.512 -8.496
  L 19.152 -9.576
  L 19.152 -10.584
  L 22.608 -12.096
  L 21.672 -13.464
  L 23.328 -14.760
  L 21.312 -15.120
  L 21.096 -16.272
  L 18.936 -15.408
  L 18.288 -15.912
  L 18.576 -17.136
  L 19.440 -18.576
  L 20.448 -19.872
  L 18.648 -20.016
  L 18.144 -23.184
  L 16.632 -21.096
  L 14.688 -22.536
  L 15.624 -19.872
  L 15.840 -16.848
  L 15.408 -16.416
  L 14.760 -16.848
  L 13.824 -18.576
  L 13.176 -20.016
  L 12.600 -18.000
  L 10.512 -19.008
  L 11.448 -16.776
  L 9.936 -15.984
  L 11.520 -13.608
  L 12.312 -12.672
  L 12.024 -11.952
  L 11.448 -11.520
  L 13.536 -11.160
  L 15.120 -10.440
  L 14.760 -6.408
  L 15.912 -5.832" stroke="rgb(0,0,0)" stroke-width="0.504" fill="rgb(255,0,0)" />
</g>
</g>
<path d="
  M -20.016 3.600
  L -12.096 -2.808
  L -20.160 -8.496
  L -20.160 -4.464
  C -30.096 -4.464 -32.544 -4.176 -35.568 -10.872
  C -35.496 -8.640 -35.424 -5.616 -34.272 -3.672
  C -31.536 1.584 -24.768 0.144 -20.016 0.216
  L -20.016 3.600" stroke="rgb(0,0,0)" stroke-width="0.504" fill="rgb(0,0,255)" />
<path d="
  M -19.728 -14.328
  L -11.520 -20.952
  L -19.872 -26.928
  L -19.728 -22.824
  C -30.096 -22.752 -32.616 -22.464 -35.784 -29.376
  C -35.640 -27.072 -35.640 -23.904 -34.416 -21.816
  C -31.608 -16.488 -24.552 -17.928 -19.728 -17.928
  L -19.728 -14.328" stroke="rgb(0,0,0)" stroke-width="0.504" fill="rgb(0,0,255)" />
</g>
</svg>
